G04 EAGLE Gerber RS-274X export*
G75*
%MOMM*%
%FSLAX34Y34*%
%LPD*%
%INSilkscreen Top*%
%IPPOS*%
%AMOC8*
5,1,8,0,0,1.08239X$1,22.5*%
G01*
%ADD10C,0.127000*%
%ADD11C,0.200000*%
%ADD12C,0.101600*%
%ADD13C,0.150000*%
%ADD14C,0.152400*%
%ADD15C,0.203200*%
%ADD16R,0.450000X1.900000*%


D10*
X328350Y133300D02*
X222450Y133300D01*
X222450Y666700D02*
X328350Y666700D01*
X222450Y666700D02*
X222450Y133300D01*
X328350Y133300D02*
X328350Y666700D01*
D11*
X249000Y673200D02*
X249002Y673263D01*
X249008Y673325D01*
X249018Y673387D01*
X249031Y673449D01*
X249049Y673509D01*
X249070Y673568D01*
X249095Y673626D01*
X249124Y673682D01*
X249156Y673736D01*
X249191Y673788D01*
X249229Y673837D01*
X249271Y673885D01*
X249315Y673929D01*
X249363Y673971D01*
X249412Y674009D01*
X249464Y674044D01*
X249518Y674076D01*
X249574Y674105D01*
X249632Y674130D01*
X249691Y674151D01*
X249751Y674169D01*
X249813Y674182D01*
X249875Y674192D01*
X249937Y674198D01*
X250000Y674200D01*
X250063Y674198D01*
X250125Y674192D01*
X250187Y674182D01*
X250249Y674169D01*
X250309Y674151D01*
X250368Y674130D01*
X250426Y674105D01*
X250482Y674076D01*
X250536Y674044D01*
X250588Y674009D01*
X250637Y673971D01*
X250685Y673929D01*
X250729Y673885D01*
X250771Y673837D01*
X250809Y673788D01*
X250844Y673736D01*
X250876Y673682D01*
X250905Y673626D01*
X250930Y673568D01*
X250951Y673509D01*
X250969Y673449D01*
X250982Y673387D01*
X250992Y673325D01*
X250998Y673263D01*
X251000Y673200D01*
X250998Y673137D01*
X250992Y673075D01*
X250982Y673013D01*
X250969Y672951D01*
X250951Y672891D01*
X250930Y672832D01*
X250905Y672774D01*
X250876Y672718D01*
X250844Y672664D01*
X250809Y672612D01*
X250771Y672563D01*
X250729Y672515D01*
X250685Y672471D01*
X250637Y672429D01*
X250588Y672391D01*
X250536Y672356D01*
X250482Y672324D01*
X250426Y672295D01*
X250368Y672270D01*
X250309Y672249D01*
X250249Y672231D01*
X250187Y672218D01*
X250125Y672208D01*
X250063Y672202D01*
X250000Y672200D01*
X249937Y672202D01*
X249875Y672208D01*
X249813Y672218D01*
X249751Y672231D01*
X249691Y672249D01*
X249632Y672270D01*
X249574Y672295D01*
X249518Y672324D01*
X249464Y672356D01*
X249412Y672391D01*
X249363Y672429D01*
X249315Y672471D01*
X249271Y672515D01*
X249229Y672563D01*
X249191Y672612D01*
X249156Y672664D01*
X249124Y672718D01*
X249095Y672774D01*
X249070Y672832D01*
X249049Y672891D01*
X249031Y672951D01*
X249018Y673013D01*
X249008Y673075D01*
X249002Y673137D01*
X249000Y673200D01*
D12*
X226846Y107703D02*
X217758Y107703D01*
X226846Y107702D02*
X226945Y107700D01*
X227045Y107694D01*
X227144Y107685D01*
X227242Y107672D01*
X227340Y107655D01*
X227438Y107634D01*
X227534Y107609D01*
X227629Y107581D01*
X227723Y107549D01*
X227816Y107514D01*
X227908Y107475D01*
X227998Y107432D01*
X228086Y107387D01*
X228173Y107337D01*
X228257Y107285D01*
X228340Y107229D01*
X228420Y107171D01*
X228498Y107109D01*
X228573Y107044D01*
X228646Y106976D01*
X228716Y106906D01*
X228784Y106833D01*
X228849Y106758D01*
X228911Y106680D01*
X228969Y106600D01*
X229025Y106517D01*
X229077Y106433D01*
X229127Y106346D01*
X229172Y106258D01*
X229215Y106168D01*
X229254Y106076D01*
X229289Y105983D01*
X229321Y105889D01*
X229349Y105794D01*
X229374Y105698D01*
X229395Y105600D01*
X229412Y105502D01*
X229425Y105404D01*
X229434Y105305D01*
X229440Y105205D01*
X229442Y105106D01*
X229442Y103808D01*
X220354Y112976D02*
X217758Y116222D01*
X229442Y116222D01*
X229442Y119467D02*
X229442Y112976D01*
D10*
X425650Y133300D02*
X531550Y133300D01*
X531550Y666700D02*
X425650Y666700D01*
X425650Y133300D01*
X531550Y133300D02*
X531550Y666700D01*
D11*
X452200Y673200D02*
X452202Y673263D01*
X452208Y673325D01*
X452218Y673387D01*
X452231Y673449D01*
X452249Y673509D01*
X452270Y673568D01*
X452295Y673626D01*
X452324Y673682D01*
X452356Y673736D01*
X452391Y673788D01*
X452429Y673837D01*
X452471Y673885D01*
X452515Y673929D01*
X452563Y673971D01*
X452612Y674009D01*
X452664Y674044D01*
X452718Y674076D01*
X452774Y674105D01*
X452832Y674130D01*
X452891Y674151D01*
X452951Y674169D01*
X453013Y674182D01*
X453075Y674192D01*
X453137Y674198D01*
X453200Y674200D01*
X453263Y674198D01*
X453325Y674192D01*
X453387Y674182D01*
X453449Y674169D01*
X453509Y674151D01*
X453568Y674130D01*
X453626Y674105D01*
X453682Y674076D01*
X453736Y674044D01*
X453788Y674009D01*
X453837Y673971D01*
X453885Y673929D01*
X453929Y673885D01*
X453971Y673837D01*
X454009Y673788D01*
X454044Y673736D01*
X454076Y673682D01*
X454105Y673626D01*
X454130Y673568D01*
X454151Y673509D01*
X454169Y673449D01*
X454182Y673387D01*
X454192Y673325D01*
X454198Y673263D01*
X454200Y673200D01*
X454198Y673137D01*
X454192Y673075D01*
X454182Y673013D01*
X454169Y672951D01*
X454151Y672891D01*
X454130Y672832D01*
X454105Y672774D01*
X454076Y672718D01*
X454044Y672664D01*
X454009Y672612D01*
X453971Y672563D01*
X453929Y672515D01*
X453885Y672471D01*
X453837Y672429D01*
X453788Y672391D01*
X453736Y672356D01*
X453682Y672324D01*
X453626Y672295D01*
X453568Y672270D01*
X453509Y672249D01*
X453449Y672231D01*
X453387Y672218D01*
X453325Y672208D01*
X453263Y672202D01*
X453200Y672200D01*
X453137Y672202D01*
X453075Y672208D01*
X453013Y672218D01*
X452951Y672231D01*
X452891Y672249D01*
X452832Y672270D01*
X452774Y672295D01*
X452718Y672324D01*
X452664Y672356D01*
X452612Y672391D01*
X452563Y672429D01*
X452515Y672471D01*
X452471Y672515D01*
X452429Y672563D01*
X452391Y672612D01*
X452356Y672664D01*
X452324Y672718D01*
X452295Y672774D01*
X452270Y672832D01*
X452249Y672891D01*
X452231Y672951D01*
X452218Y673013D01*
X452208Y673075D01*
X452202Y673137D01*
X452200Y673200D01*
D12*
X430046Y107703D02*
X420958Y107703D01*
X430046Y107702D02*
X430145Y107700D01*
X430245Y107694D01*
X430344Y107685D01*
X430442Y107672D01*
X430540Y107655D01*
X430638Y107634D01*
X430734Y107609D01*
X430829Y107581D01*
X430923Y107549D01*
X431016Y107514D01*
X431108Y107475D01*
X431198Y107432D01*
X431286Y107387D01*
X431373Y107337D01*
X431457Y107285D01*
X431540Y107229D01*
X431620Y107171D01*
X431698Y107109D01*
X431773Y107044D01*
X431846Y106976D01*
X431916Y106906D01*
X431984Y106833D01*
X432049Y106758D01*
X432111Y106680D01*
X432169Y106600D01*
X432225Y106517D01*
X432277Y106433D01*
X432327Y106346D01*
X432372Y106258D01*
X432415Y106168D01*
X432454Y106076D01*
X432489Y105983D01*
X432521Y105889D01*
X432549Y105794D01*
X432574Y105698D01*
X432595Y105600D01*
X432612Y105502D01*
X432625Y105404D01*
X432634Y105305D01*
X432640Y105205D01*
X432642Y105106D01*
X432642Y103808D01*
X420958Y116546D02*
X420960Y116653D01*
X420966Y116759D01*
X420976Y116865D01*
X420989Y116971D01*
X421007Y117077D01*
X421028Y117181D01*
X421053Y117285D01*
X421082Y117388D01*
X421114Y117489D01*
X421151Y117589D01*
X421191Y117688D01*
X421234Y117786D01*
X421281Y117882D01*
X421332Y117976D01*
X421386Y118068D01*
X421443Y118158D01*
X421503Y118246D01*
X421567Y118331D01*
X421634Y118414D01*
X421704Y118495D01*
X421776Y118573D01*
X421852Y118649D01*
X421930Y118721D01*
X422011Y118791D01*
X422094Y118858D01*
X422179Y118922D01*
X422267Y118982D01*
X422357Y119039D01*
X422449Y119093D01*
X422543Y119144D01*
X422639Y119191D01*
X422737Y119234D01*
X422836Y119274D01*
X422936Y119311D01*
X423037Y119343D01*
X423140Y119372D01*
X423244Y119397D01*
X423348Y119418D01*
X423454Y119436D01*
X423560Y119449D01*
X423666Y119459D01*
X423772Y119465D01*
X423879Y119467D01*
X420958Y116546D02*
X420960Y116425D01*
X420966Y116304D01*
X420976Y116184D01*
X420989Y116063D01*
X421007Y115944D01*
X421028Y115824D01*
X421053Y115706D01*
X421082Y115589D01*
X421115Y115472D01*
X421151Y115357D01*
X421192Y115243D01*
X421235Y115130D01*
X421283Y115018D01*
X421334Y114909D01*
X421389Y114801D01*
X421447Y114694D01*
X421508Y114590D01*
X421573Y114488D01*
X421641Y114388D01*
X421712Y114290D01*
X421786Y114194D01*
X421863Y114101D01*
X421944Y114011D01*
X422027Y113923D01*
X422113Y113838D01*
X422202Y113755D01*
X422293Y113676D01*
X422387Y113599D01*
X422483Y113526D01*
X422581Y113456D01*
X422682Y113389D01*
X422785Y113325D01*
X422890Y113265D01*
X422997Y113207D01*
X423105Y113154D01*
X423215Y113104D01*
X423327Y113058D01*
X423440Y113015D01*
X423555Y112976D01*
X426151Y118493D02*
X426073Y118572D01*
X425993Y118648D01*
X425910Y118721D01*
X425824Y118791D01*
X425737Y118858D01*
X425646Y118922D01*
X425554Y118982D01*
X425460Y119040D01*
X425363Y119094D01*
X425265Y119144D01*
X425165Y119191D01*
X425064Y119235D01*
X424961Y119275D01*
X424856Y119311D01*
X424751Y119343D01*
X424644Y119372D01*
X424537Y119397D01*
X424428Y119419D01*
X424319Y119436D01*
X424210Y119450D01*
X424100Y119459D01*
X423989Y119465D01*
X423879Y119467D01*
X426151Y118494D02*
X432642Y112976D01*
X432642Y119467D01*
D10*
X628850Y133300D02*
X734750Y133300D01*
X734750Y666700D02*
X628850Y666700D01*
X628850Y133300D01*
X734750Y133300D02*
X734750Y666700D01*
D11*
X655400Y673200D02*
X655402Y673263D01*
X655408Y673325D01*
X655418Y673387D01*
X655431Y673449D01*
X655449Y673509D01*
X655470Y673568D01*
X655495Y673626D01*
X655524Y673682D01*
X655556Y673736D01*
X655591Y673788D01*
X655629Y673837D01*
X655671Y673885D01*
X655715Y673929D01*
X655763Y673971D01*
X655812Y674009D01*
X655864Y674044D01*
X655918Y674076D01*
X655974Y674105D01*
X656032Y674130D01*
X656091Y674151D01*
X656151Y674169D01*
X656213Y674182D01*
X656275Y674192D01*
X656337Y674198D01*
X656400Y674200D01*
X656463Y674198D01*
X656525Y674192D01*
X656587Y674182D01*
X656649Y674169D01*
X656709Y674151D01*
X656768Y674130D01*
X656826Y674105D01*
X656882Y674076D01*
X656936Y674044D01*
X656988Y674009D01*
X657037Y673971D01*
X657085Y673929D01*
X657129Y673885D01*
X657171Y673837D01*
X657209Y673788D01*
X657244Y673736D01*
X657276Y673682D01*
X657305Y673626D01*
X657330Y673568D01*
X657351Y673509D01*
X657369Y673449D01*
X657382Y673387D01*
X657392Y673325D01*
X657398Y673263D01*
X657400Y673200D01*
X657398Y673137D01*
X657392Y673075D01*
X657382Y673013D01*
X657369Y672951D01*
X657351Y672891D01*
X657330Y672832D01*
X657305Y672774D01*
X657276Y672718D01*
X657244Y672664D01*
X657209Y672612D01*
X657171Y672563D01*
X657129Y672515D01*
X657085Y672471D01*
X657037Y672429D01*
X656988Y672391D01*
X656936Y672356D01*
X656882Y672324D01*
X656826Y672295D01*
X656768Y672270D01*
X656709Y672249D01*
X656649Y672231D01*
X656587Y672218D01*
X656525Y672208D01*
X656463Y672202D01*
X656400Y672200D01*
X656337Y672202D01*
X656275Y672208D01*
X656213Y672218D01*
X656151Y672231D01*
X656091Y672249D01*
X656032Y672270D01*
X655974Y672295D01*
X655918Y672324D01*
X655864Y672356D01*
X655812Y672391D01*
X655763Y672429D01*
X655715Y672471D01*
X655671Y672515D01*
X655629Y672563D01*
X655591Y672612D01*
X655556Y672664D01*
X655524Y672718D01*
X655495Y672774D01*
X655470Y672832D01*
X655449Y672891D01*
X655431Y672951D01*
X655418Y673013D01*
X655408Y673075D01*
X655402Y673137D01*
X655400Y673200D01*
D12*
X633246Y107703D02*
X624158Y107703D01*
X633246Y107702D02*
X633345Y107700D01*
X633445Y107694D01*
X633544Y107685D01*
X633642Y107672D01*
X633740Y107655D01*
X633838Y107634D01*
X633934Y107609D01*
X634029Y107581D01*
X634123Y107549D01*
X634216Y107514D01*
X634308Y107475D01*
X634398Y107432D01*
X634486Y107387D01*
X634573Y107337D01*
X634657Y107285D01*
X634740Y107229D01*
X634820Y107171D01*
X634898Y107109D01*
X634973Y107044D01*
X635046Y106976D01*
X635116Y106906D01*
X635184Y106833D01*
X635249Y106758D01*
X635311Y106680D01*
X635369Y106600D01*
X635425Y106517D01*
X635477Y106433D01*
X635527Y106346D01*
X635572Y106258D01*
X635615Y106168D01*
X635654Y106076D01*
X635689Y105983D01*
X635721Y105889D01*
X635749Y105794D01*
X635774Y105698D01*
X635795Y105600D01*
X635812Y105502D01*
X635825Y105404D01*
X635834Y105305D01*
X635840Y105205D01*
X635842Y105106D01*
X635842Y103808D01*
X635842Y112976D02*
X635842Y116222D01*
X635840Y116335D01*
X635834Y116448D01*
X635824Y116561D01*
X635810Y116674D01*
X635793Y116786D01*
X635771Y116897D01*
X635746Y117007D01*
X635716Y117117D01*
X635683Y117225D01*
X635646Y117332D01*
X635606Y117438D01*
X635561Y117542D01*
X635513Y117645D01*
X635462Y117746D01*
X635407Y117845D01*
X635349Y117942D01*
X635287Y118037D01*
X635222Y118130D01*
X635154Y118220D01*
X635083Y118308D01*
X635008Y118394D01*
X634931Y118477D01*
X634851Y118557D01*
X634768Y118634D01*
X634682Y118709D01*
X634594Y118780D01*
X634504Y118848D01*
X634411Y118913D01*
X634316Y118975D01*
X634219Y119033D01*
X634120Y119088D01*
X634019Y119139D01*
X633916Y119187D01*
X633812Y119232D01*
X633706Y119272D01*
X633599Y119309D01*
X633491Y119342D01*
X633381Y119372D01*
X633271Y119397D01*
X633160Y119419D01*
X633048Y119436D01*
X632935Y119450D01*
X632822Y119460D01*
X632709Y119466D01*
X632596Y119468D01*
X632483Y119466D01*
X632370Y119460D01*
X632257Y119450D01*
X632144Y119436D01*
X632032Y119419D01*
X631921Y119397D01*
X631811Y119372D01*
X631701Y119342D01*
X631593Y119309D01*
X631486Y119272D01*
X631380Y119232D01*
X631276Y119187D01*
X631173Y119139D01*
X631072Y119088D01*
X630973Y119033D01*
X630876Y118975D01*
X630781Y118913D01*
X630688Y118848D01*
X630598Y118780D01*
X630510Y118709D01*
X630424Y118634D01*
X630341Y118557D01*
X630261Y118477D01*
X630184Y118394D01*
X630109Y118308D01*
X630038Y118220D01*
X629970Y118130D01*
X629905Y118037D01*
X629843Y117942D01*
X629785Y117845D01*
X629730Y117746D01*
X629679Y117645D01*
X629631Y117542D01*
X629586Y117438D01*
X629546Y117332D01*
X629509Y117225D01*
X629476Y117117D01*
X629446Y117007D01*
X629421Y116897D01*
X629399Y116786D01*
X629382Y116674D01*
X629368Y116561D01*
X629358Y116448D01*
X629352Y116335D01*
X629350Y116222D01*
X624158Y116871D02*
X624158Y112976D01*
X624158Y116871D02*
X624160Y116972D01*
X624166Y117072D01*
X624176Y117172D01*
X624189Y117272D01*
X624207Y117371D01*
X624228Y117470D01*
X624253Y117567D01*
X624282Y117664D01*
X624315Y117759D01*
X624351Y117853D01*
X624391Y117945D01*
X624434Y118036D01*
X624481Y118125D01*
X624531Y118212D01*
X624585Y118298D01*
X624642Y118381D01*
X624702Y118461D01*
X624765Y118540D01*
X624832Y118616D01*
X624901Y118689D01*
X624973Y118759D01*
X625047Y118827D01*
X625124Y118892D01*
X625204Y118953D01*
X625286Y119012D01*
X625370Y119067D01*
X625456Y119119D01*
X625544Y119168D01*
X625634Y119213D01*
X625726Y119255D01*
X625819Y119293D01*
X625914Y119327D01*
X626009Y119358D01*
X626106Y119385D01*
X626204Y119408D01*
X626303Y119428D01*
X626403Y119443D01*
X626503Y119455D01*
X626603Y119463D01*
X626704Y119467D01*
X626804Y119467D01*
X626905Y119463D01*
X627005Y119455D01*
X627105Y119443D01*
X627205Y119428D01*
X627304Y119408D01*
X627402Y119385D01*
X627499Y119358D01*
X627594Y119327D01*
X627689Y119293D01*
X627782Y119255D01*
X627874Y119213D01*
X627964Y119168D01*
X628052Y119119D01*
X628138Y119067D01*
X628222Y119012D01*
X628304Y118953D01*
X628384Y118892D01*
X628461Y118827D01*
X628535Y118759D01*
X628607Y118689D01*
X628676Y118616D01*
X628743Y118540D01*
X628806Y118461D01*
X628866Y118381D01*
X628923Y118298D01*
X628977Y118212D01*
X629027Y118125D01*
X629074Y118036D01*
X629117Y117945D01*
X629157Y117853D01*
X629193Y117759D01*
X629226Y117664D01*
X629255Y117567D01*
X629280Y117470D01*
X629301Y117371D01*
X629319Y117272D01*
X629332Y117172D01*
X629342Y117072D01*
X629348Y116972D01*
X629350Y116871D01*
X629351Y116871D02*
X629351Y114274D01*
D10*
X832050Y133300D02*
X937950Y133300D01*
X937950Y666700D02*
X832050Y666700D01*
X832050Y133300D01*
X937950Y133300D02*
X937950Y666700D01*
D11*
X858600Y673200D02*
X858602Y673263D01*
X858608Y673325D01*
X858618Y673387D01*
X858631Y673449D01*
X858649Y673509D01*
X858670Y673568D01*
X858695Y673626D01*
X858724Y673682D01*
X858756Y673736D01*
X858791Y673788D01*
X858829Y673837D01*
X858871Y673885D01*
X858915Y673929D01*
X858963Y673971D01*
X859012Y674009D01*
X859064Y674044D01*
X859118Y674076D01*
X859174Y674105D01*
X859232Y674130D01*
X859291Y674151D01*
X859351Y674169D01*
X859413Y674182D01*
X859475Y674192D01*
X859537Y674198D01*
X859600Y674200D01*
X859663Y674198D01*
X859725Y674192D01*
X859787Y674182D01*
X859849Y674169D01*
X859909Y674151D01*
X859968Y674130D01*
X860026Y674105D01*
X860082Y674076D01*
X860136Y674044D01*
X860188Y674009D01*
X860237Y673971D01*
X860285Y673929D01*
X860329Y673885D01*
X860371Y673837D01*
X860409Y673788D01*
X860444Y673736D01*
X860476Y673682D01*
X860505Y673626D01*
X860530Y673568D01*
X860551Y673509D01*
X860569Y673449D01*
X860582Y673387D01*
X860592Y673325D01*
X860598Y673263D01*
X860600Y673200D01*
X860598Y673137D01*
X860592Y673075D01*
X860582Y673013D01*
X860569Y672951D01*
X860551Y672891D01*
X860530Y672832D01*
X860505Y672774D01*
X860476Y672718D01*
X860444Y672664D01*
X860409Y672612D01*
X860371Y672563D01*
X860329Y672515D01*
X860285Y672471D01*
X860237Y672429D01*
X860188Y672391D01*
X860136Y672356D01*
X860082Y672324D01*
X860026Y672295D01*
X859968Y672270D01*
X859909Y672249D01*
X859849Y672231D01*
X859787Y672218D01*
X859725Y672208D01*
X859663Y672202D01*
X859600Y672200D01*
X859537Y672202D01*
X859475Y672208D01*
X859413Y672218D01*
X859351Y672231D01*
X859291Y672249D01*
X859232Y672270D01*
X859174Y672295D01*
X859118Y672324D01*
X859064Y672356D01*
X859012Y672391D01*
X858963Y672429D01*
X858915Y672471D01*
X858871Y672515D01*
X858829Y672563D01*
X858791Y672612D01*
X858756Y672664D01*
X858724Y672718D01*
X858695Y672774D01*
X858670Y672832D01*
X858649Y672891D01*
X858631Y672951D01*
X858618Y673013D01*
X858608Y673075D01*
X858602Y673137D01*
X858600Y673200D01*
D12*
X836446Y107703D02*
X827358Y107703D01*
X836446Y107702D02*
X836545Y107700D01*
X836645Y107694D01*
X836744Y107685D01*
X836842Y107672D01*
X836940Y107655D01*
X837038Y107634D01*
X837134Y107609D01*
X837229Y107581D01*
X837323Y107549D01*
X837416Y107514D01*
X837508Y107475D01*
X837598Y107432D01*
X837686Y107387D01*
X837773Y107337D01*
X837857Y107285D01*
X837940Y107229D01*
X838020Y107171D01*
X838098Y107109D01*
X838173Y107044D01*
X838246Y106976D01*
X838316Y106906D01*
X838384Y106833D01*
X838449Y106758D01*
X838511Y106680D01*
X838569Y106600D01*
X838625Y106517D01*
X838677Y106433D01*
X838727Y106346D01*
X838772Y106258D01*
X838815Y106168D01*
X838854Y106076D01*
X838889Y105983D01*
X838921Y105889D01*
X838949Y105794D01*
X838974Y105698D01*
X838995Y105600D01*
X839012Y105502D01*
X839025Y105404D01*
X839034Y105305D01*
X839040Y105205D01*
X839042Y105106D01*
X839042Y103808D01*
X836446Y112976D02*
X827358Y115573D01*
X836446Y112976D02*
X836446Y119467D01*
X833849Y117520D02*
X839042Y117520D01*
D10*
X1035250Y133300D02*
X1141150Y133300D01*
X1141150Y666700D02*
X1035250Y666700D01*
X1035250Y133300D01*
X1141150Y133300D02*
X1141150Y666700D01*
D11*
X1061800Y673200D02*
X1061802Y673263D01*
X1061808Y673325D01*
X1061818Y673387D01*
X1061831Y673449D01*
X1061849Y673509D01*
X1061870Y673568D01*
X1061895Y673626D01*
X1061924Y673682D01*
X1061956Y673736D01*
X1061991Y673788D01*
X1062029Y673837D01*
X1062071Y673885D01*
X1062115Y673929D01*
X1062163Y673971D01*
X1062212Y674009D01*
X1062264Y674044D01*
X1062318Y674076D01*
X1062374Y674105D01*
X1062432Y674130D01*
X1062491Y674151D01*
X1062551Y674169D01*
X1062613Y674182D01*
X1062675Y674192D01*
X1062737Y674198D01*
X1062800Y674200D01*
X1062863Y674198D01*
X1062925Y674192D01*
X1062987Y674182D01*
X1063049Y674169D01*
X1063109Y674151D01*
X1063168Y674130D01*
X1063226Y674105D01*
X1063282Y674076D01*
X1063336Y674044D01*
X1063388Y674009D01*
X1063437Y673971D01*
X1063485Y673929D01*
X1063529Y673885D01*
X1063571Y673837D01*
X1063609Y673788D01*
X1063644Y673736D01*
X1063676Y673682D01*
X1063705Y673626D01*
X1063730Y673568D01*
X1063751Y673509D01*
X1063769Y673449D01*
X1063782Y673387D01*
X1063792Y673325D01*
X1063798Y673263D01*
X1063800Y673200D01*
X1063798Y673137D01*
X1063792Y673075D01*
X1063782Y673013D01*
X1063769Y672951D01*
X1063751Y672891D01*
X1063730Y672832D01*
X1063705Y672774D01*
X1063676Y672718D01*
X1063644Y672664D01*
X1063609Y672612D01*
X1063571Y672563D01*
X1063529Y672515D01*
X1063485Y672471D01*
X1063437Y672429D01*
X1063388Y672391D01*
X1063336Y672356D01*
X1063282Y672324D01*
X1063226Y672295D01*
X1063168Y672270D01*
X1063109Y672249D01*
X1063049Y672231D01*
X1062987Y672218D01*
X1062925Y672208D01*
X1062863Y672202D01*
X1062800Y672200D01*
X1062737Y672202D01*
X1062675Y672208D01*
X1062613Y672218D01*
X1062551Y672231D01*
X1062491Y672249D01*
X1062432Y672270D01*
X1062374Y672295D01*
X1062318Y672324D01*
X1062264Y672356D01*
X1062212Y672391D01*
X1062163Y672429D01*
X1062115Y672471D01*
X1062071Y672515D01*
X1062029Y672563D01*
X1061991Y672612D01*
X1061956Y672664D01*
X1061924Y672718D01*
X1061895Y672774D01*
X1061870Y672832D01*
X1061849Y672891D01*
X1061831Y672951D01*
X1061818Y673013D01*
X1061808Y673075D01*
X1061802Y673137D01*
X1061800Y673200D01*
D12*
X1039646Y107703D02*
X1030558Y107703D01*
X1039646Y107702D02*
X1039745Y107700D01*
X1039845Y107694D01*
X1039944Y107685D01*
X1040042Y107672D01*
X1040140Y107655D01*
X1040238Y107634D01*
X1040334Y107609D01*
X1040429Y107581D01*
X1040523Y107549D01*
X1040616Y107514D01*
X1040708Y107475D01*
X1040798Y107432D01*
X1040886Y107387D01*
X1040973Y107337D01*
X1041057Y107285D01*
X1041140Y107229D01*
X1041220Y107171D01*
X1041298Y107109D01*
X1041373Y107044D01*
X1041446Y106976D01*
X1041516Y106906D01*
X1041584Y106833D01*
X1041649Y106758D01*
X1041711Y106680D01*
X1041769Y106600D01*
X1041825Y106517D01*
X1041877Y106433D01*
X1041927Y106346D01*
X1041972Y106258D01*
X1042015Y106168D01*
X1042054Y106076D01*
X1042089Y105983D01*
X1042121Y105889D01*
X1042149Y105794D01*
X1042174Y105698D01*
X1042195Y105600D01*
X1042212Y105502D01*
X1042225Y105404D01*
X1042234Y105305D01*
X1042240Y105205D01*
X1042242Y105106D01*
X1042242Y103808D01*
X1042242Y112976D02*
X1042242Y116871D01*
X1042240Y116970D01*
X1042234Y117070D01*
X1042225Y117169D01*
X1042212Y117267D01*
X1042195Y117365D01*
X1042174Y117463D01*
X1042149Y117559D01*
X1042121Y117654D01*
X1042089Y117748D01*
X1042054Y117841D01*
X1042015Y117933D01*
X1041972Y118023D01*
X1041927Y118111D01*
X1041877Y118198D01*
X1041825Y118282D01*
X1041769Y118365D01*
X1041711Y118445D01*
X1041649Y118523D01*
X1041584Y118598D01*
X1041516Y118671D01*
X1041446Y118741D01*
X1041373Y118809D01*
X1041298Y118874D01*
X1041220Y118936D01*
X1041140Y118994D01*
X1041057Y119050D01*
X1040973Y119102D01*
X1040886Y119152D01*
X1040798Y119197D01*
X1040708Y119240D01*
X1040616Y119279D01*
X1040523Y119314D01*
X1040429Y119346D01*
X1040334Y119374D01*
X1040238Y119399D01*
X1040140Y119420D01*
X1040042Y119437D01*
X1039944Y119450D01*
X1039845Y119459D01*
X1039745Y119465D01*
X1039646Y119467D01*
X1038347Y119467D01*
X1038248Y119465D01*
X1038148Y119459D01*
X1038049Y119450D01*
X1037951Y119437D01*
X1037853Y119420D01*
X1037755Y119399D01*
X1037659Y119374D01*
X1037564Y119346D01*
X1037470Y119314D01*
X1037377Y119279D01*
X1037285Y119240D01*
X1037195Y119197D01*
X1037107Y119152D01*
X1037020Y119102D01*
X1036936Y119050D01*
X1036853Y118994D01*
X1036773Y118936D01*
X1036695Y118874D01*
X1036620Y118809D01*
X1036547Y118741D01*
X1036477Y118671D01*
X1036409Y118598D01*
X1036344Y118523D01*
X1036282Y118445D01*
X1036224Y118365D01*
X1036168Y118282D01*
X1036116Y118198D01*
X1036066Y118111D01*
X1036021Y118023D01*
X1035978Y117933D01*
X1035939Y117841D01*
X1035904Y117748D01*
X1035872Y117654D01*
X1035844Y117559D01*
X1035819Y117463D01*
X1035798Y117365D01*
X1035781Y117267D01*
X1035768Y117169D01*
X1035759Y117070D01*
X1035753Y116970D01*
X1035751Y116871D01*
X1035751Y112976D01*
X1030558Y112976D01*
X1030558Y119467D01*
D10*
X1238450Y133300D02*
X1344350Y133300D01*
X1344350Y666700D02*
X1238450Y666700D01*
X1238450Y133300D01*
X1344350Y133300D02*
X1344350Y666700D01*
D11*
X1265000Y673200D02*
X1265002Y673263D01*
X1265008Y673325D01*
X1265018Y673387D01*
X1265031Y673449D01*
X1265049Y673509D01*
X1265070Y673568D01*
X1265095Y673626D01*
X1265124Y673682D01*
X1265156Y673736D01*
X1265191Y673788D01*
X1265229Y673837D01*
X1265271Y673885D01*
X1265315Y673929D01*
X1265363Y673971D01*
X1265412Y674009D01*
X1265464Y674044D01*
X1265518Y674076D01*
X1265574Y674105D01*
X1265632Y674130D01*
X1265691Y674151D01*
X1265751Y674169D01*
X1265813Y674182D01*
X1265875Y674192D01*
X1265937Y674198D01*
X1266000Y674200D01*
X1266063Y674198D01*
X1266125Y674192D01*
X1266187Y674182D01*
X1266249Y674169D01*
X1266309Y674151D01*
X1266368Y674130D01*
X1266426Y674105D01*
X1266482Y674076D01*
X1266536Y674044D01*
X1266588Y674009D01*
X1266637Y673971D01*
X1266685Y673929D01*
X1266729Y673885D01*
X1266771Y673837D01*
X1266809Y673788D01*
X1266844Y673736D01*
X1266876Y673682D01*
X1266905Y673626D01*
X1266930Y673568D01*
X1266951Y673509D01*
X1266969Y673449D01*
X1266982Y673387D01*
X1266992Y673325D01*
X1266998Y673263D01*
X1267000Y673200D01*
X1266998Y673137D01*
X1266992Y673075D01*
X1266982Y673013D01*
X1266969Y672951D01*
X1266951Y672891D01*
X1266930Y672832D01*
X1266905Y672774D01*
X1266876Y672718D01*
X1266844Y672664D01*
X1266809Y672612D01*
X1266771Y672563D01*
X1266729Y672515D01*
X1266685Y672471D01*
X1266637Y672429D01*
X1266588Y672391D01*
X1266536Y672356D01*
X1266482Y672324D01*
X1266426Y672295D01*
X1266368Y672270D01*
X1266309Y672249D01*
X1266249Y672231D01*
X1266187Y672218D01*
X1266125Y672208D01*
X1266063Y672202D01*
X1266000Y672200D01*
X1265937Y672202D01*
X1265875Y672208D01*
X1265813Y672218D01*
X1265751Y672231D01*
X1265691Y672249D01*
X1265632Y672270D01*
X1265574Y672295D01*
X1265518Y672324D01*
X1265464Y672356D01*
X1265412Y672391D01*
X1265363Y672429D01*
X1265315Y672471D01*
X1265271Y672515D01*
X1265229Y672563D01*
X1265191Y672612D01*
X1265156Y672664D01*
X1265124Y672718D01*
X1265095Y672774D01*
X1265070Y672832D01*
X1265049Y672891D01*
X1265031Y672951D01*
X1265018Y673013D01*
X1265008Y673075D01*
X1265002Y673137D01*
X1265000Y673200D01*
D12*
X1242846Y107703D02*
X1233758Y107703D01*
X1242846Y107702D02*
X1242945Y107700D01*
X1243045Y107694D01*
X1243144Y107685D01*
X1243242Y107672D01*
X1243340Y107655D01*
X1243438Y107634D01*
X1243534Y107609D01*
X1243629Y107581D01*
X1243723Y107549D01*
X1243816Y107514D01*
X1243908Y107475D01*
X1243998Y107432D01*
X1244086Y107387D01*
X1244173Y107337D01*
X1244257Y107285D01*
X1244340Y107229D01*
X1244420Y107171D01*
X1244498Y107109D01*
X1244573Y107044D01*
X1244646Y106976D01*
X1244716Y106906D01*
X1244784Y106833D01*
X1244849Y106758D01*
X1244911Y106680D01*
X1244969Y106600D01*
X1245025Y106517D01*
X1245077Y106433D01*
X1245127Y106346D01*
X1245172Y106258D01*
X1245215Y106168D01*
X1245254Y106076D01*
X1245289Y105983D01*
X1245321Y105889D01*
X1245349Y105794D01*
X1245374Y105698D01*
X1245395Y105600D01*
X1245412Y105502D01*
X1245425Y105404D01*
X1245434Y105305D01*
X1245440Y105205D01*
X1245442Y105106D01*
X1245442Y103808D01*
X1238951Y112976D02*
X1238951Y116871D01*
X1238953Y116970D01*
X1238959Y117070D01*
X1238968Y117169D01*
X1238981Y117267D01*
X1238998Y117365D01*
X1239019Y117463D01*
X1239044Y117559D01*
X1239072Y117654D01*
X1239104Y117748D01*
X1239139Y117841D01*
X1239178Y117933D01*
X1239221Y118023D01*
X1239266Y118111D01*
X1239316Y118198D01*
X1239368Y118282D01*
X1239424Y118365D01*
X1239482Y118445D01*
X1239544Y118523D01*
X1239609Y118598D01*
X1239677Y118671D01*
X1239747Y118741D01*
X1239820Y118809D01*
X1239895Y118874D01*
X1239973Y118936D01*
X1240053Y118994D01*
X1240136Y119050D01*
X1240220Y119102D01*
X1240307Y119152D01*
X1240395Y119197D01*
X1240485Y119240D01*
X1240577Y119279D01*
X1240670Y119314D01*
X1240764Y119346D01*
X1240859Y119374D01*
X1240955Y119399D01*
X1241053Y119420D01*
X1241151Y119437D01*
X1241249Y119450D01*
X1241348Y119459D01*
X1241448Y119465D01*
X1241547Y119467D01*
X1242196Y119467D01*
X1242196Y119468D02*
X1242309Y119466D01*
X1242422Y119460D01*
X1242535Y119450D01*
X1242648Y119436D01*
X1242760Y119419D01*
X1242871Y119397D01*
X1242981Y119372D01*
X1243091Y119342D01*
X1243199Y119309D01*
X1243306Y119272D01*
X1243412Y119232D01*
X1243516Y119187D01*
X1243619Y119139D01*
X1243720Y119088D01*
X1243819Y119033D01*
X1243916Y118975D01*
X1244011Y118913D01*
X1244104Y118848D01*
X1244194Y118780D01*
X1244282Y118709D01*
X1244368Y118634D01*
X1244451Y118557D01*
X1244531Y118477D01*
X1244608Y118394D01*
X1244683Y118308D01*
X1244754Y118220D01*
X1244822Y118130D01*
X1244887Y118037D01*
X1244949Y117942D01*
X1245007Y117845D01*
X1245062Y117746D01*
X1245113Y117645D01*
X1245161Y117542D01*
X1245206Y117438D01*
X1245246Y117332D01*
X1245283Y117225D01*
X1245316Y117117D01*
X1245346Y117007D01*
X1245371Y116897D01*
X1245393Y116786D01*
X1245410Y116674D01*
X1245424Y116561D01*
X1245434Y116448D01*
X1245440Y116335D01*
X1245442Y116222D01*
X1245440Y116109D01*
X1245434Y115996D01*
X1245424Y115883D01*
X1245410Y115770D01*
X1245393Y115658D01*
X1245371Y115547D01*
X1245346Y115437D01*
X1245316Y115327D01*
X1245283Y115219D01*
X1245246Y115112D01*
X1245206Y115006D01*
X1245161Y114902D01*
X1245113Y114799D01*
X1245062Y114698D01*
X1245007Y114599D01*
X1244949Y114502D01*
X1244887Y114407D01*
X1244822Y114314D01*
X1244754Y114224D01*
X1244683Y114136D01*
X1244608Y114050D01*
X1244531Y113967D01*
X1244451Y113887D01*
X1244368Y113810D01*
X1244282Y113735D01*
X1244194Y113664D01*
X1244104Y113596D01*
X1244011Y113531D01*
X1243916Y113469D01*
X1243819Y113411D01*
X1243720Y113356D01*
X1243619Y113305D01*
X1243516Y113257D01*
X1243412Y113212D01*
X1243306Y113172D01*
X1243199Y113135D01*
X1243091Y113102D01*
X1242981Y113072D01*
X1242871Y113047D01*
X1242760Y113025D01*
X1242648Y113008D01*
X1242535Y112994D01*
X1242422Y112984D01*
X1242309Y112978D01*
X1242196Y112976D01*
X1238951Y112976D01*
X1238808Y112978D01*
X1238665Y112984D01*
X1238522Y112994D01*
X1238380Y113008D01*
X1238238Y113025D01*
X1238096Y113047D01*
X1237955Y113072D01*
X1237815Y113102D01*
X1237676Y113135D01*
X1237538Y113172D01*
X1237401Y113213D01*
X1237265Y113257D01*
X1237130Y113306D01*
X1236997Y113358D01*
X1236865Y113413D01*
X1236735Y113473D01*
X1236606Y113536D01*
X1236479Y113602D01*
X1236355Y113672D01*
X1236232Y113745D01*
X1236111Y113822D01*
X1235992Y113901D01*
X1235876Y113985D01*
X1235761Y114071D01*
X1235650Y114160D01*
X1235541Y114253D01*
X1235434Y114348D01*
X1235330Y114447D01*
X1235229Y114548D01*
X1235130Y114652D01*
X1235035Y114758D01*
X1234942Y114868D01*
X1234853Y114979D01*
X1234767Y115093D01*
X1234684Y115210D01*
X1234604Y115329D01*
X1234527Y115450D01*
X1234454Y115572D01*
X1234384Y115697D01*
X1234318Y115824D01*
X1234255Y115953D01*
X1234195Y116083D01*
X1234140Y116215D01*
X1234088Y116348D01*
X1234039Y116483D01*
X1233995Y116619D01*
X1233954Y116756D01*
X1233917Y116894D01*
X1233884Y117033D01*
X1233854Y117173D01*
X1233829Y117314D01*
X1233807Y117456D01*
X1233790Y117598D01*
X1233776Y117740D01*
X1233766Y117883D01*
X1233760Y118026D01*
X1233758Y118169D01*
D10*
X1441650Y133300D02*
X1547550Y133300D01*
X1547550Y666700D02*
X1441650Y666700D01*
X1441650Y133300D01*
X1547550Y133300D02*
X1547550Y666700D01*
D11*
X1468200Y673200D02*
X1468202Y673263D01*
X1468208Y673325D01*
X1468218Y673387D01*
X1468231Y673449D01*
X1468249Y673509D01*
X1468270Y673568D01*
X1468295Y673626D01*
X1468324Y673682D01*
X1468356Y673736D01*
X1468391Y673788D01*
X1468429Y673837D01*
X1468471Y673885D01*
X1468515Y673929D01*
X1468563Y673971D01*
X1468612Y674009D01*
X1468664Y674044D01*
X1468718Y674076D01*
X1468774Y674105D01*
X1468832Y674130D01*
X1468891Y674151D01*
X1468951Y674169D01*
X1469013Y674182D01*
X1469075Y674192D01*
X1469137Y674198D01*
X1469200Y674200D01*
X1469263Y674198D01*
X1469325Y674192D01*
X1469387Y674182D01*
X1469449Y674169D01*
X1469509Y674151D01*
X1469568Y674130D01*
X1469626Y674105D01*
X1469682Y674076D01*
X1469736Y674044D01*
X1469788Y674009D01*
X1469837Y673971D01*
X1469885Y673929D01*
X1469929Y673885D01*
X1469971Y673837D01*
X1470009Y673788D01*
X1470044Y673736D01*
X1470076Y673682D01*
X1470105Y673626D01*
X1470130Y673568D01*
X1470151Y673509D01*
X1470169Y673449D01*
X1470182Y673387D01*
X1470192Y673325D01*
X1470198Y673263D01*
X1470200Y673200D01*
X1470198Y673137D01*
X1470192Y673075D01*
X1470182Y673013D01*
X1470169Y672951D01*
X1470151Y672891D01*
X1470130Y672832D01*
X1470105Y672774D01*
X1470076Y672718D01*
X1470044Y672664D01*
X1470009Y672612D01*
X1469971Y672563D01*
X1469929Y672515D01*
X1469885Y672471D01*
X1469837Y672429D01*
X1469788Y672391D01*
X1469736Y672356D01*
X1469682Y672324D01*
X1469626Y672295D01*
X1469568Y672270D01*
X1469509Y672249D01*
X1469449Y672231D01*
X1469387Y672218D01*
X1469325Y672208D01*
X1469263Y672202D01*
X1469200Y672200D01*
X1469137Y672202D01*
X1469075Y672208D01*
X1469013Y672218D01*
X1468951Y672231D01*
X1468891Y672249D01*
X1468832Y672270D01*
X1468774Y672295D01*
X1468718Y672324D01*
X1468664Y672356D01*
X1468612Y672391D01*
X1468563Y672429D01*
X1468515Y672471D01*
X1468471Y672515D01*
X1468429Y672563D01*
X1468391Y672612D01*
X1468356Y672664D01*
X1468324Y672718D01*
X1468295Y672774D01*
X1468270Y672832D01*
X1468249Y672891D01*
X1468231Y672951D01*
X1468218Y673013D01*
X1468208Y673075D01*
X1468202Y673137D01*
X1468200Y673200D01*
D12*
X1446046Y107703D02*
X1436958Y107703D01*
X1446046Y107702D02*
X1446145Y107700D01*
X1446245Y107694D01*
X1446344Y107685D01*
X1446442Y107672D01*
X1446540Y107655D01*
X1446638Y107634D01*
X1446734Y107609D01*
X1446829Y107581D01*
X1446923Y107549D01*
X1447016Y107514D01*
X1447108Y107475D01*
X1447198Y107432D01*
X1447286Y107387D01*
X1447373Y107337D01*
X1447457Y107285D01*
X1447540Y107229D01*
X1447620Y107171D01*
X1447698Y107109D01*
X1447773Y107044D01*
X1447846Y106976D01*
X1447916Y106906D01*
X1447984Y106833D01*
X1448049Y106758D01*
X1448111Y106680D01*
X1448169Y106600D01*
X1448225Y106517D01*
X1448277Y106433D01*
X1448327Y106346D01*
X1448372Y106258D01*
X1448415Y106168D01*
X1448454Y106076D01*
X1448489Y105983D01*
X1448521Y105889D01*
X1448549Y105794D01*
X1448574Y105698D01*
X1448595Y105600D01*
X1448612Y105502D01*
X1448625Y105404D01*
X1448634Y105305D01*
X1448640Y105205D01*
X1448642Y105106D01*
X1448642Y103808D01*
X1438256Y112976D02*
X1436958Y112976D01*
X1436958Y119467D01*
X1448642Y116222D01*
D10*
X1644850Y133300D02*
X1750750Y133300D01*
X1750750Y666700D02*
X1644850Y666700D01*
X1644850Y133300D01*
X1750750Y133300D02*
X1750750Y666700D01*
D11*
X1671400Y673200D02*
X1671402Y673263D01*
X1671408Y673325D01*
X1671418Y673387D01*
X1671431Y673449D01*
X1671449Y673509D01*
X1671470Y673568D01*
X1671495Y673626D01*
X1671524Y673682D01*
X1671556Y673736D01*
X1671591Y673788D01*
X1671629Y673837D01*
X1671671Y673885D01*
X1671715Y673929D01*
X1671763Y673971D01*
X1671812Y674009D01*
X1671864Y674044D01*
X1671918Y674076D01*
X1671974Y674105D01*
X1672032Y674130D01*
X1672091Y674151D01*
X1672151Y674169D01*
X1672213Y674182D01*
X1672275Y674192D01*
X1672337Y674198D01*
X1672400Y674200D01*
X1672463Y674198D01*
X1672525Y674192D01*
X1672587Y674182D01*
X1672649Y674169D01*
X1672709Y674151D01*
X1672768Y674130D01*
X1672826Y674105D01*
X1672882Y674076D01*
X1672936Y674044D01*
X1672988Y674009D01*
X1673037Y673971D01*
X1673085Y673929D01*
X1673129Y673885D01*
X1673171Y673837D01*
X1673209Y673788D01*
X1673244Y673736D01*
X1673276Y673682D01*
X1673305Y673626D01*
X1673330Y673568D01*
X1673351Y673509D01*
X1673369Y673449D01*
X1673382Y673387D01*
X1673392Y673325D01*
X1673398Y673263D01*
X1673400Y673200D01*
X1673398Y673137D01*
X1673392Y673075D01*
X1673382Y673013D01*
X1673369Y672951D01*
X1673351Y672891D01*
X1673330Y672832D01*
X1673305Y672774D01*
X1673276Y672718D01*
X1673244Y672664D01*
X1673209Y672612D01*
X1673171Y672563D01*
X1673129Y672515D01*
X1673085Y672471D01*
X1673037Y672429D01*
X1672988Y672391D01*
X1672936Y672356D01*
X1672882Y672324D01*
X1672826Y672295D01*
X1672768Y672270D01*
X1672709Y672249D01*
X1672649Y672231D01*
X1672587Y672218D01*
X1672525Y672208D01*
X1672463Y672202D01*
X1672400Y672200D01*
X1672337Y672202D01*
X1672275Y672208D01*
X1672213Y672218D01*
X1672151Y672231D01*
X1672091Y672249D01*
X1672032Y672270D01*
X1671974Y672295D01*
X1671918Y672324D01*
X1671864Y672356D01*
X1671812Y672391D01*
X1671763Y672429D01*
X1671715Y672471D01*
X1671671Y672515D01*
X1671629Y672563D01*
X1671591Y672612D01*
X1671556Y672664D01*
X1671524Y672718D01*
X1671495Y672774D01*
X1671470Y672832D01*
X1671449Y672891D01*
X1671431Y672951D01*
X1671418Y673013D01*
X1671408Y673075D01*
X1671402Y673137D01*
X1671400Y673200D01*
D12*
X1649246Y107703D02*
X1640158Y107703D01*
X1649246Y107702D02*
X1649345Y107700D01*
X1649445Y107694D01*
X1649544Y107685D01*
X1649642Y107672D01*
X1649740Y107655D01*
X1649838Y107634D01*
X1649934Y107609D01*
X1650029Y107581D01*
X1650123Y107549D01*
X1650216Y107514D01*
X1650308Y107475D01*
X1650398Y107432D01*
X1650486Y107387D01*
X1650573Y107337D01*
X1650657Y107285D01*
X1650740Y107229D01*
X1650820Y107171D01*
X1650898Y107109D01*
X1650973Y107044D01*
X1651046Y106976D01*
X1651116Y106906D01*
X1651184Y106833D01*
X1651249Y106758D01*
X1651311Y106680D01*
X1651369Y106600D01*
X1651425Y106517D01*
X1651477Y106433D01*
X1651527Y106346D01*
X1651572Y106258D01*
X1651615Y106168D01*
X1651654Y106076D01*
X1651689Y105983D01*
X1651721Y105889D01*
X1651749Y105794D01*
X1651774Y105698D01*
X1651795Y105600D01*
X1651812Y105502D01*
X1651825Y105404D01*
X1651834Y105305D01*
X1651840Y105205D01*
X1651842Y105106D01*
X1651842Y103808D01*
X1648596Y112976D02*
X1648483Y112978D01*
X1648370Y112984D01*
X1648257Y112994D01*
X1648144Y113008D01*
X1648032Y113025D01*
X1647921Y113047D01*
X1647811Y113072D01*
X1647701Y113102D01*
X1647593Y113135D01*
X1647486Y113172D01*
X1647380Y113212D01*
X1647276Y113257D01*
X1647173Y113305D01*
X1647072Y113356D01*
X1646973Y113411D01*
X1646876Y113469D01*
X1646781Y113531D01*
X1646688Y113596D01*
X1646598Y113664D01*
X1646510Y113735D01*
X1646424Y113810D01*
X1646341Y113887D01*
X1646261Y113967D01*
X1646184Y114050D01*
X1646109Y114136D01*
X1646038Y114224D01*
X1645970Y114314D01*
X1645905Y114407D01*
X1645843Y114502D01*
X1645785Y114599D01*
X1645730Y114698D01*
X1645679Y114799D01*
X1645631Y114902D01*
X1645586Y115006D01*
X1645546Y115112D01*
X1645509Y115219D01*
X1645476Y115327D01*
X1645446Y115437D01*
X1645421Y115547D01*
X1645399Y115658D01*
X1645382Y115770D01*
X1645368Y115883D01*
X1645358Y115996D01*
X1645352Y116109D01*
X1645350Y116222D01*
X1645352Y116335D01*
X1645358Y116448D01*
X1645368Y116561D01*
X1645382Y116674D01*
X1645399Y116786D01*
X1645421Y116897D01*
X1645446Y117007D01*
X1645476Y117117D01*
X1645509Y117225D01*
X1645546Y117332D01*
X1645586Y117438D01*
X1645631Y117542D01*
X1645679Y117645D01*
X1645730Y117746D01*
X1645785Y117845D01*
X1645843Y117942D01*
X1645905Y118037D01*
X1645970Y118130D01*
X1646038Y118220D01*
X1646109Y118308D01*
X1646184Y118394D01*
X1646261Y118477D01*
X1646341Y118557D01*
X1646424Y118634D01*
X1646510Y118709D01*
X1646598Y118780D01*
X1646688Y118848D01*
X1646781Y118913D01*
X1646876Y118975D01*
X1646973Y119033D01*
X1647072Y119088D01*
X1647173Y119139D01*
X1647276Y119187D01*
X1647380Y119232D01*
X1647486Y119272D01*
X1647593Y119309D01*
X1647701Y119342D01*
X1647811Y119372D01*
X1647921Y119397D01*
X1648032Y119419D01*
X1648144Y119436D01*
X1648257Y119450D01*
X1648370Y119460D01*
X1648483Y119466D01*
X1648596Y119468D01*
X1648709Y119466D01*
X1648822Y119460D01*
X1648935Y119450D01*
X1649048Y119436D01*
X1649160Y119419D01*
X1649271Y119397D01*
X1649381Y119372D01*
X1649491Y119342D01*
X1649599Y119309D01*
X1649706Y119272D01*
X1649812Y119232D01*
X1649916Y119187D01*
X1650019Y119139D01*
X1650120Y119088D01*
X1650219Y119033D01*
X1650316Y118975D01*
X1650411Y118913D01*
X1650504Y118848D01*
X1650594Y118780D01*
X1650682Y118709D01*
X1650768Y118634D01*
X1650851Y118557D01*
X1650931Y118477D01*
X1651008Y118394D01*
X1651083Y118308D01*
X1651154Y118220D01*
X1651222Y118130D01*
X1651287Y118037D01*
X1651349Y117942D01*
X1651407Y117845D01*
X1651462Y117746D01*
X1651513Y117645D01*
X1651561Y117542D01*
X1651606Y117438D01*
X1651646Y117332D01*
X1651683Y117225D01*
X1651716Y117117D01*
X1651746Y117007D01*
X1651771Y116897D01*
X1651793Y116786D01*
X1651810Y116674D01*
X1651824Y116561D01*
X1651834Y116448D01*
X1651840Y116335D01*
X1651842Y116222D01*
X1651840Y116109D01*
X1651834Y115996D01*
X1651824Y115883D01*
X1651810Y115770D01*
X1651793Y115658D01*
X1651771Y115547D01*
X1651746Y115437D01*
X1651716Y115327D01*
X1651683Y115219D01*
X1651646Y115112D01*
X1651606Y115006D01*
X1651561Y114902D01*
X1651513Y114799D01*
X1651462Y114698D01*
X1651407Y114599D01*
X1651349Y114502D01*
X1651287Y114407D01*
X1651222Y114314D01*
X1651154Y114224D01*
X1651083Y114136D01*
X1651008Y114050D01*
X1650931Y113967D01*
X1650851Y113887D01*
X1650768Y113810D01*
X1650682Y113735D01*
X1650594Y113664D01*
X1650504Y113596D01*
X1650411Y113531D01*
X1650316Y113469D01*
X1650219Y113411D01*
X1650120Y113356D01*
X1650019Y113305D01*
X1649916Y113257D01*
X1649812Y113212D01*
X1649706Y113172D01*
X1649599Y113135D01*
X1649491Y113102D01*
X1649381Y113072D01*
X1649271Y113047D01*
X1649160Y113025D01*
X1649048Y113008D01*
X1648935Y112994D01*
X1648822Y112984D01*
X1648709Y112978D01*
X1648596Y112976D01*
X1642754Y113626D02*
X1642653Y113628D01*
X1642553Y113634D01*
X1642453Y113644D01*
X1642353Y113657D01*
X1642254Y113675D01*
X1642155Y113696D01*
X1642058Y113721D01*
X1641961Y113750D01*
X1641866Y113783D01*
X1641772Y113819D01*
X1641680Y113859D01*
X1641589Y113902D01*
X1641500Y113949D01*
X1641413Y113999D01*
X1641327Y114053D01*
X1641244Y114110D01*
X1641164Y114170D01*
X1641085Y114233D01*
X1641009Y114300D01*
X1640936Y114369D01*
X1640866Y114441D01*
X1640798Y114515D01*
X1640733Y114592D01*
X1640672Y114672D01*
X1640613Y114754D01*
X1640558Y114838D01*
X1640506Y114924D01*
X1640457Y115012D01*
X1640412Y115102D01*
X1640370Y115194D01*
X1640332Y115287D01*
X1640298Y115382D01*
X1640267Y115477D01*
X1640240Y115574D01*
X1640217Y115672D01*
X1640197Y115771D01*
X1640182Y115871D01*
X1640170Y115971D01*
X1640162Y116071D01*
X1640158Y116172D01*
X1640158Y116272D01*
X1640162Y116373D01*
X1640170Y116473D01*
X1640182Y116573D01*
X1640197Y116673D01*
X1640217Y116772D01*
X1640240Y116870D01*
X1640267Y116967D01*
X1640298Y117062D01*
X1640332Y117157D01*
X1640370Y117250D01*
X1640412Y117342D01*
X1640457Y117432D01*
X1640506Y117520D01*
X1640558Y117606D01*
X1640613Y117690D01*
X1640672Y117772D01*
X1640733Y117852D01*
X1640798Y117929D01*
X1640866Y118003D01*
X1640936Y118075D01*
X1641009Y118144D01*
X1641085Y118211D01*
X1641164Y118274D01*
X1641244Y118334D01*
X1641327Y118391D01*
X1641413Y118445D01*
X1641500Y118495D01*
X1641589Y118542D01*
X1641680Y118585D01*
X1641772Y118625D01*
X1641866Y118661D01*
X1641961Y118694D01*
X1642058Y118723D01*
X1642155Y118748D01*
X1642254Y118769D01*
X1642353Y118787D01*
X1642453Y118800D01*
X1642553Y118810D01*
X1642653Y118816D01*
X1642754Y118818D01*
X1642855Y118816D01*
X1642955Y118810D01*
X1643055Y118800D01*
X1643155Y118787D01*
X1643254Y118769D01*
X1643353Y118748D01*
X1643450Y118723D01*
X1643547Y118694D01*
X1643642Y118661D01*
X1643736Y118625D01*
X1643828Y118585D01*
X1643919Y118542D01*
X1644008Y118495D01*
X1644095Y118445D01*
X1644181Y118391D01*
X1644264Y118334D01*
X1644344Y118274D01*
X1644423Y118211D01*
X1644499Y118144D01*
X1644572Y118075D01*
X1644642Y118003D01*
X1644710Y117929D01*
X1644775Y117852D01*
X1644836Y117772D01*
X1644895Y117690D01*
X1644950Y117606D01*
X1645002Y117520D01*
X1645051Y117432D01*
X1645096Y117342D01*
X1645138Y117250D01*
X1645176Y117157D01*
X1645210Y117062D01*
X1645241Y116967D01*
X1645268Y116870D01*
X1645291Y116772D01*
X1645311Y116673D01*
X1645326Y116573D01*
X1645338Y116473D01*
X1645346Y116373D01*
X1645350Y116272D01*
X1645350Y116172D01*
X1645346Y116071D01*
X1645338Y115971D01*
X1645326Y115871D01*
X1645311Y115771D01*
X1645291Y115672D01*
X1645268Y115574D01*
X1645241Y115477D01*
X1645210Y115382D01*
X1645176Y115287D01*
X1645138Y115194D01*
X1645096Y115102D01*
X1645051Y115012D01*
X1645002Y114924D01*
X1644950Y114838D01*
X1644895Y114754D01*
X1644836Y114672D01*
X1644775Y114592D01*
X1644710Y114515D01*
X1644642Y114441D01*
X1644572Y114369D01*
X1644499Y114300D01*
X1644423Y114233D01*
X1644344Y114170D01*
X1644264Y114110D01*
X1644181Y114053D01*
X1644095Y113999D01*
X1644008Y113949D01*
X1643919Y113902D01*
X1643828Y113859D01*
X1643736Y113819D01*
X1643642Y113783D01*
X1643547Y113750D01*
X1643450Y113721D01*
X1643353Y113696D01*
X1643254Y113675D01*
X1643155Y113657D01*
X1643055Y113644D01*
X1642955Y113634D01*
X1642855Y113628D01*
X1642754Y113626D01*
D13*
X10300Y628467D02*
X10300Y711533D01*
X149700Y711533D02*
X149700Y628467D01*
X125000Y628467D02*
X125000Y711533D01*
X35000Y711533D02*
X35000Y628467D01*
X46667Y670000D02*
X46677Y670818D01*
X46707Y671636D01*
X46757Y672452D01*
X46828Y673267D01*
X46918Y674080D01*
X47028Y674891D01*
X47158Y675699D01*
X47307Y676503D01*
X47477Y677303D01*
X47666Y678099D01*
X47874Y678890D01*
X48102Y679676D01*
X48349Y680456D01*
X48616Y681230D01*
X48901Y681996D01*
X49204Y682756D01*
X49527Y683508D01*
X49867Y684252D01*
X50226Y684987D01*
X50603Y685713D01*
X50997Y686430D01*
X51409Y687137D01*
X51838Y687833D01*
X52285Y688519D01*
X52747Y689193D01*
X53227Y689856D01*
X53722Y690508D01*
X54233Y691146D01*
X54760Y691772D01*
X55302Y692385D01*
X55859Y692984D01*
X56430Y693570D01*
X57016Y694141D01*
X57615Y694698D01*
X58228Y695240D01*
X58854Y695767D01*
X59492Y696278D01*
X60144Y696773D01*
X60807Y697253D01*
X61481Y697715D01*
X62167Y698162D01*
X62863Y698591D01*
X63570Y699003D01*
X64287Y699397D01*
X65013Y699774D01*
X65748Y700133D01*
X66492Y700473D01*
X67244Y700796D01*
X68004Y701099D01*
X68770Y701384D01*
X69544Y701651D01*
X70324Y701898D01*
X71110Y702126D01*
X71901Y702334D01*
X72697Y702523D01*
X73497Y702693D01*
X74301Y702842D01*
X75109Y702972D01*
X75920Y703082D01*
X76733Y703172D01*
X77548Y703243D01*
X78364Y703293D01*
X79182Y703323D01*
X80000Y703333D01*
X80818Y703323D01*
X81636Y703293D01*
X82452Y703243D01*
X83267Y703172D01*
X84080Y703082D01*
X84891Y702972D01*
X85699Y702842D01*
X86503Y702693D01*
X87303Y702523D01*
X88099Y702334D01*
X88890Y702126D01*
X89676Y701898D01*
X90456Y701651D01*
X91230Y701384D01*
X91996Y701099D01*
X92756Y700796D01*
X93508Y700473D01*
X94252Y700133D01*
X94987Y699774D01*
X95713Y699397D01*
X96430Y699003D01*
X97137Y698591D01*
X97833Y698162D01*
X98519Y697715D01*
X99193Y697253D01*
X99856Y696773D01*
X100508Y696278D01*
X101146Y695767D01*
X101772Y695240D01*
X102385Y694698D01*
X102984Y694141D01*
X103570Y693570D01*
X104141Y692984D01*
X104698Y692385D01*
X105240Y691772D01*
X105767Y691146D01*
X106278Y690508D01*
X106773Y689856D01*
X107253Y689193D01*
X107715Y688519D01*
X108162Y687833D01*
X108591Y687137D01*
X109003Y686430D01*
X109397Y685713D01*
X109774Y684987D01*
X110133Y684252D01*
X110473Y683508D01*
X110796Y682756D01*
X111099Y681996D01*
X111384Y681230D01*
X111651Y680456D01*
X111898Y679676D01*
X112126Y678890D01*
X112334Y678099D01*
X112523Y677303D01*
X112693Y676503D01*
X112842Y675699D01*
X112972Y674891D01*
X113082Y674080D01*
X113172Y673267D01*
X113243Y672452D01*
X113293Y671636D01*
X113323Y670818D01*
X113333Y670000D01*
X113323Y669182D01*
X113293Y668364D01*
X113243Y667548D01*
X113172Y666733D01*
X113082Y665920D01*
X112972Y665109D01*
X112842Y664301D01*
X112693Y663497D01*
X112523Y662697D01*
X112334Y661901D01*
X112126Y661110D01*
X111898Y660324D01*
X111651Y659544D01*
X111384Y658770D01*
X111099Y658004D01*
X110796Y657244D01*
X110473Y656492D01*
X110133Y655748D01*
X109774Y655013D01*
X109397Y654287D01*
X109003Y653570D01*
X108591Y652863D01*
X108162Y652167D01*
X107715Y651481D01*
X107253Y650807D01*
X106773Y650144D01*
X106278Y649492D01*
X105767Y648854D01*
X105240Y648228D01*
X104698Y647615D01*
X104141Y647016D01*
X103570Y646430D01*
X102984Y645859D01*
X102385Y645302D01*
X101772Y644760D01*
X101146Y644233D01*
X100508Y643722D01*
X99856Y643227D01*
X99193Y642747D01*
X98519Y642285D01*
X97833Y641838D01*
X97137Y641409D01*
X96430Y640997D01*
X95713Y640603D01*
X94987Y640226D01*
X94252Y639867D01*
X93508Y639527D01*
X92756Y639204D01*
X91996Y638901D01*
X91230Y638616D01*
X90456Y638349D01*
X89676Y638102D01*
X88890Y637874D01*
X88099Y637666D01*
X87303Y637477D01*
X86503Y637307D01*
X85699Y637158D01*
X84891Y637028D01*
X84080Y636918D01*
X83267Y636828D01*
X82452Y636757D01*
X81636Y636707D01*
X80818Y636677D01*
X80000Y636667D01*
X79182Y636677D01*
X78364Y636707D01*
X77548Y636757D01*
X76733Y636828D01*
X75920Y636918D01*
X75109Y637028D01*
X74301Y637158D01*
X73497Y637307D01*
X72697Y637477D01*
X71901Y637666D01*
X71110Y637874D01*
X70324Y638102D01*
X69544Y638349D01*
X68770Y638616D01*
X68004Y638901D01*
X67244Y639204D01*
X66492Y639527D01*
X65748Y639867D01*
X65013Y640226D01*
X64287Y640603D01*
X63570Y640997D01*
X62863Y641409D01*
X62167Y641838D01*
X61481Y642285D01*
X60807Y642747D01*
X60144Y643227D01*
X59492Y643722D01*
X58854Y644233D01*
X58228Y644760D01*
X57615Y645302D01*
X57016Y645859D01*
X56430Y646430D01*
X55859Y647016D01*
X55302Y647615D01*
X54760Y648228D01*
X54233Y648854D01*
X53722Y649492D01*
X53227Y650144D01*
X52747Y650807D01*
X52285Y651481D01*
X51838Y652167D01*
X51409Y652863D01*
X50997Y653570D01*
X50603Y654287D01*
X50226Y655013D01*
X49867Y655748D01*
X49527Y656492D01*
X49204Y657244D01*
X48901Y658004D01*
X48616Y658770D01*
X48349Y659544D01*
X48102Y660324D01*
X47874Y661110D01*
X47666Y661901D01*
X47477Y662697D01*
X47307Y663497D01*
X47158Y664301D01*
X47028Y665109D01*
X46918Y665920D01*
X46828Y666733D01*
X46757Y667548D01*
X46707Y668364D01*
X46677Y669182D01*
X46667Y670000D01*
X90314Y671828D02*
X90245Y671756D01*
X90179Y671682D01*
X90116Y671605D01*
X90057Y671526D01*
X90000Y671445D01*
X89946Y671362D01*
X89896Y671276D01*
X89849Y671189D01*
X89805Y671100D01*
X89764Y671010D01*
X89728Y670917D01*
X89694Y670824D01*
X89665Y670729D01*
X89639Y670634D01*
X89616Y670537D01*
X89598Y670440D01*
X89583Y670342D01*
X89571Y670243D01*
X89564Y670144D01*
X89560Y670045D01*
X89561Y669946D01*
X89565Y669847D01*
X89572Y669748D01*
X89584Y669650D01*
X89599Y669552D01*
X89618Y669454D01*
X89641Y669358D01*
X89667Y669262D01*
X89697Y669168D01*
X89731Y669074D01*
X89768Y668982D01*
X89809Y668892D01*
X89853Y668803D01*
X89900Y668716D01*
X89951Y668631D01*
X90005Y668548D01*
X90062Y668467D01*
X90122Y668388D01*
X90185Y668311D01*
X90251Y668237D01*
X90320Y668166D01*
X94235Y675749D02*
X94342Y675860D01*
X94447Y675973D01*
X94549Y676089D01*
X94648Y676208D01*
X94744Y676329D01*
X94837Y676453D01*
X94927Y676579D01*
X95013Y676707D01*
X95096Y676837D01*
X95175Y676970D01*
X95251Y677104D01*
X95324Y677241D01*
X95393Y677379D01*
X95459Y677519D01*
X95520Y677660D01*
X95579Y677803D01*
X95633Y677948D01*
X95684Y678094D01*
X95731Y678241D01*
X95774Y678389D01*
X95813Y678539D01*
X95849Y678689D01*
X95880Y678840D01*
X95908Y678992D01*
X95932Y679145D01*
X95952Y679298D01*
X95968Y679452D01*
X95980Y679606D01*
X95988Y679760D01*
X95992Y679915D01*
X95992Y680069D01*
X95988Y680224D01*
X95980Y680378D01*
X95968Y680532D01*
X95952Y680686D01*
X95932Y680839D01*
X95908Y680992D01*
X95880Y681144D01*
X95849Y681295D01*
X95813Y681445D01*
X95774Y681595D01*
X95731Y681743D01*
X95684Y681890D01*
X95633Y682036D01*
X95579Y682181D01*
X95520Y682324D01*
X95459Y682465D01*
X95393Y682605D01*
X95324Y682743D01*
X95251Y682880D01*
X95175Y683014D01*
X95096Y683147D01*
X95013Y683277D01*
X94927Y683405D01*
X94837Y683531D01*
X94744Y683655D01*
X94648Y683776D01*
X94549Y683895D01*
X94447Y684011D01*
X94342Y684124D01*
X94235Y684235D01*
X94124Y684342D01*
X94011Y684447D01*
X93895Y684549D01*
X93776Y684648D01*
X93655Y684744D01*
X93531Y684837D01*
X93405Y684927D01*
X93277Y685013D01*
X93147Y685096D01*
X93014Y685175D01*
X92880Y685251D01*
X92743Y685324D01*
X92605Y685393D01*
X92465Y685459D01*
X92324Y685520D01*
X92181Y685579D01*
X92036Y685633D01*
X91890Y685684D01*
X91743Y685731D01*
X91595Y685774D01*
X91445Y685813D01*
X91295Y685849D01*
X91144Y685880D01*
X90992Y685908D01*
X90839Y685932D01*
X90686Y685952D01*
X90532Y685968D01*
X90378Y685980D01*
X90224Y685988D01*
X90069Y685992D01*
X89915Y685992D01*
X89760Y685988D01*
X89606Y685980D01*
X89452Y685968D01*
X89298Y685952D01*
X89145Y685932D01*
X88992Y685908D01*
X88840Y685880D01*
X88689Y685849D01*
X88539Y685813D01*
X88389Y685774D01*
X88241Y685731D01*
X88094Y685684D01*
X87948Y685633D01*
X87803Y685579D01*
X87660Y685520D01*
X87519Y685459D01*
X87379Y685393D01*
X87241Y685324D01*
X87104Y685251D01*
X86970Y685175D01*
X86837Y685096D01*
X86707Y685013D01*
X86579Y684927D01*
X86453Y684837D01*
X86329Y684744D01*
X86208Y684648D01*
X86089Y684549D01*
X85973Y684447D01*
X85860Y684342D01*
X85749Y684235D01*
X81834Y659680D02*
X81763Y659749D01*
X81689Y659815D01*
X81612Y659878D01*
X81533Y659938D01*
X81452Y659995D01*
X81369Y660049D01*
X81284Y660100D01*
X81197Y660147D01*
X81108Y660191D01*
X81018Y660232D01*
X80926Y660269D01*
X80832Y660303D01*
X80738Y660333D01*
X80642Y660359D01*
X80546Y660382D01*
X80448Y660401D01*
X80350Y660416D01*
X80252Y660428D01*
X80153Y660435D01*
X80054Y660439D01*
X79955Y660440D01*
X79856Y660436D01*
X79757Y660429D01*
X79658Y660417D01*
X79560Y660402D01*
X79463Y660384D01*
X79366Y660361D01*
X79271Y660335D01*
X79176Y660306D01*
X79083Y660272D01*
X78991Y660236D01*
X78900Y660195D01*
X78811Y660151D01*
X78724Y660104D01*
X78638Y660054D01*
X78555Y660000D01*
X78474Y659943D01*
X78395Y659884D01*
X78318Y659821D01*
X78244Y659755D01*
X78172Y659686D01*
X74251Y655765D02*
X74141Y655658D01*
X74028Y655554D01*
X73913Y655453D01*
X73796Y655355D01*
X73676Y655260D01*
X73553Y655167D01*
X73429Y655078D01*
X73301Y654993D01*
X73172Y654910D01*
X73041Y654831D01*
X72908Y654755D01*
X72773Y654683D01*
X72636Y654614D01*
X72497Y654549D01*
X72357Y654487D01*
X72215Y654429D01*
X72072Y654374D01*
X71928Y654323D01*
X71782Y654276D01*
X71635Y654233D01*
X71487Y654193D01*
X71338Y654157D01*
X71188Y654125D01*
X71037Y654097D01*
X70886Y654073D01*
X70734Y654052D01*
X70582Y654036D01*
X70429Y654023D01*
X70276Y654014D01*
X70123Y654009D01*
X69970Y654008D01*
X69816Y654011D01*
X69663Y654018D01*
X69511Y654029D01*
X69358Y654043D01*
X69206Y654062D01*
X69054Y654084D01*
X68903Y654111D01*
X68753Y654141D01*
X68604Y654175D01*
X68455Y654212D01*
X68308Y654254D01*
X68161Y654299D01*
X68016Y654348D01*
X67872Y654401D01*
X67730Y654457D01*
X67589Y654517D01*
X67449Y654581D01*
X67311Y654648D01*
X67175Y654719D01*
X67041Y654793D01*
X66909Y654870D01*
X66779Y654951D01*
X66651Y655035D01*
X66525Y655123D01*
X66401Y655213D01*
X66280Y655307D01*
X66161Y655404D01*
X66045Y655503D01*
X65931Y655606D01*
X65820Y655712D01*
X65712Y655820D01*
X65606Y655931D01*
X65503Y656045D01*
X65404Y656161D01*
X65307Y656280D01*
X65213Y656401D01*
X65123Y656525D01*
X65035Y656651D01*
X64951Y656779D01*
X64870Y656909D01*
X64793Y657041D01*
X64719Y657175D01*
X64648Y657311D01*
X64581Y657449D01*
X64517Y657589D01*
X64457Y657730D01*
X64401Y657872D01*
X64348Y658016D01*
X64299Y658161D01*
X64254Y658308D01*
X64212Y658455D01*
X64175Y658604D01*
X64141Y658753D01*
X64111Y658903D01*
X64084Y659054D01*
X64062Y659206D01*
X64043Y659358D01*
X64029Y659511D01*
X64018Y659663D01*
X64011Y659816D01*
X64008Y659970D01*
X64009Y660123D01*
X64014Y660276D01*
X64023Y660429D01*
X64036Y660582D01*
X64052Y660734D01*
X64073Y660886D01*
X64097Y661037D01*
X64125Y661188D01*
X64157Y661338D01*
X64193Y661487D01*
X64233Y661635D01*
X64276Y661782D01*
X64323Y661928D01*
X64374Y662072D01*
X64429Y662215D01*
X64487Y662357D01*
X64549Y662497D01*
X64614Y662636D01*
X64683Y662773D01*
X64755Y662908D01*
X64831Y663041D01*
X64910Y663172D01*
X64993Y663301D01*
X65078Y663429D01*
X65167Y663553D01*
X65260Y663676D01*
X65355Y663796D01*
X65453Y663913D01*
X65554Y664028D01*
X65658Y664141D01*
X65765Y664251D01*
X78166Y680320D02*
X78237Y680251D01*
X78311Y680185D01*
X78388Y680122D01*
X78467Y680062D01*
X78548Y680005D01*
X78631Y679951D01*
X78716Y679900D01*
X78803Y679853D01*
X78892Y679809D01*
X78982Y679768D01*
X79074Y679731D01*
X79168Y679697D01*
X79262Y679667D01*
X79358Y679641D01*
X79454Y679618D01*
X79552Y679599D01*
X79650Y679584D01*
X79748Y679572D01*
X79847Y679565D01*
X79946Y679561D01*
X80045Y679560D01*
X80144Y679564D01*
X80243Y679571D01*
X80342Y679583D01*
X80440Y679598D01*
X80537Y679616D01*
X80634Y679639D01*
X80729Y679665D01*
X80824Y679694D01*
X80917Y679728D01*
X81010Y679764D01*
X81100Y679805D01*
X81189Y679849D01*
X81276Y679896D01*
X81362Y679946D01*
X81445Y680000D01*
X81526Y680057D01*
X81605Y680116D01*
X81682Y680179D01*
X81756Y680245D01*
X81828Y680314D01*
X69680Y671834D02*
X69749Y671763D01*
X69815Y671689D01*
X69878Y671612D01*
X69938Y671533D01*
X69995Y671452D01*
X70049Y671369D01*
X70100Y671284D01*
X70147Y671197D01*
X70191Y671108D01*
X70232Y671018D01*
X70269Y670926D01*
X70303Y670832D01*
X70333Y670738D01*
X70359Y670642D01*
X70382Y670546D01*
X70401Y670448D01*
X70416Y670350D01*
X70428Y670252D01*
X70435Y670153D01*
X70439Y670054D01*
X70440Y669955D01*
X70436Y669856D01*
X70429Y669757D01*
X70417Y669658D01*
X70402Y669560D01*
X70384Y669463D01*
X70361Y669366D01*
X70335Y669271D01*
X70306Y669176D01*
X70272Y669083D01*
X70236Y668991D01*
X70195Y668900D01*
X70151Y668811D01*
X70104Y668724D01*
X70054Y668638D01*
X70000Y668555D01*
X69943Y668474D01*
X69884Y668395D01*
X69821Y668318D01*
X69755Y668244D01*
X69686Y668172D01*
X85749Y655765D02*
X85859Y655658D01*
X85972Y655554D01*
X86087Y655453D01*
X86204Y655355D01*
X86324Y655260D01*
X86447Y655167D01*
X86571Y655078D01*
X86699Y654993D01*
X86828Y654910D01*
X86959Y654831D01*
X87092Y654755D01*
X87227Y654683D01*
X87364Y654614D01*
X87503Y654549D01*
X87643Y654487D01*
X87785Y654429D01*
X87928Y654374D01*
X88072Y654323D01*
X88218Y654276D01*
X88365Y654233D01*
X88513Y654193D01*
X88662Y654157D01*
X88812Y654125D01*
X88963Y654097D01*
X89114Y654073D01*
X89266Y654052D01*
X89418Y654036D01*
X89571Y654023D01*
X89724Y654014D01*
X89877Y654009D01*
X90030Y654008D01*
X90184Y654011D01*
X90337Y654018D01*
X90489Y654029D01*
X90642Y654043D01*
X90794Y654062D01*
X90946Y654084D01*
X91097Y654111D01*
X91247Y654141D01*
X91396Y654175D01*
X91545Y654212D01*
X91692Y654254D01*
X91839Y654299D01*
X91984Y654348D01*
X92128Y654401D01*
X92270Y654457D01*
X92411Y654517D01*
X92551Y654581D01*
X92689Y654648D01*
X92825Y654719D01*
X92959Y654793D01*
X93091Y654870D01*
X93221Y654951D01*
X93349Y655035D01*
X93475Y655123D01*
X93599Y655213D01*
X93720Y655307D01*
X93839Y655404D01*
X93955Y655503D01*
X94069Y655606D01*
X94180Y655712D01*
X94288Y655820D01*
X94394Y655931D01*
X94497Y656045D01*
X94596Y656161D01*
X94693Y656280D01*
X94787Y656401D01*
X94877Y656525D01*
X94965Y656651D01*
X95049Y656779D01*
X95130Y656909D01*
X95207Y657041D01*
X95281Y657175D01*
X95352Y657311D01*
X95419Y657449D01*
X95483Y657589D01*
X95543Y657730D01*
X95599Y657872D01*
X95652Y658016D01*
X95701Y658161D01*
X95746Y658308D01*
X95788Y658455D01*
X95825Y658604D01*
X95859Y658753D01*
X95889Y658903D01*
X95916Y659054D01*
X95938Y659206D01*
X95957Y659358D01*
X95971Y659511D01*
X95982Y659663D01*
X95989Y659816D01*
X95992Y659970D01*
X95991Y660123D01*
X95986Y660276D01*
X95977Y660429D01*
X95964Y660582D01*
X95948Y660734D01*
X95927Y660886D01*
X95903Y661037D01*
X95875Y661188D01*
X95843Y661338D01*
X95807Y661487D01*
X95767Y661635D01*
X95724Y661782D01*
X95677Y661928D01*
X95626Y662072D01*
X95571Y662215D01*
X95513Y662357D01*
X95451Y662497D01*
X95386Y662636D01*
X95317Y662773D01*
X95245Y662908D01*
X95169Y663041D01*
X95090Y663172D01*
X95007Y663301D01*
X94922Y663429D01*
X94833Y663553D01*
X94740Y663676D01*
X94645Y663796D01*
X94547Y663913D01*
X94446Y664028D01*
X94342Y664141D01*
X94235Y664251D01*
X74251Y684235D02*
X74141Y684342D01*
X74028Y684446D01*
X73913Y684547D01*
X73796Y684645D01*
X73676Y684740D01*
X73553Y684833D01*
X73429Y684922D01*
X73301Y685007D01*
X73172Y685090D01*
X73041Y685169D01*
X72908Y685245D01*
X72773Y685317D01*
X72636Y685386D01*
X72497Y685451D01*
X72357Y685513D01*
X72215Y685571D01*
X72072Y685626D01*
X71928Y685677D01*
X71782Y685724D01*
X71635Y685767D01*
X71487Y685807D01*
X71338Y685843D01*
X71188Y685875D01*
X71037Y685903D01*
X70886Y685927D01*
X70734Y685948D01*
X70582Y685964D01*
X70429Y685977D01*
X70276Y685986D01*
X70123Y685991D01*
X69970Y685992D01*
X69816Y685989D01*
X69663Y685982D01*
X69511Y685971D01*
X69358Y685957D01*
X69206Y685938D01*
X69054Y685916D01*
X68903Y685889D01*
X68753Y685859D01*
X68604Y685825D01*
X68455Y685788D01*
X68308Y685746D01*
X68161Y685701D01*
X68016Y685652D01*
X67872Y685599D01*
X67730Y685543D01*
X67589Y685483D01*
X67449Y685419D01*
X67311Y685352D01*
X67175Y685281D01*
X67041Y685207D01*
X66909Y685130D01*
X66779Y685049D01*
X66651Y684965D01*
X66525Y684877D01*
X66401Y684787D01*
X66280Y684693D01*
X66161Y684596D01*
X66045Y684497D01*
X65931Y684394D01*
X65820Y684288D01*
X65712Y684180D01*
X65606Y684069D01*
X65503Y683955D01*
X65404Y683839D01*
X65307Y683720D01*
X65213Y683599D01*
X65123Y683475D01*
X65035Y683349D01*
X64951Y683221D01*
X64870Y683091D01*
X64793Y682959D01*
X64719Y682825D01*
X64648Y682689D01*
X64581Y682551D01*
X64517Y682411D01*
X64457Y682270D01*
X64401Y682128D01*
X64348Y681984D01*
X64299Y681839D01*
X64254Y681692D01*
X64212Y681545D01*
X64175Y681396D01*
X64141Y681247D01*
X64111Y681097D01*
X64084Y680946D01*
X64062Y680794D01*
X64043Y680642D01*
X64029Y680489D01*
X64018Y680337D01*
X64011Y680184D01*
X64008Y680030D01*
X64009Y679877D01*
X64014Y679724D01*
X64023Y679571D01*
X64036Y679418D01*
X64052Y679266D01*
X64073Y679114D01*
X64097Y678963D01*
X64125Y678812D01*
X64157Y678662D01*
X64193Y678513D01*
X64233Y678365D01*
X64276Y678218D01*
X64323Y678072D01*
X64374Y677928D01*
X64429Y677785D01*
X64487Y677643D01*
X64549Y677503D01*
X64614Y677364D01*
X64683Y677227D01*
X64755Y677092D01*
X64831Y676959D01*
X64910Y676828D01*
X64993Y676699D01*
X65078Y676571D01*
X65167Y676447D01*
X65260Y676324D01*
X65355Y676204D01*
X65453Y676087D01*
X65554Y675972D01*
X65658Y675859D01*
X65765Y675749D01*
X74251Y684234D02*
X78166Y680320D01*
X81828Y680314D02*
X85749Y684235D01*
X94234Y675749D02*
X90314Y671828D01*
X90320Y668166D02*
X94234Y664251D01*
X85749Y655766D02*
X81834Y659680D01*
X78172Y659686D02*
X74251Y655766D01*
X65766Y664251D02*
X69679Y668165D01*
X69680Y671834D02*
X65766Y675749D01*
X77520Y646822D02*
X77522Y646921D01*
X77528Y647020D01*
X77538Y647119D01*
X77552Y647217D01*
X77569Y647315D01*
X77591Y647412D01*
X77617Y647508D01*
X77646Y647603D01*
X77679Y647696D01*
X77716Y647788D01*
X77756Y647879D01*
X77801Y647968D01*
X77848Y648055D01*
X77899Y648140D01*
X77954Y648223D01*
X78011Y648304D01*
X78072Y648382D01*
X78136Y648458D01*
X78203Y648531D01*
X78273Y648602D01*
X78345Y648669D01*
X78421Y648734D01*
X78498Y648796D01*
X78579Y648854D01*
X78661Y648910D01*
X78746Y648961D01*
X78832Y649010D01*
X78921Y649055D01*
X79011Y649096D01*
X79103Y649134D01*
X79196Y649168D01*
X79290Y649198D01*
X79386Y649225D01*
X79483Y649247D01*
X79580Y649266D01*
X79678Y649281D01*
X79777Y649292D01*
X79876Y649299D01*
X79975Y649302D01*
X80074Y649301D01*
X80174Y649296D01*
X80272Y649287D01*
X80371Y649274D01*
X80469Y649257D01*
X80566Y649237D01*
X80662Y649212D01*
X80757Y649184D01*
X80851Y649151D01*
X80943Y649116D01*
X81034Y649076D01*
X81124Y649033D01*
X81211Y648986D01*
X81297Y648936D01*
X81380Y648882D01*
X81462Y648825D01*
X81541Y648765D01*
X81617Y648702D01*
X81691Y648636D01*
X81762Y648567D01*
X81831Y648495D01*
X81896Y648420D01*
X81959Y648343D01*
X82018Y648264D01*
X82074Y648182D01*
X82127Y648098D01*
X82176Y648012D01*
X82222Y647924D01*
X82264Y647834D01*
X82303Y647742D01*
X82338Y647649D01*
X82369Y647555D01*
X82397Y647460D01*
X82420Y647363D01*
X82440Y647266D01*
X82456Y647168D01*
X82468Y647070D01*
X82476Y646971D01*
X82480Y646872D01*
X82480Y646772D01*
X82476Y646673D01*
X82468Y646574D01*
X82456Y646476D01*
X82440Y646378D01*
X82420Y646281D01*
X82397Y646184D01*
X82369Y646089D01*
X82338Y645995D01*
X82303Y645902D01*
X82264Y645810D01*
X82222Y645720D01*
X82176Y645632D01*
X82127Y645546D01*
X82074Y645462D01*
X82018Y645380D01*
X81959Y645301D01*
X81896Y645224D01*
X81831Y645149D01*
X81762Y645077D01*
X81691Y645008D01*
X81617Y644942D01*
X81541Y644879D01*
X81462Y644819D01*
X81380Y644762D01*
X81297Y644708D01*
X81211Y644658D01*
X81124Y644611D01*
X81034Y644568D01*
X80943Y644528D01*
X80851Y644493D01*
X80757Y644460D01*
X80662Y644432D01*
X80566Y644407D01*
X80469Y644387D01*
X80371Y644370D01*
X80272Y644357D01*
X80174Y644348D01*
X80074Y644343D01*
X79975Y644342D01*
X79876Y644345D01*
X79777Y644352D01*
X79678Y644363D01*
X79580Y644378D01*
X79483Y644397D01*
X79386Y644419D01*
X79290Y644446D01*
X79196Y644476D01*
X79103Y644510D01*
X79011Y644548D01*
X78921Y644589D01*
X78832Y644634D01*
X78746Y644683D01*
X78661Y644734D01*
X78579Y644790D01*
X78498Y644848D01*
X78421Y644910D01*
X78345Y644975D01*
X78273Y645042D01*
X78203Y645113D01*
X78136Y645186D01*
X78072Y645262D01*
X78011Y645340D01*
X77954Y645421D01*
X77899Y645504D01*
X77848Y645589D01*
X77801Y645676D01*
X77756Y645765D01*
X77716Y645856D01*
X77679Y645948D01*
X77646Y646041D01*
X77617Y646136D01*
X77591Y646232D01*
X77569Y646329D01*
X77552Y646427D01*
X77538Y646525D01*
X77528Y646624D01*
X77522Y646723D01*
X77520Y646822D01*
X38624Y633531D02*
X43531Y711376D01*
X121376Y706469D01*
X116469Y628624D02*
X38624Y633531D01*
X116469Y628624D02*
X121376Y706469D01*
X158100Y628467D02*
X158100Y611533D01*
X158100Y711533D02*
X158100Y728467D01*
X1900Y628467D02*
X1900Y611533D01*
X1900Y711533D02*
X1900Y728467D01*
X158100Y728467D01*
X158100Y711533D02*
X1900Y711533D01*
X1900Y628467D02*
X158100Y628467D01*
X158100Y611533D02*
X1900Y611533D01*
X10300Y611533D02*
X10300Y528467D01*
X149700Y528467D02*
X149700Y611533D01*
X125000Y611533D02*
X125000Y528467D01*
X35000Y528467D02*
X35000Y611533D01*
X46667Y570000D02*
X46677Y570818D01*
X46707Y571636D01*
X46757Y572452D01*
X46828Y573267D01*
X46918Y574080D01*
X47028Y574891D01*
X47158Y575699D01*
X47307Y576503D01*
X47477Y577303D01*
X47666Y578099D01*
X47874Y578890D01*
X48102Y579676D01*
X48349Y580456D01*
X48616Y581230D01*
X48901Y581996D01*
X49204Y582756D01*
X49527Y583508D01*
X49867Y584252D01*
X50226Y584987D01*
X50603Y585713D01*
X50997Y586430D01*
X51409Y587137D01*
X51838Y587833D01*
X52285Y588519D01*
X52747Y589193D01*
X53227Y589856D01*
X53722Y590508D01*
X54233Y591146D01*
X54760Y591772D01*
X55302Y592385D01*
X55859Y592984D01*
X56430Y593570D01*
X57016Y594141D01*
X57615Y594698D01*
X58228Y595240D01*
X58854Y595767D01*
X59492Y596278D01*
X60144Y596773D01*
X60807Y597253D01*
X61481Y597715D01*
X62167Y598162D01*
X62863Y598591D01*
X63570Y599003D01*
X64287Y599397D01*
X65013Y599774D01*
X65748Y600133D01*
X66492Y600473D01*
X67244Y600796D01*
X68004Y601099D01*
X68770Y601384D01*
X69544Y601651D01*
X70324Y601898D01*
X71110Y602126D01*
X71901Y602334D01*
X72697Y602523D01*
X73497Y602693D01*
X74301Y602842D01*
X75109Y602972D01*
X75920Y603082D01*
X76733Y603172D01*
X77548Y603243D01*
X78364Y603293D01*
X79182Y603323D01*
X80000Y603333D01*
X80818Y603323D01*
X81636Y603293D01*
X82452Y603243D01*
X83267Y603172D01*
X84080Y603082D01*
X84891Y602972D01*
X85699Y602842D01*
X86503Y602693D01*
X87303Y602523D01*
X88099Y602334D01*
X88890Y602126D01*
X89676Y601898D01*
X90456Y601651D01*
X91230Y601384D01*
X91996Y601099D01*
X92756Y600796D01*
X93508Y600473D01*
X94252Y600133D01*
X94987Y599774D01*
X95713Y599397D01*
X96430Y599003D01*
X97137Y598591D01*
X97833Y598162D01*
X98519Y597715D01*
X99193Y597253D01*
X99856Y596773D01*
X100508Y596278D01*
X101146Y595767D01*
X101772Y595240D01*
X102385Y594698D01*
X102984Y594141D01*
X103570Y593570D01*
X104141Y592984D01*
X104698Y592385D01*
X105240Y591772D01*
X105767Y591146D01*
X106278Y590508D01*
X106773Y589856D01*
X107253Y589193D01*
X107715Y588519D01*
X108162Y587833D01*
X108591Y587137D01*
X109003Y586430D01*
X109397Y585713D01*
X109774Y584987D01*
X110133Y584252D01*
X110473Y583508D01*
X110796Y582756D01*
X111099Y581996D01*
X111384Y581230D01*
X111651Y580456D01*
X111898Y579676D01*
X112126Y578890D01*
X112334Y578099D01*
X112523Y577303D01*
X112693Y576503D01*
X112842Y575699D01*
X112972Y574891D01*
X113082Y574080D01*
X113172Y573267D01*
X113243Y572452D01*
X113293Y571636D01*
X113323Y570818D01*
X113333Y570000D01*
X113323Y569182D01*
X113293Y568364D01*
X113243Y567548D01*
X113172Y566733D01*
X113082Y565920D01*
X112972Y565109D01*
X112842Y564301D01*
X112693Y563497D01*
X112523Y562697D01*
X112334Y561901D01*
X112126Y561110D01*
X111898Y560324D01*
X111651Y559544D01*
X111384Y558770D01*
X111099Y558004D01*
X110796Y557244D01*
X110473Y556492D01*
X110133Y555748D01*
X109774Y555013D01*
X109397Y554287D01*
X109003Y553570D01*
X108591Y552863D01*
X108162Y552167D01*
X107715Y551481D01*
X107253Y550807D01*
X106773Y550144D01*
X106278Y549492D01*
X105767Y548854D01*
X105240Y548228D01*
X104698Y547615D01*
X104141Y547016D01*
X103570Y546430D01*
X102984Y545859D01*
X102385Y545302D01*
X101772Y544760D01*
X101146Y544233D01*
X100508Y543722D01*
X99856Y543227D01*
X99193Y542747D01*
X98519Y542285D01*
X97833Y541838D01*
X97137Y541409D01*
X96430Y540997D01*
X95713Y540603D01*
X94987Y540226D01*
X94252Y539867D01*
X93508Y539527D01*
X92756Y539204D01*
X91996Y538901D01*
X91230Y538616D01*
X90456Y538349D01*
X89676Y538102D01*
X88890Y537874D01*
X88099Y537666D01*
X87303Y537477D01*
X86503Y537307D01*
X85699Y537158D01*
X84891Y537028D01*
X84080Y536918D01*
X83267Y536828D01*
X82452Y536757D01*
X81636Y536707D01*
X80818Y536677D01*
X80000Y536667D01*
X79182Y536677D01*
X78364Y536707D01*
X77548Y536757D01*
X76733Y536828D01*
X75920Y536918D01*
X75109Y537028D01*
X74301Y537158D01*
X73497Y537307D01*
X72697Y537477D01*
X71901Y537666D01*
X71110Y537874D01*
X70324Y538102D01*
X69544Y538349D01*
X68770Y538616D01*
X68004Y538901D01*
X67244Y539204D01*
X66492Y539527D01*
X65748Y539867D01*
X65013Y540226D01*
X64287Y540603D01*
X63570Y540997D01*
X62863Y541409D01*
X62167Y541838D01*
X61481Y542285D01*
X60807Y542747D01*
X60144Y543227D01*
X59492Y543722D01*
X58854Y544233D01*
X58228Y544760D01*
X57615Y545302D01*
X57016Y545859D01*
X56430Y546430D01*
X55859Y547016D01*
X55302Y547615D01*
X54760Y548228D01*
X54233Y548854D01*
X53722Y549492D01*
X53227Y550144D01*
X52747Y550807D01*
X52285Y551481D01*
X51838Y552167D01*
X51409Y552863D01*
X50997Y553570D01*
X50603Y554287D01*
X50226Y555013D01*
X49867Y555748D01*
X49527Y556492D01*
X49204Y557244D01*
X48901Y558004D01*
X48616Y558770D01*
X48349Y559544D01*
X48102Y560324D01*
X47874Y561110D01*
X47666Y561901D01*
X47477Y562697D01*
X47307Y563497D01*
X47158Y564301D01*
X47028Y565109D01*
X46918Y565920D01*
X46828Y566733D01*
X46757Y567548D01*
X46707Y568364D01*
X46677Y569182D01*
X46667Y570000D01*
X90314Y571828D02*
X90245Y571756D01*
X90179Y571682D01*
X90116Y571605D01*
X90057Y571526D01*
X90000Y571445D01*
X89946Y571362D01*
X89896Y571276D01*
X89849Y571189D01*
X89805Y571100D01*
X89764Y571009D01*
X89728Y570917D01*
X89694Y570824D01*
X89665Y570729D01*
X89639Y570634D01*
X89616Y570537D01*
X89598Y570440D01*
X89583Y570342D01*
X89571Y570243D01*
X89564Y570144D01*
X89560Y570045D01*
X89561Y569946D01*
X89565Y569847D01*
X89572Y569748D01*
X89584Y569650D01*
X89599Y569552D01*
X89618Y569454D01*
X89641Y569358D01*
X89667Y569262D01*
X89697Y569168D01*
X89731Y569074D01*
X89768Y568982D01*
X89809Y568892D01*
X89853Y568803D01*
X89900Y568716D01*
X89951Y568631D01*
X90005Y568548D01*
X90062Y568467D01*
X90122Y568388D01*
X90185Y568311D01*
X90251Y568237D01*
X90320Y568166D01*
X94235Y575749D02*
X94342Y575860D01*
X94447Y575973D01*
X94549Y576089D01*
X94648Y576208D01*
X94744Y576329D01*
X94837Y576453D01*
X94927Y576579D01*
X95013Y576707D01*
X95096Y576837D01*
X95175Y576970D01*
X95251Y577104D01*
X95324Y577241D01*
X95393Y577379D01*
X95459Y577519D01*
X95520Y577660D01*
X95579Y577803D01*
X95633Y577948D01*
X95684Y578094D01*
X95731Y578241D01*
X95774Y578389D01*
X95813Y578539D01*
X95849Y578689D01*
X95880Y578840D01*
X95908Y578992D01*
X95932Y579145D01*
X95952Y579298D01*
X95968Y579452D01*
X95980Y579606D01*
X95988Y579760D01*
X95992Y579915D01*
X95992Y580069D01*
X95988Y580224D01*
X95980Y580378D01*
X95968Y580532D01*
X95952Y580686D01*
X95932Y580839D01*
X95908Y580992D01*
X95880Y581144D01*
X95849Y581295D01*
X95813Y581445D01*
X95774Y581595D01*
X95731Y581743D01*
X95684Y581890D01*
X95633Y582036D01*
X95579Y582181D01*
X95520Y582324D01*
X95459Y582465D01*
X95393Y582605D01*
X95324Y582743D01*
X95251Y582880D01*
X95175Y583014D01*
X95096Y583147D01*
X95013Y583277D01*
X94927Y583405D01*
X94837Y583531D01*
X94744Y583655D01*
X94648Y583776D01*
X94549Y583895D01*
X94447Y584011D01*
X94342Y584124D01*
X94235Y584235D01*
X94124Y584342D01*
X94011Y584447D01*
X93895Y584549D01*
X93776Y584648D01*
X93655Y584744D01*
X93531Y584837D01*
X93405Y584927D01*
X93277Y585013D01*
X93147Y585096D01*
X93014Y585175D01*
X92880Y585251D01*
X92743Y585324D01*
X92605Y585393D01*
X92465Y585459D01*
X92324Y585520D01*
X92181Y585579D01*
X92036Y585633D01*
X91890Y585684D01*
X91743Y585731D01*
X91595Y585774D01*
X91445Y585813D01*
X91295Y585849D01*
X91144Y585880D01*
X90992Y585908D01*
X90839Y585932D01*
X90686Y585952D01*
X90532Y585968D01*
X90378Y585980D01*
X90224Y585988D01*
X90069Y585992D01*
X89915Y585992D01*
X89760Y585988D01*
X89606Y585980D01*
X89452Y585968D01*
X89298Y585952D01*
X89145Y585932D01*
X88992Y585908D01*
X88840Y585880D01*
X88689Y585849D01*
X88539Y585813D01*
X88389Y585774D01*
X88241Y585731D01*
X88094Y585684D01*
X87948Y585633D01*
X87803Y585579D01*
X87660Y585520D01*
X87519Y585459D01*
X87379Y585393D01*
X87241Y585324D01*
X87104Y585251D01*
X86970Y585175D01*
X86837Y585096D01*
X86707Y585013D01*
X86579Y584927D01*
X86453Y584837D01*
X86329Y584744D01*
X86208Y584648D01*
X86089Y584549D01*
X85973Y584447D01*
X85860Y584342D01*
X85749Y584235D01*
X81834Y559680D02*
X81763Y559749D01*
X81689Y559815D01*
X81612Y559878D01*
X81533Y559938D01*
X81452Y559995D01*
X81369Y560049D01*
X81284Y560100D01*
X81197Y560147D01*
X81108Y560191D01*
X81018Y560232D01*
X80926Y560269D01*
X80832Y560303D01*
X80738Y560333D01*
X80642Y560359D01*
X80546Y560382D01*
X80448Y560401D01*
X80350Y560416D01*
X80252Y560428D01*
X80153Y560435D01*
X80054Y560439D01*
X79955Y560440D01*
X79856Y560436D01*
X79757Y560429D01*
X79658Y560417D01*
X79560Y560402D01*
X79463Y560384D01*
X79366Y560361D01*
X79271Y560335D01*
X79176Y560306D01*
X79083Y560272D01*
X78991Y560236D01*
X78900Y560195D01*
X78811Y560151D01*
X78724Y560104D01*
X78638Y560054D01*
X78555Y560000D01*
X78474Y559943D01*
X78395Y559884D01*
X78318Y559821D01*
X78244Y559755D01*
X78172Y559686D01*
X74251Y555765D02*
X74140Y555658D01*
X74027Y555553D01*
X73911Y555451D01*
X73792Y555352D01*
X73671Y555256D01*
X73547Y555163D01*
X73421Y555073D01*
X73293Y554987D01*
X73163Y554904D01*
X73030Y554825D01*
X72896Y554749D01*
X72759Y554676D01*
X72621Y554607D01*
X72481Y554541D01*
X72340Y554480D01*
X72197Y554421D01*
X72052Y554367D01*
X71906Y554316D01*
X71759Y554269D01*
X71611Y554226D01*
X71461Y554187D01*
X71311Y554151D01*
X71160Y554120D01*
X71008Y554092D01*
X70855Y554068D01*
X70702Y554048D01*
X70548Y554032D01*
X70394Y554020D01*
X70240Y554012D01*
X70085Y554008D01*
X69931Y554008D01*
X69776Y554012D01*
X69622Y554020D01*
X69468Y554032D01*
X69314Y554048D01*
X69161Y554068D01*
X69008Y554092D01*
X68856Y554120D01*
X68705Y554151D01*
X68555Y554187D01*
X68405Y554226D01*
X68257Y554269D01*
X68110Y554316D01*
X67964Y554367D01*
X67819Y554421D01*
X67676Y554480D01*
X67535Y554541D01*
X67395Y554607D01*
X67257Y554676D01*
X67120Y554749D01*
X66986Y554825D01*
X66853Y554904D01*
X66723Y554987D01*
X66595Y555073D01*
X66469Y555163D01*
X66345Y555256D01*
X66224Y555352D01*
X66105Y555451D01*
X65989Y555553D01*
X65876Y555658D01*
X65765Y555765D01*
X65658Y555876D01*
X65553Y555989D01*
X65451Y556105D01*
X65352Y556224D01*
X65256Y556345D01*
X65163Y556469D01*
X65073Y556595D01*
X64987Y556723D01*
X64904Y556853D01*
X64825Y556986D01*
X64749Y557120D01*
X64676Y557257D01*
X64607Y557395D01*
X64541Y557535D01*
X64480Y557676D01*
X64421Y557819D01*
X64367Y557964D01*
X64316Y558110D01*
X64269Y558257D01*
X64226Y558405D01*
X64187Y558555D01*
X64151Y558705D01*
X64120Y558856D01*
X64092Y559008D01*
X64068Y559161D01*
X64048Y559314D01*
X64032Y559468D01*
X64020Y559622D01*
X64012Y559776D01*
X64008Y559931D01*
X64008Y560085D01*
X64012Y560240D01*
X64020Y560394D01*
X64032Y560548D01*
X64048Y560702D01*
X64068Y560855D01*
X64092Y561008D01*
X64120Y561160D01*
X64151Y561311D01*
X64187Y561461D01*
X64226Y561611D01*
X64269Y561759D01*
X64316Y561906D01*
X64367Y562052D01*
X64421Y562197D01*
X64480Y562340D01*
X64541Y562481D01*
X64607Y562621D01*
X64676Y562759D01*
X64749Y562896D01*
X64825Y563030D01*
X64904Y563163D01*
X64987Y563293D01*
X65073Y563421D01*
X65163Y563547D01*
X65256Y563671D01*
X65352Y563792D01*
X65451Y563911D01*
X65553Y564027D01*
X65657Y564140D01*
X65765Y564251D01*
X78166Y580320D02*
X78237Y580251D01*
X78311Y580185D01*
X78388Y580122D01*
X78467Y580062D01*
X78548Y580005D01*
X78631Y579951D01*
X78716Y579900D01*
X78803Y579853D01*
X78892Y579809D01*
X78982Y579768D01*
X79074Y579731D01*
X79168Y579697D01*
X79262Y579667D01*
X79358Y579641D01*
X79454Y579618D01*
X79552Y579599D01*
X79650Y579584D01*
X79748Y579572D01*
X79847Y579565D01*
X79946Y579561D01*
X80045Y579560D01*
X80144Y579564D01*
X80243Y579571D01*
X80342Y579583D01*
X80440Y579598D01*
X80537Y579616D01*
X80634Y579639D01*
X80729Y579665D01*
X80824Y579694D01*
X80917Y579728D01*
X81009Y579764D01*
X81100Y579805D01*
X81189Y579849D01*
X81276Y579896D01*
X81362Y579946D01*
X81445Y580000D01*
X81526Y580057D01*
X81605Y580116D01*
X81682Y580179D01*
X81756Y580245D01*
X81828Y580314D01*
X69680Y571834D02*
X69749Y571763D01*
X69815Y571689D01*
X69878Y571612D01*
X69938Y571533D01*
X69995Y571452D01*
X70049Y571369D01*
X70100Y571284D01*
X70147Y571197D01*
X70191Y571108D01*
X70232Y571018D01*
X70269Y570926D01*
X70303Y570832D01*
X70333Y570738D01*
X70359Y570642D01*
X70382Y570546D01*
X70401Y570448D01*
X70416Y570350D01*
X70428Y570252D01*
X70435Y570153D01*
X70439Y570054D01*
X70440Y569955D01*
X70436Y569856D01*
X70429Y569757D01*
X70417Y569658D01*
X70402Y569560D01*
X70384Y569463D01*
X70361Y569366D01*
X70335Y569271D01*
X70306Y569176D01*
X70272Y569083D01*
X70236Y568990D01*
X70195Y568900D01*
X70151Y568811D01*
X70104Y568724D01*
X70054Y568638D01*
X70000Y568555D01*
X69943Y568474D01*
X69884Y568395D01*
X69821Y568318D01*
X69755Y568244D01*
X69686Y568172D01*
X85749Y555765D02*
X85860Y555658D01*
X85973Y555553D01*
X86089Y555451D01*
X86208Y555352D01*
X86329Y555256D01*
X86453Y555163D01*
X86579Y555073D01*
X86707Y554987D01*
X86837Y554904D01*
X86970Y554825D01*
X87104Y554749D01*
X87241Y554676D01*
X87379Y554607D01*
X87519Y554541D01*
X87660Y554480D01*
X87803Y554421D01*
X87948Y554367D01*
X88094Y554316D01*
X88241Y554269D01*
X88389Y554226D01*
X88539Y554187D01*
X88689Y554151D01*
X88840Y554120D01*
X88992Y554092D01*
X89145Y554068D01*
X89298Y554048D01*
X89452Y554032D01*
X89606Y554020D01*
X89760Y554012D01*
X89915Y554008D01*
X90069Y554008D01*
X90224Y554012D01*
X90378Y554020D01*
X90532Y554032D01*
X90686Y554048D01*
X90839Y554068D01*
X90992Y554092D01*
X91144Y554120D01*
X91295Y554151D01*
X91445Y554187D01*
X91595Y554226D01*
X91743Y554269D01*
X91890Y554316D01*
X92036Y554367D01*
X92181Y554421D01*
X92324Y554480D01*
X92465Y554541D01*
X92605Y554607D01*
X92743Y554676D01*
X92880Y554749D01*
X93014Y554825D01*
X93147Y554904D01*
X93277Y554987D01*
X93405Y555073D01*
X93531Y555163D01*
X93655Y555256D01*
X93776Y555352D01*
X93895Y555451D01*
X94011Y555553D01*
X94124Y555658D01*
X94235Y555765D01*
X94342Y555876D01*
X94447Y555989D01*
X94549Y556105D01*
X94648Y556224D01*
X94744Y556345D01*
X94837Y556469D01*
X94927Y556595D01*
X95013Y556723D01*
X95096Y556853D01*
X95175Y556986D01*
X95251Y557120D01*
X95324Y557257D01*
X95393Y557395D01*
X95459Y557535D01*
X95520Y557676D01*
X95579Y557819D01*
X95633Y557964D01*
X95684Y558110D01*
X95731Y558257D01*
X95774Y558405D01*
X95813Y558555D01*
X95849Y558705D01*
X95880Y558856D01*
X95908Y559008D01*
X95932Y559161D01*
X95952Y559314D01*
X95968Y559468D01*
X95980Y559622D01*
X95988Y559776D01*
X95992Y559931D01*
X95992Y560085D01*
X95988Y560240D01*
X95980Y560394D01*
X95968Y560548D01*
X95952Y560702D01*
X95932Y560855D01*
X95908Y561008D01*
X95880Y561160D01*
X95849Y561311D01*
X95813Y561461D01*
X95774Y561611D01*
X95731Y561759D01*
X95684Y561906D01*
X95633Y562052D01*
X95579Y562197D01*
X95520Y562340D01*
X95459Y562481D01*
X95393Y562621D01*
X95324Y562759D01*
X95251Y562896D01*
X95175Y563030D01*
X95096Y563163D01*
X95013Y563293D01*
X94927Y563421D01*
X94837Y563547D01*
X94744Y563671D01*
X94648Y563792D01*
X94549Y563911D01*
X94447Y564027D01*
X94342Y564140D01*
X94235Y564251D01*
X74251Y584235D02*
X74141Y584342D01*
X74028Y584446D01*
X73913Y584547D01*
X73796Y584645D01*
X73676Y584740D01*
X73553Y584833D01*
X73429Y584922D01*
X73301Y585007D01*
X73172Y585090D01*
X73041Y585169D01*
X72908Y585245D01*
X72773Y585317D01*
X72636Y585386D01*
X72497Y585451D01*
X72357Y585513D01*
X72215Y585571D01*
X72072Y585626D01*
X71928Y585677D01*
X71782Y585724D01*
X71635Y585767D01*
X71487Y585807D01*
X71338Y585843D01*
X71188Y585875D01*
X71037Y585903D01*
X70886Y585927D01*
X70734Y585948D01*
X70582Y585964D01*
X70429Y585977D01*
X70276Y585986D01*
X70123Y585991D01*
X69970Y585992D01*
X69816Y585989D01*
X69663Y585982D01*
X69511Y585971D01*
X69358Y585957D01*
X69206Y585938D01*
X69054Y585916D01*
X68903Y585889D01*
X68753Y585859D01*
X68604Y585825D01*
X68455Y585788D01*
X68308Y585746D01*
X68161Y585701D01*
X68016Y585652D01*
X67872Y585599D01*
X67730Y585543D01*
X67589Y585483D01*
X67449Y585419D01*
X67311Y585352D01*
X67175Y585281D01*
X67041Y585207D01*
X66909Y585130D01*
X66779Y585049D01*
X66651Y584965D01*
X66525Y584877D01*
X66401Y584787D01*
X66280Y584693D01*
X66161Y584596D01*
X66045Y584497D01*
X65931Y584394D01*
X65820Y584288D01*
X65712Y584180D01*
X65606Y584069D01*
X65503Y583955D01*
X65404Y583839D01*
X65307Y583720D01*
X65213Y583599D01*
X65123Y583475D01*
X65035Y583349D01*
X64951Y583221D01*
X64870Y583091D01*
X64793Y582959D01*
X64719Y582825D01*
X64648Y582689D01*
X64581Y582551D01*
X64517Y582411D01*
X64457Y582270D01*
X64401Y582128D01*
X64348Y581984D01*
X64299Y581839D01*
X64254Y581692D01*
X64212Y581545D01*
X64175Y581396D01*
X64141Y581247D01*
X64111Y581097D01*
X64084Y580946D01*
X64062Y580794D01*
X64043Y580642D01*
X64029Y580489D01*
X64018Y580337D01*
X64011Y580184D01*
X64008Y580030D01*
X64009Y579877D01*
X64014Y579724D01*
X64023Y579571D01*
X64036Y579418D01*
X64052Y579266D01*
X64073Y579114D01*
X64097Y578963D01*
X64125Y578812D01*
X64157Y578662D01*
X64193Y578513D01*
X64233Y578365D01*
X64276Y578218D01*
X64323Y578072D01*
X64374Y577928D01*
X64429Y577785D01*
X64487Y577643D01*
X64549Y577503D01*
X64614Y577364D01*
X64683Y577227D01*
X64755Y577092D01*
X64831Y576959D01*
X64910Y576828D01*
X64993Y576699D01*
X65078Y576571D01*
X65167Y576447D01*
X65260Y576324D01*
X65355Y576204D01*
X65453Y576087D01*
X65554Y575972D01*
X65658Y575859D01*
X65765Y575749D01*
X74251Y584235D02*
X78166Y580320D01*
X81828Y580314D02*
X85749Y584235D01*
X94235Y575749D02*
X90314Y571828D01*
X90320Y568166D02*
X94235Y564251D01*
X85749Y555766D02*
X81835Y559680D01*
X78172Y559686D02*
X74251Y555766D01*
X65766Y564251D02*
X69679Y568165D01*
X69680Y571835D02*
X65766Y575749D01*
X77520Y546822D02*
X77522Y546921D01*
X77528Y547020D01*
X77538Y547119D01*
X77552Y547217D01*
X77569Y547315D01*
X77591Y547412D01*
X77617Y547508D01*
X77646Y547603D01*
X77679Y547696D01*
X77716Y547788D01*
X77756Y547879D01*
X77801Y547968D01*
X77848Y548055D01*
X77899Y548140D01*
X77954Y548223D01*
X78011Y548304D01*
X78072Y548382D01*
X78136Y548458D01*
X78203Y548531D01*
X78273Y548602D01*
X78345Y548669D01*
X78421Y548734D01*
X78498Y548796D01*
X78579Y548854D01*
X78661Y548910D01*
X78746Y548961D01*
X78832Y549010D01*
X78921Y549055D01*
X79011Y549096D01*
X79103Y549134D01*
X79196Y549168D01*
X79290Y549198D01*
X79386Y549225D01*
X79483Y549247D01*
X79580Y549266D01*
X79678Y549281D01*
X79777Y549292D01*
X79876Y549299D01*
X79975Y549302D01*
X80074Y549301D01*
X80174Y549296D01*
X80272Y549287D01*
X80371Y549274D01*
X80469Y549257D01*
X80566Y549237D01*
X80662Y549212D01*
X80757Y549184D01*
X80851Y549151D01*
X80943Y549116D01*
X81034Y549076D01*
X81124Y549033D01*
X81211Y548986D01*
X81297Y548936D01*
X81380Y548882D01*
X81462Y548825D01*
X81541Y548765D01*
X81617Y548702D01*
X81691Y548636D01*
X81762Y548567D01*
X81831Y548495D01*
X81896Y548420D01*
X81959Y548343D01*
X82018Y548264D01*
X82074Y548182D01*
X82127Y548098D01*
X82176Y548012D01*
X82222Y547924D01*
X82264Y547834D01*
X82303Y547742D01*
X82338Y547649D01*
X82369Y547555D01*
X82397Y547460D01*
X82420Y547363D01*
X82440Y547266D01*
X82456Y547168D01*
X82468Y547070D01*
X82476Y546971D01*
X82480Y546872D01*
X82480Y546772D01*
X82476Y546673D01*
X82468Y546574D01*
X82456Y546476D01*
X82440Y546378D01*
X82420Y546281D01*
X82397Y546184D01*
X82369Y546089D01*
X82338Y545995D01*
X82303Y545902D01*
X82264Y545810D01*
X82222Y545720D01*
X82176Y545632D01*
X82127Y545546D01*
X82074Y545462D01*
X82018Y545380D01*
X81959Y545301D01*
X81896Y545224D01*
X81831Y545149D01*
X81762Y545077D01*
X81691Y545008D01*
X81617Y544942D01*
X81541Y544879D01*
X81462Y544819D01*
X81380Y544762D01*
X81297Y544708D01*
X81211Y544658D01*
X81124Y544611D01*
X81034Y544568D01*
X80943Y544528D01*
X80851Y544493D01*
X80757Y544460D01*
X80662Y544432D01*
X80566Y544407D01*
X80469Y544387D01*
X80371Y544370D01*
X80272Y544357D01*
X80174Y544348D01*
X80074Y544343D01*
X79975Y544342D01*
X79876Y544345D01*
X79777Y544352D01*
X79678Y544363D01*
X79580Y544378D01*
X79483Y544397D01*
X79386Y544419D01*
X79290Y544446D01*
X79196Y544476D01*
X79103Y544510D01*
X79011Y544548D01*
X78921Y544589D01*
X78832Y544634D01*
X78746Y544683D01*
X78661Y544734D01*
X78579Y544790D01*
X78498Y544848D01*
X78421Y544910D01*
X78345Y544975D01*
X78273Y545042D01*
X78203Y545113D01*
X78136Y545186D01*
X78072Y545262D01*
X78011Y545340D01*
X77954Y545421D01*
X77899Y545504D01*
X77848Y545589D01*
X77801Y545676D01*
X77756Y545765D01*
X77716Y545856D01*
X77679Y545948D01*
X77646Y546041D01*
X77617Y546136D01*
X77591Y546232D01*
X77569Y546329D01*
X77552Y546427D01*
X77538Y546525D01*
X77528Y546624D01*
X77522Y546723D01*
X77520Y546822D01*
X38624Y533531D02*
X43531Y611376D01*
X121376Y606469D01*
X116469Y528624D02*
X38624Y533531D01*
X116469Y528624D02*
X121376Y606469D01*
X158100Y528467D02*
X158100Y511533D01*
X1900Y511533D02*
X1900Y528467D01*
X158100Y528467D01*
X158100Y511533D02*
X1900Y511533D01*
D14*
X168062Y689921D02*
X184318Y679083D01*
X184318Y689921D02*
X168062Y679083D01*
X184318Y700515D02*
X184316Y700633D01*
X184310Y700751D01*
X184301Y700869D01*
X184287Y700986D01*
X184270Y701103D01*
X184249Y701220D01*
X184224Y701335D01*
X184195Y701450D01*
X184162Y701564D01*
X184126Y701676D01*
X184086Y701787D01*
X184043Y701897D01*
X183996Y702006D01*
X183946Y702113D01*
X183891Y702218D01*
X183834Y702321D01*
X183773Y702422D01*
X183709Y702522D01*
X183642Y702619D01*
X183572Y702714D01*
X183498Y702806D01*
X183422Y702897D01*
X183342Y702984D01*
X183260Y703069D01*
X183175Y703151D01*
X183088Y703231D01*
X182997Y703307D01*
X182905Y703381D01*
X182810Y703451D01*
X182713Y703518D01*
X182613Y703582D01*
X182512Y703643D01*
X182409Y703700D01*
X182304Y703755D01*
X182197Y703805D01*
X182088Y703852D01*
X181978Y703895D01*
X181867Y703935D01*
X181755Y703971D01*
X181641Y704004D01*
X181526Y704033D01*
X181411Y704058D01*
X181294Y704079D01*
X181177Y704096D01*
X181060Y704110D01*
X180942Y704119D01*
X180824Y704125D01*
X180706Y704127D01*
X184318Y700515D02*
X184316Y700332D01*
X184309Y700150D01*
X184298Y699968D01*
X184283Y699786D01*
X184263Y699604D01*
X184240Y699423D01*
X184211Y699243D01*
X184179Y699063D01*
X184142Y698884D01*
X184101Y698707D01*
X184055Y698530D01*
X184006Y698354D01*
X183952Y698180D01*
X183894Y698006D01*
X183832Y697835D01*
X183766Y697665D01*
X183695Y697496D01*
X183621Y697329D01*
X183543Y697164D01*
X183461Y697001D01*
X183375Y696840D01*
X183285Y696681D01*
X183191Y696524D01*
X183094Y696370D01*
X182993Y696218D01*
X182888Y696068D01*
X182780Y695921D01*
X182669Y695777D01*
X182554Y695635D01*
X182435Y695496D01*
X182313Y695360D01*
X182188Y695227D01*
X182060Y695097D01*
X171674Y695549D02*
X171556Y695551D01*
X171438Y695557D01*
X171320Y695566D01*
X171203Y695580D01*
X171086Y695597D01*
X170969Y695618D01*
X170854Y695643D01*
X170739Y695672D01*
X170625Y695705D01*
X170513Y695741D01*
X170402Y695781D01*
X170292Y695824D01*
X170183Y695871D01*
X170076Y695921D01*
X169971Y695976D01*
X169868Y696033D01*
X169767Y696094D01*
X169667Y696158D01*
X169570Y696225D01*
X169475Y696295D01*
X169383Y696369D01*
X169292Y696445D01*
X169205Y696525D01*
X169120Y696607D01*
X169038Y696692D01*
X168958Y696779D01*
X168882Y696870D01*
X168808Y696962D01*
X168738Y697057D01*
X168671Y697154D01*
X168607Y697254D01*
X168546Y697355D01*
X168489Y697458D01*
X168434Y697563D01*
X168384Y697670D01*
X168337Y697779D01*
X168294Y697889D01*
X168254Y698000D01*
X168218Y698112D01*
X168185Y698226D01*
X168156Y698341D01*
X168131Y698456D01*
X168110Y698573D01*
X168093Y698690D01*
X168079Y698807D01*
X168070Y698925D01*
X168064Y699043D01*
X168062Y699161D01*
X168064Y699322D01*
X168070Y699484D01*
X168079Y699645D01*
X168093Y699806D01*
X168110Y699966D01*
X168131Y700126D01*
X168156Y700286D01*
X168185Y700445D01*
X168217Y700603D01*
X168253Y700760D01*
X168293Y700916D01*
X168337Y701072D01*
X168385Y701226D01*
X168436Y701379D01*
X168490Y701531D01*
X168549Y701682D01*
X168610Y701831D01*
X168676Y701978D01*
X168745Y702124D01*
X168817Y702269D01*
X168893Y702411D01*
X168972Y702552D01*
X169054Y702691D01*
X169140Y702827D01*
X169229Y702962D01*
X169321Y703095D01*
X169417Y703225D01*
X174835Y697354D02*
X174773Y697253D01*
X174708Y697153D01*
X174639Y697056D01*
X174567Y696961D01*
X174493Y696868D01*
X174415Y696778D01*
X174334Y696690D01*
X174251Y696605D01*
X174165Y696523D01*
X174076Y696444D01*
X173985Y696367D01*
X173891Y696294D01*
X173795Y696223D01*
X173697Y696156D01*
X173597Y696092D01*
X173494Y696031D01*
X173390Y695974D01*
X173284Y695920D01*
X173176Y695870D01*
X173067Y695823D01*
X172956Y695779D01*
X172844Y695739D01*
X172730Y695703D01*
X172616Y695671D01*
X172500Y695642D01*
X172384Y695617D01*
X172267Y695596D01*
X172149Y695579D01*
X172031Y695565D01*
X171912Y695556D01*
X171793Y695550D01*
X171674Y695548D01*
X177545Y702322D02*
X177607Y702423D01*
X177672Y702523D01*
X177741Y702620D01*
X177813Y702715D01*
X177887Y702808D01*
X177965Y702898D01*
X178046Y702986D01*
X178129Y703071D01*
X178215Y703153D01*
X178304Y703232D01*
X178395Y703309D01*
X178489Y703382D01*
X178585Y703453D01*
X178683Y703520D01*
X178783Y703584D01*
X178886Y703645D01*
X178990Y703702D01*
X179096Y703756D01*
X179204Y703806D01*
X179313Y703853D01*
X179424Y703897D01*
X179536Y703937D01*
X179650Y703973D01*
X179764Y704005D01*
X179880Y704034D01*
X179996Y704059D01*
X180113Y704080D01*
X180231Y704097D01*
X180349Y704111D01*
X180468Y704120D01*
X180587Y704126D01*
X180706Y704128D01*
X177545Y702322D02*
X174835Y697354D01*
X171674Y710207D02*
X168062Y714722D01*
X184318Y714722D01*
X184318Y710207D02*
X184318Y719238D01*
D15*
X41200Y482574D02*
X41200Y468962D01*
X41202Y468819D01*
X41208Y468676D01*
X41218Y468533D01*
X41231Y468391D01*
X41249Y468249D01*
X41270Y468108D01*
X41295Y467967D01*
X41325Y467827D01*
X41357Y467688D01*
X41394Y467549D01*
X41435Y467412D01*
X41479Y467276D01*
X41527Y467141D01*
X41578Y467008D01*
X41633Y466876D01*
X41692Y466746D01*
X41755Y466617D01*
X41820Y466490D01*
X41890Y466365D01*
X41962Y466241D01*
X42038Y466120D01*
X42118Y466001D01*
X42200Y465884D01*
X42286Y465770D01*
X42374Y465658D01*
X42466Y465548D01*
X42561Y465441D01*
X42659Y465336D01*
X42759Y465234D01*
X42862Y465135D01*
X42968Y465039D01*
X43076Y464946D01*
X43187Y464856D01*
X43301Y464768D01*
X43417Y464684D01*
X43534Y464603D01*
X43655Y464526D01*
X43777Y464452D01*
X43901Y464381D01*
X44027Y464313D01*
X44155Y464249D01*
X44285Y464188D01*
X44416Y464131D01*
X44548Y464078D01*
X44683Y464028D01*
X44818Y463982D01*
X44955Y463940D01*
X45092Y463901D01*
X45231Y463867D01*
X45371Y463836D01*
X45511Y463808D01*
X45652Y463785D01*
X45794Y463766D01*
X45936Y463750D01*
X46079Y463738D01*
X46222Y463730D01*
X46364Y463726D01*
X46508Y463726D01*
X46650Y463730D01*
X46793Y463738D01*
X46936Y463750D01*
X47078Y463766D01*
X47220Y463785D01*
X47361Y463808D01*
X47501Y463836D01*
X47641Y463867D01*
X47780Y463901D01*
X47917Y463940D01*
X48054Y463982D01*
X48189Y464028D01*
X48324Y464078D01*
X48456Y464131D01*
X48587Y464188D01*
X48717Y464249D01*
X48845Y464313D01*
X48971Y464381D01*
X49095Y464452D01*
X49217Y464526D01*
X49338Y464603D01*
X49455Y464684D01*
X49571Y464768D01*
X49685Y464856D01*
X49796Y464946D01*
X49904Y465039D01*
X50010Y465135D01*
X50113Y465234D01*
X50213Y465336D01*
X50311Y465441D01*
X50406Y465548D01*
X50498Y465658D01*
X50586Y465770D01*
X50672Y465884D01*
X50754Y466001D01*
X50834Y466120D01*
X50910Y466241D01*
X50982Y466365D01*
X51052Y466490D01*
X51117Y466617D01*
X51180Y466746D01*
X51239Y466876D01*
X51294Y467008D01*
X51345Y467141D01*
X51393Y467276D01*
X51437Y467412D01*
X51478Y467549D01*
X51515Y467688D01*
X51547Y467827D01*
X51577Y467967D01*
X51602Y468108D01*
X51623Y468249D01*
X51641Y468391D01*
X51654Y468533D01*
X51664Y468676D01*
X51670Y468819D01*
X51672Y468962D01*
X51671Y468962D02*
X51671Y482574D01*
X59667Y478386D02*
X64903Y482574D01*
X64903Y463726D01*
X70138Y463726D02*
X59667Y463726D01*
X133810Y324890D02*
X157940Y324890D01*
X133810Y324890D02*
X105870Y324890D01*
X105870Y307110D01*
X133810Y307110D01*
X157940Y307110D01*
X157940Y324890D01*
X133810Y324890D02*
X133810Y307110D01*
D16*
X155750Y316000D03*
D14*
X109837Y296462D02*
X108370Y296462D01*
X108296Y296464D01*
X108221Y296470D01*
X108148Y296479D01*
X108074Y296492D01*
X108002Y296509D01*
X107931Y296529D01*
X107860Y296553D01*
X107791Y296581D01*
X107724Y296612D01*
X107658Y296646D01*
X107593Y296684D01*
X107531Y296725D01*
X107471Y296769D01*
X107414Y296816D01*
X107359Y296866D01*
X107306Y296919D01*
X107256Y296974D01*
X107209Y297031D01*
X107165Y297091D01*
X107124Y297153D01*
X107086Y297218D01*
X107052Y297284D01*
X107021Y297351D01*
X106993Y297420D01*
X106969Y297491D01*
X106949Y297562D01*
X106932Y297634D01*
X106919Y297708D01*
X106910Y297781D01*
X106904Y297856D01*
X106902Y297930D01*
X106902Y301598D01*
X106904Y301672D01*
X106910Y301747D01*
X106919Y301820D01*
X106932Y301894D01*
X106949Y301966D01*
X106969Y302037D01*
X106993Y302108D01*
X107021Y302177D01*
X107052Y302244D01*
X107086Y302310D01*
X107124Y302375D01*
X107165Y302437D01*
X107209Y302497D01*
X107256Y302554D01*
X107306Y302609D01*
X107359Y302662D01*
X107414Y302712D01*
X107471Y302759D01*
X107531Y302803D01*
X107593Y302844D01*
X107658Y302882D01*
X107723Y302916D01*
X107791Y302947D01*
X107860Y302975D01*
X107931Y302999D01*
X108002Y303019D01*
X108074Y303036D01*
X108148Y303049D01*
X108221Y303058D01*
X108296Y303064D01*
X108370Y303066D01*
X109837Y303066D01*
X113034Y301598D02*
X114868Y303066D01*
X114868Y296462D01*
X113034Y296462D02*
X116702Y296462D01*
D15*
X58570Y335108D02*
X58570Y384892D01*
X81430Y384892D01*
X81430Y335108D01*
X58570Y335108D01*
D14*
X63998Y389370D02*
X63998Y390837D01*
X63998Y389370D02*
X63996Y389296D01*
X63990Y389221D01*
X63981Y389148D01*
X63968Y389074D01*
X63951Y389002D01*
X63931Y388931D01*
X63907Y388860D01*
X63879Y388791D01*
X63848Y388724D01*
X63814Y388658D01*
X63776Y388593D01*
X63735Y388531D01*
X63691Y388471D01*
X63644Y388414D01*
X63594Y388359D01*
X63541Y388306D01*
X63486Y388256D01*
X63429Y388209D01*
X63369Y388165D01*
X63307Y388124D01*
X63242Y388086D01*
X63177Y388052D01*
X63109Y388021D01*
X63040Y387993D01*
X62969Y387969D01*
X62898Y387949D01*
X62826Y387932D01*
X62752Y387919D01*
X62679Y387910D01*
X62604Y387904D01*
X62530Y387902D01*
X58862Y387902D01*
X58788Y387904D01*
X58713Y387910D01*
X58640Y387919D01*
X58566Y387932D01*
X58494Y387949D01*
X58423Y387969D01*
X58352Y387993D01*
X58283Y388021D01*
X58216Y388052D01*
X58150Y388086D01*
X58085Y388124D01*
X58023Y388165D01*
X57963Y388209D01*
X57906Y388256D01*
X57851Y388306D01*
X57798Y388359D01*
X57748Y388414D01*
X57701Y388471D01*
X57657Y388531D01*
X57616Y388593D01*
X57578Y388658D01*
X57544Y388723D01*
X57513Y388791D01*
X57485Y388860D01*
X57461Y388931D01*
X57441Y389002D01*
X57424Y389074D01*
X57411Y389148D01*
X57402Y389221D01*
X57396Y389296D01*
X57394Y389370D01*
X57394Y390837D01*
X57394Y396051D02*
X57396Y396130D01*
X57401Y396208D01*
X57411Y396286D01*
X57424Y396363D01*
X57441Y396440D01*
X57461Y396516D01*
X57485Y396591D01*
X57512Y396665D01*
X57543Y396737D01*
X57578Y396808D01*
X57615Y396877D01*
X57656Y396944D01*
X57700Y397009D01*
X57747Y397072D01*
X57797Y397132D01*
X57850Y397190D01*
X57906Y397246D01*
X57964Y397299D01*
X58024Y397349D01*
X58087Y397396D01*
X58152Y397440D01*
X58220Y397481D01*
X58288Y397518D01*
X58359Y397553D01*
X58431Y397584D01*
X58505Y397611D01*
X58580Y397635D01*
X58656Y397655D01*
X58733Y397672D01*
X58810Y397685D01*
X58888Y397695D01*
X58966Y397700D01*
X59045Y397702D01*
X57394Y396051D02*
X57396Y395962D01*
X57401Y395873D01*
X57411Y395785D01*
X57424Y395697D01*
X57440Y395610D01*
X57461Y395523D01*
X57485Y395438D01*
X57512Y395353D01*
X57543Y395270D01*
X57578Y395188D01*
X57616Y395107D01*
X57657Y395028D01*
X57701Y394952D01*
X57749Y394876D01*
X57800Y394803D01*
X57853Y394733D01*
X57910Y394664D01*
X57970Y394598D01*
X58032Y394535D01*
X58097Y394474D01*
X58164Y394416D01*
X58234Y394361D01*
X58306Y394308D01*
X58380Y394259D01*
X58456Y394213D01*
X58534Y394171D01*
X58614Y394131D01*
X58695Y394095D01*
X58778Y394062D01*
X58862Y394033D01*
X60329Y397152D02*
X60273Y397208D01*
X60214Y397262D01*
X60153Y397313D01*
X60089Y397362D01*
X60024Y397407D01*
X59956Y397450D01*
X59887Y397489D01*
X59816Y397526D01*
X59743Y397559D01*
X59669Y397588D01*
X59594Y397615D01*
X59518Y397638D01*
X59440Y397657D01*
X59362Y397673D01*
X59284Y397686D01*
X59204Y397695D01*
X59125Y397700D01*
X59045Y397702D01*
X60329Y397152D02*
X63998Y394034D01*
X63998Y397702D01*
D15*
X36200Y282574D02*
X36200Y268962D01*
X36202Y268819D01*
X36208Y268676D01*
X36218Y268533D01*
X36231Y268391D01*
X36249Y268249D01*
X36270Y268108D01*
X36295Y267967D01*
X36325Y267827D01*
X36357Y267688D01*
X36394Y267549D01*
X36435Y267412D01*
X36479Y267276D01*
X36527Y267141D01*
X36578Y267008D01*
X36633Y266876D01*
X36692Y266746D01*
X36755Y266617D01*
X36820Y266490D01*
X36890Y266365D01*
X36962Y266241D01*
X37038Y266120D01*
X37118Y266001D01*
X37200Y265884D01*
X37286Y265770D01*
X37374Y265658D01*
X37466Y265548D01*
X37561Y265441D01*
X37659Y265336D01*
X37759Y265234D01*
X37862Y265135D01*
X37968Y265039D01*
X38076Y264946D01*
X38187Y264856D01*
X38301Y264768D01*
X38417Y264684D01*
X38534Y264603D01*
X38655Y264526D01*
X38777Y264452D01*
X38901Y264381D01*
X39027Y264313D01*
X39155Y264249D01*
X39285Y264188D01*
X39416Y264131D01*
X39548Y264078D01*
X39683Y264028D01*
X39818Y263982D01*
X39955Y263940D01*
X40092Y263901D01*
X40231Y263867D01*
X40371Y263836D01*
X40511Y263808D01*
X40652Y263785D01*
X40794Y263766D01*
X40936Y263750D01*
X41079Y263738D01*
X41222Y263730D01*
X41364Y263726D01*
X41508Y263726D01*
X41650Y263730D01*
X41793Y263738D01*
X41936Y263750D01*
X42078Y263766D01*
X42220Y263785D01*
X42361Y263808D01*
X42501Y263836D01*
X42641Y263867D01*
X42780Y263901D01*
X42917Y263940D01*
X43054Y263982D01*
X43189Y264028D01*
X43324Y264078D01*
X43456Y264131D01*
X43587Y264188D01*
X43717Y264249D01*
X43845Y264313D01*
X43971Y264381D01*
X44095Y264452D01*
X44217Y264526D01*
X44338Y264603D01*
X44455Y264684D01*
X44571Y264768D01*
X44685Y264856D01*
X44796Y264946D01*
X44904Y265039D01*
X45010Y265135D01*
X45113Y265234D01*
X45213Y265336D01*
X45311Y265441D01*
X45406Y265548D01*
X45498Y265658D01*
X45586Y265770D01*
X45672Y265884D01*
X45754Y266001D01*
X45834Y266120D01*
X45910Y266241D01*
X45982Y266365D01*
X46052Y266490D01*
X46117Y266617D01*
X46180Y266746D01*
X46239Y266876D01*
X46294Y267008D01*
X46345Y267141D01*
X46393Y267276D01*
X46437Y267412D01*
X46478Y267549D01*
X46515Y267688D01*
X46547Y267827D01*
X46577Y267967D01*
X46602Y268108D01*
X46623Y268249D01*
X46641Y268391D01*
X46654Y268533D01*
X46664Y268676D01*
X46670Y268819D01*
X46672Y268962D01*
X46671Y268962D02*
X46671Y282574D01*
X60426Y282574D02*
X60563Y282572D01*
X60700Y282566D01*
X60837Y282556D01*
X60973Y282542D01*
X61109Y282524D01*
X61244Y282502D01*
X61379Y282477D01*
X61513Y282447D01*
X61646Y282413D01*
X61777Y282376D01*
X61908Y282335D01*
X62038Y282290D01*
X62166Y282241D01*
X62292Y282189D01*
X62417Y282133D01*
X62541Y282073D01*
X62662Y282009D01*
X62782Y281943D01*
X62900Y281872D01*
X63015Y281799D01*
X63129Y281722D01*
X63240Y281642D01*
X63349Y281558D01*
X63455Y281472D01*
X63559Y281382D01*
X63660Y281289D01*
X63758Y281194D01*
X63853Y281096D01*
X63946Y280994D01*
X64036Y280891D01*
X64122Y280785D01*
X64206Y280676D01*
X64286Y280565D01*
X64363Y280451D01*
X64436Y280336D01*
X64507Y280218D01*
X64574Y280098D01*
X64637Y279977D01*
X64697Y279853D01*
X64753Y279728D01*
X64805Y279602D01*
X64854Y279474D01*
X64899Y279344D01*
X64940Y279213D01*
X64977Y279082D01*
X65011Y278949D01*
X65041Y278815D01*
X65066Y278680D01*
X65088Y278545D01*
X65106Y278409D01*
X65120Y278273D01*
X65130Y278136D01*
X65136Y277999D01*
X65138Y277862D01*
X60426Y282575D02*
X60274Y282573D01*
X60122Y282567D01*
X59970Y282558D01*
X59818Y282544D01*
X59667Y282527D01*
X59516Y282506D01*
X59366Y282481D01*
X59216Y282453D01*
X59067Y282421D01*
X58919Y282385D01*
X58772Y282345D01*
X58626Y282301D01*
X58482Y282254D01*
X58338Y282204D01*
X58196Y282149D01*
X58055Y282091D01*
X57916Y282030D01*
X57778Y281965D01*
X57642Y281897D01*
X57507Y281825D01*
X57375Y281750D01*
X57244Y281672D01*
X57116Y281590D01*
X56989Y281505D01*
X56865Y281417D01*
X56743Y281326D01*
X56624Y281232D01*
X56506Y281135D01*
X56391Y281035D01*
X56279Y280932D01*
X56170Y280826D01*
X56063Y280718D01*
X55959Y280607D01*
X55857Y280493D01*
X55759Y280377D01*
X55663Y280258D01*
X55571Y280137D01*
X55481Y280014D01*
X55395Y279889D01*
X55312Y279761D01*
X55232Y279631D01*
X55155Y279500D01*
X55082Y279366D01*
X55012Y279231D01*
X54946Y279094D01*
X54883Y278955D01*
X54823Y278815D01*
X54768Y278673D01*
X54715Y278530D01*
X54666Y278386D01*
X63567Y274197D02*
X63668Y274296D01*
X63767Y274398D01*
X63862Y274502D01*
X63954Y274609D01*
X64043Y274719D01*
X64130Y274831D01*
X64213Y274945D01*
X64293Y275061D01*
X64369Y275180D01*
X64442Y275301D01*
X64512Y275424D01*
X64578Y275549D01*
X64641Y275675D01*
X64701Y275804D01*
X64756Y275934D01*
X64808Y276065D01*
X64857Y276198D01*
X64901Y276332D01*
X64942Y276467D01*
X64979Y276603D01*
X65012Y276741D01*
X65042Y276879D01*
X65067Y277018D01*
X65089Y277158D01*
X65106Y277298D01*
X65120Y277439D01*
X65130Y277580D01*
X65136Y277721D01*
X65138Y277862D01*
X63567Y274197D02*
X54667Y263726D01*
X65138Y263726D01*
X133810Y118890D02*
X157940Y118890D01*
X133810Y118890D02*
X105870Y118890D01*
X105870Y101110D01*
X133810Y101110D01*
X157940Y101110D01*
X157940Y118890D01*
X133810Y118890D02*
X133810Y101110D01*
D16*
X155750Y110000D03*
D14*
X110837Y123462D02*
X109370Y123462D01*
X109296Y123464D01*
X109221Y123470D01*
X109148Y123479D01*
X109074Y123492D01*
X109002Y123509D01*
X108931Y123529D01*
X108860Y123553D01*
X108791Y123581D01*
X108724Y123612D01*
X108658Y123646D01*
X108593Y123684D01*
X108531Y123725D01*
X108471Y123769D01*
X108414Y123816D01*
X108359Y123866D01*
X108306Y123919D01*
X108256Y123974D01*
X108209Y124031D01*
X108165Y124091D01*
X108124Y124153D01*
X108086Y124218D01*
X108052Y124284D01*
X108021Y124351D01*
X107993Y124420D01*
X107969Y124491D01*
X107949Y124562D01*
X107932Y124634D01*
X107919Y124708D01*
X107910Y124781D01*
X107904Y124856D01*
X107902Y124930D01*
X107902Y128598D01*
X107904Y128672D01*
X107910Y128747D01*
X107919Y128820D01*
X107932Y128894D01*
X107949Y128966D01*
X107969Y129037D01*
X107993Y129108D01*
X108021Y129177D01*
X108052Y129244D01*
X108086Y129310D01*
X108124Y129375D01*
X108165Y129437D01*
X108209Y129497D01*
X108256Y129554D01*
X108306Y129609D01*
X108359Y129662D01*
X108414Y129712D01*
X108471Y129759D01*
X108531Y129803D01*
X108593Y129844D01*
X108658Y129882D01*
X108723Y129916D01*
X108791Y129947D01*
X108860Y129975D01*
X108931Y129999D01*
X109002Y130019D01*
X109074Y130036D01*
X109148Y130049D01*
X109221Y130058D01*
X109296Y130064D01*
X109370Y130066D01*
X110837Y130066D01*
X114034Y123462D02*
X115868Y123462D01*
X115953Y123464D01*
X116037Y123470D01*
X116121Y123480D01*
X116205Y123493D01*
X116288Y123511D01*
X116370Y123532D01*
X116451Y123557D01*
X116531Y123586D01*
X116609Y123618D01*
X116685Y123654D01*
X116760Y123694D01*
X116833Y123737D01*
X116904Y123783D01*
X116973Y123832D01*
X117040Y123885D01*
X117104Y123941D01*
X117165Y123999D01*
X117223Y124060D01*
X117279Y124124D01*
X117332Y124191D01*
X117381Y124260D01*
X117427Y124331D01*
X117470Y124404D01*
X117510Y124479D01*
X117546Y124555D01*
X117578Y124633D01*
X117607Y124713D01*
X117632Y124794D01*
X117653Y124876D01*
X117671Y124959D01*
X117684Y125043D01*
X117694Y125127D01*
X117700Y125211D01*
X117702Y125296D01*
X117700Y125381D01*
X117694Y125465D01*
X117684Y125549D01*
X117671Y125633D01*
X117653Y125716D01*
X117632Y125798D01*
X117607Y125879D01*
X117578Y125959D01*
X117546Y126037D01*
X117510Y126113D01*
X117470Y126188D01*
X117427Y126261D01*
X117381Y126332D01*
X117332Y126401D01*
X117279Y126468D01*
X117223Y126532D01*
X117165Y126593D01*
X117104Y126651D01*
X117040Y126707D01*
X116973Y126760D01*
X116904Y126809D01*
X116833Y126855D01*
X116760Y126898D01*
X116685Y126938D01*
X116609Y126974D01*
X116531Y127006D01*
X116451Y127035D01*
X116370Y127060D01*
X116288Y127081D01*
X116205Y127099D01*
X116121Y127112D01*
X116037Y127122D01*
X115953Y127128D01*
X115868Y127130D01*
X116235Y130066D02*
X114034Y130066D01*
X116235Y130066D02*
X116311Y130064D01*
X116386Y130058D01*
X116461Y130049D01*
X116535Y130035D01*
X116609Y130018D01*
X116681Y129996D01*
X116753Y129972D01*
X116823Y129943D01*
X116891Y129911D01*
X116958Y129876D01*
X117023Y129837D01*
X117086Y129794D01*
X117146Y129749D01*
X117204Y129701D01*
X117260Y129649D01*
X117312Y129595D01*
X117362Y129538D01*
X117409Y129479D01*
X117453Y129418D01*
X117494Y129354D01*
X117531Y129288D01*
X117565Y129220D01*
X117595Y129151D01*
X117622Y129080D01*
X117645Y129008D01*
X117664Y128935D01*
X117679Y128861D01*
X117691Y128786D01*
X117699Y128711D01*
X117703Y128636D01*
X117703Y128560D01*
X117699Y128485D01*
X117691Y128410D01*
X117679Y128335D01*
X117664Y128261D01*
X117645Y128188D01*
X117622Y128116D01*
X117595Y128045D01*
X117565Y127976D01*
X117531Y127908D01*
X117494Y127842D01*
X117453Y127778D01*
X117409Y127717D01*
X117362Y127658D01*
X117312Y127601D01*
X117260Y127547D01*
X117204Y127495D01*
X117146Y127447D01*
X117086Y127402D01*
X117023Y127359D01*
X116958Y127320D01*
X116891Y127285D01*
X116823Y127253D01*
X116753Y127224D01*
X116681Y127200D01*
X116609Y127178D01*
X116535Y127161D01*
X116461Y127147D01*
X116386Y127138D01*
X116311Y127132D01*
X116235Y127130D01*
X116235Y127131D02*
X114767Y127131D01*
D15*
X58570Y135108D02*
X58570Y184892D01*
X81430Y184892D01*
X81430Y135108D01*
X58570Y135108D01*
D14*
X53998Y139370D02*
X53998Y140837D01*
X53998Y139370D02*
X53996Y139296D01*
X53990Y139221D01*
X53981Y139148D01*
X53968Y139074D01*
X53951Y139002D01*
X53931Y138931D01*
X53907Y138860D01*
X53879Y138791D01*
X53848Y138724D01*
X53814Y138658D01*
X53776Y138593D01*
X53735Y138531D01*
X53691Y138471D01*
X53644Y138414D01*
X53594Y138359D01*
X53541Y138306D01*
X53486Y138256D01*
X53429Y138209D01*
X53369Y138165D01*
X53307Y138124D01*
X53242Y138086D01*
X53177Y138052D01*
X53109Y138021D01*
X53040Y137993D01*
X52969Y137969D01*
X52898Y137949D01*
X52826Y137932D01*
X52752Y137919D01*
X52679Y137910D01*
X52604Y137904D01*
X52530Y137902D01*
X48862Y137902D01*
X48788Y137904D01*
X48713Y137910D01*
X48640Y137919D01*
X48566Y137932D01*
X48494Y137949D01*
X48423Y137969D01*
X48352Y137993D01*
X48283Y138021D01*
X48216Y138052D01*
X48150Y138086D01*
X48085Y138124D01*
X48023Y138165D01*
X47963Y138209D01*
X47906Y138256D01*
X47851Y138306D01*
X47798Y138359D01*
X47748Y138414D01*
X47701Y138471D01*
X47657Y138531D01*
X47616Y138593D01*
X47578Y138658D01*
X47544Y138723D01*
X47513Y138791D01*
X47485Y138860D01*
X47461Y138931D01*
X47441Y139002D01*
X47424Y139074D01*
X47411Y139148D01*
X47402Y139221D01*
X47396Y139296D01*
X47394Y139370D01*
X47394Y140837D01*
X47394Y145501D02*
X52530Y144034D01*
X52530Y147702D01*
X51063Y146602D02*
X53998Y146602D01*
X1899050Y119500D02*
X1905400Y125850D01*
X1905400Y138550D01*
X1899050Y144900D01*
X1905400Y151250D01*
X1905400Y163950D01*
X1899050Y170300D01*
X1905400Y176650D01*
X1905400Y189350D01*
X1899050Y195700D01*
X1905400Y202050D01*
X1905400Y214750D01*
X1899050Y221100D01*
X1905400Y227450D01*
X1905400Y240150D01*
X1899050Y246500D01*
X1905400Y252850D01*
X1905400Y265550D01*
X1899050Y271900D01*
X1899050Y119500D02*
X1860950Y119500D01*
X1854600Y125850D01*
X1854600Y138550D01*
X1860950Y144900D01*
X1854600Y151250D01*
X1854600Y163950D01*
X1860950Y170300D01*
X1854600Y176650D01*
X1854600Y189350D01*
X1860950Y195700D01*
X1854600Y202050D01*
X1854600Y214750D01*
X1860950Y221100D01*
X1854600Y227450D01*
X1854600Y240150D01*
X1860950Y246500D01*
X1854600Y252850D01*
X1854600Y265550D01*
X1860950Y271900D01*
X1854600Y278250D01*
X1854600Y290950D01*
X1860950Y297300D01*
X1854600Y303650D01*
X1854600Y316350D01*
X1860950Y322700D01*
X1854600Y329050D01*
X1854600Y341750D01*
X1860950Y348100D01*
X1854600Y354450D01*
X1854600Y367150D01*
X1860950Y373500D01*
X1854600Y379850D01*
X1854600Y392550D01*
X1860950Y398900D01*
X1854600Y405250D01*
X1854600Y417950D01*
X1860950Y424300D01*
X1854600Y430650D01*
X1854600Y443350D01*
X1860950Y449700D01*
X1854600Y456050D01*
X1854600Y468750D01*
X1860950Y475100D01*
X1854600Y481450D01*
X1854600Y494150D01*
X1860950Y500500D01*
X1899050Y500500D02*
X1905400Y494150D01*
X1905400Y481450D01*
X1899050Y475100D01*
X1905400Y468750D01*
X1905400Y456050D01*
X1899050Y449700D01*
X1905400Y443350D01*
X1905400Y430650D01*
X1899050Y424300D01*
X1905400Y417950D01*
X1905400Y405250D01*
X1899050Y398900D01*
X1905400Y392550D01*
X1905400Y379850D01*
X1899050Y373500D01*
X1905400Y367150D01*
X1905400Y354450D01*
X1899050Y348100D01*
X1905400Y341750D01*
X1905400Y329050D01*
X1899050Y322700D01*
X1905400Y316350D01*
X1905400Y303650D01*
X1899050Y297300D01*
X1905400Y290950D01*
X1905400Y278250D01*
X1899050Y271900D01*
X1899050Y144900D02*
X1860950Y144900D01*
X1860950Y170300D02*
X1899050Y170300D01*
X1899050Y195700D02*
X1860950Y195700D01*
X1860950Y221100D02*
X1899050Y221100D01*
X1899050Y246500D02*
X1860950Y246500D01*
X1860950Y271900D02*
X1899050Y271900D01*
X1899050Y297300D02*
X1860950Y297300D01*
X1860950Y322700D02*
X1899050Y322700D01*
X1899050Y348100D02*
X1860950Y348100D01*
X1860950Y373500D02*
X1899050Y373500D01*
X1899050Y398900D02*
X1860950Y398900D01*
X1860950Y424300D02*
X1899050Y424300D01*
X1899050Y449700D02*
X1860950Y449700D01*
X1860950Y475100D02*
X1899050Y475100D01*
X1899050Y500500D02*
X1860950Y500500D01*
D10*
X1845075Y123945D02*
X1836185Y123945D01*
X1845075Y123945D02*
X1845175Y123943D01*
X1845274Y123937D01*
X1845374Y123927D01*
X1845472Y123914D01*
X1845571Y123896D01*
X1845668Y123875D01*
X1845764Y123850D01*
X1845860Y123821D01*
X1845954Y123788D01*
X1846047Y123752D01*
X1846138Y123712D01*
X1846228Y123668D01*
X1846316Y123621D01*
X1846402Y123571D01*
X1846486Y123517D01*
X1846568Y123460D01*
X1846647Y123400D01*
X1846725Y123336D01*
X1846799Y123270D01*
X1846871Y123201D01*
X1846940Y123129D01*
X1847006Y123055D01*
X1847070Y122977D01*
X1847130Y122898D01*
X1847187Y122816D01*
X1847241Y122732D01*
X1847291Y122646D01*
X1847338Y122558D01*
X1847382Y122468D01*
X1847422Y122377D01*
X1847458Y122284D01*
X1847491Y122190D01*
X1847520Y122094D01*
X1847545Y121998D01*
X1847566Y121901D01*
X1847584Y121802D01*
X1847597Y121704D01*
X1847607Y121604D01*
X1847613Y121505D01*
X1847615Y121405D01*
X1847615Y120135D01*
X1847615Y129925D02*
X1836185Y129925D01*
X1836185Y133100D01*
X1836187Y133211D01*
X1836193Y133321D01*
X1836202Y133432D01*
X1836216Y133542D01*
X1836233Y133651D01*
X1836254Y133760D01*
X1836279Y133868D01*
X1836308Y133975D01*
X1836340Y134081D01*
X1836376Y134186D01*
X1836416Y134289D01*
X1836459Y134391D01*
X1836506Y134492D01*
X1836557Y134591D01*
X1836610Y134688D01*
X1836667Y134782D01*
X1836728Y134875D01*
X1836791Y134966D01*
X1836858Y135055D01*
X1836928Y135141D01*
X1837001Y135224D01*
X1837076Y135306D01*
X1837154Y135384D01*
X1837236Y135459D01*
X1837319Y135532D01*
X1837405Y135602D01*
X1837494Y135669D01*
X1837585Y135732D01*
X1837678Y135793D01*
X1837773Y135850D01*
X1837869Y135903D01*
X1837968Y135954D01*
X1838069Y136001D01*
X1838171Y136044D01*
X1838274Y136084D01*
X1838379Y136120D01*
X1838485Y136152D01*
X1838592Y136181D01*
X1838700Y136206D01*
X1838809Y136227D01*
X1838918Y136244D01*
X1839028Y136258D01*
X1839139Y136267D01*
X1839249Y136273D01*
X1839360Y136275D01*
X1839471Y136273D01*
X1839581Y136267D01*
X1839692Y136258D01*
X1839802Y136244D01*
X1839911Y136227D01*
X1840020Y136206D01*
X1840128Y136181D01*
X1840235Y136152D01*
X1840341Y136120D01*
X1840446Y136084D01*
X1840549Y136044D01*
X1840651Y136001D01*
X1840752Y135954D01*
X1840851Y135903D01*
X1840948Y135850D01*
X1841042Y135793D01*
X1841135Y135732D01*
X1841226Y135669D01*
X1841315Y135602D01*
X1841401Y135532D01*
X1841484Y135459D01*
X1841566Y135384D01*
X1841644Y135306D01*
X1841719Y135224D01*
X1841792Y135141D01*
X1841862Y135055D01*
X1841929Y134966D01*
X1841992Y134875D01*
X1842053Y134782D01*
X1842110Y134688D01*
X1842163Y134591D01*
X1842214Y134492D01*
X1842261Y134391D01*
X1842304Y134289D01*
X1842344Y134186D01*
X1842380Y134081D01*
X1842412Y133975D01*
X1842441Y133868D01*
X1842466Y133760D01*
X1842487Y133651D01*
X1842504Y133542D01*
X1842518Y133432D01*
X1842527Y133321D01*
X1842533Y133211D01*
X1842535Y133100D01*
X1842535Y129925D01*
X1836185Y144276D02*
X1836187Y144380D01*
X1836193Y144485D01*
X1836202Y144589D01*
X1836215Y144692D01*
X1836233Y144795D01*
X1836253Y144897D01*
X1836278Y144999D01*
X1836306Y145099D01*
X1836338Y145199D01*
X1836374Y145297D01*
X1836413Y145394D01*
X1836455Y145489D01*
X1836501Y145583D01*
X1836551Y145675D01*
X1836603Y145765D01*
X1836659Y145853D01*
X1836719Y145939D01*
X1836781Y146023D01*
X1836846Y146104D01*
X1836914Y146183D01*
X1836986Y146260D01*
X1837059Y146333D01*
X1837136Y146405D01*
X1837215Y146473D01*
X1837296Y146538D01*
X1837380Y146600D01*
X1837466Y146660D01*
X1837554Y146716D01*
X1837644Y146768D01*
X1837736Y146818D01*
X1837830Y146864D01*
X1837925Y146906D01*
X1838022Y146945D01*
X1838120Y146981D01*
X1838220Y147013D01*
X1838320Y147041D01*
X1838422Y147066D01*
X1838524Y147086D01*
X1838627Y147104D01*
X1838730Y147117D01*
X1838834Y147126D01*
X1838939Y147132D01*
X1839043Y147134D01*
X1836185Y144276D02*
X1836187Y144158D01*
X1836193Y144039D01*
X1836202Y143921D01*
X1836215Y143804D01*
X1836233Y143687D01*
X1836253Y143570D01*
X1836278Y143454D01*
X1836306Y143339D01*
X1836339Y143226D01*
X1836374Y143113D01*
X1836414Y143001D01*
X1836456Y142891D01*
X1836503Y142782D01*
X1836553Y142674D01*
X1836606Y142569D01*
X1836663Y142465D01*
X1836723Y142363D01*
X1836786Y142263D01*
X1836853Y142165D01*
X1836922Y142069D01*
X1836995Y141976D01*
X1837071Y141885D01*
X1837149Y141796D01*
X1837231Y141710D01*
X1837315Y141627D01*
X1837401Y141546D01*
X1837491Y141469D01*
X1837582Y141394D01*
X1837676Y141322D01*
X1837773Y141253D01*
X1837871Y141188D01*
X1837972Y141125D01*
X1838075Y141066D01*
X1838179Y141010D01*
X1838285Y140958D01*
X1838393Y140909D01*
X1838502Y140864D01*
X1838613Y140822D01*
X1838725Y140784D01*
X1841265Y146182D02*
X1841190Y146258D01*
X1841111Y146333D01*
X1841030Y146404D01*
X1840946Y146473D01*
X1840860Y146538D01*
X1840772Y146600D01*
X1840682Y146660D01*
X1840590Y146716D01*
X1840495Y146769D01*
X1840399Y146818D01*
X1840301Y146864D01*
X1840202Y146907D01*
X1840101Y146946D01*
X1839999Y146981D01*
X1839896Y147013D01*
X1839792Y147041D01*
X1839687Y147066D01*
X1839580Y147087D01*
X1839474Y147104D01*
X1839367Y147117D01*
X1839259Y147126D01*
X1839151Y147132D01*
X1839043Y147134D01*
X1841265Y146181D02*
X1847615Y140784D01*
X1847615Y147134D01*
X1930500Y57500D02*
X1930500Y601500D01*
X2209500Y601500D01*
X2209500Y57500D01*
X1930500Y57500D01*
D12*
X1930454Y611863D02*
X1930454Y620305D01*
X1930454Y611863D02*
X1930456Y611751D01*
X1930462Y611639D01*
X1930471Y611527D01*
X1930485Y611416D01*
X1930502Y611305D01*
X1930523Y611195D01*
X1930548Y611086D01*
X1930577Y610978D01*
X1930609Y610870D01*
X1930646Y610764D01*
X1930685Y610659D01*
X1930729Y610556D01*
X1930776Y610454D01*
X1930826Y610354D01*
X1930880Y610256D01*
X1930937Y610159D01*
X1930997Y610065D01*
X1931061Y609973D01*
X1931128Y609883D01*
X1931198Y609795D01*
X1931271Y609710D01*
X1931346Y609627D01*
X1931425Y609547D01*
X1931506Y609470D01*
X1931590Y609396D01*
X1931677Y609324D01*
X1931765Y609256D01*
X1931856Y609191D01*
X1931950Y609129D01*
X1932045Y609070D01*
X1932143Y609014D01*
X1932242Y608962D01*
X1932343Y608914D01*
X1932445Y608869D01*
X1932550Y608827D01*
X1932655Y608789D01*
X1932762Y608755D01*
X1932870Y608724D01*
X1932978Y608697D01*
X1933088Y608674D01*
X1933199Y608655D01*
X1933310Y608640D01*
X1933421Y608628D01*
X1933533Y608620D01*
X1933645Y608616D01*
X1933757Y608616D01*
X1933869Y608620D01*
X1933981Y608628D01*
X1934092Y608640D01*
X1934203Y608655D01*
X1934314Y608674D01*
X1934424Y608697D01*
X1934532Y608724D01*
X1934640Y608755D01*
X1934747Y608789D01*
X1934852Y608827D01*
X1934957Y608869D01*
X1935059Y608914D01*
X1935160Y608962D01*
X1935259Y609014D01*
X1935357Y609070D01*
X1935452Y609129D01*
X1935546Y609191D01*
X1935637Y609256D01*
X1935725Y609324D01*
X1935812Y609396D01*
X1935896Y609470D01*
X1935977Y609547D01*
X1936056Y609627D01*
X1936131Y609710D01*
X1936204Y609795D01*
X1936274Y609883D01*
X1936341Y609973D01*
X1936405Y610065D01*
X1936465Y610159D01*
X1936522Y610256D01*
X1936576Y610354D01*
X1936626Y610454D01*
X1936673Y610556D01*
X1936717Y610659D01*
X1936756Y610764D01*
X1936793Y610870D01*
X1936825Y610978D01*
X1936854Y611086D01*
X1936879Y611195D01*
X1936900Y611305D01*
X1936917Y611416D01*
X1936931Y611527D01*
X1936940Y611639D01*
X1936946Y611751D01*
X1936948Y611863D01*
X1936948Y620305D01*
X1942270Y608616D02*
X1945516Y608616D01*
X1945628Y608618D01*
X1945740Y608624D01*
X1945852Y608633D01*
X1945963Y608647D01*
X1946074Y608664D01*
X1946184Y608685D01*
X1946293Y608710D01*
X1946401Y608739D01*
X1946509Y608771D01*
X1946615Y608808D01*
X1946720Y608847D01*
X1946823Y608891D01*
X1946925Y608938D01*
X1947025Y608988D01*
X1947123Y609042D01*
X1947220Y609099D01*
X1947314Y609159D01*
X1947406Y609223D01*
X1947496Y609290D01*
X1947584Y609360D01*
X1947669Y609433D01*
X1947752Y609508D01*
X1947832Y609587D01*
X1947909Y609668D01*
X1947983Y609752D01*
X1948055Y609839D01*
X1948123Y609927D01*
X1948188Y610018D01*
X1948250Y610112D01*
X1948309Y610207D01*
X1948365Y610305D01*
X1948417Y610404D01*
X1948465Y610505D01*
X1948510Y610607D01*
X1948552Y610712D01*
X1948590Y610817D01*
X1948624Y610924D01*
X1948655Y611032D01*
X1948682Y611140D01*
X1948705Y611250D01*
X1948724Y611361D01*
X1948739Y611472D01*
X1948751Y611583D01*
X1948759Y611695D01*
X1948763Y611807D01*
X1948763Y611919D01*
X1948759Y612031D01*
X1948751Y612143D01*
X1948739Y612254D01*
X1948724Y612365D01*
X1948705Y612476D01*
X1948682Y612586D01*
X1948655Y612694D01*
X1948624Y612802D01*
X1948590Y612909D01*
X1948552Y613014D01*
X1948510Y613119D01*
X1948465Y613221D01*
X1948417Y613322D01*
X1948365Y613421D01*
X1948309Y613519D01*
X1948250Y613614D01*
X1948188Y613708D01*
X1948123Y613799D01*
X1948055Y613887D01*
X1947983Y613974D01*
X1947909Y614058D01*
X1947832Y614139D01*
X1947752Y614218D01*
X1947669Y614293D01*
X1947584Y614366D01*
X1947496Y614436D01*
X1947406Y614503D01*
X1947314Y614567D01*
X1947220Y614627D01*
X1947123Y614684D01*
X1947025Y614738D01*
X1946925Y614788D01*
X1946823Y614835D01*
X1946720Y614879D01*
X1946615Y614918D01*
X1946509Y614955D01*
X1946401Y614987D01*
X1946293Y615016D01*
X1946184Y615041D01*
X1946074Y615062D01*
X1945963Y615079D01*
X1945852Y615093D01*
X1945740Y615102D01*
X1945628Y615108D01*
X1945516Y615110D01*
X1946166Y620305D02*
X1942270Y620305D01*
X1946166Y620305D02*
X1946267Y620303D01*
X1946367Y620297D01*
X1946468Y620287D01*
X1946567Y620274D01*
X1946667Y620256D01*
X1946765Y620235D01*
X1946863Y620210D01*
X1946959Y620181D01*
X1947055Y620148D01*
X1947149Y620112D01*
X1947241Y620072D01*
X1947332Y620029D01*
X1947421Y619982D01*
X1947508Y619931D01*
X1947594Y619878D01*
X1947677Y619821D01*
X1947758Y619760D01*
X1947836Y619697D01*
X1947912Y619631D01*
X1947985Y619562D01*
X1948056Y619490D01*
X1948123Y619415D01*
X1948188Y619338D01*
X1948250Y619258D01*
X1948309Y619176D01*
X1948364Y619092D01*
X1948416Y619006D01*
X1948465Y618918D01*
X1948510Y618828D01*
X1948552Y618736D01*
X1948590Y618643D01*
X1948624Y618548D01*
X1948655Y618452D01*
X1948682Y618355D01*
X1948705Y618257D01*
X1948725Y618158D01*
X1948740Y618059D01*
X1948752Y617959D01*
X1948760Y617858D01*
X1948764Y617757D01*
X1948764Y617657D01*
X1948760Y617556D01*
X1948752Y617455D01*
X1948740Y617355D01*
X1948725Y617256D01*
X1948705Y617157D01*
X1948682Y617059D01*
X1948655Y616962D01*
X1948624Y616866D01*
X1948590Y616771D01*
X1948552Y616678D01*
X1948510Y616586D01*
X1948465Y616496D01*
X1948416Y616408D01*
X1948364Y616322D01*
X1948309Y616238D01*
X1948250Y616156D01*
X1948188Y616076D01*
X1948123Y615999D01*
X1948056Y615924D01*
X1947985Y615852D01*
X1947912Y615783D01*
X1947836Y615717D01*
X1947758Y615654D01*
X1947677Y615593D01*
X1947594Y615536D01*
X1947508Y615483D01*
X1947421Y615432D01*
X1947332Y615385D01*
X1947241Y615342D01*
X1947149Y615302D01*
X1947055Y615266D01*
X1946959Y615233D01*
X1946863Y615204D01*
X1946765Y615179D01*
X1946667Y615158D01*
X1946567Y615140D01*
X1946468Y615127D01*
X1946367Y615117D01*
X1946267Y615111D01*
X1946166Y615109D01*
X1946166Y615110D02*
X1943568Y615110D01*
D14*
X2159900Y495850D02*
X2166250Y489500D01*
X2159900Y495850D02*
X2159900Y508550D01*
X2166250Y514900D01*
X2178950Y514900D01*
X2185300Y508550D01*
X2185300Y495850D01*
X2178950Y489500D01*
X2159900Y457750D02*
X2159900Y445050D01*
X2159900Y457750D02*
X2166250Y464100D01*
X2178950Y464100D01*
X2185300Y457750D01*
X2166250Y464100D02*
X2159900Y470450D01*
X2159900Y483150D01*
X2166250Y489500D01*
X2178950Y489500D01*
X2185300Y483150D01*
X2185300Y470450D01*
X2178950Y464100D01*
X2159900Y419650D02*
X2166250Y413300D01*
X2159900Y419650D02*
X2159900Y432350D01*
X2166250Y438700D01*
X2178950Y438700D01*
X2185300Y432350D01*
X2185300Y419650D01*
X2178950Y413300D01*
X2166250Y438700D02*
X2159900Y445050D01*
X2178950Y438700D02*
X2185300Y445050D01*
X2185300Y457750D01*
X2159900Y381550D02*
X2159900Y368850D01*
X2159900Y381550D02*
X2166250Y387900D01*
X2178950Y387900D01*
X2185300Y381550D01*
X2166250Y387900D02*
X2159900Y394250D01*
X2159900Y406950D01*
X2166250Y413300D01*
X2178950Y413300D01*
X2185300Y406950D01*
X2185300Y394250D01*
X2178950Y387900D01*
X2159900Y343450D02*
X2166250Y337100D01*
X2159900Y343450D02*
X2159900Y356150D01*
X2166250Y362500D01*
X2178950Y362500D01*
X2185300Y356150D01*
X2185300Y343450D01*
X2178950Y337100D01*
X2166250Y362500D02*
X2159900Y368850D01*
X2178950Y362500D02*
X2185300Y368850D01*
X2185300Y381550D01*
X2159900Y305350D02*
X2159900Y292650D01*
X2159900Y305350D02*
X2166250Y311700D01*
X2178950Y311700D01*
X2185300Y305350D01*
X2166250Y311700D02*
X2159900Y318050D01*
X2159900Y330750D01*
X2166250Y337100D01*
X2178950Y337100D01*
X2185300Y330750D01*
X2185300Y318050D01*
X2178950Y311700D01*
X2159900Y267250D02*
X2166250Y260900D01*
X2159900Y267250D02*
X2159900Y279950D01*
X2166250Y286300D01*
X2178950Y286300D01*
X2185300Y279950D01*
X2185300Y267250D01*
X2178950Y260900D01*
X2166250Y286300D02*
X2159900Y292650D01*
X2178950Y286300D02*
X2185300Y292650D01*
X2185300Y305350D01*
X2159900Y229150D02*
X2159900Y216450D01*
X2159900Y229150D02*
X2166250Y235500D01*
X2178950Y235500D01*
X2185300Y229150D01*
X2166250Y235500D02*
X2159900Y241850D01*
X2159900Y254550D01*
X2166250Y260900D01*
X2178950Y260900D01*
X2185300Y254550D01*
X2185300Y241850D01*
X2178950Y235500D01*
X2159900Y191050D02*
X2166250Y184700D01*
X2159900Y191050D02*
X2159900Y203750D01*
X2166250Y210100D01*
X2178950Y210100D01*
X2185300Y203750D01*
X2185300Y191050D01*
X2178950Y184700D01*
X2166250Y210100D02*
X2159900Y216450D01*
X2178950Y210100D02*
X2185300Y216450D01*
X2185300Y229150D01*
X2159900Y152950D02*
X2159900Y140250D01*
X2159900Y152950D02*
X2166250Y159300D01*
X2178950Y159300D01*
X2185300Y152950D01*
X2166250Y159300D02*
X2159900Y165650D01*
X2159900Y178350D01*
X2166250Y184700D01*
X2178950Y184700D01*
X2185300Y178350D01*
X2185300Y165650D01*
X2178950Y159300D01*
X2159900Y114850D02*
X2166250Y108500D01*
X2159900Y114850D02*
X2159900Y127550D01*
X2166250Y133900D01*
X2178950Y133900D01*
X2185300Y127550D01*
X2185300Y114850D01*
X2178950Y108500D01*
X2166250Y133900D02*
X2159900Y140250D01*
X2178950Y133900D02*
X2185300Y140250D01*
X2185300Y152950D01*
X2159900Y76750D02*
X2159900Y64050D01*
X2159900Y76750D02*
X2166250Y83100D01*
X2178950Y83100D01*
X2185300Y76750D01*
X2166250Y83100D02*
X2159900Y89450D01*
X2159900Y102150D01*
X2166250Y108500D01*
X2178950Y108500D01*
X2185300Y102150D01*
X2185300Y89450D01*
X2178950Y83100D01*
X2178950Y57700D02*
X2166250Y57700D01*
X2159900Y64050D01*
X2178950Y57700D02*
X2185300Y64050D01*
X2185300Y76750D01*
X2166250Y514900D02*
X2159900Y521250D01*
X2159900Y533950D01*
X2166250Y540300D01*
X2178950Y540300D01*
X2185300Y533950D01*
X2185300Y521250D01*
X2178950Y514900D01*
D10*
X2151137Y61383D02*
X2142247Y61383D01*
X2151137Y61383D02*
X2151237Y61381D01*
X2151336Y61375D01*
X2151436Y61365D01*
X2151534Y61352D01*
X2151633Y61334D01*
X2151730Y61313D01*
X2151826Y61288D01*
X2151922Y61259D01*
X2152016Y61226D01*
X2152109Y61190D01*
X2152200Y61150D01*
X2152290Y61106D01*
X2152378Y61059D01*
X2152464Y61009D01*
X2152548Y60955D01*
X2152630Y60898D01*
X2152709Y60838D01*
X2152787Y60774D01*
X2152861Y60708D01*
X2152933Y60639D01*
X2153002Y60567D01*
X2153068Y60493D01*
X2153132Y60415D01*
X2153192Y60336D01*
X2153249Y60254D01*
X2153303Y60170D01*
X2153353Y60084D01*
X2153400Y59996D01*
X2153444Y59906D01*
X2153484Y59815D01*
X2153520Y59722D01*
X2153553Y59628D01*
X2153582Y59532D01*
X2153607Y59436D01*
X2153628Y59339D01*
X2153646Y59240D01*
X2153659Y59142D01*
X2153669Y59042D01*
X2153675Y58943D01*
X2153677Y58843D01*
X2153677Y57573D01*
X2153677Y67363D02*
X2142247Y67363D01*
X2142247Y70538D01*
X2142249Y70649D01*
X2142255Y70759D01*
X2142264Y70870D01*
X2142278Y70980D01*
X2142295Y71089D01*
X2142316Y71198D01*
X2142341Y71306D01*
X2142370Y71413D01*
X2142402Y71519D01*
X2142438Y71624D01*
X2142478Y71727D01*
X2142521Y71829D01*
X2142568Y71930D01*
X2142619Y72029D01*
X2142672Y72125D01*
X2142729Y72220D01*
X2142790Y72313D01*
X2142853Y72404D01*
X2142920Y72493D01*
X2142990Y72579D01*
X2143063Y72662D01*
X2143138Y72744D01*
X2143216Y72822D01*
X2143298Y72897D01*
X2143381Y72970D01*
X2143467Y73040D01*
X2143556Y73107D01*
X2143647Y73170D01*
X2143740Y73231D01*
X2143835Y73288D01*
X2143931Y73341D01*
X2144030Y73392D01*
X2144131Y73439D01*
X2144233Y73482D01*
X2144336Y73522D01*
X2144441Y73558D01*
X2144547Y73590D01*
X2144654Y73619D01*
X2144762Y73644D01*
X2144871Y73665D01*
X2144980Y73682D01*
X2145090Y73696D01*
X2145201Y73705D01*
X2145311Y73711D01*
X2145422Y73713D01*
X2145533Y73711D01*
X2145643Y73705D01*
X2145754Y73696D01*
X2145864Y73682D01*
X2145973Y73665D01*
X2146082Y73644D01*
X2146190Y73619D01*
X2146297Y73590D01*
X2146403Y73558D01*
X2146508Y73522D01*
X2146611Y73482D01*
X2146713Y73439D01*
X2146814Y73392D01*
X2146913Y73341D01*
X2147010Y73288D01*
X2147104Y73231D01*
X2147197Y73170D01*
X2147288Y73107D01*
X2147377Y73040D01*
X2147463Y72970D01*
X2147546Y72897D01*
X2147628Y72822D01*
X2147706Y72744D01*
X2147781Y72662D01*
X2147854Y72579D01*
X2147924Y72493D01*
X2147991Y72404D01*
X2148054Y72313D01*
X2148115Y72220D01*
X2148172Y72126D01*
X2148225Y72029D01*
X2148276Y71930D01*
X2148323Y71829D01*
X2148366Y71727D01*
X2148406Y71624D01*
X2148442Y71519D01*
X2148474Y71413D01*
X2148503Y71306D01*
X2148528Y71198D01*
X2148549Y71089D01*
X2148566Y70980D01*
X2148580Y70870D01*
X2148589Y70759D01*
X2148595Y70649D01*
X2148597Y70538D01*
X2148597Y67363D01*
X2144787Y78222D02*
X2142247Y81397D01*
X2153677Y81397D01*
X2153677Y78222D02*
X2153677Y84572D01*
M02*
