G04 EAGLE Gerber RS-274X export*
G75*
%MOMM*%
%FSLAX34Y34*%
%LPD*%
%INSoldermask Top*%
%IPPOS*%
%AMOC8*
5,1,8,0,0,1.08239X$1,22.5*%
G01*
%ADD10C,3.603200*%
%ADD11C,2.993200*%
%ADD12R,1.711200X1.711200*%
%ADD13C,1.711200*%
%ADD14C,3.803200*%
%ADD15R,1.219200X2.895600*%
%ADD16R,10.363200X9.144000*%
%ADD17R,1.703200X1.473200*%
%ADD18R,1.803200X1.503200*%
%ADD19P,1.869504X8X112.500000*%
%ADD20R,1.763200X1.763200*%
%ADD21C,1.763200*%
%ADD22C,1.727200*%
%ADD23C,0.959600*%


D10*
X30000Y770000D03*
X30000Y30000D03*
X2220000Y30000D03*
X2220000Y770000D03*
X1150000Y770000D03*
X1150000Y30000D03*
D11*
X272400Y153100D03*
X272400Y646900D03*
D12*
X250000Y590500D03*
D13*
X250000Y565100D03*
X250000Y539700D03*
X250000Y514300D03*
X250000Y488900D03*
X250000Y463500D03*
X250000Y438100D03*
X250000Y412700D03*
X250000Y387300D03*
X250000Y361900D03*
X250000Y336500D03*
X250000Y311100D03*
X250000Y285700D03*
X250000Y260300D03*
X250000Y234900D03*
X250000Y209500D03*
X275400Y590500D03*
X275400Y565100D03*
X275400Y539700D03*
X275400Y514300D03*
X275400Y488900D03*
X275400Y463500D03*
X275400Y438100D03*
X275400Y412700D03*
X275400Y387300D03*
X275400Y361900D03*
X275400Y336500D03*
X275400Y311100D03*
X275400Y285700D03*
X275400Y260300D03*
X275400Y234900D03*
X275400Y209500D03*
X300800Y590500D03*
X300800Y565100D03*
X300800Y539700D03*
X300800Y514300D03*
X300800Y488900D03*
X300800Y463500D03*
X300800Y438100D03*
X300800Y412700D03*
X300800Y387300D03*
X300800Y361900D03*
X300800Y336500D03*
X300800Y311100D03*
X300800Y285700D03*
X300800Y260300D03*
X300800Y234900D03*
X300800Y209500D03*
D11*
X475600Y153100D03*
X475600Y646900D03*
D12*
X453200Y590500D03*
D13*
X453200Y565100D03*
X453200Y539700D03*
X453200Y514300D03*
X453200Y488900D03*
X453200Y463500D03*
X453200Y438100D03*
X453200Y412700D03*
X453200Y387300D03*
X453200Y361900D03*
X453200Y336500D03*
X453200Y311100D03*
X453200Y285700D03*
X453200Y260300D03*
X453200Y234900D03*
X453200Y209500D03*
X478600Y590500D03*
X478600Y565100D03*
X478600Y539700D03*
X478600Y514300D03*
X478600Y488900D03*
X478600Y463500D03*
X478600Y438100D03*
X478600Y412700D03*
X478600Y387300D03*
X478600Y361900D03*
X478600Y336500D03*
X478600Y311100D03*
X478600Y285700D03*
X478600Y260300D03*
X478600Y234900D03*
X478600Y209500D03*
X504000Y590500D03*
X504000Y565100D03*
X504000Y539700D03*
X504000Y514300D03*
X504000Y488900D03*
X504000Y463500D03*
X504000Y438100D03*
X504000Y412700D03*
X504000Y387300D03*
X504000Y361900D03*
X504000Y336500D03*
X504000Y311100D03*
X504000Y285700D03*
X504000Y260300D03*
X504000Y234900D03*
X504000Y209500D03*
D11*
X678800Y153100D03*
X678800Y646900D03*
D12*
X656400Y590500D03*
D13*
X656400Y565100D03*
X656400Y539700D03*
X656400Y514300D03*
X656400Y488900D03*
X656400Y463500D03*
X656400Y438100D03*
X656400Y412700D03*
X656400Y387300D03*
X656400Y361900D03*
X656400Y336500D03*
X656400Y311100D03*
X656400Y285700D03*
X656400Y260300D03*
X656400Y234900D03*
X656400Y209500D03*
X681800Y590500D03*
X681800Y565100D03*
X681800Y539700D03*
X681800Y514300D03*
X681800Y488900D03*
X681800Y463500D03*
X681800Y438100D03*
X681800Y412700D03*
X681800Y387300D03*
X681800Y361900D03*
X681800Y336500D03*
X681800Y311100D03*
X681800Y285700D03*
X681800Y260300D03*
X681800Y234900D03*
X681800Y209500D03*
X707200Y590500D03*
X707200Y565100D03*
X707200Y539700D03*
X707200Y514300D03*
X707200Y488900D03*
X707200Y463500D03*
X707200Y438100D03*
X707200Y412700D03*
X707200Y387300D03*
X707200Y361900D03*
X707200Y336500D03*
X707200Y311100D03*
X707200Y285700D03*
X707200Y260300D03*
X707200Y234900D03*
X707200Y209500D03*
D11*
X882000Y153100D03*
X882000Y646900D03*
D12*
X859600Y590500D03*
D13*
X859600Y565100D03*
X859600Y539700D03*
X859600Y514300D03*
X859600Y488900D03*
X859600Y463500D03*
X859600Y438100D03*
X859600Y412700D03*
X859600Y387300D03*
X859600Y361900D03*
X859600Y336500D03*
X859600Y311100D03*
X859600Y285700D03*
X859600Y260300D03*
X859600Y234900D03*
X859600Y209500D03*
X885000Y590500D03*
X885000Y565100D03*
X885000Y539700D03*
X885000Y514300D03*
X885000Y488900D03*
X885000Y463500D03*
X885000Y438100D03*
X885000Y412700D03*
X885000Y387300D03*
X885000Y361900D03*
X885000Y336500D03*
X885000Y311100D03*
X885000Y285700D03*
X885000Y260300D03*
X885000Y234900D03*
X885000Y209500D03*
X910400Y590500D03*
X910400Y565100D03*
X910400Y539700D03*
X910400Y514300D03*
X910400Y488900D03*
X910400Y463500D03*
X910400Y438100D03*
X910400Y412700D03*
X910400Y387300D03*
X910400Y361900D03*
X910400Y336500D03*
X910400Y311100D03*
X910400Y285700D03*
X910400Y260300D03*
X910400Y234900D03*
X910400Y209500D03*
D11*
X1085200Y153100D03*
X1085200Y646900D03*
D12*
X1062800Y590500D03*
D13*
X1062800Y565100D03*
X1062800Y539700D03*
X1062800Y514300D03*
X1062800Y488900D03*
X1062800Y463500D03*
X1062800Y438100D03*
X1062800Y412700D03*
X1062800Y387300D03*
X1062800Y361900D03*
X1062800Y336500D03*
X1062800Y311100D03*
X1062800Y285700D03*
X1062800Y260300D03*
X1062800Y234900D03*
X1062800Y209500D03*
X1088200Y590500D03*
X1088200Y565100D03*
X1088200Y539700D03*
X1088200Y514300D03*
X1088200Y488900D03*
X1088200Y463500D03*
X1088200Y438100D03*
X1088200Y412700D03*
X1088200Y387300D03*
X1088200Y361900D03*
X1088200Y336500D03*
X1088200Y311100D03*
X1088200Y285700D03*
X1088200Y260300D03*
X1088200Y234900D03*
X1088200Y209500D03*
X1113600Y590500D03*
X1113600Y565100D03*
X1113600Y539700D03*
X1113600Y514300D03*
X1113600Y488900D03*
X1113600Y463500D03*
X1113600Y438100D03*
X1113600Y412700D03*
X1113600Y387300D03*
X1113600Y361900D03*
X1113600Y336500D03*
X1113600Y311100D03*
X1113600Y285700D03*
X1113600Y260300D03*
X1113600Y234900D03*
X1113600Y209500D03*
D11*
X1288400Y153100D03*
X1288400Y646900D03*
D12*
X1266000Y590500D03*
D13*
X1266000Y565100D03*
X1266000Y539700D03*
X1266000Y514300D03*
X1266000Y488900D03*
X1266000Y463500D03*
X1266000Y438100D03*
X1266000Y412700D03*
X1266000Y387300D03*
X1266000Y361900D03*
X1266000Y336500D03*
X1266000Y311100D03*
X1266000Y285700D03*
X1266000Y260300D03*
X1266000Y234900D03*
X1266000Y209500D03*
X1291400Y590500D03*
X1291400Y565100D03*
X1291400Y539700D03*
X1291400Y514300D03*
X1291400Y488900D03*
X1291400Y463500D03*
X1291400Y438100D03*
X1291400Y412700D03*
X1291400Y387300D03*
X1291400Y361900D03*
X1291400Y336500D03*
X1291400Y311100D03*
X1291400Y285700D03*
X1291400Y260300D03*
X1291400Y234900D03*
X1291400Y209500D03*
X1316800Y590500D03*
X1316800Y565100D03*
X1316800Y539700D03*
X1316800Y514300D03*
X1316800Y488900D03*
X1316800Y463500D03*
X1316800Y438100D03*
X1316800Y412700D03*
X1316800Y387300D03*
X1316800Y361900D03*
X1316800Y336500D03*
X1316800Y311100D03*
X1316800Y285700D03*
X1316800Y260300D03*
X1316800Y234900D03*
X1316800Y209500D03*
D11*
X1491600Y153100D03*
X1491600Y646900D03*
D12*
X1469200Y590500D03*
D13*
X1469200Y565100D03*
X1469200Y539700D03*
X1469200Y514300D03*
X1469200Y488900D03*
X1469200Y463500D03*
X1469200Y438100D03*
X1469200Y412700D03*
X1469200Y387300D03*
X1469200Y361900D03*
X1469200Y336500D03*
X1469200Y311100D03*
X1469200Y285700D03*
X1469200Y260300D03*
X1469200Y234900D03*
X1469200Y209500D03*
X1494600Y590500D03*
X1494600Y565100D03*
X1494600Y539700D03*
X1494600Y514300D03*
X1494600Y488900D03*
X1494600Y463500D03*
X1494600Y438100D03*
X1494600Y412700D03*
X1494600Y387300D03*
X1494600Y361900D03*
X1494600Y336500D03*
X1494600Y311100D03*
X1494600Y285700D03*
X1494600Y260300D03*
X1494600Y234900D03*
X1494600Y209500D03*
X1520000Y590500D03*
X1520000Y565100D03*
X1520000Y539700D03*
X1520000Y514300D03*
X1520000Y488900D03*
X1520000Y463500D03*
X1520000Y438100D03*
X1520000Y412700D03*
X1520000Y387300D03*
X1520000Y361900D03*
X1520000Y336500D03*
X1520000Y311100D03*
X1520000Y285700D03*
X1520000Y260300D03*
X1520000Y234900D03*
X1520000Y209500D03*
D11*
X1694800Y153100D03*
X1694800Y646900D03*
D12*
X1672400Y590500D03*
D13*
X1672400Y565100D03*
X1672400Y539700D03*
X1672400Y514300D03*
X1672400Y488900D03*
X1672400Y463500D03*
X1672400Y438100D03*
X1672400Y412700D03*
X1672400Y387300D03*
X1672400Y361900D03*
X1672400Y336500D03*
X1672400Y311100D03*
X1672400Y285700D03*
X1672400Y260300D03*
X1672400Y234900D03*
X1672400Y209500D03*
X1697800Y590500D03*
X1697800Y565100D03*
X1697800Y539700D03*
X1697800Y514300D03*
X1697800Y488900D03*
X1697800Y463500D03*
X1697800Y438100D03*
X1697800Y412700D03*
X1697800Y387300D03*
X1697800Y361900D03*
X1697800Y336500D03*
X1697800Y311100D03*
X1697800Y285700D03*
X1697800Y260300D03*
X1697800Y234900D03*
X1697800Y209500D03*
X1723200Y590500D03*
X1723200Y565100D03*
X1723200Y539700D03*
X1723200Y514300D03*
X1723200Y488900D03*
X1723200Y463500D03*
X1723200Y438100D03*
X1723200Y412700D03*
X1723200Y387300D03*
X1723200Y361900D03*
X1723200Y336500D03*
X1723200Y311100D03*
X1723200Y285700D03*
X1723200Y260300D03*
X1723200Y234900D03*
X1723200Y209500D03*
D14*
X80000Y670000D03*
X80000Y570000D03*
D15*
X104600Y349576D03*
X130000Y349576D03*
X155400Y349576D03*
D16*
X130000Y441524D03*
D17*
X143970Y316000D03*
X116030Y316000D03*
D18*
X70000Y375240D03*
X70000Y344760D03*
D15*
X104600Y149576D03*
X130000Y149576D03*
X155400Y149576D03*
D16*
X130000Y241524D03*
D17*
X143970Y110000D03*
X116030Y110000D03*
D18*
X70000Y175240D03*
X70000Y144760D03*
D19*
X1892700Y132200D03*
X1867300Y132200D03*
X1892700Y157600D03*
X1867300Y157600D03*
X1892700Y183000D03*
X1867300Y183000D03*
X1892700Y208400D03*
X1867300Y208400D03*
X1892700Y233800D03*
X1867300Y233800D03*
X1892700Y259200D03*
X1867300Y259200D03*
X1892700Y284600D03*
X1867300Y284600D03*
X1892700Y310000D03*
X1867300Y310000D03*
X1892700Y335400D03*
X1867300Y335400D03*
X1892700Y360800D03*
X1867300Y360800D03*
X1892700Y386200D03*
X1867300Y386200D03*
X1892700Y411600D03*
X1867300Y411600D03*
X1892700Y437000D03*
X1867300Y437000D03*
X1892700Y462400D03*
X1867300Y462400D03*
X1892700Y487800D03*
X1867300Y487800D03*
D20*
X1943000Y527600D03*
D21*
X1943000Y502200D03*
X1943000Y70400D03*
X1943000Y476800D03*
X1943000Y451400D03*
X1943000Y426000D03*
X1943000Y400600D03*
X1943000Y375200D03*
X1943000Y349800D03*
X1943000Y324400D03*
X1943000Y299000D03*
X1943000Y273600D03*
X1943000Y248200D03*
X1943000Y222800D03*
X1943000Y197400D03*
X1943000Y172000D03*
X1943000Y146600D03*
X1943000Y121200D03*
X1943000Y95800D03*
X2197000Y527600D03*
X2197000Y502200D03*
X2197000Y476800D03*
X2197000Y451400D03*
X2197000Y426000D03*
X2197000Y400600D03*
X2197000Y375200D03*
X2197000Y349800D03*
X2197000Y324400D03*
X2197000Y299000D03*
X2197000Y273600D03*
X2197000Y248200D03*
X2197000Y222800D03*
X2197000Y197400D03*
X2197000Y172000D03*
X2197000Y146600D03*
X2197000Y121200D03*
X2197000Y95800D03*
X2197000Y70400D03*
D22*
X2180220Y70400D02*
X2164980Y70400D01*
X2164980Y95800D02*
X2180220Y95800D01*
X2180220Y121200D02*
X2164980Y121200D01*
X2164980Y146600D02*
X2180220Y146600D01*
X2180220Y172000D02*
X2164980Y172000D01*
X2164980Y197400D02*
X2180220Y197400D01*
X2180220Y222800D02*
X2164980Y222800D01*
X2164980Y248200D02*
X2180220Y248200D01*
X2180220Y273600D02*
X2164980Y273600D01*
X2164980Y299000D02*
X2180220Y299000D01*
X2180220Y324400D02*
X2164980Y324400D01*
X2164980Y349800D02*
X2180220Y349800D01*
X2180220Y375200D02*
X2164980Y375200D01*
X2164980Y400600D02*
X2180220Y400600D01*
X2180220Y426000D02*
X2164980Y426000D01*
X2164980Y451400D02*
X2180220Y451400D01*
X2180220Y476800D02*
X2164980Y476800D01*
X2164980Y502200D02*
X2180220Y502200D01*
X2180220Y527600D02*
X2164980Y527600D01*
D23*
X1900000Y540000D03*
X1740000Y380000D03*
X1750000Y400000D03*
X1970000Y460000D03*
X1900000Y500000D03*
X1617200Y294100D03*
X1620000Y250000D03*
X1620000Y190000D03*
X1920000Y80000D03*
X1920000Y70000D03*
X1580000Y220000D03*
X1570000Y270000D03*
X1560000Y290000D03*
X1800000Y310000D03*
X1910000Y450000D03*
X1920000Y460000D03*
X1820000Y300000D03*
X1857210Y327210D03*
X1624000Y401874D03*
X1880100Y322500D03*
X1910000Y350000D03*
X1912500Y299300D03*
X1930000Y220000D03*
X1910000Y210000D03*
X1850000Y240000D03*
X1820000Y250000D03*
X220000Y410000D03*
X1910000Y130000D03*
X1770000Y320000D03*
X1850000Y300000D03*
X1790912Y320000D03*
X1840000Y349000D03*
X1741350Y191350D03*
X1820500Y280500D03*
X1850000Y310000D03*
X1800000Y320000D03*
X1760000Y280000D03*
X1820000Y210000D03*
X1890000Y119274D03*
X1840000Y420000D03*
X2050000Y430000D03*
X2010000Y400000D03*
X1905900Y475200D03*
X1788000Y342000D03*
X1850000Y390000D03*
X1910000Y190000D03*
X1750000Y310000D03*
X1920000Y240000D03*
X1880000Y480000D03*
X1879999Y431921D03*
X1810000Y370000D03*
X1830000Y500000D03*
X1800000Y390000D03*
X1810000Y453990D03*
X1810000Y390000D03*
X1770000Y350000D03*
X1740000Y270000D03*
M02*
