G04 EAGLE Gerber RS-274X export*
G75*
%MOMM*%
%FSLAX34Y34*%
%LPD*%
%INBottom Copper*%
%IPPOS*%
%AMOC8*
5,1,8,0,0,1.08239X$1,22.5*%
G01*
%ADD10R,1.508000X1.508000*%
%ADD11C,1.508000*%
%ADD12R,1.308000X1.308000*%
%ADD13C,1.308000*%
%ADD14C,1.879600*%
%ADD15R,2.100000X2.100000*%
%ADD16C,2.100000*%
%ADD17P,1.649562X8X22.500000*%
%ADD18C,0.756400*%
%ADD19C,0.304800*%
%ADD20C,0.508000*%
%ADD21C,0.406400*%
%ADD22C,2.540000*%

G36*
X928020Y10164D02*
X928020Y10164D01*
X928039Y10162D01*
X928141Y10184D01*
X928243Y10200D01*
X928260Y10210D01*
X928280Y10214D01*
X928369Y10267D01*
X928460Y10316D01*
X928474Y10330D01*
X928491Y10340D01*
X928558Y10419D01*
X928630Y10494D01*
X928638Y10512D01*
X928651Y10527D01*
X928690Y10623D01*
X928733Y10717D01*
X928735Y10737D01*
X928743Y10755D01*
X928761Y10922D01*
X928761Y513000D01*
X928747Y513090D01*
X928739Y513181D01*
X928727Y513211D01*
X928722Y513243D01*
X928679Y513323D01*
X928643Y513407D01*
X928617Y513439D01*
X928606Y513460D01*
X928583Y513482D01*
X928538Y513538D01*
X919960Y522117D01*
X919944Y522128D01*
X919931Y522144D01*
X919844Y522200D01*
X919760Y522260D01*
X919741Y522266D01*
X919724Y522277D01*
X919624Y522302D01*
X919525Y522332D01*
X919505Y522332D01*
X919486Y522337D01*
X919383Y522329D01*
X919279Y522326D01*
X919260Y522319D01*
X919241Y522318D01*
X919146Y522277D01*
X919048Y522242D01*
X919033Y522229D01*
X919014Y522221D01*
X918883Y522117D01*
X907541Y510774D01*
X907499Y510716D01*
X907450Y510664D01*
X907428Y510617D01*
X907398Y510575D01*
X907376Y510506D01*
X907346Y510441D01*
X907341Y510389D01*
X907325Y510339D01*
X907327Y510268D01*
X907319Y510197D01*
X907330Y510146D01*
X907332Y510094D01*
X907356Y510026D01*
X907371Y509956D01*
X907398Y509911D01*
X907416Y509863D01*
X907461Y509807D01*
X907498Y509745D01*
X907537Y509711D01*
X907570Y509671D01*
X907630Y509632D01*
X907684Y509585D01*
X907733Y509566D01*
X907777Y509538D01*
X907846Y509520D01*
X907913Y509493D01*
X907984Y509485D01*
X908015Y509477D01*
X908038Y509479D01*
X908079Y509475D01*
X912829Y509475D01*
X918058Y507309D01*
X922059Y503308D01*
X924225Y498079D01*
X924225Y492421D01*
X922059Y487192D01*
X912808Y477941D01*
X907579Y475775D01*
X747171Y475775D01*
X741942Y477941D01*
X714331Y505552D01*
X714257Y505605D01*
X714187Y505665D01*
X714157Y505677D01*
X714131Y505696D01*
X714044Y505723D01*
X713959Y505757D01*
X713918Y505761D01*
X713896Y505768D01*
X713864Y505767D01*
X713793Y505775D01*
X625561Y505775D01*
X625491Y505764D01*
X625419Y505762D01*
X625370Y505744D01*
X625319Y505736D01*
X625255Y505702D01*
X625188Y505677D01*
X625147Y505645D01*
X625101Y505620D01*
X625052Y505568D01*
X624996Y505524D01*
X624968Y505480D01*
X624932Y505442D01*
X624902Y505377D01*
X624863Y505317D01*
X624850Y505266D01*
X624828Y505219D01*
X624820Y505148D01*
X624803Y505078D01*
X624807Y505026D01*
X624801Y504975D01*
X624816Y504904D01*
X624822Y504833D01*
X624842Y504785D01*
X624853Y504734D01*
X624890Y504673D01*
X624918Y504607D01*
X624963Y504551D01*
X624980Y504523D01*
X624997Y504508D01*
X625023Y504476D01*
X625307Y504192D01*
X625307Y499796D01*
X622198Y496687D01*
X619320Y496687D01*
X619230Y496673D01*
X619139Y496665D01*
X619109Y496653D01*
X619077Y496648D01*
X618997Y496605D01*
X618913Y496569D01*
X618881Y496543D01*
X618860Y496532D01*
X618838Y496509D01*
X618782Y496464D01*
X607026Y484708D01*
X605017Y482699D01*
X589255Y482699D01*
X589185Y482688D01*
X589113Y482686D01*
X589064Y482668D01*
X589013Y482660D01*
X588949Y482626D01*
X588882Y482601D01*
X588841Y482569D01*
X588795Y482544D01*
X588746Y482492D01*
X588690Y482448D01*
X588662Y482404D01*
X588626Y482366D01*
X588596Y482301D01*
X588557Y482241D01*
X588544Y482190D01*
X588522Y482143D01*
X588514Y482072D01*
X588497Y482002D01*
X588501Y481950D01*
X588495Y481899D01*
X588510Y481828D01*
X588516Y481757D01*
X588536Y481709D01*
X588547Y481658D01*
X588584Y481597D01*
X588612Y481531D01*
X588657Y481475D01*
X588674Y481447D01*
X588691Y481432D01*
X588717Y481400D01*
X674205Y395912D01*
X674279Y395859D01*
X674349Y395799D01*
X674379Y395787D01*
X674405Y395768D01*
X674492Y395741D01*
X674577Y395707D01*
X674618Y395703D01*
X674640Y395696D01*
X674672Y395697D01*
X674743Y395689D01*
X854530Y395689D01*
X855631Y395233D01*
X855695Y395218D01*
X855756Y395193D01*
X855839Y395184D01*
X855871Y395177D01*
X855890Y395178D01*
X855923Y395175D01*
X912829Y395175D01*
X918058Y393009D01*
X922059Y389008D01*
X924225Y383779D01*
X924225Y378121D01*
X922059Y372892D01*
X918058Y368891D01*
X912829Y366725D01*
X849385Y366725D01*
X848284Y367181D01*
X848220Y367196D01*
X848160Y367221D01*
X848077Y367230D01*
X848045Y367237D01*
X848025Y367236D01*
X847993Y367239D01*
X773604Y367239D01*
X773533Y367228D01*
X773461Y367226D01*
X773412Y367208D01*
X773361Y367200D01*
X773298Y367166D01*
X773230Y367141D01*
X773190Y367109D01*
X773144Y367084D01*
X773094Y367032D01*
X773038Y366988D01*
X773010Y366944D01*
X772974Y366906D01*
X772944Y366841D01*
X772905Y366781D01*
X772893Y366730D01*
X772871Y366683D01*
X772863Y366612D01*
X772845Y366542D01*
X772849Y366490D01*
X772844Y366439D01*
X772859Y366368D01*
X772864Y366297D01*
X772885Y366249D01*
X772896Y366198D01*
X772933Y366137D01*
X772961Y366071D01*
X773005Y366015D01*
X773022Y365987D01*
X773040Y365972D01*
X773065Y365940D01*
X773737Y365268D01*
X774965Y362304D01*
X774965Y359096D01*
X773737Y356132D01*
X771468Y353863D01*
X768504Y352635D01*
X765296Y352635D01*
X762332Y353863D01*
X760063Y356132D01*
X758835Y359096D01*
X758835Y362304D01*
X760063Y365268D01*
X760735Y365940D01*
X760776Y365998D01*
X760826Y366050D01*
X760848Y366097D01*
X760878Y366139D01*
X760899Y366208D01*
X760929Y366273D01*
X760935Y366325D01*
X760950Y366375D01*
X760949Y366446D01*
X760956Y366517D01*
X760945Y366568D01*
X760944Y366620D01*
X760919Y366688D01*
X760904Y366758D01*
X760877Y366803D01*
X760860Y366851D01*
X760815Y366907D01*
X760778Y366969D01*
X760738Y367003D01*
X760706Y367043D01*
X760646Y367082D01*
X760591Y367129D01*
X760543Y367148D01*
X760499Y367176D01*
X760429Y367194D01*
X760363Y367221D01*
X760292Y367229D01*
X760260Y367237D01*
X760237Y367235D01*
X760196Y367239D01*
X665707Y367239D01*
X660478Y369405D01*
X656370Y373513D01*
X571178Y458705D01*
X571120Y458747D01*
X571068Y458796D01*
X571021Y458818D01*
X570979Y458848D01*
X570910Y458870D01*
X570845Y458900D01*
X570793Y458906D01*
X570743Y458921D01*
X570672Y458919D01*
X570601Y458927D01*
X570550Y458916D01*
X570498Y458914D01*
X570430Y458890D01*
X570360Y458875D01*
X570316Y458848D01*
X570267Y458830D01*
X570211Y458785D01*
X570149Y458748D01*
X570115Y458709D01*
X570075Y458676D01*
X570036Y458616D01*
X569989Y458562D01*
X569970Y458513D01*
X569942Y458469D01*
X569924Y458400D01*
X569897Y458333D01*
X569889Y458262D01*
X569881Y458231D01*
X569883Y458208D01*
X569879Y458167D01*
X569879Y445908D01*
X567870Y443899D01*
X566101Y442130D01*
X564092Y440121D01*
X554861Y440121D01*
X508254Y486728D01*
X508180Y486781D01*
X508110Y486841D01*
X508080Y486853D01*
X508054Y486872D01*
X507967Y486899D01*
X507882Y486933D01*
X507841Y486937D01*
X507819Y486944D01*
X507787Y486943D01*
X507716Y486951D01*
X464771Y486951D01*
X464681Y486937D01*
X464590Y486929D01*
X464561Y486917D01*
X464529Y486912D01*
X464448Y486869D01*
X464364Y486833D01*
X464332Y486807D01*
X464311Y486796D01*
X464289Y486773D01*
X464233Y486728D01*
X462198Y484693D01*
X457802Y484693D01*
X454693Y487802D01*
X454693Y492198D01*
X457802Y495307D01*
X462198Y495307D01*
X464233Y493272D01*
X464307Y493219D01*
X464377Y493159D01*
X464407Y493147D01*
X464433Y493128D01*
X464520Y493101D01*
X464605Y493067D01*
X464646Y493063D01*
X464668Y493056D01*
X464700Y493057D01*
X464771Y493049D01*
X506561Y493049D01*
X506632Y493060D01*
X506704Y493062D01*
X506753Y493080D01*
X506804Y493088D01*
X506867Y493122D01*
X506935Y493147D01*
X506976Y493179D01*
X507022Y493204D01*
X507071Y493255D01*
X507127Y493300D01*
X507155Y493344D01*
X507191Y493382D01*
X507221Y493447D01*
X507260Y493507D01*
X507273Y493558D01*
X507295Y493605D01*
X507302Y493676D01*
X507320Y493746D01*
X507316Y493798D01*
X507322Y493849D01*
X507306Y493920D01*
X507301Y493991D01*
X507280Y494039D01*
X507269Y494090D01*
X507233Y494151D01*
X507204Y494217D01*
X507160Y494273D01*
X507143Y494301D01*
X507125Y494316D01*
X507100Y494348D01*
X456264Y545184D01*
X456206Y545225D01*
X456154Y545275D01*
X456107Y545297D01*
X456065Y545327D01*
X455996Y545348D01*
X455931Y545379D01*
X455879Y545384D01*
X455829Y545400D01*
X455758Y545398D01*
X455687Y545406D01*
X455636Y545395D01*
X455584Y545393D01*
X455516Y545369D01*
X455446Y545353D01*
X455402Y545327D01*
X455353Y545309D01*
X455297Y545264D01*
X455235Y545227D01*
X455201Y545188D01*
X455161Y545155D01*
X455122Y545095D01*
X455075Y545040D01*
X455056Y544992D01*
X455028Y544948D01*
X455010Y544879D01*
X454983Y544812D01*
X454975Y544741D01*
X454967Y544710D01*
X454969Y544686D01*
X454965Y544645D01*
X454965Y543696D01*
X453737Y540732D01*
X451468Y538463D01*
X451435Y538449D01*
X451335Y538387D01*
X451235Y538328D01*
X451231Y538323D01*
X451226Y538320D01*
X451151Y538230D01*
X451075Y538141D01*
X451073Y538135D01*
X451069Y538130D01*
X451027Y538022D01*
X450983Y537913D01*
X450982Y537905D01*
X450981Y537900D01*
X450980Y537882D01*
X450965Y537746D01*
X450965Y360399D01*
X450979Y360309D01*
X450987Y360218D01*
X450999Y360188D01*
X451004Y360156D01*
X451047Y360076D01*
X451083Y359992D01*
X451109Y359960D01*
X451120Y359939D01*
X451143Y359917D01*
X451188Y359861D01*
X467461Y343588D01*
X467535Y343535D01*
X467604Y343475D01*
X467634Y343463D01*
X467660Y343444D01*
X467747Y343417D01*
X467832Y343383D01*
X467873Y343379D01*
X467895Y343372D01*
X467928Y343373D01*
X467999Y343365D01*
X468504Y343365D01*
X471468Y342137D01*
X473737Y339868D01*
X473751Y339835D01*
X473813Y339734D01*
X473872Y339635D01*
X473877Y339631D01*
X473880Y339626D01*
X473970Y339551D01*
X474059Y339475D01*
X474065Y339473D01*
X474070Y339469D01*
X474178Y339427D01*
X474287Y339383D01*
X474295Y339382D01*
X474300Y339381D01*
X474318Y339380D01*
X474454Y339365D01*
X525956Y339365D01*
X533736Y331585D01*
X533794Y331543D01*
X533846Y331494D01*
X533893Y331472D01*
X533935Y331442D01*
X534004Y331421D01*
X534069Y331390D01*
X534121Y331385D01*
X534171Y331369D01*
X534242Y331371D01*
X534313Y331363D01*
X534364Y331374D01*
X534416Y331376D01*
X534484Y331400D01*
X534554Y331416D01*
X534599Y331442D01*
X534647Y331460D01*
X534703Y331505D01*
X534765Y331542D01*
X534799Y331581D01*
X534839Y331614D01*
X534878Y331674D01*
X534925Y331729D01*
X534944Y331777D01*
X534972Y331821D01*
X534990Y331890D01*
X535017Y331957D01*
X535025Y332028D01*
X535033Y332059D01*
X535031Y332083D01*
X535035Y332124D01*
X535035Y342472D01*
X535928Y343365D01*
X550272Y343365D01*
X551165Y342472D01*
X551165Y332124D01*
X551176Y332053D01*
X551178Y331981D01*
X551196Y331932D01*
X551204Y331881D01*
X551238Y331817D01*
X551263Y331750D01*
X551295Y331709D01*
X551320Y331663D01*
X551372Y331614D01*
X551416Y331558D01*
X551460Y331530D01*
X551498Y331494D01*
X551563Y331464D01*
X551623Y331425D01*
X551674Y331412D01*
X551721Y331390D01*
X551792Y331383D01*
X551862Y331365D01*
X551914Y331369D01*
X551965Y331363D01*
X552036Y331379D01*
X552107Y331384D01*
X552155Y331404D01*
X552206Y331416D01*
X552267Y331452D01*
X552333Y331480D01*
X552389Y331525D01*
X552417Y331542D01*
X552432Y331560D01*
X552464Y331585D01*
X560244Y339365D01*
X609346Y339365D01*
X609460Y339384D01*
X609577Y339401D01*
X609582Y339403D01*
X609589Y339404D01*
X609691Y339459D01*
X609796Y339512D01*
X609800Y339517D01*
X609806Y339520D01*
X609886Y339604D01*
X609968Y339688D01*
X609972Y339694D01*
X609975Y339698D01*
X609983Y339715D01*
X610049Y339835D01*
X610063Y339868D01*
X612332Y342137D01*
X615296Y343365D01*
X618504Y343365D01*
X621468Y342137D01*
X623737Y339868D01*
X623751Y339835D01*
X623813Y339734D01*
X623872Y339635D01*
X623877Y339631D01*
X623880Y339626D01*
X623970Y339551D01*
X624059Y339475D01*
X624065Y339473D01*
X624070Y339469D01*
X624178Y339427D01*
X624287Y339383D01*
X624295Y339382D01*
X624300Y339381D01*
X624318Y339380D01*
X624454Y339365D01*
X675956Y339365D01*
X683736Y331585D01*
X683794Y331543D01*
X683846Y331494D01*
X683893Y331472D01*
X683935Y331442D01*
X684004Y331421D01*
X684069Y331390D01*
X684121Y331385D01*
X684171Y331369D01*
X684242Y331371D01*
X684313Y331363D01*
X684364Y331374D01*
X684416Y331376D01*
X684484Y331400D01*
X684554Y331416D01*
X684599Y331442D01*
X684647Y331460D01*
X684703Y331505D01*
X684765Y331542D01*
X684799Y331581D01*
X684839Y331614D01*
X684878Y331674D01*
X684925Y331729D01*
X684944Y331777D01*
X684972Y331821D01*
X684990Y331890D01*
X685017Y331957D01*
X685025Y332028D01*
X685033Y332059D01*
X685031Y332083D01*
X685035Y332124D01*
X685035Y342472D01*
X685928Y343365D01*
X700272Y343365D01*
X701165Y342472D01*
X701165Y332124D01*
X701176Y332053D01*
X701178Y331981D01*
X701196Y331932D01*
X701204Y331881D01*
X701238Y331817D01*
X701263Y331750D01*
X701295Y331709D01*
X701320Y331663D01*
X701372Y331614D01*
X701416Y331558D01*
X701460Y331530D01*
X701498Y331494D01*
X701563Y331464D01*
X701623Y331425D01*
X701674Y331412D01*
X701721Y331390D01*
X701792Y331383D01*
X701862Y331365D01*
X701914Y331369D01*
X701965Y331363D01*
X702036Y331379D01*
X702107Y331384D01*
X702155Y331404D01*
X702206Y331416D01*
X702267Y331452D01*
X702333Y331480D01*
X702389Y331525D01*
X702417Y331542D01*
X702432Y331560D01*
X702464Y331585D01*
X710244Y339365D01*
X759346Y339365D01*
X759460Y339384D01*
X759577Y339401D01*
X759582Y339403D01*
X759589Y339404D01*
X759691Y339459D01*
X759796Y339512D01*
X759800Y339517D01*
X759806Y339520D01*
X759886Y339604D01*
X759968Y339688D01*
X759972Y339694D01*
X759975Y339698D01*
X759983Y339715D01*
X760049Y339835D01*
X760063Y339868D01*
X762332Y342137D01*
X765296Y343365D01*
X768504Y343365D01*
X771468Y342137D01*
X773737Y339868D01*
X774965Y336904D01*
X774965Y333696D01*
X773737Y330732D01*
X771468Y328463D01*
X768504Y327235D01*
X765296Y327235D01*
X765262Y327249D01*
X765149Y327276D01*
X765035Y327304D01*
X765029Y327304D01*
X765023Y327305D01*
X764906Y327294D01*
X764790Y327285D01*
X764784Y327283D01*
X764778Y327282D01*
X764670Y327234D01*
X764564Y327189D01*
X764558Y327184D01*
X764553Y327182D01*
X764539Y327170D01*
X764433Y327084D01*
X744288Y306939D01*
X744235Y306865D01*
X744175Y306796D01*
X744163Y306766D01*
X744144Y306740D01*
X744117Y306653D01*
X744083Y306568D01*
X744079Y306527D01*
X744072Y306504D01*
X744073Y306472D01*
X744065Y306401D01*
X744065Y283755D01*
X744079Y283665D01*
X744087Y283574D01*
X744099Y283545D01*
X744104Y283513D01*
X744147Y283432D01*
X744183Y283348D01*
X744209Y283316D01*
X744220Y283295D01*
X744243Y283273D01*
X744288Y283217D01*
X745307Y282198D01*
X745307Y277802D01*
X742198Y274693D01*
X737802Y274693D01*
X734693Y277802D01*
X734693Y282198D01*
X735712Y283217D01*
X735765Y283291D01*
X735825Y283361D01*
X735837Y283391D01*
X735856Y283417D01*
X735883Y283504D01*
X735917Y283589D01*
X735921Y283630D01*
X735928Y283652D01*
X735927Y283684D01*
X735935Y283755D01*
X735935Y310084D01*
X755787Y329936D01*
X755829Y329994D01*
X755879Y330046D01*
X755901Y330093D01*
X755931Y330135D01*
X755952Y330204D01*
X755982Y330269D01*
X755988Y330321D01*
X756003Y330371D01*
X756001Y330442D01*
X756009Y330513D01*
X755998Y330564D01*
X755997Y330616D01*
X755972Y330684D01*
X755957Y330754D01*
X755930Y330799D01*
X755912Y330847D01*
X755868Y330903D01*
X755831Y330965D01*
X755791Y330999D01*
X755759Y331039D01*
X755698Y331078D01*
X755644Y331125D01*
X755596Y331144D01*
X755552Y331172D01*
X755482Y331190D01*
X755416Y331217D01*
X755344Y331225D01*
X755313Y331233D01*
X755290Y331231D01*
X755249Y331235D01*
X713926Y331235D01*
X713836Y331221D01*
X713745Y331213D01*
X713716Y331201D01*
X713684Y331196D01*
X713603Y331153D01*
X713519Y331117D01*
X713487Y331091D01*
X713466Y331080D01*
X713444Y331057D01*
X713388Y331012D01*
X703007Y320631D01*
X683193Y320631D01*
X672812Y331012D01*
X672738Y331065D01*
X672669Y331125D01*
X672638Y331137D01*
X672612Y331156D01*
X672525Y331183D01*
X672440Y331217D01*
X672399Y331221D01*
X672377Y331228D01*
X672345Y331227D01*
X672274Y331235D01*
X624454Y331235D01*
X624340Y331216D01*
X624223Y331199D01*
X624218Y331197D01*
X624211Y331196D01*
X624109Y331141D01*
X624004Y331088D01*
X624000Y331083D01*
X623994Y331080D01*
X623914Y330996D01*
X623832Y330912D01*
X623828Y330906D01*
X623825Y330902D01*
X623817Y330885D01*
X623751Y330765D01*
X623737Y330732D01*
X621468Y328463D01*
X618504Y327235D01*
X615296Y327235D01*
X612332Y328463D01*
X610063Y330732D01*
X610049Y330765D01*
X609987Y330865D01*
X609928Y330965D01*
X609923Y330969D01*
X609920Y330974D01*
X609830Y331048D01*
X609741Y331125D01*
X609735Y331127D01*
X609730Y331131D01*
X609622Y331173D01*
X609513Y331217D01*
X609505Y331218D01*
X609500Y331219D01*
X609482Y331220D01*
X609346Y331235D01*
X563926Y331235D01*
X563836Y331221D01*
X563745Y331213D01*
X563716Y331201D01*
X563684Y331196D01*
X563603Y331153D01*
X563519Y331117D01*
X563487Y331091D01*
X563466Y331080D01*
X563444Y331057D01*
X563388Y331012D01*
X553007Y320631D01*
X533193Y320631D01*
X522812Y331012D01*
X522738Y331065D01*
X522669Y331125D01*
X522638Y331137D01*
X522612Y331156D01*
X522525Y331183D01*
X522440Y331217D01*
X522399Y331221D01*
X522377Y331228D01*
X522345Y331227D01*
X522274Y331235D01*
X474454Y331235D01*
X474340Y331216D01*
X474223Y331199D01*
X474218Y331197D01*
X474211Y331196D01*
X474109Y331141D01*
X474004Y331088D01*
X474000Y331083D01*
X473994Y331080D01*
X473914Y330996D01*
X473832Y330912D01*
X473828Y330906D01*
X473825Y330902D01*
X473817Y330885D01*
X473751Y330765D01*
X473737Y330732D01*
X471468Y328463D01*
X468504Y327235D01*
X465296Y327235D01*
X462332Y328463D01*
X460063Y330732D01*
X460049Y330765D01*
X459987Y330865D01*
X459928Y330965D01*
X459923Y330969D01*
X459920Y330974D01*
X459830Y331048D01*
X459741Y331125D01*
X459735Y331127D01*
X459730Y331131D01*
X459622Y331173D01*
X459513Y331217D01*
X459505Y331218D01*
X459500Y331219D01*
X459482Y331220D01*
X459346Y331235D01*
X457299Y331235D01*
X457209Y331221D01*
X457118Y331213D01*
X457088Y331201D01*
X457056Y331196D01*
X456976Y331153D01*
X456892Y331117D01*
X456860Y331091D01*
X456839Y331080D01*
X456817Y331057D01*
X456761Y331012D01*
X435530Y309781D01*
X435477Y309707D01*
X435417Y309638D01*
X435405Y309608D01*
X435386Y309582D01*
X435359Y309495D01*
X435325Y309410D01*
X435321Y309369D01*
X435314Y309346D01*
X435315Y309314D01*
X435307Y309243D01*
X435307Y307802D01*
X432198Y304693D01*
X427802Y304693D01*
X424693Y307802D01*
X424693Y312198D01*
X427802Y315307D01*
X429243Y315307D01*
X429333Y315321D01*
X429424Y315329D01*
X429454Y315341D01*
X429486Y315346D01*
X429566Y315389D01*
X429650Y315425D01*
X429682Y315451D01*
X429703Y315462D01*
X429725Y315485D01*
X429781Y315530D01*
X453616Y339365D01*
X458349Y339365D01*
X458420Y339376D01*
X458492Y339378D01*
X458540Y339396D01*
X458592Y339404D01*
X458655Y339438D01*
X458723Y339463D01*
X458763Y339495D01*
X458809Y339520D01*
X458859Y339572D01*
X458915Y339616D01*
X458943Y339660D01*
X458979Y339698D01*
X459009Y339763D01*
X459048Y339823D01*
X459060Y339874D01*
X459082Y339921D01*
X459090Y339992D01*
X459108Y340062D01*
X459104Y340114D01*
X459109Y340165D01*
X459094Y340236D01*
X459088Y340307D01*
X459068Y340355D01*
X459057Y340406D01*
X459020Y340467D01*
X458992Y340533D01*
X458947Y340589D01*
X458931Y340617D01*
X458913Y340632D01*
X458887Y340664D01*
X442835Y356716D01*
X442835Y537746D01*
X442817Y537860D01*
X442799Y537977D01*
X442797Y537982D01*
X442796Y537989D01*
X442741Y538091D01*
X442688Y538196D01*
X442683Y538200D01*
X442680Y538206D01*
X442596Y538286D01*
X442512Y538368D01*
X442506Y538372D01*
X442502Y538375D01*
X442485Y538383D01*
X442365Y538449D01*
X442332Y538463D01*
X440063Y540732D01*
X438835Y543696D01*
X438835Y546904D01*
X440063Y549868D01*
X440735Y550540D01*
X440776Y550598D01*
X440826Y550650D01*
X440848Y550697D01*
X440878Y550739D01*
X440899Y550808D01*
X440929Y550873D01*
X440935Y550925D01*
X440950Y550975D01*
X440949Y551046D01*
X440956Y551117D01*
X440945Y551168D01*
X440944Y551220D01*
X440919Y551288D01*
X440904Y551358D01*
X440877Y551403D01*
X440860Y551451D01*
X440815Y551507D01*
X440778Y551569D01*
X440738Y551603D01*
X440706Y551643D01*
X440646Y551682D01*
X440591Y551729D01*
X440543Y551748D01*
X440499Y551776D01*
X440429Y551794D01*
X440363Y551821D01*
X440292Y551829D01*
X440260Y551837D01*
X440237Y551835D01*
X440196Y551839D01*
X403849Y551839D01*
X401218Y554470D01*
X401144Y554523D01*
X401075Y554583D01*
X401045Y554595D01*
X401018Y554614D01*
X400931Y554641D01*
X400847Y554675D01*
X400806Y554679D01*
X400783Y554686D01*
X400751Y554685D01*
X400680Y554693D01*
X397802Y554693D01*
X394693Y557802D01*
X394693Y562198D01*
X397802Y565307D01*
X402198Y565307D01*
X405307Y562198D01*
X405307Y559320D01*
X405321Y559230D01*
X405329Y559139D01*
X405341Y559109D01*
X405346Y559077D01*
X405389Y558997D01*
X405425Y558913D01*
X405451Y558881D01*
X405462Y558860D01*
X405485Y558838D01*
X405530Y558782D01*
X406152Y558160D01*
X406226Y558107D01*
X406295Y558047D01*
X406325Y558035D01*
X406352Y558016D01*
X406439Y557989D01*
X406523Y557955D01*
X406564Y557951D01*
X406587Y557944D01*
X406619Y557945D01*
X406690Y557937D01*
X439954Y557937D01*
X440025Y557948D01*
X440097Y557950D01*
X440146Y557968D01*
X440197Y557976D01*
X440260Y558010D01*
X440328Y558035D01*
X440368Y558067D01*
X440415Y558092D01*
X440464Y558144D01*
X440520Y558188D01*
X440548Y558232D01*
X440584Y558270D01*
X440614Y558335D01*
X440653Y558395D01*
X440666Y558446D01*
X440688Y558493D01*
X440695Y558564D01*
X440713Y558634D01*
X440709Y558686D01*
X440715Y558737D01*
X440699Y558808D01*
X440694Y558879D01*
X440673Y558927D01*
X440662Y558978D01*
X440626Y559039D01*
X440597Y559105D01*
X440553Y559161D01*
X440536Y559189D01*
X440518Y559204D01*
X440493Y559236D01*
X439657Y560072D01*
X433001Y566728D01*
X432927Y566781D01*
X432857Y566841D01*
X432827Y566853D01*
X432801Y566872D01*
X432714Y566899D01*
X432629Y566933D01*
X432588Y566937D01*
X432566Y566944D01*
X432534Y566943D01*
X432462Y566951D01*
X414771Y566951D01*
X414681Y566937D01*
X414590Y566929D01*
X414561Y566917D01*
X414529Y566912D01*
X414448Y566869D01*
X414364Y566833D01*
X414332Y566807D01*
X414311Y566796D01*
X414289Y566773D01*
X414233Y566728D01*
X412198Y564693D01*
X407802Y564693D01*
X404693Y567802D01*
X404693Y572198D01*
X407802Y575307D01*
X412198Y575307D01*
X414233Y573272D01*
X414307Y573219D01*
X414377Y573159D01*
X414407Y573147D01*
X414433Y573128D01*
X414520Y573101D01*
X414605Y573067D01*
X414646Y573063D01*
X414668Y573056D01*
X414700Y573057D01*
X414771Y573049D01*
X435303Y573049D01*
X437536Y570816D01*
X437594Y570774D01*
X437646Y570725D01*
X437693Y570703D01*
X437735Y570673D01*
X437804Y570652D01*
X437869Y570621D01*
X437921Y570616D01*
X437971Y570600D01*
X438042Y570602D01*
X438113Y570594D01*
X438164Y570605D01*
X438216Y570607D01*
X438284Y570631D01*
X438354Y570647D01*
X438399Y570673D01*
X438447Y570691D01*
X438503Y570736D01*
X438565Y570773D01*
X438599Y570812D01*
X438639Y570845D01*
X438678Y570905D01*
X438725Y570960D01*
X438744Y571008D01*
X438772Y571052D01*
X438790Y571121D01*
X438817Y571188D01*
X438825Y571259D01*
X438833Y571290D01*
X438831Y571314D01*
X438835Y571355D01*
X438835Y572304D01*
X440063Y575268D01*
X440805Y576010D01*
X440817Y576027D01*
X440832Y576039D01*
X440862Y576086D01*
X440878Y576103D01*
X440891Y576130D01*
X440949Y576210D01*
X440955Y576229D01*
X440965Y576246D01*
X440991Y576346D01*
X441021Y576445D01*
X441021Y576465D01*
X441025Y576484D01*
X441017Y576588D01*
X441015Y576691D01*
X441008Y576710D01*
X441006Y576730D01*
X440966Y576825D01*
X440930Y576922D01*
X440918Y576938D01*
X440910Y576956D01*
X440805Y577087D01*
X440368Y577524D01*
X440294Y577578D01*
X440224Y577637D01*
X440194Y577649D01*
X440168Y577668D01*
X440081Y577695D01*
X439996Y577729D01*
X439955Y577733D01*
X439933Y577740D01*
X439901Y577739D01*
X439830Y577747D01*
X375567Y577747D01*
X375477Y577733D01*
X375386Y577725D01*
X375357Y577713D01*
X375325Y577708D01*
X375244Y577665D01*
X375160Y577629D01*
X375128Y577603D01*
X375107Y577592D01*
X375085Y577569D01*
X375029Y577524D01*
X372198Y574693D01*
X367802Y574693D01*
X364693Y577802D01*
X364693Y582198D01*
X367802Y585307D01*
X372198Y585307D01*
X373437Y584068D01*
X373511Y584015D01*
X373581Y583955D01*
X373611Y583943D01*
X373637Y583924D01*
X373724Y583897D01*
X373809Y583863D01*
X373850Y583859D01*
X373872Y583852D01*
X373904Y583853D01*
X373975Y583845D01*
X440422Y583845D01*
X440512Y583859D01*
X440603Y583867D01*
X440632Y583879D01*
X440664Y583884D01*
X440745Y583927D01*
X440829Y583963D01*
X440861Y583989D01*
X440882Y584000D01*
X440904Y584023D01*
X440960Y584068D01*
X441245Y584353D01*
X589007Y584353D01*
X589098Y584367D01*
X589188Y584375D01*
X589218Y584387D01*
X589250Y584392D01*
X589331Y584435D01*
X589415Y584471D01*
X589447Y584497D01*
X589468Y584508D01*
X589490Y584531D01*
X589546Y584576D01*
X654783Y649813D01*
X657729Y649813D01*
X658270Y649272D01*
X658344Y649219D01*
X658414Y649159D01*
X658444Y649147D01*
X658470Y649128D01*
X658557Y649101D01*
X658642Y649067D01*
X658683Y649063D01*
X658705Y649056D01*
X658737Y649057D01*
X658809Y649049D01*
X719229Y649049D01*
X719319Y649063D01*
X719410Y649071D01*
X719439Y649083D01*
X719471Y649088D01*
X719552Y649131D01*
X719636Y649167D01*
X719668Y649193D01*
X719689Y649204D01*
X719711Y649227D01*
X719767Y649272D01*
X721802Y651307D01*
X726198Y651307D01*
X729307Y648198D01*
X729307Y643802D01*
X726198Y640693D01*
X721802Y640693D01*
X719767Y642728D01*
X719693Y642781D01*
X719623Y642841D01*
X719593Y642853D01*
X719567Y642872D01*
X719480Y642899D01*
X719395Y642933D01*
X719354Y642937D01*
X719332Y642944D01*
X719300Y642943D01*
X719229Y642951D01*
X709003Y642951D01*
X708933Y642940D01*
X708861Y642938D01*
X708812Y642920D01*
X708761Y642912D01*
X708697Y642878D01*
X708630Y642853D01*
X708589Y642821D01*
X708543Y642796D01*
X708494Y642744D01*
X708438Y642700D01*
X708410Y642656D01*
X708374Y642618D01*
X708344Y642553D01*
X708305Y642493D01*
X708292Y642442D01*
X708270Y642395D01*
X708262Y642324D01*
X708245Y642254D01*
X708249Y642202D01*
X708243Y642151D01*
X708258Y642080D01*
X708264Y642009D01*
X708284Y641961D01*
X708295Y641910D01*
X708332Y641849D01*
X708360Y641783D01*
X708405Y641727D01*
X708422Y641699D01*
X708439Y641684D01*
X708465Y641652D01*
X744205Y605912D01*
X744279Y605859D01*
X744349Y605799D01*
X744379Y605787D01*
X744405Y605768D01*
X744492Y605741D01*
X744577Y605707D01*
X744618Y605703D01*
X744640Y605696D01*
X744672Y605697D01*
X744743Y605689D01*
X758330Y605689D01*
X763558Y603523D01*
X787951Y579131D01*
X792059Y575022D01*
X794225Y569794D01*
X794225Y546207D01*
X794239Y546117D01*
X794247Y546026D01*
X794259Y545997D01*
X794264Y545965D01*
X794307Y545884D01*
X794343Y545800D01*
X794369Y545768D01*
X794380Y545747D01*
X794403Y545725D01*
X794448Y545669D01*
X808745Y531372D01*
X808819Y531319D01*
X808889Y531259D01*
X808919Y531247D01*
X808945Y531228D01*
X809032Y531201D01*
X809117Y531167D01*
X809158Y531163D01*
X809180Y531156D01*
X809212Y531157D01*
X809283Y531149D01*
X887367Y531149D01*
X887457Y531163D01*
X887548Y531171D01*
X887577Y531183D01*
X887609Y531188D01*
X887690Y531231D01*
X887774Y531267D01*
X887806Y531293D01*
X887827Y531304D01*
X887849Y531327D01*
X887905Y531372D01*
X898767Y542233D01*
X898778Y542250D01*
X898794Y542262D01*
X898850Y542349D01*
X898910Y542433D01*
X898916Y542452D01*
X898927Y542469D01*
X898952Y542569D01*
X898982Y542668D01*
X898982Y542688D01*
X898987Y542707D01*
X898979Y542810D01*
X898976Y542914D01*
X898969Y542933D01*
X898968Y542953D01*
X898927Y543047D01*
X898892Y543145D01*
X898879Y543161D01*
X898871Y543179D01*
X898767Y543310D01*
X799092Y642984D01*
X799018Y643037D01*
X798949Y643097D01*
X798919Y643109D01*
X798893Y643128D01*
X798806Y643155D01*
X798721Y643189D01*
X798680Y643193D01*
X798657Y643200D01*
X798625Y643199D01*
X798554Y643207D01*
X755027Y643207D01*
X754937Y643193D01*
X754846Y643185D01*
X754817Y643173D01*
X754785Y643168D01*
X754704Y643125D01*
X754620Y643089D01*
X754588Y643063D01*
X754567Y643052D01*
X754545Y643029D01*
X754489Y642984D01*
X752198Y640693D01*
X747802Y640693D01*
X744693Y643802D01*
X744693Y648198D01*
X747802Y651307D01*
X752198Y651307D01*
X753977Y649528D01*
X754051Y649475D01*
X754121Y649415D01*
X754151Y649403D01*
X754177Y649384D01*
X754264Y649357D01*
X754349Y649323D01*
X754390Y649319D01*
X754412Y649312D01*
X754444Y649313D01*
X754515Y649305D01*
X790934Y649305D01*
X791005Y649316D01*
X791076Y649318D01*
X791125Y649336D01*
X791177Y649344D01*
X791240Y649378D01*
X791307Y649403D01*
X791348Y649435D01*
X791394Y649460D01*
X791443Y649511D01*
X791499Y649556D01*
X791528Y649600D01*
X791564Y649638D01*
X791594Y649703D01*
X791632Y649763D01*
X791645Y649814D01*
X791667Y649861D01*
X791675Y649932D01*
X791693Y650002D01*
X791688Y650054D01*
X791694Y650105D01*
X791679Y650176D01*
X791673Y650247D01*
X791653Y650295D01*
X791642Y650346D01*
X791605Y650407D01*
X791577Y650473D01*
X791532Y650529D01*
X791516Y650557D01*
X791498Y650572D01*
X791472Y650604D01*
X765538Y676538D01*
X765464Y676591D01*
X765395Y676651D01*
X765365Y676663D01*
X765339Y676682D01*
X765252Y676709D01*
X765167Y676743D01*
X765126Y676747D01*
X765103Y676754D01*
X765071Y676753D01*
X765000Y676761D01*
X319000Y676761D01*
X318980Y676758D01*
X318961Y676760D01*
X318859Y676738D01*
X318757Y676722D01*
X318740Y676712D01*
X318720Y676708D01*
X318631Y676655D01*
X318540Y676606D01*
X318526Y676592D01*
X318509Y676582D01*
X318442Y676503D01*
X318371Y676428D01*
X318362Y676410D01*
X318349Y676395D01*
X318310Y676299D01*
X318267Y676205D01*
X318265Y676185D01*
X318257Y676167D01*
X318239Y676000D01*
X318239Y524388D01*
X318250Y524317D01*
X318252Y524246D01*
X318270Y524197D01*
X318279Y524145D01*
X318312Y524082D01*
X318337Y524015D01*
X318369Y523974D01*
X318394Y523928D01*
X318446Y523879D01*
X318490Y523823D01*
X318534Y523794D01*
X318572Y523759D01*
X318637Y523728D01*
X318697Y523690D01*
X318748Y523677D01*
X318795Y523655D01*
X318866Y523647D01*
X318936Y523630D01*
X318988Y523634D01*
X319039Y523628D01*
X319110Y523643D01*
X319181Y523649D01*
X319229Y523669D01*
X319280Y523680D01*
X319341Y523717D01*
X319407Y523745D01*
X319463Y523790D01*
X319491Y523806D01*
X319506Y523824D01*
X319538Y523850D01*
X334470Y538782D01*
X334523Y538856D01*
X334583Y538925D01*
X334595Y538955D01*
X334614Y538982D01*
X334641Y539069D01*
X334675Y539153D01*
X334679Y539194D01*
X334686Y539217D01*
X334685Y539249D01*
X334693Y539320D01*
X334693Y542198D01*
X337802Y545307D01*
X342198Y545307D01*
X345307Y542198D01*
X345307Y537802D01*
X342198Y534693D01*
X339320Y534693D01*
X339230Y534679D01*
X339139Y534671D01*
X339109Y534659D01*
X339077Y534654D01*
X338997Y534611D01*
X338913Y534575D01*
X338881Y534549D01*
X338860Y534538D01*
X338838Y534515D01*
X338782Y534470D01*
X318462Y514150D01*
X318409Y514076D01*
X318349Y514007D01*
X318337Y513977D01*
X318318Y513950D01*
X318291Y513863D01*
X318257Y513779D01*
X318253Y513738D01*
X318246Y513715D01*
X318247Y513683D01*
X318239Y513612D01*
X318239Y469756D01*
X318242Y469736D01*
X318240Y469717D01*
X318262Y469615D01*
X318279Y469513D01*
X318288Y469496D01*
X318292Y469476D01*
X318345Y469387D01*
X318394Y469296D01*
X318408Y469282D01*
X318418Y469265D01*
X318497Y469198D01*
X318572Y469126D01*
X318590Y469118D01*
X318605Y469105D01*
X318701Y469066D01*
X318795Y469023D01*
X318815Y469021D01*
X318833Y469013D01*
X319000Y468995D01*
X324709Y468995D01*
X324799Y469009D01*
X324890Y469017D01*
X324919Y469029D01*
X324951Y469034D01*
X325032Y469077D01*
X325116Y469113D01*
X325148Y469139D01*
X325169Y469150D01*
X325191Y469173D01*
X325247Y469218D01*
X325908Y469879D01*
X344433Y469879D01*
X383049Y431263D01*
X383049Y311237D01*
X383063Y311147D01*
X383071Y311056D01*
X383083Y311027D01*
X383088Y310995D01*
X383131Y310914D01*
X383167Y310830D01*
X383193Y310798D01*
X383204Y310777D01*
X383227Y310755D01*
X383272Y310699D01*
X398252Y295718D01*
X398326Y295665D01*
X398396Y295606D01*
X398426Y295594D01*
X398452Y295575D01*
X398539Y295548D01*
X398624Y295514D01*
X398665Y295509D01*
X398687Y295503D01*
X398719Y295503D01*
X398791Y295495D01*
X402387Y295495D01*
X405495Y292387D01*
X405495Y287991D01*
X403043Y285538D01*
X403032Y285522D01*
X403016Y285510D01*
X402960Y285422D01*
X402900Y285339D01*
X402894Y285320D01*
X402883Y285303D01*
X402858Y285202D01*
X402827Y285103D01*
X402828Y285084D01*
X402823Y285064D01*
X402831Y284961D01*
X402834Y284858D01*
X402840Y284839D01*
X402842Y284819D01*
X402882Y284724D01*
X402918Y284627D01*
X402931Y284611D01*
X402938Y284593D01*
X403043Y284462D01*
X405307Y282198D01*
X405307Y277802D01*
X402198Y274693D01*
X397802Y274693D01*
X394693Y277802D01*
X394693Y279961D01*
X394679Y280052D01*
X394671Y280142D01*
X394659Y280172D01*
X394654Y280204D01*
X394611Y280285D01*
X394575Y280369D01*
X394549Y280401D01*
X394538Y280422D01*
X394515Y280444D01*
X394470Y280500D01*
X366443Y308527D01*
X366443Y418211D01*
X366441Y418223D01*
X366442Y418230D01*
X366434Y418268D01*
X366429Y418302D01*
X366421Y418392D01*
X366409Y418422D01*
X366404Y418454D01*
X366361Y418535D01*
X366325Y418619D01*
X366299Y418651D01*
X366288Y418672D01*
X366265Y418694D01*
X366220Y418750D01*
X328242Y456728D01*
X328168Y456781D01*
X328098Y456841D01*
X328068Y456853D01*
X328042Y456872D01*
X327955Y456899D01*
X327870Y456933D01*
X327829Y456937D01*
X327807Y456944D01*
X327775Y456943D01*
X327703Y456951D01*
X325655Y456951D01*
X325565Y456937D01*
X325474Y456929D01*
X325445Y456917D01*
X325413Y456912D01*
X325332Y456869D01*
X325248Y456833D01*
X325216Y456807D01*
X325195Y456796D01*
X325173Y456773D01*
X325117Y456728D01*
X322198Y453809D01*
X319000Y453809D01*
X318980Y453806D01*
X318961Y453808D01*
X318859Y453786D01*
X318757Y453770D01*
X318740Y453760D01*
X318720Y453756D01*
X318631Y453703D01*
X318540Y453654D01*
X318526Y453640D01*
X318509Y453630D01*
X318442Y453551D01*
X318371Y453476D01*
X318362Y453458D01*
X318349Y453443D01*
X318310Y453347D01*
X318267Y453253D01*
X318265Y453233D01*
X318257Y453215D01*
X318239Y453048D01*
X318239Y387761D01*
X279318Y387761D01*
X279298Y387758D01*
X279279Y387760D01*
X279177Y387738D01*
X279075Y387722D01*
X279058Y387712D01*
X279038Y387708D01*
X278949Y387655D01*
X278858Y387606D01*
X278844Y387592D01*
X278827Y387582D01*
X278760Y387503D01*
X278688Y387428D01*
X278680Y387410D01*
X278667Y387395D01*
X278628Y387299D01*
X278585Y387205D01*
X278583Y387185D01*
X278575Y387167D01*
X278557Y387000D01*
X278557Y343527D01*
X276250Y341220D01*
X255462Y320432D01*
X255409Y320358D01*
X255349Y320288D01*
X255337Y320258D01*
X255318Y320232D01*
X255291Y320145D01*
X255257Y320060D01*
X255253Y320019D01*
X255246Y319997D01*
X255247Y319965D01*
X255239Y319893D01*
X255239Y267761D01*
X61761Y267761D01*
X61761Y291000D01*
X61758Y291020D01*
X61760Y291039D01*
X61738Y291141D01*
X61722Y291243D01*
X61712Y291260D01*
X61708Y291280D01*
X61655Y291369D01*
X61606Y291460D01*
X61592Y291474D01*
X61582Y291491D01*
X61503Y291558D01*
X61428Y291630D01*
X61410Y291638D01*
X61395Y291651D01*
X61299Y291690D01*
X61205Y291733D01*
X61185Y291735D01*
X61167Y291743D01*
X61000Y291761D01*
X46871Y291761D01*
X46852Y291758D01*
X46832Y291760D01*
X46731Y291738D01*
X46629Y291722D01*
X46611Y291712D01*
X46592Y291708D01*
X46502Y291655D01*
X46411Y291606D01*
X46398Y291592D01*
X46380Y291582D01*
X46313Y291503D01*
X46242Y291428D01*
X46233Y291410D01*
X46220Y291395D01*
X46182Y291299D01*
X46138Y291205D01*
X46136Y291185D01*
X46129Y291167D01*
X46110Y291000D01*
X46110Y184639D01*
X46125Y184549D01*
X46132Y184458D01*
X46145Y184429D01*
X46150Y184397D01*
X46193Y184316D01*
X46228Y184232D01*
X46254Y184200D01*
X46265Y184179D01*
X46288Y184157D01*
X46333Y184101D01*
X157163Y73272D01*
X157236Y73219D01*
X157306Y73159D01*
X157336Y73147D01*
X157362Y73128D01*
X157449Y73101D01*
X157534Y73067D01*
X157575Y73063D01*
X157597Y73056D01*
X157630Y73057D01*
X157701Y73049D01*
X414439Y73049D01*
X414509Y73060D01*
X414581Y73062D01*
X414630Y73080D01*
X414681Y73088D01*
X414745Y73122D01*
X414812Y73147D01*
X414853Y73179D01*
X414899Y73204D01*
X414948Y73256D01*
X415004Y73300D01*
X415032Y73344D01*
X415068Y73382D01*
X415098Y73447D01*
X415137Y73507D01*
X415150Y73558D01*
X415172Y73605D01*
X415180Y73676D01*
X415197Y73746D01*
X415193Y73798D01*
X415199Y73849D01*
X415184Y73920D01*
X415178Y73991D01*
X415158Y74039D01*
X415147Y74090D01*
X415110Y74151D01*
X415082Y74217D01*
X415037Y74273D01*
X415020Y74301D01*
X415003Y74316D01*
X414977Y74348D01*
X414693Y74632D01*
X414693Y77510D01*
X414679Y77600D01*
X414671Y77691D01*
X414659Y77721D01*
X414654Y77753D01*
X414611Y77833D01*
X414575Y77917D01*
X414549Y77949D01*
X414538Y77970D01*
X414515Y77992D01*
X414470Y78048D01*
X398960Y93558D01*
X396951Y95567D01*
X396951Y185635D01*
X396937Y185725D01*
X396929Y185816D01*
X396917Y185846D01*
X396912Y185878D01*
X396869Y185958D01*
X396833Y186042D01*
X396807Y186074D01*
X396796Y186095D01*
X396773Y186117D01*
X396728Y186173D01*
X394896Y188005D01*
X394896Y192401D01*
X398005Y195510D01*
X402401Y195510D01*
X405510Y192401D01*
X405510Y188005D01*
X403272Y185767D01*
X403227Y185704D01*
X403200Y185676D01*
X403195Y185666D01*
X403159Y185623D01*
X403147Y185593D01*
X403128Y185567D01*
X403101Y185480D01*
X403067Y185395D01*
X403063Y185354D01*
X403056Y185332D01*
X403057Y185300D01*
X403049Y185229D01*
X403049Y98408D01*
X403063Y98318D01*
X403071Y98227D01*
X403083Y98197D01*
X403088Y98165D01*
X403131Y98085D01*
X403167Y98001D01*
X403193Y97969D01*
X403204Y97948D01*
X403227Y97926D01*
X403272Y97870D01*
X418782Y82360D01*
X418856Y82307D01*
X418925Y82247D01*
X418955Y82235D01*
X418982Y82216D01*
X419069Y82189D01*
X419153Y82155D01*
X419194Y82151D01*
X419217Y82144D01*
X419249Y82145D01*
X419320Y82137D01*
X422198Y82137D01*
X425307Y79028D01*
X425307Y74632D01*
X425023Y74348D01*
X424981Y74290D01*
X424932Y74238D01*
X424910Y74191D01*
X424880Y74149D01*
X424858Y74080D01*
X424828Y74015D01*
X424823Y73963D01*
X424807Y73913D01*
X424809Y73842D01*
X424801Y73771D01*
X424812Y73720D01*
X424814Y73668D01*
X424838Y73600D01*
X424853Y73530D01*
X424880Y73485D01*
X424898Y73437D01*
X424943Y73381D01*
X424980Y73319D01*
X425019Y73285D01*
X425052Y73245D01*
X425112Y73206D01*
X425167Y73159D01*
X425215Y73140D01*
X425259Y73112D01*
X425328Y73094D01*
X425395Y73067D01*
X425466Y73059D01*
X425497Y73051D01*
X425520Y73053D01*
X425561Y73049D01*
X653612Y73049D01*
X653702Y73063D01*
X653793Y73071D01*
X653823Y73083D01*
X653855Y73088D01*
X653936Y73131D01*
X654020Y73167D01*
X654052Y73193D01*
X654072Y73204D01*
X654095Y73227D01*
X654151Y73272D01*
X676815Y95936D01*
X676856Y95994D01*
X676906Y96046D01*
X676928Y96093D01*
X676958Y96135D01*
X676979Y96204D01*
X677010Y96269D01*
X677015Y96321D01*
X677031Y96371D01*
X677029Y96442D01*
X677037Y96513D01*
X677026Y96564D01*
X677024Y96616D01*
X677000Y96684D01*
X676984Y96754D01*
X676958Y96799D01*
X676940Y96847D01*
X676895Y96903D01*
X676858Y96965D01*
X676819Y96999D01*
X676786Y97039D01*
X676726Y97078D01*
X676671Y97125D01*
X676623Y97144D01*
X676579Y97172D01*
X676510Y97190D01*
X676443Y97217D01*
X676372Y97225D01*
X676341Y97233D01*
X676317Y97231D01*
X676276Y97235D01*
X665928Y97235D01*
X665035Y98128D01*
X665035Y112472D01*
X665928Y113365D01*
X678878Y113365D01*
X678898Y113368D01*
X678917Y113366D01*
X679019Y113388D01*
X679121Y113404D01*
X679138Y113414D01*
X679158Y113418D01*
X679247Y113471D01*
X679338Y113520D01*
X679352Y113534D01*
X679369Y113544D01*
X679436Y113623D01*
X679508Y113698D01*
X679516Y113716D01*
X679529Y113731D01*
X679568Y113827D01*
X679611Y113921D01*
X679611Y113923D01*
X704470Y138782D01*
X704523Y138856D01*
X704583Y138925D01*
X704595Y138955D01*
X704614Y138982D01*
X704641Y139069D01*
X704675Y139153D01*
X704679Y139194D01*
X704686Y139217D01*
X704685Y139249D01*
X704693Y139320D01*
X704693Y142198D01*
X707802Y145307D01*
X712198Y145307D01*
X715307Y142198D01*
X715307Y137802D01*
X712198Y134693D01*
X709320Y134693D01*
X709230Y134679D01*
X709139Y134671D01*
X709109Y134659D01*
X709077Y134654D01*
X708997Y134611D01*
X708913Y134575D01*
X708881Y134549D01*
X708860Y134538D01*
X708838Y134515D01*
X708782Y134470D01*
X685960Y111648D01*
X685907Y111574D01*
X685847Y111505D01*
X685835Y111475D01*
X685816Y111448D01*
X685789Y111361D01*
X685755Y111277D01*
X685751Y111236D01*
X685744Y111213D01*
X685745Y111181D01*
X685737Y111110D01*
X685737Y96235D01*
X656453Y66951D01*
X154860Y66951D01*
X152851Y68960D01*
X55314Y166497D01*
X55235Y166554D01*
X55160Y166616D01*
X55135Y166625D01*
X55114Y166641D01*
X55021Y166669D01*
X54930Y166704D01*
X54904Y166705D01*
X54879Y166713D01*
X54782Y166710D01*
X54685Y166715D01*
X54659Y166707D01*
X54633Y166707D01*
X54542Y166673D01*
X54448Y166646D01*
X54427Y166631D01*
X54402Y166622D01*
X54326Y166561D01*
X54246Y166506D01*
X54231Y166485D01*
X54210Y166468D01*
X54158Y166387D01*
X54100Y166308D01*
X54091Y166284D01*
X54077Y166262D01*
X54054Y166167D01*
X54023Y166075D01*
X54024Y166048D01*
X54017Y166023D01*
X54025Y165926D01*
X54026Y165829D01*
X54035Y165797D01*
X54036Y165778D01*
X54049Y165748D01*
X54072Y165667D01*
X54761Y164006D01*
X54761Y154394D01*
X51082Y145514D01*
X44286Y138718D01*
X35406Y135039D01*
X25794Y135039D01*
X16914Y138718D01*
X11460Y144171D01*
X11402Y144213D01*
X11350Y144263D01*
X11303Y144284D01*
X11261Y144315D01*
X11192Y144336D01*
X11127Y144366D01*
X11075Y144372D01*
X11025Y144387D01*
X10954Y144385D01*
X10883Y144393D01*
X10832Y144382D01*
X10780Y144381D01*
X10712Y144356D01*
X10642Y144341D01*
X10597Y144314D01*
X10549Y144296D01*
X10493Y144252D01*
X10431Y144215D01*
X10397Y144175D01*
X10357Y144143D01*
X10318Y144082D01*
X10271Y144028D01*
X10252Y143980D01*
X10224Y143936D01*
X10206Y143866D01*
X10179Y143800D01*
X10171Y143728D01*
X10163Y143697D01*
X10165Y143674D01*
X10161Y143633D01*
X10161Y70278D01*
X10163Y70267D01*
X10162Y70260D01*
X10169Y70225D01*
X10172Y70207D01*
X10174Y70135D01*
X10192Y70086D01*
X10200Y70035D01*
X10234Y69972D01*
X10259Y69904D01*
X10291Y69864D01*
X10316Y69818D01*
X10368Y69768D01*
X10412Y69712D01*
X10456Y69684D01*
X10494Y69648D01*
X10559Y69618D01*
X10619Y69579D01*
X10670Y69567D01*
X10717Y69545D01*
X10788Y69537D01*
X10858Y69519D01*
X10910Y69523D01*
X10961Y69518D01*
X11032Y69533D01*
X11103Y69538D01*
X11151Y69559D01*
X11202Y69570D01*
X11263Y69607D01*
X11329Y69635D01*
X11385Y69680D01*
X11413Y69696D01*
X11428Y69714D01*
X11460Y69740D01*
X16272Y74551D01*
X24141Y77811D01*
X32659Y77811D01*
X40528Y74551D01*
X46551Y68528D01*
X49811Y60659D01*
X49811Y52141D01*
X46551Y44272D01*
X40528Y38249D01*
X32659Y34989D01*
X24141Y34989D01*
X16272Y38249D01*
X11460Y43060D01*
X11402Y43102D01*
X11350Y43152D01*
X11303Y43174D01*
X11261Y43204D01*
X11192Y43225D01*
X11127Y43255D01*
X11075Y43261D01*
X11025Y43276D01*
X10954Y43274D01*
X10883Y43282D01*
X10832Y43271D01*
X10780Y43270D01*
X10712Y43245D01*
X10642Y43230D01*
X10597Y43203D01*
X10549Y43185D01*
X10493Y43141D01*
X10431Y43104D01*
X10397Y43064D01*
X10357Y43032D01*
X10318Y42971D01*
X10271Y42917D01*
X10252Y42869D01*
X10224Y42825D01*
X10206Y42755D01*
X10179Y42689D01*
X10171Y42617D01*
X10163Y42586D01*
X10165Y42563D01*
X10161Y42522D01*
X10161Y10922D01*
X10164Y10902D01*
X10162Y10883D01*
X10184Y10781D01*
X10200Y10679D01*
X10210Y10662D01*
X10214Y10642D01*
X10267Y10553D01*
X10316Y10462D01*
X10330Y10448D01*
X10340Y10431D01*
X10419Y10364D01*
X10494Y10292D01*
X10512Y10284D01*
X10527Y10271D01*
X10623Y10232D01*
X10717Y10189D01*
X10737Y10187D01*
X10755Y10179D01*
X10922Y10161D01*
X928000Y10161D01*
X928020Y10164D01*
G37*
G36*
X102372Y271011D02*
X102372Y271011D01*
X102578Y271011D01*
X102771Y271031D01*
X102965Y271041D01*
X103169Y271072D01*
X103374Y271092D01*
X103564Y271131D01*
X103755Y271160D01*
X103955Y271211D01*
X104157Y271253D01*
X104289Y271296D01*
X104530Y271358D01*
X104614Y271389D01*
X108992Y271389D01*
X109126Y271341D01*
X109326Y271291D01*
X109524Y271232D01*
X109714Y271195D01*
X109902Y271149D01*
X110106Y271120D01*
X110309Y271080D01*
X110447Y271071D01*
X110694Y271035D01*
X111337Y271008D01*
X111434Y271001D01*
X170000Y271001D01*
X170177Y271010D01*
X170353Y271009D01*
X170575Y271030D01*
X170799Y271041D01*
X170974Y271067D01*
X171149Y271084D01*
X171369Y271127D01*
X171589Y271160D01*
X171760Y271204D01*
X171934Y271238D01*
X172148Y271303D01*
X172364Y271358D01*
X172530Y271419D01*
X172699Y271470D01*
X172906Y271556D01*
X173116Y271632D01*
X173274Y271709D01*
X173438Y271777D01*
X173635Y271883D01*
X173836Y271980D01*
X173986Y272073D01*
X174142Y272157D01*
X174327Y272281D01*
X174517Y272398D01*
X174658Y272505D01*
X174804Y272604D01*
X174919Y272704D01*
X175154Y272882D01*
X175549Y273251D01*
X175656Y273344D01*
X249656Y347344D01*
X249775Y347475D01*
X249901Y347599D01*
X250043Y347771D01*
X250193Y347937D01*
X250298Y348079D01*
X250410Y348215D01*
X250535Y348401D01*
X250667Y348580D01*
X250757Y348732D01*
X250856Y348879D01*
X250962Y349076D01*
X251075Y349268D01*
X251150Y349428D01*
X251233Y349584D01*
X251318Y349791D01*
X251413Y349993D01*
X251471Y350160D01*
X251538Y350324D01*
X251602Y350538D01*
X251676Y350748D01*
X251717Y350920D01*
X251768Y351090D01*
X251810Y351309D01*
X251862Y351526D01*
X251886Y351701D01*
X251920Y351875D01*
X251930Y352027D01*
X251970Y352319D01*
X251989Y352858D01*
X251999Y353000D01*
X251999Y663687D01*
X281313Y693001D01*
X287301Y693001D01*
X287507Y693011D01*
X287713Y693011D01*
X287905Y693031D01*
X288099Y693041D01*
X288304Y693072D01*
X288508Y693092D01*
X288698Y693131D01*
X288890Y693160D01*
X289090Y693211D01*
X289292Y693253D01*
X289423Y693296D01*
X289665Y693358D01*
X290269Y693579D01*
X290362Y693610D01*
X292624Y694547D01*
X297576Y694547D01*
X299838Y693610D01*
X300032Y693541D01*
X300223Y693462D01*
X300409Y693406D01*
X300591Y693341D01*
X300791Y693291D01*
X300989Y693232D01*
X301179Y693195D01*
X301368Y693149D01*
X301572Y693119D01*
X301774Y693080D01*
X301912Y693071D01*
X302159Y693035D01*
X302802Y693008D01*
X302899Y693001D01*
X755687Y693001D01*
X795516Y653172D01*
X795647Y653053D01*
X795771Y652927D01*
X795943Y652785D01*
X796109Y652635D01*
X796251Y652530D01*
X796387Y652418D01*
X796573Y652293D01*
X796752Y652161D01*
X796904Y652071D01*
X797051Y651972D01*
X797248Y651866D01*
X797440Y651753D01*
X797600Y651678D01*
X797756Y651595D01*
X797963Y651510D01*
X798165Y651415D01*
X798332Y651357D01*
X798496Y651290D01*
X798710Y651226D01*
X798920Y651152D01*
X799092Y651111D01*
X799262Y651060D01*
X799481Y651018D01*
X799698Y650966D01*
X799873Y650942D01*
X800047Y650908D01*
X800199Y650898D01*
X800491Y650858D01*
X801030Y650839D01*
X801172Y650829D01*
X809916Y650829D01*
X810122Y650839D01*
X810328Y650839D01*
X810521Y650859D01*
X810715Y650869D01*
X810919Y650900D01*
X811123Y650920D01*
X811313Y650959D01*
X811505Y650988D01*
X811705Y651039D01*
X811907Y651081D01*
X812038Y651124D01*
X812280Y651186D01*
X812693Y651337D01*
X814755Y651337D01*
X816622Y650563D01*
X828519Y638666D01*
X828672Y638528D01*
X828818Y638382D01*
X828968Y638260D01*
X829112Y638129D01*
X829278Y638007D01*
X829438Y637877D01*
X829600Y637770D01*
X829756Y637655D01*
X829933Y637550D01*
X830105Y637436D01*
X830230Y637374D01*
X830444Y637247D01*
X831027Y636976D01*
X831114Y636932D01*
X833869Y635791D01*
X835791Y633869D01*
X836831Y631359D01*
X836831Y628641D01*
X835791Y626131D01*
X834830Y625170D01*
X834751Y625083D01*
X834666Y625001D01*
X834483Y624786D01*
X834294Y624577D01*
X834224Y624482D01*
X834147Y624392D01*
X833986Y624160D01*
X833819Y623933D01*
X833759Y623832D01*
X833692Y623735D01*
X833555Y623488D01*
X833411Y623245D01*
X833361Y623139D01*
X833304Y623035D01*
X833193Y622776D01*
X833074Y622520D01*
X833035Y622409D01*
X832988Y622301D01*
X832903Y622031D01*
X832811Y621765D01*
X832783Y621651D01*
X832748Y621538D01*
X832690Y621262D01*
X832624Y620987D01*
X832608Y620871D01*
X832584Y620755D01*
X832554Y620475D01*
X832516Y620195D01*
X832512Y620078D01*
X832500Y619960D01*
X832498Y619678D01*
X832488Y619396D01*
X832496Y619278D01*
X832495Y619160D01*
X832521Y618880D01*
X832540Y618598D01*
X832559Y618482D01*
X832570Y618364D01*
X832625Y618087D01*
X832671Y617809D01*
X832702Y617695D01*
X832724Y617580D01*
X832807Y617309D01*
X832880Y617037D01*
X832922Y616927D01*
X832956Y616814D01*
X833065Y616553D01*
X833165Y616290D01*
X833218Y616185D01*
X833264Y616076D01*
X833398Y615827D01*
X833524Y615575D01*
X833587Y615476D01*
X833643Y615372D01*
X833801Y615138D01*
X833952Y614900D01*
X834025Y614807D01*
X834091Y614709D01*
X834199Y614584D01*
X834445Y614270D01*
X834721Y613983D01*
X834830Y613857D01*
X860344Y588344D01*
X860475Y588225D01*
X860599Y588099D01*
X860771Y587957D01*
X860937Y587807D01*
X861079Y587702D01*
X861215Y587590D01*
X861401Y587465D01*
X861580Y587333D01*
X861732Y587243D01*
X861879Y587144D01*
X862076Y587039D01*
X862268Y586925D01*
X862429Y586850D01*
X862584Y586767D01*
X862791Y586682D01*
X862993Y586587D01*
X863160Y586529D01*
X863324Y586462D01*
X863538Y586398D01*
X863748Y586324D01*
X863920Y586283D01*
X864090Y586232D01*
X864309Y586190D01*
X864526Y586138D01*
X864701Y586114D01*
X864875Y586080D01*
X865027Y586070D01*
X865319Y586030D01*
X865858Y586011D01*
X866000Y586001D01*
X950000Y586001D01*
X950177Y586010D01*
X950353Y586009D01*
X950575Y586030D01*
X950799Y586041D01*
X950974Y586067D01*
X951149Y586084D01*
X951369Y586127D01*
X951589Y586160D01*
X951760Y586204D01*
X951934Y586238D01*
X952148Y586303D01*
X952364Y586358D01*
X952530Y586419D01*
X952699Y586470D01*
X952906Y586556D01*
X953116Y586632D01*
X953274Y586709D01*
X953438Y586777D01*
X953635Y586883D01*
X953836Y586980D01*
X953986Y587073D01*
X954142Y587157D01*
X954327Y587281D01*
X954517Y587398D01*
X954658Y587505D01*
X954804Y587604D01*
X954919Y587704D01*
X955154Y587882D01*
X955549Y588251D01*
X955656Y588344D01*
X973656Y606344D01*
X973775Y606475D01*
X973901Y606599D01*
X974043Y606771D01*
X974193Y606937D01*
X974298Y607079D01*
X974410Y607215D01*
X974535Y607401D01*
X974667Y607580D01*
X974757Y607732D01*
X974856Y607879D01*
X974962Y608076D01*
X975075Y608268D01*
X975150Y608428D01*
X975233Y608584D01*
X975318Y608791D01*
X975413Y608993D01*
X975471Y609160D01*
X975538Y609324D01*
X975602Y609538D01*
X975676Y609748D01*
X975717Y609920D01*
X975768Y610090D01*
X975810Y610309D01*
X975862Y610526D01*
X975886Y610701D01*
X975920Y610875D01*
X975930Y611027D01*
X975970Y611319D01*
X975989Y611858D01*
X975999Y612000D01*
X975999Y703000D01*
X975994Y703106D01*
X975996Y703196D01*
X975991Y703257D01*
X975991Y703353D01*
X975970Y703575D01*
X975959Y703799D01*
X975935Y703960D01*
X975932Y703993D01*
X975930Y704008D01*
X975916Y704149D01*
X975873Y704369D01*
X975840Y704589D01*
X975796Y704760D01*
X975762Y704934D01*
X975697Y705148D01*
X975642Y705364D01*
X975581Y705530D01*
X975530Y705699D01*
X975444Y705906D01*
X975368Y706116D01*
X975291Y706274D01*
X975223Y706438D01*
X975117Y706635D01*
X975020Y706836D01*
X974927Y706986D01*
X974844Y707142D01*
X974719Y707327D01*
X974602Y707517D01*
X974495Y707658D01*
X974396Y707804D01*
X974296Y707919D01*
X974118Y708154D01*
X973749Y708549D01*
X973656Y708656D01*
X894816Y787496D01*
X894685Y787615D01*
X894561Y787741D01*
X894389Y787883D01*
X894223Y788033D01*
X894081Y788138D01*
X893945Y788250D01*
X893759Y788375D01*
X893580Y788507D01*
X893428Y788597D01*
X893281Y788696D01*
X893084Y788802D01*
X892892Y788915D01*
X892732Y788990D01*
X892576Y789073D01*
X892369Y789158D01*
X892167Y789253D01*
X892000Y789311D01*
X891836Y789378D01*
X891622Y789442D01*
X891412Y789516D01*
X891240Y789557D01*
X891070Y789608D01*
X890851Y789650D01*
X890634Y789702D01*
X890459Y789726D01*
X890285Y789760D01*
X890133Y789770D01*
X889841Y789810D01*
X889302Y789829D01*
X889160Y789839D01*
X230840Y789839D01*
X230663Y789830D01*
X230487Y789831D01*
X230265Y789810D01*
X230041Y789799D01*
X229866Y789773D01*
X229691Y789756D01*
X229471Y789713D01*
X229251Y789680D01*
X229080Y789636D01*
X228906Y789602D01*
X228692Y789537D01*
X228476Y789482D01*
X228310Y789421D01*
X228141Y789370D01*
X227934Y789284D01*
X227725Y789208D01*
X227566Y789131D01*
X227402Y789063D01*
X227205Y788957D01*
X227004Y788860D01*
X226854Y788767D01*
X226698Y788684D01*
X226513Y788559D01*
X226323Y788442D01*
X226182Y788335D01*
X226036Y788236D01*
X225921Y788136D01*
X225686Y787958D01*
X225291Y787589D01*
X225184Y787496D01*
X164344Y726656D01*
X164225Y726525D01*
X164099Y726401D01*
X163957Y726229D01*
X163807Y726063D01*
X163702Y725921D01*
X163590Y725785D01*
X163465Y725599D01*
X163333Y725420D01*
X163243Y725268D01*
X163144Y725121D01*
X163038Y724924D01*
X162925Y724732D01*
X162850Y724572D01*
X162767Y724416D01*
X162682Y724209D01*
X162587Y724007D01*
X162529Y723840D01*
X162462Y723676D01*
X162398Y723462D01*
X162324Y723252D01*
X162283Y723080D01*
X162232Y722910D01*
X162190Y722691D01*
X162138Y722474D01*
X162114Y722299D01*
X162080Y722125D01*
X162070Y721973D01*
X162030Y721681D01*
X162011Y721142D01*
X162001Y721000D01*
X162001Y379313D01*
X118378Y335690D01*
X118240Y335538D01*
X118094Y335392D01*
X117971Y335241D01*
X117841Y335097D01*
X117719Y334931D01*
X117589Y334772D01*
X117482Y334610D01*
X117367Y334454D01*
X117262Y334277D01*
X117148Y334104D01*
X117086Y333980D01*
X116959Y333766D01*
X116687Y333183D01*
X116644Y333095D01*
X115777Y331002D01*
X112798Y328023D01*
X110705Y327156D01*
X110519Y327068D01*
X110328Y326989D01*
X110208Y326924D01*
X110206Y326923D01*
X109775Y326759D01*
X109622Y326708D01*
X108906Y326411D01*
X104694Y326411D01*
X100802Y328023D01*
X97823Y331002D01*
X96211Y334894D01*
X96211Y339240D01*
X96205Y339358D01*
X96208Y339476D01*
X96185Y339757D01*
X96171Y340039D01*
X96154Y340155D01*
X96144Y340273D01*
X96094Y340550D01*
X96052Y340829D01*
X96023Y340944D01*
X96002Y341060D01*
X95924Y341331D01*
X95854Y341604D01*
X95813Y341715D01*
X95781Y341828D01*
X95676Y342090D01*
X95580Y342356D01*
X95528Y342462D01*
X95485Y342571D01*
X95354Y342822D01*
X95232Y343076D01*
X95170Y343176D01*
X95116Y343281D01*
X94961Y343517D01*
X94814Y343757D01*
X94742Y343851D01*
X94678Y343950D01*
X94500Y344169D01*
X94330Y344394D01*
X94249Y344480D01*
X94175Y344572D01*
X93977Y344773D01*
X93784Y344979D01*
X93696Y345057D01*
X93613Y345141D01*
X93396Y345320D01*
X93184Y345507D01*
X93088Y345575D01*
X92997Y345650D01*
X92763Y345808D01*
X92533Y345972D01*
X92431Y346030D01*
X92333Y346096D01*
X92084Y346229D01*
X91839Y346370D01*
X91732Y346418D01*
X91628Y346473D01*
X91367Y346581D01*
X91109Y346696D01*
X90998Y346733D01*
X90888Y346778D01*
X90618Y346859D01*
X90350Y346948D01*
X90235Y346974D01*
X90122Y347008D01*
X89845Y347061D01*
X89570Y347123D01*
X89453Y347137D01*
X89337Y347160D01*
X89171Y347171D01*
X88776Y347219D01*
X88378Y347228D01*
X88212Y347239D01*
X76105Y347239D01*
X74424Y347935D01*
X72703Y349656D01*
X72572Y349775D01*
X72448Y349901D01*
X72276Y350043D01*
X72110Y350193D01*
X71968Y350298D01*
X71832Y350410D01*
X71646Y350535D01*
X71466Y350667D01*
X71315Y350757D01*
X71168Y350856D01*
X70971Y350962D01*
X70779Y351075D01*
X70618Y351150D01*
X70463Y351233D01*
X70256Y351318D01*
X70054Y351413D01*
X69887Y351471D01*
X69723Y351538D01*
X69509Y351602D01*
X69298Y351676D01*
X69127Y351717D01*
X68957Y351768D01*
X68738Y351810D01*
X68521Y351862D01*
X68346Y351886D01*
X68172Y351920D01*
X68020Y351931D01*
X67728Y351970D01*
X67189Y351989D01*
X67047Y351999D01*
X60151Y351999D01*
X59945Y351989D01*
X59739Y351989D01*
X59546Y351969D01*
X59352Y351959D01*
X59148Y351928D01*
X58943Y351908D01*
X58753Y351869D01*
X58562Y351840D01*
X58450Y351811D01*
X55633Y351811D01*
X55516Y351805D01*
X55398Y351808D01*
X55117Y351785D01*
X54835Y351771D01*
X54718Y351754D01*
X54601Y351744D01*
X54323Y351694D01*
X54044Y351652D01*
X53930Y351623D01*
X53814Y351602D01*
X53543Y351524D01*
X53269Y351454D01*
X53158Y351413D01*
X53045Y351381D01*
X52783Y351276D01*
X52518Y351180D01*
X52412Y351128D01*
X52302Y351085D01*
X52052Y350954D01*
X51798Y350832D01*
X51697Y350770D01*
X51593Y350716D01*
X51356Y350561D01*
X51116Y350414D01*
X51022Y350342D01*
X50924Y350278D01*
X50704Y350100D01*
X50479Y349930D01*
X50393Y349849D01*
X50302Y349775D01*
X50101Y349577D01*
X49894Y349384D01*
X49817Y349296D01*
X49733Y349213D01*
X49553Y348996D01*
X49367Y348784D01*
X49298Y348688D01*
X49223Y348597D01*
X49066Y348363D01*
X48902Y348133D01*
X48843Y348031D01*
X48777Y347933D01*
X48644Y347684D01*
X48504Y347439D01*
X48456Y347332D01*
X48400Y347228D01*
X48292Y346967D01*
X48177Y346709D01*
X48140Y346598D01*
X48095Y346488D01*
X48014Y346218D01*
X47925Y345950D01*
X47899Y345835D01*
X47866Y345722D01*
X47812Y345445D01*
X47750Y345170D01*
X47736Y345053D01*
X47714Y344937D01*
X47702Y344771D01*
X47654Y344376D01*
X47646Y343978D01*
X47634Y343812D01*
X47634Y304788D01*
X47640Y304670D01*
X47638Y304552D01*
X47660Y304271D01*
X47674Y303989D01*
X47692Y303873D01*
X47701Y303755D01*
X47751Y303478D01*
X47794Y303199D01*
X47823Y303084D01*
X47844Y302968D01*
X47922Y302697D01*
X47991Y302424D01*
X48032Y302313D01*
X48064Y302200D01*
X48169Y301938D01*
X48266Y301672D01*
X48317Y301566D01*
X48361Y301457D01*
X48491Y301206D01*
X48614Y300952D01*
X48675Y300852D01*
X48730Y300747D01*
X48884Y300511D01*
X49032Y300271D01*
X49103Y300177D01*
X49168Y300078D01*
X49345Y299859D01*
X49516Y299634D01*
X49596Y299548D01*
X49670Y299456D01*
X49869Y299255D01*
X50061Y299049D01*
X50149Y298971D01*
X50232Y298887D01*
X50450Y298708D01*
X50662Y298521D01*
X50758Y298453D01*
X50848Y298378D01*
X51083Y298220D01*
X51312Y298056D01*
X51414Y297998D01*
X51512Y297932D01*
X51761Y297799D01*
X52006Y297658D01*
X52114Y297610D01*
X52218Y297555D01*
X52479Y297447D01*
X52736Y297332D01*
X52848Y297295D01*
X52957Y297250D01*
X53228Y297169D01*
X53495Y297080D01*
X53610Y297054D01*
X53723Y297020D01*
X54000Y296967D01*
X54275Y296905D01*
X54392Y296891D01*
X54508Y296868D01*
X54674Y296857D01*
X55069Y296809D01*
X55468Y296800D01*
X55633Y296789D01*
X58106Y296789D01*
X61998Y295177D01*
X64977Y292198D01*
X66589Y288306D01*
X66589Y285412D01*
X66598Y285235D01*
X66597Y285059D01*
X66618Y284837D01*
X66629Y284613D01*
X66655Y284438D01*
X66672Y284263D01*
X66715Y284043D01*
X66748Y283823D01*
X66792Y283652D01*
X66826Y283478D01*
X66891Y283264D01*
X66946Y283048D01*
X67007Y282882D01*
X67058Y282713D01*
X67144Y282506D01*
X67220Y282297D01*
X67297Y282138D01*
X67365Y281974D01*
X67471Y281777D01*
X67568Y281576D01*
X67661Y281426D01*
X67744Y281270D01*
X67869Y281085D01*
X67986Y280895D01*
X68093Y280754D01*
X68192Y280608D01*
X68292Y280493D01*
X68470Y280258D01*
X68839Y279863D01*
X68932Y279756D01*
X74956Y273732D01*
X75087Y273613D01*
X75211Y273487D01*
X75383Y273345D01*
X75549Y273195D01*
X75691Y273090D01*
X75827Y272978D01*
X76013Y272853D01*
X76192Y272721D01*
X76344Y272631D01*
X76491Y272532D01*
X76688Y272426D01*
X76880Y272313D01*
X77040Y272238D01*
X77196Y272155D01*
X77403Y272070D01*
X77605Y271975D01*
X77772Y271917D01*
X77936Y271850D01*
X78150Y271786D01*
X78360Y271712D01*
X78532Y271671D01*
X78702Y271620D01*
X78921Y271578D01*
X79138Y271526D01*
X79313Y271502D01*
X79487Y271468D01*
X79639Y271458D01*
X79931Y271418D01*
X80470Y271399D01*
X80612Y271389D01*
X83592Y271389D01*
X83726Y271341D01*
X83926Y271291D01*
X84124Y271232D01*
X84314Y271195D01*
X84502Y271149D01*
X84706Y271119D01*
X84909Y271080D01*
X85047Y271071D01*
X85294Y271035D01*
X85936Y271008D01*
X86034Y271001D01*
X102166Y271001D01*
X102372Y271011D01*
G37*
G36*
X556322Y454114D02*
X556322Y454114D01*
X556426Y454117D01*
X556444Y454124D01*
X556464Y454125D01*
X556559Y454165D01*
X556657Y454201D01*
X556672Y454214D01*
X556690Y454221D01*
X556821Y454326D01*
X557802Y455307D01*
X562198Y455307D01*
X562482Y455023D01*
X562540Y454981D01*
X562592Y454932D01*
X562639Y454910D01*
X562681Y454880D01*
X562750Y454858D01*
X562815Y454828D01*
X562867Y454823D01*
X562917Y454807D01*
X562988Y454809D01*
X563059Y454801D01*
X563110Y454812D01*
X563162Y454814D01*
X563230Y454838D01*
X563300Y454853D01*
X563345Y454880D01*
X563393Y454898D01*
X563449Y454943D01*
X563511Y454980D01*
X563545Y455019D01*
X563585Y455052D01*
X563624Y455112D01*
X563671Y455167D01*
X563690Y455215D01*
X563718Y455259D01*
X563736Y455328D01*
X563763Y455395D01*
X563771Y455466D01*
X563779Y455497D01*
X563777Y455520D01*
X563781Y455561D01*
X563781Y459321D01*
X563780Y459331D01*
X563780Y459338D01*
X563773Y459370D01*
X563767Y459411D01*
X563759Y459502D01*
X563747Y459532D01*
X563742Y459564D01*
X563699Y459644D01*
X563663Y459728D01*
X563637Y459760D01*
X563626Y459781D01*
X563603Y459803D01*
X563558Y459859D01*
X563212Y460205D01*
X561203Y462214D01*
X561203Y477786D01*
X572214Y488797D01*
X602176Y488797D01*
X602266Y488811D01*
X602357Y488819D01*
X602387Y488831D01*
X602419Y488836D01*
X602499Y488879D01*
X602583Y488915D01*
X602615Y488941D01*
X602636Y488952D01*
X602658Y488975D01*
X602714Y489020D01*
X614470Y500776D01*
X614523Y500850D01*
X614583Y500919D01*
X614595Y500949D01*
X614614Y500976D01*
X614641Y501063D01*
X614675Y501147D01*
X614679Y501188D01*
X614686Y501211D01*
X614685Y501243D01*
X614693Y501314D01*
X614693Y504192D01*
X614977Y504476D01*
X615019Y504534D01*
X615068Y504586D01*
X615090Y504633D01*
X615120Y504675D01*
X615142Y504744D01*
X615172Y504809D01*
X615177Y504861D01*
X615193Y504911D01*
X615191Y504982D01*
X615199Y505053D01*
X615188Y505104D01*
X615186Y505156D01*
X615162Y505224D01*
X615147Y505294D01*
X615120Y505339D01*
X615102Y505387D01*
X615057Y505443D01*
X615020Y505505D01*
X614981Y505539D01*
X614948Y505579D01*
X614888Y505618D01*
X614833Y505665D01*
X614785Y505684D01*
X614741Y505712D01*
X614672Y505730D01*
X614605Y505757D01*
X614534Y505765D01*
X614503Y505773D01*
X614480Y505771D01*
X614439Y505775D01*
X567171Y505775D01*
X561942Y507941D01*
X557941Y511942D01*
X555775Y517171D01*
X555775Y522829D01*
X557941Y528058D01*
X561942Y532059D01*
X567171Y534225D01*
X722829Y534225D01*
X728058Y532059D01*
X755669Y504448D01*
X755743Y504395D01*
X755813Y504335D01*
X755843Y504323D01*
X755869Y504304D01*
X755956Y504277D01*
X756041Y504243D01*
X756082Y504239D01*
X756104Y504232D01*
X756136Y504233D01*
X756207Y504225D01*
X793821Y504225D01*
X793891Y504236D01*
X793963Y504238D01*
X794012Y504256D01*
X794063Y504264D01*
X794127Y504298D01*
X794194Y504323D01*
X794235Y504355D01*
X794281Y504380D01*
X794330Y504432D01*
X794386Y504476D01*
X794414Y504520D01*
X794450Y504558D01*
X794480Y504623D01*
X794519Y504683D01*
X794532Y504734D01*
X794554Y504781D01*
X794562Y504852D01*
X794579Y504922D01*
X794575Y504974D01*
X794581Y505025D01*
X794566Y505096D01*
X794560Y505167D01*
X794540Y505215D01*
X794529Y505266D01*
X794492Y505327D01*
X794464Y505393D01*
X794419Y505449D01*
X794402Y505477D01*
X794385Y505492D01*
X794359Y505524D01*
X790910Y508973D01*
X767941Y531942D01*
X765775Y537171D01*
X765775Y560757D01*
X765761Y560847D01*
X765753Y560938D01*
X765741Y560968D01*
X765736Y561000D01*
X765693Y561081D01*
X765657Y561165D01*
X765631Y561197D01*
X765620Y561217D01*
X765597Y561240D01*
X765552Y561296D01*
X756264Y570584D01*
X756206Y570625D01*
X756154Y570675D01*
X756107Y570697D01*
X756065Y570727D01*
X755996Y570748D01*
X755931Y570779D01*
X755879Y570784D01*
X755829Y570800D01*
X755758Y570798D01*
X755687Y570806D01*
X755636Y570795D01*
X755584Y570793D01*
X755516Y570769D01*
X755446Y570753D01*
X755402Y570727D01*
X755353Y570709D01*
X755297Y570664D01*
X755235Y570627D01*
X755201Y570588D01*
X755161Y570555D01*
X755122Y570495D01*
X755075Y570440D01*
X755056Y570392D01*
X755028Y570348D01*
X755010Y570279D01*
X754983Y570212D01*
X754975Y570141D01*
X754967Y570110D01*
X754969Y570086D01*
X754965Y570045D01*
X754965Y569096D01*
X753737Y566132D01*
X751468Y563863D01*
X748504Y562635D01*
X745296Y562635D01*
X742332Y563863D01*
X740063Y566132D01*
X738835Y569096D01*
X738835Y572304D01*
X740063Y575268D01*
X740735Y575940D01*
X740776Y575998D01*
X740826Y576050D01*
X740848Y576097D01*
X740878Y576139D01*
X740899Y576208D01*
X740929Y576273D01*
X740935Y576325D01*
X740950Y576375D01*
X740949Y576446D01*
X740956Y576517D01*
X740945Y576568D01*
X740944Y576620D01*
X740919Y576688D01*
X740904Y576758D01*
X740877Y576803D01*
X740860Y576851D01*
X740815Y576907D01*
X740778Y576969D01*
X740738Y577003D01*
X740706Y577043D01*
X740646Y577082D01*
X740591Y577129D01*
X740543Y577148D01*
X740499Y577176D01*
X740429Y577194D01*
X740363Y577221D01*
X740292Y577229D01*
X740260Y577237D01*
X740237Y577235D01*
X740196Y577239D01*
X735707Y577239D01*
X730478Y579405D01*
X687941Y621942D01*
X685775Y627171D01*
X685775Y632829D01*
X687941Y638058D01*
X691535Y641652D01*
X691577Y641710D01*
X691626Y641762D01*
X691648Y641809D01*
X691678Y641851D01*
X691700Y641920D01*
X691730Y641985D01*
X691735Y642037D01*
X691751Y642087D01*
X691749Y642158D01*
X691757Y642229D01*
X691746Y642280D01*
X691744Y642332D01*
X691720Y642400D01*
X691705Y642470D01*
X691678Y642515D01*
X691660Y642563D01*
X691615Y642619D01*
X691578Y642681D01*
X691539Y642715D01*
X691506Y642755D01*
X691446Y642794D01*
X691392Y642841D01*
X691343Y642860D01*
X691299Y642888D01*
X691230Y642906D01*
X691163Y642933D01*
X691092Y642941D01*
X691061Y642949D01*
X691038Y642947D01*
X690997Y642951D01*
X658297Y642951D01*
X658206Y642937D01*
X658116Y642929D01*
X658086Y642917D01*
X658054Y642912D01*
X657973Y642869D01*
X657889Y642833D01*
X657857Y642807D01*
X657836Y642796D01*
X657814Y642773D01*
X657758Y642728D01*
X651250Y636220D01*
X595094Y580064D01*
X595052Y580006D01*
X595003Y579954D01*
X594981Y579907D01*
X594951Y579865D01*
X594930Y579796D01*
X594899Y579731D01*
X594894Y579679D01*
X594878Y579629D01*
X594880Y579558D01*
X594872Y579487D01*
X594883Y579436D01*
X594885Y579384D01*
X594909Y579316D01*
X594925Y579246D01*
X594951Y579201D01*
X594969Y579153D01*
X595014Y579097D01*
X595051Y579035D01*
X595090Y579001D01*
X595123Y578961D01*
X595183Y578922D01*
X595238Y578875D01*
X595286Y578856D01*
X595330Y578828D01*
X595399Y578810D01*
X595466Y578783D01*
X595537Y578775D01*
X595568Y578767D01*
X595592Y578769D01*
X595633Y578765D01*
X598504Y578765D01*
X601468Y577537D01*
X603737Y575268D01*
X604965Y572304D01*
X604965Y569096D01*
X603737Y566132D01*
X601468Y563863D01*
X598504Y562635D01*
X595296Y562635D01*
X592332Y563863D01*
X590063Y566132D01*
X588835Y569096D01*
X588835Y572304D01*
X590063Y575268D01*
X590735Y575940D01*
X590776Y575998D01*
X590826Y576050D01*
X590848Y576097D01*
X590878Y576139D01*
X590899Y576208D01*
X590929Y576273D01*
X590935Y576325D01*
X590950Y576375D01*
X590949Y576446D01*
X590956Y576517D01*
X590945Y576568D01*
X590944Y576620D01*
X590919Y576688D01*
X590904Y576758D01*
X590877Y576803D01*
X590860Y576851D01*
X590815Y576907D01*
X590778Y576969D01*
X590738Y577003D01*
X590706Y577043D01*
X590646Y577082D01*
X590591Y577129D01*
X590543Y577148D01*
X590499Y577176D01*
X590429Y577194D01*
X590363Y577221D01*
X590292Y577229D01*
X590260Y577237D01*
X590237Y577235D01*
X590196Y577239D01*
X453604Y577239D01*
X453533Y577228D01*
X453461Y577226D01*
X453412Y577208D01*
X453361Y577200D01*
X453298Y577166D01*
X453230Y577141D01*
X453190Y577109D01*
X453144Y577084D01*
X453094Y577032D01*
X453038Y576988D01*
X453010Y576944D01*
X452974Y576906D01*
X452944Y576841D01*
X452905Y576781D01*
X452893Y576730D01*
X452871Y576683D01*
X452863Y576612D01*
X452845Y576542D01*
X452849Y576490D01*
X452844Y576439D01*
X452859Y576368D01*
X452864Y576297D01*
X452885Y576249D01*
X452896Y576198D01*
X452933Y576137D01*
X452961Y576071D01*
X453005Y576015D01*
X453022Y575987D01*
X453040Y575972D01*
X453065Y575940D01*
X453737Y575268D01*
X454965Y572304D01*
X454965Y569096D01*
X453737Y566132D01*
X453065Y565460D01*
X453024Y565402D01*
X452974Y565350D01*
X452952Y565303D01*
X452922Y565261D01*
X452901Y565192D01*
X452871Y565127D01*
X452865Y565075D01*
X452850Y565025D01*
X452851Y564954D01*
X452844Y564883D01*
X452855Y564832D01*
X452856Y564780D01*
X452881Y564712D01*
X452896Y564642D01*
X452923Y564597D01*
X452940Y564549D01*
X452985Y564493D01*
X453022Y564431D01*
X453062Y564397D01*
X453094Y564357D01*
X453154Y564318D01*
X453209Y564271D01*
X453257Y564252D01*
X453301Y564224D01*
X453371Y564206D01*
X453437Y564179D01*
X453508Y564171D01*
X453540Y564163D01*
X453563Y564165D01*
X453604Y564161D01*
X540151Y564161D01*
X548782Y555530D01*
X548856Y555477D01*
X548925Y555417D01*
X548955Y555405D01*
X548982Y555386D01*
X549069Y555359D01*
X549153Y555325D01*
X549194Y555321D01*
X549217Y555314D01*
X549249Y555315D01*
X549320Y555307D01*
X552198Y555307D01*
X555307Y552198D01*
X555307Y547802D01*
X552198Y544693D01*
X547802Y544693D01*
X544693Y547802D01*
X544693Y550680D01*
X544692Y550687D01*
X544692Y550688D01*
X544691Y550693D01*
X544679Y550770D01*
X544671Y550861D01*
X544659Y550891D01*
X544654Y550923D01*
X544611Y551003D01*
X544575Y551087D01*
X544549Y551119D01*
X544538Y551140D01*
X544515Y551162D01*
X544470Y551218D01*
X537848Y557840D01*
X537774Y557893D01*
X537705Y557953D01*
X537675Y557965D01*
X537648Y557984D01*
X537561Y558011D01*
X537477Y558045D01*
X537436Y558049D01*
X537413Y558056D01*
X537381Y558055D01*
X537310Y558063D01*
X453846Y558063D01*
X453775Y558052D01*
X453703Y558050D01*
X453654Y558032D01*
X453603Y558024D01*
X453540Y557990D01*
X453472Y557965D01*
X453432Y557933D01*
X453385Y557908D01*
X453336Y557856D01*
X453280Y557812D01*
X453252Y557768D01*
X453216Y557730D01*
X453186Y557665D01*
X453147Y557605D01*
X453134Y557554D01*
X453112Y557507D01*
X453105Y557436D01*
X453087Y557366D01*
X453091Y557314D01*
X453085Y557263D01*
X453101Y557192D01*
X453106Y557121D01*
X453127Y557073D01*
X453138Y557022D01*
X453174Y556961D01*
X453203Y556895D01*
X453247Y556839D01*
X453264Y556811D01*
X453282Y556796D01*
X453307Y556764D01*
X454143Y555928D01*
X555745Y454326D01*
X555761Y454315D01*
X555773Y454299D01*
X555861Y454243D01*
X555945Y454183D01*
X555964Y454177D01*
X555980Y454166D01*
X556081Y454141D01*
X556180Y454110D01*
X556200Y454111D01*
X556219Y454106D01*
X556322Y454114D01*
G37*
%LPC*%
G36*
X574171Y178775D02*
X574171Y178775D01*
X568942Y180941D01*
X547941Y201942D01*
X545775Y207171D01*
X545775Y212829D01*
X547941Y218058D01*
X551942Y222059D01*
X557171Y224225D01*
X562829Y224225D01*
X568058Y222059D01*
X582669Y207448D01*
X582743Y207395D01*
X582813Y207335D01*
X582843Y207323D01*
X582869Y207304D01*
X582956Y207277D01*
X583041Y207243D01*
X583082Y207239D01*
X583104Y207232D01*
X583136Y207233D01*
X583207Y207225D01*
X867829Y207225D01*
X873058Y205059D01*
X877059Y201058D01*
X879225Y195829D01*
X879225Y190171D01*
X877059Y184942D01*
X873058Y180941D01*
X867829Y178775D01*
X574171Y178775D01*
G37*
%LPD*%
%LPC*%
G36*
X767171Y405775D02*
X767171Y405775D01*
X761942Y407941D01*
X697941Y471942D01*
X695775Y477171D01*
X695775Y482829D01*
X697941Y488058D01*
X701942Y492059D01*
X707171Y494225D01*
X712829Y494225D01*
X718058Y492059D01*
X775669Y434448D01*
X775743Y434395D01*
X775813Y434335D01*
X775843Y434323D01*
X775869Y434304D01*
X775956Y434277D01*
X776041Y434243D01*
X776082Y434239D01*
X776104Y434232D01*
X776136Y434233D01*
X776207Y434225D01*
X882829Y434225D01*
X888058Y432059D01*
X892059Y428058D01*
X894225Y422829D01*
X894225Y417171D01*
X892059Y411942D01*
X888058Y407941D01*
X882829Y405775D01*
X767171Y405775D01*
G37*
%LPD*%
%LPC*%
G36*
X713171Y209775D02*
X713171Y209775D01*
X707942Y211941D01*
X687941Y231942D01*
X685775Y237171D01*
X685775Y242829D01*
X687941Y248058D01*
X691942Y252059D01*
X697171Y254225D01*
X702829Y254225D01*
X708058Y252059D01*
X721669Y238448D01*
X721743Y238395D01*
X721813Y238335D01*
X721843Y238323D01*
X721869Y238304D01*
X721956Y238277D01*
X722041Y238243D01*
X722082Y238239D01*
X722104Y238232D01*
X722136Y238233D01*
X722207Y238225D01*
X862829Y238225D01*
X868058Y236059D01*
X872059Y232058D01*
X874225Y226829D01*
X874225Y221171D01*
X872059Y215942D01*
X868058Y211941D01*
X862829Y209775D01*
X713171Y209775D01*
G37*
%LPD*%
%LPC*%
G36*
X782171Y288775D02*
X782171Y288775D01*
X776942Y290941D01*
X772941Y294942D01*
X770775Y300171D01*
X770775Y305829D01*
X772941Y311058D01*
X788478Y326595D01*
X793707Y328761D01*
X834274Y328761D01*
X834294Y328764D01*
X834313Y328762D01*
X834415Y328784D01*
X834517Y328800D01*
X834534Y328810D01*
X834554Y328814D01*
X834643Y328867D01*
X834734Y328916D01*
X834748Y328930D01*
X834765Y328940D01*
X834832Y329019D01*
X834904Y329094D01*
X834912Y329112D01*
X834925Y329127D01*
X834964Y329223D01*
X835007Y329317D01*
X835009Y329337D01*
X835017Y329355D01*
X835035Y329522D01*
X835035Y342472D01*
X835928Y343365D01*
X850272Y343365D01*
X851165Y342472D01*
X851165Y332124D01*
X851176Y332053D01*
X851178Y331981D01*
X851196Y331932D01*
X851204Y331881D01*
X851238Y331818D01*
X851263Y331750D01*
X851295Y331710D01*
X851320Y331663D01*
X851372Y331614D01*
X851416Y331558D01*
X851460Y331530D01*
X851498Y331494D01*
X851563Y331464D01*
X851623Y331425D01*
X851674Y331412D01*
X851721Y331390D01*
X851792Y331383D01*
X851862Y331365D01*
X851914Y331369D01*
X851965Y331363D01*
X852036Y331379D01*
X852107Y331384D01*
X852155Y331405D01*
X852206Y331416D01*
X852267Y331452D01*
X852333Y331481D01*
X852389Y331525D01*
X852417Y331542D01*
X852432Y331560D01*
X852464Y331585D01*
X875788Y354909D01*
X881016Y357075D01*
X912829Y357075D01*
X918058Y354909D01*
X922059Y350908D01*
X924225Y345679D01*
X924225Y340021D01*
X922059Y334792D01*
X918058Y330791D01*
X912829Y328625D01*
X890053Y328625D01*
X889963Y328611D01*
X889872Y328603D01*
X889842Y328591D01*
X889810Y328586D01*
X889730Y328543D01*
X889646Y328507D01*
X889614Y328481D01*
X889593Y328470D01*
X889571Y328447D01*
X889515Y328402D01*
X863589Y302477D01*
X858361Y300311D01*
X802743Y300311D01*
X802653Y300297D01*
X802562Y300289D01*
X802533Y300277D01*
X802501Y300272D01*
X802420Y300229D01*
X802336Y300193D01*
X802304Y300167D01*
X802283Y300156D01*
X802261Y300133D01*
X802205Y300088D01*
X793058Y290941D01*
X787829Y288775D01*
X782171Y288775D01*
G37*
%LPD*%
%LPC*%
G36*
X387802Y94693D02*
X387802Y94693D01*
X384693Y97802D01*
X384693Y99243D01*
X384691Y99256D01*
X384692Y99266D01*
X384681Y99319D01*
X384679Y99333D01*
X384671Y99424D01*
X384659Y99454D01*
X384654Y99486D01*
X384611Y99566D01*
X384575Y99650D01*
X384549Y99683D01*
X384538Y99703D01*
X384515Y99725D01*
X384470Y99781D01*
X382464Y101787D01*
X382406Y101829D01*
X382354Y101879D01*
X382307Y101901D01*
X382265Y101931D01*
X382196Y101952D01*
X382131Y101982D01*
X382079Y101988D01*
X382029Y102003D01*
X381958Y102001D01*
X381887Y102009D01*
X381836Y101998D01*
X381784Y101997D01*
X381716Y101972D01*
X381646Y101957D01*
X381601Y101930D01*
X381553Y101912D01*
X381497Y101868D01*
X381435Y101831D01*
X381401Y101791D01*
X381361Y101759D01*
X381322Y101698D01*
X381275Y101644D01*
X381256Y101596D01*
X381228Y101552D01*
X381210Y101482D01*
X381183Y101416D01*
X381175Y101344D01*
X381167Y101313D01*
X381169Y101290D01*
X381165Y101249D01*
X381165Y98128D01*
X380272Y97235D01*
X365928Y97235D01*
X365035Y98128D01*
X365035Y108476D01*
X365024Y108547D01*
X365022Y108619D01*
X365004Y108668D01*
X364996Y108719D01*
X364962Y108783D01*
X364937Y108850D01*
X364905Y108891D01*
X364880Y108937D01*
X364828Y108986D01*
X364784Y109042D01*
X364740Y109070D01*
X364702Y109106D01*
X364637Y109136D01*
X364577Y109175D01*
X364526Y109188D01*
X364479Y109210D01*
X364408Y109217D01*
X364338Y109235D01*
X364286Y109231D01*
X364235Y109237D01*
X364164Y109221D01*
X364093Y109216D01*
X364045Y109196D01*
X363994Y109184D01*
X363933Y109148D01*
X363867Y109120D01*
X363811Y109075D01*
X363783Y109058D01*
X363768Y109040D01*
X363736Y109015D01*
X355956Y101235D01*
X304454Y101235D01*
X304340Y101216D01*
X304223Y101199D01*
X304218Y101197D01*
X304211Y101196D01*
X304109Y101141D01*
X304004Y101088D01*
X304000Y101083D01*
X303994Y101080D01*
X303914Y100996D01*
X303832Y100912D01*
X303828Y100906D01*
X303825Y100902D01*
X303817Y100885D01*
X303751Y100765D01*
X303737Y100732D01*
X301468Y98463D01*
X298504Y97235D01*
X295296Y97235D01*
X292332Y98463D01*
X290063Y100732D01*
X290049Y100765D01*
X289987Y100865D01*
X289928Y100965D01*
X289923Y100969D01*
X289920Y100974D01*
X289830Y101048D01*
X289741Y101125D01*
X289735Y101127D01*
X289730Y101131D01*
X289622Y101173D01*
X289513Y101217D01*
X289505Y101218D01*
X289500Y101219D01*
X289482Y101220D01*
X289346Y101235D01*
X240244Y101235D01*
X232464Y109015D01*
X232406Y109057D01*
X232354Y109106D01*
X232307Y109128D01*
X232265Y109158D01*
X232196Y109179D01*
X232131Y109210D01*
X232079Y109215D01*
X232029Y109231D01*
X231958Y109229D01*
X231887Y109237D01*
X231836Y109226D01*
X231784Y109224D01*
X231716Y109200D01*
X231646Y109184D01*
X231601Y109158D01*
X231553Y109140D01*
X231497Y109095D01*
X231435Y109058D01*
X231401Y109019D01*
X231361Y108986D01*
X231322Y108926D01*
X231275Y108871D01*
X231256Y108823D01*
X231228Y108779D01*
X231210Y108710D01*
X231183Y108643D01*
X231175Y108572D01*
X231167Y108541D01*
X231169Y108517D01*
X231165Y108476D01*
X231165Y98128D01*
X230272Y97235D01*
X215928Y97235D01*
X215035Y98128D01*
X215035Y108476D01*
X215024Y108547D01*
X215022Y108619D01*
X215004Y108668D01*
X214996Y108719D01*
X214962Y108783D01*
X214937Y108850D01*
X214905Y108891D01*
X214880Y108937D01*
X214828Y108986D01*
X214784Y109042D01*
X214740Y109070D01*
X214702Y109106D01*
X214637Y109136D01*
X214577Y109175D01*
X214526Y109188D01*
X214479Y109210D01*
X214408Y109217D01*
X214338Y109235D01*
X214286Y109231D01*
X214235Y109237D01*
X214164Y109221D01*
X214093Y109216D01*
X214045Y109196D01*
X213994Y109184D01*
X213933Y109148D01*
X213867Y109120D01*
X213811Y109075D01*
X213783Y109058D01*
X213768Y109040D01*
X213736Y109015D01*
X205956Y101235D01*
X154454Y101235D01*
X154340Y101216D01*
X154223Y101199D01*
X154218Y101197D01*
X154211Y101196D01*
X154109Y101141D01*
X154004Y101088D01*
X154000Y101083D01*
X153994Y101080D01*
X153914Y100996D01*
X153832Y100912D01*
X153828Y100906D01*
X153825Y100902D01*
X153817Y100885D01*
X153751Y100765D01*
X153737Y100732D01*
X151468Y98463D01*
X148504Y97235D01*
X145296Y97235D01*
X142332Y98463D01*
X140063Y100732D01*
X138835Y103696D01*
X138835Y106904D01*
X140063Y109868D01*
X142332Y112137D01*
X145296Y113365D01*
X148504Y113365D01*
X151468Y112137D01*
X153737Y109868D01*
X153751Y109835D01*
X153813Y109734D01*
X153872Y109635D01*
X153877Y109631D01*
X153880Y109626D01*
X153970Y109551D01*
X154059Y109475D01*
X154065Y109473D01*
X154070Y109469D01*
X154178Y109427D01*
X154287Y109383D01*
X154295Y109382D01*
X154300Y109381D01*
X154318Y109380D01*
X154454Y109365D01*
X202274Y109365D01*
X202364Y109379D01*
X202455Y109387D01*
X202484Y109399D01*
X202516Y109404D01*
X202597Y109447D01*
X202681Y109483D01*
X202713Y109509D01*
X202734Y109520D01*
X202756Y109543D01*
X202812Y109588D01*
X213193Y119969D01*
X233007Y119969D01*
X243388Y109588D01*
X243462Y109535D01*
X243531Y109475D01*
X243562Y109463D01*
X243588Y109444D01*
X243675Y109417D01*
X243760Y109383D01*
X243801Y109379D01*
X243823Y109372D01*
X243855Y109373D01*
X243926Y109365D01*
X289346Y109365D01*
X289460Y109384D01*
X289577Y109401D01*
X289582Y109403D01*
X289589Y109404D01*
X289691Y109459D01*
X289796Y109512D01*
X289800Y109517D01*
X289806Y109520D01*
X289886Y109604D01*
X289968Y109688D01*
X289972Y109694D01*
X289975Y109698D01*
X289983Y109715D01*
X290049Y109835D01*
X290063Y109868D01*
X292332Y112137D01*
X295296Y113365D01*
X298504Y113365D01*
X301468Y112137D01*
X303737Y109868D01*
X303751Y109835D01*
X303813Y109734D01*
X303872Y109635D01*
X303877Y109631D01*
X303880Y109626D01*
X303970Y109551D01*
X304059Y109475D01*
X304065Y109473D01*
X304070Y109469D01*
X304178Y109427D01*
X304287Y109383D01*
X304295Y109382D01*
X304300Y109381D01*
X304318Y109380D01*
X304454Y109365D01*
X352274Y109365D01*
X352364Y109379D01*
X352455Y109387D01*
X352484Y109399D01*
X352516Y109404D01*
X352597Y109447D01*
X352681Y109483D01*
X352713Y109509D01*
X352734Y109520D01*
X352756Y109543D01*
X352812Y109588D01*
X363193Y119969D01*
X383007Y119969D01*
X387769Y115207D01*
X387769Y108295D01*
X387783Y108205D01*
X387791Y108114D01*
X387803Y108084D01*
X387808Y108052D01*
X387851Y107972D01*
X387887Y107888D01*
X387913Y107856D01*
X387924Y107835D01*
X387947Y107813D01*
X387992Y107757D01*
X390219Y105530D01*
X390293Y105477D01*
X390362Y105417D01*
X390392Y105405D01*
X390418Y105386D01*
X390505Y105359D01*
X390590Y105325D01*
X390631Y105321D01*
X390654Y105314D01*
X390686Y105315D01*
X390757Y105307D01*
X392198Y105307D01*
X395307Y102198D01*
X395307Y97802D01*
X392198Y94693D01*
X387802Y94693D01*
G37*
%LPD*%
%LPC*%
G36*
X595296Y537235D02*
X595296Y537235D01*
X592332Y538463D01*
X590063Y540732D01*
X588835Y543696D01*
X588835Y546904D01*
X590063Y549868D01*
X592332Y552137D01*
X595296Y553365D01*
X598504Y553365D01*
X601468Y552137D01*
X603737Y549868D01*
X603751Y549835D01*
X603813Y549734D01*
X603872Y549635D01*
X603877Y549631D01*
X603880Y549626D01*
X603970Y549551D01*
X604059Y549475D01*
X604065Y549473D01*
X604070Y549469D01*
X604178Y549427D01*
X604287Y549383D01*
X604295Y549382D01*
X604300Y549381D01*
X604318Y549380D01*
X604454Y549365D01*
X652274Y549365D01*
X652364Y549379D01*
X652455Y549387D01*
X652484Y549399D01*
X652516Y549404D01*
X652597Y549447D01*
X652681Y549483D01*
X652713Y549509D01*
X652734Y549520D01*
X652756Y549543D01*
X652812Y549588D01*
X663193Y559969D01*
X683007Y559969D01*
X693388Y549588D01*
X693462Y549535D01*
X693531Y549475D01*
X693562Y549463D01*
X693588Y549444D01*
X693675Y549417D01*
X693760Y549383D01*
X693801Y549379D01*
X693823Y549372D01*
X693855Y549373D01*
X693926Y549365D01*
X739346Y549365D01*
X739460Y549384D01*
X739577Y549401D01*
X739582Y549403D01*
X739589Y549404D01*
X739691Y549459D01*
X739796Y549512D01*
X739800Y549517D01*
X739806Y549520D01*
X739886Y549604D01*
X739968Y549688D01*
X739972Y549694D01*
X739975Y549698D01*
X739983Y549715D01*
X740049Y549835D01*
X740063Y549868D01*
X742332Y552137D01*
X745296Y553365D01*
X748504Y553365D01*
X751468Y552137D01*
X753737Y549868D01*
X754965Y546904D01*
X754965Y543696D01*
X753737Y540732D01*
X751468Y538463D01*
X748504Y537235D01*
X745296Y537235D01*
X742332Y538463D01*
X740063Y540732D01*
X740049Y540765D01*
X739987Y540865D01*
X739928Y540965D01*
X739923Y540969D01*
X739920Y540974D01*
X739830Y541048D01*
X739741Y541125D01*
X739735Y541127D01*
X739730Y541131D01*
X739622Y541173D01*
X739513Y541217D01*
X739505Y541218D01*
X739500Y541219D01*
X739482Y541220D01*
X739346Y541235D01*
X690244Y541235D01*
X682464Y549015D01*
X682406Y549057D01*
X682354Y549106D01*
X682307Y549128D01*
X682265Y549158D01*
X682196Y549179D01*
X682131Y549210D01*
X682079Y549215D01*
X682029Y549231D01*
X681958Y549229D01*
X681887Y549237D01*
X681836Y549226D01*
X681784Y549224D01*
X681716Y549200D01*
X681646Y549184D01*
X681601Y549158D01*
X681553Y549140D01*
X681497Y549095D01*
X681435Y549058D01*
X681401Y549019D01*
X681361Y548986D01*
X681322Y548926D01*
X681275Y548871D01*
X681256Y548823D01*
X681228Y548779D01*
X681210Y548710D01*
X681183Y548643D01*
X681175Y548572D01*
X681167Y548541D01*
X681169Y548517D01*
X681165Y548476D01*
X681165Y538128D01*
X680272Y537235D01*
X665928Y537235D01*
X665035Y538128D01*
X665035Y548476D01*
X665024Y548547D01*
X665022Y548619D01*
X665004Y548668D01*
X664996Y548719D01*
X664962Y548783D01*
X664937Y548850D01*
X664905Y548891D01*
X664880Y548937D01*
X664828Y548986D01*
X664784Y549042D01*
X664740Y549070D01*
X664702Y549106D01*
X664637Y549136D01*
X664577Y549175D01*
X664526Y549188D01*
X664479Y549210D01*
X664408Y549217D01*
X664338Y549235D01*
X664286Y549231D01*
X664235Y549237D01*
X664164Y549221D01*
X664093Y549216D01*
X664045Y549196D01*
X663994Y549184D01*
X663933Y549148D01*
X663867Y549120D01*
X663811Y549075D01*
X663783Y549058D01*
X663768Y549040D01*
X663736Y549015D01*
X655956Y541235D01*
X604454Y541235D01*
X604340Y541216D01*
X604223Y541199D01*
X604218Y541197D01*
X604211Y541196D01*
X604109Y541141D01*
X604004Y541088D01*
X604000Y541083D01*
X603994Y541080D01*
X603914Y540996D01*
X603832Y540912D01*
X603828Y540906D01*
X603825Y540902D01*
X603817Y540885D01*
X603751Y540765D01*
X603737Y540732D01*
X601468Y538463D01*
X598504Y537235D01*
X595296Y537235D01*
G37*
%LPD*%
%LPC*%
G36*
X287802Y204693D02*
X287802Y204693D01*
X284693Y207802D01*
X284693Y209961D01*
X284679Y210052D01*
X284671Y210142D01*
X284659Y210172D01*
X284654Y210204D01*
X284611Y210285D01*
X284575Y210369D01*
X284549Y210401D01*
X284538Y210422D01*
X284515Y210444D01*
X284470Y210500D01*
X258750Y236220D01*
X258676Y236273D01*
X258606Y236333D01*
X258576Y236345D01*
X258550Y236364D01*
X258463Y236391D01*
X258378Y236425D01*
X258337Y236429D01*
X258315Y236436D01*
X258283Y236435D01*
X258211Y236443D01*
X144263Y236443D01*
X144173Y236429D01*
X144082Y236421D01*
X144053Y236409D01*
X144021Y236404D01*
X143940Y236361D01*
X143856Y236325D01*
X143824Y236299D01*
X143803Y236288D01*
X143781Y236265D01*
X143725Y236220D01*
X142198Y234693D01*
X137802Y234693D01*
X134693Y237802D01*
X134693Y242198D01*
X137802Y245307D01*
X142198Y245307D01*
X143725Y243780D01*
X143799Y243727D01*
X143869Y243667D01*
X143899Y243655D01*
X143925Y243636D01*
X144012Y243609D01*
X144097Y243575D01*
X144138Y243571D01*
X144160Y243564D01*
X144192Y243565D01*
X144263Y243557D01*
X261473Y243557D01*
X289500Y215530D01*
X289574Y215477D01*
X289644Y215417D01*
X289674Y215405D01*
X289700Y215386D01*
X289787Y215359D01*
X289872Y215325D01*
X289913Y215321D01*
X289935Y215314D01*
X289967Y215315D01*
X290039Y215307D01*
X292198Y215307D01*
X295307Y212198D01*
X295307Y207802D01*
X292198Y204693D01*
X287802Y204693D01*
G37*
%LPD*%
%LPC*%
G36*
X907608Y140325D02*
X907608Y140325D01*
X903189Y142156D01*
X899806Y145539D01*
X897975Y149958D01*
X897975Y154742D01*
X899806Y159161D01*
X903189Y162544D01*
X907608Y164375D01*
X912392Y164375D01*
X916811Y162544D01*
X920194Y159161D01*
X922025Y154742D01*
X922025Y149958D01*
X920194Y145539D01*
X916811Y142156D01*
X912392Y140325D01*
X907608Y140325D01*
G37*
%LPD*%
%LPC*%
G36*
X907608Y178425D02*
X907608Y178425D01*
X903189Y180256D01*
X899806Y183639D01*
X897975Y188058D01*
X897975Y192842D01*
X899806Y197261D01*
X903189Y200644D01*
X907608Y202475D01*
X912392Y202475D01*
X916811Y200644D01*
X920194Y197261D01*
X922025Y192842D01*
X922025Y188058D01*
X920194Y183639D01*
X916811Y180256D01*
X912392Y178425D01*
X907608Y178425D01*
G37*
%LPD*%
%LPC*%
G36*
X907608Y407025D02*
X907608Y407025D01*
X903189Y408856D01*
X899806Y412239D01*
X897975Y416658D01*
X897975Y421442D01*
X899806Y425861D01*
X903189Y429244D01*
X907608Y431075D01*
X912392Y431075D01*
X916811Y429244D01*
X920194Y425861D01*
X922025Y421442D01*
X922025Y416658D01*
X920194Y412239D01*
X916811Y408856D01*
X912392Y407025D01*
X907608Y407025D01*
G37*
%LPD*%
%LPC*%
G36*
X907608Y216525D02*
X907608Y216525D01*
X903189Y218356D01*
X899806Y221739D01*
X897975Y226158D01*
X897975Y230942D01*
X899806Y235361D01*
X903189Y238744D01*
X907608Y240575D01*
X912392Y240575D01*
X916811Y238744D01*
X920194Y235361D01*
X922025Y230942D01*
X922025Y226158D01*
X920194Y221739D01*
X916811Y218356D01*
X912392Y216525D01*
X907608Y216525D01*
G37*
%LPD*%
%LPC*%
G36*
X907608Y445125D02*
X907608Y445125D01*
X903189Y446956D01*
X899806Y450339D01*
X897975Y454758D01*
X897975Y459542D01*
X899806Y463961D01*
X903189Y467344D01*
X907608Y469175D01*
X912392Y469175D01*
X916811Y467344D01*
X920194Y463961D01*
X922025Y459542D01*
X922025Y454758D01*
X920194Y450339D01*
X916811Y446956D01*
X912392Y445125D01*
X907608Y445125D01*
G37*
%LPD*%
%LPC*%
G36*
X907608Y292725D02*
X907608Y292725D01*
X903189Y294556D01*
X899806Y297939D01*
X897975Y302358D01*
X897975Y307142D01*
X899806Y311561D01*
X903189Y314944D01*
X907608Y316775D01*
X912392Y316775D01*
X916811Y314944D01*
X920194Y311561D01*
X922025Y307142D01*
X922025Y302358D01*
X920194Y297939D01*
X916811Y294556D01*
X912392Y292725D01*
X907608Y292725D01*
G37*
%LPD*%
%LPC*%
G36*
X907608Y254625D02*
X907608Y254625D01*
X903189Y256456D01*
X899806Y259839D01*
X897975Y264258D01*
X897975Y269042D01*
X899806Y273461D01*
X903189Y276844D01*
X907608Y278675D01*
X912392Y278675D01*
X916811Y276844D01*
X920194Y273461D01*
X922025Y269042D01*
X922025Y264258D01*
X920194Y259839D01*
X916811Y256456D01*
X912392Y254625D01*
X907608Y254625D01*
G37*
%LPD*%
%LPC*%
G36*
X815928Y537235D02*
X815928Y537235D01*
X815035Y538128D01*
X815035Y552472D01*
X815928Y553365D01*
X830272Y553365D01*
X831165Y552472D01*
X831165Y538128D01*
X830272Y537235D01*
X815928Y537235D01*
G37*
%LPD*%
%LPC*%
G36*
X395928Y327235D02*
X395928Y327235D01*
X395035Y328128D01*
X395035Y342472D01*
X395928Y343365D01*
X410272Y343365D01*
X411165Y342472D01*
X411165Y328128D01*
X410272Y327235D01*
X395928Y327235D01*
G37*
%LPD*%
%LPC*%
G36*
X815928Y97235D02*
X815928Y97235D01*
X815035Y98128D01*
X815035Y112472D01*
X815928Y113365D01*
X830272Y113365D01*
X831165Y112472D01*
X831165Y98128D01*
X830272Y97235D01*
X815928Y97235D01*
G37*
%LPD*%
%LPC*%
G36*
X515928Y537235D02*
X515928Y537235D01*
X515035Y538128D01*
X515035Y552472D01*
X515928Y553365D01*
X530272Y553365D01*
X531165Y552472D01*
X531165Y538128D01*
X530272Y537235D01*
X515928Y537235D01*
G37*
%LPD*%
%LPC*%
G36*
X515928Y97235D02*
X515928Y97235D01*
X515035Y98128D01*
X515035Y112472D01*
X515928Y113365D01*
X530272Y113365D01*
X531165Y112472D01*
X531165Y98128D01*
X530272Y97235D01*
X515928Y97235D01*
G37*
%LPD*%
%LPC*%
G36*
X325296Y352635D02*
X325296Y352635D01*
X322332Y353863D01*
X320063Y356132D01*
X318835Y359096D01*
X318835Y362304D01*
X320063Y365268D01*
X322332Y367537D01*
X325296Y368765D01*
X328504Y368765D01*
X331468Y367537D01*
X333737Y365268D01*
X334965Y362304D01*
X334965Y359096D01*
X333737Y356132D01*
X331468Y353863D01*
X328504Y352635D01*
X325296Y352635D01*
G37*
%LPD*%
%LPC*%
G36*
X145296Y122635D02*
X145296Y122635D01*
X142332Y123863D01*
X140063Y126132D01*
X138835Y129096D01*
X138835Y132304D01*
X140063Y135268D01*
X142332Y137537D01*
X145296Y138765D01*
X148504Y138765D01*
X151468Y137537D01*
X153737Y135268D01*
X154965Y132304D01*
X154965Y129096D01*
X153737Y126132D01*
X151468Y123863D01*
X148504Y122635D01*
X145296Y122635D01*
G37*
%LPD*%
%LPC*%
G36*
X745296Y122635D02*
X745296Y122635D01*
X742332Y123863D01*
X740063Y126132D01*
X738835Y129096D01*
X738835Y132304D01*
X740063Y135268D01*
X742332Y137537D01*
X745296Y138765D01*
X748504Y138765D01*
X751468Y137537D01*
X753737Y135268D01*
X754965Y132304D01*
X754965Y129096D01*
X753737Y126132D01*
X751468Y123863D01*
X748504Y122635D01*
X745296Y122635D01*
G37*
%LPD*%
%LPC*%
G36*
X595296Y122635D02*
X595296Y122635D01*
X592332Y123863D01*
X590063Y126132D01*
X588835Y129096D01*
X588835Y132304D01*
X590063Y135268D01*
X592332Y137537D01*
X595296Y138765D01*
X598504Y138765D01*
X601468Y137537D01*
X603737Y135268D01*
X604965Y132304D01*
X604965Y129096D01*
X603737Y126132D01*
X601468Y123863D01*
X598504Y122635D01*
X595296Y122635D01*
G37*
%LPD*%
%LPC*%
G36*
X445296Y122635D02*
X445296Y122635D01*
X442332Y123863D01*
X440063Y126132D01*
X438835Y129096D01*
X438835Y132304D01*
X440063Y135268D01*
X442332Y137537D01*
X445296Y138765D01*
X448504Y138765D01*
X451468Y137537D01*
X453737Y135268D01*
X454965Y132304D01*
X454965Y129096D01*
X453737Y126132D01*
X451468Y123863D01*
X448504Y122635D01*
X445296Y122635D01*
G37*
%LPD*%
%LPC*%
G36*
X295296Y122635D02*
X295296Y122635D01*
X292332Y123863D01*
X290063Y126132D01*
X288835Y129096D01*
X288835Y132304D01*
X290063Y135268D01*
X292332Y137537D01*
X295296Y138765D01*
X298504Y138765D01*
X301468Y137537D01*
X303737Y135268D01*
X304965Y132304D01*
X304965Y129096D01*
X303737Y126132D01*
X301468Y123863D01*
X298504Y122635D01*
X295296Y122635D01*
G37*
%LPD*%
%LPC*%
G36*
X615296Y352635D02*
X615296Y352635D01*
X612332Y353863D01*
X610063Y356132D01*
X608835Y359096D01*
X608835Y362304D01*
X610063Y365268D01*
X612332Y367537D01*
X615296Y368765D01*
X618504Y368765D01*
X621468Y367537D01*
X623737Y365268D01*
X624965Y362304D01*
X624965Y359096D01*
X623737Y356132D01*
X621468Y353863D01*
X618504Y352635D01*
X615296Y352635D01*
G37*
%LPD*%
%LPC*%
G36*
X465296Y352635D02*
X465296Y352635D01*
X462332Y353863D01*
X460063Y356132D01*
X458835Y359096D01*
X458835Y362304D01*
X460063Y365268D01*
X462332Y367537D01*
X465296Y368765D01*
X468504Y368765D01*
X471468Y367537D01*
X473737Y365268D01*
X474965Y362304D01*
X474965Y359096D01*
X473737Y356132D01*
X471468Y353863D01*
X468504Y352635D01*
X465296Y352635D01*
G37*
%LPD*%
%LPC*%
G36*
X445296Y97235D02*
X445296Y97235D01*
X442332Y98463D01*
X440063Y100732D01*
X438835Y103696D01*
X438835Y106904D01*
X440063Y109868D01*
X442332Y112137D01*
X445296Y113365D01*
X448504Y113365D01*
X451468Y112137D01*
X453737Y109868D01*
X454965Y106904D01*
X454965Y103696D01*
X453737Y100732D01*
X451468Y98463D01*
X448504Y97235D01*
X445296Y97235D01*
G37*
%LPD*%
%LPC*%
G36*
X325296Y327235D02*
X325296Y327235D01*
X322332Y328463D01*
X320063Y330732D01*
X318835Y333696D01*
X318835Y336904D01*
X320063Y339868D01*
X322332Y342137D01*
X325296Y343365D01*
X328504Y343365D01*
X331468Y342137D01*
X333737Y339868D01*
X334965Y336904D01*
X334965Y333696D01*
X333737Y330732D01*
X331468Y328463D01*
X328504Y327235D01*
X325296Y327235D01*
G37*
%LPD*%
%LPC*%
G36*
X745296Y97235D02*
X745296Y97235D01*
X742332Y98463D01*
X740063Y100732D01*
X738835Y103696D01*
X738835Y106904D01*
X740063Y109868D01*
X742332Y112137D01*
X745296Y113365D01*
X748504Y113365D01*
X751468Y112137D01*
X753737Y109868D01*
X754965Y106904D01*
X754965Y103696D01*
X753737Y100732D01*
X751468Y98463D01*
X748504Y97235D01*
X745296Y97235D01*
G37*
%LPD*%
%LPC*%
G36*
X595296Y97235D02*
X595296Y97235D01*
X592332Y98463D01*
X590063Y100732D01*
X588835Y103696D01*
X588835Y106904D01*
X590063Y109868D01*
X592332Y112137D01*
X595296Y113365D01*
X598504Y113365D01*
X601468Y112137D01*
X603737Y109868D01*
X604965Y106904D01*
X604965Y103696D01*
X603737Y100732D01*
X601468Y98463D01*
X598504Y97235D01*
X595296Y97235D01*
G37*
%LPD*%
D10*
X56000Y210000D03*
D11*
X56000Y235400D03*
X56000Y260800D03*
X56000Y286200D03*
X56000Y311600D03*
X56000Y337000D03*
X56000Y362400D03*
X56000Y387800D03*
X56000Y413200D03*
X56000Y438600D03*
X56000Y464000D03*
X56000Y489400D03*
X56000Y514800D03*
X56000Y540200D03*
X56000Y565600D03*
X56000Y591000D03*
X81400Y210000D03*
X81400Y235400D03*
X81400Y260800D03*
X81400Y286200D03*
X81400Y311600D03*
X81400Y337000D03*
X81400Y362400D03*
X81400Y387800D03*
X81400Y413200D03*
X81400Y438600D03*
X81400Y464000D03*
X81400Y489400D03*
X81400Y514800D03*
X81400Y540200D03*
X81400Y565600D03*
X81400Y591000D03*
X106800Y210000D03*
X106800Y235400D03*
X106800Y260800D03*
X106800Y286200D03*
X106800Y311600D03*
X106800Y337000D03*
X106800Y362400D03*
X106800Y387800D03*
X106800Y413200D03*
X106800Y438600D03*
X106800Y464000D03*
X106800Y489400D03*
X106800Y514800D03*
X106800Y540200D03*
X106800Y565600D03*
X106800Y591000D03*
D12*
X223100Y105300D03*
D13*
X146900Y105300D03*
X223100Y130700D03*
X146900Y130700D03*
D14*
X142700Y402700D03*
X142700Y428100D03*
X142700Y453500D03*
X142700Y478900D03*
X142700Y504300D03*
X142700Y529700D03*
X142700Y555100D03*
X142700Y580500D03*
X142700Y605900D03*
X142700Y631300D03*
X142700Y656700D03*
X142700Y682100D03*
X295100Y682100D03*
X295100Y656700D03*
X295100Y631300D03*
X295100Y605900D03*
X295100Y580500D03*
X295100Y555100D03*
X295100Y529700D03*
X295100Y504300D03*
X295100Y478900D03*
X295100Y453500D03*
X295100Y428100D03*
X295100Y402700D03*
X265890Y569070D03*
X265890Y594470D03*
D15*
X910000Y647650D03*
D16*
X910000Y609550D03*
X910000Y571450D03*
X910000Y533350D03*
X910000Y495250D03*
X910000Y457150D03*
X910000Y419050D03*
X910000Y380950D03*
X910000Y342850D03*
X910000Y304750D03*
X910000Y266650D03*
X910000Y228550D03*
X910000Y190450D03*
X910000Y152350D03*
D12*
X373100Y105300D03*
D13*
X296900Y105300D03*
X373100Y130700D03*
X296900Y130700D03*
D12*
X523100Y105300D03*
D13*
X446900Y105300D03*
X523100Y130700D03*
X446900Y130700D03*
D12*
X673100Y105300D03*
D13*
X596900Y105300D03*
X673100Y130700D03*
X596900Y130700D03*
D12*
X823100Y105300D03*
D13*
X746900Y105300D03*
X823100Y130700D03*
X746900Y130700D03*
D12*
X403100Y335300D03*
D13*
X326900Y335300D03*
X403100Y360700D03*
X326900Y360700D03*
D12*
X543100Y335300D03*
D13*
X466900Y335300D03*
X543100Y360700D03*
X466900Y360700D03*
D12*
X693100Y335300D03*
D13*
X616900Y335300D03*
X693100Y360700D03*
X616900Y360700D03*
D12*
X843100Y335300D03*
D13*
X766900Y335300D03*
X843100Y360700D03*
X766900Y360700D03*
D12*
X523100Y545300D03*
D13*
X446900Y545300D03*
X523100Y570700D03*
X446900Y570700D03*
D12*
X673100Y545300D03*
D13*
X596900Y545300D03*
X673100Y570700D03*
X596900Y570700D03*
D12*
X823100Y545300D03*
D13*
X746900Y545300D03*
X823100Y570700D03*
X746900Y570700D03*
D17*
X263000Y403000D03*
D18*
X350000Y660000D03*
X270000Y290000D03*
X290000Y370000D03*
X720000Y574000D03*
X732000Y634000D03*
X150000Y340000D03*
X170000Y340000D03*
X130000Y320000D03*
X130000Y300000D03*
X150000Y300000D03*
X170000Y320000D03*
X170000Y300000D03*
X150000Y320000D03*
X152697Y417303D03*
D19*
X135599Y413200D02*
X106800Y413200D01*
X135599Y413200D02*
X137545Y415146D01*
X150541Y415146D02*
X152697Y417303D01*
X150541Y415146D02*
X137545Y415146D01*
X56000Y453574D02*
X56000Y464000D01*
X56000Y453574D02*
X66588Y442986D01*
X66588Y363412D01*
D18*
X130000Y360000D03*
D19*
X77014Y351812D02*
X70812Y358014D01*
X70812Y359188D01*
X119374Y360000D02*
X130000Y360000D01*
X119374Y360000D02*
X111186Y351812D01*
X77014Y351812D01*
X70812Y359188D02*
X66588Y363412D01*
D20*
X214877Y115904D02*
X231323Y115904D01*
X204273Y105300D02*
X146900Y105300D01*
X241927Y105300D02*
X296900Y105300D01*
X214877Y115904D02*
X204273Y105300D01*
X231323Y115904D02*
X241927Y105300D01*
D18*
X390000Y100000D03*
D20*
X381323Y115904D02*
X364877Y115904D01*
X381323Y115904D02*
X383704Y113523D01*
X354273Y105300D02*
X296900Y105300D01*
X383704Y106296D02*
X383704Y113523D01*
X364877Y115904D02*
X354273Y105300D01*
X383704Y106296D02*
X390000Y100000D01*
D18*
X740000Y280000D03*
D20*
X740000Y308400D01*
X766900Y335300D01*
X701323Y324696D02*
X684877Y324696D01*
X711927Y335300D02*
X766900Y335300D01*
X674273Y335300D02*
X616900Y335300D01*
X701323Y324696D02*
X711927Y335300D01*
X684877Y324696D02*
X674273Y335300D01*
X551323Y324696D02*
X534877Y324696D01*
X561927Y335300D02*
X616900Y335300D01*
X524273Y335300D02*
X470000Y335300D01*
X466900Y335300D01*
X551323Y324696D02*
X561927Y335300D01*
X534877Y324696D02*
X524273Y335300D01*
X466900Y335300D02*
X455300Y335300D01*
X430000Y310000D01*
D18*
X430000Y310000D03*
D20*
X664877Y555904D02*
X681323Y555904D01*
X654273Y545300D02*
X596900Y545300D01*
X691927Y545300D02*
X746900Y545300D01*
X664877Y555904D02*
X654273Y545300D01*
X681323Y555904D02*
X691927Y545300D01*
X446900Y545300D02*
X446900Y358400D01*
X470000Y335300D01*
D18*
X230000Y300000D03*
D21*
X275000Y345000D01*
X275000Y475000D02*
X260000Y490000D01*
D18*
X260000Y490000D03*
D21*
X275000Y475000D02*
X275000Y345000D01*
D18*
X865000Y193000D03*
D22*
X577000Y193000D01*
X560000Y210000D01*
D18*
X560000Y210000D03*
X860000Y224000D03*
D22*
X716000Y224000D01*
X700000Y240000D01*
D18*
X700000Y240000D03*
X785000Y303000D03*
D22*
X796536Y314536D01*
X883846Y342850D02*
X910000Y342850D01*
X855532Y314536D02*
X796536Y314536D01*
X855532Y314536D02*
X883846Y342850D01*
D18*
X580000Y470000D03*
D22*
X668536Y381464D01*
X851701Y381464D02*
X852215Y380950D01*
X910000Y380950D01*
X851701Y381464D02*
X668536Y381464D01*
D18*
X880000Y420000D03*
D22*
X770000Y420000D01*
X710000Y480000D01*
D18*
X710000Y480000D03*
X570000Y520000D03*
D22*
X720000Y520000D01*
X750000Y490000D01*
X904750Y490000D01*
X910000Y495250D01*
D18*
X700000Y630000D03*
D22*
X738536Y591464D01*
X755501Y591464D01*
X780000Y566965D01*
X780000Y540000D01*
X803076Y516924D01*
X893574Y516924D02*
X910000Y533350D01*
X893574Y516924D02*
X803076Y516924D01*
D18*
X290000Y210000D03*
D21*
X260000Y240000D01*
X140000Y240000D01*
D18*
X140000Y240000D03*
X95000Y526000D03*
D21*
X111396Y529104D02*
X111992Y529700D01*
X142700Y529700D01*
X98104Y529104D02*
X95000Y526000D01*
X98104Y529104D02*
X111396Y529104D01*
D18*
X400000Y280000D03*
D21*
X370000Y310000D01*
X370000Y420000D02*
X330000Y460000D01*
X370000Y420000D02*
X370000Y310000D01*
D18*
X154530Y463470D03*
D19*
X155530Y464470D01*
X155530Y542270D01*
X142700Y555100D01*
X320884Y460000D02*
X330000Y460000D01*
X320884Y460000D02*
X320000Y459116D01*
D18*
X320000Y459116D03*
D19*
X102414Y550788D02*
X96212Y544586D01*
X77014Y525388D02*
X70812Y519186D01*
X112988Y550788D02*
X142700Y580500D01*
X112988Y550788D02*
X102414Y550788D01*
X70812Y519186D02*
X70812Y514638D01*
X56162Y499988D01*
X51614Y499988D01*
X43061Y491435D01*
X43061Y183061D01*
X96212Y540038D02*
X96212Y544586D01*
X96212Y540038D02*
X81562Y525388D01*
X77014Y525388D01*
X43061Y183061D02*
X156123Y70000D01*
D18*
X710000Y140000D03*
D19*
X682688Y112688D02*
X682688Y97498D01*
X682688Y112688D02*
X710000Y140000D01*
X682688Y97498D02*
X655191Y70000D01*
X156123Y70000D01*
D18*
X420000Y76830D03*
D19*
X380000Y309659D02*
X380000Y430000D01*
X400000Y96830D02*
X420000Y76830D01*
X326287Y465946D02*
X327171Y466830D01*
X326287Y465946D02*
X290000Y465946D01*
X289945Y465946D01*
X343170Y466830D02*
X380000Y430000D01*
X343170Y466830D02*
X327171Y466830D01*
D18*
X260000Y510000D03*
D19*
X280080Y475866D02*
X290000Y465946D01*
X260000Y499659D02*
X260000Y510000D01*
X280080Y479579D02*
X280080Y475866D01*
X280080Y479579D02*
X260000Y499659D01*
X400203Y190203D02*
X400000Y190000D01*
D18*
X400203Y190203D03*
X400189Y290189D03*
D19*
X400000Y190000D02*
X400000Y96830D01*
X399470Y290189D02*
X380000Y309659D01*
X399470Y290189D02*
X400189Y290189D01*
D18*
X560000Y450000D03*
X400000Y560000D03*
D19*
X555760Y450000D02*
X560000Y450000D01*
X555760Y450000D02*
X450872Y554888D01*
X405112Y554888D02*
X400000Y560000D01*
X405112Y554888D02*
X450872Y554888D01*
D18*
X620000Y501994D03*
D19*
X573477Y485748D02*
X564252Y476523D01*
X564252Y463477D01*
X566830Y447171D02*
X562829Y443170D01*
X509294Y490000D02*
X460000Y490000D01*
X603754Y485748D02*
X620000Y501994D01*
X603754Y485748D02*
X573477Y485748D01*
X564252Y463477D02*
X566830Y460899D01*
X566830Y447171D01*
X562829Y443170D02*
X556124Y443170D01*
X509294Y490000D01*
D18*
X460000Y490000D03*
X340000Y540000D03*
D19*
X304300Y504300D01*
X295100Y504300D01*
D18*
X410000Y570000D03*
X550000Y550000D03*
D19*
X434041Y570000D02*
X410000Y570000D01*
X538888Y561112D02*
X550000Y550000D01*
X442929Y561112D02*
X434041Y570000D01*
X442929Y561112D02*
X538888Y561112D01*
D21*
X442718Y580796D02*
X442422Y580500D01*
X442718Y580796D02*
X590796Y580796D01*
D18*
X830000Y630000D03*
D21*
X813744Y646256D01*
X650000Y640000D02*
X590796Y580796D01*
X650000Y640000D02*
X656256Y646256D01*
D19*
X750256Y646256D02*
X813744Y646256D01*
X750256Y646256D02*
X750000Y646000D01*
D18*
X750000Y646000D03*
X724000Y646000D03*
D19*
X656000Y646000D01*
X650000Y640000D01*
X442718Y580796D02*
X370796Y580796D01*
X370000Y580000D01*
D18*
X370000Y580000D03*
M02*
