G04 EAGLE Gerber RS-274X export*
G75*
%MOMM*%
%FSLAX34Y34*%
%LPD*%
%INBottom Copper*%
%IPPOS*%
%AMOC8*
5,1,8,0,0,1.08239X$1,22.5*%
G01*
%ADD10R,1.508000X1.508000*%
%ADD11C,1.508000*%
%ADD12R,1.308000X1.308000*%
%ADD13C,1.308000*%
%ADD14R,2.100000X2.100000*%
%ADD15C,2.100000*%
%ADD16P,1.649562X8X22.500000*%
%ADD17C,1.524000*%
%ADD18C,1.879600*%
%ADD19C,0.756400*%
%ADD20C,0.508000*%
%ADD21C,0.406400*%
%ADD22C,0.304800*%
%ADD23C,2.540000*%

G36*
X928020Y10164D02*
X928020Y10164D01*
X928039Y10162D01*
X928141Y10184D01*
X928243Y10200D01*
X928260Y10210D01*
X928280Y10214D01*
X928369Y10267D01*
X928460Y10316D01*
X928474Y10330D01*
X928491Y10340D01*
X928558Y10419D01*
X928630Y10494D01*
X928638Y10512D01*
X928651Y10527D01*
X928690Y10623D01*
X928733Y10717D01*
X928735Y10737D01*
X928743Y10755D01*
X928761Y10922D01*
X928761Y327864D01*
X928758Y327884D01*
X928760Y327903D01*
X928738Y328005D01*
X928722Y328107D01*
X928712Y328124D01*
X928708Y328144D01*
X928655Y328233D01*
X928606Y328324D01*
X928592Y328338D01*
X928582Y328355D01*
X928503Y328422D01*
X928428Y328494D01*
X928410Y328502D01*
X928395Y328515D01*
X928299Y328554D01*
X928205Y328597D01*
X928185Y328599D01*
X928167Y328607D01*
X928000Y328625D01*
X890053Y328625D01*
X889963Y328611D01*
X889872Y328603D01*
X889842Y328591D01*
X889810Y328586D01*
X889730Y328543D01*
X889646Y328507D01*
X889614Y328481D01*
X889593Y328470D01*
X889571Y328447D01*
X889515Y328402D01*
X863589Y302477D01*
X858361Y300311D01*
X802743Y300311D01*
X802653Y300297D01*
X802562Y300289D01*
X802533Y300277D01*
X802501Y300272D01*
X802420Y300229D01*
X802336Y300193D01*
X802304Y300167D01*
X802283Y300156D01*
X802261Y300133D01*
X802205Y300088D01*
X793058Y290941D01*
X787829Y288775D01*
X782171Y288775D01*
X776942Y290941D01*
X772941Y294942D01*
X770775Y300171D01*
X770775Y305829D01*
X772941Y311058D01*
X788478Y326595D01*
X793707Y328761D01*
X834274Y328761D01*
X834294Y328764D01*
X834313Y328762D01*
X834415Y328784D01*
X834517Y328800D01*
X834534Y328810D01*
X834554Y328814D01*
X834643Y328867D01*
X834734Y328916D01*
X834748Y328930D01*
X834765Y328940D01*
X834832Y329019D01*
X834904Y329094D01*
X834912Y329112D01*
X834925Y329127D01*
X834964Y329223D01*
X835007Y329317D01*
X835009Y329337D01*
X835017Y329355D01*
X835035Y329522D01*
X835035Y342472D01*
X835928Y343365D01*
X850272Y343365D01*
X851165Y342472D01*
X851165Y332124D01*
X851176Y332053D01*
X851178Y331981D01*
X851196Y331932D01*
X851204Y331881D01*
X851238Y331818D01*
X851263Y331750D01*
X851295Y331710D01*
X851320Y331663D01*
X851372Y331614D01*
X851416Y331558D01*
X851460Y331530D01*
X851498Y331494D01*
X851563Y331464D01*
X851623Y331425D01*
X851674Y331412D01*
X851721Y331390D01*
X851792Y331383D01*
X851862Y331365D01*
X851914Y331369D01*
X851965Y331363D01*
X852036Y331379D01*
X852107Y331384D01*
X852155Y331405D01*
X852206Y331416D01*
X852267Y331452D01*
X852333Y331481D01*
X852389Y331525D01*
X852417Y331542D01*
X852432Y331560D01*
X852464Y331585D01*
X875788Y354909D01*
X881016Y357075D01*
X928000Y357075D01*
X928020Y357078D01*
X928039Y357076D01*
X928141Y357098D01*
X928243Y357114D01*
X928260Y357124D01*
X928280Y357128D01*
X928369Y357181D01*
X928460Y357230D01*
X928474Y357244D01*
X928491Y357254D01*
X928558Y357333D01*
X928630Y357408D01*
X928638Y357426D01*
X928651Y357441D01*
X928690Y357537D01*
X928733Y357631D01*
X928735Y357651D01*
X928743Y357669D01*
X928761Y357836D01*
X928761Y365964D01*
X928758Y365984D01*
X928760Y366003D01*
X928738Y366105D01*
X928722Y366207D01*
X928712Y366224D01*
X928708Y366244D01*
X928655Y366333D01*
X928606Y366424D01*
X928592Y366438D01*
X928582Y366455D01*
X928503Y366522D01*
X928428Y366594D01*
X928410Y366602D01*
X928395Y366615D01*
X928299Y366654D01*
X928205Y366697D01*
X928185Y366699D01*
X928167Y366707D01*
X928000Y366725D01*
X849385Y366725D01*
X848284Y367181D01*
X848220Y367196D01*
X848160Y367221D01*
X848077Y367230D01*
X848045Y367237D01*
X848025Y367236D01*
X847993Y367239D01*
X773604Y367239D01*
X773533Y367228D01*
X773461Y367226D01*
X773412Y367208D01*
X773361Y367200D01*
X773298Y367166D01*
X773230Y367141D01*
X773190Y367109D01*
X773144Y367084D01*
X773094Y367032D01*
X773038Y366988D01*
X773010Y366944D01*
X772974Y366906D01*
X772944Y366841D01*
X772905Y366781D01*
X772893Y366730D01*
X772871Y366683D01*
X772863Y366612D01*
X772845Y366542D01*
X772849Y366490D01*
X772844Y366439D01*
X772859Y366368D01*
X772864Y366297D01*
X772885Y366249D01*
X772896Y366198D01*
X772933Y366137D01*
X772961Y366071D01*
X773005Y366015D01*
X773022Y365987D01*
X773040Y365972D01*
X773065Y365940D01*
X773737Y365268D01*
X774965Y362304D01*
X774965Y359096D01*
X773737Y356132D01*
X771468Y353863D01*
X768504Y352635D01*
X765296Y352635D01*
X762332Y353863D01*
X760063Y356132D01*
X758835Y359096D01*
X758835Y362304D01*
X760063Y365268D01*
X760735Y365940D01*
X760776Y365998D01*
X760826Y366050D01*
X760848Y366097D01*
X760878Y366139D01*
X760899Y366208D01*
X760929Y366273D01*
X760935Y366325D01*
X760950Y366375D01*
X760949Y366446D01*
X760956Y366517D01*
X760945Y366568D01*
X760944Y366620D01*
X760919Y366688D01*
X760904Y366758D01*
X760877Y366803D01*
X760860Y366851D01*
X760815Y366907D01*
X760778Y366969D01*
X760738Y367003D01*
X760706Y367043D01*
X760646Y367082D01*
X760591Y367129D01*
X760543Y367148D01*
X760499Y367176D01*
X760429Y367194D01*
X760363Y367221D01*
X760292Y367229D01*
X760260Y367237D01*
X760237Y367235D01*
X760196Y367239D01*
X665707Y367239D01*
X660478Y369405D01*
X656370Y373513D01*
X571178Y458705D01*
X571120Y458747D01*
X571068Y458796D01*
X571021Y458818D01*
X570979Y458848D01*
X570910Y458870D01*
X570845Y458900D01*
X570793Y458906D01*
X570743Y458921D01*
X570672Y458919D01*
X570601Y458927D01*
X570550Y458916D01*
X570498Y458914D01*
X570430Y458890D01*
X570360Y458875D01*
X570316Y458848D01*
X570267Y458830D01*
X570211Y458785D01*
X570149Y458748D01*
X570115Y458709D01*
X570075Y458676D01*
X570036Y458616D01*
X569989Y458562D01*
X569970Y458513D01*
X569942Y458469D01*
X569924Y458400D01*
X569897Y458333D01*
X569889Y458262D01*
X569881Y458231D01*
X569883Y458208D01*
X569879Y458167D01*
X569879Y446068D01*
X569882Y446048D01*
X569880Y446029D01*
X569902Y445927D01*
X569918Y445825D01*
X569928Y445808D01*
X569932Y445788D01*
X569985Y445699D01*
X570034Y445608D01*
X570048Y445594D01*
X570058Y445577D01*
X570137Y445510D01*
X570212Y445438D01*
X570230Y445430D01*
X570245Y445417D01*
X570341Y445378D01*
X570435Y445335D01*
X570455Y445333D01*
X570473Y445325D01*
X570640Y445307D01*
X572198Y445307D01*
X575307Y442198D01*
X575307Y437802D01*
X572198Y434693D01*
X567802Y434693D01*
X567004Y435491D01*
X566988Y435503D01*
X566975Y435518D01*
X566905Y435563D01*
X566875Y435589D01*
X566858Y435596D01*
X566804Y435635D01*
X566785Y435640D01*
X566769Y435651D01*
X566668Y435677D01*
X566569Y435707D01*
X566549Y435706D01*
X566530Y435711D01*
X566427Y435703D01*
X566323Y435701D01*
X566305Y435694D01*
X566285Y435692D01*
X566209Y435660D01*
X566208Y435660D01*
X566190Y435652D01*
X566092Y435616D01*
X566077Y435604D01*
X566058Y435596D01*
X566001Y435550D01*
X566000Y435549D01*
X550139Y435549D01*
X522960Y462728D01*
X522886Y462781D01*
X522817Y462841D01*
X522787Y462853D01*
X522760Y462872D01*
X522673Y462899D01*
X522589Y462933D01*
X522548Y462937D01*
X522525Y462944D01*
X522493Y462943D01*
X522422Y462951D01*
X468771Y462951D01*
X468681Y462937D01*
X468590Y462929D01*
X468561Y462917D01*
X468529Y462912D01*
X468448Y462869D01*
X468364Y462833D01*
X468332Y462807D01*
X468311Y462796D01*
X468289Y462773D01*
X468233Y462728D01*
X466198Y460693D01*
X461802Y460693D01*
X458693Y463802D01*
X458693Y468198D01*
X461802Y471307D01*
X466198Y471307D01*
X468233Y469272D01*
X468307Y469219D01*
X468377Y469159D01*
X468407Y469147D01*
X468433Y469128D01*
X468520Y469101D01*
X468605Y469067D01*
X468646Y469063D01*
X468668Y469056D01*
X468700Y469057D01*
X468771Y469049D01*
X524096Y469049D01*
X524166Y469060D01*
X524238Y469062D01*
X524287Y469080D01*
X524338Y469088D01*
X524402Y469122D01*
X524469Y469147D01*
X524510Y469179D01*
X524556Y469204D01*
X524605Y469256D01*
X524661Y469300D01*
X524689Y469344D01*
X524725Y469382D01*
X524755Y469447D01*
X524794Y469507D01*
X524807Y469558D01*
X524829Y469605D01*
X524837Y469676D01*
X524854Y469746D01*
X524850Y469798D01*
X524856Y469849D01*
X524841Y469920D01*
X524835Y469991D01*
X524815Y470039D01*
X524804Y470090D01*
X524767Y470151D01*
X524739Y470217D01*
X524694Y470273D01*
X524677Y470301D01*
X524660Y470316D01*
X524634Y470348D01*
X508254Y486728D01*
X508180Y486781D01*
X508110Y486841D01*
X508080Y486853D01*
X508054Y486872D01*
X507967Y486899D01*
X507882Y486933D01*
X507841Y486937D01*
X507819Y486944D01*
X507787Y486943D01*
X507716Y486951D01*
X464771Y486951D01*
X464681Y486937D01*
X464590Y486929D01*
X464561Y486917D01*
X464529Y486912D01*
X464448Y486869D01*
X464364Y486833D01*
X464332Y486807D01*
X464311Y486796D01*
X464289Y486773D01*
X464233Y486728D01*
X462198Y484693D01*
X457802Y484693D01*
X454693Y487802D01*
X454693Y492198D01*
X457802Y495307D01*
X462198Y495307D01*
X464233Y493272D01*
X464307Y493219D01*
X464377Y493159D01*
X464407Y493147D01*
X464433Y493128D01*
X464520Y493101D01*
X464605Y493067D01*
X464646Y493063D01*
X464668Y493056D01*
X464700Y493057D01*
X464771Y493049D01*
X510557Y493049D01*
X557164Y446442D01*
X557238Y446389D01*
X557307Y446329D01*
X557337Y446317D01*
X557363Y446298D01*
X557450Y446271D01*
X557535Y446237D01*
X557576Y446233D01*
X557598Y446226D01*
X557631Y446227D01*
X557702Y446219D01*
X561251Y446219D01*
X561341Y446233D01*
X561432Y446241D01*
X561462Y446253D01*
X561494Y446258D01*
X561574Y446301D01*
X561658Y446337D01*
X561690Y446363D01*
X561711Y446374D01*
X561733Y446397D01*
X561789Y446442D01*
X563558Y448211D01*
X563611Y448285D01*
X563671Y448354D01*
X563683Y448384D01*
X563702Y448411D01*
X563729Y448497D01*
X563763Y448582D01*
X563767Y448623D01*
X563774Y448646D01*
X563773Y448678D01*
X563781Y448749D01*
X563781Y459321D01*
X563780Y459331D01*
X563780Y459338D01*
X563773Y459370D01*
X563767Y459411D01*
X563759Y459502D01*
X563747Y459532D01*
X563742Y459564D01*
X563699Y459644D01*
X563663Y459728D01*
X563637Y459760D01*
X563626Y459781D01*
X563603Y459803D01*
X563558Y459859D01*
X561203Y462214D01*
X561203Y477786D01*
X572214Y488797D01*
X592176Y488797D01*
X592266Y488811D01*
X592357Y488819D01*
X592387Y488831D01*
X592419Y488836D01*
X592499Y488879D01*
X592583Y488915D01*
X592615Y488941D01*
X592636Y488952D01*
X592658Y488975D01*
X592714Y489020D01*
X604470Y500776D01*
X604523Y500850D01*
X604583Y500919D01*
X604595Y500949D01*
X604614Y500976D01*
X604641Y501063D01*
X604675Y501147D01*
X604679Y501188D01*
X604686Y501211D01*
X604685Y501243D01*
X604693Y501314D01*
X604693Y504192D01*
X604977Y504476D01*
X605019Y504534D01*
X605068Y504586D01*
X605090Y504633D01*
X605120Y504675D01*
X605142Y504744D01*
X605172Y504809D01*
X605177Y504861D01*
X605193Y504911D01*
X605191Y504982D01*
X605199Y505053D01*
X605188Y505104D01*
X605186Y505156D01*
X605162Y505224D01*
X605147Y505294D01*
X605120Y505339D01*
X605102Y505387D01*
X605057Y505443D01*
X605020Y505505D01*
X604981Y505539D01*
X604948Y505579D01*
X604888Y505618D01*
X604833Y505665D01*
X604785Y505684D01*
X604741Y505712D01*
X604672Y505730D01*
X604605Y505757D01*
X604534Y505765D01*
X604503Y505773D01*
X604480Y505771D01*
X604439Y505775D01*
X567171Y505775D01*
X561942Y507941D01*
X557941Y511942D01*
X555775Y517171D01*
X555775Y522829D01*
X557941Y528058D01*
X561942Y532059D01*
X567171Y534225D01*
X722829Y534225D01*
X728058Y532059D01*
X755669Y504448D01*
X755743Y504395D01*
X755813Y504335D01*
X755843Y504323D01*
X755869Y504304D01*
X755956Y504277D01*
X756041Y504243D01*
X756082Y504239D01*
X756104Y504232D01*
X756136Y504233D01*
X756207Y504225D01*
X793821Y504225D01*
X793891Y504236D01*
X793963Y504238D01*
X794012Y504256D01*
X794063Y504264D01*
X794127Y504298D01*
X794194Y504323D01*
X794235Y504355D01*
X794281Y504380D01*
X794330Y504432D01*
X794386Y504476D01*
X794414Y504520D01*
X794450Y504558D01*
X794480Y504623D01*
X794519Y504683D01*
X794532Y504734D01*
X794554Y504781D01*
X794562Y504852D01*
X794579Y504922D01*
X794575Y504974D01*
X794581Y505025D01*
X794566Y505096D01*
X794560Y505167D01*
X794540Y505215D01*
X794529Y505266D01*
X794492Y505327D01*
X794464Y505393D01*
X794419Y505449D01*
X794402Y505477D01*
X794385Y505492D01*
X794359Y505524D01*
X790910Y508973D01*
X767941Y531942D01*
X765775Y537171D01*
X765775Y560757D01*
X765761Y560847D01*
X765753Y560938D01*
X765741Y560968D01*
X765736Y561000D01*
X765693Y561081D01*
X765657Y561165D01*
X765631Y561197D01*
X765620Y561217D01*
X765597Y561240D01*
X765552Y561296D01*
X756264Y570584D01*
X756206Y570626D01*
X756154Y570675D01*
X756107Y570697D01*
X756065Y570727D01*
X755996Y570748D01*
X755931Y570779D01*
X755879Y570784D01*
X755829Y570800D01*
X755758Y570798D01*
X755687Y570806D01*
X755636Y570795D01*
X755584Y570793D01*
X755516Y570769D01*
X755446Y570753D01*
X755401Y570727D01*
X755353Y570709D01*
X755297Y570664D01*
X755235Y570627D01*
X755201Y570588D01*
X755161Y570555D01*
X755122Y570495D01*
X755075Y570440D01*
X755056Y570392D01*
X755028Y570348D01*
X755010Y570279D01*
X754983Y570212D01*
X754975Y570141D01*
X754967Y570110D01*
X754969Y570086D01*
X754965Y570045D01*
X754965Y569096D01*
X753737Y566132D01*
X751468Y563863D01*
X748504Y562635D01*
X745296Y562635D01*
X742332Y563863D01*
X740063Y566132D01*
X738835Y569096D01*
X738835Y572304D01*
X740063Y575268D01*
X740735Y575940D01*
X740776Y575998D01*
X740826Y576050D01*
X740848Y576097D01*
X740878Y576139D01*
X740899Y576208D01*
X740929Y576273D01*
X740935Y576325D01*
X740950Y576375D01*
X740949Y576446D01*
X740956Y576517D01*
X740945Y576568D01*
X740944Y576620D01*
X740919Y576688D01*
X740904Y576758D01*
X740877Y576803D01*
X740860Y576851D01*
X740815Y576907D01*
X740778Y576969D01*
X740738Y577003D01*
X740706Y577043D01*
X740646Y577082D01*
X740591Y577129D01*
X740543Y577148D01*
X740499Y577176D01*
X740429Y577194D01*
X740363Y577221D01*
X740292Y577229D01*
X740260Y577237D01*
X740237Y577235D01*
X740196Y577239D01*
X735707Y577239D01*
X730478Y579405D01*
X726370Y583513D01*
X687941Y621942D01*
X685775Y627171D01*
X685775Y632829D01*
X687941Y638058D01*
X691535Y641652D01*
X691577Y641710D01*
X691626Y641762D01*
X691648Y641809D01*
X691678Y641851D01*
X691700Y641920D01*
X691730Y641985D01*
X691735Y642037D01*
X691751Y642087D01*
X691749Y642158D01*
X691757Y642229D01*
X691746Y642280D01*
X691744Y642332D01*
X691720Y642400D01*
X691705Y642470D01*
X691678Y642515D01*
X691660Y642563D01*
X691615Y642619D01*
X691578Y642681D01*
X691539Y642715D01*
X691506Y642755D01*
X691446Y642794D01*
X691392Y642841D01*
X691343Y642860D01*
X691299Y642888D01*
X691230Y642906D01*
X691163Y642933D01*
X691092Y642941D01*
X691061Y642949D01*
X691038Y642947D01*
X690997Y642951D01*
X658297Y642951D01*
X658206Y642937D01*
X658116Y642929D01*
X658086Y642917D01*
X658054Y642912D01*
X657973Y642869D01*
X657889Y642833D01*
X657857Y642807D01*
X657836Y642796D01*
X657814Y642773D01*
X657758Y642728D01*
X651250Y636220D01*
X595094Y580064D01*
X595052Y580006D01*
X595003Y579954D01*
X594981Y579907D01*
X594951Y579865D01*
X594930Y579796D01*
X594899Y579731D01*
X594894Y579679D01*
X594878Y579629D01*
X594880Y579558D01*
X594872Y579487D01*
X594883Y579436D01*
X594885Y579384D01*
X594909Y579316D01*
X594925Y579246D01*
X594951Y579201D01*
X594969Y579153D01*
X595014Y579097D01*
X595051Y579035D01*
X595090Y579001D01*
X595123Y578961D01*
X595183Y578922D01*
X595238Y578875D01*
X595286Y578856D01*
X595330Y578828D01*
X595399Y578810D01*
X595466Y578783D01*
X595537Y578775D01*
X595568Y578767D01*
X595592Y578769D01*
X595633Y578765D01*
X598504Y578765D01*
X601468Y577537D01*
X603737Y575268D01*
X604965Y572304D01*
X604965Y569096D01*
X603737Y566132D01*
X601468Y563863D01*
X598504Y562635D01*
X595296Y562635D01*
X592332Y563863D01*
X590063Y566132D01*
X588835Y569096D01*
X588835Y572304D01*
X590063Y575268D01*
X590735Y575940D01*
X590776Y575998D01*
X590826Y576050D01*
X590848Y576097D01*
X590878Y576139D01*
X590899Y576208D01*
X590929Y576273D01*
X590935Y576325D01*
X590950Y576375D01*
X590949Y576446D01*
X590956Y576517D01*
X590945Y576568D01*
X590944Y576620D01*
X590919Y576688D01*
X590904Y576758D01*
X590877Y576803D01*
X590860Y576851D01*
X590815Y576907D01*
X590778Y576969D01*
X590738Y577003D01*
X590706Y577043D01*
X590646Y577082D01*
X590591Y577129D01*
X590543Y577148D01*
X590499Y577176D01*
X590429Y577194D01*
X590363Y577221D01*
X590292Y577229D01*
X590260Y577237D01*
X590237Y577235D01*
X590196Y577239D01*
X453604Y577239D01*
X453533Y577228D01*
X453461Y577226D01*
X453412Y577208D01*
X453361Y577200D01*
X453298Y577166D01*
X453230Y577141D01*
X453190Y577109D01*
X453144Y577084D01*
X453094Y577032D01*
X453038Y576988D01*
X453010Y576944D01*
X452974Y576906D01*
X452944Y576841D01*
X452905Y576781D01*
X452893Y576730D01*
X452871Y576683D01*
X452863Y576612D01*
X452845Y576542D01*
X452849Y576490D01*
X452844Y576439D01*
X452859Y576368D01*
X452864Y576297D01*
X452885Y576249D01*
X452896Y576198D01*
X452933Y576137D01*
X452961Y576071D01*
X453005Y576015D01*
X453022Y575987D01*
X453040Y575972D01*
X453065Y575940D01*
X453737Y575268D01*
X454965Y572304D01*
X454965Y569096D01*
X453737Y566132D01*
X453065Y565460D01*
X453024Y565402D01*
X452974Y565350D01*
X452952Y565303D01*
X452922Y565261D01*
X452901Y565192D01*
X452871Y565127D01*
X452865Y565075D01*
X452850Y565025D01*
X452851Y564954D01*
X452844Y564883D01*
X452855Y564832D01*
X452856Y564780D01*
X452881Y564712D01*
X452896Y564642D01*
X452923Y564597D01*
X452940Y564549D01*
X452985Y564493D01*
X453022Y564431D01*
X453062Y564397D01*
X453094Y564357D01*
X453154Y564318D01*
X453209Y564271D01*
X453257Y564252D01*
X453301Y564224D01*
X453371Y564206D01*
X453437Y564179D01*
X453508Y564171D01*
X453540Y564163D01*
X453563Y564165D01*
X453604Y564161D01*
X540151Y564161D01*
X542160Y562152D01*
X548782Y555530D01*
X548856Y555477D01*
X548925Y555417D01*
X548955Y555405D01*
X548982Y555386D01*
X549069Y555359D01*
X549153Y555325D01*
X549194Y555321D01*
X549217Y555314D01*
X549249Y555315D01*
X549320Y555307D01*
X552198Y555307D01*
X555307Y552198D01*
X555307Y547802D01*
X552198Y544693D01*
X547802Y544693D01*
X544693Y547802D01*
X544693Y550680D01*
X544692Y550687D01*
X544692Y550688D01*
X544691Y550692D01*
X544679Y550770D01*
X544671Y550861D01*
X544659Y550891D01*
X544654Y550923D01*
X544611Y551003D01*
X544575Y551087D01*
X544549Y551119D01*
X544538Y551140D01*
X544515Y551162D01*
X544470Y551218D01*
X537848Y557840D01*
X537774Y557893D01*
X537705Y557953D01*
X537675Y557965D01*
X537648Y557984D01*
X537561Y558011D01*
X537477Y558045D01*
X537436Y558049D01*
X537413Y558056D01*
X537381Y558055D01*
X537310Y558063D01*
X441666Y558063D01*
X439657Y560072D01*
X433001Y566728D01*
X432927Y566781D01*
X432857Y566841D01*
X432827Y566853D01*
X432801Y566872D01*
X432714Y566899D01*
X432629Y566933D01*
X432588Y566937D01*
X432566Y566944D01*
X432534Y566943D01*
X432462Y566951D01*
X414771Y566951D01*
X414681Y566937D01*
X414590Y566929D01*
X414561Y566917D01*
X414529Y566912D01*
X414448Y566869D01*
X414364Y566833D01*
X414332Y566807D01*
X414311Y566796D01*
X414289Y566773D01*
X414233Y566728D01*
X412198Y564693D01*
X407802Y564693D01*
X404693Y567802D01*
X404693Y572198D01*
X407802Y575307D01*
X412198Y575307D01*
X414233Y573272D01*
X414307Y573219D01*
X414377Y573159D01*
X414407Y573147D01*
X414433Y573128D01*
X414520Y573101D01*
X414605Y573067D01*
X414646Y573063D01*
X414668Y573056D01*
X414700Y573057D01*
X414771Y573049D01*
X435303Y573049D01*
X437312Y571040D01*
X437536Y570816D01*
X437594Y570775D01*
X437646Y570725D01*
X437693Y570703D01*
X437735Y570673D01*
X437804Y570652D01*
X437869Y570621D01*
X437921Y570616D01*
X437971Y570600D01*
X438042Y570602D01*
X438113Y570594D01*
X438164Y570605D01*
X438216Y570607D01*
X438284Y570631D01*
X438354Y570647D01*
X438398Y570673D01*
X438447Y570691D01*
X438503Y570736D01*
X438565Y570773D01*
X438599Y570812D01*
X438639Y570845D01*
X438678Y570905D01*
X438725Y570960D01*
X438744Y571008D01*
X438772Y571052D01*
X438790Y571121D01*
X438817Y571188D01*
X438825Y571259D01*
X438833Y571290D01*
X438831Y571314D01*
X438835Y571355D01*
X438835Y572304D01*
X440063Y575268D01*
X440805Y576010D01*
X440817Y576027D01*
X440832Y576039D01*
X440862Y576086D01*
X440878Y576103D01*
X440891Y576130D01*
X440949Y576210D01*
X440955Y576229D01*
X440965Y576246D01*
X440991Y576346D01*
X441021Y576445D01*
X441021Y576465D01*
X441025Y576484D01*
X441017Y576587D01*
X441015Y576691D01*
X441008Y576710D01*
X441006Y576730D01*
X440966Y576824D01*
X440930Y576922D01*
X440918Y576938D01*
X440910Y576956D01*
X440805Y577087D01*
X440368Y577524D01*
X440294Y577577D01*
X440224Y577637D01*
X440194Y577649D01*
X440168Y577668D01*
X440081Y577695D01*
X439996Y577729D01*
X439955Y577733D01*
X439933Y577740D01*
X439901Y577739D01*
X439830Y577747D01*
X392374Y577747D01*
X392284Y577733D01*
X392193Y577725D01*
X392163Y577713D01*
X392131Y577708D01*
X392051Y577665D01*
X391967Y577629D01*
X391935Y577603D01*
X391914Y577592D01*
X391892Y577569D01*
X391836Y577524D01*
X391263Y576951D01*
X389198Y576951D01*
X389127Y576940D01*
X389056Y576938D01*
X389007Y576920D01*
X388955Y576912D01*
X388892Y576878D01*
X388825Y576853D01*
X388784Y576821D01*
X388738Y576796D01*
X388689Y576744D01*
X388633Y576700D01*
X388604Y576656D01*
X388569Y576618D01*
X388538Y576553D01*
X388500Y576493D01*
X388487Y576442D01*
X388465Y576395D01*
X388457Y576324D01*
X388440Y576254D01*
X388444Y576202D01*
X388438Y576151D01*
X388453Y576080D01*
X388459Y576009D01*
X388479Y575961D01*
X388490Y575910D01*
X388527Y575849D01*
X388555Y575783D01*
X388600Y575727D01*
X388616Y575699D01*
X388634Y575684D01*
X388660Y575652D01*
X421282Y543030D01*
X421282Y513004D01*
X421296Y512914D01*
X421303Y512823D01*
X421316Y512794D01*
X421321Y512762D01*
X421364Y512681D01*
X421400Y512597D01*
X421425Y512565D01*
X421436Y512544D01*
X421460Y512522D01*
X421505Y512466D01*
X423540Y510431D01*
X423540Y506035D01*
X420431Y502926D01*
X416035Y502926D01*
X412926Y506035D01*
X412926Y510431D01*
X414961Y512466D01*
X415014Y512540D01*
X415074Y512609D01*
X415086Y512640D01*
X415105Y512666D01*
X415132Y512753D01*
X415166Y512838D01*
X415170Y512879D01*
X415177Y512901D01*
X415176Y512933D01*
X415184Y513004D01*
X415184Y540189D01*
X415169Y540279D01*
X415162Y540370D01*
X415150Y540400D01*
X415144Y540432D01*
X415102Y540512D01*
X415066Y540596D01*
X415040Y540628D01*
X415029Y540649D01*
X415006Y540671D01*
X414961Y540727D01*
X385790Y569898D01*
X385716Y569951D01*
X385647Y570011D01*
X385617Y570023D01*
X385590Y570042D01*
X385503Y570069D01*
X385419Y570103D01*
X385378Y570107D01*
X385355Y570114D01*
X385323Y570113D01*
X385252Y570121D01*
X375908Y570121D01*
X369301Y576728D01*
X369227Y576781D01*
X369158Y576841D01*
X369127Y576853D01*
X369101Y576872D01*
X369014Y576899D01*
X368929Y576933D01*
X368888Y576937D01*
X368866Y576944D01*
X368834Y576943D01*
X368763Y576951D01*
X368737Y576951D01*
X366951Y578737D01*
X366951Y585663D01*
X373744Y592456D01*
X373786Y592514D01*
X373835Y592566D01*
X373857Y592613D01*
X373888Y592655D01*
X373909Y592724D01*
X373939Y592789D01*
X373945Y592841D01*
X373960Y592891D01*
X373958Y592962D01*
X373966Y593033D01*
X373955Y593084D01*
X373954Y593136D01*
X373929Y593204D01*
X373914Y593274D01*
X373887Y593319D01*
X373869Y593367D01*
X373824Y593423D01*
X373788Y593485D01*
X373748Y593519D01*
X373716Y593559D01*
X373655Y593598D01*
X373601Y593645D01*
X373552Y593664D01*
X373509Y593692D01*
X373439Y593710D01*
X373373Y593737D01*
X373301Y593745D01*
X373270Y593753D01*
X373247Y593751D01*
X373206Y593755D01*
X360561Y593755D01*
X357200Y595147D01*
X354627Y597720D01*
X353203Y601158D01*
X353165Y601219D01*
X353136Y601285D01*
X353101Y601323D01*
X353074Y601367D01*
X353018Y601413D01*
X352970Y601466D01*
X352924Y601491D01*
X352884Y601524D01*
X352817Y601550D01*
X352754Y601584D01*
X352703Y601594D01*
X352655Y601612D01*
X352583Y601615D01*
X352512Y601628D01*
X352461Y601620D01*
X352409Y601623D01*
X352340Y601603D01*
X352269Y601592D01*
X352223Y601569D01*
X352173Y601554D01*
X352114Y601513D01*
X352050Y601481D01*
X352013Y601444D01*
X351971Y601414D01*
X351928Y601356D01*
X351878Y601305D01*
X351843Y601242D01*
X351824Y601216D01*
X351817Y601194D01*
X351797Y601158D01*
X350373Y597720D01*
X347800Y595147D01*
X344439Y593755D01*
X325561Y593755D01*
X322200Y595147D01*
X319538Y597809D01*
X319480Y597851D01*
X319428Y597900D01*
X319381Y597922D01*
X319339Y597953D01*
X319270Y597974D01*
X319205Y598004D01*
X319153Y598010D01*
X319103Y598025D01*
X319032Y598023D01*
X318961Y598031D01*
X318910Y598020D01*
X318858Y598019D01*
X318790Y597994D01*
X318720Y597979D01*
X318676Y597952D01*
X318627Y597934D01*
X318571Y597889D01*
X318509Y597853D01*
X318475Y597813D01*
X318435Y597780D01*
X318396Y597720D01*
X318349Y597666D01*
X318330Y597617D01*
X318302Y597574D01*
X318284Y597504D01*
X318257Y597438D01*
X318249Y597366D01*
X318241Y597335D01*
X318243Y597312D01*
X318239Y597271D01*
X318239Y593954D01*
X318253Y593864D01*
X318261Y593773D01*
X318273Y593743D01*
X318279Y593711D01*
X318321Y593631D01*
X318357Y593547D01*
X318383Y593515D01*
X318394Y593494D01*
X318417Y593472D01*
X318462Y593416D01*
X318687Y593191D01*
X318761Y593138D01*
X318830Y593078D01*
X318860Y593066D01*
X318886Y593047D01*
X318973Y593020D01*
X319058Y592986D01*
X319099Y592982D01*
X319121Y592975D01*
X319154Y592976D01*
X319225Y592968D01*
X323069Y592968D01*
X331534Y584503D01*
X331534Y580659D01*
X331548Y580569D01*
X331556Y580478D01*
X331568Y580448D01*
X331573Y580416D01*
X331616Y580336D01*
X331652Y580252D01*
X331678Y580220D01*
X331688Y580199D01*
X331712Y580177D01*
X331757Y580121D01*
X357621Y554257D01*
X357621Y526843D01*
X353272Y522494D01*
X353219Y522420D01*
X353159Y522351D01*
X353147Y522321D01*
X353128Y522295D01*
X353101Y522208D01*
X353067Y522123D01*
X353063Y522082D01*
X353056Y522060D01*
X353057Y522027D01*
X353049Y521956D01*
X353049Y520637D01*
X330330Y497918D01*
X330277Y497844D01*
X330217Y497775D01*
X330205Y497745D01*
X330186Y497718D01*
X330159Y497631D01*
X330125Y497547D01*
X330121Y497506D01*
X330114Y497483D01*
X330115Y497451D01*
X330107Y497380D01*
X330107Y494502D01*
X326998Y491393D01*
X324756Y491393D01*
X324685Y491382D01*
X324614Y491380D01*
X324565Y491362D01*
X324513Y491354D01*
X324450Y491320D01*
X324383Y491295D01*
X324342Y491263D01*
X324296Y491238D01*
X324247Y491186D01*
X324191Y491142D01*
X324162Y491098D01*
X324127Y491060D01*
X324096Y490995D01*
X324058Y490935D01*
X324045Y490884D01*
X324023Y490837D01*
X324015Y490766D01*
X323998Y490696D01*
X324002Y490644D01*
X323996Y490593D01*
X324011Y490522D01*
X324017Y490451D01*
X324037Y490403D01*
X324048Y490352D01*
X324085Y490291D01*
X324113Y490225D01*
X324158Y490169D01*
X324174Y490141D01*
X324192Y490126D01*
X324218Y490094D01*
X326442Y487870D01*
X381040Y433272D01*
X383049Y431263D01*
X383049Y311237D01*
X383063Y311147D01*
X383071Y311056D01*
X383083Y311026D01*
X383088Y310995D01*
X383131Y310914D01*
X383167Y310830D01*
X383193Y310798D01*
X383204Y310777D01*
X383227Y310755D01*
X383272Y310699D01*
X398252Y295718D01*
X398326Y295665D01*
X398396Y295606D01*
X398426Y295594D01*
X398452Y295575D01*
X398539Y295548D01*
X398624Y295514D01*
X398665Y295509D01*
X398687Y295503D01*
X398719Y295503D01*
X398791Y295495D01*
X402387Y295495D01*
X405495Y292387D01*
X405495Y287991D01*
X403043Y285538D01*
X403032Y285522D01*
X403016Y285510D01*
X402960Y285422D01*
X402900Y285339D01*
X402894Y285320D01*
X402883Y285303D01*
X402858Y285202D01*
X402827Y285103D01*
X402828Y285084D01*
X402823Y285064D01*
X402831Y284961D01*
X402834Y284858D01*
X402840Y284839D01*
X402842Y284819D01*
X402882Y284724D01*
X402918Y284627D01*
X402931Y284611D01*
X402938Y284593D01*
X403043Y284462D01*
X405307Y282198D01*
X405307Y277802D01*
X402198Y274693D01*
X397802Y274693D01*
X394693Y277802D01*
X394693Y279961D01*
X394679Y280052D01*
X394671Y280142D01*
X394659Y280172D01*
X394654Y280204D01*
X394611Y280285D01*
X394575Y280369D01*
X394549Y280401D01*
X394538Y280422D01*
X394515Y280444D01*
X394470Y280500D01*
X366443Y308527D01*
X366443Y418211D01*
X366441Y418223D01*
X366442Y418230D01*
X366434Y418268D01*
X366429Y418302D01*
X366421Y418392D01*
X366409Y418422D01*
X366404Y418454D01*
X366361Y418535D01*
X366325Y418619D01*
X366299Y418651D01*
X366288Y418672D01*
X366265Y418694D01*
X366220Y418750D01*
X328242Y456728D01*
X328168Y456781D01*
X328098Y456841D01*
X328068Y456853D01*
X328042Y456872D01*
X327955Y456899D01*
X327870Y456933D01*
X327829Y456937D01*
X327807Y456944D01*
X327775Y456943D01*
X327703Y456951D01*
X325655Y456951D01*
X325565Y456937D01*
X325474Y456929D01*
X325445Y456917D01*
X325413Y456912D01*
X325332Y456869D01*
X325248Y456833D01*
X325216Y456807D01*
X325195Y456796D01*
X325173Y456773D01*
X325117Y456728D01*
X322198Y453809D01*
X319000Y453809D01*
X318980Y453806D01*
X318961Y453808D01*
X318859Y453786D01*
X318757Y453770D01*
X318740Y453760D01*
X318720Y453756D01*
X318631Y453703D01*
X318540Y453654D01*
X318526Y453640D01*
X318509Y453630D01*
X318442Y453551D01*
X318371Y453476D01*
X318362Y453458D01*
X318349Y453443D01*
X318310Y453347D01*
X318267Y453253D01*
X318265Y453233D01*
X318257Y453215D01*
X318239Y453048D01*
X318239Y387761D01*
X279318Y387761D01*
X279298Y387758D01*
X279279Y387760D01*
X279177Y387738D01*
X279075Y387722D01*
X279058Y387712D01*
X279038Y387708D01*
X278949Y387655D01*
X278858Y387606D01*
X278844Y387592D01*
X278827Y387582D01*
X278760Y387503D01*
X278688Y387428D01*
X278680Y387410D01*
X278667Y387395D01*
X278628Y387299D01*
X278585Y387205D01*
X278583Y387185D01*
X278575Y387167D01*
X278557Y387000D01*
X278557Y343527D01*
X255462Y320432D01*
X255409Y320358D01*
X255349Y320288D01*
X255337Y320258D01*
X255318Y320232D01*
X255291Y320145D01*
X255257Y320060D01*
X255253Y320019D01*
X255246Y319997D01*
X255247Y319965D01*
X255239Y319893D01*
X255239Y268761D01*
X56761Y268761D01*
X56761Y287000D01*
X56758Y287020D01*
X56760Y287039D01*
X56738Y287141D01*
X56722Y287243D01*
X56712Y287260D01*
X56708Y287280D01*
X56655Y287369D01*
X56606Y287460D01*
X56592Y287474D01*
X56582Y287491D01*
X56503Y287558D01*
X56428Y287630D01*
X56410Y287638D01*
X56395Y287651D01*
X56299Y287690D01*
X56205Y287733D01*
X56185Y287735D01*
X56167Y287743D01*
X56000Y287761D01*
X36871Y287761D01*
X36852Y287758D01*
X36832Y287760D01*
X36731Y287738D01*
X36629Y287722D01*
X36611Y287712D01*
X36592Y287708D01*
X36502Y287655D01*
X36411Y287606D01*
X36398Y287592D01*
X36380Y287582D01*
X36313Y287503D01*
X36242Y287428D01*
X36233Y287410D01*
X36220Y287395D01*
X36182Y287299D01*
X36138Y287205D01*
X36136Y287185D01*
X36129Y287167D01*
X36110Y287000D01*
X36110Y194640D01*
X36125Y194549D01*
X36132Y194459D01*
X36145Y194429D01*
X36150Y194397D01*
X36193Y194316D01*
X36228Y194232D01*
X36254Y194200D01*
X36265Y194179D01*
X36288Y194157D01*
X36333Y194101D01*
X157163Y73272D01*
X157236Y73219D01*
X157306Y73159D01*
X157336Y73147D01*
X157362Y73128D01*
X157449Y73101D01*
X157534Y73067D01*
X157575Y73063D01*
X157597Y73056D01*
X157630Y73057D01*
X157701Y73049D01*
X414439Y73049D01*
X414509Y73060D01*
X414581Y73062D01*
X414630Y73080D01*
X414681Y73088D01*
X414745Y73122D01*
X414812Y73147D01*
X414853Y73179D01*
X414899Y73204D01*
X414948Y73256D01*
X415004Y73300D01*
X415032Y73344D01*
X415068Y73382D01*
X415098Y73447D01*
X415137Y73507D01*
X415150Y73558D01*
X415172Y73605D01*
X415180Y73676D01*
X415197Y73746D01*
X415193Y73798D01*
X415199Y73849D01*
X415184Y73920D01*
X415178Y73991D01*
X415158Y74039D01*
X415147Y74090D01*
X415110Y74151D01*
X415082Y74217D01*
X415037Y74273D01*
X415020Y74301D01*
X415003Y74316D01*
X414977Y74348D01*
X414693Y74632D01*
X414693Y77510D01*
X414679Y77600D01*
X414671Y77691D01*
X414659Y77721D01*
X414654Y77753D01*
X414611Y77833D01*
X414575Y77917D01*
X414549Y77949D01*
X414538Y77970D01*
X414515Y77992D01*
X414470Y78048D01*
X398960Y93558D01*
X396951Y95567D01*
X396951Y185635D01*
X396937Y185725D01*
X396929Y185816D01*
X396917Y185846D01*
X396912Y185878D01*
X396869Y185958D01*
X396833Y186042D01*
X396807Y186075D01*
X396796Y186095D01*
X396773Y186117D01*
X396728Y186173D01*
X394896Y188005D01*
X394896Y192401D01*
X398005Y195510D01*
X402401Y195510D01*
X405510Y192401D01*
X405510Y188005D01*
X403272Y185767D01*
X403227Y185704D01*
X403200Y185676D01*
X403195Y185666D01*
X403159Y185623D01*
X403147Y185593D01*
X403128Y185567D01*
X403101Y185480D01*
X403067Y185395D01*
X403063Y185354D01*
X403056Y185332D01*
X403057Y185300D01*
X403049Y185229D01*
X403049Y98408D01*
X403063Y98318D01*
X403071Y98227D01*
X403083Y98197D01*
X403088Y98165D01*
X403131Y98085D01*
X403167Y98001D01*
X403193Y97969D01*
X403204Y97948D01*
X403227Y97926D01*
X403272Y97870D01*
X418782Y82360D01*
X418856Y82307D01*
X418925Y82247D01*
X418955Y82235D01*
X418982Y82216D01*
X419069Y82189D01*
X419153Y82155D01*
X419194Y82151D01*
X419217Y82144D01*
X419249Y82145D01*
X419320Y82137D01*
X422198Y82137D01*
X425307Y79028D01*
X425307Y74632D01*
X425023Y74348D01*
X424981Y74290D01*
X424932Y74238D01*
X424910Y74191D01*
X424880Y74149D01*
X424858Y74080D01*
X424828Y74015D01*
X424823Y73963D01*
X424807Y73913D01*
X424809Y73842D01*
X424801Y73771D01*
X424812Y73720D01*
X424814Y73668D01*
X424838Y73600D01*
X424853Y73530D01*
X424880Y73485D01*
X424898Y73437D01*
X424943Y73381D01*
X424980Y73319D01*
X425019Y73285D01*
X425052Y73245D01*
X425112Y73206D01*
X425167Y73159D01*
X425215Y73140D01*
X425259Y73112D01*
X425328Y73094D01*
X425395Y73067D01*
X425466Y73059D01*
X425497Y73051D01*
X425520Y73053D01*
X425561Y73049D01*
X653612Y73049D01*
X653702Y73063D01*
X653793Y73071D01*
X653823Y73083D01*
X653855Y73088D01*
X653936Y73131D01*
X654020Y73167D01*
X654052Y73193D01*
X654072Y73204D01*
X654095Y73227D01*
X654151Y73272D01*
X676815Y95936D01*
X676856Y95994D01*
X676906Y96046D01*
X676928Y96093D01*
X676958Y96135D01*
X676979Y96204D01*
X677010Y96269D01*
X677015Y96321D01*
X677031Y96371D01*
X677029Y96442D01*
X677037Y96513D01*
X677026Y96564D01*
X677024Y96616D01*
X677000Y96684D01*
X676984Y96754D01*
X676958Y96799D01*
X676940Y96847D01*
X676895Y96903D01*
X676858Y96965D01*
X676819Y96999D01*
X676786Y97039D01*
X676726Y97078D01*
X676671Y97125D01*
X676623Y97144D01*
X676579Y97172D01*
X676510Y97190D01*
X676443Y97217D01*
X676372Y97225D01*
X676341Y97233D01*
X676317Y97231D01*
X676276Y97235D01*
X665928Y97235D01*
X665035Y98128D01*
X665035Y112472D01*
X665928Y113365D01*
X678878Y113365D01*
X678898Y113368D01*
X678917Y113366D01*
X679019Y113388D01*
X679121Y113404D01*
X679138Y113414D01*
X679158Y113418D01*
X679247Y113471D01*
X679338Y113520D01*
X679352Y113534D01*
X679369Y113544D01*
X679436Y113623D01*
X679508Y113698D01*
X679516Y113716D01*
X679529Y113731D01*
X679568Y113827D01*
X679611Y113921D01*
X679611Y113923D01*
X704470Y138782D01*
X704523Y138856D01*
X704583Y138925D01*
X704595Y138955D01*
X704614Y138982D01*
X704641Y139069D01*
X704675Y139153D01*
X704679Y139194D01*
X704686Y139217D01*
X704685Y139249D01*
X704693Y139320D01*
X704693Y142198D01*
X707802Y145307D01*
X712198Y145307D01*
X715307Y142198D01*
X715307Y137802D01*
X712198Y134693D01*
X709320Y134693D01*
X709230Y134679D01*
X709139Y134671D01*
X709109Y134659D01*
X709077Y134654D01*
X708997Y134611D01*
X708913Y134575D01*
X708881Y134549D01*
X708860Y134538D01*
X708838Y134515D01*
X708782Y134470D01*
X685960Y111648D01*
X685907Y111574D01*
X685847Y111505D01*
X685835Y111475D01*
X685816Y111448D01*
X685789Y111361D01*
X685755Y111277D01*
X685751Y111236D01*
X685744Y111213D01*
X685745Y111181D01*
X685737Y111110D01*
X685737Y96235D01*
X656453Y66951D01*
X154860Y66951D01*
X152851Y68960D01*
X55314Y166497D01*
X55235Y166554D01*
X55160Y166616D01*
X55135Y166625D01*
X55114Y166641D01*
X55021Y166669D01*
X54930Y166704D01*
X54904Y166705D01*
X54879Y166713D01*
X54782Y166710D01*
X54685Y166715D01*
X54659Y166707D01*
X54633Y166707D01*
X54542Y166673D01*
X54448Y166646D01*
X54427Y166631D01*
X54402Y166622D01*
X54326Y166561D01*
X54246Y166506D01*
X54231Y166485D01*
X54210Y166468D01*
X54158Y166387D01*
X54100Y166308D01*
X54091Y166284D01*
X54077Y166262D01*
X54054Y166167D01*
X54023Y166075D01*
X54024Y166048D01*
X54017Y166023D01*
X54025Y165926D01*
X54026Y165829D01*
X54035Y165797D01*
X54036Y165778D01*
X54049Y165748D01*
X54072Y165667D01*
X54761Y164006D01*
X54761Y154394D01*
X51082Y145514D01*
X44286Y138718D01*
X35406Y135039D01*
X25794Y135039D01*
X16914Y138718D01*
X11460Y144171D01*
X11402Y144213D01*
X11350Y144263D01*
X11303Y144284D01*
X11261Y144315D01*
X11192Y144336D01*
X11127Y144366D01*
X11075Y144372D01*
X11025Y144387D01*
X10954Y144385D01*
X10883Y144393D01*
X10832Y144382D01*
X10780Y144381D01*
X10712Y144356D01*
X10642Y144341D01*
X10597Y144314D01*
X10549Y144296D01*
X10493Y144252D01*
X10431Y144215D01*
X10397Y144175D01*
X10357Y144143D01*
X10318Y144082D01*
X10271Y144028D01*
X10252Y143980D01*
X10224Y143936D01*
X10206Y143866D01*
X10179Y143800D01*
X10171Y143728D01*
X10163Y143697D01*
X10165Y143674D01*
X10161Y143633D01*
X10161Y78410D01*
X10172Y78339D01*
X10174Y78267D01*
X10192Y78218D01*
X10200Y78167D01*
X10234Y78104D01*
X10259Y78036D01*
X10291Y77995D01*
X10316Y77949D01*
X10367Y77900D01*
X10412Y77844D01*
X10456Y77816D01*
X10494Y77780D01*
X10559Y77750D01*
X10619Y77711D01*
X10670Y77698D01*
X10717Y77676D01*
X10788Y77669D01*
X10858Y77651D01*
X10910Y77655D01*
X10961Y77649D01*
X11032Y77665D01*
X11103Y77670D01*
X11151Y77691D01*
X11202Y77702D01*
X11263Y77738D01*
X11329Y77767D01*
X11385Y77811D01*
X11413Y77828D01*
X11428Y77846D01*
X11460Y77871D01*
X11723Y78134D01*
X17916Y81710D01*
X24824Y83561D01*
X31976Y83561D01*
X38884Y81710D01*
X45077Y78134D01*
X50134Y73077D01*
X53710Y66884D01*
X55561Y59976D01*
X55561Y52824D01*
X53710Y45916D01*
X50134Y39723D01*
X45077Y34666D01*
X38884Y31090D01*
X31976Y29239D01*
X24824Y29239D01*
X17916Y31090D01*
X11723Y34666D01*
X11460Y34929D01*
X11402Y34970D01*
X11350Y35020D01*
X11303Y35042D01*
X11261Y35072D01*
X11192Y35093D01*
X11127Y35124D01*
X11075Y35129D01*
X11025Y35145D01*
X10954Y35143D01*
X10883Y35151D01*
X10832Y35140D01*
X10780Y35138D01*
X10712Y35114D01*
X10642Y35098D01*
X10597Y35072D01*
X10549Y35054D01*
X10493Y35009D01*
X10431Y34972D01*
X10397Y34933D01*
X10357Y34900D01*
X10318Y34840D01*
X10271Y34785D01*
X10252Y34737D01*
X10224Y34693D01*
X10206Y34624D01*
X10179Y34557D01*
X10171Y34486D01*
X10163Y34455D01*
X10165Y34431D01*
X10161Y34390D01*
X10161Y10922D01*
X10164Y10902D01*
X10162Y10883D01*
X10184Y10781D01*
X10200Y10679D01*
X10210Y10662D01*
X10214Y10642D01*
X10267Y10553D01*
X10316Y10462D01*
X10330Y10448D01*
X10340Y10431D01*
X10419Y10364D01*
X10494Y10292D01*
X10512Y10284D01*
X10527Y10271D01*
X10623Y10232D01*
X10717Y10189D01*
X10737Y10187D01*
X10755Y10179D01*
X10922Y10161D01*
X928000Y10161D01*
X928020Y10164D01*
G37*
G36*
X170177Y271010D02*
X170177Y271010D01*
X170353Y271009D01*
X170575Y271030D01*
X170799Y271041D01*
X170974Y271067D01*
X171149Y271084D01*
X171369Y271127D01*
X171589Y271160D01*
X171760Y271204D01*
X171934Y271238D01*
X172148Y271303D01*
X172364Y271358D01*
X172530Y271419D01*
X172699Y271470D01*
X172906Y271556D01*
X173116Y271632D01*
X173274Y271709D01*
X173438Y271777D01*
X173635Y271883D01*
X173836Y271980D01*
X173986Y272073D01*
X174142Y272157D01*
X174327Y272281D01*
X174517Y272398D01*
X174658Y272505D01*
X174804Y272604D01*
X174919Y272704D01*
X175154Y272882D01*
X175549Y273251D01*
X175656Y273344D01*
X249656Y347344D01*
X249775Y347475D01*
X249901Y347599D01*
X250043Y347771D01*
X250193Y347937D01*
X250298Y348079D01*
X250410Y348215D01*
X250535Y348401D01*
X250667Y348580D01*
X250757Y348732D01*
X250856Y348879D01*
X250962Y349076D01*
X251075Y349268D01*
X251150Y349428D01*
X251233Y349584D01*
X251318Y349790D01*
X251413Y349993D01*
X251471Y350160D01*
X251538Y350324D01*
X251602Y350538D01*
X251676Y350748D01*
X251717Y350920D01*
X251768Y351090D01*
X251810Y351309D01*
X251862Y351526D01*
X251886Y351701D01*
X251920Y351875D01*
X251930Y352027D01*
X251970Y352319D01*
X251989Y352858D01*
X251999Y353000D01*
X251999Y410655D01*
X251990Y410831D01*
X251991Y411008D01*
X251970Y411230D01*
X251959Y411453D01*
X251933Y411628D01*
X251916Y411804D01*
X251873Y412023D01*
X251840Y412244D01*
X251796Y412416D01*
X251762Y412589D01*
X251697Y412802D01*
X251642Y413019D01*
X251581Y413185D01*
X251530Y413354D01*
X251444Y413561D01*
X251368Y413770D01*
X251291Y413929D01*
X251223Y414093D01*
X251117Y414289D01*
X251020Y414490D01*
X250927Y414641D01*
X250844Y414797D01*
X250719Y414982D01*
X250602Y415172D01*
X250495Y415313D01*
X250396Y415459D01*
X250296Y415574D01*
X250118Y415809D01*
X249750Y416203D01*
X249656Y416311D01*
X243855Y422112D01*
X243855Y429688D01*
X247753Y433586D01*
X247832Y433673D01*
X247917Y433755D01*
X248100Y433969D01*
X248290Y434179D01*
X248360Y434274D01*
X248436Y434363D01*
X248597Y434595D01*
X248764Y434822D01*
X248824Y434924D01*
X248892Y435021D01*
X249028Y435267D01*
X249172Y435510D01*
X249222Y435617D01*
X249279Y435720D01*
X249391Y435980D01*
X249510Y436235D01*
X249548Y436346D01*
X249595Y436455D01*
X249680Y436725D01*
X249773Y436991D01*
X249800Y437105D01*
X249836Y437218D01*
X249893Y437494D01*
X249959Y437768D01*
X249975Y437885D01*
X249999Y438000D01*
X250029Y438281D01*
X250067Y438561D01*
X250071Y438678D01*
X250084Y438796D01*
X250085Y439078D01*
X250095Y439360D01*
X250088Y439477D01*
X250088Y439595D01*
X250062Y439876D01*
X250044Y440158D01*
X250024Y440274D01*
X250013Y440391D01*
X249959Y440669D01*
X249912Y440947D01*
X249882Y441060D01*
X249859Y441176D01*
X249777Y441446D01*
X249703Y441719D01*
X249661Y441829D01*
X249627Y441941D01*
X249518Y442202D01*
X249418Y442466D01*
X249365Y442571D01*
X249320Y442680D01*
X249186Y442928D01*
X249059Y443181D01*
X248996Y443280D01*
X248940Y443384D01*
X248782Y443618D01*
X248631Y443856D01*
X248559Y443949D01*
X248493Y444046D01*
X248384Y444172D01*
X248138Y444485D01*
X247862Y444773D01*
X247753Y444898D01*
X246554Y446097D01*
X245935Y447591D01*
X245935Y457055D01*
X245925Y457261D01*
X245925Y457467D01*
X245905Y457660D01*
X245895Y457854D01*
X245864Y458058D01*
X245844Y458262D01*
X245805Y458452D01*
X245776Y458644D01*
X245725Y458844D01*
X245683Y459046D01*
X245640Y459177D01*
X245578Y459419D01*
X245357Y460023D01*
X245326Y460116D01*
X244693Y461644D01*
X244693Y463756D01*
X245501Y465706D01*
X246994Y467199D01*
X247061Y467227D01*
X247194Y467290D01*
X247331Y467344D01*
X247555Y467461D01*
X247784Y467569D01*
X247910Y467645D01*
X248041Y467713D01*
X248252Y467852D01*
X248468Y467982D01*
X248586Y468070D01*
X248710Y468151D01*
X248907Y468310D01*
X249109Y468462D01*
X249217Y468561D01*
X249332Y468654D01*
X249512Y468831D01*
X249698Y469002D01*
X249796Y469112D01*
X249901Y469216D01*
X250062Y469411D01*
X250230Y469599D01*
X250316Y469719D01*
X250410Y469832D01*
X250551Y470042D01*
X250700Y470246D01*
X250774Y470374D01*
X250856Y470496D01*
X250975Y470719D01*
X251103Y470937D01*
X251164Y471071D01*
X251233Y471201D01*
X251330Y471435D01*
X251435Y471665D01*
X251482Y471804D01*
X251538Y471941D01*
X251611Y472183D01*
X251692Y472422D01*
X251726Y472565D01*
X251768Y472707D01*
X251816Y472955D01*
X251873Y473201D01*
X251892Y473347D01*
X251920Y473492D01*
X251931Y473654D01*
X251975Y473994D01*
X251988Y474456D01*
X251999Y474617D01*
X251999Y500376D01*
X251990Y500553D01*
X251991Y500730D01*
X251970Y500951D01*
X251959Y501175D01*
X251933Y501350D01*
X251916Y501526D01*
X251873Y501745D01*
X251840Y501965D01*
X251796Y502137D01*
X251762Y502310D01*
X251697Y502524D01*
X251642Y502740D01*
X251581Y502906D01*
X251530Y503076D01*
X251444Y503282D01*
X251368Y503491D01*
X251291Y503650D01*
X251223Y503814D01*
X251117Y504011D01*
X251020Y504211D01*
X250927Y504362D01*
X250843Y504518D01*
X250803Y504577D01*
X250121Y506224D01*
X250121Y509060D01*
X250112Y509237D01*
X250113Y509414D01*
X250092Y509636D01*
X250081Y509859D01*
X250055Y510034D01*
X250038Y510210D01*
X249995Y510429D01*
X249962Y510650D01*
X249918Y510821D01*
X249884Y510995D01*
X249819Y511209D01*
X249764Y511425D01*
X249703Y511591D01*
X249652Y511760D01*
X249566Y511967D01*
X249490Y512176D01*
X249413Y512335D01*
X249345Y512498D01*
X249239Y512695D01*
X249142Y512896D01*
X249049Y513047D01*
X248966Y513202D01*
X248841Y513387D01*
X248724Y513578D01*
X248617Y513719D01*
X248518Y513865D01*
X248418Y513980D01*
X248240Y514214D01*
X247871Y514610D01*
X247778Y514717D01*
X245501Y516994D01*
X244616Y519130D01*
X244610Y519195D01*
X244567Y519415D01*
X244534Y519635D01*
X244490Y519806D01*
X244456Y519980D01*
X244391Y520194D01*
X244336Y520410D01*
X244275Y520576D01*
X244224Y520745D01*
X244138Y520952D01*
X244062Y521161D01*
X243985Y521320D01*
X243917Y521484D01*
X243811Y521681D01*
X243714Y521882D01*
X243621Y522032D01*
X243538Y522188D01*
X243413Y522373D01*
X243296Y522563D01*
X243189Y522704D01*
X243090Y522850D01*
X242990Y522965D01*
X242890Y523097D01*
X242379Y524330D01*
X242379Y570337D01*
X242370Y570513D01*
X242371Y570690D01*
X242350Y570912D01*
X242339Y571135D01*
X242313Y571310D01*
X242296Y571486D01*
X242253Y571705D01*
X242220Y571926D01*
X242176Y572097D01*
X242142Y572271D01*
X242077Y572485D01*
X242022Y572701D01*
X241961Y572867D01*
X241910Y573036D01*
X241824Y573243D01*
X241748Y573452D01*
X241671Y573611D01*
X241603Y573774D01*
X241497Y573971D01*
X241400Y574172D01*
X241307Y574323D01*
X241224Y574478D01*
X241099Y574663D01*
X240982Y574854D01*
X240875Y574995D01*
X240776Y575141D01*
X240676Y575256D01*
X240648Y575293D01*
X240121Y576564D01*
X240121Y583436D01*
X240585Y584556D01*
X242568Y586538D01*
X242568Y586539D01*
X244575Y588546D01*
X244694Y588677D01*
X244820Y588801D01*
X244962Y588974D01*
X245112Y589139D01*
X245217Y589281D01*
X245329Y589418D01*
X245454Y589603D01*
X245587Y589783D01*
X245677Y589935D01*
X245775Y590082D01*
X245881Y590279D01*
X245995Y590471D01*
X246069Y590631D01*
X246152Y590787D01*
X246238Y590994D01*
X246332Y591196D01*
X246390Y591362D01*
X246457Y591526D01*
X246522Y591740D01*
X246595Y591951D01*
X246636Y592123D01*
X246687Y592292D01*
X246729Y592511D01*
X246781Y592729D01*
X246805Y592904D01*
X246839Y593077D01*
X246850Y593229D01*
X246889Y593521D01*
X246908Y594060D01*
X246918Y594202D01*
X246918Y599332D01*
X246910Y599508D01*
X246911Y599685D01*
X246890Y599908D01*
X246878Y600130D01*
X246852Y600305D01*
X246835Y600482D01*
X246792Y600701D01*
X246759Y600921D01*
X246715Y601092D01*
X246681Y601266D01*
X246616Y601480D01*
X246561Y601696D01*
X246500Y601862D01*
X246449Y602032D01*
X246363Y602238D01*
X246287Y602447D01*
X246210Y602607D01*
X246142Y602770D01*
X246036Y602966D01*
X245939Y603167D01*
X245846Y603318D01*
X245762Y603474D01*
X245654Y603635D01*
X244995Y605225D01*
X244995Y621162D01*
X245459Y622282D01*
X249656Y626479D01*
X249775Y626610D01*
X249901Y626735D01*
X250043Y626907D01*
X250193Y627072D01*
X250298Y627215D01*
X250410Y627351D01*
X250535Y627536D01*
X250667Y627716D01*
X250758Y627868D01*
X250856Y628015D01*
X250961Y628212D01*
X251075Y628404D01*
X251150Y628564D01*
X251233Y628720D01*
X251319Y628927D01*
X251413Y629129D01*
X251471Y629296D01*
X251538Y629459D01*
X251602Y629673D01*
X251676Y629884D01*
X251717Y630056D01*
X251768Y630225D01*
X251810Y630445D01*
X251862Y630662D01*
X251886Y630837D01*
X251920Y631010D01*
X251931Y631163D01*
X251970Y631454D01*
X251989Y631993D01*
X251999Y632136D01*
X251999Y663687D01*
X281313Y693001D01*
X303359Y693001D01*
X303535Y693010D01*
X303712Y693009D01*
X303934Y693030D01*
X304157Y693041D01*
X304332Y693067D01*
X304508Y693084D01*
X304727Y693127D01*
X304948Y693160D01*
X305119Y693204D01*
X305293Y693238D01*
X305507Y693303D01*
X305723Y693358D01*
X305889Y693419D01*
X306058Y693470D01*
X306265Y693556D01*
X306474Y693632D01*
X306633Y693709D01*
X306796Y693777D01*
X306993Y693883D01*
X307194Y693980D01*
X307345Y694073D01*
X307500Y694157D01*
X307685Y694281D01*
X307876Y694398D01*
X308017Y694505D01*
X308163Y694604D01*
X308278Y694704D01*
X308513Y694882D01*
X308908Y695251D01*
X309015Y695344D01*
X314086Y700415D01*
X315206Y700879D01*
X322078Y700879D01*
X323198Y700415D01*
X328269Y695344D01*
X328400Y695225D01*
X328524Y695099D01*
X328696Y694957D01*
X328862Y694807D01*
X329004Y694702D01*
X329140Y694590D01*
X329326Y694465D01*
X329506Y694333D01*
X329657Y694243D01*
X329804Y694144D01*
X330002Y694038D01*
X330194Y693925D01*
X330354Y693850D01*
X330510Y693767D01*
X330716Y693682D01*
X330919Y693587D01*
X331085Y693529D01*
X331249Y693462D01*
X331463Y693398D01*
X331674Y693324D01*
X331846Y693283D01*
X332015Y693232D01*
X332234Y693190D01*
X332451Y693138D01*
X332627Y693114D01*
X332800Y693080D01*
X332952Y693070D01*
X333244Y693030D01*
X333783Y693011D01*
X333925Y693001D01*
X755687Y693001D01*
X797040Y651648D01*
X797171Y651529D01*
X797295Y651403D01*
X797467Y651261D01*
X797633Y651111D01*
X797775Y651006D01*
X797911Y650894D01*
X798097Y650769D01*
X798276Y650637D01*
X798428Y650547D01*
X798575Y650448D01*
X798772Y650342D01*
X798964Y650229D01*
X799124Y650154D01*
X799280Y650071D01*
X799487Y649986D01*
X799689Y649891D01*
X799856Y649833D01*
X800020Y649766D01*
X800234Y649702D01*
X800444Y649628D01*
X800616Y649587D01*
X800786Y649536D01*
X801005Y649494D01*
X801222Y649442D01*
X801397Y649418D01*
X801571Y649384D01*
X801723Y649374D01*
X802015Y649334D01*
X802554Y649315D01*
X802696Y649305D01*
X810219Y649305D01*
X810425Y649315D01*
X810631Y649315D01*
X810824Y649335D01*
X811018Y649345D01*
X811222Y649376D01*
X811427Y649396D01*
X811617Y649435D01*
X811808Y649464D01*
X812008Y649515D01*
X812210Y649557D01*
X812342Y649600D01*
X812583Y649662D01*
X812996Y649813D01*
X814452Y649813D01*
X815759Y649271D01*
X827656Y637374D01*
X827809Y637236D01*
X827955Y637090D01*
X828106Y636967D01*
X828249Y636837D01*
X828415Y636715D01*
X828575Y636585D01*
X828737Y636478D01*
X828893Y636363D01*
X829070Y636258D01*
X829242Y636144D01*
X829366Y636082D01*
X829581Y635955D01*
X830165Y635683D01*
X830251Y635640D01*
X833006Y634499D01*
X834499Y633006D01*
X835307Y631056D01*
X835307Y628944D01*
X834499Y626994D01*
X833752Y626248D01*
X833673Y626160D01*
X833588Y626079D01*
X833405Y625864D01*
X833216Y625655D01*
X833146Y625560D01*
X833070Y625470D01*
X832909Y625238D01*
X832741Y625011D01*
X832681Y624910D01*
X832614Y624813D01*
X832477Y624566D01*
X832333Y624323D01*
X832284Y624216D01*
X832227Y624113D01*
X832115Y623854D01*
X831996Y623598D01*
X831957Y623487D01*
X831911Y623378D01*
X831826Y623109D01*
X831733Y622843D01*
X831705Y622728D01*
X831670Y622616D01*
X831612Y622340D01*
X831546Y622065D01*
X831531Y621948D01*
X831506Y621833D01*
X831477Y621552D01*
X831439Y621273D01*
X831434Y621155D01*
X831422Y621038D01*
X831420Y620755D01*
X831410Y620474D01*
X831418Y620356D01*
X831417Y620238D01*
X831444Y619957D01*
X831462Y619676D01*
X831481Y619559D01*
X831492Y619442D01*
X831547Y619164D01*
X831593Y618887D01*
X831624Y618773D01*
X831647Y618657D01*
X831729Y618386D01*
X831802Y618115D01*
X831844Y618005D01*
X831879Y617892D01*
X831987Y617631D01*
X832088Y617368D01*
X832140Y617263D01*
X832186Y617153D01*
X832320Y616905D01*
X832446Y616653D01*
X832509Y616553D01*
X832565Y616449D01*
X832723Y616216D01*
X832874Y615977D01*
X832947Y615884D01*
X833013Y615787D01*
X833122Y615661D01*
X833368Y615348D01*
X833644Y615060D01*
X833752Y614935D01*
X860344Y588344D01*
X860475Y588225D01*
X860599Y588099D01*
X860771Y587957D01*
X860937Y587807D01*
X861079Y587702D01*
X861215Y587590D01*
X861401Y587465D01*
X861580Y587333D01*
X861732Y587243D01*
X861879Y587144D01*
X862076Y587039D01*
X862268Y586925D01*
X862429Y586850D01*
X862584Y586767D01*
X862791Y586682D01*
X862993Y586587D01*
X863160Y586529D01*
X863324Y586462D01*
X863538Y586398D01*
X863748Y586324D01*
X863920Y586283D01*
X864090Y586232D01*
X864309Y586190D01*
X864526Y586138D01*
X864701Y586114D01*
X864875Y586080D01*
X865027Y586070D01*
X865319Y586030D01*
X865858Y586011D01*
X866000Y586001D01*
X950000Y586001D01*
X950177Y586010D01*
X950353Y586009D01*
X950575Y586030D01*
X950799Y586041D01*
X950974Y586067D01*
X951149Y586084D01*
X951369Y586127D01*
X951589Y586160D01*
X951760Y586204D01*
X951934Y586238D01*
X952148Y586303D01*
X952364Y586358D01*
X952530Y586419D01*
X952699Y586470D01*
X952906Y586556D01*
X953116Y586632D01*
X953274Y586709D01*
X953438Y586777D01*
X953635Y586883D01*
X953836Y586980D01*
X953986Y587073D01*
X954142Y587157D01*
X954327Y587281D01*
X954517Y587398D01*
X954658Y587505D01*
X954804Y587604D01*
X954919Y587704D01*
X955154Y587882D01*
X955549Y588251D01*
X955656Y588344D01*
X973656Y606344D01*
X973775Y606475D01*
X973901Y606599D01*
X974043Y606771D01*
X974193Y606937D01*
X974298Y607079D01*
X974410Y607215D01*
X974535Y607401D01*
X974667Y607580D01*
X974757Y607732D01*
X974856Y607879D01*
X974962Y608076D01*
X975075Y608268D01*
X975150Y608428D01*
X975233Y608584D01*
X975318Y608791D01*
X975413Y608993D01*
X975471Y609160D01*
X975538Y609324D01*
X975602Y609538D01*
X975676Y609748D01*
X975717Y609920D01*
X975768Y610090D01*
X975810Y610309D01*
X975862Y610526D01*
X975886Y610701D01*
X975920Y610875D01*
X975930Y611027D01*
X975970Y611319D01*
X975989Y611858D01*
X975999Y612000D01*
X975999Y703000D01*
X975994Y703106D01*
X975996Y703196D01*
X975991Y703257D01*
X975991Y703353D01*
X975970Y703575D01*
X975959Y703799D01*
X975935Y703960D01*
X975932Y703993D01*
X975930Y704008D01*
X975916Y704149D01*
X975873Y704369D01*
X975840Y704589D01*
X975796Y704761D01*
X975762Y704934D01*
X975697Y705148D01*
X975642Y705364D01*
X975581Y705530D01*
X975530Y705699D01*
X975444Y705906D01*
X975368Y706116D01*
X975291Y706275D01*
X975223Y706438D01*
X975117Y706634D01*
X975020Y706836D01*
X974927Y706986D01*
X974844Y707142D01*
X974719Y707327D01*
X974602Y707517D01*
X974495Y707658D01*
X974396Y707804D01*
X974296Y707920D01*
X974118Y708154D01*
X973750Y708549D01*
X973656Y708656D01*
X966602Y715711D01*
X966357Y715932D01*
X966117Y716157D01*
X966061Y716200D01*
X966009Y716247D01*
X965743Y716443D01*
X965482Y716643D01*
X965422Y716680D01*
X965365Y716722D01*
X965080Y716891D01*
X964801Y717063D01*
X964738Y717094D01*
X964677Y717130D01*
X964378Y717269D01*
X964082Y717413D01*
X964029Y717432D01*
X963952Y717467D01*
X963197Y717730D01*
X963086Y717757D01*
X963016Y717781D01*
X961116Y718290D01*
X954923Y721866D01*
X949866Y726923D01*
X946290Y733116D01*
X945781Y735016D01*
X945680Y735329D01*
X945585Y735645D01*
X945558Y735710D01*
X945536Y735777D01*
X945404Y736078D01*
X945277Y736383D01*
X945244Y736445D01*
X945216Y736510D01*
X945055Y736797D01*
X944898Y737087D01*
X944859Y737146D01*
X944824Y737207D01*
X944635Y737477D01*
X944450Y737750D01*
X944413Y737792D01*
X944365Y737862D01*
X943842Y738467D01*
X943759Y738546D01*
X943711Y738602D01*
X894816Y787496D01*
X894685Y787615D01*
X894561Y787741D01*
X894389Y787883D01*
X894223Y788033D01*
X894081Y788138D01*
X893945Y788250D01*
X893759Y788375D01*
X893580Y788507D01*
X893428Y788597D01*
X893281Y788696D01*
X893084Y788802D01*
X892892Y788915D01*
X892732Y788990D01*
X892576Y789073D01*
X892369Y789158D01*
X892167Y789253D01*
X892000Y789311D01*
X891836Y789378D01*
X891622Y789442D01*
X891412Y789516D01*
X891240Y789557D01*
X891070Y789608D01*
X890851Y789650D01*
X890634Y789702D01*
X890459Y789726D01*
X890285Y789760D01*
X890133Y789770D01*
X889841Y789810D01*
X889302Y789829D01*
X889160Y789839D01*
X230840Y789839D01*
X230663Y789830D01*
X230487Y789831D01*
X230265Y789810D01*
X230041Y789799D01*
X229866Y789773D01*
X229691Y789756D01*
X229471Y789713D01*
X229251Y789680D01*
X229080Y789636D01*
X228906Y789602D01*
X228692Y789537D01*
X228476Y789482D01*
X228310Y789421D01*
X228141Y789370D01*
X227934Y789284D01*
X227725Y789208D01*
X227566Y789131D01*
X227402Y789063D01*
X227205Y788957D01*
X227004Y788860D01*
X226854Y788767D01*
X226698Y788684D01*
X226513Y788559D01*
X226323Y788442D01*
X226182Y788335D01*
X226036Y788236D01*
X225921Y788136D01*
X225686Y787958D01*
X225291Y787589D01*
X225184Y787496D01*
X164344Y726656D01*
X164225Y726525D01*
X164099Y726401D01*
X163957Y726229D01*
X163807Y726063D01*
X163702Y725921D01*
X163590Y725785D01*
X163465Y725599D01*
X163333Y725420D01*
X163243Y725268D01*
X163144Y725121D01*
X163038Y724924D01*
X162925Y724732D01*
X162850Y724572D01*
X162767Y724416D01*
X162682Y724209D01*
X162587Y724007D01*
X162529Y723840D01*
X162462Y723676D01*
X162398Y723462D01*
X162324Y723252D01*
X162283Y723080D01*
X162232Y722910D01*
X162190Y722691D01*
X162138Y722474D01*
X162114Y722299D01*
X162080Y722125D01*
X162070Y721973D01*
X162030Y721681D01*
X162011Y721142D01*
X162001Y721000D01*
X162001Y618828D01*
X162011Y618622D01*
X162011Y618416D01*
X162031Y618223D01*
X162041Y618029D01*
X162072Y617825D01*
X162092Y617620D01*
X162131Y617430D01*
X162160Y617238D01*
X162211Y617039D01*
X162253Y616837D01*
X162296Y616705D01*
X162358Y616463D01*
X162578Y615860D01*
X162610Y615767D01*
X163049Y614706D01*
X163049Y564235D01*
X163058Y564059D01*
X163057Y563882D01*
X163078Y563660D01*
X163089Y563437D01*
X163115Y563262D01*
X163132Y563086D01*
X163175Y562867D01*
X163208Y562646D01*
X163252Y562475D01*
X163286Y562301D01*
X163351Y562087D01*
X163406Y561871D01*
X163467Y561705D01*
X163518Y561536D01*
X163604Y561329D01*
X163680Y561120D01*
X163757Y560961D01*
X163825Y560798D01*
X163931Y560601D01*
X164028Y560400D01*
X164121Y560249D01*
X164204Y560094D01*
X164329Y559909D01*
X164446Y559718D01*
X164553Y559577D01*
X164652Y559431D01*
X164752Y559316D01*
X164930Y559081D01*
X165299Y558686D01*
X165392Y558579D01*
X169415Y554556D01*
X169879Y553436D01*
X169879Y533605D01*
X169886Y533458D01*
X169884Y533310D01*
X169906Y533058D01*
X169919Y532806D01*
X169941Y532660D01*
X169953Y532514D01*
X170000Y532265D01*
X170038Y532015D01*
X170075Y531872D01*
X170102Y531728D01*
X170174Y531486D01*
X170236Y531240D01*
X170287Y531102D01*
X170328Y530961D01*
X170424Y530726D01*
X170510Y530489D01*
X170574Y530357D01*
X170630Y530220D01*
X170748Y529996D01*
X170858Y529769D01*
X170935Y529644D01*
X171004Y529513D01*
X171144Y529303D01*
X171276Y529087D01*
X171365Y528970D01*
X171447Y528847D01*
X171607Y528652D01*
X171760Y528451D01*
X171861Y528343D01*
X171954Y528229D01*
X172133Y528050D01*
X172306Y527866D01*
X172416Y527769D01*
X172521Y527665D01*
X172716Y527505D01*
X172906Y527338D01*
X173027Y527252D01*
X173140Y527159D01*
X173351Y527020D01*
X173557Y526873D01*
X173685Y526800D01*
X173808Y526718D01*
X173953Y526646D01*
X174251Y526475D01*
X174672Y526286D01*
X174817Y526214D01*
X178497Y524690D01*
X181570Y521617D01*
X183233Y517603D01*
X183233Y513257D01*
X181570Y509243D01*
X180713Y508386D01*
X180634Y508299D01*
X180549Y508217D01*
X180366Y508003D01*
X180177Y507793D01*
X180107Y507698D01*
X180031Y507609D01*
X179870Y507377D01*
X179702Y507150D01*
X179642Y507048D01*
X179575Y506951D01*
X179438Y506704D01*
X179294Y506462D01*
X179245Y506355D01*
X179188Y506252D01*
X179076Y505993D01*
X178957Y505737D01*
X178918Y505626D01*
X178872Y505517D01*
X178787Y505248D01*
X178694Y504982D01*
X178666Y504867D01*
X178631Y504755D01*
X178573Y504478D01*
X178507Y504204D01*
X178492Y504087D01*
X178467Y503972D01*
X178438Y503691D01*
X178400Y503412D01*
X178395Y503294D01*
X178383Y503177D01*
X178381Y502894D01*
X178371Y502612D01*
X178379Y502495D01*
X178378Y502377D01*
X178405Y502096D01*
X178423Y501814D01*
X178442Y501698D01*
X178453Y501581D01*
X178508Y501303D01*
X178554Y501025D01*
X178585Y500912D01*
X178608Y500796D01*
X178690Y500525D01*
X178763Y500254D01*
X178805Y500144D01*
X178840Y500031D01*
X178948Y499770D01*
X179049Y499506D01*
X179101Y499401D01*
X179147Y499292D01*
X179281Y499043D01*
X179407Y498792D01*
X179470Y498692D01*
X179526Y498588D01*
X179684Y498354D01*
X179835Y498116D01*
X179908Y498023D01*
X179974Y497926D01*
X180083Y497800D01*
X180329Y497487D01*
X180605Y497199D01*
X180713Y497074D01*
X181570Y496217D01*
X183233Y492203D01*
X183233Y487857D01*
X181570Y483843D01*
X178497Y480770D01*
X174483Y479107D01*
X170000Y479107D01*
X169882Y479101D01*
X169765Y479104D01*
X169483Y479081D01*
X169201Y479067D01*
X169085Y479050D01*
X168967Y479040D01*
X168690Y478990D01*
X168411Y478948D01*
X168296Y478919D01*
X168180Y478898D01*
X167909Y478820D01*
X167636Y478750D01*
X167525Y478709D01*
X167412Y478677D01*
X167150Y478572D01*
X166885Y478476D01*
X166779Y478424D01*
X166669Y478381D01*
X166418Y478250D01*
X166164Y478128D01*
X166064Y478066D01*
X165959Y478012D01*
X165723Y477857D01*
X165483Y477710D01*
X165389Y477638D01*
X165290Y477574D01*
X165071Y477396D01*
X164846Y477226D01*
X164760Y477145D01*
X164668Y477071D01*
X164467Y476873D01*
X164261Y476680D01*
X164183Y476592D01*
X164099Y476509D01*
X163920Y476292D01*
X163733Y476080D01*
X163665Y475984D01*
X163590Y475893D01*
X163432Y475659D01*
X163268Y475429D01*
X163210Y475327D01*
X163144Y475229D01*
X163011Y474980D01*
X162870Y474735D01*
X162822Y474628D01*
X162767Y474524D01*
X162659Y474263D01*
X162544Y474005D01*
X162507Y473894D01*
X162462Y473784D01*
X162381Y473514D01*
X162292Y473246D01*
X162266Y473131D01*
X162232Y473018D01*
X162179Y472741D01*
X162117Y472466D01*
X162103Y472349D01*
X162080Y472233D01*
X162069Y472067D01*
X162021Y471672D01*
X162012Y471274D01*
X162001Y471108D01*
X162001Y465603D01*
X162011Y465397D01*
X162011Y465191D01*
X162031Y464998D01*
X162041Y464804D01*
X162072Y464600D01*
X162092Y464395D01*
X162107Y464325D01*
X162107Y461059D01*
X162080Y460923D01*
X162070Y460784D01*
X162035Y460537D01*
X162008Y459895D01*
X162001Y459797D01*
X162001Y418065D01*
X162010Y417888D01*
X162009Y417712D01*
X162030Y417490D01*
X162041Y417266D01*
X162067Y417092D01*
X162084Y416916D01*
X162127Y416696D01*
X162160Y416476D01*
X162204Y416305D01*
X162238Y416131D01*
X162303Y415917D01*
X162358Y415701D01*
X162419Y415535D01*
X162470Y415366D01*
X162556Y415159D01*
X162632Y414950D01*
X162709Y414791D01*
X162777Y414627D01*
X162883Y414430D01*
X162980Y414229D01*
X163073Y414079D01*
X163157Y413923D01*
X163244Y413794D01*
X164065Y411813D01*
X164065Y385645D01*
X164075Y385439D01*
X164075Y385233D01*
X164095Y385040D01*
X164105Y384846D01*
X164136Y384642D01*
X164156Y384438D01*
X164195Y384248D01*
X164224Y384056D01*
X164275Y383856D01*
X164317Y383654D01*
X164360Y383523D01*
X164422Y383281D01*
X164643Y382677D01*
X164674Y382584D01*
X165307Y381056D01*
X165307Y378944D01*
X164499Y376994D01*
X163006Y375501D01*
X161056Y374693D01*
X160694Y374693D01*
X160517Y374684D01*
X160341Y374685D01*
X160119Y374664D01*
X159895Y374653D01*
X159720Y374627D01*
X159545Y374610D01*
X159325Y374567D01*
X159105Y374534D01*
X158934Y374490D01*
X158760Y374456D01*
X158546Y374391D01*
X158330Y374336D01*
X158164Y374275D01*
X157995Y374224D01*
X157788Y374138D01*
X157579Y374062D01*
X157420Y373985D01*
X157256Y373917D01*
X157059Y373811D01*
X156858Y373714D01*
X156708Y373621D01*
X156552Y373538D01*
X156367Y373413D01*
X156177Y373296D01*
X156036Y373189D01*
X155890Y373090D01*
X155775Y372990D01*
X155540Y372812D01*
X155145Y372443D01*
X155038Y372350D01*
X111160Y328472D01*
X111104Y328472D01*
X110853Y328447D01*
X110600Y328430D01*
X110455Y328406D01*
X110309Y328391D01*
X110061Y328341D01*
X109812Y328299D01*
X109670Y328261D01*
X109525Y328231D01*
X109371Y328180D01*
X109040Y328090D01*
X108635Y327935D01*
X104997Y327935D01*
X101665Y329315D01*
X99115Y331865D01*
X97735Y335197D01*
X97735Y339211D01*
X97740Y339232D01*
X97753Y339319D01*
X97772Y339406D01*
X97810Y339716D01*
X97854Y340023D01*
X97858Y340112D01*
X97869Y340200D01*
X97875Y340512D01*
X97888Y340822D01*
X97883Y340911D01*
X97885Y341000D01*
X97860Y341310D01*
X97842Y341621D01*
X97829Y341708D01*
X97822Y341797D01*
X97766Y342103D01*
X97717Y342411D01*
X97695Y342496D01*
X97679Y342584D01*
X97593Y342883D01*
X97514Y343184D01*
X97483Y343267D01*
X97458Y343352D01*
X97343Y343641D01*
X97234Y343933D01*
X97195Y344013D01*
X97162Y344095D01*
X97018Y344372D01*
X96881Y344651D01*
X96834Y344726D01*
X96793Y344805D01*
X96622Y345066D01*
X96458Y345329D01*
X96404Y345399D01*
X96355Y345474D01*
X96159Y345716D01*
X95969Y345962D01*
X95908Y346027D01*
X95852Y346096D01*
X95634Y346317D01*
X95420Y346543D01*
X95353Y346601D01*
X95290Y346665D01*
X95050Y346863D01*
X94815Y347067D01*
X94742Y347118D01*
X94674Y347174D01*
X94416Y347348D01*
X94161Y347527D01*
X94084Y347571D01*
X94010Y347620D01*
X93735Y347767D01*
X93464Y347920D01*
X93383Y347956D01*
X93305Y347997D01*
X93017Y348116D01*
X92732Y348241D01*
X92648Y348268D01*
X92566Y348302D01*
X92267Y348392D01*
X91971Y348488D01*
X91885Y348506D01*
X91800Y348532D01*
X91494Y348591D01*
X91190Y348657D01*
X91101Y348667D01*
X91014Y348684D01*
X90853Y348695D01*
X90395Y348747D01*
X90051Y348752D01*
X89889Y348763D01*
X76408Y348763D01*
X75287Y349227D01*
X74858Y349656D01*
X74727Y349775D01*
X74603Y349901D01*
X74431Y350043D01*
X74265Y350193D01*
X74123Y350298D01*
X73987Y350410D01*
X73802Y350535D01*
X73622Y350667D01*
X73470Y350757D01*
X73323Y350856D01*
X73126Y350962D01*
X72934Y351075D01*
X72774Y351150D01*
X72618Y351233D01*
X72411Y351318D01*
X72209Y351413D01*
X72042Y351471D01*
X71879Y351538D01*
X71664Y351602D01*
X71454Y351676D01*
X71282Y351717D01*
X71112Y351768D01*
X70893Y351810D01*
X70676Y351862D01*
X70501Y351886D01*
X70327Y351920D01*
X70175Y351930D01*
X69884Y351970D01*
X69344Y351989D01*
X69202Y351999D01*
X51000Y351999D01*
X50882Y351993D01*
X50765Y351996D01*
X50483Y351973D01*
X50201Y351959D01*
X50085Y351942D01*
X49967Y351932D01*
X49690Y351882D01*
X49411Y351840D01*
X49296Y351811D01*
X49180Y351790D01*
X48909Y351712D01*
X48636Y351642D01*
X48525Y351601D01*
X48412Y351569D01*
X48150Y351464D01*
X47885Y351368D01*
X47779Y351316D01*
X47669Y351273D01*
X47418Y351142D01*
X47164Y351020D01*
X47064Y350958D01*
X46959Y350904D01*
X46723Y350749D01*
X46483Y350602D01*
X46389Y350530D01*
X46290Y350466D01*
X46071Y350288D01*
X45846Y350118D01*
X45760Y350037D01*
X45668Y349963D01*
X45467Y349765D01*
X45261Y349572D01*
X45183Y349484D01*
X45099Y349401D01*
X44920Y349184D01*
X44733Y348972D01*
X44665Y348876D01*
X44590Y348785D01*
X44432Y348551D01*
X44268Y348321D01*
X44210Y348219D01*
X44144Y348121D01*
X44011Y347872D01*
X43870Y347627D01*
X43822Y347520D01*
X43767Y347416D01*
X43659Y347155D01*
X43544Y346897D01*
X43507Y346786D01*
X43462Y346676D01*
X43381Y346406D01*
X43292Y346138D01*
X43266Y346023D01*
X43232Y345910D01*
X43179Y345633D01*
X43117Y345358D01*
X43103Y345241D01*
X43080Y345125D01*
X43069Y344959D01*
X43021Y344564D01*
X43012Y344166D01*
X43001Y344000D01*
X43001Y309000D01*
X43010Y308823D01*
X43009Y308647D01*
X43030Y308425D01*
X43041Y308201D01*
X43067Y308026D01*
X43084Y307851D01*
X43127Y307631D01*
X43160Y307411D01*
X43204Y307239D01*
X43238Y307066D01*
X43303Y306852D01*
X43358Y306636D01*
X43419Y306470D01*
X43470Y306301D01*
X43556Y306094D01*
X43632Y305885D01*
X43709Y305726D01*
X43777Y305562D01*
X43883Y305365D01*
X43980Y305164D01*
X44073Y305014D01*
X44156Y304858D01*
X44282Y304673D01*
X44398Y304483D01*
X44505Y304342D01*
X44604Y304196D01*
X44704Y304080D01*
X44882Y303846D01*
X45250Y303451D01*
X45344Y303344D01*
X51080Y297608D01*
X51211Y297489D01*
X51335Y297363D01*
X51507Y297221D01*
X51673Y297071D01*
X51815Y296966D01*
X51951Y296854D01*
X52136Y296729D01*
X52316Y296597D01*
X52468Y296506D01*
X52615Y296408D01*
X52812Y296303D01*
X53004Y296189D01*
X53164Y296114D01*
X53320Y296031D01*
X53527Y295945D01*
X53729Y295851D01*
X53896Y295793D01*
X54060Y295726D01*
X54274Y295662D01*
X54484Y295588D01*
X54656Y295547D01*
X54826Y295496D01*
X55045Y295454D01*
X55262Y295402D01*
X55437Y295378D01*
X55611Y295344D01*
X55763Y295333D01*
X56055Y295294D01*
X56594Y295275D01*
X56736Y295265D01*
X57803Y295265D01*
X61135Y293885D01*
X63685Y291335D01*
X65065Y288003D01*
X65065Y286936D01*
X65070Y286837D01*
X65068Y286764D01*
X65073Y286701D01*
X65073Y286583D01*
X65094Y286361D01*
X65105Y286137D01*
X65131Y285963D01*
X65148Y285787D01*
X65191Y285568D01*
X65224Y285347D01*
X65268Y285175D01*
X65302Y285002D01*
X65367Y284788D01*
X65422Y284572D01*
X65483Y284406D01*
X65534Y284237D01*
X65620Y284030D01*
X65696Y283821D01*
X65773Y283661D01*
X65841Y283498D01*
X65947Y283302D01*
X66044Y283100D01*
X66137Y282950D01*
X66220Y282794D01*
X66345Y282609D01*
X66462Y282419D01*
X66569Y282278D01*
X66668Y282132D01*
X66768Y282017D01*
X66946Y281782D01*
X67314Y281387D01*
X67408Y281280D01*
X75344Y273344D01*
X75475Y273225D01*
X75599Y273099D01*
X75771Y272957D01*
X75937Y272807D01*
X76079Y272702D01*
X76215Y272590D01*
X76400Y272465D01*
X76580Y272333D01*
X76733Y272242D01*
X76879Y272144D01*
X77076Y272039D01*
X77268Y271925D01*
X77429Y271850D01*
X77584Y271767D01*
X77791Y271682D01*
X77993Y271587D01*
X78160Y271529D01*
X78324Y271462D01*
X78538Y271398D01*
X78749Y271324D01*
X78920Y271283D01*
X79090Y271232D01*
X79309Y271190D01*
X79526Y271138D01*
X79701Y271114D01*
X79875Y271080D01*
X80027Y271070D01*
X80319Y271030D01*
X80858Y271011D01*
X81000Y271001D01*
X170000Y271001D01*
X170177Y271010D01*
G37*
G36*
X909161Y531160D02*
X909161Y531160D01*
X909232Y531162D01*
X909281Y531180D01*
X909333Y531188D01*
X909396Y531222D01*
X909463Y531247D01*
X909504Y531279D01*
X909550Y531304D01*
X909599Y531355D01*
X909655Y531400D01*
X909684Y531444D01*
X909720Y531482D01*
X909750Y531547D01*
X909788Y531607D01*
X909801Y531658D01*
X909823Y531705D01*
X909831Y531776D01*
X909849Y531846D01*
X909844Y531898D01*
X909850Y531949D01*
X909835Y532020D01*
X909829Y532091D01*
X909809Y532139D01*
X909798Y532190D01*
X909761Y532251D01*
X909733Y532317D01*
X909688Y532373D01*
X909672Y532401D01*
X909654Y532416D01*
X909628Y532448D01*
X799092Y642984D01*
X799018Y643037D01*
X798949Y643097D01*
X798919Y643109D01*
X798893Y643128D01*
X798806Y643155D01*
X798721Y643189D01*
X798680Y643193D01*
X798657Y643200D01*
X798625Y643199D01*
X798554Y643207D01*
X755027Y643207D01*
X754937Y643193D01*
X754846Y643185D01*
X754817Y643173D01*
X754785Y643168D01*
X754704Y643125D01*
X754620Y643089D01*
X754588Y643063D01*
X754567Y643052D01*
X754545Y643029D01*
X754489Y642984D01*
X752198Y640693D01*
X747802Y640693D01*
X744693Y643802D01*
X744693Y648198D01*
X747802Y651307D01*
X752198Y651307D01*
X753977Y649528D01*
X754051Y649475D01*
X754121Y649415D01*
X754151Y649403D01*
X754177Y649384D01*
X754264Y649357D01*
X754349Y649323D01*
X754390Y649319D01*
X754412Y649312D01*
X754444Y649313D01*
X754515Y649305D01*
X790934Y649305D01*
X791005Y649316D01*
X791076Y649318D01*
X791125Y649336D01*
X791177Y649344D01*
X791240Y649378D01*
X791307Y649403D01*
X791348Y649435D01*
X791394Y649460D01*
X791443Y649511D01*
X791499Y649556D01*
X791528Y649600D01*
X791564Y649638D01*
X791594Y649703D01*
X791632Y649763D01*
X791645Y649814D01*
X791667Y649861D01*
X791675Y649932D01*
X791693Y650002D01*
X791688Y650054D01*
X791694Y650105D01*
X791679Y650176D01*
X791673Y650247D01*
X791653Y650295D01*
X791642Y650346D01*
X791605Y650407D01*
X791577Y650473D01*
X791532Y650529D01*
X791516Y650557D01*
X791498Y650572D01*
X791472Y650604D01*
X765538Y676538D01*
X765464Y676591D01*
X765395Y676651D01*
X765365Y676663D01*
X765339Y676682D01*
X765252Y676709D01*
X765167Y676743D01*
X765126Y676747D01*
X765103Y676754D01*
X765071Y676753D01*
X765000Y676761D01*
X427098Y676761D01*
X427078Y676758D01*
X427059Y676760D01*
X426957Y676738D01*
X426855Y676722D01*
X426838Y676712D01*
X426818Y676708D01*
X426729Y676655D01*
X426638Y676606D01*
X426624Y676592D01*
X426607Y676582D01*
X426540Y676503D01*
X426468Y676428D01*
X426460Y676410D01*
X426447Y676395D01*
X426408Y676299D01*
X426365Y676205D01*
X426363Y676185D01*
X426355Y676167D01*
X426337Y676000D01*
X426337Y671090D01*
X426351Y671000D01*
X426359Y670909D01*
X426371Y670879D01*
X426376Y670847D01*
X426419Y670767D01*
X426455Y670683D01*
X426481Y670651D01*
X426492Y670630D01*
X426515Y670608D01*
X426560Y670552D01*
X444240Y652872D01*
X446249Y650863D01*
X446249Y621037D01*
X426560Y601348D01*
X426507Y601274D01*
X426447Y601205D01*
X426435Y601175D01*
X426416Y601148D01*
X426389Y601061D01*
X426355Y600977D01*
X426351Y600936D01*
X426344Y600913D01*
X426345Y600881D01*
X426337Y600810D01*
X426337Y597218D01*
X418302Y589183D01*
X379410Y589183D01*
X379320Y589169D01*
X379229Y589161D01*
X379199Y589149D01*
X379167Y589144D01*
X379087Y589101D01*
X379003Y589065D01*
X378971Y589039D01*
X378950Y589028D01*
X378928Y589005D01*
X378872Y588960D01*
X373272Y583360D01*
X373219Y583286D01*
X373159Y583217D01*
X373147Y583187D01*
X373128Y583160D01*
X373101Y583073D01*
X373067Y582989D01*
X373063Y582948D01*
X373056Y582925D01*
X373057Y582893D01*
X373049Y582822D01*
X373049Y581919D01*
X373063Y581829D01*
X373071Y581738D01*
X373083Y581708D01*
X373088Y581676D01*
X373131Y581596D01*
X373167Y581512D01*
X373193Y581480D01*
X373204Y581459D01*
X373227Y581437D01*
X373272Y581381D01*
X373394Y581259D01*
X373452Y581217D01*
X373504Y581167D01*
X373551Y581146D01*
X373593Y581115D01*
X373662Y581094D01*
X373727Y581064D01*
X373779Y581058D01*
X373828Y581043D01*
X373900Y581045D01*
X373971Y581037D01*
X374022Y581048D01*
X374074Y581049D01*
X374142Y581074D01*
X374212Y581089D01*
X374257Y581116D01*
X374305Y581134D01*
X374361Y581178D01*
X374423Y581215D01*
X374457Y581255D01*
X374497Y581287D01*
X374536Y581348D01*
X374583Y581402D01*
X374602Y581450D01*
X374630Y581494D01*
X374648Y581564D01*
X374675Y581630D01*
X374683Y581701D01*
X374691Y581733D01*
X374689Y581756D01*
X374693Y581797D01*
X374693Y582198D01*
X377802Y585307D01*
X382198Y585307D01*
X384233Y583272D01*
X384307Y583219D01*
X384377Y583159D01*
X384407Y583147D01*
X384433Y583128D01*
X384520Y583101D01*
X384605Y583067D01*
X384646Y583063D01*
X384668Y583056D01*
X384700Y583057D01*
X384771Y583049D01*
X388422Y583049D01*
X388512Y583063D01*
X388603Y583071D01*
X388633Y583083D01*
X388665Y583088D01*
X388745Y583131D01*
X388829Y583167D01*
X388861Y583193D01*
X388882Y583204D01*
X388904Y583227D01*
X388960Y583272D01*
X389533Y583845D01*
X440422Y583845D01*
X440512Y583859D01*
X440603Y583867D01*
X440632Y583879D01*
X440664Y583884D01*
X440745Y583927D01*
X440829Y583963D01*
X440861Y583989D01*
X440882Y584000D01*
X440904Y584023D01*
X440960Y584068D01*
X441245Y584353D01*
X589007Y584353D01*
X589098Y584367D01*
X589188Y584375D01*
X589218Y584387D01*
X589250Y584392D01*
X589331Y584435D01*
X589415Y584471D01*
X589447Y584497D01*
X589468Y584508D01*
X589490Y584531D01*
X589546Y584576D01*
X654783Y649813D01*
X657729Y649813D01*
X658270Y649272D01*
X658344Y649219D01*
X658414Y649159D01*
X658444Y649147D01*
X658470Y649128D01*
X658557Y649101D01*
X658642Y649067D01*
X658683Y649063D01*
X658705Y649056D01*
X658737Y649057D01*
X658809Y649049D01*
X719229Y649049D01*
X719319Y649063D01*
X719410Y649071D01*
X719439Y649083D01*
X719471Y649088D01*
X719552Y649131D01*
X719636Y649167D01*
X719668Y649193D01*
X719689Y649204D01*
X719711Y649227D01*
X719767Y649272D01*
X721802Y651307D01*
X726198Y651307D01*
X729307Y648198D01*
X729307Y643802D01*
X726198Y640693D01*
X721802Y640693D01*
X719767Y642728D01*
X719693Y642781D01*
X719623Y642841D01*
X719593Y642853D01*
X719567Y642872D01*
X719480Y642899D01*
X719395Y642933D01*
X719354Y642937D01*
X719332Y642944D01*
X719300Y642943D01*
X719229Y642951D01*
X709003Y642951D01*
X708933Y642940D01*
X708861Y642938D01*
X708812Y642920D01*
X708761Y642912D01*
X708697Y642878D01*
X708630Y642853D01*
X708589Y642821D01*
X708543Y642796D01*
X708494Y642745D01*
X708438Y642700D01*
X708410Y642656D01*
X708374Y642618D01*
X708344Y642553D01*
X708305Y642493D01*
X708292Y642442D01*
X708270Y642395D01*
X708262Y642324D01*
X708245Y642254D01*
X708249Y642202D01*
X708243Y642151D01*
X708258Y642080D01*
X708264Y642009D01*
X708284Y641961D01*
X708295Y641910D01*
X708332Y641849D01*
X708360Y641783D01*
X708405Y641727D01*
X708422Y641699D01*
X708439Y641684D01*
X708465Y641652D01*
X744205Y605912D01*
X744279Y605859D01*
X744349Y605799D01*
X744379Y605787D01*
X744405Y605768D01*
X744492Y605741D01*
X744577Y605707D01*
X744618Y605703D01*
X744640Y605696D01*
X744672Y605697D01*
X744743Y605689D01*
X758330Y605689D01*
X763558Y603523D01*
X787951Y579131D01*
X792059Y575022D01*
X794225Y569794D01*
X794225Y546207D01*
X794239Y546117D01*
X794247Y546026D01*
X794259Y545997D01*
X794264Y545965D01*
X794307Y545884D01*
X794343Y545800D01*
X794369Y545768D01*
X794380Y545747D01*
X794403Y545725D01*
X794448Y545669D01*
X808745Y531372D01*
X808819Y531319D01*
X808889Y531259D01*
X808919Y531247D01*
X808945Y531228D01*
X809032Y531201D01*
X809117Y531167D01*
X809158Y531163D01*
X809180Y531156D01*
X809212Y531157D01*
X809283Y531149D01*
X909090Y531149D01*
X909161Y531160D01*
G37*
%LPC*%
G36*
X574171Y178775D02*
X574171Y178775D01*
X568942Y180941D01*
X547941Y201942D01*
X545775Y207171D01*
X545775Y212829D01*
X547941Y218058D01*
X551942Y222059D01*
X557171Y224225D01*
X562829Y224225D01*
X568058Y222059D01*
X582669Y207448D01*
X582743Y207395D01*
X582813Y207335D01*
X582843Y207323D01*
X582869Y207304D01*
X582956Y207277D01*
X583041Y207243D01*
X583082Y207239D01*
X583104Y207232D01*
X583136Y207233D01*
X583207Y207225D01*
X867829Y207225D01*
X873058Y205059D01*
X877059Y201058D01*
X879225Y195829D01*
X879225Y190171D01*
X877059Y184942D01*
X873058Y180941D01*
X867829Y178775D01*
X574171Y178775D01*
G37*
%LPD*%
%LPC*%
G36*
X737802Y274693D02*
X737802Y274693D01*
X734693Y277802D01*
X734693Y282198D01*
X735712Y283217D01*
X735765Y283291D01*
X735825Y283361D01*
X735837Y283391D01*
X735856Y283417D01*
X735883Y283504D01*
X735917Y283589D01*
X735921Y283630D01*
X735928Y283652D01*
X735927Y283684D01*
X735935Y283755D01*
X735935Y310084D01*
X755787Y329936D01*
X755829Y329994D01*
X755879Y330046D01*
X755901Y330093D01*
X755931Y330135D01*
X755952Y330204D01*
X755982Y330269D01*
X755988Y330321D01*
X756003Y330371D01*
X756001Y330442D01*
X756009Y330513D01*
X755998Y330564D01*
X755997Y330616D01*
X755972Y330684D01*
X755957Y330754D01*
X755930Y330799D01*
X755912Y330847D01*
X755868Y330903D01*
X755831Y330965D01*
X755791Y330999D01*
X755759Y331039D01*
X755698Y331078D01*
X755644Y331125D01*
X755596Y331144D01*
X755552Y331172D01*
X755482Y331190D01*
X755416Y331217D01*
X755344Y331225D01*
X755313Y331233D01*
X755290Y331231D01*
X755249Y331235D01*
X713926Y331235D01*
X713836Y331221D01*
X713745Y331213D01*
X713716Y331201D01*
X713684Y331196D01*
X713603Y331153D01*
X713519Y331117D01*
X713487Y331091D01*
X713466Y331080D01*
X713444Y331057D01*
X713388Y331012D01*
X703007Y320631D01*
X683193Y320631D01*
X672812Y331012D01*
X672738Y331065D01*
X672669Y331125D01*
X672638Y331137D01*
X672612Y331156D01*
X672525Y331183D01*
X672440Y331217D01*
X672399Y331221D01*
X672377Y331228D01*
X672345Y331227D01*
X672274Y331235D01*
X624454Y331235D01*
X624340Y331216D01*
X624223Y331199D01*
X624218Y331197D01*
X624211Y331196D01*
X624109Y331141D01*
X624004Y331088D01*
X624000Y331083D01*
X623994Y331080D01*
X623914Y330996D01*
X623832Y330912D01*
X623828Y330906D01*
X623825Y330902D01*
X623817Y330885D01*
X623751Y330765D01*
X623737Y330732D01*
X621468Y328463D01*
X618504Y327235D01*
X615296Y327235D01*
X612332Y328463D01*
X610063Y330732D01*
X610049Y330765D01*
X609987Y330865D01*
X609928Y330965D01*
X609923Y330969D01*
X609920Y330974D01*
X609830Y331048D01*
X609741Y331125D01*
X609735Y331127D01*
X609730Y331131D01*
X609622Y331173D01*
X609513Y331217D01*
X609505Y331218D01*
X609500Y331219D01*
X609482Y331220D01*
X609346Y331235D01*
X563926Y331235D01*
X563836Y331221D01*
X563745Y331213D01*
X563716Y331201D01*
X563684Y331196D01*
X563603Y331153D01*
X563519Y331117D01*
X563487Y331091D01*
X563466Y331080D01*
X563444Y331057D01*
X563388Y331012D01*
X553007Y320631D01*
X533193Y320631D01*
X522812Y331012D01*
X522738Y331065D01*
X522669Y331125D01*
X522638Y331137D01*
X522612Y331156D01*
X522525Y331183D01*
X522440Y331217D01*
X522399Y331221D01*
X522377Y331228D01*
X522345Y331227D01*
X522274Y331235D01*
X474454Y331235D01*
X474340Y331216D01*
X474223Y331199D01*
X474218Y331197D01*
X474211Y331196D01*
X474109Y331141D01*
X474004Y331088D01*
X474000Y331083D01*
X473994Y331080D01*
X473914Y330996D01*
X473832Y330912D01*
X473828Y330906D01*
X473825Y330902D01*
X473817Y330885D01*
X473751Y330765D01*
X473737Y330732D01*
X471468Y328463D01*
X468504Y327235D01*
X465296Y327235D01*
X462332Y328463D01*
X460063Y330732D01*
X460049Y330765D01*
X459987Y330865D01*
X459928Y330965D01*
X459923Y330969D01*
X459920Y330974D01*
X459830Y331048D01*
X459741Y331125D01*
X459735Y331127D01*
X459730Y331131D01*
X459622Y331173D01*
X459513Y331217D01*
X459505Y331218D01*
X459500Y331219D01*
X459482Y331220D01*
X459346Y331235D01*
X457299Y331235D01*
X457209Y331221D01*
X457118Y331213D01*
X457088Y331201D01*
X457056Y331196D01*
X456976Y331153D01*
X456892Y331117D01*
X456860Y331091D01*
X456839Y331080D01*
X456817Y331057D01*
X456761Y331012D01*
X435530Y309781D01*
X435477Y309707D01*
X435417Y309638D01*
X435405Y309608D01*
X435386Y309582D01*
X435359Y309495D01*
X435325Y309410D01*
X435321Y309369D01*
X435314Y309346D01*
X435315Y309314D01*
X435307Y309243D01*
X435307Y307802D01*
X432198Y304693D01*
X427802Y304693D01*
X424693Y307802D01*
X424693Y312198D01*
X427802Y315307D01*
X429243Y315307D01*
X429333Y315321D01*
X429424Y315329D01*
X429454Y315341D01*
X429486Y315346D01*
X429566Y315389D01*
X429650Y315425D01*
X429682Y315451D01*
X429703Y315462D01*
X429725Y315485D01*
X429781Y315530D01*
X453616Y339365D01*
X458349Y339365D01*
X458420Y339376D01*
X458492Y339378D01*
X458540Y339396D01*
X458592Y339404D01*
X458655Y339438D01*
X458723Y339463D01*
X458763Y339495D01*
X458809Y339520D01*
X458859Y339572D01*
X458915Y339616D01*
X458943Y339660D01*
X458979Y339698D01*
X459009Y339763D01*
X459048Y339823D01*
X459060Y339874D01*
X459082Y339921D01*
X459090Y339992D01*
X459108Y340062D01*
X459104Y340114D01*
X459109Y340165D01*
X459094Y340236D01*
X459088Y340307D01*
X459068Y340355D01*
X459057Y340406D01*
X459020Y340467D01*
X458992Y340533D01*
X458947Y340589D01*
X458931Y340617D01*
X458913Y340632D01*
X458887Y340664D01*
X442835Y356716D01*
X442835Y537746D01*
X442816Y537860D01*
X442799Y537977D01*
X442797Y537982D01*
X442796Y537989D01*
X442741Y538091D01*
X442688Y538196D01*
X442683Y538200D01*
X442680Y538206D01*
X442596Y538286D01*
X442512Y538368D01*
X442506Y538372D01*
X442502Y538375D01*
X442485Y538383D01*
X442365Y538449D01*
X442332Y538463D01*
X440063Y540732D01*
X438835Y543696D01*
X438835Y546904D01*
X440063Y549868D01*
X442332Y552137D01*
X445296Y553365D01*
X448504Y553365D01*
X451468Y552137D01*
X453737Y549868D01*
X454965Y546904D01*
X454965Y543696D01*
X453737Y540732D01*
X451468Y538463D01*
X451435Y538449D01*
X451335Y538387D01*
X451235Y538328D01*
X451231Y538323D01*
X451226Y538320D01*
X451151Y538230D01*
X451075Y538141D01*
X451073Y538135D01*
X451069Y538130D01*
X451027Y538022D01*
X450983Y537913D01*
X450982Y537905D01*
X450981Y537900D01*
X450980Y537882D01*
X450965Y537746D01*
X450965Y360399D01*
X450979Y360309D01*
X450987Y360218D01*
X450999Y360188D01*
X451004Y360156D01*
X451047Y360076D01*
X451083Y359992D01*
X451109Y359960D01*
X451120Y359939D01*
X451143Y359917D01*
X451188Y359861D01*
X467461Y343588D01*
X467535Y343535D01*
X467604Y343475D01*
X467634Y343463D01*
X467660Y343444D01*
X467747Y343417D01*
X467832Y343383D01*
X467873Y343379D01*
X467896Y343372D01*
X467928Y343373D01*
X467999Y343365D01*
X468504Y343365D01*
X471468Y342137D01*
X473737Y339868D01*
X473751Y339835D01*
X473813Y339734D01*
X473872Y339635D01*
X473877Y339631D01*
X473880Y339626D01*
X473970Y339551D01*
X474059Y339475D01*
X474065Y339473D01*
X474070Y339469D01*
X474178Y339427D01*
X474287Y339383D01*
X474295Y339382D01*
X474300Y339381D01*
X474318Y339380D01*
X474454Y339365D01*
X525956Y339365D01*
X533736Y331585D01*
X533794Y331543D01*
X533846Y331494D01*
X533893Y331472D01*
X533935Y331442D01*
X534004Y331421D01*
X534069Y331390D01*
X534121Y331385D01*
X534171Y331369D01*
X534242Y331371D01*
X534313Y331363D01*
X534364Y331374D01*
X534416Y331376D01*
X534484Y331400D01*
X534554Y331416D01*
X534599Y331442D01*
X534647Y331460D01*
X534703Y331505D01*
X534765Y331542D01*
X534799Y331581D01*
X534839Y331614D01*
X534878Y331674D01*
X534925Y331729D01*
X534944Y331777D01*
X534972Y331821D01*
X534990Y331890D01*
X535017Y331957D01*
X535025Y332028D01*
X535033Y332059D01*
X535031Y332083D01*
X535035Y332124D01*
X535035Y342472D01*
X535928Y343365D01*
X550272Y343365D01*
X551165Y342472D01*
X551165Y332124D01*
X551176Y332053D01*
X551178Y331981D01*
X551196Y331932D01*
X551204Y331881D01*
X551238Y331817D01*
X551263Y331750D01*
X551295Y331709D01*
X551320Y331663D01*
X551372Y331614D01*
X551416Y331558D01*
X551460Y331530D01*
X551498Y331494D01*
X551563Y331464D01*
X551623Y331425D01*
X551674Y331412D01*
X551721Y331390D01*
X551792Y331383D01*
X551862Y331365D01*
X551914Y331369D01*
X551965Y331363D01*
X552036Y331379D01*
X552107Y331384D01*
X552155Y331404D01*
X552206Y331416D01*
X552267Y331452D01*
X552333Y331480D01*
X552389Y331525D01*
X552417Y331542D01*
X552432Y331560D01*
X552464Y331585D01*
X560244Y339365D01*
X609346Y339365D01*
X609460Y339384D01*
X609577Y339401D01*
X609582Y339403D01*
X609589Y339404D01*
X609691Y339459D01*
X609796Y339512D01*
X609800Y339517D01*
X609806Y339520D01*
X609886Y339604D01*
X609968Y339688D01*
X609972Y339694D01*
X609975Y339698D01*
X609983Y339715D01*
X610049Y339835D01*
X610063Y339868D01*
X612332Y342137D01*
X615296Y343365D01*
X618504Y343365D01*
X621468Y342137D01*
X623737Y339868D01*
X623751Y339835D01*
X623813Y339734D01*
X623872Y339635D01*
X623877Y339631D01*
X623880Y339626D01*
X623970Y339551D01*
X624059Y339475D01*
X624065Y339473D01*
X624070Y339469D01*
X624178Y339427D01*
X624287Y339383D01*
X624295Y339382D01*
X624300Y339381D01*
X624318Y339380D01*
X624454Y339365D01*
X675956Y339365D01*
X683736Y331585D01*
X683794Y331543D01*
X683846Y331494D01*
X683893Y331472D01*
X683935Y331442D01*
X684004Y331421D01*
X684069Y331390D01*
X684121Y331385D01*
X684171Y331369D01*
X684242Y331371D01*
X684313Y331363D01*
X684364Y331374D01*
X684416Y331376D01*
X684484Y331400D01*
X684554Y331416D01*
X684599Y331442D01*
X684647Y331460D01*
X684703Y331505D01*
X684765Y331542D01*
X684799Y331581D01*
X684839Y331614D01*
X684878Y331674D01*
X684925Y331729D01*
X684944Y331777D01*
X684972Y331821D01*
X684990Y331890D01*
X685017Y331957D01*
X685025Y332028D01*
X685033Y332059D01*
X685031Y332083D01*
X685035Y332124D01*
X685035Y342472D01*
X685928Y343365D01*
X700272Y343365D01*
X701165Y342472D01*
X701165Y332124D01*
X701176Y332053D01*
X701178Y331981D01*
X701196Y331932D01*
X701204Y331881D01*
X701238Y331817D01*
X701263Y331750D01*
X701295Y331709D01*
X701320Y331663D01*
X701372Y331614D01*
X701416Y331558D01*
X701460Y331530D01*
X701498Y331494D01*
X701563Y331464D01*
X701623Y331425D01*
X701674Y331412D01*
X701721Y331390D01*
X701792Y331383D01*
X701862Y331365D01*
X701914Y331369D01*
X701965Y331363D01*
X702036Y331379D01*
X702107Y331384D01*
X702155Y331404D01*
X702206Y331416D01*
X702267Y331452D01*
X702333Y331480D01*
X702389Y331525D01*
X702417Y331542D01*
X702432Y331560D01*
X702464Y331585D01*
X710244Y339365D01*
X759346Y339365D01*
X759460Y339384D01*
X759577Y339401D01*
X759582Y339403D01*
X759589Y339404D01*
X759691Y339459D01*
X759796Y339512D01*
X759800Y339517D01*
X759806Y339520D01*
X759886Y339604D01*
X759968Y339688D01*
X759972Y339694D01*
X759975Y339698D01*
X759983Y339715D01*
X760049Y339835D01*
X760063Y339868D01*
X762332Y342137D01*
X765296Y343365D01*
X768504Y343365D01*
X771468Y342137D01*
X773737Y339868D01*
X774965Y336904D01*
X774965Y333696D01*
X773737Y330732D01*
X771468Y328463D01*
X768504Y327235D01*
X765296Y327235D01*
X765262Y327249D01*
X765149Y327276D01*
X765035Y327304D01*
X765029Y327304D01*
X765023Y327305D01*
X764906Y327294D01*
X764790Y327285D01*
X764784Y327283D01*
X764778Y327282D01*
X764670Y327234D01*
X764564Y327189D01*
X764558Y327184D01*
X764553Y327182D01*
X764539Y327170D01*
X764433Y327084D01*
X744288Y306939D01*
X744235Y306865D01*
X744175Y306796D01*
X744163Y306766D01*
X744144Y306740D01*
X744117Y306653D01*
X744083Y306568D01*
X744079Y306527D01*
X744072Y306504D01*
X744073Y306472D01*
X744065Y306401D01*
X744065Y283755D01*
X744079Y283665D01*
X744087Y283574D01*
X744099Y283545D01*
X744104Y283513D01*
X744147Y283432D01*
X744183Y283348D01*
X744209Y283316D01*
X744220Y283295D01*
X744243Y283273D01*
X744288Y283217D01*
X745307Y282198D01*
X745307Y277802D01*
X742198Y274693D01*
X737802Y274693D01*
G37*
%LPD*%
%LPC*%
G36*
X713171Y209775D02*
X713171Y209775D01*
X707942Y211941D01*
X687941Y231942D01*
X685775Y237171D01*
X685775Y242829D01*
X687941Y248058D01*
X691942Y252059D01*
X697171Y254225D01*
X702829Y254225D01*
X708058Y252059D01*
X721669Y238448D01*
X721743Y238395D01*
X721813Y238335D01*
X721843Y238323D01*
X721869Y238304D01*
X721956Y238277D01*
X722041Y238243D01*
X722082Y238239D01*
X722104Y238232D01*
X722136Y238233D01*
X722207Y238225D01*
X862829Y238225D01*
X868058Y236059D01*
X872059Y232058D01*
X874225Y226829D01*
X874225Y221171D01*
X872059Y215942D01*
X868058Y211941D01*
X862829Y209775D01*
X713171Y209775D01*
G37*
%LPD*%
%LPC*%
G36*
X387802Y94693D02*
X387802Y94693D01*
X384693Y97802D01*
X384693Y99243D01*
X384691Y99256D01*
X384692Y99266D01*
X384681Y99319D01*
X384679Y99333D01*
X384671Y99424D01*
X384659Y99454D01*
X384654Y99486D01*
X384611Y99566D01*
X384575Y99650D01*
X384549Y99683D01*
X384538Y99703D01*
X384515Y99725D01*
X384470Y99781D01*
X382464Y101787D01*
X382406Y101829D01*
X382354Y101879D01*
X382307Y101901D01*
X382265Y101931D01*
X382196Y101952D01*
X382131Y101982D01*
X382079Y101988D01*
X382029Y102003D01*
X381958Y102001D01*
X381887Y102009D01*
X381836Y101998D01*
X381784Y101997D01*
X381716Y101972D01*
X381646Y101957D01*
X381601Y101930D01*
X381553Y101912D01*
X381497Y101868D01*
X381435Y101831D01*
X381401Y101791D01*
X381361Y101759D01*
X381322Y101698D01*
X381275Y101644D01*
X381256Y101596D01*
X381228Y101552D01*
X381210Y101482D01*
X381183Y101416D01*
X381175Y101344D01*
X381167Y101313D01*
X381169Y101290D01*
X381165Y101249D01*
X381165Y98128D01*
X380272Y97235D01*
X365928Y97235D01*
X365035Y98128D01*
X365035Y108476D01*
X365024Y108547D01*
X365022Y108619D01*
X365004Y108668D01*
X364996Y108719D01*
X364962Y108783D01*
X364937Y108850D01*
X364905Y108891D01*
X364880Y108937D01*
X364828Y108986D01*
X364784Y109042D01*
X364740Y109070D01*
X364702Y109106D01*
X364637Y109136D01*
X364577Y109175D01*
X364526Y109188D01*
X364479Y109210D01*
X364408Y109217D01*
X364338Y109235D01*
X364286Y109231D01*
X364235Y109237D01*
X364164Y109221D01*
X364093Y109216D01*
X364045Y109196D01*
X363994Y109184D01*
X363933Y109148D01*
X363867Y109120D01*
X363811Y109075D01*
X363783Y109058D01*
X363768Y109040D01*
X363736Y109015D01*
X355956Y101235D01*
X304454Y101235D01*
X304340Y101216D01*
X304223Y101199D01*
X304218Y101197D01*
X304211Y101196D01*
X304109Y101141D01*
X304004Y101088D01*
X304000Y101083D01*
X303994Y101080D01*
X303914Y100996D01*
X303832Y100912D01*
X303828Y100906D01*
X303825Y100902D01*
X303817Y100885D01*
X303751Y100765D01*
X303737Y100732D01*
X301468Y98463D01*
X298504Y97235D01*
X295296Y97235D01*
X292332Y98463D01*
X290063Y100732D01*
X290049Y100765D01*
X289987Y100865D01*
X289928Y100965D01*
X289923Y100969D01*
X289920Y100974D01*
X289830Y101048D01*
X289741Y101125D01*
X289735Y101127D01*
X289730Y101131D01*
X289622Y101173D01*
X289513Y101217D01*
X289505Y101218D01*
X289500Y101219D01*
X289482Y101220D01*
X289346Y101235D01*
X240244Y101235D01*
X237640Y103839D01*
X232464Y109015D01*
X232406Y109057D01*
X232354Y109106D01*
X232307Y109128D01*
X232265Y109158D01*
X232196Y109179D01*
X232131Y109210D01*
X232079Y109215D01*
X232029Y109231D01*
X231958Y109229D01*
X231887Y109237D01*
X231836Y109226D01*
X231784Y109224D01*
X231716Y109200D01*
X231646Y109184D01*
X231602Y109158D01*
X231553Y109140D01*
X231497Y109095D01*
X231435Y109058D01*
X231401Y109019D01*
X231361Y108986D01*
X231322Y108926D01*
X231275Y108871D01*
X231256Y108823D01*
X231228Y108779D01*
X231210Y108710D01*
X231183Y108643D01*
X231175Y108572D01*
X231167Y108541D01*
X231169Y108517D01*
X231165Y108476D01*
X231165Y98128D01*
X230272Y97235D01*
X215928Y97235D01*
X215035Y98128D01*
X215035Y108476D01*
X215024Y108547D01*
X215022Y108619D01*
X215004Y108668D01*
X214996Y108719D01*
X214962Y108783D01*
X214937Y108850D01*
X214905Y108891D01*
X214880Y108937D01*
X214828Y108986D01*
X214784Y109042D01*
X214740Y109070D01*
X214702Y109106D01*
X214637Y109136D01*
X214577Y109175D01*
X214526Y109188D01*
X214479Y109210D01*
X214408Y109217D01*
X214338Y109235D01*
X214286Y109231D01*
X214235Y109237D01*
X214164Y109221D01*
X214093Y109216D01*
X214045Y109196D01*
X213994Y109184D01*
X213933Y109148D01*
X213867Y109120D01*
X213811Y109075D01*
X213783Y109058D01*
X213768Y109040D01*
X213736Y109015D01*
X205956Y101235D01*
X154454Y101235D01*
X154340Y101216D01*
X154223Y101199D01*
X154218Y101197D01*
X154211Y101196D01*
X154109Y101141D01*
X154004Y101088D01*
X154000Y101083D01*
X153994Y101080D01*
X153914Y100996D01*
X153832Y100912D01*
X153828Y100906D01*
X153825Y100902D01*
X153817Y100885D01*
X153751Y100765D01*
X153737Y100732D01*
X151468Y98463D01*
X148504Y97235D01*
X145296Y97235D01*
X142332Y98463D01*
X140063Y100732D01*
X138835Y103696D01*
X138835Y106904D01*
X140063Y109868D01*
X142332Y112137D01*
X145296Y113365D01*
X148504Y113365D01*
X151468Y112137D01*
X153737Y109868D01*
X153751Y109835D01*
X153813Y109734D01*
X153872Y109635D01*
X153877Y109631D01*
X153880Y109626D01*
X153970Y109551D01*
X154059Y109475D01*
X154065Y109473D01*
X154070Y109469D01*
X154178Y109427D01*
X154287Y109383D01*
X154295Y109382D01*
X154300Y109381D01*
X154318Y109380D01*
X154454Y109365D01*
X202274Y109365D01*
X202364Y109379D01*
X202455Y109387D01*
X202484Y109399D01*
X202516Y109404D01*
X202597Y109447D01*
X202681Y109483D01*
X202713Y109509D01*
X202734Y109520D01*
X202756Y109543D01*
X202812Y109588D01*
X213193Y119969D01*
X233007Y119969D01*
X235611Y117365D01*
X243388Y109588D01*
X243462Y109535D01*
X243531Y109475D01*
X243562Y109463D01*
X243588Y109444D01*
X243675Y109417D01*
X243760Y109383D01*
X243801Y109379D01*
X243823Y109372D01*
X243855Y109373D01*
X243926Y109365D01*
X289346Y109365D01*
X289460Y109384D01*
X289577Y109401D01*
X289582Y109403D01*
X289589Y109404D01*
X289691Y109459D01*
X289796Y109512D01*
X289800Y109517D01*
X289806Y109520D01*
X289886Y109604D01*
X289968Y109688D01*
X289972Y109694D01*
X289975Y109698D01*
X289983Y109715D01*
X290049Y109835D01*
X290063Y109868D01*
X292332Y112137D01*
X295296Y113365D01*
X298504Y113365D01*
X301468Y112137D01*
X303737Y109868D01*
X303751Y109835D01*
X303813Y109734D01*
X303872Y109635D01*
X303877Y109631D01*
X303880Y109626D01*
X303970Y109551D01*
X304059Y109475D01*
X304065Y109473D01*
X304070Y109469D01*
X304178Y109427D01*
X304287Y109383D01*
X304295Y109382D01*
X304300Y109381D01*
X304318Y109380D01*
X304454Y109365D01*
X352274Y109365D01*
X352364Y109379D01*
X352455Y109387D01*
X352484Y109399D01*
X352516Y109404D01*
X352597Y109447D01*
X352681Y109483D01*
X352713Y109509D01*
X352734Y109520D01*
X352756Y109543D01*
X352812Y109588D01*
X363193Y119969D01*
X383007Y119969D01*
X385165Y117811D01*
X387769Y115207D01*
X387769Y108295D01*
X387783Y108205D01*
X387791Y108114D01*
X387803Y108084D01*
X387808Y108052D01*
X387851Y107972D01*
X387887Y107888D01*
X387913Y107856D01*
X387924Y107835D01*
X387947Y107813D01*
X387992Y107757D01*
X390219Y105530D01*
X390293Y105477D01*
X390362Y105417D01*
X390392Y105405D01*
X390418Y105386D01*
X390505Y105359D01*
X390590Y105325D01*
X390631Y105321D01*
X390654Y105314D01*
X390686Y105315D01*
X390757Y105307D01*
X392198Y105307D01*
X395307Y102198D01*
X395307Y97802D01*
X392198Y94693D01*
X387802Y94693D01*
G37*
%LPD*%
G36*
X415551Y620695D02*
X415551Y620695D01*
X415642Y620703D01*
X415671Y620715D01*
X415703Y620720D01*
X415784Y620763D01*
X415868Y620799D01*
X415900Y620825D01*
X415921Y620836D01*
X415923Y620838D01*
X415944Y620859D01*
X415999Y620904D01*
X434016Y638921D01*
X434069Y638995D01*
X434129Y639064D01*
X434141Y639095D01*
X434160Y639121D01*
X434187Y639208D01*
X434221Y639293D01*
X434225Y639334D01*
X434232Y639356D01*
X434231Y639388D01*
X434239Y639459D01*
X434239Y645234D01*
X434225Y645324D01*
X434217Y645415D01*
X434205Y645445D01*
X434200Y645477D01*
X434157Y645557D01*
X434121Y645641D01*
X434095Y645673D01*
X434084Y645694D01*
X434061Y645716D01*
X434016Y645772D01*
X422700Y657089D01*
X422621Y657146D01*
X422546Y657208D01*
X422521Y657217D01*
X422500Y657232D01*
X422407Y657261D01*
X422316Y657296D01*
X422290Y657297D01*
X422265Y657305D01*
X422168Y657302D01*
X422070Y657306D01*
X422045Y657299D01*
X422019Y657298D01*
X421928Y657265D01*
X421834Y657238D01*
X421813Y657223D01*
X421788Y657214D01*
X421712Y657153D01*
X421632Y657097D01*
X421616Y657076D01*
X421596Y657060D01*
X421543Y656978D01*
X421485Y656900D01*
X421477Y656875D01*
X421463Y656853D01*
X421439Y656759D01*
X421409Y656666D01*
X421409Y656640D01*
X421403Y656615D01*
X421411Y656518D01*
X421411Y656420D01*
X421421Y656389D01*
X421422Y656369D01*
X421435Y656339D01*
X421458Y656259D01*
X421765Y655519D01*
X421765Y651881D01*
X420373Y648520D01*
X417800Y645947D01*
X414439Y644555D01*
X395561Y644555D01*
X392200Y645947D01*
X389627Y648520D01*
X388203Y651958D01*
X388165Y652019D01*
X388136Y652085D01*
X388101Y652123D01*
X388074Y652167D01*
X388018Y652213D01*
X387970Y652266D01*
X387924Y652291D01*
X387884Y652324D01*
X387817Y652350D01*
X387754Y652384D01*
X387703Y652394D01*
X387655Y652412D01*
X387583Y652415D01*
X387512Y652428D01*
X387461Y652420D01*
X387409Y652423D01*
X387340Y652403D01*
X387269Y652392D01*
X387223Y652369D01*
X387173Y652354D01*
X387114Y652313D01*
X387050Y652281D01*
X387013Y652244D01*
X386971Y652214D01*
X386928Y652156D01*
X386878Y652105D01*
X386843Y652042D01*
X386824Y652016D01*
X386817Y651994D01*
X386797Y651958D01*
X385373Y648520D01*
X382800Y645947D01*
X379439Y644555D01*
X365482Y644555D01*
X365392Y644541D01*
X365301Y644533D01*
X365271Y644521D01*
X365239Y644516D01*
X365159Y644473D01*
X365075Y644437D01*
X365043Y644411D01*
X365022Y644400D01*
X365000Y644377D01*
X364944Y644332D01*
X360595Y639983D01*
X319000Y639983D01*
X318980Y639980D01*
X318961Y639982D01*
X318859Y639960D01*
X318757Y639944D01*
X318740Y639934D01*
X318720Y639930D01*
X318631Y639877D01*
X318540Y639828D01*
X318526Y639814D01*
X318509Y639804D01*
X318442Y639725D01*
X318371Y639650D01*
X318362Y639632D01*
X318349Y639617D01*
X318310Y639521D01*
X318267Y639427D01*
X318265Y639407D01*
X318257Y639389D01*
X318239Y639222D01*
X318239Y623447D01*
X318254Y623357D01*
X318261Y623266D01*
X318273Y623236D01*
X318279Y623205D01*
X318321Y623124D01*
X318357Y623040D01*
X318383Y623008D01*
X318394Y622987D01*
X318417Y622965D01*
X318462Y622909D01*
X319745Y621626D01*
X319819Y621573D01*
X319888Y621513D01*
X319919Y621501D01*
X319945Y621482D01*
X320032Y621455D01*
X320117Y621421D01*
X320158Y621417D01*
X320180Y621410D01*
X320212Y621411D01*
X320283Y621403D01*
X323502Y621403D01*
X324001Y620904D01*
X324075Y620851D01*
X324144Y620791D01*
X324175Y620779D01*
X324201Y620760D01*
X324288Y620733D01*
X324373Y620699D01*
X324414Y620695D01*
X324436Y620688D01*
X324468Y620689D01*
X324539Y620681D01*
X415461Y620681D01*
X415551Y620695D01*
G37*
%LPC*%
G36*
X595296Y537235D02*
X595296Y537235D01*
X592332Y538463D01*
X590063Y540732D01*
X588835Y543696D01*
X588835Y546904D01*
X590063Y549868D01*
X592332Y552137D01*
X595296Y553365D01*
X598504Y553365D01*
X601468Y552137D01*
X603737Y549868D01*
X603751Y549835D01*
X603813Y549734D01*
X603872Y549635D01*
X603877Y549631D01*
X603880Y549626D01*
X603970Y549551D01*
X604059Y549475D01*
X604065Y549473D01*
X604070Y549469D01*
X604178Y549427D01*
X604287Y549383D01*
X604295Y549382D01*
X604300Y549381D01*
X604318Y549380D01*
X604454Y549365D01*
X652274Y549365D01*
X652364Y549379D01*
X652455Y549387D01*
X652484Y549399D01*
X652516Y549404D01*
X652597Y549447D01*
X652681Y549483D01*
X652713Y549509D01*
X652734Y549520D01*
X652756Y549543D01*
X652812Y549588D01*
X663193Y559969D01*
X683007Y559969D01*
X693388Y549588D01*
X693462Y549535D01*
X693531Y549475D01*
X693562Y549463D01*
X693588Y549444D01*
X693675Y549417D01*
X693760Y549383D01*
X693801Y549379D01*
X693823Y549372D01*
X693855Y549373D01*
X693926Y549365D01*
X739346Y549365D01*
X739460Y549384D01*
X739577Y549401D01*
X739582Y549403D01*
X739589Y549404D01*
X739691Y549459D01*
X739796Y549512D01*
X739800Y549517D01*
X739806Y549520D01*
X739886Y549604D01*
X739968Y549688D01*
X739972Y549694D01*
X739975Y549698D01*
X739983Y549715D01*
X740049Y549835D01*
X740063Y549868D01*
X742332Y552137D01*
X745296Y553365D01*
X748504Y553365D01*
X751468Y552137D01*
X753737Y549868D01*
X754965Y546904D01*
X754965Y543696D01*
X753737Y540732D01*
X751468Y538463D01*
X748504Y537235D01*
X745296Y537235D01*
X742332Y538463D01*
X740063Y540732D01*
X740049Y540765D01*
X739987Y540865D01*
X739928Y540965D01*
X739923Y540969D01*
X739920Y540974D01*
X739830Y541048D01*
X739741Y541125D01*
X739735Y541127D01*
X739730Y541131D01*
X739622Y541173D01*
X739513Y541217D01*
X739505Y541218D01*
X739500Y541219D01*
X739482Y541220D01*
X739346Y541235D01*
X690244Y541235D01*
X682464Y549015D01*
X682406Y549057D01*
X682354Y549106D01*
X682307Y549128D01*
X682265Y549158D01*
X682196Y549179D01*
X682131Y549210D01*
X682079Y549215D01*
X682029Y549231D01*
X681958Y549229D01*
X681887Y549237D01*
X681836Y549226D01*
X681784Y549224D01*
X681716Y549200D01*
X681646Y549184D01*
X681601Y549158D01*
X681553Y549140D01*
X681497Y549095D01*
X681435Y549058D01*
X681401Y549019D01*
X681361Y548986D01*
X681322Y548926D01*
X681275Y548871D01*
X681256Y548823D01*
X681228Y548779D01*
X681210Y548710D01*
X681183Y548643D01*
X681175Y548572D01*
X681167Y548541D01*
X681169Y548517D01*
X681165Y548476D01*
X681165Y538128D01*
X680272Y537235D01*
X665928Y537235D01*
X665035Y538128D01*
X665035Y548476D01*
X665024Y548547D01*
X665022Y548619D01*
X665004Y548668D01*
X664996Y548719D01*
X664962Y548783D01*
X664937Y548850D01*
X664905Y548891D01*
X664880Y548937D01*
X664828Y548986D01*
X664784Y549042D01*
X664740Y549070D01*
X664702Y549106D01*
X664637Y549136D01*
X664577Y549175D01*
X664526Y549188D01*
X664479Y549210D01*
X664408Y549217D01*
X664338Y549235D01*
X664286Y549231D01*
X664235Y549237D01*
X664164Y549221D01*
X664093Y549216D01*
X664045Y549196D01*
X663994Y549184D01*
X663933Y549148D01*
X663867Y549120D01*
X663811Y549075D01*
X663783Y549058D01*
X663768Y549040D01*
X663736Y549015D01*
X655956Y541235D01*
X604454Y541235D01*
X604340Y541216D01*
X604223Y541199D01*
X604218Y541197D01*
X604211Y541196D01*
X604109Y541141D01*
X604004Y541088D01*
X604000Y541083D01*
X603994Y541080D01*
X603914Y540996D01*
X603832Y540912D01*
X603828Y540906D01*
X603825Y540902D01*
X603817Y540885D01*
X603751Y540765D01*
X603737Y540732D01*
X601468Y538463D01*
X598504Y537235D01*
X595296Y537235D01*
G37*
%LPD*%
%LPC*%
G36*
X287802Y204693D02*
X287802Y204693D01*
X284693Y207802D01*
X284693Y209961D01*
X284679Y210052D01*
X284671Y210142D01*
X284659Y210172D01*
X284654Y210204D01*
X284611Y210285D01*
X284575Y210369D01*
X284549Y210401D01*
X284538Y210422D01*
X284515Y210444D01*
X284470Y210500D01*
X258750Y236220D01*
X258676Y236273D01*
X258606Y236333D01*
X258576Y236345D01*
X258550Y236364D01*
X258463Y236391D01*
X258378Y236425D01*
X258337Y236429D01*
X258315Y236436D01*
X258283Y236435D01*
X258211Y236443D01*
X144263Y236443D01*
X144173Y236429D01*
X144082Y236421D01*
X144053Y236409D01*
X144021Y236404D01*
X143940Y236361D01*
X143856Y236325D01*
X143824Y236299D01*
X143803Y236288D01*
X143781Y236265D01*
X143725Y236220D01*
X142198Y234693D01*
X137802Y234693D01*
X134693Y237802D01*
X134693Y242198D01*
X137802Y245307D01*
X142198Y245307D01*
X143725Y243780D01*
X143799Y243727D01*
X143869Y243667D01*
X143899Y243655D01*
X143925Y243636D01*
X144012Y243609D01*
X144097Y243575D01*
X144138Y243571D01*
X144160Y243564D01*
X144192Y243565D01*
X144263Y243557D01*
X261473Y243557D01*
X289500Y215530D01*
X289574Y215477D01*
X289644Y215417D01*
X289674Y215405D01*
X289700Y215386D01*
X289787Y215359D01*
X289872Y215325D01*
X289913Y215321D01*
X289935Y215314D01*
X289967Y215315D01*
X290039Y215307D01*
X292198Y215307D01*
X295307Y212198D01*
X295307Y207802D01*
X292198Y204693D01*
X287802Y204693D01*
G37*
%LPD*%
%LPC*%
G36*
X515928Y97235D02*
X515928Y97235D01*
X515035Y98128D01*
X515035Y112472D01*
X515928Y113365D01*
X530272Y113365D01*
X531165Y112472D01*
X531165Y98128D01*
X530272Y97235D01*
X515928Y97235D01*
G37*
%LPD*%
%LPC*%
G36*
X815928Y97235D02*
X815928Y97235D01*
X815035Y98128D01*
X815035Y112472D01*
X815928Y113365D01*
X830272Y113365D01*
X831165Y112472D01*
X831165Y98128D01*
X830272Y97235D01*
X815928Y97235D01*
G37*
%LPD*%
%LPC*%
G36*
X395928Y327235D02*
X395928Y327235D01*
X395035Y328128D01*
X395035Y342472D01*
X395928Y343365D01*
X410272Y343365D01*
X411165Y342472D01*
X411165Y328128D01*
X410272Y327235D01*
X395928Y327235D01*
G37*
%LPD*%
%LPC*%
G36*
X815928Y537235D02*
X815928Y537235D01*
X815035Y538128D01*
X815035Y552472D01*
X815928Y553365D01*
X830272Y553365D01*
X831165Y552472D01*
X831165Y538128D01*
X830272Y537235D01*
X815928Y537235D01*
G37*
%LPD*%
%LPC*%
G36*
X515928Y537235D02*
X515928Y537235D01*
X515035Y538128D01*
X515035Y552472D01*
X515928Y553365D01*
X530272Y553365D01*
X531165Y552472D01*
X531165Y538128D01*
X530272Y537235D01*
X515928Y537235D01*
G37*
%LPD*%
%LPC*%
G36*
X325296Y327235D02*
X325296Y327235D01*
X322332Y328463D01*
X320063Y330732D01*
X318835Y333696D01*
X318835Y336904D01*
X320063Y339868D01*
X322332Y342137D01*
X325296Y343365D01*
X328504Y343365D01*
X331468Y342137D01*
X333737Y339868D01*
X334965Y336904D01*
X334965Y333696D01*
X333737Y330732D01*
X331468Y328463D01*
X328504Y327235D01*
X325296Y327235D01*
G37*
%LPD*%
%LPC*%
G36*
X745296Y122635D02*
X745296Y122635D01*
X742332Y123863D01*
X740063Y126132D01*
X738835Y129096D01*
X738835Y132304D01*
X740063Y135268D01*
X742332Y137537D01*
X745296Y138765D01*
X748504Y138765D01*
X751468Y137537D01*
X753737Y135268D01*
X754965Y132304D01*
X754965Y129096D01*
X753737Y126132D01*
X751468Y123863D01*
X748504Y122635D01*
X745296Y122635D01*
G37*
%LPD*%
%LPC*%
G36*
X595296Y122635D02*
X595296Y122635D01*
X592332Y123863D01*
X590063Y126132D01*
X588835Y129096D01*
X588835Y132304D01*
X590063Y135268D01*
X592332Y137537D01*
X595296Y138765D01*
X598504Y138765D01*
X601468Y137537D01*
X603737Y135268D01*
X604965Y132304D01*
X604965Y129096D01*
X603737Y126132D01*
X601468Y123863D01*
X598504Y122635D01*
X595296Y122635D01*
G37*
%LPD*%
%LPC*%
G36*
X445296Y122635D02*
X445296Y122635D01*
X442332Y123863D01*
X440063Y126132D01*
X438835Y129096D01*
X438835Y132304D01*
X440063Y135268D01*
X442332Y137537D01*
X445296Y138765D01*
X448504Y138765D01*
X451468Y137537D01*
X453737Y135268D01*
X454965Y132304D01*
X454965Y129096D01*
X453737Y126132D01*
X451468Y123863D01*
X448504Y122635D01*
X445296Y122635D01*
G37*
%LPD*%
%LPC*%
G36*
X295296Y122635D02*
X295296Y122635D01*
X292332Y123863D01*
X290063Y126132D01*
X288835Y129096D01*
X288835Y132304D01*
X290063Y135268D01*
X292332Y137537D01*
X295296Y138765D01*
X298504Y138765D01*
X301468Y137537D01*
X303737Y135268D01*
X304965Y132304D01*
X304965Y129096D01*
X303737Y126132D01*
X301468Y123863D01*
X298504Y122635D01*
X295296Y122635D01*
G37*
%LPD*%
%LPC*%
G36*
X145296Y122635D02*
X145296Y122635D01*
X142332Y123863D01*
X140063Y126132D01*
X138835Y129096D01*
X138835Y132304D01*
X140063Y135268D01*
X142332Y137537D01*
X145296Y138765D01*
X148504Y138765D01*
X151468Y137537D01*
X153737Y135268D01*
X154965Y132304D01*
X154965Y129096D01*
X153737Y126132D01*
X151468Y123863D01*
X148504Y122635D01*
X145296Y122635D01*
G37*
%LPD*%
%LPC*%
G36*
X615296Y352635D02*
X615296Y352635D01*
X612332Y353863D01*
X610063Y356132D01*
X608835Y359096D01*
X608835Y362304D01*
X610063Y365268D01*
X612332Y367537D01*
X615296Y368765D01*
X618504Y368765D01*
X621468Y367537D01*
X623737Y365268D01*
X624965Y362304D01*
X624965Y359096D01*
X623737Y356132D01*
X621468Y353863D01*
X618504Y352635D01*
X615296Y352635D01*
G37*
%LPD*%
%LPC*%
G36*
X325296Y352635D02*
X325296Y352635D01*
X322332Y353863D01*
X320063Y356132D01*
X318835Y359096D01*
X318835Y362304D01*
X320063Y365268D01*
X322332Y367537D01*
X325296Y368765D01*
X328504Y368765D01*
X331468Y367537D01*
X333737Y365268D01*
X334965Y362304D01*
X334965Y359096D01*
X333737Y356132D01*
X331468Y353863D01*
X328504Y352635D01*
X325296Y352635D01*
G37*
%LPD*%
%LPC*%
G36*
X445296Y97235D02*
X445296Y97235D01*
X442332Y98463D01*
X440063Y100732D01*
X438835Y103696D01*
X438835Y106904D01*
X440063Y109868D01*
X442332Y112137D01*
X445296Y113365D01*
X448504Y113365D01*
X451468Y112137D01*
X453737Y109868D01*
X454965Y106904D01*
X454965Y103696D01*
X453737Y100732D01*
X451468Y98463D01*
X448504Y97235D01*
X445296Y97235D01*
G37*
%LPD*%
%LPC*%
G36*
X465296Y352635D02*
X465296Y352635D01*
X462332Y353863D01*
X460063Y356132D01*
X458835Y359096D01*
X458835Y362304D01*
X460063Y365268D01*
X462332Y367537D01*
X465296Y368765D01*
X468504Y368765D01*
X471468Y367537D01*
X473737Y365268D01*
X474965Y362304D01*
X474965Y359096D01*
X473737Y356132D01*
X471468Y353863D01*
X468504Y352635D01*
X465296Y352635D01*
G37*
%LPD*%
%LPC*%
G36*
X745296Y97235D02*
X745296Y97235D01*
X742332Y98463D01*
X740063Y100732D01*
X738835Y103696D01*
X738835Y106904D01*
X740063Y109868D01*
X742332Y112137D01*
X745296Y113365D01*
X748504Y113365D01*
X751468Y112137D01*
X753737Y109868D01*
X754965Y106904D01*
X754965Y103696D01*
X753737Y100732D01*
X751468Y98463D01*
X748504Y97235D01*
X745296Y97235D01*
G37*
%LPD*%
%LPC*%
G36*
X595296Y97235D02*
X595296Y97235D01*
X592332Y98463D01*
X590063Y100732D01*
X588835Y103696D01*
X588835Y106904D01*
X590063Y109868D01*
X592332Y112137D01*
X595296Y113365D01*
X598504Y113365D01*
X601468Y112137D01*
X603737Y109868D01*
X604965Y106904D01*
X604965Y103696D01*
X603737Y100732D01*
X601468Y98463D01*
X598504Y97235D01*
X595296Y97235D01*
G37*
%LPD*%
D10*
X56000Y210000D03*
D11*
X56000Y235400D03*
X56000Y260800D03*
X56000Y286200D03*
X56000Y311600D03*
X56000Y337000D03*
X56000Y362400D03*
X56000Y387800D03*
X56000Y413200D03*
X56000Y438600D03*
X56000Y464000D03*
X56000Y489400D03*
X56000Y514800D03*
X56000Y540200D03*
X56000Y565600D03*
X56000Y591000D03*
X81400Y210000D03*
X81400Y235400D03*
X81400Y260800D03*
X81400Y286200D03*
X81400Y311600D03*
X81400Y337000D03*
X81400Y362400D03*
X81400Y387800D03*
X81400Y413200D03*
X81400Y438600D03*
X81400Y464000D03*
X81400Y489400D03*
X81400Y514800D03*
X81400Y540200D03*
X81400Y565600D03*
X81400Y591000D03*
X106800Y210000D03*
X106800Y235400D03*
X106800Y260800D03*
X106800Y286200D03*
X106800Y311600D03*
X106800Y337000D03*
X106800Y362400D03*
X106800Y387800D03*
X106800Y413200D03*
X106800Y438600D03*
X106800Y464000D03*
X106800Y489400D03*
X106800Y514800D03*
X106800Y540200D03*
X106800Y565600D03*
X106800Y591000D03*
D12*
X223100Y105300D03*
D13*
X146900Y105300D03*
X223100Y130700D03*
X146900Y130700D03*
D14*
X950000Y647650D03*
D15*
X950000Y609550D03*
X950000Y571450D03*
X950000Y533350D03*
X950000Y495250D03*
X950000Y457150D03*
X950000Y419050D03*
X950000Y380950D03*
X950000Y342850D03*
X950000Y304750D03*
X950000Y266650D03*
X950000Y228550D03*
X950000Y190450D03*
X950000Y152350D03*
D12*
X373100Y105300D03*
D13*
X296900Y105300D03*
X373100Y130700D03*
X296900Y130700D03*
D12*
X523100Y105300D03*
D13*
X446900Y105300D03*
X523100Y130700D03*
X446900Y130700D03*
D12*
X673100Y105300D03*
D13*
X596900Y105300D03*
X673100Y130700D03*
X596900Y130700D03*
D12*
X823100Y105300D03*
D13*
X746900Y105300D03*
X823100Y130700D03*
X746900Y130700D03*
D12*
X403100Y335300D03*
D13*
X326900Y335300D03*
X403100Y360700D03*
X326900Y360700D03*
D12*
X543100Y335300D03*
D13*
X466900Y335300D03*
X543100Y360700D03*
X466900Y360700D03*
D12*
X693100Y335300D03*
D13*
X616900Y335300D03*
X693100Y360700D03*
X616900Y360700D03*
D12*
X843100Y335300D03*
D13*
X766900Y335300D03*
X843100Y360700D03*
X766900Y360700D03*
D12*
X523100Y545300D03*
D13*
X446900Y545300D03*
X523100Y570700D03*
X446900Y570700D03*
D12*
X673100Y545300D03*
D13*
X596900Y545300D03*
X673100Y570700D03*
X596900Y570700D03*
D12*
X823100Y545300D03*
D13*
X746900Y545300D03*
X823100Y570700D03*
X746900Y570700D03*
D16*
X253000Y425900D03*
D17*
X327380Y602900D02*
X342620Y602900D01*
X342620Y628300D02*
X327380Y628300D01*
X327380Y653700D02*
X342620Y653700D01*
X342620Y679100D02*
X327380Y679100D01*
X362380Y602900D02*
X377620Y602900D01*
X377620Y628300D02*
X362380Y628300D01*
X362380Y653700D02*
X377620Y653700D01*
X377620Y679100D02*
X362380Y679100D01*
X397380Y602900D02*
X412620Y602900D01*
X412620Y628300D02*
X397380Y628300D01*
X397380Y653700D02*
X412620Y653700D01*
X412620Y679100D02*
X397380Y679100D01*
D18*
X295500Y681800D03*
X295500Y656400D03*
X295500Y631000D03*
X295500Y605600D03*
X295500Y580200D03*
X295500Y554800D03*
X295500Y529400D03*
X295500Y504000D03*
X295500Y478600D03*
X295500Y453200D03*
X295500Y427800D03*
X295500Y402400D03*
X143100Y402400D03*
X143100Y427800D03*
X143100Y453200D03*
X143100Y478600D03*
X143100Y504000D03*
X143100Y529400D03*
X143100Y554800D03*
X143100Y580200D03*
X143100Y605600D03*
X143100Y631000D03*
X143100Y656400D03*
X143100Y681800D03*
X172310Y515430D03*
X172310Y490030D03*
D19*
X270000Y290000D03*
X300000Y370000D03*
X720000Y574000D03*
X732000Y634000D03*
X429811Y640189D03*
X444336Y660000D03*
X160000Y380000D03*
D20*
X150466Y420434D02*
X143100Y427800D01*
X150466Y420434D02*
X150570Y420434D01*
X160000Y411004D01*
X160000Y380000D01*
D21*
X295500Y478600D02*
X307932Y466168D01*
X307932Y459568D01*
X320400Y447100D01*
D19*
X150000Y340000D03*
X170000Y340000D03*
X130000Y320000D03*
X130000Y300000D03*
X150000Y300000D03*
X170000Y320000D03*
X170000Y300000D03*
X150000Y320000D03*
X150000Y380000D03*
D20*
X150000Y340000D01*
D19*
X242000Y330000D03*
D20*
X264684Y352684D02*
X264684Y433716D01*
X264684Y352684D02*
X242000Y330000D01*
X250000Y448400D02*
X250000Y462700D01*
D19*
X250000Y462700D03*
X156800Y462700D03*
D20*
X152638Y462700D01*
X143100Y472238D01*
X143100Y478600D01*
X250000Y448400D02*
X264684Y433716D01*
D22*
X120000Y582500D02*
X143100Y605600D01*
X120000Y582500D02*
X120000Y560000D01*
X102414Y550788D02*
X96212Y544586D01*
X92171Y532830D02*
X88170Y528829D01*
X88170Y523171D01*
X110788Y550788D02*
X120000Y560000D01*
X110788Y550788D02*
X102414Y550788D01*
X96212Y532830D02*
X92171Y532830D01*
X96212Y532830D02*
X96212Y544586D01*
X93700Y517641D02*
X93700Y507500D01*
D19*
X93700Y507500D03*
D22*
X93700Y517641D02*
X88170Y523171D01*
D19*
X75933Y451300D03*
X66200Y476800D03*
D22*
X75933Y454493D02*
X75933Y451300D01*
X75933Y454493D02*
X70812Y459614D01*
X70812Y472188D02*
X66200Y476800D01*
X70812Y472188D02*
X70812Y459614D01*
X96212Y442986D02*
X96212Y434214D01*
X130654Y483755D02*
X137945Y491046D01*
X106638Y453412D02*
X96212Y442986D01*
X106638Y453412D02*
X111186Y453412D01*
X130654Y472880D01*
X130654Y483755D01*
X166830Y552829D02*
X160000Y559659D01*
X159864Y503163D02*
X147747Y491046D01*
X159864Y503163D02*
X159864Y522097D01*
X166830Y529063D01*
X166830Y552829D01*
X160000Y614100D02*
X143100Y631000D01*
X147747Y491046D02*
X137945Y491046D01*
X160000Y559659D02*
X160000Y614100D01*
X102228Y428198D02*
X102228Y421894D01*
X102228Y428198D02*
X96212Y434214D01*
X106800Y417322D02*
X106800Y413200D01*
X106800Y417322D02*
X102228Y421894D01*
X106800Y423788D02*
X106800Y438600D01*
X106800Y423788D02*
X111186Y423788D01*
X117388Y417586D01*
X117388Y408814D01*
X111186Y402612D01*
X109112Y402612D01*
X107300Y400800D01*
X91988Y417586D02*
X85786Y423788D01*
X104226Y400800D02*
X107300Y400800D01*
X104226Y400800D02*
X91988Y413038D01*
X91988Y417586D01*
X85786Y423788D02*
X80572Y423788D01*
X72180Y432180D01*
X71160Y433200D01*
X48444Y455917D02*
X45917Y455917D01*
D19*
X45917Y455917D03*
D22*
X66588Y437772D02*
X71160Y433200D01*
X66588Y437772D02*
X66588Y442986D01*
X60386Y449188D01*
X55172Y449188D01*
X48444Y455917D01*
D19*
X40000Y520000D03*
D22*
X40000Y590000D01*
X106400Y656400D02*
X143100Y656400D01*
X106400Y656400D02*
X40000Y590000D01*
D20*
X214877Y115904D02*
X231323Y115904D01*
X204273Y105300D02*
X146900Y105300D01*
X241927Y105300D02*
X296900Y105300D01*
X214877Y115904D02*
X204273Y105300D01*
X231323Y115904D02*
X241927Y105300D01*
D19*
X390000Y100000D03*
D20*
X381323Y115904D02*
X364877Y115904D01*
X381323Y115904D02*
X383704Y113523D01*
X354273Y105300D02*
X296900Y105300D01*
X383704Y106296D02*
X383704Y113523D01*
X364877Y115904D02*
X354273Y105300D01*
X383704Y106296D02*
X390000Y100000D01*
D19*
X740000Y280000D03*
D20*
X740000Y308400D01*
X766900Y335300D01*
X701323Y324696D02*
X684877Y324696D01*
X711927Y335300D02*
X766900Y335300D01*
X674273Y335300D02*
X616900Y335300D01*
X701323Y324696D02*
X711927Y335300D01*
X684877Y324696D02*
X674273Y335300D01*
X551323Y324696D02*
X534877Y324696D01*
X561927Y335300D02*
X616900Y335300D01*
X524273Y335300D02*
X470000Y335300D01*
X466900Y335300D01*
X551323Y324696D02*
X561927Y335300D01*
X534877Y324696D02*
X524273Y335300D01*
X466900Y335300D02*
X455300Y335300D01*
X430000Y310000D01*
D19*
X430000Y310000D03*
D20*
X664877Y555904D02*
X681323Y555904D01*
X654273Y545300D02*
X596900Y545300D01*
X691927Y545300D02*
X746900Y545300D01*
X664877Y555904D02*
X654273Y545300D01*
X681323Y555904D02*
X691927Y545300D01*
X446900Y545300D02*
X446900Y358400D01*
X470000Y335300D01*
D21*
X275000Y345000D02*
X237500Y307500D01*
X275000Y480000D02*
X275000Y485000D01*
D19*
X232138Y290000D03*
D22*
X232138Y302138D01*
X237500Y307500D01*
X275000Y480000D02*
X275000Y483500D01*
X295500Y504000D01*
D21*
X275000Y434623D02*
X275000Y345000D01*
X275000Y434623D02*
X277338Y436961D01*
X277338Y443040D01*
X275000Y445378D01*
X275000Y480000D01*
D19*
X865000Y193000D03*
D23*
X577000Y193000D01*
X560000Y210000D01*
D19*
X560000Y210000D03*
X860000Y224000D03*
D23*
X716000Y224000D01*
X700000Y240000D01*
D19*
X700000Y240000D03*
X785000Y303000D03*
D23*
X796536Y314536D01*
X883846Y342850D02*
X950000Y342850D01*
X855532Y314536D02*
X796536Y314536D01*
X855532Y314536D02*
X883846Y342850D01*
D19*
X580000Y470000D03*
D23*
X668536Y381464D01*
X851701Y381464D02*
X852215Y380950D01*
X950000Y380950D01*
X851701Y381464D02*
X668536Y381464D01*
D19*
X880000Y420000D03*
D23*
X770000Y420000D01*
X710000Y480000D01*
D19*
X710000Y480000D03*
X570000Y520000D03*
D23*
X720000Y520000D01*
X750000Y490000D01*
X944750Y490000D01*
X950000Y495250D01*
D19*
X700000Y630000D03*
D23*
X738536Y591464D01*
X755501Y591464D01*
X780000Y566965D01*
X780000Y540000D01*
X803076Y516924D01*
X933574Y516924D02*
X950000Y533350D01*
X933574Y516924D02*
X803076Y516924D01*
D19*
X290000Y210000D03*
D21*
X260000Y240000D01*
X140000Y240000D01*
D19*
X140000Y240000D03*
X95000Y526000D03*
D21*
X111396Y529104D02*
X111992Y529700D01*
X111396Y529104D02*
X116704Y529104D01*
D19*
X160000Y550000D03*
D22*
X125203Y529104D02*
X116704Y529104D01*
X151846Y541846D02*
X160000Y550000D01*
X137945Y541846D02*
X125203Y529104D01*
X137945Y541846D02*
X151846Y541846D01*
D19*
X270000Y580000D03*
D22*
X270000Y550000D01*
D19*
X270000Y550000D03*
X278500Y517300D03*
D22*
X290600Y529400D01*
X295500Y529400D01*
D21*
X102588Y529104D02*
X100584Y527100D01*
X102588Y529104D02*
X111396Y529104D01*
X96100Y527100D02*
X95000Y526000D01*
X96100Y527100D02*
X100584Y527100D01*
D19*
X400000Y280000D03*
D21*
X370000Y310000D01*
X370000Y420000D02*
X330000Y460000D01*
X370000Y420000D02*
X370000Y310000D01*
D22*
X330000Y460000D02*
X320884Y460000D01*
X320000Y459116D01*
D19*
X320000Y459116D03*
D22*
X33061Y481435D02*
X33061Y193061D01*
X156123Y70000D01*
D19*
X710000Y140000D03*
D22*
X682688Y112688D02*
X682688Y97498D01*
X682688Y112688D02*
X710000Y140000D01*
X682688Y97498D02*
X655191Y70000D01*
X156123Y70000D01*
D19*
X159947Y533171D03*
D22*
X155546Y528770D01*
X140000Y516954D02*
X138453Y516954D01*
X140000Y516954D02*
X148255Y516954D01*
X140000Y516954D02*
X139492Y516446D01*
X137945Y516446D01*
X130000Y508501D01*
X117388Y493786D02*
X111186Y499988D01*
X117388Y493786D02*
X117388Y492700D01*
X111186Y499988D02*
X110012Y499988D01*
X117388Y492700D02*
X120588Y489500D01*
X130000Y493900D02*
X130000Y508501D01*
X125600Y489500D02*
X120588Y489500D01*
X125600Y489500D02*
X130000Y493900D01*
X55623Y503997D02*
X33061Y481435D01*
X108303Y501697D02*
X110012Y499988D01*
X148255Y516954D02*
X155546Y524245D01*
X155546Y528770D01*
X90871Y500670D02*
X87544Y503997D01*
X90871Y500670D02*
X96529Y500670D01*
X97556Y501697D01*
X108303Y501697D01*
X60771Y503997D02*
X55623Y503997D01*
X60771Y503997D02*
X63271Y506497D01*
X68929Y506497D01*
X71429Y503997D01*
X87544Y503997D01*
D19*
X420000Y76830D03*
D22*
X380000Y309659D02*
X380000Y430000D01*
X400000Y96830D02*
X420000Y76830D01*
X400000Y190000D02*
X400203Y190203D01*
D19*
X400203Y190203D03*
X400189Y290189D03*
D22*
X400000Y190000D02*
X400000Y96830D01*
X399470Y290189D02*
X380000Y309659D01*
X399470Y290189D02*
X400189Y290189D01*
X325000Y485000D02*
X323170Y486830D01*
X325000Y485000D02*
X380000Y430000D01*
X350000Y530000D02*
X350000Y551100D01*
X315753Y585347D02*
X295500Y605600D01*
X315753Y585347D02*
X319912Y585347D01*
X323913Y581346D01*
X323913Y577187D01*
X350000Y551100D01*
X350000Y530000D02*
X323530Y503530D01*
X321971Y503530D01*
X317970Y499529D02*
X317970Y492030D01*
X323170Y486830D01*
X317970Y499529D02*
X321971Y503530D01*
D19*
X250000Y580000D03*
D22*
X256830Y522829D02*
X256830Y517171D01*
X253170Y513511D01*
X253170Y506830D01*
X260000Y500000D01*
X250000Y529659D02*
X250000Y580000D01*
X250000Y529659D02*
X256830Y522829D01*
X285330Y515330D02*
X285330Y514471D01*
X285330Y515330D02*
X286446Y516446D01*
X270859Y500000D02*
X260000Y500000D01*
X270859Y500000D02*
X285330Y514471D01*
X286446Y516446D02*
X300655Y516446D01*
X307946Y509155D01*
X307946Y499353D01*
X311299Y495999D01*
X311299Y489999D01*
X308097Y486797D01*
D19*
X308097Y486797D03*
X310000Y521670D03*
X418233Y508233D03*
D22*
X418233Y541767D01*
X370341Y580000D02*
X370000Y580000D01*
X377171Y573170D02*
X386830Y573170D01*
X377171Y573170D02*
X370341Y580000D01*
X370000Y580000D02*
X370000Y584400D01*
X377832Y592232D01*
X417039Y592232D02*
X423288Y598481D01*
X423288Y602388D01*
X417039Y592232D02*
X377832Y592232D01*
X423288Y683519D02*
X417039Y689768D01*
X423288Y669512D02*
X443200Y649600D01*
X423288Y669512D02*
X423288Y683519D01*
X321471Y697830D02*
X315813Y697830D01*
X321471Y697830D02*
X329533Y689768D01*
X311124Y672024D02*
X295500Y656400D01*
X311124Y693141D02*
X315813Y697830D01*
X311124Y693141D02*
X311124Y672024D01*
X386830Y573170D02*
X418233Y541767D01*
X423288Y602388D02*
X443200Y622300D01*
X443200Y649600D01*
X417039Y689768D02*
X329533Y689768D01*
D19*
X464000Y466000D03*
D22*
X524000Y466000D01*
D19*
X570000Y440000D03*
D22*
X566125Y440000D02*
X564723Y438598D01*
X566125Y440000D02*
X570000Y440000D01*
X564723Y438598D02*
X551402Y438598D01*
X524000Y466000D01*
D19*
X312900Y614500D03*
D22*
X350000Y521900D02*
X324800Y496700D01*
D19*
X324800Y496700D03*
D22*
X312900Y594666D02*
X312900Y614500D01*
X312900Y594666D02*
X317647Y589919D01*
X321806Y589919D01*
X328485Y583240D01*
X328485Y579081D01*
X354572Y552994D01*
X354572Y528106D01*
X350000Y523534D02*
X350000Y521900D01*
X350000Y523534D02*
X354572Y528106D01*
D19*
X610000Y501994D03*
D22*
X573477Y485748D02*
X564252Y476523D01*
X564252Y463477D01*
X509294Y490000D02*
X460000Y490000D01*
X593754Y485748D02*
X610000Y501994D01*
X593754Y485748D02*
X573477Y485748D01*
X564252Y463477D02*
X566830Y460899D01*
X566830Y447171D01*
D19*
X460000Y490000D03*
X340000Y540000D03*
D22*
X562829Y443170D02*
X566830Y447171D01*
X562829Y443170D02*
X556124Y443170D01*
X509294Y490000D01*
X340000Y540000D02*
X302501Y540000D01*
X300655Y541846D02*
X290345Y541846D01*
X300655Y541846D02*
X302501Y540000D01*
D19*
X260000Y610000D03*
D22*
X276830Y547171D02*
X272829Y543170D01*
X267171Y543170D01*
X285020Y547171D02*
X290345Y541846D01*
X285020Y547171D02*
X276830Y547171D01*
X267171Y543170D02*
X263170Y547171D01*
X260000Y608234D02*
X260000Y610000D01*
X260000Y608234D02*
X263170Y605064D01*
X263170Y547171D01*
D19*
X410000Y570000D03*
X550000Y550000D03*
D22*
X434041Y570000D02*
X410000Y570000D01*
X538888Y561112D02*
X550000Y550000D01*
X442929Y561112D02*
X434041Y570000D01*
X442929Y561112D02*
X538888Y561112D01*
D19*
X313700Y567446D03*
D22*
X290345Y567754D02*
X283054Y575045D01*
X313392Y567754D02*
X313700Y567446D01*
X283054Y575045D02*
X283054Y576946D01*
X290345Y567754D02*
X313392Y567754D01*
D19*
X270000Y590000D03*
D22*
X283054Y576946D01*
D19*
X282500Y537300D03*
X260000Y510000D03*
X122000Y504400D03*
D22*
X122000Y508300D01*
X143100Y529400D01*
X261402Y516202D02*
X261402Y515277D01*
X260000Y513875D01*
X260000Y510000D01*
X261402Y516202D02*
X282500Y537300D01*
D21*
X442422Y580500D02*
X442718Y580796D01*
X590796Y580796D01*
D19*
X830000Y630000D03*
D21*
X813744Y646256D01*
X650000Y640000D02*
X590796Y580796D01*
X650000Y640000D02*
X656256Y646256D01*
D22*
X750256Y646256D02*
X813744Y646256D01*
X750256Y646256D02*
X750000Y646000D01*
D19*
X750000Y646000D03*
X724000Y646000D03*
D22*
X656000Y646000D01*
X650000Y640000D01*
X442718Y580796D02*
X390796Y580796D01*
X390000Y580000D01*
X380000Y580000D01*
D19*
X380000Y580000D03*
X317083Y578517D03*
D22*
X314784Y578517D01*
X300655Y592646D01*
X287354Y592646D01*
D19*
X250000Y520000D03*
D22*
X243170Y577171D02*
X243170Y582829D01*
X243170Y577171D02*
X245428Y574913D01*
X245428Y524936D01*
X250000Y520364D02*
X250000Y520000D01*
X250000Y520364D02*
X245428Y524936D01*
X287354Y592646D02*
X261704Y618296D01*
X261704Y620555D01*
X257703Y624556D01*
X252045Y624556D01*
X248044Y620555D01*
X248044Y605831D01*
X249967Y603908D01*
X249967Y589626D01*
X243170Y582829D01*
D19*
X270000Y440000D03*
D22*
X260000Y450000D01*
X260000Y480000D01*
D19*
X260000Y480000D03*
X260600Y539200D03*
D22*
X258598Y541202D01*
D19*
X254874Y617726D03*
D22*
X253170Y612829D02*
X253170Y607171D01*
X253170Y612829D02*
X254874Y614533D01*
X254874Y617726D01*
X253170Y607171D02*
X258598Y601743D01*
X258598Y541202D01*
D19*
X120189Y679811D03*
D21*
X153304Y712926D01*
X154000Y712926D01*
D19*
X154000Y712926D03*
D22*
X122829Y366830D02*
X117171Y366830D01*
X122829Y366830D02*
X126830Y362829D01*
X126830Y357171D01*
X106800Y337141D02*
X106800Y337000D01*
X106800Y337141D02*
X126830Y357171D01*
X112741Y362400D02*
X106800Y362400D01*
X112741Y362400D02*
X117171Y366830D01*
D19*
X97967Y480067D03*
X66100Y499667D03*
D22*
X87040Y480067D02*
X97967Y480067D01*
X87040Y480067D02*
X85786Y478812D01*
X77014Y478812D01*
X70812Y485014D01*
X70812Y488055D01*
X66100Y492767D01*
X66100Y499667D01*
D19*
X69217Y520784D03*
D22*
X91988Y576188D02*
X106800Y591000D01*
X91988Y576188D02*
X77014Y576188D01*
X69217Y568390D02*
X69217Y520784D01*
X69217Y568390D02*
X77014Y576188D01*
D19*
X318642Y691000D03*
D21*
X335000Y655675D02*
X335000Y653700D01*
X316204Y674471D02*
X316204Y683729D01*
X316204Y674471D02*
X335000Y655675D01*
X316204Y683729D02*
X318642Y686167D01*
X318642Y691000D01*
D19*
X120000Y360000D03*
D22*
X77014Y351812D02*
X70812Y358014D01*
X119374Y360000D02*
X120000Y360000D01*
X119374Y360000D02*
X111186Y351812D01*
X77014Y351812D01*
X60386Y398388D02*
X51612Y398388D01*
X70812Y387962D02*
X70812Y358014D01*
X70812Y387962D02*
X60386Y398388D01*
X51612Y398388D02*
X45412Y404588D01*
X39087Y453087D02*
X39087Y458746D01*
X43087Y462747D01*
X48746Y462747D01*
X51746Y459746D01*
X56000Y464000D01*
X45412Y446762D02*
X45412Y404588D01*
X45412Y446762D02*
X39087Y453087D01*
D19*
X270000Y640000D03*
D22*
X286199Y640000D01*
X289945Y643746D01*
X300255Y643746D01*
X300969Y643032D01*
X359332Y643032D01*
X370000Y653700D01*
D19*
X270300Y620500D03*
D22*
X288299Y620500D01*
X290445Y618354D01*
X417039Y617632D02*
X437288Y637881D01*
X322961Y617632D02*
X322239Y618354D01*
X322961Y617632D02*
X417039Y617632D01*
X437288Y646812D02*
X405000Y679100D01*
X437288Y646812D02*
X437288Y637881D01*
X307095Y618354D02*
X290445Y618354D01*
X307095Y618354D02*
X310071Y621330D01*
X315729Y621330D01*
X318705Y618354D01*
X322239Y618354D01*
M02*
