G04 EAGLE Gerber RS-274X export*
G75*
%MOMM*%
%FSLAX34Y34*%
%LPD*%
%IN*%
%IPPOS*%
%AMOC8*
5,1,8,0,0,1.08239X$1,22.5*%
G01*
%ADD10C,0.254000*%


D10*
X0Y0D02*
X1000000Y0D01*
X1000000Y800000D01*
X0Y800000D01*
X0Y0D01*
X45400Y55843D02*
X45327Y54733D01*
X45182Y53629D01*
X44965Y52538D01*
X44677Y51463D01*
X44319Y50409D01*
X43893Y49380D01*
X43401Y48382D01*
X42844Y47418D01*
X42226Y46493D01*
X41548Y45610D01*
X40814Y44773D01*
X40027Y43986D01*
X39190Y43252D01*
X38307Y42574D01*
X37382Y41956D01*
X36418Y41399D01*
X35420Y40907D01*
X34391Y40481D01*
X33337Y40123D01*
X32262Y39835D01*
X31171Y39618D01*
X30067Y39473D01*
X28957Y39400D01*
X27843Y39400D01*
X26733Y39473D01*
X25629Y39618D01*
X24538Y39835D01*
X23463Y40123D01*
X22409Y40481D01*
X21380Y40907D01*
X20382Y41399D01*
X19418Y41956D01*
X18493Y42574D01*
X17610Y43252D01*
X16773Y43986D01*
X15986Y44773D01*
X15252Y45610D01*
X14574Y46493D01*
X13956Y47418D01*
X13399Y48382D01*
X12907Y49380D01*
X12481Y50409D01*
X12123Y51463D01*
X11835Y52538D01*
X11618Y53629D01*
X11473Y54733D01*
X11400Y55843D01*
X11400Y56957D01*
X11473Y58067D01*
X11618Y59171D01*
X11835Y60262D01*
X12123Y61337D01*
X12481Y62391D01*
X12907Y63420D01*
X13399Y64418D01*
X13956Y65382D01*
X14574Y66307D01*
X15252Y67190D01*
X15986Y68027D01*
X16773Y68814D01*
X17610Y69548D01*
X18493Y70226D01*
X19418Y70844D01*
X20382Y71401D01*
X21380Y71893D01*
X22409Y72319D01*
X23463Y72677D01*
X24538Y72965D01*
X25629Y73182D01*
X26733Y73327D01*
X27843Y73400D01*
X28957Y73400D01*
X30067Y73327D01*
X31171Y73182D01*
X32262Y72965D01*
X33337Y72677D01*
X34391Y72319D01*
X35420Y71893D01*
X36418Y71401D01*
X37382Y70844D01*
X38307Y70226D01*
X39190Y69548D01*
X40027Y68814D01*
X40814Y68027D01*
X41548Y67190D01*
X42226Y66307D01*
X42844Y65382D01*
X43401Y64418D01*
X43893Y63420D01*
X44319Y62391D01*
X44677Y61337D01*
X44965Y60262D01*
X45182Y59171D01*
X45327Y58067D01*
X45400Y56957D01*
X45400Y55843D01*
X45400Y743043D02*
X45327Y741933D01*
X45182Y740829D01*
X44965Y739738D01*
X44677Y738663D01*
X44319Y737609D01*
X43893Y736580D01*
X43401Y735582D01*
X42844Y734618D01*
X42226Y733693D01*
X41548Y732810D01*
X40814Y731973D01*
X40027Y731186D01*
X39190Y730452D01*
X38307Y729774D01*
X37382Y729156D01*
X36418Y728599D01*
X35420Y728107D01*
X34391Y727681D01*
X33337Y727323D01*
X32262Y727035D01*
X31171Y726818D01*
X30067Y726673D01*
X28957Y726600D01*
X27843Y726600D01*
X26733Y726673D01*
X25629Y726818D01*
X24538Y727035D01*
X23463Y727323D01*
X22409Y727681D01*
X21380Y728107D01*
X20382Y728599D01*
X19418Y729156D01*
X18493Y729774D01*
X17610Y730452D01*
X16773Y731186D01*
X15986Y731973D01*
X15252Y732810D01*
X14574Y733693D01*
X13956Y734618D01*
X13399Y735582D01*
X12907Y736580D01*
X12481Y737609D01*
X12123Y738663D01*
X11835Y739738D01*
X11618Y740829D01*
X11473Y741933D01*
X11400Y743043D01*
X11400Y744157D01*
X11473Y745267D01*
X11618Y746371D01*
X11835Y747462D01*
X12123Y748537D01*
X12481Y749591D01*
X12907Y750620D01*
X13399Y751618D01*
X13956Y752582D01*
X14574Y753507D01*
X15252Y754390D01*
X15986Y755227D01*
X16773Y756014D01*
X17610Y756748D01*
X18493Y757426D01*
X19418Y758044D01*
X20382Y758601D01*
X21380Y759093D01*
X22409Y759519D01*
X23463Y759877D01*
X24538Y760165D01*
X25629Y760382D01*
X26733Y760527D01*
X27843Y760600D01*
X28957Y760600D01*
X30067Y760527D01*
X31171Y760382D01*
X32262Y760165D01*
X33337Y759877D01*
X34391Y759519D01*
X35420Y759093D01*
X36418Y758601D01*
X37382Y758044D01*
X38307Y757426D01*
X39190Y756748D01*
X40027Y756014D01*
X40814Y755227D01*
X41548Y754390D01*
X42226Y753507D01*
X42844Y752582D01*
X43401Y751618D01*
X43893Y750620D01*
X44319Y749591D01*
X44677Y748537D01*
X44965Y747462D01*
X45182Y746371D01*
X45327Y745267D01*
X45400Y744157D01*
X45400Y743043D01*
X988600Y743043D02*
X988527Y741933D01*
X988382Y740829D01*
X988165Y739738D01*
X987877Y738663D01*
X987519Y737609D01*
X987093Y736580D01*
X986601Y735582D01*
X986044Y734618D01*
X985426Y733693D01*
X984748Y732810D01*
X984014Y731973D01*
X983227Y731186D01*
X982390Y730452D01*
X981507Y729774D01*
X980582Y729156D01*
X979618Y728599D01*
X978620Y728107D01*
X977591Y727681D01*
X976537Y727323D01*
X975462Y727035D01*
X974371Y726818D01*
X973267Y726673D01*
X972157Y726600D01*
X971043Y726600D01*
X969933Y726673D01*
X968829Y726818D01*
X967738Y727035D01*
X966663Y727323D01*
X965609Y727681D01*
X964580Y728107D01*
X963582Y728599D01*
X962618Y729156D01*
X961693Y729774D01*
X960810Y730452D01*
X959973Y731186D01*
X959186Y731973D01*
X958452Y732810D01*
X957774Y733693D01*
X957156Y734618D01*
X956599Y735582D01*
X956107Y736580D01*
X955681Y737609D01*
X955323Y738663D01*
X955035Y739738D01*
X954818Y740829D01*
X954673Y741933D01*
X954600Y743043D01*
X954600Y744157D01*
X954673Y745267D01*
X954818Y746371D01*
X955035Y747462D01*
X955323Y748537D01*
X955681Y749591D01*
X956107Y750620D01*
X956599Y751618D01*
X957156Y752582D01*
X957774Y753507D01*
X958452Y754390D01*
X959186Y755227D01*
X959973Y756014D01*
X960810Y756748D01*
X961693Y757426D01*
X962618Y758044D01*
X963582Y758601D01*
X964580Y759093D01*
X965609Y759519D01*
X966663Y759877D01*
X967738Y760165D01*
X968829Y760382D01*
X969933Y760527D01*
X971043Y760600D01*
X972157Y760600D01*
X973267Y760527D01*
X974371Y760382D01*
X975462Y760165D01*
X976537Y759877D01*
X977591Y759519D01*
X978620Y759093D01*
X979618Y758601D01*
X980582Y758044D01*
X981507Y757426D01*
X982390Y756748D01*
X983227Y756014D01*
X984014Y755227D01*
X984748Y754390D01*
X985426Y753507D01*
X986044Y752582D01*
X986601Y751618D01*
X987093Y750620D01*
X987519Y749591D01*
X987877Y748537D01*
X988165Y747462D01*
X988382Y746371D01*
X988527Y745267D01*
X988600Y744157D01*
X988600Y743043D01*
X988600Y55843D02*
X988527Y54733D01*
X988382Y53629D01*
X988165Y52538D01*
X987877Y51463D01*
X987519Y50409D01*
X987093Y49380D01*
X986601Y48382D01*
X986044Y47418D01*
X985426Y46493D01*
X984748Y45610D01*
X984014Y44773D01*
X983227Y43986D01*
X982390Y43252D01*
X981507Y42574D01*
X980582Y41956D01*
X979618Y41399D01*
X978620Y40907D01*
X977591Y40481D01*
X976537Y40123D01*
X975462Y39835D01*
X974371Y39618D01*
X973267Y39473D01*
X972157Y39400D01*
X971043Y39400D01*
X969933Y39473D01*
X968829Y39618D01*
X967738Y39835D01*
X966663Y40123D01*
X965609Y40481D01*
X964580Y40907D01*
X963582Y41399D01*
X962618Y41956D01*
X961693Y42574D01*
X960810Y43252D01*
X959973Y43986D01*
X959186Y44773D01*
X958452Y45610D01*
X957774Y46493D01*
X957156Y47418D01*
X956599Y48382D01*
X956107Y49380D01*
X955681Y50409D01*
X955323Y51463D01*
X955035Y52538D01*
X954818Y53629D01*
X954673Y54733D01*
X954600Y55843D01*
X954600Y56957D01*
X954673Y58067D01*
X954818Y59171D01*
X955035Y60262D01*
X955323Y61337D01*
X955681Y62391D01*
X956107Y63420D01*
X956599Y64418D01*
X957156Y65382D01*
X957774Y66307D01*
X958452Y67190D01*
X959186Y68027D01*
X959973Y68814D01*
X960810Y69548D01*
X961693Y70226D01*
X962618Y70844D01*
X963582Y71401D01*
X964580Y71893D01*
X965609Y72319D01*
X966663Y72677D01*
X967738Y72965D01*
X968829Y73182D01*
X969933Y73327D01*
X971043Y73400D01*
X972157Y73400D01*
X973267Y73327D01*
X974371Y73182D01*
X975462Y72965D01*
X976537Y72677D01*
X977591Y72319D01*
X978620Y71893D01*
X979618Y71401D01*
X980582Y70844D01*
X981507Y70226D01*
X982390Y69548D01*
X983227Y68814D01*
X984014Y68027D01*
X984748Y67190D01*
X985426Y66307D01*
X986044Y65382D01*
X986601Y64418D01*
X987093Y63420D01*
X987519Y62391D01*
X987877Y61337D01*
X988165Y60262D01*
X988382Y59171D01*
X988527Y58067D01*
X988600Y56957D01*
X988600Y55843D01*
X30100Y627800D02*
X29103Y627871D01*
X28113Y628014D01*
X27136Y628226D01*
X26176Y628508D01*
X25239Y628857D01*
X24329Y629273D01*
X23452Y629752D01*
X22610Y630293D01*
X21810Y630892D01*
X21054Y631547D01*
X20347Y632254D01*
X19692Y633010D01*
X19093Y633810D01*
X18552Y634652D01*
X18073Y635529D01*
X17657Y636439D01*
X17308Y637376D01*
X17026Y638336D01*
X16814Y639313D01*
X16671Y640303D01*
X16600Y641300D01*
X16600Y642300D01*
X16671Y643298D01*
X16814Y644287D01*
X17026Y645265D01*
X17308Y646224D01*
X17657Y647161D01*
X18073Y648071D01*
X18552Y648948D01*
X19093Y649790D01*
X19692Y650590D01*
X20347Y651346D01*
X21054Y652053D01*
X21810Y652708D01*
X22610Y653307D01*
X23452Y653848D01*
X24329Y654327D01*
X25239Y654743D01*
X26176Y655092D01*
X27136Y655374D01*
X28113Y655586D01*
X29103Y655729D01*
X30100Y655800D01*
X31100Y655800D01*
X32098Y655729D01*
X33087Y655586D01*
X34065Y655374D01*
X35024Y655092D01*
X35961Y654743D01*
X36871Y654327D01*
X37748Y653848D01*
X38590Y653307D01*
X39390Y652708D01*
X40146Y652053D01*
X40853Y651346D01*
X41508Y650590D01*
X42107Y649790D01*
X42648Y648948D01*
X43127Y648071D01*
X43543Y647161D01*
X43892Y646224D01*
X44174Y645265D01*
X44386Y644287D01*
X44529Y643298D01*
X44600Y642300D01*
X44600Y641300D01*
X44529Y640303D01*
X44386Y639313D01*
X44174Y638336D01*
X43892Y637376D01*
X43543Y636439D01*
X43127Y635529D01*
X42648Y634652D01*
X42107Y633810D01*
X41508Y633010D01*
X40853Y632254D01*
X40146Y631547D01*
X39390Y630892D01*
X38590Y630293D01*
X37748Y629752D01*
X36871Y629273D01*
X35961Y628857D01*
X35024Y628508D01*
X34065Y628226D01*
X33087Y628014D01*
X32098Y627871D01*
X31100Y627800D01*
X30100Y627800D01*
X30100Y145200D02*
X29103Y145271D01*
X28113Y145414D01*
X27136Y145626D01*
X26176Y145908D01*
X25239Y146257D01*
X24329Y146673D01*
X23452Y147152D01*
X22610Y147693D01*
X21810Y148292D01*
X21054Y148947D01*
X20347Y149654D01*
X19692Y150410D01*
X19093Y151210D01*
X18552Y152052D01*
X18073Y152929D01*
X17657Y153839D01*
X17308Y154776D01*
X17026Y155736D01*
X16814Y156713D01*
X16671Y157703D01*
X16600Y158700D01*
X16600Y159700D01*
X16671Y160698D01*
X16814Y161687D01*
X17026Y162665D01*
X17308Y163624D01*
X17657Y164561D01*
X18073Y165471D01*
X18552Y166348D01*
X19093Y167190D01*
X19692Y167990D01*
X20347Y168746D01*
X21054Y169453D01*
X21810Y170108D01*
X22610Y170707D01*
X23452Y171248D01*
X24329Y171727D01*
X25239Y172143D01*
X26176Y172492D01*
X27136Y172774D01*
X28113Y172986D01*
X29103Y173129D01*
X30100Y173200D01*
X31100Y173200D01*
X32098Y173129D01*
X33087Y172986D01*
X34065Y172774D01*
X35024Y172492D01*
X35961Y172143D01*
X36871Y171727D01*
X37748Y171248D01*
X38590Y170707D01*
X39390Y170108D01*
X40146Y169453D01*
X40853Y168746D01*
X41508Y167990D01*
X42107Y167190D01*
X42648Y166348D01*
X43127Y165471D01*
X43543Y164561D01*
X43892Y163624D01*
X44174Y162665D01*
X44386Y161687D01*
X44529Y160698D01*
X44600Y159700D01*
X44600Y158700D01*
X44529Y157703D01*
X44386Y156713D01*
X44174Y155736D01*
X43892Y154776D01*
X43543Y153839D01*
X43127Y152929D01*
X42648Y152052D01*
X42107Y151210D01*
X41508Y150410D01*
X40853Y149654D01*
X40146Y148947D01*
X39390Y148292D01*
X38590Y147693D01*
X37748Y147152D01*
X36871Y146673D01*
X35961Y146257D01*
X35024Y145908D01*
X34065Y145626D01*
X33087Y145414D01*
X32098Y145271D01*
X31100Y145200D01*
X30100Y145200D01*
M02*
