G04 EAGLE Gerber RS-274X export*
G75*
%MOMM*%
%FSLAX34Y34*%
%LPD*%
%INSoldermask Top*%
%IPPOS*%
%AMOC8*
5,1,8,0,0,1.08239X$1,22.5*%
G01*
%ADD10C,2.453200*%
%ADD11C,3.003200*%
%ADD12R,1.711200X1.711200*%
%ADD13C,1.711200*%
%ADD14R,1.511200X1.511200*%
%ADD15C,1.511200*%
%ADD16R,1.703200X1.503200*%
%ADD17R,1.503200X1.703200*%
%ADD18R,1.153200X2.353200*%
%ADD19R,3.453200X2.353200*%
%ADD20R,2.003200X1.803200*%
%ADD21C,2.082800*%
%ADD22C,0.806416*%
%ADD23C,0.360637*%
%ADD24R,2.303200X2.303200*%
%ADD25C,2.303200*%
%ADD26P,1.869504X8X22.500000*%
%ADD27R,0.838200X1.473200*%
%ADD28C,0.959600*%


D10*
X28400Y56400D03*
X28400Y743600D03*
X971600Y743600D03*
X971600Y56400D03*
D11*
X30600Y641800D03*
X30600Y159200D03*
D12*
X56000Y210000D03*
D13*
X56000Y235400D03*
X56000Y260800D03*
X56000Y286200D03*
X56000Y311600D03*
X56000Y337000D03*
X56000Y362400D03*
X56000Y387800D03*
X56000Y413200D03*
X56000Y438600D03*
X56000Y464000D03*
X56000Y489400D03*
X56000Y514800D03*
X56000Y540200D03*
X56000Y565600D03*
X56000Y591000D03*
X81400Y210000D03*
X81400Y235400D03*
X81400Y260800D03*
X81400Y286200D03*
X81400Y311600D03*
X81400Y337000D03*
X81400Y362400D03*
X81400Y387800D03*
X81400Y413200D03*
X81400Y438600D03*
X81400Y464000D03*
X81400Y489400D03*
X81400Y514800D03*
X81400Y540200D03*
X81400Y565600D03*
X81400Y591000D03*
X106800Y210000D03*
X106800Y235400D03*
X106800Y260800D03*
X106800Y286200D03*
X106800Y311600D03*
X106800Y337000D03*
X106800Y362400D03*
X106800Y387800D03*
X106800Y413200D03*
X106800Y438600D03*
X106800Y464000D03*
X106800Y489400D03*
X106800Y514800D03*
X106800Y540200D03*
X106800Y565600D03*
X106800Y591000D03*
D14*
X223100Y105300D03*
D15*
X146900Y105300D03*
X223100Y130700D03*
X146900Y130700D03*
D16*
X145000Y154500D03*
X145000Y173500D03*
D17*
X199500Y155000D03*
X180500Y155000D03*
D16*
X241000Y175500D03*
X241000Y156500D03*
D18*
X247000Y311000D03*
X270000Y311000D03*
X293000Y311000D03*
D19*
X270000Y369000D03*
D20*
X220000Y348000D03*
X220000Y376000D03*
D17*
X247500Y280000D03*
X266500Y280000D03*
D21*
X142700Y402700D03*
X142700Y428100D03*
X142700Y453500D03*
X142700Y478900D03*
X142700Y504300D03*
X142700Y529700D03*
X142700Y555100D03*
X142700Y580500D03*
X142700Y605900D03*
X142700Y631300D03*
X142700Y656700D03*
X142700Y682100D03*
X295100Y682100D03*
X295100Y656700D03*
X295100Y631300D03*
X295100Y605900D03*
X295100Y580500D03*
X295100Y555100D03*
X295100Y529700D03*
X295100Y504300D03*
X295100Y478900D03*
X295100Y453500D03*
X295100Y428100D03*
X295100Y402700D03*
X265890Y569070D03*
X265890Y594470D03*
D22*
X219214Y227066D02*
X158246Y227066D01*
X158246Y281034D01*
X219214Y281034D01*
X219214Y227066D01*
X219214Y234727D02*
X158246Y234727D01*
X158246Y242388D02*
X219214Y242388D01*
X219214Y250049D02*
X158246Y250049D01*
X158246Y257710D02*
X219214Y257710D01*
X219214Y265371D02*
X158246Y265371D01*
X158246Y273032D02*
X219214Y273032D01*
X219214Y280693D02*
X158246Y280693D01*
D23*
X158717Y172837D02*
X173143Y172837D01*
X158717Y172837D02*
X158717Y201263D01*
X173143Y201263D01*
X173143Y172837D01*
X173143Y176263D02*
X158717Y176263D01*
X158717Y179689D02*
X173143Y179689D01*
X173143Y183115D02*
X158717Y183115D01*
X158717Y186541D02*
X173143Y186541D01*
X173143Y189967D02*
X158717Y189967D01*
X158717Y193393D02*
X173143Y193393D01*
X173143Y196819D02*
X158717Y196819D01*
X158717Y200245D02*
X173143Y200245D01*
X204317Y172837D02*
X218743Y172837D01*
X204317Y172837D02*
X204317Y201263D01*
X218743Y201263D01*
X218743Y172837D01*
X218743Y176263D02*
X204317Y176263D01*
X204317Y179689D02*
X218743Y179689D01*
X218743Y183115D02*
X204317Y183115D01*
X204317Y186541D02*
X218743Y186541D01*
X218743Y189967D02*
X204317Y189967D01*
X204317Y193393D02*
X218743Y193393D01*
X218743Y196819D02*
X204317Y196819D01*
X204317Y200245D02*
X218743Y200245D01*
D24*
X910000Y647650D03*
D25*
X910000Y609550D03*
X910000Y571450D03*
X910000Y533350D03*
X910000Y495250D03*
X910000Y457150D03*
X910000Y419050D03*
X910000Y380950D03*
X910000Y342850D03*
X910000Y304750D03*
X910000Y266650D03*
X910000Y228550D03*
X910000Y190450D03*
X910000Y152350D03*
D14*
X373100Y105300D03*
D15*
X296900Y105300D03*
X373100Y130700D03*
X296900Y130700D03*
D16*
X293000Y157500D03*
X293000Y176500D03*
D17*
X349500Y155000D03*
X330500Y155000D03*
X405500Y159000D03*
X386500Y159000D03*
D22*
X369214Y227066D02*
X308246Y227066D01*
X308246Y281034D01*
X369214Y281034D01*
X369214Y227066D01*
X369214Y234727D02*
X308246Y234727D01*
X308246Y242388D02*
X369214Y242388D01*
X369214Y250049D02*
X308246Y250049D01*
X308246Y257710D02*
X369214Y257710D01*
X369214Y265371D02*
X308246Y265371D01*
X308246Y273032D02*
X369214Y273032D01*
X369214Y280693D02*
X308246Y280693D01*
D23*
X308717Y172837D02*
X323143Y172837D01*
X308717Y172837D02*
X308717Y201263D01*
X323143Y201263D01*
X323143Y172837D01*
X323143Y176263D02*
X308717Y176263D01*
X308717Y179689D02*
X323143Y179689D01*
X323143Y183115D02*
X308717Y183115D01*
X308717Y186541D02*
X323143Y186541D01*
X323143Y189967D02*
X308717Y189967D01*
X308717Y193393D02*
X323143Y193393D01*
X323143Y196819D02*
X308717Y196819D01*
X308717Y200245D02*
X323143Y200245D01*
X354317Y172837D02*
X368743Y172837D01*
X354317Y172837D02*
X354317Y201263D01*
X368743Y201263D01*
X368743Y172837D01*
X368743Y176263D02*
X354317Y176263D01*
X354317Y179689D02*
X368743Y179689D01*
X368743Y183115D02*
X354317Y183115D01*
X354317Y186541D02*
X368743Y186541D01*
X368743Y189967D02*
X354317Y189967D01*
X354317Y193393D02*
X368743Y193393D01*
X368743Y196819D02*
X354317Y196819D01*
X354317Y200245D02*
X368743Y200245D01*
D14*
X523100Y105300D03*
D15*
X446900Y105300D03*
X523100Y130700D03*
X446900Y130700D03*
D16*
X443000Y157500D03*
X443000Y176500D03*
D17*
X499500Y155000D03*
X480500Y155000D03*
X555500Y159000D03*
X536500Y159000D03*
D22*
X519214Y227066D02*
X458246Y227066D01*
X458246Y281034D01*
X519214Y281034D01*
X519214Y227066D01*
X519214Y234727D02*
X458246Y234727D01*
X458246Y242388D02*
X519214Y242388D01*
X519214Y250049D02*
X458246Y250049D01*
X458246Y257710D02*
X519214Y257710D01*
X519214Y265371D02*
X458246Y265371D01*
X458246Y273032D02*
X519214Y273032D01*
X519214Y280693D02*
X458246Y280693D01*
D23*
X458717Y172837D02*
X473143Y172837D01*
X458717Y172837D02*
X458717Y201263D01*
X473143Y201263D01*
X473143Y172837D01*
X473143Y176263D02*
X458717Y176263D01*
X458717Y179689D02*
X473143Y179689D01*
X473143Y183115D02*
X458717Y183115D01*
X458717Y186541D02*
X473143Y186541D01*
X473143Y189967D02*
X458717Y189967D01*
X458717Y193393D02*
X473143Y193393D01*
X473143Y196819D02*
X458717Y196819D01*
X458717Y200245D02*
X473143Y200245D01*
X504317Y172837D02*
X518743Y172837D01*
X504317Y172837D02*
X504317Y201263D01*
X518743Y201263D01*
X518743Y172837D01*
X518743Y176263D02*
X504317Y176263D01*
X504317Y179689D02*
X518743Y179689D01*
X518743Y183115D02*
X504317Y183115D01*
X504317Y186541D02*
X518743Y186541D01*
X518743Y189967D02*
X504317Y189967D01*
X504317Y193393D02*
X518743Y193393D01*
X518743Y196819D02*
X504317Y196819D01*
X504317Y200245D02*
X518743Y200245D01*
D14*
X673100Y105300D03*
D15*
X596900Y105300D03*
X673100Y130700D03*
X596900Y130700D03*
D16*
X593000Y157500D03*
X593000Y176500D03*
D17*
X649500Y155000D03*
X630500Y155000D03*
X705500Y159000D03*
X686500Y159000D03*
D22*
X669214Y227066D02*
X608246Y227066D01*
X608246Y281034D01*
X669214Y281034D01*
X669214Y227066D01*
X669214Y234727D02*
X608246Y234727D01*
X608246Y242388D02*
X669214Y242388D01*
X669214Y250049D02*
X608246Y250049D01*
X608246Y257710D02*
X669214Y257710D01*
X669214Y265371D02*
X608246Y265371D01*
X608246Y273032D02*
X669214Y273032D01*
X669214Y280693D02*
X608246Y280693D01*
D23*
X608717Y172837D02*
X623143Y172837D01*
X608717Y172837D02*
X608717Y201263D01*
X623143Y201263D01*
X623143Y172837D01*
X623143Y176263D02*
X608717Y176263D01*
X608717Y179689D02*
X623143Y179689D01*
X623143Y183115D02*
X608717Y183115D01*
X608717Y186541D02*
X623143Y186541D01*
X623143Y189967D02*
X608717Y189967D01*
X608717Y193393D02*
X623143Y193393D01*
X623143Y196819D02*
X608717Y196819D01*
X608717Y200245D02*
X623143Y200245D01*
X654317Y172837D02*
X668743Y172837D01*
X654317Y172837D02*
X654317Y201263D01*
X668743Y201263D01*
X668743Y172837D01*
X668743Y176263D02*
X654317Y176263D01*
X654317Y179689D02*
X668743Y179689D01*
X668743Y183115D02*
X654317Y183115D01*
X654317Y186541D02*
X668743Y186541D01*
X668743Y189967D02*
X654317Y189967D01*
X654317Y193393D02*
X668743Y193393D01*
X668743Y196819D02*
X654317Y196819D01*
X654317Y200245D02*
X668743Y200245D01*
D14*
X823100Y105300D03*
D15*
X746900Y105300D03*
X823100Y130700D03*
X746900Y130700D03*
D16*
X743000Y157500D03*
X743000Y176500D03*
D17*
X799500Y155000D03*
X780500Y155000D03*
X855500Y159000D03*
X836500Y159000D03*
D22*
X819214Y227066D02*
X758246Y227066D01*
X758246Y281034D01*
X819214Y281034D01*
X819214Y227066D01*
X819214Y234727D02*
X758246Y234727D01*
X758246Y242388D02*
X819214Y242388D01*
X819214Y250049D02*
X758246Y250049D01*
X758246Y257710D02*
X819214Y257710D01*
X819214Y265371D02*
X758246Y265371D01*
X758246Y273032D02*
X819214Y273032D01*
X819214Y280693D02*
X758246Y280693D01*
D23*
X758717Y172837D02*
X773143Y172837D01*
X758717Y172837D02*
X758717Y201263D01*
X773143Y201263D01*
X773143Y172837D01*
X773143Y176263D02*
X758717Y176263D01*
X758717Y179689D02*
X773143Y179689D01*
X773143Y183115D02*
X758717Y183115D01*
X758717Y186541D02*
X773143Y186541D01*
X773143Y189967D02*
X758717Y189967D01*
X758717Y193393D02*
X773143Y193393D01*
X773143Y196819D02*
X758717Y196819D01*
X758717Y200245D02*
X773143Y200245D01*
X804317Y172837D02*
X818743Y172837D01*
X804317Y172837D02*
X804317Y201263D01*
X818743Y201263D01*
X818743Y172837D01*
X818743Y176263D02*
X804317Y176263D01*
X804317Y179689D02*
X818743Y179689D01*
X818743Y183115D02*
X804317Y183115D01*
X804317Y186541D02*
X818743Y186541D01*
X818743Y189967D02*
X804317Y189967D01*
X804317Y193393D02*
X818743Y193393D01*
X818743Y196819D02*
X804317Y196819D01*
X804317Y200245D02*
X818743Y200245D01*
D14*
X403100Y335300D03*
D15*
X326900Y335300D03*
X403100Y360700D03*
X326900Y360700D03*
D16*
X323000Y387500D03*
X323000Y406500D03*
D17*
X379500Y385000D03*
X360500Y385000D03*
D16*
X418000Y403500D03*
X418000Y384500D03*
D22*
X399214Y457066D02*
X338246Y457066D01*
X338246Y511034D01*
X399214Y511034D01*
X399214Y457066D01*
X399214Y464727D02*
X338246Y464727D01*
X338246Y472388D02*
X399214Y472388D01*
X399214Y480049D02*
X338246Y480049D01*
X338246Y487710D02*
X399214Y487710D01*
X399214Y495371D02*
X338246Y495371D01*
X338246Y503032D02*
X399214Y503032D01*
X399214Y510693D02*
X338246Y510693D01*
D23*
X338717Y402837D02*
X353143Y402837D01*
X338717Y402837D02*
X338717Y431263D01*
X353143Y431263D01*
X353143Y402837D01*
X353143Y406263D02*
X338717Y406263D01*
X338717Y409689D02*
X353143Y409689D01*
X353143Y413115D02*
X338717Y413115D01*
X338717Y416541D02*
X353143Y416541D01*
X353143Y419967D02*
X338717Y419967D01*
X338717Y423393D02*
X353143Y423393D01*
X353143Y426819D02*
X338717Y426819D01*
X338717Y430245D02*
X353143Y430245D01*
X384317Y402837D02*
X398743Y402837D01*
X384317Y402837D02*
X384317Y431263D01*
X398743Y431263D01*
X398743Y402837D01*
X398743Y406263D02*
X384317Y406263D01*
X384317Y409689D02*
X398743Y409689D01*
X398743Y413115D02*
X384317Y413115D01*
X384317Y416541D02*
X398743Y416541D01*
X398743Y419967D02*
X384317Y419967D01*
X384317Y423393D02*
X398743Y423393D01*
X398743Y426819D02*
X384317Y426819D01*
X384317Y430245D02*
X398743Y430245D01*
D14*
X543100Y335300D03*
D15*
X466900Y335300D03*
X543100Y360700D03*
X466900Y360700D03*
D16*
X468000Y385500D03*
X468000Y404500D03*
D17*
X519500Y385000D03*
X500500Y385000D03*
X575500Y389000D03*
X556500Y389000D03*
D22*
X539214Y457066D02*
X478246Y457066D01*
X478246Y511034D01*
X539214Y511034D01*
X539214Y457066D01*
X539214Y464727D02*
X478246Y464727D01*
X478246Y472388D02*
X539214Y472388D01*
X539214Y480049D02*
X478246Y480049D01*
X478246Y487710D02*
X539214Y487710D01*
X539214Y495371D02*
X478246Y495371D01*
X478246Y503032D02*
X539214Y503032D01*
X539214Y510693D02*
X478246Y510693D01*
D23*
X478717Y402837D02*
X493143Y402837D01*
X478717Y402837D02*
X478717Y431263D01*
X493143Y431263D01*
X493143Y402837D01*
X493143Y406263D02*
X478717Y406263D01*
X478717Y409689D02*
X493143Y409689D01*
X493143Y413115D02*
X478717Y413115D01*
X478717Y416541D02*
X493143Y416541D01*
X493143Y419967D02*
X478717Y419967D01*
X478717Y423393D02*
X493143Y423393D01*
X493143Y426819D02*
X478717Y426819D01*
X478717Y430245D02*
X493143Y430245D01*
X524317Y402837D02*
X538743Y402837D01*
X524317Y402837D02*
X524317Y431263D01*
X538743Y431263D01*
X538743Y402837D01*
X538743Y406263D02*
X524317Y406263D01*
X524317Y409689D02*
X538743Y409689D01*
X538743Y413115D02*
X524317Y413115D01*
X524317Y416541D02*
X538743Y416541D01*
X538743Y419967D02*
X524317Y419967D01*
X524317Y423393D02*
X538743Y423393D01*
X538743Y426819D02*
X524317Y426819D01*
X524317Y430245D02*
X538743Y430245D01*
D14*
X693100Y335300D03*
D15*
X616900Y335300D03*
X693100Y360700D03*
X616900Y360700D03*
D16*
X613000Y387500D03*
X613000Y406500D03*
D17*
X669500Y385000D03*
X650500Y385000D03*
X725500Y389000D03*
X706500Y389000D03*
D22*
X689214Y457066D02*
X628246Y457066D01*
X628246Y511034D01*
X689214Y511034D01*
X689214Y457066D01*
X689214Y464727D02*
X628246Y464727D01*
X628246Y472388D02*
X689214Y472388D01*
X689214Y480049D02*
X628246Y480049D01*
X628246Y487710D02*
X689214Y487710D01*
X689214Y495371D02*
X628246Y495371D01*
X628246Y503032D02*
X689214Y503032D01*
X689214Y510693D02*
X628246Y510693D01*
D23*
X628717Y402837D02*
X643143Y402837D01*
X628717Y402837D02*
X628717Y431263D01*
X643143Y431263D01*
X643143Y402837D01*
X643143Y406263D02*
X628717Y406263D01*
X628717Y409689D02*
X643143Y409689D01*
X643143Y413115D02*
X628717Y413115D01*
X628717Y416541D02*
X643143Y416541D01*
X643143Y419967D02*
X628717Y419967D01*
X628717Y423393D02*
X643143Y423393D01*
X643143Y426819D02*
X628717Y426819D01*
X628717Y430245D02*
X643143Y430245D01*
X674317Y402837D02*
X688743Y402837D01*
X674317Y402837D02*
X674317Y431263D01*
X688743Y431263D01*
X688743Y402837D01*
X688743Y406263D02*
X674317Y406263D01*
X674317Y409689D02*
X688743Y409689D01*
X688743Y413115D02*
X674317Y413115D01*
X674317Y416541D02*
X688743Y416541D01*
X688743Y419967D02*
X674317Y419967D01*
X674317Y423393D02*
X688743Y423393D01*
X688743Y426819D02*
X674317Y426819D01*
X674317Y430245D02*
X688743Y430245D01*
D14*
X843100Y335300D03*
D15*
X766900Y335300D03*
X843100Y360700D03*
X766900Y360700D03*
D16*
X763000Y387500D03*
X763000Y406500D03*
D17*
X819500Y385000D03*
X800500Y385000D03*
X875500Y389000D03*
X856500Y389000D03*
D22*
X839214Y457066D02*
X778246Y457066D01*
X778246Y511034D01*
X839214Y511034D01*
X839214Y457066D01*
X839214Y464727D02*
X778246Y464727D01*
X778246Y472388D02*
X839214Y472388D01*
X839214Y480049D02*
X778246Y480049D01*
X778246Y487710D02*
X839214Y487710D01*
X839214Y495371D02*
X778246Y495371D01*
X778246Y503032D02*
X839214Y503032D01*
X839214Y510693D02*
X778246Y510693D01*
D23*
X778717Y402837D02*
X793143Y402837D01*
X778717Y402837D02*
X778717Y431263D01*
X793143Y431263D01*
X793143Y402837D01*
X793143Y406263D02*
X778717Y406263D01*
X778717Y409689D02*
X793143Y409689D01*
X793143Y413115D02*
X778717Y413115D01*
X778717Y416541D02*
X793143Y416541D01*
X793143Y419967D02*
X778717Y419967D01*
X778717Y423393D02*
X793143Y423393D01*
X793143Y426819D02*
X778717Y426819D01*
X778717Y430245D02*
X793143Y430245D01*
X824317Y402837D02*
X838743Y402837D01*
X824317Y402837D02*
X824317Y431263D01*
X838743Y431263D01*
X838743Y402837D01*
X838743Y406263D02*
X824317Y406263D01*
X824317Y409689D02*
X838743Y409689D01*
X838743Y413115D02*
X824317Y413115D01*
X824317Y416541D02*
X838743Y416541D01*
X838743Y419967D02*
X824317Y419967D01*
X824317Y423393D02*
X838743Y423393D01*
X838743Y426819D02*
X824317Y426819D01*
X824317Y430245D02*
X838743Y430245D01*
D14*
X523100Y545300D03*
D15*
X446900Y545300D03*
X523100Y570700D03*
X446900Y570700D03*
D16*
X443000Y597500D03*
X443000Y616500D03*
D17*
X499500Y595000D03*
X480500Y595000D03*
D16*
X543000Y618500D03*
X543000Y599500D03*
D22*
X519214Y667066D02*
X458246Y667066D01*
X458246Y721034D01*
X519214Y721034D01*
X519214Y667066D01*
X519214Y674727D02*
X458246Y674727D01*
X458246Y682388D02*
X519214Y682388D01*
X519214Y690049D02*
X458246Y690049D01*
X458246Y697710D02*
X519214Y697710D01*
X519214Y705371D02*
X458246Y705371D01*
X458246Y713032D02*
X519214Y713032D01*
X519214Y720693D02*
X458246Y720693D01*
D23*
X458717Y612837D02*
X473143Y612837D01*
X458717Y612837D02*
X458717Y641263D01*
X473143Y641263D01*
X473143Y612837D01*
X473143Y616263D02*
X458717Y616263D01*
X458717Y619689D02*
X473143Y619689D01*
X473143Y623115D02*
X458717Y623115D01*
X458717Y626541D02*
X473143Y626541D01*
X473143Y629967D02*
X458717Y629967D01*
X458717Y633393D02*
X473143Y633393D01*
X473143Y636819D02*
X458717Y636819D01*
X458717Y640245D02*
X473143Y640245D01*
X504317Y612837D02*
X518743Y612837D01*
X504317Y612837D02*
X504317Y641263D01*
X518743Y641263D01*
X518743Y612837D01*
X518743Y616263D02*
X504317Y616263D01*
X504317Y619689D02*
X518743Y619689D01*
X518743Y623115D02*
X504317Y623115D01*
X504317Y626541D02*
X518743Y626541D01*
X518743Y629967D02*
X504317Y629967D01*
X504317Y633393D02*
X518743Y633393D01*
X518743Y636819D02*
X504317Y636819D01*
X504317Y640245D02*
X518743Y640245D01*
D14*
X673100Y545300D03*
D15*
X596900Y545300D03*
X673100Y570700D03*
X596900Y570700D03*
D16*
X593000Y597500D03*
X593000Y616500D03*
D17*
X649500Y595000D03*
X630500Y595000D03*
X705500Y599000D03*
X686500Y599000D03*
D22*
X669214Y667066D02*
X608246Y667066D01*
X608246Y721034D01*
X669214Y721034D01*
X669214Y667066D01*
X669214Y674727D02*
X608246Y674727D01*
X608246Y682388D02*
X669214Y682388D01*
X669214Y690049D02*
X608246Y690049D01*
X608246Y697710D02*
X669214Y697710D01*
X669214Y705371D02*
X608246Y705371D01*
X608246Y713032D02*
X669214Y713032D01*
X669214Y720693D02*
X608246Y720693D01*
D23*
X608717Y612837D02*
X623143Y612837D01*
X608717Y612837D02*
X608717Y641263D01*
X623143Y641263D01*
X623143Y612837D01*
X623143Y616263D02*
X608717Y616263D01*
X608717Y619689D02*
X623143Y619689D01*
X623143Y623115D02*
X608717Y623115D01*
X608717Y626541D02*
X623143Y626541D01*
X623143Y629967D02*
X608717Y629967D01*
X608717Y633393D02*
X623143Y633393D01*
X623143Y636819D02*
X608717Y636819D01*
X608717Y640245D02*
X623143Y640245D01*
X654317Y612837D02*
X668743Y612837D01*
X654317Y612837D02*
X654317Y641263D01*
X668743Y641263D01*
X668743Y612837D01*
X668743Y616263D02*
X654317Y616263D01*
X654317Y619689D02*
X668743Y619689D01*
X668743Y623115D02*
X654317Y623115D01*
X654317Y626541D02*
X668743Y626541D01*
X668743Y629967D02*
X654317Y629967D01*
X654317Y633393D02*
X668743Y633393D01*
X668743Y636819D02*
X654317Y636819D01*
X654317Y640245D02*
X668743Y640245D01*
D14*
X823100Y545300D03*
D15*
X746900Y545300D03*
X823100Y570700D03*
X746900Y570700D03*
D16*
X743000Y597500D03*
X743000Y616500D03*
D17*
X799500Y595000D03*
X780500Y595000D03*
D16*
X843000Y615500D03*
X843000Y596500D03*
D22*
X819214Y667066D02*
X758246Y667066D01*
X758246Y721034D01*
X819214Y721034D01*
X819214Y667066D01*
X819214Y674727D02*
X758246Y674727D01*
X758246Y682388D02*
X819214Y682388D01*
X819214Y690049D02*
X758246Y690049D01*
X758246Y697710D02*
X819214Y697710D01*
X819214Y705371D02*
X758246Y705371D01*
X758246Y713032D02*
X819214Y713032D01*
X819214Y720693D02*
X758246Y720693D01*
D23*
X758717Y612837D02*
X773143Y612837D01*
X758717Y612837D02*
X758717Y641263D01*
X773143Y641263D01*
X773143Y612837D01*
X773143Y616263D02*
X758717Y616263D01*
X758717Y619689D02*
X773143Y619689D01*
X773143Y623115D02*
X758717Y623115D01*
X758717Y626541D02*
X773143Y626541D01*
X773143Y629967D02*
X758717Y629967D01*
X758717Y633393D02*
X773143Y633393D01*
X773143Y636819D02*
X758717Y636819D01*
X758717Y640245D02*
X773143Y640245D01*
X804317Y612837D02*
X818743Y612837D01*
X804317Y612837D02*
X804317Y641263D01*
X818743Y641263D01*
X818743Y612837D01*
X818743Y616263D02*
X804317Y616263D01*
X804317Y619689D02*
X818743Y619689D01*
X818743Y623115D02*
X804317Y623115D01*
X804317Y626541D02*
X818743Y626541D01*
X818743Y629967D02*
X804317Y629967D01*
X804317Y633393D02*
X818743Y633393D01*
X818743Y636819D02*
X804317Y636819D01*
X804317Y640245D02*
X818743Y640245D01*
D26*
X263000Y403000D03*
D27*
X224920Y400000D03*
X235080Y400000D03*
D28*
X350000Y660000D03*
X270000Y290000D03*
X290000Y370000D03*
X720000Y574000D03*
X732000Y634000D03*
X150000Y340000D03*
X170000Y340000D03*
X130000Y320000D03*
X130000Y300000D03*
X150000Y300000D03*
X170000Y320000D03*
X170000Y300000D03*
X150000Y320000D03*
X242000Y330000D03*
X152697Y417303D03*
X130000Y360000D03*
X390000Y100000D03*
X740000Y280000D03*
X430000Y310000D03*
X230000Y300000D03*
X260000Y490000D03*
X865000Y193000D03*
X560000Y210000D03*
X860000Y224000D03*
X700000Y240000D03*
X785000Y303000D03*
X580000Y470000D03*
X880000Y420000D03*
X710000Y480000D03*
X570000Y520000D03*
X700000Y630000D03*
X290000Y210000D03*
X140000Y240000D03*
X95000Y526000D03*
X400000Y280000D03*
X154530Y463470D03*
X320000Y459116D03*
X710000Y140000D03*
X420000Y76830D03*
X260000Y510000D03*
X400203Y190203D03*
X400189Y290189D03*
X560000Y450000D03*
X400000Y560000D03*
X610000Y501994D03*
X460000Y490000D03*
X340000Y540000D03*
X410000Y570000D03*
X550000Y550000D03*
X830000Y630000D03*
X750000Y646000D03*
X724000Y646000D03*
X370000Y580000D03*
M02*
