G04 EAGLE Gerber RS-274X export*
G75*
%MOMM*%
%FSLAX34Y34*%
%LPD*%
%INSoldermask Bottom*%
%IPPOS*%
%AMOC8*
5,1,8,0,0,1.08239X$1,22.5*%
G01*
%ADD10C,2.453200*%
%ADD11C,3.003200*%
%ADD12R,1.711200X1.711200*%
%ADD13C,1.711200*%
%ADD14R,1.511200X1.511200*%
%ADD15C,1.511200*%
%ADD16C,2.082800*%
%ADD17R,2.303200X2.303200*%
%ADD18C,2.303200*%
%ADD19P,1.869504X8X22.500000*%
%ADD20C,0.959600*%


D10*
X28400Y56400D03*
X28400Y743600D03*
X971600Y743600D03*
X971600Y56400D03*
D11*
X30600Y641800D03*
X30600Y159200D03*
D12*
X56000Y210000D03*
D13*
X56000Y235400D03*
X56000Y260800D03*
X56000Y286200D03*
X56000Y311600D03*
X56000Y337000D03*
X56000Y362400D03*
X56000Y387800D03*
X56000Y413200D03*
X56000Y438600D03*
X56000Y464000D03*
X56000Y489400D03*
X56000Y514800D03*
X56000Y540200D03*
X56000Y565600D03*
X56000Y591000D03*
X81400Y210000D03*
X81400Y235400D03*
X81400Y260800D03*
X81400Y286200D03*
X81400Y311600D03*
X81400Y337000D03*
X81400Y362400D03*
X81400Y387800D03*
X81400Y413200D03*
X81400Y438600D03*
X81400Y464000D03*
X81400Y489400D03*
X81400Y514800D03*
X81400Y540200D03*
X81400Y565600D03*
X81400Y591000D03*
X106800Y210000D03*
X106800Y235400D03*
X106800Y260800D03*
X106800Y286200D03*
X106800Y311600D03*
X106800Y337000D03*
X106800Y362400D03*
X106800Y387800D03*
X106800Y413200D03*
X106800Y438600D03*
X106800Y464000D03*
X106800Y489400D03*
X106800Y514800D03*
X106800Y540200D03*
X106800Y565600D03*
X106800Y591000D03*
D14*
X223100Y105300D03*
D15*
X146900Y105300D03*
X223100Y130700D03*
X146900Y130700D03*
D16*
X142700Y402700D03*
X142700Y428100D03*
X142700Y453500D03*
X142700Y478900D03*
X142700Y504300D03*
X142700Y529700D03*
X142700Y555100D03*
X142700Y580500D03*
X142700Y605900D03*
X142700Y631300D03*
X142700Y656700D03*
X142700Y682100D03*
X295100Y682100D03*
X295100Y656700D03*
X295100Y631300D03*
X295100Y605900D03*
X295100Y580500D03*
X295100Y555100D03*
X295100Y529700D03*
X295100Y504300D03*
X295100Y478900D03*
X295100Y453500D03*
X295100Y428100D03*
X295100Y402700D03*
X265890Y569070D03*
X265890Y594470D03*
D17*
X910000Y647650D03*
D18*
X910000Y609550D03*
X910000Y571450D03*
X910000Y533350D03*
X910000Y495250D03*
X910000Y457150D03*
X910000Y419050D03*
X910000Y380950D03*
X910000Y342850D03*
X910000Y304750D03*
X910000Y266650D03*
X910000Y228550D03*
X910000Y190450D03*
X910000Y152350D03*
D14*
X373100Y105300D03*
D15*
X296900Y105300D03*
X373100Y130700D03*
X296900Y130700D03*
D14*
X523100Y105300D03*
D15*
X446900Y105300D03*
X523100Y130700D03*
X446900Y130700D03*
D14*
X673100Y105300D03*
D15*
X596900Y105300D03*
X673100Y130700D03*
X596900Y130700D03*
D14*
X823100Y105300D03*
D15*
X746900Y105300D03*
X823100Y130700D03*
X746900Y130700D03*
D14*
X403100Y335300D03*
D15*
X326900Y335300D03*
X403100Y360700D03*
X326900Y360700D03*
D14*
X543100Y335300D03*
D15*
X466900Y335300D03*
X543100Y360700D03*
X466900Y360700D03*
D14*
X693100Y335300D03*
D15*
X616900Y335300D03*
X693100Y360700D03*
X616900Y360700D03*
D14*
X843100Y335300D03*
D15*
X766900Y335300D03*
X843100Y360700D03*
X766900Y360700D03*
D14*
X523100Y545300D03*
D15*
X446900Y545300D03*
X523100Y570700D03*
X446900Y570700D03*
D14*
X673100Y545300D03*
D15*
X596900Y545300D03*
X673100Y570700D03*
X596900Y570700D03*
D14*
X823100Y545300D03*
D15*
X746900Y545300D03*
X823100Y570700D03*
X746900Y570700D03*
D19*
X263000Y403000D03*
D20*
X350000Y660000D03*
X270000Y290000D03*
X290000Y370000D03*
X720000Y574000D03*
X732000Y634000D03*
X150000Y340000D03*
X170000Y340000D03*
X130000Y320000D03*
X130000Y300000D03*
X150000Y300000D03*
X170000Y320000D03*
X170000Y300000D03*
X150000Y320000D03*
X152697Y417303D03*
X130000Y360000D03*
X390000Y100000D03*
X740000Y280000D03*
X430000Y310000D03*
X230000Y300000D03*
X260000Y490000D03*
X865000Y193000D03*
X560000Y210000D03*
X860000Y224000D03*
X700000Y240000D03*
X785000Y303000D03*
X580000Y470000D03*
X880000Y420000D03*
X710000Y480000D03*
X570000Y520000D03*
X700000Y630000D03*
X290000Y210000D03*
X140000Y240000D03*
X95000Y526000D03*
X400000Y280000D03*
X154530Y463470D03*
X320000Y459116D03*
X710000Y140000D03*
X420000Y76830D03*
X260000Y510000D03*
X400203Y190203D03*
X400189Y290189D03*
X560000Y450000D03*
X400000Y560000D03*
X620000Y501994D03*
X460000Y490000D03*
X340000Y540000D03*
X410000Y570000D03*
X550000Y550000D03*
X830000Y630000D03*
X750000Y646000D03*
X724000Y646000D03*
X370000Y580000D03*
M02*
