G04 EAGLE Gerber RS-274X export*
G75*
%MOMM*%
%FSLAX34Y34*%
%LPD*%
%INSoldermask Bottom*%
%IPPOS*%
%AMOC8*
5,1,8,0,0,1.08239X$1,22.5*%
G01*
%ADD10C,2.453200*%
%ADD11C,1.003200*%
%ADD12C,3.003200*%
%ADD13R,1.711200X1.711200*%
%ADD14C,1.711200*%
%ADD15C,1.727200*%
%ADD16R,2.303200X2.303200*%
%ADD17C,2.303200*%
%ADD18C,0.959600*%


D10*
X28400Y56400D03*
X28400Y743600D03*
X971600Y743600D03*
X971600Y56400D03*
D11*
X252700Y139800D03*
X252700Y139800D03*
X278100Y139800D03*
X303500Y139800D03*
X328900Y139800D03*
X354300Y139800D03*
X379700Y139800D03*
X405100Y139800D03*
X430500Y139800D03*
X455900Y139800D03*
X481300Y139800D03*
X506700Y139800D03*
X532100Y139800D03*
X557500Y139800D03*
X582900Y139800D03*
X608300Y139800D03*
X633700Y139800D03*
X659100Y139800D03*
X684500Y139800D03*
X709900Y139800D03*
X735300Y139800D03*
X760700Y139800D03*
X786100Y139800D03*
X786100Y139800D03*
X811500Y139800D03*
X836900Y139800D03*
X862300Y139800D03*
X252700Y165200D03*
X252700Y165200D03*
X278100Y165200D03*
X303500Y165200D03*
X328900Y165200D03*
X354300Y165200D03*
X379700Y165200D03*
X405100Y165200D03*
X430500Y165200D03*
X455900Y165200D03*
X481300Y165200D03*
X506700Y165200D03*
X532100Y165200D03*
X557500Y165200D03*
X582900Y165200D03*
X608300Y165200D03*
X633700Y165200D03*
X659100Y165200D03*
X684500Y165200D03*
X709900Y165200D03*
X735300Y165200D03*
X760700Y165200D03*
X786100Y165200D03*
X786100Y165200D03*
X811500Y165200D03*
X836900Y165200D03*
X862300Y165200D03*
X252700Y190600D03*
X252700Y190600D03*
X278100Y190600D03*
X303500Y190600D03*
X328900Y190600D03*
X354300Y190600D03*
X379700Y190600D03*
X405100Y190600D03*
X430500Y190600D03*
X455900Y190600D03*
X481300Y190600D03*
X506700Y190600D03*
X532100Y190600D03*
X557500Y190600D03*
X582900Y190600D03*
X608300Y190600D03*
X633700Y190600D03*
X659100Y190600D03*
X684500Y190600D03*
X709900Y190600D03*
X735300Y190600D03*
X760700Y190600D03*
X786100Y190600D03*
X786100Y190600D03*
X811500Y190600D03*
X836900Y190600D03*
X862300Y190600D03*
X252700Y216000D03*
X252700Y216000D03*
X278100Y216000D03*
X303500Y216000D03*
X328900Y216000D03*
X354300Y216000D03*
X379700Y216000D03*
X405100Y216000D03*
X430500Y216000D03*
X455900Y216000D03*
X481300Y216000D03*
X506700Y216000D03*
X532100Y216000D03*
X557500Y216000D03*
X582900Y216000D03*
X608300Y216000D03*
X633700Y216000D03*
X659100Y216000D03*
X684500Y216000D03*
X709900Y216000D03*
X735300Y216000D03*
X760700Y216000D03*
X786100Y216000D03*
X786100Y216000D03*
X811500Y216000D03*
X836900Y216000D03*
X862300Y216000D03*
X252700Y241400D03*
X252700Y241400D03*
X278100Y241400D03*
X303500Y241400D03*
X328900Y241400D03*
X354300Y241400D03*
X379700Y241400D03*
X405100Y241400D03*
X430500Y241400D03*
X455900Y241400D03*
X481300Y241400D03*
X506700Y241400D03*
X532100Y241400D03*
X557500Y241400D03*
X582900Y241400D03*
X608300Y241400D03*
X633700Y241400D03*
X659100Y241400D03*
X684500Y241400D03*
X709900Y241400D03*
X735300Y241400D03*
X760700Y241400D03*
X786100Y241400D03*
X786100Y241400D03*
X811500Y241400D03*
X836900Y241400D03*
X862300Y241400D03*
X252700Y266800D03*
X252700Y266800D03*
X278100Y266800D03*
X303500Y266800D03*
X328900Y266800D03*
X354300Y266800D03*
X379700Y266800D03*
X405100Y266800D03*
X430500Y266800D03*
X455900Y266800D03*
X481300Y266800D03*
X506700Y266800D03*
X532100Y266800D03*
X557500Y266800D03*
X582900Y266800D03*
X608300Y266800D03*
X633700Y266800D03*
X659100Y266800D03*
X684500Y266800D03*
X709900Y266800D03*
X735300Y266800D03*
X760700Y266800D03*
X786100Y266800D03*
X786100Y266800D03*
X811500Y266800D03*
X836900Y266800D03*
X862300Y266800D03*
X252700Y292200D03*
X252700Y292200D03*
X278100Y292200D03*
X303500Y292200D03*
X328900Y292200D03*
X354300Y292200D03*
X379700Y292200D03*
X405100Y292200D03*
X430500Y292200D03*
X455900Y292200D03*
X481300Y292200D03*
X506700Y292200D03*
X532100Y292200D03*
X557500Y292200D03*
X582900Y292200D03*
X608300Y292200D03*
X633700Y292200D03*
X659100Y292200D03*
X684500Y292200D03*
X709900Y292200D03*
X735300Y292200D03*
X760700Y292200D03*
X786100Y292200D03*
X786100Y292200D03*
X811500Y292200D03*
X836900Y292200D03*
X862300Y292200D03*
X252700Y317600D03*
X252700Y317600D03*
X278100Y317600D03*
X303500Y317600D03*
X328900Y317600D03*
X354300Y317600D03*
X379700Y317600D03*
X405100Y317600D03*
X430500Y317600D03*
X455900Y317600D03*
X481300Y317600D03*
X506700Y317600D03*
X532100Y317600D03*
X557500Y317600D03*
X582900Y317600D03*
X608300Y317600D03*
X633700Y317600D03*
X659100Y317600D03*
X684500Y317600D03*
X709900Y317600D03*
X735300Y317600D03*
X760700Y317600D03*
X786100Y317600D03*
X786100Y317600D03*
X811500Y317600D03*
X836900Y317600D03*
X862300Y317600D03*
X252700Y343000D03*
X252700Y343000D03*
X278100Y343000D03*
X303500Y343000D03*
X328900Y343000D03*
X354300Y343000D03*
X379700Y343000D03*
X405100Y343000D03*
X430500Y343000D03*
X455900Y343000D03*
X481300Y343000D03*
X506700Y343000D03*
X532100Y343000D03*
X557500Y343000D03*
X582900Y343000D03*
X608300Y343000D03*
X633700Y343000D03*
X659100Y343000D03*
X684500Y343000D03*
X709900Y343000D03*
X735300Y343000D03*
X760700Y343000D03*
X786100Y343000D03*
X786100Y343000D03*
X811500Y343000D03*
X836900Y343000D03*
X862300Y343000D03*
X252700Y368400D03*
X252700Y368400D03*
X278100Y368400D03*
X303500Y368400D03*
X328900Y368400D03*
X354300Y368400D03*
X379700Y368400D03*
X405100Y368400D03*
X430500Y368400D03*
X455900Y368400D03*
X481300Y368400D03*
X506700Y368400D03*
X532100Y368400D03*
X557500Y368400D03*
X582900Y368400D03*
X608300Y368400D03*
X633700Y368400D03*
X659100Y368400D03*
X684500Y368400D03*
X709900Y368400D03*
X735300Y368400D03*
X760700Y368400D03*
X786100Y368400D03*
X786100Y368400D03*
X811500Y368400D03*
X836900Y368400D03*
X862300Y368400D03*
X252700Y393800D03*
X252700Y393800D03*
X278100Y393800D03*
X303500Y393800D03*
X328900Y393800D03*
X354300Y393800D03*
X379700Y393800D03*
X405100Y393800D03*
X430500Y393800D03*
X455900Y393800D03*
X481300Y393800D03*
X506700Y393800D03*
X532100Y393800D03*
X557500Y393800D03*
X582900Y393800D03*
X608300Y393800D03*
X633700Y393800D03*
X659100Y393800D03*
X684500Y393800D03*
X709900Y393800D03*
X735300Y393800D03*
X760700Y393800D03*
X786100Y393800D03*
X786100Y393800D03*
X811500Y393800D03*
X836900Y393800D03*
X862300Y393800D03*
X252700Y419200D03*
X252700Y419200D03*
X278100Y419200D03*
X303500Y419200D03*
X328900Y419200D03*
X354300Y419200D03*
X379700Y419200D03*
X405100Y419200D03*
X430500Y419200D03*
X455900Y419200D03*
X481300Y419200D03*
X506700Y419200D03*
X532100Y419200D03*
X557500Y419200D03*
X582900Y419200D03*
X608300Y419200D03*
X633700Y419200D03*
X659100Y419200D03*
X684500Y419200D03*
X709900Y419200D03*
X735300Y419200D03*
X760700Y419200D03*
X786100Y419200D03*
X786100Y419200D03*
X811500Y419200D03*
X836900Y419200D03*
X862300Y419200D03*
X252700Y444600D03*
X252700Y444600D03*
X278100Y444600D03*
X303500Y444600D03*
X328900Y444600D03*
X354300Y444600D03*
X379700Y444600D03*
X405100Y444600D03*
X430500Y444600D03*
X455900Y444600D03*
X481300Y444600D03*
X506700Y444600D03*
X532100Y444600D03*
X557500Y444600D03*
X582900Y444600D03*
X608300Y444600D03*
X633700Y444600D03*
X659100Y444600D03*
X684500Y444600D03*
X709900Y444600D03*
X735300Y444600D03*
X760700Y444600D03*
X786100Y444600D03*
X786100Y444600D03*
X811500Y444600D03*
X836900Y444600D03*
X862300Y444600D03*
X252700Y470000D03*
X252700Y470000D03*
X278100Y470000D03*
X303500Y470000D03*
X328900Y470000D03*
X354300Y470000D03*
X379700Y470000D03*
X405100Y470000D03*
X430500Y470000D03*
X455900Y470000D03*
X481300Y470000D03*
X506700Y470000D03*
X532100Y470000D03*
X557500Y470000D03*
X582900Y470000D03*
X608300Y470000D03*
X633700Y470000D03*
X659100Y470000D03*
X684500Y470000D03*
X709900Y470000D03*
X735300Y470000D03*
X760700Y470000D03*
X786100Y470000D03*
X786100Y470000D03*
X811500Y470000D03*
X836900Y470000D03*
X862300Y470000D03*
X252700Y495400D03*
X252700Y495400D03*
X278100Y495400D03*
X303500Y495400D03*
X328900Y495400D03*
X354300Y495400D03*
X379700Y495400D03*
X405100Y495400D03*
X430500Y495400D03*
X455900Y495400D03*
X481300Y495400D03*
X506700Y495400D03*
X532100Y495400D03*
X557500Y495400D03*
X582900Y495400D03*
X608300Y495400D03*
X633700Y495400D03*
X659100Y495400D03*
X684500Y495400D03*
X709900Y495400D03*
X735300Y495400D03*
X760700Y495400D03*
X786100Y495400D03*
X786100Y495400D03*
X811500Y495400D03*
X836900Y495400D03*
X862300Y495400D03*
X252700Y520800D03*
X252700Y520800D03*
X278100Y520800D03*
X303500Y520800D03*
X328900Y520800D03*
X354300Y520800D03*
X379700Y520800D03*
X405100Y520800D03*
X430500Y520800D03*
X455900Y520800D03*
X481300Y520800D03*
X506700Y520800D03*
X532100Y520800D03*
X557500Y520800D03*
X582900Y520800D03*
X608300Y520800D03*
X633700Y520800D03*
X659100Y520800D03*
X684500Y520800D03*
X709900Y520800D03*
X735300Y520800D03*
X760700Y520800D03*
X786100Y520800D03*
X786100Y520800D03*
X811500Y520800D03*
X836900Y520800D03*
X862300Y520800D03*
X252700Y546200D03*
X252700Y546200D03*
X278100Y546200D03*
X303500Y546200D03*
X328900Y546200D03*
X354300Y546200D03*
X379700Y546200D03*
X405100Y546200D03*
X430500Y546200D03*
X455900Y546200D03*
X481300Y546200D03*
X506700Y546200D03*
X532100Y546200D03*
X557500Y546200D03*
X582900Y546200D03*
X608300Y546200D03*
X633700Y546200D03*
X659100Y546200D03*
X684500Y546200D03*
X709900Y546200D03*
X735300Y546200D03*
X760700Y546200D03*
X786100Y546200D03*
X786100Y546200D03*
X811500Y546200D03*
X836900Y546200D03*
X862300Y546200D03*
X252700Y571600D03*
X252700Y571600D03*
X278100Y571600D03*
X303500Y571600D03*
X328900Y571600D03*
X354300Y571600D03*
X379700Y571600D03*
X405100Y571600D03*
X430500Y571600D03*
X455900Y571600D03*
X481300Y571600D03*
X506700Y571600D03*
X532100Y571600D03*
X557500Y571600D03*
X582900Y571600D03*
X608300Y571600D03*
X633700Y571600D03*
X659100Y571600D03*
X684500Y571600D03*
X709900Y571600D03*
X735300Y571600D03*
X760700Y571600D03*
X786100Y571600D03*
X786100Y571600D03*
X811500Y571600D03*
X836900Y571600D03*
X862300Y571600D03*
X252700Y597000D03*
X252700Y597000D03*
X278100Y597000D03*
X303500Y597000D03*
X328900Y597000D03*
X354300Y597000D03*
X379700Y597000D03*
X405100Y597000D03*
X430500Y597000D03*
X455900Y597000D03*
X481300Y597000D03*
X506700Y597000D03*
X532100Y597000D03*
X557500Y597000D03*
X582900Y597000D03*
X608300Y597000D03*
X633700Y597000D03*
X659100Y597000D03*
X684500Y597000D03*
X709900Y597000D03*
X735300Y597000D03*
X760700Y597000D03*
X786100Y597000D03*
X786100Y597000D03*
X811500Y597000D03*
X836900Y597000D03*
X862300Y597000D03*
X252700Y622400D03*
X252700Y622400D03*
X278100Y622400D03*
X303500Y622400D03*
X328900Y622400D03*
X354300Y622400D03*
X379700Y622400D03*
X405100Y622400D03*
X430500Y622400D03*
X455900Y622400D03*
X481300Y622400D03*
X506700Y622400D03*
X532100Y622400D03*
X557500Y622400D03*
X582900Y622400D03*
X608300Y622400D03*
X633700Y622400D03*
X659100Y622400D03*
X684500Y622400D03*
X709900Y622400D03*
X735300Y622400D03*
X760700Y622400D03*
X786100Y622400D03*
X786100Y622400D03*
X811500Y622400D03*
X836900Y622400D03*
X862300Y622400D03*
X252700Y647800D03*
X252700Y647800D03*
X278100Y647800D03*
X303500Y647800D03*
X328900Y647800D03*
X354300Y647800D03*
X379700Y647800D03*
X405100Y647800D03*
X430500Y647800D03*
X455900Y647800D03*
X481300Y647800D03*
X506700Y647800D03*
X532100Y647800D03*
X557500Y647800D03*
X582900Y647800D03*
X608300Y647800D03*
X633700Y647800D03*
X659100Y647800D03*
X684500Y647800D03*
X709900Y647800D03*
X735300Y647800D03*
X760700Y647800D03*
X786100Y647800D03*
X786100Y647800D03*
X811500Y647800D03*
X836900Y647800D03*
X862300Y647800D03*
X252700Y673200D03*
X252700Y673200D03*
X278100Y673200D03*
X303500Y673200D03*
X328900Y673200D03*
X354300Y673200D03*
X379700Y673200D03*
X405100Y673200D03*
X430500Y673200D03*
X455900Y673200D03*
X481300Y673200D03*
X506700Y673200D03*
X532100Y673200D03*
X557500Y673200D03*
X582900Y673200D03*
X608300Y673200D03*
X633700Y673200D03*
X659100Y673200D03*
X684500Y673200D03*
X709900Y673200D03*
X735300Y673200D03*
X760700Y673200D03*
X786100Y673200D03*
X786100Y673200D03*
X811500Y673200D03*
X836900Y673200D03*
X862300Y673200D03*
D12*
X30600Y641800D03*
X30600Y159200D03*
D13*
X56000Y210000D03*
D14*
X56000Y235400D03*
X56000Y260800D03*
X56000Y286200D03*
X56000Y311600D03*
X56000Y337000D03*
X56000Y362400D03*
X56000Y387800D03*
X56000Y413200D03*
X56000Y438600D03*
X56000Y464000D03*
X56000Y489400D03*
X56000Y514800D03*
X56000Y540200D03*
X56000Y565600D03*
X56000Y591000D03*
X81400Y210000D03*
X81400Y235400D03*
X81400Y260800D03*
X81400Y286200D03*
X81400Y311600D03*
X81400Y337000D03*
X81400Y362400D03*
X81400Y387800D03*
X81400Y413200D03*
X81400Y438600D03*
X81400Y464000D03*
X81400Y489400D03*
X81400Y514800D03*
X81400Y540200D03*
X81400Y565600D03*
X81400Y591000D03*
X106800Y210000D03*
X106800Y235400D03*
X106800Y260800D03*
X106800Y286200D03*
X106800Y311600D03*
X106800Y337000D03*
X106800Y362400D03*
X106800Y387800D03*
X106800Y413200D03*
X106800Y438600D03*
X106800Y464000D03*
X106800Y489400D03*
X106800Y514800D03*
X106800Y540200D03*
X106800Y565600D03*
X106800Y591000D03*
D15*
X202380Y168700D02*
X217620Y168700D01*
X217620Y194100D02*
X202380Y194100D01*
X202380Y219500D02*
X217620Y219500D01*
X217620Y244900D02*
X202380Y244900D01*
X202380Y270300D02*
X217620Y270300D01*
X217620Y295700D02*
X202380Y295700D01*
X202380Y321100D02*
X217620Y321100D01*
X217620Y346500D02*
X202380Y346500D01*
X202380Y371900D02*
X217620Y371900D01*
X217620Y397300D02*
X202380Y397300D01*
X202380Y422700D02*
X217620Y422700D01*
X217620Y448100D02*
X202380Y448100D01*
X202380Y473500D02*
X217620Y473500D01*
X217620Y498900D02*
X202380Y498900D01*
X202380Y524300D02*
X217620Y524300D01*
X217620Y549700D02*
X202380Y549700D01*
X202380Y575100D02*
X217620Y575100D01*
X217620Y600500D02*
X202380Y600500D01*
X202380Y625900D02*
X217620Y625900D01*
X217620Y651300D02*
X202380Y651300D01*
X181700Y107620D02*
X181700Y92380D01*
X207100Y92380D02*
X207100Y107620D01*
X232500Y107620D02*
X232500Y92380D01*
X257900Y92380D02*
X257900Y107620D01*
X283300Y107620D02*
X283300Y92380D01*
X308700Y92380D02*
X308700Y107620D01*
X334100Y107620D02*
X334100Y92380D01*
X359500Y92380D02*
X359500Y107620D01*
X384900Y107620D02*
X384900Y92380D01*
X410300Y92380D02*
X410300Y107620D01*
X435700Y107620D02*
X435700Y92380D01*
X461100Y92380D02*
X461100Y107620D01*
X486500Y107620D02*
X486500Y92380D01*
X511900Y92380D02*
X511900Y107620D01*
X537300Y107620D02*
X537300Y92380D01*
X562700Y92380D02*
X562700Y107620D01*
X588100Y107620D02*
X588100Y92380D01*
X613500Y92380D02*
X613500Y107620D01*
X638900Y107620D02*
X638900Y92380D01*
X664300Y92380D02*
X664300Y107620D01*
X689700Y107620D02*
X689700Y92380D01*
X715100Y92380D02*
X715100Y107620D01*
X740500Y107620D02*
X740500Y92380D01*
X765900Y92380D02*
X765900Y107620D01*
X791300Y107620D02*
X791300Y92380D01*
X816700Y92380D02*
X816700Y107620D01*
X842100Y107620D02*
X842100Y92380D01*
X867500Y92380D02*
X867500Y107620D01*
X892900Y107620D02*
X892900Y92380D01*
X918300Y92380D02*
X918300Y107620D01*
X161700Y732380D02*
X161700Y747620D01*
X187100Y747620D02*
X187100Y732380D01*
X212500Y732380D02*
X212500Y747620D01*
X237900Y747620D02*
X237900Y732380D01*
X263300Y732380D02*
X263300Y747620D01*
X288700Y747620D02*
X288700Y732380D01*
X314100Y732380D02*
X314100Y747620D01*
X339500Y747620D02*
X339500Y732380D01*
X364900Y732380D02*
X364900Y747620D01*
X390300Y747620D02*
X390300Y732380D01*
X415700Y732380D02*
X415700Y747620D01*
X441100Y747620D02*
X441100Y732380D01*
X466500Y732380D02*
X466500Y747620D01*
X491900Y747620D02*
X491900Y732380D01*
X517300Y732380D02*
X517300Y747620D01*
X542700Y747620D02*
X542700Y732380D01*
X568100Y732380D02*
X568100Y747620D01*
X593500Y747620D02*
X593500Y732380D01*
X618900Y732380D02*
X618900Y747620D01*
X644300Y747620D02*
X644300Y732380D01*
X669700Y732380D02*
X669700Y747620D01*
X695100Y747620D02*
X695100Y732380D01*
X720500Y732380D02*
X720500Y747620D01*
X745900Y747620D02*
X745900Y732380D01*
X771300Y732380D02*
X771300Y747620D01*
X796700Y747620D02*
X796700Y732380D01*
X822100Y732380D02*
X822100Y747620D01*
X847500Y747620D02*
X847500Y732380D01*
X872900Y732380D02*
X872900Y747620D01*
X898300Y747620D02*
X898300Y732380D01*
X161700Y707620D02*
X161700Y692380D01*
X187100Y692380D02*
X187100Y707620D01*
X212500Y707620D02*
X212500Y692380D01*
X237900Y692380D02*
X237900Y707620D01*
X263300Y707620D02*
X263300Y692380D01*
X288700Y692380D02*
X288700Y707620D01*
X314100Y707620D02*
X314100Y692380D01*
X339500Y692380D02*
X339500Y707620D01*
X364900Y707620D02*
X364900Y692380D01*
X390300Y692380D02*
X390300Y707620D01*
X415700Y707620D02*
X415700Y692380D01*
X441100Y692380D02*
X441100Y707620D01*
X466500Y707620D02*
X466500Y692380D01*
X491900Y692380D02*
X491900Y707620D01*
X517300Y707620D02*
X517300Y692380D01*
X542700Y692380D02*
X542700Y707620D01*
X568100Y707620D02*
X568100Y692380D01*
X593500Y692380D02*
X593500Y707620D01*
X618900Y707620D02*
X618900Y692380D01*
X644300Y692380D02*
X644300Y707620D01*
X669700Y707620D02*
X669700Y692380D01*
X695100Y692380D02*
X695100Y707620D01*
X720500Y707620D02*
X720500Y692380D01*
X745900Y692380D02*
X745900Y707620D01*
X771300Y707620D02*
X771300Y692380D01*
X796700Y692380D02*
X796700Y707620D01*
X822100Y707620D02*
X822100Y692380D01*
X847500Y692380D02*
X847500Y707620D01*
X872900Y707620D02*
X872900Y692380D01*
X898300Y692380D02*
X898300Y707620D01*
X181700Y67620D02*
X181700Y52380D01*
X207100Y52380D02*
X207100Y67620D01*
X232500Y67620D02*
X232500Y52380D01*
X257900Y52380D02*
X257900Y67620D01*
X283300Y67620D02*
X283300Y52380D01*
X308700Y52380D02*
X308700Y67620D01*
X334100Y67620D02*
X334100Y52380D01*
X359500Y52380D02*
X359500Y67620D01*
X384900Y67620D02*
X384900Y52380D01*
X410300Y52380D02*
X410300Y67620D01*
X435700Y67620D02*
X435700Y52380D01*
X461100Y52380D02*
X461100Y67620D01*
X486500Y67620D02*
X486500Y52380D01*
X511900Y52380D02*
X511900Y67620D01*
X537300Y67620D02*
X537300Y52380D01*
X562700Y52380D02*
X562700Y67620D01*
X588100Y67620D02*
X588100Y52380D01*
X613500Y52380D02*
X613500Y67620D01*
X638900Y67620D02*
X638900Y52380D01*
X664300Y52380D02*
X664300Y67620D01*
X689700Y67620D02*
X689700Y52380D01*
X715100Y52380D02*
X715100Y67620D01*
X740500Y67620D02*
X740500Y52380D01*
X765900Y52380D02*
X765900Y67620D01*
X791300Y67620D02*
X791300Y52380D01*
X816700Y52380D02*
X816700Y67620D01*
X842100Y67620D02*
X842100Y52380D01*
X867500Y52380D02*
X867500Y67620D01*
X892900Y67620D02*
X892900Y52380D01*
X918300Y52380D02*
X918300Y67620D01*
D16*
X910000Y647650D03*
D17*
X910000Y609550D03*
X910000Y571450D03*
X910000Y533350D03*
X910000Y495250D03*
X910000Y457150D03*
X910000Y419050D03*
X910000Y380950D03*
X910000Y342850D03*
X910000Y304750D03*
X910000Y266650D03*
X910000Y228550D03*
X910000Y190450D03*
X910000Y152350D03*
D18*
X149350Y590650D03*
X69417Y559417D03*
X120000Y550000D03*
X99417Y529417D03*
X154000Y536000D03*
X30000Y370000D03*
X40000Y360000D03*
X68700Y356933D03*
X124000Y334000D03*
X130000Y380000D03*
X96000Y379000D03*
M02*
