G04 EAGLE Gerber RS-274X export*
G75*
%MOMM*%
%FSLAX34Y34*%
%LPD*%
%INTop Copper*%
%IPPOS*%
%AMOC8*
5,1,8,0,0,1.08239X$1,22.5*%
G01*
%ADD10R,1.508000X1.508000*%
%ADD11C,1.508000*%
%ADD12C,1.800000*%
%ADD13C,1.879600*%
%ADD14R,2.100000X2.100000*%
%ADD15C,2.100000*%
%ADD16P,1.649562X8X22.500000*%
%ADD17C,0.203200*%
%ADD18R,0.635000X1.270000*%
%ADD19C,1.524000*%
%ADD20C,0.756400*%
%ADD21C,1.500000*%
%ADD22C,0.508000*%
%ADD23C,1.800000*%

G36*
X989098Y10164D02*
X989098Y10164D01*
X989117Y10162D01*
X989219Y10184D01*
X989321Y10200D01*
X989338Y10210D01*
X989358Y10214D01*
X989447Y10267D01*
X989538Y10316D01*
X989552Y10330D01*
X989569Y10340D01*
X989636Y10419D01*
X989708Y10494D01*
X989716Y10512D01*
X989729Y10527D01*
X989768Y10623D01*
X989811Y10717D01*
X989813Y10737D01*
X989821Y10755D01*
X989839Y10922D01*
X989839Y42522D01*
X989828Y42593D01*
X989826Y42665D01*
X989808Y42714D01*
X989800Y42765D01*
X989766Y42828D01*
X989741Y42896D01*
X989709Y42936D01*
X989684Y42982D01*
X989632Y43032D01*
X989588Y43088D01*
X989544Y43116D01*
X989506Y43152D01*
X989441Y43182D01*
X989381Y43221D01*
X989330Y43233D01*
X989283Y43255D01*
X989212Y43263D01*
X989142Y43281D01*
X989090Y43277D01*
X989039Y43282D01*
X988968Y43267D01*
X988897Y43262D01*
X988849Y43241D01*
X988798Y43230D01*
X988737Y43193D01*
X988671Y43165D01*
X988615Y43120D01*
X988587Y43104D01*
X988572Y43086D01*
X988540Y43060D01*
X983728Y38249D01*
X975859Y34989D01*
X967341Y34989D01*
X959472Y38249D01*
X953449Y44272D01*
X950189Y52141D01*
X950189Y60659D01*
X953449Y68528D01*
X959472Y74551D01*
X967341Y77811D01*
X975859Y77811D01*
X983728Y74551D01*
X988540Y69740D01*
X988598Y69698D01*
X988650Y69648D01*
X988697Y69626D01*
X988739Y69596D01*
X988808Y69575D01*
X988873Y69545D01*
X988925Y69539D01*
X988975Y69524D01*
X989046Y69526D01*
X989117Y69518D01*
X989168Y69529D01*
X989220Y69530D01*
X989288Y69555D01*
X989358Y69570D01*
X989403Y69597D01*
X989451Y69615D01*
X989507Y69659D01*
X989569Y69696D01*
X989603Y69736D01*
X989643Y69768D01*
X989682Y69829D01*
X989729Y69883D01*
X989748Y69931D01*
X989776Y69975D01*
X989794Y70045D01*
X989821Y70111D01*
X989829Y70183D01*
X989837Y70214D01*
X989835Y70237D01*
X989839Y70278D01*
X989839Y729722D01*
X989828Y729793D01*
X989826Y729865D01*
X989808Y729914D01*
X989800Y729965D01*
X989766Y730028D01*
X989741Y730096D01*
X989709Y730136D01*
X989684Y730182D01*
X989632Y730232D01*
X989588Y730288D01*
X989544Y730316D01*
X989506Y730352D01*
X989441Y730382D01*
X989381Y730421D01*
X989330Y730433D01*
X989283Y730455D01*
X989212Y730463D01*
X989142Y730481D01*
X989090Y730477D01*
X989039Y730482D01*
X988968Y730467D01*
X988897Y730462D01*
X988849Y730441D01*
X988798Y730430D01*
X988737Y730393D01*
X988671Y730365D01*
X988615Y730320D01*
X988587Y730304D01*
X988572Y730286D01*
X988540Y730260D01*
X983728Y725449D01*
X975859Y722189D01*
X967341Y722189D01*
X959472Y725449D01*
X953449Y731472D01*
X950189Y739341D01*
X950189Y747859D01*
X953449Y755728D01*
X959472Y761751D01*
X967341Y765011D01*
X975859Y765011D01*
X983728Y761751D01*
X988540Y756940D01*
X988598Y756898D01*
X988650Y756848D01*
X988697Y756826D01*
X988739Y756796D01*
X988808Y756775D01*
X988873Y756745D01*
X988925Y756739D01*
X988975Y756724D01*
X989046Y756726D01*
X989117Y756718D01*
X989168Y756729D01*
X989220Y756730D01*
X989288Y756755D01*
X989358Y756770D01*
X989403Y756797D01*
X989451Y756815D01*
X989507Y756859D01*
X989569Y756896D01*
X989603Y756936D01*
X989643Y756968D01*
X989682Y757029D01*
X989729Y757083D01*
X989748Y757131D01*
X989776Y757175D01*
X989794Y757245D01*
X989821Y757311D01*
X989829Y757383D01*
X989837Y757414D01*
X989835Y757437D01*
X989839Y757478D01*
X989839Y789078D01*
X989836Y789098D01*
X989838Y789117D01*
X989816Y789219D01*
X989800Y789321D01*
X989790Y789338D01*
X989786Y789358D01*
X989733Y789447D01*
X989684Y789538D01*
X989670Y789552D01*
X989660Y789569D01*
X989581Y789636D01*
X989506Y789708D01*
X989488Y789716D01*
X989473Y789729D01*
X989377Y789768D01*
X989283Y789811D01*
X989263Y789813D01*
X989245Y789821D01*
X989078Y789839D01*
X10922Y789839D01*
X10902Y789836D01*
X10883Y789838D01*
X10781Y789816D01*
X10679Y789800D01*
X10662Y789790D01*
X10642Y789786D01*
X10553Y789733D01*
X10462Y789684D01*
X10448Y789670D01*
X10431Y789660D01*
X10364Y789581D01*
X10292Y789506D01*
X10284Y789488D01*
X10271Y789473D01*
X10232Y789377D01*
X10189Y789283D01*
X10187Y789263D01*
X10179Y789245D01*
X10161Y789078D01*
X10161Y757478D01*
X10172Y757407D01*
X10174Y757335D01*
X10192Y757286D01*
X10200Y757235D01*
X10234Y757172D01*
X10259Y757104D01*
X10291Y757064D01*
X10316Y757018D01*
X10368Y756968D01*
X10412Y756912D01*
X10456Y756884D01*
X10494Y756848D01*
X10559Y756818D01*
X10619Y756779D01*
X10670Y756767D01*
X10717Y756745D01*
X10788Y756737D01*
X10858Y756719D01*
X10910Y756723D01*
X10961Y756718D01*
X11032Y756733D01*
X11103Y756738D01*
X11151Y756759D01*
X11202Y756770D01*
X11263Y756807D01*
X11329Y756835D01*
X11385Y756880D01*
X11413Y756896D01*
X11428Y756914D01*
X11460Y756940D01*
X16272Y761751D01*
X24141Y765011D01*
X32659Y765011D01*
X40528Y761751D01*
X46551Y755728D01*
X49811Y747859D01*
X49811Y739341D01*
X46551Y731472D01*
X40528Y725449D01*
X32659Y722189D01*
X24141Y722189D01*
X16272Y725449D01*
X11460Y730260D01*
X11402Y730302D01*
X11350Y730352D01*
X11303Y730374D01*
X11261Y730404D01*
X11192Y730425D01*
X11127Y730455D01*
X11075Y730461D01*
X11025Y730476D01*
X10954Y730474D01*
X10883Y730482D01*
X10832Y730471D01*
X10780Y730470D01*
X10712Y730445D01*
X10642Y730430D01*
X10597Y730403D01*
X10549Y730385D01*
X10493Y730341D01*
X10431Y730304D01*
X10397Y730264D01*
X10357Y730232D01*
X10318Y730171D01*
X10271Y730117D01*
X10252Y730069D01*
X10224Y730025D01*
X10206Y729955D01*
X10179Y729889D01*
X10171Y729817D01*
X10163Y729786D01*
X10165Y729763D01*
X10161Y729722D01*
X10161Y657367D01*
X10172Y657296D01*
X10174Y657225D01*
X10192Y657176D01*
X10200Y657124D01*
X10234Y657061D01*
X10259Y656994D01*
X10291Y656953D01*
X10316Y656907D01*
X10368Y656857D01*
X10412Y656801D01*
X10456Y656773D01*
X10494Y656737D01*
X10559Y656707D01*
X10619Y656668D01*
X10670Y656656D01*
X10717Y656634D01*
X10788Y656626D01*
X10858Y656608D01*
X10910Y656612D01*
X10961Y656607D01*
X11032Y656622D01*
X11103Y656628D01*
X11151Y656648D01*
X11202Y656659D01*
X11263Y656696D01*
X11329Y656724D01*
X11385Y656769D01*
X11413Y656785D01*
X11428Y656803D01*
X11460Y656829D01*
X16914Y662282D01*
X25794Y665961D01*
X35406Y665961D01*
X44286Y662282D01*
X51082Y655486D01*
X54761Y646606D01*
X54761Y636994D01*
X51082Y628114D01*
X44286Y621318D01*
X35406Y617639D01*
X25794Y617639D01*
X16914Y621318D01*
X11460Y626771D01*
X11402Y626813D01*
X11350Y626863D01*
X11303Y626884D01*
X11261Y626915D01*
X11192Y626936D01*
X11127Y626966D01*
X11075Y626972D01*
X11025Y626987D01*
X10954Y626985D01*
X10883Y626993D01*
X10832Y626982D01*
X10780Y626981D01*
X10712Y626956D01*
X10642Y626941D01*
X10597Y626914D01*
X10549Y626896D01*
X10493Y626852D01*
X10431Y626815D01*
X10397Y626775D01*
X10357Y626743D01*
X10318Y626682D01*
X10271Y626628D01*
X10252Y626580D01*
X10224Y626536D01*
X10206Y626466D01*
X10179Y626400D01*
X10171Y626328D01*
X10163Y626297D01*
X10165Y626274D01*
X10161Y626233D01*
X10161Y174767D01*
X10172Y174696D01*
X10174Y174625D01*
X10192Y174576D01*
X10200Y174524D01*
X10234Y174461D01*
X10259Y174394D01*
X10291Y174353D01*
X10316Y174307D01*
X10368Y174257D01*
X10412Y174201D01*
X10456Y174173D01*
X10494Y174137D01*
X10559Y174107D01*
X10619Y174068D01*
X10670Y174056D01*
X10717Y174034D01*
X10788Y174026D01*
X10858Y174008D01*
X10910Y174012D01*
X10961Y174007D01*
X11032Y174022D01*
X11103Y174028D01*
X11151Y174048D01*
X11202Y174059D01*
X11263Y174096D01*
X11329Y174124D01*
X11385Y174169D01*
X11413Y174185D01*
X11428Y174203D01*
X11460Y174229D01*
X16914Y179682D01*
X25794Y183361D01*
X35406Y183361D01*
X44286Y179682D01*
X51082Y172886D01*
X54761Y164006D01*
X54761Y154394D01*
X51082Y145514D01*
X44286Y138718D01*
X35406Y135039D01*
X25794Y135039D01*
X16914Y138718D01*
X11460Y144171D01*
X11402Y144213D01*
X11350Y144263D01*
X11303Y144284D01*
X11261Y144315D01*
X11192Y144336D01*
X11127Y144366D01*
X11075Y144372D01*
X11025Y144387D01*
X10954Y144385D01*
X10883Y144393D01*
X10832Y144382D01*
X10780Y144381D01*
X10712Y144356D01*
X10642Y144341D01*
X10597Y144314D01*
X10549Y144296D01*
X10493Y144252D01*
X10431Y144215D01*
X10397Y144175D01*
X10357Y144143D01*
X10318Y144082D01*
X10271Y144028D01*
X10252Y143980D01*
X10224Y143936D01*
X10206Y143866D01*
X10179Y143800D01*
X10171Y143728D01*
X10163Y143697D01*
X10165Y143674D01*
X10161Y143633D01*
X10161Y70278D01*
X10163Y70267D01*
X10162Y70260D01*
X10169Y70225D01*
X10172Y70207D01*
X10174Y70135D01*
X10192Y70086D01*
X10200Y70035D01*
X10234Y69972D01*
X10259Y69904D01*
X10291Y69864D01*
X10316Y69818D01*
X10368Y69768D01*
X10412Y69712D01*
X10456Y69684D01*
X10494Y69648D01*
X10559Y69618D01*
X10619Y69579D01*
X10670Y69567D01*
X10717Y69545D01*
X10788Y69537D01*
X10858Y69519D01*
X10910Y69523D01*
X10961Y69518D01*
X11032Y69533D01*
X11103Y69538D01*
X11151Y69559D01*
X11202Y69570D01*
X11263Y69607D01*
X11329Y69635D01*
X11385Y69680D01*
X11413Y69696D01*
X11428Y69714D01*
X11460Y69740D01*
X16272Y74551D01*
X24141Y77811D01*
X32659Y77811D01*
X40528Y74551D01*
X46551Y68528D01*
X49811Y60659D01*
X49811Y52141D01*
X46551Y44272D01*
X40528Y38249D01*
X32659Y34989D01*
X24141Y34989D01*
X16272Y38249D01*
X11460Y43060D01*
X11402Y43102D01*
X11350Y43152D01*
X11303Y43174D01*
X11261Y43204D01*
X11192Y43225D01*
X11127Y43255D01*
X11075Y43261D01*
X11025Y43276D01*
X10954Y43274D01*
X10883Y43282D01*
X10832Y43271D01*
X10780Y43270D01*
X10712Y43245D01*
X10642Y43230D01*
X10597Y43203D01*
X10549Y43185D01*
X10493Y43141D01*
X10431Y43104D01*
X10397Y43064D01*
X10357Y43032D01*
X10318Y42971D01*
X10271Y42917D01*
X10252Y42869D01*
X10224Y42825D01*
X10206Y42755D01*
X10179Y42689D01*
X10171Y42617D01*
X10163Y42586D01*
X10165Y42563D01*
X10161Y42522D01*
X10161Y10922D01*
X10164Y10902D01*
X10162Y10883D01*
X10184Y10781D01*
X10200Y10679D01*
X10210Y10662D01*
X10214Y10642D01*
X10267Y10553D01*
X10316Y10462D01*
X10330Y10448D01*
X10340Y10431D01*
X10419Y10364D01*
X10494Y10292D01*
X10512Y10284D01*
X10527Y10271D01*
X10623Y10232D01*
X10717Y10189D01*
X10737Y10187D01*
X10755Y10179D01*
X10922Y10161D01*
X989078Y10161D01*
X989098Y10164D01*
G37*
%LPC*%
G36*
X520103Y105551D02*
X520103Y105551D01*
X515675Y107386D01*
X512286Y110775D01*
X510451Y115203D01*
X510451Y119997D01*
X512286Y124425D01*
X515675Y127814D01*
X519978Y129597D01*
X520039Y129635D01*
X520104Y129664D01*
X520143Y129699D01*
X520187Y129726D01*
X520233Y129782D01*
X520285Y129830D01*
X520310Y129876D01*
X520344Y129916D01*
X520369Y129983D01*
X520404Y130046D01*
X520413Y130097D01*
X520432Y130145D01*
X520435Y130217D01*
X520448Y130288D01*
X520440Y130339D01*
X520442Y130391D01*
X520422Y130460D01*
X520412Y130531D01*
X520388Y130577D01*
X520374Y130627D01*
X520333Y130686D01*
X520300Y130750D01*
X520263Y130787D01*
X520233Y130829D01*
X520176Y130872D01*
X520125Y130922D01*
X520062Y130957D01*
X520036Y130976D01*
X520014Y130983D01*
X519978Y131003D01*
X515675Y132786D01*
X512286Y136175D01*
X510451Y140603D01*
X510451Y145397D01*
X512286Y149825D01*
X515675Y153214D01*
X519978Y154997D01*
X520039Y155035D01*
X520104Y155064D01*
X520143Y155099D01*
X520187Y155126D01*
X520233Y155182D01*
X520285Y155230D01*
X520310Y155276D01*
X520344Y155316D01*
X520369Y155383D01*
X520404Y155446D01*
X520413Y155497D01*
X520432Y155545D01*
X520435Y155617D01*
X520448Y155688D01*
X520440Y155739D01*
X520442Y155791D01*
X520422Y155860D01*
X520412Y155931D01*
X520388Y155977D01*
X520374Y156027D01*
X520333Y156086D01*
X520300Y156150D01*
X520263Y156187D01*
X520233Y156229D01*
X520176Y156272D01*
X520125Y156322D01*
X520062Y156357D01*
X520036Y156376D01*
X520014Y156383D01*
X519978Y156403D01*
X516622Y157793D01*
X516558Y157808D01*
X516497Y157833D01*
X516414Y157842D01*
X516382Y157849D01*
X516363Y157848D01*
X516331Y157851D01*
X220502Y157851D01*
X216625Y159457D01*
X176057Y200025D01*
X174451Y203902D01*
X174451Y290315D01*
X174449Y290329D01*
X174450Y290340D01*
X174438Y290397D01*
X174437Y290405D01*
X174429Y290496D01*
X174417Y290526D01*
X174412Y290558D01*
X174369Y290639D01*
X174333Y290723D01*
X174307Y290755D01*
X174296Y290775D01*
X174273Y290798D01*
X174228Y290854D01*
X138854Y326228D01*
X138780Y326281D01*
X138710Y326341D01*
X138680Y326353D01*
X138654Y326372D01*
X138567Y326399D01*
X138482Y326433D01*
X138441Y326437D01*
X138419Y326444D01*
X138387Y326443D01*
X138315Y326451D01*
X109154Y326451D01*
X109089Y326441D01*
X109024Y326440D01*
X108944Y326417D01*
X108911Y326412D01*
X108911Y326411D01*
X104694Y326411D01*
X100802Y328023D01*
X97823Y331002D01*
X96211Y334894D01*
X96211Y339106D01*
X97823Y342998D01*
X100802Y345977D01*
X104694Y347589D01*
X108934Y347589D01*
X108987Y347567D01*
X109070Y347558D01*
X109102Y347551D01*
X109122Y347552D01*
X109154Y347549D01*
X145098Y347549D01*
X148975Y345943D01*
X190868Y304050D01*
X192566Y302352D01*
X192624Y302311D01*
X192676Y302261D01*
X192723Y302239D01*
X192765Y302209D01*
X192834Y302188D01*
X192899Y302158D01*
X192951Y302152D01*
X193001Y302137D01*
X193072Y302138D01*
X193143Y302130D01*
X193194Y302142D01*
X193246Y302143D01*
X193314Y302168D01*
X193384Y302183D01*
X193429Y302209D01*
X193477Y302227D01*
X193533Y302272D01*
X193595Y302309D01*
X193629Y302348D01*
X193669Y302381D01*
X193708Y302441D01*
X193755Y302496D01*
X193774Y302544D01*
X193802Y302588D01*
X193820Y302657D01*
X193847Y302724D01*
X193855Y302795D01*
X193863Y302826D01*
X193861Y302850D01*
X193865Y302891D01*
X193865Y307916D01*
X193851Y308006D01*
X193843Y308097D01*
X193831Y308127D01*
X193826Y308158D01*
X193783Y308239D01*
X193747Y308323D01*
X193721Y308355D01*
X193710Y308376D01*
X193687Y308398D01*
X193642Y308454D01*
X139150Y362946D01*
X139076Y362999D01*
X139007Y363059D01*
X138976Y363071D01*
X138950Y363090D01*
X138863Y363117D01*
X138778Y363151D01*
X138738Y363155D01*
X138715Y363162D01*
X138683Y363161D01*
X138652Y363165D01*
X136131Y364209D01*
X134209Y366131D01*
X133169Y368641D01*
X133169Y371359D01*
X134209Y373869D01*
X135680Y375340D01*
X135691Y375356D01*
X135707Y375369D01*
X135763Y375456D01*
X135823Y375540D01*
X135829Y375559D01*
X135840Y375575D01*
X135865Y375676D01*
X135896Y375775D01*
X135895Y375795D01*
X135900Y375814D01*
X135892Y375917D01*
X135889Y376021D01*
X135882Y376039D01*
X135881Y376059D01*
X135841Y376154D01*
X135805Y376252D01*
X135792Y376267D01*
X135785Y376286D01*
X135680Y376416D01*
X130108Y381988D01*
X130034Y382041D01*
X129965Y382101D01*
X129934Y382113D01*
X129908Y382132D01*
X129821Y382159D01*
X129736Y382193D01*
X129696Y382197D01*
X129673Y382204D01*
X129641Y382203D01*
X129570Y382211D01*
X116455Y382211D01*
X116340Y382192D01*
X116224Y382175D01*
X116218Y382173D01*
X116212Y382172D01*
X116110Y382117D01*
X116004Y382064D01*
X116000Y382059D01*
X115995Y382056D01*
X115915Y381972D01*
X115832Y381888D01*
X115829Y381882D01*
X115825Y381878D01*
X115818Y381861D01*
X115795Y381820D01*
X112798Y378823D01*
X108906Y377211D01*
X104694Y377211D01*
X100802Y378823D01*
X97823Y381802D01*
X96211Y385694D01*
X96211Y389906D01*
X97394Y392763D01*
X97405Y392807D01*
X97424Y392849D01*
X97433Y392926D01*
X97451Y393002D01*
X97446Y393048D01*
X97451Y393093D01*
X97435Y393170D01*
X97428Y393247D01*
X97409Y393289D01*
X97399Y393334D01*
X97359Y393401D01*
X97328Y393472D01*
X97296Y393506D01*
X97273Y393545D01*
X97214Y393596D01*
X97161Y393653D01*
X97121Y393675D01*
X97086Y393705D01*
X97014Y393734D01*
X96946Y393771D01*
X96900Y393780D01*
X96858Y393797D01*
X96722Y393812D01*
X96704Y393815D01*
X96699Y393814D01*
X96691Y393815D01*
X95634Y393815D01*
X95544Y393801D01*
X95453Y393793D01*
X95423Y393781D01*
X95392Y393776D01*
X95311Y393733D01*
X95227Y393697D01*
X95195Y393671D01*
X95174Y393660D01*
X95152Y393637D01*
X95096Y393592D01*
X92179Y390675D01*
X92111Y390580D01*
X92041Y390486D01*
X92039Y390480D01*
X92035Y390475D01*
X92001Y390363D01*
X91965Y390253D01*
X91965Y390246D01*
X91963Y390240D01*
X91966Y390123D01*
X91967Y390007D01*
X91969Y389999D01*
X91969Y389995D01*
X91976Y389977D01*
X91989Y389932D01*
X91989Y385694D01*
X90377Y381802D01*
X87398Y378823D01*
X83506Y377211D01*
X79294Y377211D01*
X75402Y378823D01*
X72423Y381802D01*
X70811Y385694D01*
X70811Y389906D01*
X72423Y393798D01*
X75402Y396777D01*
X79294Y398389D01*
X83553Y398389D01*
X83559Y398387D01*
X83673Y398359D01*
X83679Y398359D01*
X83685Y398358D01*
X83802Y398369D01*
X83918Y398378D01*
X83924Y398380D01*
X83930Y398381D01*
X84037Y398428D01*
X84144Y398474D01*
X84150Y398479D01*
X84155Y398481D01*
X84168Y398493D01*
X84275Y398579D01*
X88159Y402463D01*
X89838Y404142D01*
X91892Y404993D01*
X98195Y404993D01*
X98265Y405004D01*
X98337Y405006D01*
X98386Y405024D01*
X98437Y405032D01*
X98501Y405066D01*
X98568Y405091D01*
X98609Y405123D01*
X98655Y405148D01*
X98704Y405200D01*
X98760Y405244D01*
X98788Y405288D01*
X98824Y405326D01*
X98854Y405391D01*
X98893Y405451D01*
X98906Y405502D01*
X98928Y405549D01*
X98936Y405620D01*
X98953Y405690D01*
X98949Y405742D01*
X98955Y405793D01*
X98940Y405864D01*
X98934Y405935D01*
X98914Y405983D01*
X98903Y406034D01*
X98866Y406095D01*
X98838Y406161D01*
X98793Y406217D01*
X98777Y406245D01*
X98759Y406260D01*
X98733Y406292D01*
X97823Y407202D01*
X96211Y411094D01*
X96211Y415306D01*
X97394Y418163D01*
X97405Y418207D01*
X97424Y418249D01*
X97433Y418326D01*
X97451Y418402D01*
X97446Y418448D01*
X97451Y418493D01*
X97435Y418570D01*
X97428Y418647D01*
X97409Y418689D01*
X97399Y418734D01*
X97359Y418801D01*
X97328Y418872D01*
X97296Y418906D01*
X97273Y418945D01*
X97214Y418996D01*
X97161Y419053D01*
X97121Y419075D01*
X97086Y419105D01*
X97014Y419134D01*
X96946Y419171D01*
X96900Y419180D01*
X96858Y419197D01*
X96722Y419212D01*
X96704Y419215D01*
X96699Y419214D01*
X96691Y419215D01*
X95634Y419215D01*
X95544Y419201D01*
X95453Y419193D01*
X95423Y419181D01*
X95392Y419176D01*
X95311Y419133D01*
X95227Y419097D01*
X95195Y419071D01*
X95174Y419060D01*
X95152Y419037D01*
X95096Y418992D01*
X92179Y416075D01*
X92111Y415980D01*
X92041Y415886D01*
X92039Y415880D01*
X92035Y415875D01*
X92001Y415763D01*
X91965Y415653D01*
X91965Y415646D01*
X91963Y415640D01*
X91966Y415523D01*
X91967Y415407D01*
X91969Y415399D01*
X91969Y415395D01*
X91976Y415377D01*
X91989Y415332D01*
X91989Y411094D01*
X90377Y407202D01*
X87398Y404223D01*
X83506Y402611D01*
X79294Y402611D01*
X75402Y404223D01*
X72423Y407202D01*
X70811Y411094D01*
X70811Y415306D01*
X72423Y419198D01*
X75402Y422177D01*
X79294Y423789D01*
X83553Y423789D01*
X83559Y423787D01*
X83673Y423759D01*
X83679Y423759D01*
X83685Y423758D01*
X83802Y423769D01*
X83918Y423778D01*
X83924Y423780D01*
X83930Y423781D01*
X84037Y423828D01*
X84144Y423874D01*
X84150Y423879D01*
X84155Y423881D01*
X84168Y423893D01*
X84275Y423979D01*
X88159Y427863D01*
X89838Y429542D01*
X91892Y430393D01*
X98195Y430393D01*
X98265Y430404D01*
X98337Y430406D01*
X98386Y430424D01*
X98437Y430432D01*
X98501Y430466D01*
X98568Y430491D01*
X98609Y430523D01*
X98655Y430548D01*
X98704Y430600D01*
X98760Y430644D01*
X98788Y430688D01*
X98824Y430726D01*
X98854Y430791D01*
X98893Y430851D01*
X98906Y430902D01*
X98928Y430949D01*
X98936Y431020D01*
X98953Y431090D01*
X98949Y431142D01*
X98955Y431193D01*
X98940Y431264D01*
X98934Y431335D01*
X98914Y431383D01*
X98903Y431434D01*
X98866Y431495D01*
X98838Y431561D01*
X98793Y431617D01*
X98777Y431645D01*
X98759Y431660D01*
X98733Y431692D01*
X97823Y432602D01*
X96211Y436494D01*
X96211Y440706D01*
X97394Y443563D01*
X97405Y443607D01*
X97424Y443649D01*
X97433Y443726D01*
X97451Y443802D01*
X97446Y443848D01*
X97451Y443893D01*
X97435Y443970D01*
X97428Y444047D01*
X97409Y444089D01*
X97399Y444134D01*
X97359Y444201D01*
X97328Y444272D01*
X97296Y444306D01*
X97273Y444345D01*
X97214Y444396D01*
X97161Y444453D01*
X97121Y444475D01*
X97086Y444505D01*
X97014Y444534D01*
X96946Y444571D01*
X96900Y444580D01*
X96858Y444597D01*
X96722Y444612D01*
X96704Y444615D01*
X96699Y444614D01*
X96691Y444615D01*
X95634Y444615D01*
X95544Y444601D01*
X95453Y444593D01*
X95423Y444581D01*
X95392Y444576D01*
X95311Y444533D01*
X95227Y444497D01*
X95195Y444471D01*
X95174Y444460D01*
X95152Y444437D01*
X95096Y444392D01*
X92179Y441475D01*
X92111Y441380D01*
X92041Y441286D01*
X92039Y441280D01*
X92035Y441275D01*
X92001Y441163D01*
X91965Y441053D01*
X91965Y441046D01*
X91963Y441040D01*
X91966Y440923D01*
X91967Y440807D01*
X91969Y440799D01*
X91969Y440795D01*
X91976Y440777D01*
X91989Y440732D01*
X91989Y436494D01*
X90377Y432602D01*
X87398Y429623D01*
X83506Y428011D01*
X79294Y428011D01*
X75402Y429623D01*
X72423Y432602D01*
X70811Y436494D01*
X70811Y440706D01*
X72423Y444598D01*
X75402Y447577D01*
X79294Y449189D01*
X83553Y449189D01*
X83559Y449187D01*
X83673Y449159D01*
X83679Y449159D01*
X83685Y449158D01*
X83802Y449169D01*
X83918Y449178D01*
X83924Y449180D01*
X83930Y449181D01*
X84037Y449228D01*
X84144Y449274D01*
X84150Y449279D01*
X84155Y449281D01*
X84168Y449293D01*
X84275Y449379D01*
X89838Y454942D01*
X91892Y455793D01*
X98195Y455793D01*
X98265Y455804D01*
X98337Y455806D01*
X98386Y455824D01*
X98437Y455832D01*
X98501Y455866D01*
X98568Y455891D01*
X98609Y455923D01*
X98655Y455948D01*
X98704Y456000D01*
X98760Y456044D01*
X98788Y456088D01*
X98824Y456126D01*
X98854Y456191D01*
X98893Y456251D01*
X98906Y456302D01*
X98928Y456349D01*
X98936Y456420D01*
X98953Y456490D01*
X98949Y456542D01*
X98955Y456593D01*
X98940Y456664D01*
X98934Y456735D01*
X98914Y456783D01*
X98903Y456834D01*
X98866Y456895D01*
X98838Y456961D01*
X98793Y457017D01*
X98777Y457045D01*
X98759Y457060D01*
X98733Y457092D01*
X97823Y458002D01*
X96211Y461894D01*
X96211Y466106D01*
X97394Y468963D01*
X97405Y469007D01*
X97424Y469049D01*
X97433Y469126D01*
X97451Y469202D01*
X97446Y469248D01*
X97451Y469293D01*
X97435Y469370D01*
X97428Y469447D01*
X97409Y469489D01*
X97399Y469534D01*
X97359Y469601D01*
X97328Y469672D01*
X97296Y469706D01*
X97273Y469745D01*
X97214Y469796D01*
X97161Y469853D01*
X97121Y469875D01*
X97086Y469905D01*
X97014Y469934D01*
X96946Y469971D01*
X96900Y469980D01*
X96858Y469997D01*
X96722Y470012D01*
X96704Y470015D01*
X96699Y470014D01*
X96691Y470015D01*
X95634Y470015D01*
X95544Y470001D01*
X95453Y469993D01*
X95423Y469981D01*
X95392Y469976D01*
X95311Y469933D01*
X95227Y469897D01*
X95195Y469871D01*
X95174Y469860D01*
X95152Y469837D01*
X95096Y469792D01*
X92179Y466875D01*
X92111Y466780D01*
X92041Y466686D01*
X92039Y466680D01*
X92035Y466675D01*
X92001Y466563D01*
X91965Y466453D01*
X91965Y466446D01*
X91963Y466440D01*
X91966Y466323D01*
X91967Y466207D01*
X91969Y466199D01*
X91969Y466195D01*
X91976Y466177D01*
X91989Y466132D01*
X91989Y461894D01*
X90377Y458002D01*
X87398Y455023D01*
X83506Y453411D01*
X79294Y453411D01*
X75402Y455023D01*
X72423Y458002D01*
X70811Y461894D01*
X70811Y466106D01*
X72423Y469998D01*
X75402Y472977D01*
X79294Y474589D01*
X83553Y474589D01*
X83559Y474587D01*
X83673Y474559D01*
X83679Y474559D01*
X83685Y474558D01*
X83802Y474569D01*
X83918Y474578D01*
X83924Y474580D01*
X83930Y474581D01*
X84037Y474628D01*
X84144Y474674D01*
X84150Y474679D01*
X84155Y474681D01*
X84168Y474693D01*
X84275Y474779D01*
X89838Y480342D01*
X91892Y481193D01*
X98195Y481193D01*
X98265Y481204D01*
X98337Y481206D01*
X98386Y481224D01*
X98437Y481232D01*
X98501Y481266D01*
X98568Y481291D01*
X98609Y481323D01*
X98655Y481348D01*
X98704Y481400D01*
X98760Y481444D01*
X98788Y481488D01*
X98824Y481526D01*
X98854Y481591D01*
X98893Y481651D01*
X98906Y481702D01*
X98928Y481749D01*
X98936Y481820D01*
X98953Y481890D01*
X98949Y481942D01*
X98955Y481993D01*
X98940Y482064D01*
X98934Y482135D01*
X98914Y482183D01*
X98903Y482234D01*
X98866Y482295D01*
X98838Y482361D01*
X98793Y482417D01*
X98777Y482445D01*
X98759Y482460D01*
X98733Y482492D01*
X97823Y483402D01*
X96211Y487294D01*
X96211Y491506D01*
X97394Y494363D01*
X97405Y494407D01*
X97424Y494449D01*
X97433Y494526D01*
X97451Y494602D01*
X97446Y494648D01*
X97451Y494693D01*
X97435Y494770D01*
X97428Y494847D01*
X97409Y494889D01*
X97399Y494934D01*
X97359Y495001D01*
X97328Y495072D01*
X97296Y495106D01*
X97273Y495145D01*
X97214Y495196D01*
X97161Y495253D01*
X97121Y495275D01*
X97086Y495305D01*
X97014Y495334D01*
X96946Y495371D01*
X96900Y495380D01*
X96858Y495397D01*
X96722Y495412D01*
X96704Y495415D01*
X96699Y495414D01*
X96691Y495415D01*
X95634Y495415D01*
X95544Y495401D01*
X95453Y495393D01*
X95423Y495381D01*
X95392Y495376D01*
X95311Y495333D01*
X95227Y495297D01*
X95195Y495271D01*
X95174Y495260D01*
X95152Y495237D01*
X95096Y495192D01*
X92179Y492275D01*
X92111Y492180D01*
X92041Y492086D01*
X92039Y492080D01*
X92035Y492075D01*
X92001Y491963D01*
X91965Y491853D01*
X91965Y491846D01*
X91963Y491840D01*
X91966Y491723D01*
X91967Y491607D01*
X91969Y491599D01*
X91969Y491595D01*
X91976Y491577D01*
X91989Y491532D01*
X91989Y487294D01*
X90377Y483402D01*
X87398Y480423D01*
X83506Y478811D01*
X79294Y478811D01*
X75402Y480423D01*
X72423Y483402D01*
X70811Y487294D01*
X70811Y491506D01*
X72423Y495398D01*
X75402Y498377D01*
X79294Y499989D01*
X83553Y499989D01*
X83559Y499987D01*
X83673Y499959D01*
X83679Y499959D01*
X83685Y499958D01*
X83802Y499969D01*
X83918Y499978D01*
X83924Y499980D01*
X83930Y499981D01*
X84037Y500028D01*
X84144Y500074D01*
X84150Y500079D01*
X84155Y500081D01*
X84168Y500093D01*
X84275Y500179D01*
X89838Y505742D01*
X91892Y506593D01*
X98195Y506593D01*
X98265Y506604D01*
X98337Y506606D01*
X98386Y506624D01*
X98437Y506632D01*
X98501Y506666D01*
X98568Y506691D01*
X98609Y506723D01*
X98655Y506748D01*
X98704Y506800D01*
X98760Y506844D01*
X98788Y506888D01*
X98824Y506926D01*
X98854Y506991D01*
X98893Y507051D01*
X98906Y507102D01*
X98928Y507149D01*
X98936Y507220D01*
X98953Y507290D01*
X98949Y507342D01*
X98955Y507393D01*
X98940Y507464D01*
X98934Y507535D01*
X98914Y507583D01*
X98903Y507634D01*
X98866Y507695D01*
X98838Y507761D01*
X98793Y507817D01*
X98777Y507845D01*
X98759Y507860D01*
X98733Y507892D01*
X97823Y508802D01*
X96211Y512694D01*
X96211Y516906D01*
X97394Y519763D01*
X97405Y519807D01*
X97424Y519849D01*
X97433Y519926D01*
X97451Y520002D01*
X97446Y520048D01*
X97451Y520093D01*
X97435Y520170D01*
X97428Y520247D01*
X97409Y520289D01*
X97399Y520334D01*
X97359Y520401D01*
X97328Y520472D01*
X97296Y520506D01*
X97273Y520545D01*
X97214Y520596D01*
X97161Y520653D01*
X97121Y520675D01*
X97086Y520705D01*
X97014Y520734D01*
X96946Y520771D01*
X96900Y520780D01*
X96858Y520797D01*
X96722Y520812D01*
X96704Y520815D01*
X96699Y520814D01*
X96691Y520815D01*
X95634Y520815D01*
X95544Y520801D01*
X95453Y520793D01*
X95423Y520781D01*
X95392Y520776D01*
X95311Y520733D01*
X95227Y520697D01*
X95195Y520671D01*
X95174Y520660D01*
X95152Y520637D01*
X95096Y520592D01*
X92179Y517675D01*
X92134Y517613D01*
X92104Y517581D01*
X92092Y517555D01*
X92041Y517486D01*
X92039Y517480D01*
X92035Y517475D01*
X92001Y517363D01*
X91965Y517253D01*
X91965Y517246D01*
X91963Y517240D01*
X91966Y517123D01*
X91967Y517007D01*
X91969Y516999D01*
X91969Y516995D01*
X91976Y516977D01*
X91989Y516932D01*
X91989Y512694D01*
X90377Y508802D01*
X87398Y505823D01*
X83506Y504211D01*
X79294Y504211D01*
X75402Y505823D01*
X72423Y508802D01*
X70811Y512694D01*
X70811Y516906D01*
X72423Y520798D01*
X75402Y523777D01*
X79294Y525389D01*
X83553Y525389D01*
X83559Y525387D01*
X83673Y525359D01*
X83679Y525359D01*
X83685Y525358D01*
X83802Y525369D01*
X83918Y525378D01*
X83924Y525380D01*
X83930Y525381D01*
X84037Y525428D01*
X84144Y525474D01*
X84150Y525479D01*
X84155Y525481D01*
X84168Y525493D01*
X84275Y525579D01*
X89838Y531142D01*
X91892Y531993D01*
X98195Y531993D01*
X98265Y532004D01*
X98337Y532006D01*
X98386Y532024D01*
X98437Y532032D01*
X98501Y532066D01*
X98568Y532091D01*
X98609Y532123D01*
X98655Y532148D01*
X98704Y532200D01*
X98760Y532244D01*
X98788Y532288D01*
X98824Y532326D01*
X98854Y532391D01*
X98893Y532451D01*
X98906Y532502D01*
X98928Y532549D01*
X98936Y532620D01*
X98953Y532690D01*
X98949Y532742D01*
X98955Y532793D01*
X98940Y532864D01*
X98934Y532935D01*
X98914Y532983D01*
X98903Y533034D01*
X98866Y533095D01*
X98838Y533161D01*
X98793Y533217D01*
X98777Y533245D01*
X98759Y533260D01*
X98733Y533292D01*
X97823Y534202D01*
X96640Y537058D01*
X96616Y537098D01*
X96600Y537141D01*
X96552Y537201D01*
X96510Y537268D01*
X96475Y537297D01*
X96446Y537333D01*
X96381Y537375D01*
X96321Y537424D01*
X96278Y537441D01*
X96240Y537466D01*
X96164Y537485D01*
X96091Y537513D01*
X96046Y537514D01*
X96001Y537526D01*
X95923Y537520D01*
X95846Y537523D01*
X95801Y537510D01*
X95756Y537507D01*
X95684Y537476D01*
X95609Y537454D01*
X95572Y537428D01*
X95529Y537410D01*
X95423Y537325D01*
X95407Y537314D01*
X95404Y537310D01*
X95399Y537305D01*
X93555Y535462D01*
X91501Y534611D01*
X91055Y534611D01*
X90940Y534592D01*
X90824Y534575D01*
X90818Y534573D01*
X90812Y534572D01*
X90710Y534517D01*
X90605Y534464D01*
X90600Y534459D01*
X90595Y534456D01*
X90515Y534372D01*
X90432Y534288D01*
X90429Y534282D01*
X90425Y534278D01*
X90418Y534261D01*
X90395Y534220D01*
X87398Y531223D01*
X83506Y529611D01*
X79294Y529611D01*
X75402Y531223D01*
X72423Y534202D01*
X70811Y538094D01*
X70811Y542306D01*
X72423Y546198D01*
X75402Y549177D01*
X79294Y550789D01*
X83506Y550789D01*
X87398Y549177D01*
X88892Y547683D01*
X88908Y547671D01*
X88921Y547656D01*
X89008Y547599D01*
X89092Y547539D01*
X89111Y547533D01*
X89128Y547523D01*
X89228Y547497D01*
X89327Y547467D01*
X89347Y547467D01*
X89366Y547463D01*
X89469Y547471D01*
X89573Y547473D01*
X89591Y547480D01*
X89611Y547482D01*
X89706Y547522D01*
X89804Y547558D01*
X89819Y547570D01*
X89838Y547578D01*
X89969Y547683D01*
X98828Y556542D01*
X99229Y556708D01*
X99268Y556732D01*
X99311Y556748D01*
X99372Y556797D01*
X99438Y556838D01*
X99467Y556873D01*
X99503Y556902D01*
X99545Y556967D01*
X99595Y557027D01*
X99611Y557070D01*
X99636Y557109D01*
X99655Y557184D01*
X99683Y557257D01*
X99685Y557303D01*
X99696Y557347D01*
X99690Y557425D01*
X99693Y557502D01*
X99680Y557547D01*
X99677Y557592D01*
X99646Y557664D01*
X99625Y557739D01*
X99598Y557776D01*
X99580Y557819D01*
X99495Y557925D01*
X99484Y557941D01*
X99480Y557944D01*
X99476Y557950D01*
X97823Y559602D01*
X96211Y563494D01*
X96211Y567706D01*
X97823Y571598D01*
X100802Y574577D01*
X104694Y576189D01*
X108906Y576189D01*
X112798Y574577D01*
X115777Y571598D01*
X117389Y567706D01*
X117389Y563494D01*
X115777Y559602D01*
X114124Y557950D01*
X114098Y557912D01*
X114064Y557881D01*
X114026Y557813D01*
X113981Y557750D01*
X113967Y557706D01*
X113945Y557666D01*
X113931Y557589D01*
X113908Y557515D01*
X113910Y557469D01*
X113901Y557424D01*
X113913Y557347D01*
X113915Y557269D01*
X113931Y557226D01*
X113937Y557180D01*
X113972Y557111D01*
X113999Y557038D01*
X114028Y557002D01*
X114049Y556961D01*
X114104Y556907D01*
X114153Y556846D01*
X114192Y556821D01*
X114224Y556789D01*
X114344Y556723D01*
X114360Y556713D01*
X114365Y556712D01*
X114371Y556708D01*
X114772Y556542D01*
X119103Y552212D01*
X119176Y552159D01*
X119246Y552099D01*
X119276Y552087D01*
X119302Y552068D01*
X119389Y552041D01*
X119474Y552007D01*
X119515Y552003D01*
X119537Y551996D01*
X119570Y551997D01*
X119641Y551989D01*
X202639Y551989D01*
X202754Y552008D01*
X202870Y552025D01*
X202875Y552027D01*
X202881Y552028D01*
X202984Y552083D01*
X203089Y552136D01*
X203093Y552141D01*
X203099Y552144D01*
X203179Y552228D01*
X203261Y552312D01*
X203265Y552318D01*
X203268Y552322D01*
X203276Y552339D01*
X203331Y552439D01*
X206337Y555445D01*
X210258Y557069D01*
X223733Y557069D01*
X223804Y557080D01*
X223876Y557082D01*
X223925Y557100D01*
X223976Y557108D01*
X224040Y557142D01*
X224107Y557167D01*
X224148Y557199D01*
X224194Y557224D01*
X224243Y557276D01*
X224299Y557320D01*
X224327Y557364D01*
X224363Y557402D01*
X224393Y557467D01*
X224432Y557527D01*
X224445Y557578D01*
X224467Y557625D01*
X224475Y557696D01*
X224492Y557766D01*
X224488Y557818D01*
X224494Y557869D01*
X224478Y557940D01*
X224473Y558011D01*
X224453Y558059D01*
X224441Y558110D01*
X224405Y558171D01*
X224377Y558237D01*
X224332Y558293D01*
X224315Y558321D01*
X224297Y558336D01*
X224272Y558368D01*
X221732Y560908D01*
X221658Y560961D01*
X221588Y561021D01*
X221558Y561033D01*
X221532Y561052D01*
X221445Y561079D01*
X221360Y561113D01*
X221319Y561117D01*
X221297Y561124D01*
X221265Y561123D01*
X221193Y561131D01*
X210258Y561131D01*
X206337Y562755D01*
X203335Y565757D01*
X201711Y569678D01*
X201711Y573922D01*
X203335Y577843D01*
X206337Y580845D01*
X210258Y582469D01*
X229742Y582469D01*
X233663Y580845D01*
X236665Y577843D01*
X238289Y573922D01*
X238289Y569678D01*
X236665Y565757D01*
X235216Y564308D01*
X235204Y564292D01*
X235189Y564279D01*
X235133Y564192D01*
X235072Y564108D01*
X235067Y564089D01*
X235056Y564072D01*
X235030Y563972D01*
X235000Y563873D01*
X235001Y563853D01*
X234996Y563834D01*
X235004Y563731D01*
X235006Y563627D01*
X235013Y563609D01*
X235015Y563589D01*
X235055Y563494D01*
X235091Y563396D01*
X235103Y563381D01*
X235111Y563362D01*
X235216Y563231D01*
X242363Y556085D01*
X244042Y554405D01*
X244893Y552351D01*
X244893Y515049D01*
X244042Y512995D01*
X242363Y511315D01*
X237305Y506257D01*
X235625Y504578D01*
X235338Y504459D01*
X235298Y504435D01*
X235255Y504419D01*
X235195Y504370D01*
X235129Y504329D01*
X235099Y504294D01*
X235063Y504265D01*
X235021Y504200D01*
X234972Y504140D01*
X234955Y504097D01*
X234930Y504058D01*
X234911Y503983D01*
X234884Y503910D01*
X234882Y503864D01*
X234870Y503820D01*
X234876Y503742D01*
X234873Y503664D01*
X234886Y503620D01*
X234889Y503575D01*
X234920Y503503D01*
X234942Y503428D01*
X234968Y503390D01*
X234986Y503348D01*
X235071Y503242D01*
X235082Y503226D01*
X235086Y503223D01*
X235091Y503217D01*
X236665Y501643D01*
X238289Y497722D01*
X238289Y493478D01*
X236665Y489557D01*
X233663Y486555D01*
X229742Y484931D01*
X210258Y484931D01*
X206337Y486555D01*
X203327Y489565D01*
X203280Y489641D01*
X203220Y489741D01*
X203216Y489745D01*
X203212Y489750D01*
X203122Y489825D01*
X203033Y489901D01*
X203028Y489903D01*
X203023Y489907D01*
X202914Y489949D01*
X202805Y489993D01*
X202798Y489994D01*
X202793Y489995D01*
X202775Y489996D01*
X202639Y490011D01*
X118150Y490011D01*
X118130Y490008D01*
X118111Y490010D01*
X118009Y489988D01*
X117907Y489972D01*
X117890Y489962D01*
X117870Y489958D01*
X117781Y489905D01*
X117690Y489856D01*
X117676Y489842D01*
X117659Y489832D01*
X117592Y489753D01*
X117520Y489678D01*
X117512Y489660D01*
X117499Y489645D01*
X117460Y489549D01*
X117417Y489455D01*
X117415Y489435D01*
X117407Y489417D01*
X117389Y489250D01*
X117389Y487294D01*
X115777Y483402D01*
X114124Y481750D01*
X114098Y481712D01*
X114064Y481681D01*
X114026Y481613D01*
X113981Y481550D01*
X113967Y481506D01*
X113945Y481466D01*
X113931Y481389D01*
X113908Y481315D01*
X113910Y481269D01*
X113901Y481224D01*
X113913Y481147D01*
X113915Y481069D01*
X113931Y481026D01*
X113937Y480980D01*
X113972Y480911D01*
X113999Y480838D01*
X114028Y480802D01*
X114049Y480761D01*
X114104Y480707D01*
X114153Y480646D01*
X114192Y480621D01*
X114224Y480589D01*
X114344Y480523D01*
X114360Y480513D01*
X114365Y480512D01*
X114371Y480508D01*
X114772Y480342D01*
X119103Y476012D01*
X119176Y475959D01*
X119246Y475899D01*
X119276Y475887D01*
X119302Y475868D01*
X119389Y475841D01*
X119474Y475807D01*
X119515Y475803D01*
X119537Y475796D01*
X119570Y475797D01*
X119641Y475789D01*
X202639Y475789D01*
X202754Y475808D01*
X202870Y475825D01*
X202875Y475827D01*
X202881Y475828D01*
X202984Y475883D01*
X203089Y475936D01*
X203093Y475941D01*
X203099Y475944D01*
X203179Y476028D01*
X203261Y476112D01*
X203265Y476118D01*
X203268Y476122D01*
X203276Y476139D01*
X203331Y476239D01*
X206337Y479245D01*
X210258Y480869D01*
X229742Y480869D01*
X233663Y479245D01*
X236665Y476243D01*
X238289Y472322D01*
X238289Y468078D01*
X236665Y464157D01*
X233663Y461155D01*
X229742Y459531D01*
X210258Y459531D01*
X206337Y461155D01*
X203327Y464165D01*
X203281Y464240D01*
X203220Y464341D01*
X203216Y464345D01*
X203212Y464350D01*
X203122Y464425D01*
X203033Y464501D01*
X203028Y464503D01*
X203023Y464507D01*
X202914Y464549D01*
X202805Y464593D01*
X202798Y464594D01*
X202793Y464595D01*
X202775Y464596D01*
X202639Y464611D01*
X118150Y464611D01*
X118130Y464608D01*
X118111Y464610D01*
X118009Y464588D01*
X117907Y464572D01*
X117890Y464562D01*
X117870Y464558D01*
X117781Y464505D01*
X117690Y464456D01*
X117676Y464442D01*
X117659Y464432D01*
X117592Y464353D01*
X117520Y464278D01*
X117512Y464260D01*
X117499Y464245D01*
X117460Y464149D01*
X117417Y464055D01*
X117415Y464035D01*
X117407Y464017D01*
X117389Y463850D01*
X117389Y461894D01*
X115777Y458002D01*
X114124Y456350D01*
X114098Y456312D01*
X114064Y456281D01*
X114026Y456213D01*
X113981Y456150D01*
X113967Y456106D01*
X113945Y456066D01*
X113931Y455989D01*
X113908Y455915D01*
X113910Y455869D01*
X113901Y455824D01*
X113913Y455747D01*
X113915Y455669D01*
X113931Y455626D01*
X113937Y455580D01*
X113972Y455511D01*
X113999Y455438D01*
X114028Y455402D01*
X114049Y455361D01*
X114104Y455307D01*
X114153Y455246D01*
X114192Y455221D01*
X114224Y455189D01*
X114344Y455123D01*
X114360Y455113D01*
X114365Y455112D01*
X114371Y455108D01*
X114772Y454942D01*
X119103Y450612D01*
X119176Y450559D01*
X119246Y450499D01*
X119276Y450487D01*
X119302Y450468D01*
X119389Y450441D01*
X119474Y450407D01*
X119515Y450403D01*
X119537Y450396D01*
X119570Y450397D01*
X119641Y450389D01*
X202639Y450389D01*
X202754Y450408D01*
X202870Y450425D01*
X202875Y450427D01*
X202881Y450428D01*
X202984Y450483D01*
X203089Y450536D01*
X203093Y450541D01*
X203099Y450544D01*
X203179Y450628D01*
X203261Y450712D01*
X203265Y450718D01*
X203268Y450722D01*
X203276Y450739D01*
X203331Y450839D01*
X206337Y453845D01*
X210258Y455469D01*
X229742Y455469D01*
X233663Y453845D01*
X236665Y450843D01*
X238289Y446922D01*
X238289Y442678D01*
X236665Y438757D01*
X235216Y437308D01*
X235204Y437292D01*
X235189Y437279D01*
X235133Y437192D01*
X235072Y437108D01*
X235067Y437089D01*
X235056Y437072D01*
X235030Y436972D01*
X235000Y436873D01*
X235001Y436853D01*
X234996Y436834D01*
X235004Y436731D01*
X235006Y436627D01*
X235013Y436609D01*
X235015Y436589D01*
X235055Y436494D01*
X235091Y436396D01*
X235103Y436381D01*
X235111Y436362D01*
X235216Y436231D01*
X235636Y435812D01*
X235710Y435759D01*
X235779Y435699D01*
X235809Y435687D01*
X235835Y435668D01*
X235922Y435641D01*
X236007Y435607D01*
X236048Y435603D01*
X236070Y435596D01*
X236103Y435597D01*
X236174Y435589D01*
X245613Y435589D01*
X245703Y435603D01*
X245794Y435611D01*
X245824Y435623D01*
X245856Y435628D01*
X245937Y435671D01*
X246021Y435707D01*
X246053Y435733D01*
X246073Y435744D01*
X246096Y435767D01*
X246120Y435786D01*
X248641Y436831D01*
X251359Y436831D01*
X253869Y435791D01*
X255791Y433869D01*
X256831Y431359D01*
X256831Y428641D01*
X255791Y426131D01*
X253869Y424209D01*
X251359Y423169D01*
X248641Y423169D01*
X246111Y424217D01*
X246078Y424241D01*
X246008Y424301D01*
X245978Y424313D01*
X245952Y424332D01*
X245865Y424359D01*
X245780Y424393D01*
X245739Y424397D01*
X245717Y424404D01*
X245685Y424403D01*
X245613Y424411D01*
X238231Y424411D01*
X238186Y424404D01*
X238140Y424406D01*
X238065Y424384D01*
X237989Y424372D01*
X237948Y424350D01*
X237904Y424337D01*
X237840Y424293D01*
X237771Y424256D01*
X237740Y424223D01*
X237702Y424197D01*
X237655Y424134D01*
X237602Y424078D01*
X237582Y424036D01*
X237555Y424000D01*
X237531Y423926D01*
X237498Y423855D01*
X237493Y423809D01*
X237479Y423766D01*
X237480Y423688D01*
X237471Y423611D01*
X237481Y423566D01*
X237481Y423520D01*
X237519Y423388D01*
X237523Y423370D01*
X237526Y423366D01*
X237528Y423359D01*
X238289Y421522D01*
X238289Y417278D01*
X236665Y413357D01*
X235091Y411783D01*
X235064Y411745D01*
X235030Y411714D01*
X234992Y411646D01*
X234947Y411583D01*
X234934Y411539D01*
X234911Y411499D01*
X234898Y411422D01*
X234875Y411348D01*
X234876Y411302D01*
X234868Y411257D01*
X234879Y411180D01*
X234881Y411102D01*
X234897Y411059D01*
X234904Y411014D01*
X234939Y410944D01*
X234966Y410871D01*
X234994Y410835D01*
X235015Y410794D01*
X235071Y410740D01*
X235119Y410679D01*
X235158Y410654D01*
X235191Y410622D01*
X235310Y410556D01*
X235326Y410546D01*
X235331Y410545D01*
X235338Y410541D01*
X235625Y410422D01*
X270236Y375812D01*
X270310Y375759D01*
X270379Y375699D01*
X270409Y375687D01*
X270435Y375668D01*
X270522Y375641D01*
X270607Y375607D01*
X270648Y375603D01*
X270670Y375596D01*
X270703Y375597D01*
X270774Y375589D01*
X315613Y375589D01*
X315703Y375603D01*
X315794Y375611D01*
X315824Y375623D01*
X315856Y375628D01*
X315937Y375671D01*
X316021Y375707D01*
X316053Y375733D01*
X316073Y375744D01*
X316096Y375767D01*
X316120Y375786D01*
X318641Y376831D01*
X321359Y376831D01*
X323869Y375791D01*
X325791Y373869D01*
X326831Y371359D01*
X326831Y368641D01*
X325791Y366131D01*
X323869Y364209D01*
X323290Y363969D01*
X323207Y363918D01*
X323121Y363872D01*
X323103Y363853D01*
X323081Y363840D01*
X323019Y363765D01*
X322952Y363694D01*
X322941Y363670D01*
X322924Y363650D01*
X322889Y363559D01*
X322848Y363471D01*
X322845Y363445D01*
X322836Y363421D01*
X322832Y363323D01*
X322821Y363227D01*
X322827Y363201D01*
X322826Y363175D01*
X322853Y363081D01*
X322873Y362986D01*
X322887Y362964D01*
X322894Y362939D01*
X322950Y362859D01*
X323000Y362775D01*
X323019Y362758D01*
X323034Y362737D01*
X323112Y362679D01*
X323187Y362615D01*
X323211Y362605D01*
X323232Y362590D01*
X323324Y362560D01*
X323415Y362523D01*
X323447Y362520D01*
X323466Y362514D01*
X323499Y362514D01*
X323581Y362505D01*
X336419Y362505D01*
X336515Y362520D01*
X336612Y362530D01*
X336636Y362540D01*
X336661Y362544D01*
X336747Y362590D01*
X336836Y362630D01*
X336856Y362647D01*
X336879Y362660D01*
X336946Y362730D01*
X337017Y362796D01*
X337030Y362819D01*
X337048Y362838D01*
X337089Y362926D01*
X337136Y363012D01*
X337141Y363037D01*
X337152Y363061D01*
X337162Y363158D01*
X337180Y363254D01*
X337176Y363280D01*
X337179Y363305D01*
X337158Y363400D01*
X337144Y363497D01*
X337132Y363520D01*
X337127Y363546D01*
X337077Y363629D01*
X337032Y363716D01*
X337014Y363735D01*
X337000Y363757D01*
X336926Y363820D01*
X336857Y363888D01*
X336828Y363904D01*
X336813Y363917D01*
X336783Y363929D01*
X336710Y363969D01*
X336131Y364209D01*
X334209Y366131D01*
X333161Y368661D01*
X333155Y368702D01*
X333147Y368793D01*
X333135Y368823D01*
X333130Y368854D01*
X333087Y368935D01*
X333051Y369019D01*
X333025Y369051D01*
X333014Y369072D01*
X332991Y369094D01*
X332946Y369150D01*
X312948Y389148D01*
X312097Y391202D01*
X312097Y422657D01*
X312086Y422728D01*
X312084Y422800D01*
X312066Y422849D01*
X312058Y422900D01*
X312024Y422963D01*
X311999Y423031D01*
X311967Y423071D01*
X311942Y423117D01*
X311890Y423167D01*
X311846Y423223D01*
X311802Y423251D01*
X311764Y423287D01*
X311699Y423317D01*
X311639Y423356D01*
X311588Y423368D01*
X311541Y423390D01*
X311470Y423398D01*
X311400Y423416D01*
X311348Y423412D01*
X311297Y423417D01*
X311226Y423402D01*
X311155Y423397D01*
X311107Y423376D01*
X311056Y423365D01*
X310995Y423328D01*
X310929Y423300D01*
X310873Y423255D01*
X310845Y423239D01*
X310830Y423221D01*
X310798Y423195D01*
X309751Y422148D01*
X305176Y420253D01*
X300224Y420253D01*
X295649Y422148D01*
X292148Y425649D01*
X290253Y430224D01*
X290253Y435176D01*
X292148Y439751D01*
X295649Y443252D01*
X299138Y444697D01*
X299199Y444735D01*
X299264Y444764D01*
X299302Y444799D01*
X299347Y444826D01*
X299393Y444882D01*
X299445Y444930D01*
X299470Y444976D01*
X299504Y445016D01*
X299529Y445083D01*
X299564Y445146D01*
X299573Y445197D01*
X299592Y445245D01*
X299595Y445317D01*
X299608Y445388D01*
X299600Y445439D01*
X299602Y445491D01*
X299582Y445560D01*
X299572Y445631D01*
X299548Y445677D01*
X299534Y445727D01*
X299493Y445786D01*
X299460Y445850D01*
X299423Y445887D01*
X299393Y445929D01*
X299336Y445972D01*
X299285Y446022D01*
X299222Y446057D01*
X299196Y446076D01*
X299174Y446083D01*
X299138Y446103D01*
X295649Y447548D01*
X292148Y451049D01*
X290253Y455624D01*
X290253Y460576D01*
X292148Y465151D01*
X295649Y468652D01*
X299138Y470097D01*
X299199Y470135D01*
X299264Y470164D01*
X299302Y470199D01*
X299347Y470226D01*
X299393Y470282D01*
X299445Y470330D01*
X299470Y470376D01*
X299504Y470416D01*
X299529Y470483D01*
X299564Y470546D01*
X299573Y470597D01*
X299592Y470645D01*
X299595Y470717D01*
X299608Y470788D01*
X299600Y470839D01*
X299602Y470891D01*
X299582Y470960D01*
X299572Y471031D01*
X299548Y471077D01*
X299534Y471127D01*
X299493Y471186D01*
X299460Y471250D01*
X299423Y471287D01*
X299393Y471329D01*
X299336Y471372D01*
X299285Y471422D01*
X299222Y471457D01*
X299196Y471476D01*
X299174Y471483D01*
X299138Y471503D01*
X295649Y472948D01*
X292148Y476449D01*
X290253Y481024D01*
X290253Y485976D01*
X292148Y490551D01*
X295649Y494052D01*
X300224Y495947D01*
X305176Y495947D01*
X309751Y494052D01*
X310798Y493005D01*
X310856Y492963D01*
X310908Y492913D01*
X310955Y492891D01*
X310997Y492861D01*
X311066Y492840D01*
X311131Y492810D01*
X311183Y492804D01*
X311233Y492789D01*
X311304Y492791D01*
X311375Y492783D01*
X311426Y492794D01*
X311478Y492795D01*
X311546Y492820D01*
X311616Y492835D01*
X311661Y492862D01*
X311709Y492880D01*
X311765Y492924D01*
X311827Y492961D01*
X311861Y493001D01*
X311901Y493033D01*
X311940Y493094D01*
X311987Y493148D01*
X312006Y493196D01*
X312034Y493240D01*
X312052Y493310D01*
X312061Y493332D01*
X312069Y493349D01*
X312070Y493353D01*
X312079Y493376D01*
X312087Y493447D01*
X312095Y493479D01*
X312093Y493502D01*
X312097Y493543D01*
X312097Y524257D01*
X312086Y524328D01*
X312084Y524400D01*
X312066Y524449D01*
X312058Y524500D01*
X312024Y524563D01*
X311999Y524631D01*
X311967Y524671D01*
X311942Y524717D01*
X311890Y524767D01*
X311846Y524823D01*
X311802Y524851D01*
X311764Y524887D01*
X311699Y524917D01*
X311639Y524956D01*
X311588Y524968D01*
X311541Y524990D01*
X311470Y524998D01*
X311400Y525016D01*
X311348Y525012D01*
X311297Y525017D01*
X311226Y525002D01*
X311155Y524997D01*
X311107Y524976D01*
X311056Y524965D01*
X310995Y524928D01*
X310929Y524900D01*
X310873Y524855D01*
X310845Y524839D01*
X310830Y524821D01*
X310798Y524795D01*
X309751Y523748D01*
X305176Y521853D01*
X300224Y521853D01*
X295649Y523748D01*
X292148Y527249D01*
X290253Y531824D01*
X290253Y536776D01*
X292148Y541351D01*
X295649Y544852D01*
X299138Y546297D01*
X299199Y546335D01*
X299264Y546364D01*
X299303Y546399D01*
X299347Y546426D01*
X299393Y546482D01*
X299445Y546530D01*
X299470Y546576D01*
X299504Y546616D01*
X299529Y546683D01*
X299564Y546746D01*
X299573Y546797D01*
X299592Y546845D01*
X299595Y546917D01*
X299608Y546988D01*
X299600Y547039D01*
X299602Y547091D01*
X299582Y547160D01*
X299572Y547231D01*
X299548Y547277D01*
X299534Y547327D01*
X299493Y547386D01*
X299460Y547450D01*
X299423Y547487D01*
X299393Y547529D01*
X299336Y547572D01*
X299285Y547622D01*
X299222Y547657D01*
X299196Y547676D01*
X299174Y547683D01*
X299138Y547703D01*
X295649Y549148D01*
X292148Y552649D01*
X290253Y557224D01*
X290253Y562176D01*
X292148Y566751D01*
X295649Y570252D01*
X299138Y571697D01*
X299199Y571735D01*
X299264Y571764D01*
X299302Y571799D01*
X299347Y571826D01*
X299393Y571882D01*
X299445Y571930D01*
X299470Y571976D01*
X299504Y572016D01*
X299529Y572083D01*
X299564Y572146D01*
X299573Y572197D01*
X299592Y572245D01*
X299595Y572317D01*
X299608Y572388D01*
X299600Y572439D01*
X299602Y572491D01*
X299582Y572560D01*
X299572Y572631D01*
X299548Y572677D01*
X299534Y572727D01*
X299493Y572786D01*
X299460Y572850D01*
X299423Y572887D01*
X299393Y572929D01*
X299336Y572972D01*
X299285Y573022D01*
X299222Y573057D01*
X299196Y573076D01*
X299174Y573083D01*
X299138Y573103D01*
X295649Y574548D01*
X292148Y578049D01*
X290253Y582624D01*
X290253Y587576D01*
X292148Y592151D01*
X295649Y595652D01*
X299138Y597097D01*
X299199Y597135D01*
X299264Y597164D01*
X299302Y597199D01*
X299347Y597226D01*
X299393Y597282D01*
X299445Y597330D01*
X299470Y597376D01*
X299504Y597416D01*
X299529Y597483D01*
X299564Y597546D01*
X299573Y597597D01*
X299592Y597645D01*
X299595Y597717D01*
X299608Y597788D01*
X299600Y597839D01*
X299602Y597891D01*
X299582Y597960D01*
X299572Y598031D01*
X299548Y598077D01*
X299534Y598127D01*
X299493Y598186D01*
X299460Y598250D01*
X299423Y598287D01*
X299393Y598329D01*
X299336Y598372D01*
X299285Y598422D01*
X299222Y598457D01*
X299196Y598476D01*
X299174Y598483D01*
X299138Y598503D01*
X295649Y599948D01*
X292148Y603449D01*
X290253Y608024D01*
X290253Y612976D01*
X292148Y617551D01*
X295649Y621052D01*
X299138Y622497D01*
X299199Y622535D01*
X299264Y622564D01*
X299302Y622599D01*
X299347Y622626D01*
X299393Y622682D01*
X299445Y622730D01*
X299470Y622776D01*
X299504Y622816D01*
X299529Y622883D01*
X299564Y622946D01*
X299573Y622997D01*
X299592Y623045D01*
X299595Y623117D01*
X299608Y623188D01*
X299600Y623239D01*
X299602Y623291D01*
X299582Y623360D01*
X299572Y623431D01*
X299548Y623477D01*
X299534Y623527D01*
X299493Y623586D01*
X299460Y623650D01*
X299423Y623687D01*
X299393Y623729D01*
X299336Y623772D01*
X299285Y623822D01*
X299222Y623857D01*
X299196Y623876D01*
X299174Y623883D01*
X299138Y623903D01*
X295649Y625348D01*
X292148Y628849D01*
X290253Y633424D01*
X290253Y638376D01*
X292148Y642951D01*
X295649Y646452D01*
X299138Y647897D01*
X299199Y647935D01*
X299264Y647964D01*
X299302Y647999D01*
X299347Y648026D01*
X299393Y648082D01*
X299445Y648130D01*
X299470Y648176D01*
X299504Y648216D01*
X299529Y648283D01*
X299564Y648346D01*
X299573Y648397D01*
X299592Y648445D01*
X299595Y648517D01*
X299608Y648588D01*
X299600Y648639D01*
X299602Y648691D01*
X299582Y648760D01*
X299572Y648831D01*
X299548Y648877D01*
X299534Y648927D01*
X299493Y648986D01*
X299460Y649050D01*
X299423Y649087D01*
X299393Y649129D01*
X299336Y649172D01*
X299285Y649222D01*
X299222Y649257D01*
X299196Y649276D01*
X299174Y649283D01*
X299138Y649303D01*
X295649Y650748D01*
X292148Y654249D01*
X290253Y658824D01*
X290253Y663776D01*
X292148Y668351D01*
X295649Y671852D01*
X299138Y673297D01*
X299199Y673335D01*
X299264Y673364D01*
X299302Y673399D01*
X299347Y673426D01*
X299393Y673482D01*
X299445Y673530D01*
X299470Y673576D01*
X299504Y673616D01*
X299529Y673683D01*
X299564Y673746D01*
X299573Y673797D01*
X299592Y673845D01*
X299595Y673917D01*
X299608Y673988D01*
X299600Y674039D01*
X299602Y674091D01*
X299582Y674160D01*
X299572Y674231D01*
X299548Y674277D01*
X299534Y674327D01*
X299493Y674386D01*
X299460Y674450D01*
X299423Y674487D01*
X299393Y674529D01*
X299336Y674572D01*
X299285Y674622D01*
X299222Y674657D01*
X299196Y674676D01*
X299174Y674683D01*
X299138Y674703D01*
X295649Y676148D01*
X292148Y679649D01*
X290253Y684224D01*
X290253Y689176D01*
X292148Y693751D01*
X295649Y697252D01*
X299138Y698697D01*
X299199Y698735D01*
X299264Y698764D01*
X299302Y698799D01*
X299347Y698826D01*
X299393Y698882D01*
X299445Y698930D01*
X299470Y698976D01*
X299504Y699016D01*
X299529Y699083D01*
X299564Y699146D01*
X299573Y699197D01*
X299592Y699245D01*
X299595Y699317D01*
X299608Y699388D01*
X299600Y699439D01*
X299602Y699491D01*
X299582Y699560D01*
X299572Y699631D01*
X299548Y699677D01*
X299534Y699727D01*
X299493Y699786D01*
X299460Y699850D01*
X299423Y699887D01*
X299393Y699929D01*
X299336Y699972D01*
X299285Y700022D01*
X299222Y700057D01*
X299196Y700076D01*
X299174Y700083D01*
X299138Y700103D01*
X295649Y701548D01*
X292148Y705049D01*
X290253Y709624D01*
X290253Y714576D01*
X292148Y719151D01*
X295649Y722652D01*
X300224Y724547D01*
X305176Y724547D01*
X309751Y722652D01*
X313252Y719151D01*
X315147Y714576D01*
X315147Y709624D01*
X313252Y705049D01*
X309751Y701548D01*
X306262Y700103D01*
X306201Y700065D01*
X306136Y700036D01*
X306097Y700001D01*
X306053Y699974D01*
X306007Y699918D01*
X305955Y699870D01*
X305930Y699824D01*
X305896Y699784D01*
X305871Y699717D01*
X305836Y699654D01*
X305827Y699603D01*
X305808Y699555D01*
X305805Y699483D01*
X305792Y699412D01*
X305800Y699361D01*
X305798Y699309D01*
X305818Y699240D01*
X305828Y699169D01*
X305852Y699123D01*
X305866Y699073D01*
X305907Y699014D01*
X305940Y698950D01*
X305977Y698913D01*
X306007Y698871D01*
X306064Y698828D01*
X306115Y698778D01*
X306178Y698743D01*
X306204Y698724D01*
X306226Y698717D01*
X306262Y698697D01*
X309751Y697252D01*
X313252Y693751D01*
X315147Y689176D01*
X315147Y684224D01*
X313252Y679649D01*
X309751Y676148D01*
X306262Y674703D01*
X306201Y674665D01*
X306136Y674636D01*
X306097Y674601D01*
X306053Y674574D01*
X306007Y674518D01*
X305955Y674470D01*
X305930Y674424D01*
X305896Y674384D01*
X305871Y674317D01*
X305836Y674254D01*
X305827Y674203D01*
X305808Y674155D01*
X305805Y674083D01*
X305792Y674012D01*
X305800Y673961D01*
X305798Y673909D01*
X305818Y673840D01*
X305828Y673769D01*
X305852Y673723D01*
X305866Y673673D01*
X305907Y673614D01*
X305940Y673550D01*
X305977Y673513D01*
X306007Y673471D01*
X306064Y673428D01*
X306115Y673378D01*
X306178Y673343D01*
X306204Y673324D01*
X306226Y673317D01*
X306262Y673297D01*
X309751Y671852D01*
X313252Y668351D01*
X315147Y663776D01*
X315147Y658824D01*
X314736Y657832D01*
X314709Y657719D01*
X314681Y657605D01*
X314681Y657599D01*
X314680Y657593D01*
X314691Y657476D01*
X314700Y657360D01*
X314702Y657354D01*
X314703Y657348D01*
X314751Y657240D01*
X314796Y657134D01*
X314801Y657128D01*
X314803Y657123D01*
X314816Y657109D01*
X314901Y657003D01*
X336092Y635812D01*
X336166Y635759D01*
X336235Y635699D01*
X336266Y635687D01*
X336292Y635668D01*
X336379Y635641D01*
X336464Y635607D01*
X336504Y635603D01*
X336527Y635596D01*
X336559Y635597D01*
X336630Y635589D01*
X355613Y635589D01*
X355703Y635603D01*
X355794Y635611D01*
X355824Y635623D01*
X355856Y635628D01*
X355937Y635671D01*
X356021Y635707D01*
X356053Y635733D01*
X356073Y635744D01*
X356096Y635767D01*
X356120Y635786D01*
X358641Y636831D01*
X361359Y636831D01*
X363869Y635791D01*
X365791Y633869D01*
X366831Y631359D01*
X366831Y628641D01*
X365791Y626131D01*
X363869Y624209D01*
X361359Y623169D01*
X358641Y623169D01*
X356111Y624217D01*
X356078Y624241D01*
X356008Y624301D01*
X355978Y624313D01*
X355952Y624332D01*
X355865Y624359D01*
X355780Y624393D01*
X355739Y624397D01*
X355717Y624404D01*
X355685Y624403D01*
X355613Y624411D01*
X332888Y624411D01*
X330834Y625262D01*
X316033Y640063D01*
X315954Y640120D01*
X315879Y640182D01*
X315854Y640192D01*
X315833Y640207D01*
X315740Y640236D01*
X315649Y640271D01*
X315623Y640272D01*
X315598Y640279D01*
X315501Y640277D01*
X315403Y640281D01*
X315378Y640274D01*
X315352Y640273D01*
X315261Y640240D01*
X315167Y640212D01*
X315146Y640198D01*
X315121Y640189D01*
X315045Y640128D01*
X314965Y640072D01*
X314950Y640051D01*
X314929Y640035D01*
X314876Y639953D01*
X314818Y639875D01*
X314810Y639850D01*
X314796Y639828D01*
X314772Y639733D01*
X314742Y639641D01*
X314742Y639615D01*
X314736Y639589D01*
X314744Y639492D01*
X314745Y639395D01*
X314754Y639364D01*
X314755Y639344D01*
X314768Y639314D01*
X314791Y639234D01*
X315147Y638376D01*
X315147Y633424D01*
X313252Y628850D01*
X312810Y628408D01*
X312799Y628392D01*
X312783Y628379D01*
X312727Y628292D01*
X312667Y628208D01*
X312661Y628189D01*
X312650Y628173D01*
X312625Y628072D01*
X312594Y627973D01*
X312595Y627953D01*
X312590Y627934D01*
X312598Y627831D01*
X312601Y627727D01*
X312608Y627709D01*
X312609Y627689D01*
X312650Y627594D01*
X312685Y627496D01*
X312698Y627481D01*
X312706Y627462D01*
X312810Y627331D01*
X320745Y619397D01*
X322424Y617718D01*
X323275Y615664D01*
X323275Y394944D01*
X323289Y394854D01*
X323297Y394763D01*
X323309Y394733D01*
X323314Y394702D01*
X323357Y394621D01*
X323393Y394537D01*
X323419Y394505D01*
X323430Y394484D01*
X323453Y394462D01*
X323498Y394406D01*
X340850Y377054D01*
X340924Y377001D01*
X340993Y376941D01*
X341024Y376929D01*
X341050Y376910D01*
X341137Y376883D01*
X341222Y376849D01*
X341262Y376845D01*
X341285Y376838D01*
X341317Y376839D01*
X341348Y376835D01*
X343869Y375791D01*
X345791Y373869D01*
X346831Y371359D01*
X346831Y368641D01*
X345791Y366131D01*
X343869Y364209D01*
X343290Y363969D01*
X343207Y363918D01*
X343121Y363872D01*
X343103Y363853D01*
X343081Y363840D01*
X343019Y363765D01*
X342952Y363694D01*
X342941Y363670D01*
X342924Y363650D01*
X342889Y363559D01*
X342848Y363471D01*
X342845Y363445D01*
X342836Y363421D01*
X342832Y363323D01*
X342821Y363227D01*
X342827Y363201D01*
X342826Y363175D01*
X342853Y363081D01*
X342873Y362986D01*
X342887Y362964D01*
X342894Y362939D01*
X342950Y362859D01*
X343000Y362775D01*
X343019Y362758D01*
X343034Y362737D01*
X343112Y362679D01*
X343187Y362615D01*
X343211Y362605D01*
X343232Y362590D01*
X343324Y362560D01*
X343415Y362523D01*
X343447Y362520D01*
X343466Y362514D01*
X343499Y362514D01*
X343581Y362505D01*
X344286Y362505D01*
X344376Y362519D01*
X344467Y362527D01*
X344497Y362539D01*
X344528Y362544D01*
X344609Y362587D01*
X344693Y362623D01*
X344725Y362649D01*
X344746Y362660D01*
X344768Y362683D01*
X344824Y362728D01*
X354188Y372092D01*
X354241Y372166D01*
X354301Y372235D01*
X354313Y372266D01*
X354332Y372292D01*
X354359Y372379D01*
X354393Y372464D01*
X354397Y372504D01*
X354404Y372527D01*
X354403Y372559D01*
X354411Y372630D01*
X354411Y414912D01*
X355262Y416966D01*
X442899Y504603D01*
X442967Y504697D01*
X443037Y504791D01*
X443039Y504797D01*
X443043Y504803D01*
X443077Y504913D01*
X443113Y505025D01*
X443113Y505032D01*
X443115Y505038D01*
X443112Y505154D01*
X443111Y505271D01*
X443109Y505278D01*
X443109Y505283D01*
X443102Y505301D01*
X443064Y505432D01*
X442653Y506424D01*
X442653Y511376D01*
X444548Y515951D01*
X448049Y519452D01*
X451538Y520897D01*
X451599Y520935D01*
X451664Y520964D01*
X451703Y520999D01*
X451747Y521026D01*
X451793Y521082D01*
X451845Y521130D01*
X451870Y521176D01*
X451904Y521216D01*
X451929Y521283D01*
X451964Y521346D01*
X451973Y521397D01*
X451992Y521445D01*
X451995Y521517D01*
X452008Y521588D01*
X452000Y521639D01*
X452002Y521691D01*
X451982Y521760D01*
X451972Y521831D01*
X451948Y521877D01*
X451934Y521927D01*
X451893Y521986D01*
X451860Y522050D01*
X451823Y522087D01*
X451793Y522129D01*
X451736Y522172D01*
X451685Y522222D01*
X451622Y522257D01*
X451596Y522276D01*
X451574Y522283D01*
X451538Y522303D01*
X448049Y523748D01*
X444548Y527249D01*
X442653Y531824D01*
X442653Y536776D01*
X444548Y541351D01*
X448049Y544852D01*
X451538Y546297D01*
X451599Y546335D01*
X451664Y546364D01*
X451703Y546399D01*
X451747Y546426D01*
X451793Y546482D01*
X451845Y546530D01*
X451870Y546576D01*
X451904Y546616D01*
X451929Y546683D01*
X451964Y546746D01*
X451973Y546797D01*
X451992Y546845D01*
X451995Y546917D01*
X452008Y546988D01*
X452000Y547039D01*
X452002Y547091D01*
X451982Y547160D01*
X451972Y547231D01*
X451948Y547277D01*
X451934Y547327D01*
X451893Y547386D01*
X451860Y547450D01*
X451823Y547487D01*
X451793Y547529D01*
X451736Y547572D01*
X451685Y547622D01*
X451622Y547657D01*
X451596Y547676D01*
X451574Y547683D01*
X451538Y547703D01*
X448049Y549148D01*
X444548Y552649D01*
X442653Y557224D01*
X442653Y562176D01*
X444548Y566751D01*
X448049Y570252D01*
X451538Y571697D01*
X451599Y571735D01*
X451664Y571764D01*
X451703Y571799D01*
X451747Y571826D01*
X451793Y571882D01*
X451845Y571930D01*
X451870Y571976D01*
X451904Y572016D01*
X451929Y572083D01*
X451964Y572146D01*
X451973Y572197D01*
X451992Y572245D01*
X451995Y572317D01*
X452008Y572388D01*
X452000Y572439D01*
X452002Y572491D01*
X451982Y572560D01*
X451972Y572631D01*
X451948Y572677D01*
X451934Y572727D01*
X451893Y572786D01*
X451860Y572850D01*
X451823Y572887D01*
X451793Y572929D01*
X451736Y572972D01*
X451685Y573022D01*
X451622Y573057D01*
X451596Y573076D01*
X451574Y573083D01*
X451538Y573103D01*
X448049Y574548D01*
X444548Y578049D01*
X442653Y582624D01*
X442653Y587576D01*
X444548Y592151D01*
X448049Y595652D01*
X451538Y597097D01*
X451599Y597135D01*
X451664Y597164D01*
X451703Y597199D01*
X451747Y597226D01*
X451793Y597282D01*
X451845Y597330D01*
X451870Y597376D01*
X451904Y597416D01*
X451929Y597483D01*
X451964Y597546D01*
X451973Y597597D01*
X451992Y597645D01*
X451995Y597717D01*
X452008Y597788D01*
X452000Y597839D01*
X452002Y597891D01*
X451982Y597960D01*
X451972Y598031D01*
X451948Y598077D01*
X451934Y598127D01*
X451893Y598186D01*
X451860Y598250D01*
X451823Y598287D01*
X451793Y598329D01*
X451736Y598372D01*
X451685Y598422D01*
X451622Y598457D01*
X451596Y598476D01*
X451574Y598483D01*
X451538Y598503D01*
X448049Y599948D01*
X444548Y603449D01*
X442653Y608024D01*
X442653Y612976D01*
X444548Y617551D01*
X448049Y621052D01*
X451538Y622497D01*
X451599Y622535D01*
X451664Y622564D01*
X451703Y622599D01*
X451747Y622626D01*
X451793Y622682D01*
X451845Y622730D01*
X451870Y622776D01*
X451904Y622816D01*
X451929Y622883D01*
X451964Y622946D01*
X451973Y622997D01*
X451992Y623045D01*
X451995Y623117D01*
X452008Y623188D01*
X452000Y623239D01*
X452002Y623291D01*
X451982Y623360D01*
X451972Y623431D01*
X451948Y623477D01*
X451934Y623527D01*
X451893Y623586D01*
X451860Y623650D01*
X451823Y623687D01*
X451793Y623729D01*
X451736Y623772D01*
X451685Y623822D01*
X451622Y623857D01*
X451596Y623876D01*
X451574Y623883D01*
X451538Y623903D01*
X448049Y625348D01*
X444548Y628849D01*
X442653Y633424D01*
X442653Y638376D01*
X444548Y642951D01*
X448049Y646452D01*
X451538Y647897D01*
X451599Y647935D01*
X451664Y647964D01*
X451703Y647999D01*
X451747Y648026D01*
X451793Y648082D01*
X451845Y648130D01*
X451870Y648176D01*
X451904Y648216D01*
X451929Y648283D01*
X451964Y648346D01*
X451973Y648397D01*
X451992Y648445D01*
X451995Y648517D01*
X452008Y648588D01*
X452000Y648639D01*
X452002Y648691D01*
X451982Y648760D01*
X451972Y648831D01*
X451948Y648877D01*
X451934Y648927D01*
X451893Y648986D01*
X451860Y649050D01*
X451823Y649087D01*
X451793Y649129D01*
X451736Y649172D01*
X451685Y649222D01*
X451622Y649257D01*
X451596Y649276D01*
X451574Y649283D01*
X451538Y649303D01*
X448049Y650748D01*
X444548Y654249D01*
X442653Y658824D01*
X442653Y663776D01*
X444548Y668351D01*
X448049Y671852D01*
X451538Y673297D01*
X451599Y673335D01*
X451664Y673364D01*
X451703Y673399D01*
X451747Y673426D01*
X451793Y673482D01*
X451845Y673530D01*
X451870Y673576D01*
X451904Y673616D01*
X451929Y673683D01*
X451964Y673746D01*
X451973Y673797D01*
X451992Y673845D01*
X451995Y673917D01*
X452008Y673988D01*
X452000Y674039D01*
X452002Y674091D01*
X451982Y674160D01*
X451972Y674231D01*
X451948Y674277D01*
X451934Y674327D01*
X451893Y674386D01*
X451860Y674450D01*
X451823Y674487D01*
X451793Y674529D01*
X451736Y674572D01*
X451685Y674622D01*
X451622Y674657D01*
X451596Y674676D01*
X451574Y674683D01*
X451538Y674703D01*
X448049Y676148D01*
X444548Y679649D01*
X442653Y684224D01*
X442653Y689176D01*
X444548Y693751D01*
X448049Y697252D01*
X451538Y698697D01*
X451599Y698735D01*
X451664Y698764D01*
X451703Y698799D01*
X451747Y698826D01*
X451793Y698882D01*
X451845Y698930D01*
X451870Y698976D01*
X451904Y699016D01*
X451929Y699083D01*
X451964Y699146D01*
X451973Y699197D01*
X451992Y699245D01*
X451995Y699317D01*
X452008Y699388D01*
X452000Y699439D01*
X452002Y699491D01*
X451982Y699560D01*
X451972Y699631D01*
X451948Y699677D01*
X451934Y699727D01*
X451893Y699786D01*
X451860Y699850D01*
X451823Y699887D01*
X451793Y699929D01*
X451736Y699972D01*
X451685Y700022D01*
X451622Y700057D01*
X451596Y700076D01*
X451574Y700083D01*
X451538Y700103D01*
X448049Y701548D01*
X444548Y705049D01*
X442653Y709624D01*
X442653Y714576D01*
X444548Y719151D01*
X448049Y722652D01*
X452624Y724547D01*
X457576Y724547D01*
X462151Y722652D01*
X465652Y719151D01*
X467547Y714576D01*
X467547Y709624D01*
X465652Y705049D01*
X462151Y701548D01*
X458662Y700103D01*
X458601Y700065D01*
X458536Y700036D01*
X458498Y700001D01*
X458453Y699974D01*
X458407Y699918D01*
X458355Y699870D01*
X458330Y699824D01*
X458296Y699784D01*
X458271Y699717D01*
X458236Y699654D01*
X458227Y699603D01*
X458208Y699555D01*
X458205Y699483D01*
X458192Y699412D01*
X458200Y699361D01*
X458198Y699309D01*
X458218Y699240D01*
X458228Y699169D01*
X458252Y699123D01*
X458266Y699073D01*
X458307Y699014D01*
X458340Y698950D01*
X458377Y698913D01*
X458407Y698871D01*
X458464Y698828D01*
X458515Y698778D01*
X458578Y698743D01*
X458604Y698724D01*
X458626Y698717D01*
X458662Y698697D01*
X462151Y697252D01*
X465652Y693751D01*
X467547Y689176D01*
X467547Y684224D01*
X465652Y679649D01*
X462151Y676148D01*
X458662Y674703D01*
X458601Y674665D01*
X458536Y674636D01*
X458498Y674601D01*
X458453Y674574D01*
X458407Y674518D01*
X458355Y674470D01*
X458330Y674424D01*
X458296Y674384D01*
X458271Y674317D01*
X458236Y674254D01*
X458227Y674203D01*
X458208Y674155D01*
X458205Y674083D01*
X458192Y674012D01*
X458200Y673961D01*
X458198Y673909D01*
X458218Y673840D01*
X458228Y673769D01*
X458252Y673723D01*
X458266Y673673D01*
X458307Y673614D01*
X458340Y673550D01*
X458377Y673513D01*
X458407Y673471D01*
X458464Y673428D01*
X458515Y673378D01*
X458578Y673343D01*
X458604Y673324D01*
X458626Y673317D01*
X458662Y673297D01*
X462151Y671852D01*
X465652Y668351D01*
X467452Y664006D01*
X467476Y663967D01*
X467492Y663923D01*
X467540Y663863D01*
X467581Y663797D01*
X467617Y663767D01*
X467645Y663731D01*
X467711Y663689D01*
X467771Y663640D01*
X467813Y663623D01*
X467852Y663598D01*
X467928Y663579D01*
X468000Y663552D01*
X468046Y663550D01*
X468091Y663538D01*
X468168Y663544D01*
X468246Y663541D01*
X468290Y663554D01*
X468336Y663557D01*
X468407Y663588D01*
X468482Y663610D01*
X468520Y663636D01*
X468562Y663654D01*
X468669Y663739D01*
X468684Y663750D01*
X468687Y663754D01*
X468693Y663759D01*
X479228Y674294D01*
X479281Y674368D01*
X479341Y674437D01*
X479353Y674467D01*
X479372Y674494D01*
X479399Y674580D01*
X479433Y674665D01*
X479437Y674706D01*
X479444Y674729D01*
X479443Y674761D01*
X479451Y674832D01*
X479451Y683443D01*
X481057Y687320D01*
X514280Y720543D01*
X514351Y720572D01*
X514407Y720607D01*
X514467Y720633D01*
X514532Y720685D01*
X514560Y720702D01*
X514572Y720717D01*
X514598Y720737D01*
X515675Y721814D01*
X519978Y723597D01*
X520039Y723635D01*
X520104Y723664D01*
X520143Y723699D01*
X520187Y723726D01*
X520233Y723782D01*
X520285Y723830D01*
X520310Y723876D01*
X520344Y723916D01*
X520369Y723983D01*
X520404Y724046D01*
X520413Y724097D01*
X520432Y724145D01*
X520435Y724217D01*
X520448Y724288D01*
X520440Y724339D01*
X520442Y724391D01*
X520422Y724460D01*
X520412Y724531D01*
X520388Y724577D01*
X520374Y724627D01*
X520333Y724686D01*
X520300Y724750D01*
X520263Y724787D01*
X520233Y724829D01*
X520176Y724872D01*
X520125Y724922D01*
X520062Y724957D01*
X520036Y724976D01*
X520014Y724983D01*
X519978Y725003D01*
X515675Y726786D01*
X512286Y730175D01*
X510451Y734603D01*
X510451Y739397D01*
X512286Y743825D01*
X515675Y747214D01*
X520103Y749049D01*
X524897Y749049D01*
X529325Y747214D01*
X532714Y743825D01*
X534549Y739397D01*
X534549Y734603D01*
X532714Y730175D01*
X529325Y726786D01*
X525022Y725003D01*
X524961Y724966D01*
X524896Y724936D01*
X524857Y724901D01*
X524813Y724874D01*
X524768Y724819D01*
X524715Y724770D01*
X524690Y724724D01*
X524656Y724684D01*
X524631Y724617D01*
X524596Y724554D01*
X524587Y724503D01*
X524568Y724455D01*
X524565Y724383D01*
X524552Y724312D01*
X524560Y724261D01*
X524558Y724209D01*
X524578Y724140D01*
X524588Y724069D01*
X524612Y724023D01*
X524626Y723973D01*
X524667Y723914D01*
X524700Y723850D01*
X524737Y723813D01*
X524767Y723771D01*
X524824Y723728D01*
X524875Y723678D01*
X524938Y723643D01*
X524964Y723624D01*
X524986Y723617D01*
X525022Y723597D01*
X529325Y721814D01*
X532714Y718425D01*
X533032Y717659D01*
X533094Y717559D01*
X533153Y717459D01*
X533158Y717455D01*
X533161Y717450D01*
X533252Y717375D01*
X533340Y717299D01*
X533346Y717297D01*
X533351Y717293D01*
X533459Y717251D01*
X533568Y717207D01*
X533576Y717206D01*
X533581Y717205D01*
X533599Y717204D01*
X533735Y717189D01*
X894859Y717189D01*
X896913Y716338D01*
X898592Y714659D01*
X933059Y680192D01*
X934738Y678513D01*
X935589Y676459D01*
X935589Y649388D01*
X934738Y647334D01*
X933059Y645655D01*
X923044Y635641D01*
X922976Y635546D01*
X922906Y635452D01*
X922904Y635446D01*
X922901Y635441D01*
X922866Y635329D01*
X922830Y635218D01*
X922830Y635212D01*
X922828Y635206D01*
X922831Y635089D01*
X922833Y634972D01*
X922835Y634965D01*
X922835Y634960D01*
X922841Y634942D01*
X922879Y634811D01*
X923549Y633195D01*
X923549Y627805D01*
X921486Y622825D01*
X917675Y619014D01*
X912695Y616951D01*
X907305Y616951D01*
X902325Y619014D01*
X898514Y622825D01*
X896451Y627805D01*
X896451Y633195D01*
X898514Y638175D01*
X902325Y641986D01*
X907305Y644049D01*
X912695Y644049D01*
X914311Y643379D01*
X914425Y643353D01*
X914538Y643324D01*
X914544Y643325D01*
X914551Y643323D01*
X914667Y643334D01*
X914783Y643343D01*
X914789Y643346D01*
X914795Y643346D01*
X914903Y643394D01*
X915010Y643440D01*
X915015Y643444D01*
X915020Y643446D01*
X915034Y643459D01*
X915141Y643544D01*
X924188Y652592D01*
X924241Y652666D01*
X924301Y652735D01*
X924313Y652766D01*
X924332Y652792D01*
X924359Y652879D01*
X924393Y652964D01*
X924397Y653004D01*
X924404Y653027D01*
X924403Y653059D01*
X924411Y653130D01*
X924411Y655862D01*
X924400Y655933D01*
X924398Y656004D01*
X924380Y656053D01*
X924372Y656105D01*
X924338Y656168D01*
X924313Y656235D01*
X924281Y656276D01*
X924256Y656322D01*
X924204Y656371D01*
X924160Y656427D01*
X924116Y656456D01*
X924078Y656491D01*
X924013Y656522D01*
X923953Y656560D01*
X923902Y656573D01*
X923855Y656595D01*
X923784Y656603D01*
X923714Y656620D01*
X923662Y656616D01*
X923611Y656622D01*
X923540Y656607D01*
X923469Y656601D01*
X923421Y656581D01*
X923370Y656570D01*
X923309Y656533D01*
X923243Y656505D01*
X923187Y656460D01*
X923159Y656444D01*
X923144Y656426D01*
X923112Y656400D01*
X921763Y655051D01*
X898237Y655051D01*
X896451Y656837D01*
X896451Y680363D01*
X898237Y682149D01*
X913457Y682149D01*
X913528Y682160D01*
X913600Y682162D01*
X913649Y682180D01*
X913700Y682188D01*
X913763Y682222D01*
X913831Y682247D01*
X913871Y682279D01*
X913917Y682304D01*
X913967Y682355D01*
X914023Y682400D01*
X914051Y682444D01*
X914087Y682482D01*
X914117Y682547D01*
X914156Y682607D01*
X914168Y682658D01*
X914190Y682705D01*
X914198Y682776D01*
X914216Y682846D01*
X914212Y682898D01*
X914217Y682949D01*
X914202Y683020D01*
X914197Y683091D01*
X914176Y683139D01*
X914165Y683190D01*
X914128Y683251D01*
X914100Y683317D01*
X914056Y683373D01*
X914039Y683401D01*
X914021Y683416D01*
X913995Y683448D01*
X891655Y705788D01*
X891581Y705841D01*
X891512Y705901D01*
X891482Y705913D01*
X891456Y705932D01*
X891369Y705959D01*
X891284Y705993D01*
X891243Y705997D01*
X891221Y706004D01*
X891188Y706003D01*
X891117Y706011D01*
X547090Y706011D01*
X547019Y706000D01*
X546947Y705998D01*
X546898Y705980D01*
X546847Y705972D01*
X546784Y705938D01*
X546716Y705913D01*
X546676Y705881D01*
X546630Y705856D01*
X546580Y705804D01*
X546524Y705760D01*
X546496Y705716D01*
X546460Y705678D01*
X546430Y705613D01*
X546391Y705553D01*
X546379Y705502D01*
X546357Y705455D01*
X546349Y705384D01*
X546331Y705314D01*
X546335Y705262D01*
X546330Y705211D01*
X546345Y705140D01*
X546350Y705069D01*
X546371Y705021D01*
X546382Y704970D01*
X546419Y704909D01*
X546447Y704843D01*
X546491Y704787D01*
X546508Y704759D01*
X546526Y704744D01*
X546551Y704712D01*
X556943Y694320D01*
X558549Y690443D01*
X558549Y376350D01*
X558552Y376330D01*
X558550Y376311D01*
X558572Y376209D01*
X558588Y376107D01*
X558598Y376090D01*
X558602Y376070D01*
X558655Y375981D01*
X558704Y375890D01*
X558718Y375876D01*
X558728Y375859D01*
X558807Y375792D01*
X558882Y375720D01*
X558900Y375712D01*
X558915Y375699D01*
X559011Y375660D01*
X559105Y375617D01*
X559125Y375615D01*
X559143Y375607D01*
X559310Y375589D01*
X871112Y375589D01*
X873166Y374738D01*
X884738Y363166D01*
X885589Y361112D01*
X885589Y344530D01*
X885603Y344440D01*
X885611Y344349D01*
X885623Y344319D01*
X885628Y344288D01*
X885671Y344207D01*
X885707Y344123D01*
X885733Y344091D01*
X885744Y344070D01*
X885767Y344048D01*
X885812Y343992D01*
X904859Y324944D01*
X904953Y324877D01*
X905048Y324806D01*
X905054Y324804D01*
X905059Y324801D01*
X905170Y324767D01*
X905282Y324730D01*
X905288Y324730D01*
X905294Y324728D01*
X905411Y324731D01*
X905528Y324733D01*
X905535Y324735D01*
X905540Y324735D01*
X905558Y324741D01*
X905689Y324779D01*
X907305Y325449D01*
X912695Y325449D01*
X917675Y323386D01*
X921486Y319575D01*
X923549Y314595D01*
X923549Y309205D01*
X921486Y304225D01*
X917675Y300414D01*
X912695Y298351D01*
X907305Y298351D01*
X902325Y300414D01*
X898514Y304225D01*
X896451Y309205D01*
X896451Y314595D01*
X897121Y316211D01*
X897147Y316325D01*
X897176Y316438D01*
X897175Y316444D01*
X897177Y316451D01*
X897166Y316567D01*
X897157Y316683D01*
X897154Y316689D01*
X897154Y316695D01*
X897106Y316803D01*
X897060Y316910D01*
X897056Y316916D01*
X897054Y316920D01*
X897041Y316934D01*
X896956Y317041D01*
X875262Y338734D01*
X874411Y340788D01*
X874411Y357370D01*
X874397Y357460D01*
X874389Y357551D01*
X874377Y357581D01*
X874372Y357612D01*
X874329Y357693D01*
X874293Y357777D01*
X874267Y357809D01*
X874256Y357830D01*
X874233Y357852D01*
X874188Y357908D01*
X867908Y364188D01*
X867834Y364241D01*
X867765Y364301D01*
X867734Y364313D01*
X867708Y364332D01*
X867621Y364359D01*
X867536Y364393D01*
X867496Y364397D01*
X867473Y364404D01*
X867441Y364403D01*
X867370Y364411D01*
X559310Y364411D01*
X559290Y364408D01*
X559271Y364410D01*
X559169Y364388D01*
X559067Y364372D01*
X559050Y364362D01*
X559030Y364358D01*
X558941Y364305D01*
X558850Y364256D01*
X558836Y364242D01*
X558819Y364232D01*
X558752Y364153D01*
X558680Y364078D01*
X558672Y364060D01*
X558659Y364045D01*
X558620Y363949D01*
X558577Y363855D01*
X558575Y363835D01*
X558567Y363817D01*
X558549Y363650D01*
X558549Y171902D01*
X556943Y168025D01*
X548375Y159457D01*
X544498Y157851D01*
X528669Y157851D01*
X528605Y157841D01*
X528539Y157840D01*
X528459Y157817D01*
X528427Y157812D01*
X528413Y157804D01*
X528407Y157803D01*
X528400Y157800D01*
X528378Y157793D01*
X525022Y156403D01*
X524961Y156365D01*
X524896Y156336D01*
X524858Y156301D01*
X524813Y156274D01*
X524767Y156218D01*
X524715Y156170D01*
X524690Y156124D01*
X524656Y156084D01*
X524631Y156017D01*
X524596Y155954D01*
X524587Y155903D01*
X524568Y155855D01*
X524565Y155783D01*
X524552Y155712D01*
X524560Y155661D01*
X524558Y155609D01*
X524578Y155540D01*
X524588Y155469D01*
X524612Y155423D01*
X524626Y155373D01*
X524667Y155314D01*
X524700Y155250D01*
X524737Y155213D01*
X524767Y155171D01*
X524824Y155128D01*
X524875Y155078D01*
X524938Y155043D01*
X524964Y155024D01*
X524986Y155017D01*
X525022Y154997D01*
X529325Y153214D01*
X532714Y149825D01*
X534549Y145397D01*
X534549Y140603D01*
X532714Y136175D01*
X529325Y132786D01*
X525022Y131003D01*
X524961Y130966D01*
X524896Y130936D01*
X524857Y130901D01*
X524813Y130874D01*
X524768Y130819D01*
X524715Y130770D01*
X524690Y130724D01*
X524656Y130684D01*
X524631Y130617D01*
X524596Y130554D01*
X524587Y130503D01*
X524568Y130455D01*
X524565Y130383D01*
X524552Y130312D01*
X524560Y130261D01*
X524558Y130209D01*
X524578Y130140D01*
X524588Y130069D01*
X524612Y130023D01*
X524626Y129973D01*
X524667Y129914D01*
X524700Y129850D01*
X524737Y129813D01*
X524767Y129771D01*
X524824Y129728D01*
X524875Y129678D01*
X524938Y129643D01*
X524964Y129624D01*
X524986Y129617D01*
X525022Y129597D01*
X529325Y127814D01*
X532714Y124425D01*
X534549Y119997D01*
X534549Y115203D01*
X532714Y110775D01*
X529325Y107386D01*
X524897Y105551D01*
X520103Y105551D01*
G37*
%LPD*%
G36*
X516395Y178959D02*
X516395Y178959D01*
X516461Y178960D01*
X516541Y178983D01*
X516573Y178988D01*
X516590Y178998D01*
X516622Y179007D01*
X519978Y180397D01*
X520039Y180435D01*
X520104Y180464D01*
X520143Y180499D01*
X520187Y180526D01*
X520233Y180582D01*
X520285Y180630D01*
X520310Y180676D01*
X520344Y180716D01*
X520369Y180783D01*
X520404Y180846D01*
X520413Y180897D01*
X520432Y180945D01*
X520435Y181017D01*
X520448Y181088D01*
X520440Y181139D01*
X520442Y181191D01*
X520422Y181260D01*
X520412Y181331D01*
X520388Y181377D01*
X520374Y181427D01*
X520333Y181486D01*
X520300Y181550D01*
X520263Y181587D01*
X520233Y181629D01*
X520176Y181672D01*
X520125Y181722D01*
X520062Y181757D01*
X520036Y181776D01*
X520014Y181783D01*
X519978Y181803D01*
X515675Y183586D01*
X512286Y186975D01*
X510451Y191403D01*
X510451Y196197D01*
X512286Y200625D01*
X515675Y204014D01*
X519978Y205797D01*
X520039Y205835D01*
X520104Y205864D01*
X520143Y205899D01*
X520187Y205926D01*
X520233Y205982D01*
X520285Y206030D01*
X520310Y206076D01*
X520344Y206116D01*
X520369Y206183D01*
X520404Y206246D01*
X520413Y206297D01*
X520432Y206345D01*
X520435Y206417D01*
X520448Y206488D01*
X520440Y206539D01*
X520442Y206591D01*
X520422Y206660D01*
X520412Y206731D01*
X520388Y206777D01*
X520374Y206827D01*
X520333Y206886D01*
X520300Y206950D01*
X520263Y206987D01*
X520233Y207029D01*
X520176Y207072D01*
X520125Y207122D01*
X520062Y207157D01*
X520036Y207176D01*
X520014Y207183D01*
X519978Y207203D01*
X515675Y208986D01*
X512286Y212375D01*
X510451Y216803D01*
X510451Y221597D01*
X512286Y226025D01*
X515675Y229414D01*
X519978Y231197D01*
X520039Y231235D01*
X520104Y231264D01*
X520143Y231299D01*
X520187Y231326D01*
X520233Y231382D01*
X520285Y231430D01*
X520310Y231476D01*
X520344Y231516D01*
X520369Y231583D01*
X520404Y231646D01*
X520413Y231697D01*
X520432Y231745D01*
X520435Y231817D01*
X520448Y231888D01*
X520440Y231939D01*
X520442Y231991D01*
X520422Y232060D01*
X520412Y232131D01*
X520388Y232177D01*
X520374Y232227D01*
X520333Y232286D01*
X520300Y232350D01*
X520263Y232387D01*
X520233Y232429D01*
X520176Y232472D01*
X520125Y232522D01*
X520062Y232557D01*
X520036Y232576D01*
X520014Y232583D01*
X519978Y232603D01*
X515675Y234386D01*
X512286Y237775D01*
X510451Y242203D01*
X510451Y246997D01*
X512286Y251425D01*
X515675Y254814D01*
X519978Y256597D01*
X520039Y256635D01*
X520104Y256664D01*
X520143Y256699D01*
X520187Y256726D01*
X520233Y256782D01*
X520285Y256830D01*
X520310Y256876D01*
X520344Y256916D01*
X520369Y256983D01*
X520404Y257046D01*
X520413Y257097D01*
X520432Y257145D01*
X520435Y257217D01*
X520448Y257288D01*
X520440Y257339D01*
X520442Y257391D01*
X520422Y257460D01*
X520412Y257531D01*
X520388Y257577D01*
X520374Y257627D01*
X520333Y257686D01*
X520300Y257750D01*
X520263Y257787D01*
X520233Y257829D01*
X520176Y257872D01*
X520125Y257922D01*
X520062Y257957D01*
X520036Y257976D01*
X520014Y257983D01*
X519978Y258003D01*
X515675Y259786D01*
X512286Y263175D01*
X510451Y267603D01*
X510451Y272397D01*
X512286Y276825D01*
X515675Y280214D01*
X519978Y281997D01*
X520039Y282035D01*
X520104Y282064D01*
X520143Y282099D01*
X520187Y282126D01*
X520233Y282182D01*
X520285Y282230D01*
X520310Y282276D01*
X520344Y282316D01*
X520369Y282383D01*
X520404Y282446D01*
X520413Y282497D01*
X520432Y282545D01*
X520435Y282617D01*
X520448Y282688D01*
X520440Y282739D01*
X520442Y282791D01*
X520422Y282860D01*
X520412Y282931D01*
X520388Y282977D01*
X520374Y283027D01*
X520333Y283086D01*
X520300Y283150D01*
X520263Y283187D01*
X520233Y283229D01*
X520176Y283272D01*
X520125Y283322D01*
X520062Y283357D01*
X520036Y283376D01*
X520014Y283383D01*
X519978Y283403D01*
X515675Y285186D01*
X512286Y288575D01*
X510451Y293003D01*
X510451Y297797D01*
X512286Y302225D01*
X515675Y305614D01*
X519978Y307397D01*
X520039Y307435D01*
X520104Y307464D01*
X520143Y307499D01*
X520187Y307526D01*
X520233Y307582D01*
X520285Y307630D01*
X520310Y307676D01*
X520344Y307716D01*
X520369Y307783D01*
X520404Y307846D01*
X520413Y307897D01*
X520432Y307945D01*
X520435Y308017D01*
X520448Y308088D01*
X520440Y308139D01*
X520442Y308191D01*
X520422Y308260D01*
X520412Y308331D01*
X520388Y308377D01*
X520374Y308427D01*
X520333Y308486D01*
X520300Y308550D01*
X520263Y308587D01*
X520233Y308629D01*
X520176Y308672D01*
X520125Y308722D01*
X520062Y308757D01*
X520036Y308776D01*
X520014Y308783D01*
X519978Y308803D01*
X515675Y310586D01*
X512286Y313975D01*
X510451Y318403D01*
X510451Y323197D01*
X512286Y327625D01*
X515675Y331014D01*
X520103Y332849D01*
X524897Y332849D01*
X529325Y331014D01*
X532714Y327625D01*
X534549Y323197D01*
X534549Y318403D01*
X532714Y313975D01*
X529325Y310586D01*
X525022Y308803D01*
X524961Y308766D01*
X524896Y308736D01*
X524857Y308701D01*
X524813Y308674D01*
X524768Y308619D01*
X524715Y308570D01*
X524690Y308524D01*
X524656Y308484D01*
X524631Y308417D01*
X524596Y308354D01*
X524587Y308303D01*
X524568Y308255D01*
X524565Y308183D01*
X524552Y308112D01*
X524560Y308061D01*
X524558Y308009D01*
X524578Y307940D01*
X524588Y307869D01*
X524612Y307823D01*
X524626Y307773D01*
X524667Y307714D01*
X524700Y307650D01*
X524737Y307613D01*
X524767Y307571D01*
X524824Y307528D01*
X524875Y307478D01*
X524938Y307443D01*
X524964Y307424D01*
X524986Y307417D01*
X525022Y307397D01*
X529325Y305614D01*
X532714Y302225D01*
X534549Y297797D01*
X534549Y293003D01*
X532714Y288575D01*
X529325Y285186D01*
X525022Y283403D01*
X524961Y283366D01*
X524896Y283336D01*
X524857Y283301D01*
X524813Y283274D01*
X524768Y283219D01*
X524715Y283170D01*
X524690Y283124D01*
X524656Y283084D01*
X524631Y283017D01*
X524596Y282954D01*
X524587Y282903D01*
X524568Y282855D01*
X524565Y282783D01*
X524552Y282712D01*
X524560Y282661D01*
X524558Y282609D01*
X524578Y282540D01*
X524588Y282469D01*
X524612Y282423D01*
X524626Y282373D01*
X524667Y282314D01*
X524700Y282250D01*
X524737Y282213D01*
X524767Y282171D01*
X524824Y282128D01*
X524875Y282078D01*
X524938Y282043D01*
X524964Y282024D01*
X524986Y282017D01*
X525022Y281997D01*
X529325Y280214D01*
X532714Y276825D01*
X534549Y272397D01*
X534549Y267603D01*
X532714Y263175D01*
X529325Y259786D01*
X525022Y258003D01*
X524961Y257966D01*
X524896Y257936D01*
X524857Y257901D01*
X524813Y257874D01*
X524768Y257819D01*
X524715Y257770D01*
X524690Y257724D01*
X524656Y257684D01*
X524631Y257617D01*
X524596Y257554D01*
X524587Y257503D01*
X524568Y257455D01*
X524565Y257383D01*
X524552Y257312D01*
X524560Y257261D01*
X524558Y257209D01*
X524578Y257140D01*
X524588Y257069D01*
X524612Y257023D01*
X524626Y256973D01*
X524667Y256914D01*
X524700Y256850D01*
X524737Y256813D01*
X524767Y256771D01*
X524824Y256728D01*
X524875Y256678D01*
X524938Y256643D01*
X524964Y256624D01*
X524986Y256617D01*
X525022Y256597D01*
X529325Y254814D01*
X532714Y251425D01*
X534549Y246997D01*
X534549Y242203D01*
X532714Y237775D01*
X529325Y234386D01*
X525022Y232603D01*
X524961Y232566D01*
X524896Y232536D01*
X524857Y232501D01*
X524813Y232474D01*
X524768Y232419D01*
X524715Y232370D01*
X524690Y232324D01*
X524656Y232284D01*
X524631Y232217D01*
X524596Y232154D01*
X524587Y232103D01*
X524568Y232055D01*
X524565Y231983D01*
X524552Y231912D01*
X524560Y231861D01*
X524558Y231809D01*
X524578Y231740D01*
X524588Y231669D01*
X524612Y231623D01*
X524626Y231573D01*
X524667Y231514D01*
X524700Y231450D01*
X524737Y231413D01*
X524767Y231371D01*
X524824Y231328D01*
X524875Y231278D01*
X524938Y231243D01*
X524964Y231224D01*
X524986Y231217D01*
X525022Y231197D01*
X529325Y229414D01*
X532714Y226025D01*
X534549Y221597D01*
X534549Y216803D01*
X532714Y212375D01*
X529325Y208986D01*
X525022Y207203D01*
X524961Y207166D01*
X524896Y207136D01*
X524857Y207101D01*
X524813Y207074D01*
X524768Y207019D01*
X524715Y206970D01*
X524690Y206924D01*
X524656Y206884D01*
X524631Y206817D01*
X524596Y206754D01*
X524587Y206703D01*
X524568Y206655D01*
X524565Y206583D01*
X524552Y206512D01*
X524560Y206461D01*
X524558Y206409D01*
X524578Y206340D01*
X524588Y206269D01*
X524612Y206223D01*
X524626Y206173D01*
X524667Y206114D01*
X524700Y206050D01*
X524737Y206013D01*
X524767Y205971D01*
X524824Y205928D01*
X524875Y205878D01*
X524938Y205843D01*
X524964Y205824D01*
X524986Y205817D01*
X525022Y205797D01*
X529325Y204014D01*
X532714Y200625D01*
X534549Y196197D01*
X534549Y191403D01*
X532714Y186975D01*
X529325Y183586D01*
X525022Y181803D01*
X524961Y181766D01*
X524896Y181736D01*
X524857Y181701D01*
X524813Y181674D01*
X524768Y181619D01*
X524715Y181570D01*
X524690Y181524D01*
X524656Y181484D01*
X524631Y181417D01*
X524596Y181354D01*
X524587Y181303D01*
X524568Y181255D01*
X524565Y181183D01*
X524552Y181112D01*
X524560Y181061D01*
X524558Y181009D01*
X524578Y180940D01*
X524588Y180869D01*
X524612Y180823D01*
X524626Y180773D01*
X524667Y180714D01*
X524700Y180650D01*
X524737Y180613D01*
X524767Y180571D01*
X524824Y180528D01*
X524875Y180478D01*
X524938Y180443D01*
X524964Y180424D01*
X524986Y180417D01*
X525022Y180397D01*
X528378Y179007D01*
X528442Y178992D01*
X528503Y178967D01*
X528586Y178958D01*
X528618Y178951D01*
X528637Y178952D01*
X528669Y178949D01*
X536690Y178949D01*
X536710Y178952D01*
X536729Y178950D01*
X536831Y178972D01*
X536933Y178988D01*
X536950Y178998D01*
X536970Y179002D01*
X537059Y179055D01*
X537150Y179104D01*
X537164Y179118D01*
X537181Y179128D01*
X537248Y179207D01*
X537320Y179282D01*
X537328Y179300D01*
X537341Y179315D01*
X537380Y179411D01*
X537423Y179505D01*
X537425Y179525D01*
X537433Y179543D01*
X537451Y179710D01*
X537451Y360290D01*
X537448Y360310D01*
X537450Y360329D01*
X537428Y360431D01*
X537412Y360533D01*
X537402Y360550D01*
X537398Y360570D01*
X537345Y360659D01*
X537296Y360750D01*
X537282Y360764D01*
X537272Y360781D01*
X537193Y360848D01*
X537118Y360920D01*
X537100Y360928D01*
X537085Y360941D01*
X536989Y360980D01*
X536895Y361023D01*
X536875Y361025D01*
X536857Y361033D01*
X536690Y361051D01*
X528669Y361051D01*
X528605Y361041D01*
X528539Y361040D01*
X528459Y361017D01*
X528427Y361012D01*
X528409Y361002D01*
X528378Y360993D01*
X524897Y359551D01*
X520103Y359551D01*
X515675Y361386D01*
X513782Y363278D01*
X513766Y363290D01*
X513754Y363305D01*
X513666Y363362D01*
X513583Y363422D01*
X513564Y363428D01*
X513547Y363438D01*
X513446Y363464D01*
X513347Y363494D01*
X513327Y363494D01*
X513308Y363499D01*
X513205Y363491D01*
X513102Y363488D01*
X513083Y363481D01*
X513063Y363479D01*
X512968Y363439D01*
X512871Y363403D01*
X512855Y363391D01*
X512837Y363383D01*
X512706Y363278D01*
X341005Y191578D01*
X338951Y190727D01*
X217029Y190727D01*
X216958Y190716D01*
X216886Y190714D01*
X216837Y190696D01*
X216786Y190688D01*
X216723Y190654D01*
X216655Y190629D01*
X216615Y190597D01*
X216569Y190572D01*
X216519Y190520D01*
X216463Y190476D01*
X216435Y190432D01*
X216399Y190394D01*
X216369Y190329D01*
X216330Y190269D01*
X216318Y190218D01*
X216296Y190171D01*
X216288Y190100D01*
X216270Y190030D01*
X216274Y189978D01*
X216268Y189927D01*
X216284Y189856D01*
X216289Y189785D01*
X216310Y189737D01*
X216321Y189686D01*
X216358Y189625D01*
X216386Y189559D01*
X216430Y189503D01*
X216447Y189475D01*
X216465Y189460D01*
X216490Y189428D01*
X226746Y179172D01*
X226820Y179119D01*
X226890Y179059D01*
X226920Y179047D01*
X226946Y179028D01*
X227033Y179001D01*
X227118Y178967D01*
X227159Y178963D01*
X227181Y178956D01*
X227213Y178957D01*
X227285Y178949D01*
X516331Y178949D01*
X516395Y178959D01*
G37*
%LPC*%
G36*
X907305Y426451D02*
X907305Y426451D01*
X903824Y427893D01*
X903760Y427908D01*
X903699Y427933D01*
X903616Y427942D01*
X903584Y427949D01*
X903565Y427948D01*
X903532Y427951D01*
X866603Y427951D01*
X862175Y429786D01*
X839786Y452175D01*
X837951Y456603D01*
X837951Y500474D01*
X837940Y500545D01*
X837938Y500616D01*
X837920Y500665D01*
X837912Y500717D01*
X837878Y500780D01*
X837853Y500847D01*
X837821Y500888D01*
X837796Y500934D01*
X837744Y500983D01*
X837700Y501039D01*
X837656Y501068D01*
X837618Y501103D01*
X837553Y501134D01*
X837493Y501172D01*
X837442Y501185D01*
X837395Y501207D01*
X837324Y501215D01*
X837254Y501233D01*
X837202Y501228D01*
X837151Y501234D01*
X837080Y501219D01*
X837009Y501213D01*
X836961Y501193D01*
X836910Y501182D01*
X836849Y501145D01*
X836783Y501117D01*
X836727Y501072D01*
X836699Y501056D01*
X836684Y501038D01*
X836652Y501012D01*
X834125Y498486D01*
X829697Y496651D01*
X824903Y496651D01*
X820475Y498486D01*
X817086Y501875D01*
X815251Y506303D01*
X815251Y511097D01*
X817086Y515525D01*
X820475Y518914D01*
X824778Y520697D01*
X824839Y520735D01*
X824904Y520764D01*
X824943Y520799D01*
X824987Y520826D01*
X825033Y520882D01*
X825085Y520930D01*
X825110Y520976D01*
X825144Y521016D01*
X825169Y521083D01*
X825204Y521146D01*
X825213Y521197D01*
X825232Y521245D01*
X825235Y521317D01*
X825248Y521388D01*
X825240Y521439D01*
X825242Y521491D01*
X825222Y521560D01*
X825212Y521631D01*
X825188Y521677D01*
X825174Y521727D01*
X825133Y521786D01*
X825100Y521850D01*
X825063Y521887D01*
X825033Y521929D01*
X824976Y521972D01*
X824925Y522022D01*
X824862Y522057D01*
X824836Y522076D01*
X824814Y522083D01*
X824778Y522103D01*
X820475Y523886D01*
X817086Y527275D01*
X815251Y531703D01*
X815251Y536497D01*
X817086Y540925D01*
X820475Y544314D01*
X824903Y546149D01*
X829697Y546149D01*
X834125Y544314D01*
X836652Y541788D01*
X836710Y541746D01*
X836762Y541697D01*
X836809Y541675D01*
X836851Y541644D01*
X836920Y541623D01*
X836985Y541593D01*
X837037Y541587D01*
X837087Y541572D01*
X837158Y541574D01*
X837229Y541566D01*
X837280Y541577D01*
X837332Y541578D01*
X837400Y541603D01*
X837470Y541618D01*
X837515Y541645D01*
X837563Y541663D01*
X837619Y541708D01*
X837681Y541744D01*
X837715Y541784D01*
X837755Y541816D01*
X837794Y541877D01*
X837841Y541931D01*
X837860Y541979D01*
X837888Y542023D01*
X837906Y542093D01*
X837933Y542159D01*
X837941Y542231D01*
X837949Y542262D01*
X837947Y542285D01*
X837951Y542326D01*
X837951Y591694D01*
X837937Y591784D01*
X837929Y591875D01*
X837917Y591905D01*
X837912Y591937D01*
X837869Y592017D01*
X837833Y592101D01*
X837807Y592133D01*
X837796Y592154D01*
X837773Y592176D01*
X837728Y592232D01*
X835232Y594728D01*
X835158Y594781D01*
X835089Y594841D01*
X835059Y594853D01*
X835032Y594872D01*
X834946Y594899D01*
X834861Y594933D01*
X834820Y594937D01*
X834797Y594944D01*
X834765Y594943D01*
X834694Y594951D01*
X828203Y594951D01*
X823775Y596786D01*
X817086Y603475D01*
X815251Y607903D01*
X815251Y612697D01*
X817086Y617125D01*
X820475Y620514D01*
X822938Y621534D01*
X822977Y621559D01*
X823020Y621574D01*
X823080Y621623D01*
X823147Y621664D01*
X823176Y621699D01*
X823212Y621728D01*
X823254Y621794D01*
X823303Y621854D01*
X823320Y621896D01*
X823345Y621935D01*
X823364Y622011D01*
X823392Y622083D01*
X823394Y622129D01*
X823405Y622174D01*
X823399Y622251D01*
X823402Y622329D01*
X823389Y622373D01*
X823386Y622419D01*
X823355Y622490D01*
X823333Y622565D01*
X823307Y622603D01*
X823289Y622645D01*
X823204Y622752D01*
X823193Y622767D01*
X823189Y622770D01*
X823184Y622776D01*
X821678Y624282D01*
X817086Y628875D01*
X815251Y633303D01*
X815251Y638097D01*
X817086Y642525D01*
X820475Y645914D01*
X824778Y647697D01*
X824839Y647735D01*
X824904Y647764D01*
X824943Y647799D01*
X824987Y647826D01*
X825033Y647882D01*
X825085Y647930D01*
X825110Y647976D01*
X825144Y648016D01*
X825169Y648083D01*
X825204Y648146D01*
X825213Y648197D01*
X825232Y648245D01*
X825235Y648317D01*
X825248Y648388D01*
X825240Y648439D01*
X825242Y648491D01*
X825222Y648560D01*
X825212Y648631D01*
X825188Y648677D01*
X825174Y648727D01*
X825133Y648786D01*
X825100Y648850D01*
X825063Y648887D01*
X825033Y648929D01*
X824976Y648972D01*
X824925Y649022D01*
X824862Y649057D01*
X824836Y649076D01*
X824814Y649083D01*
X824778Y649103D01*
X820475Y650886D01*
X817086Y654275D01*
X815251Y658703D01*
X815251Y663497D01*
X817086Y667925D01*
X820475Y671314D01*
X824778Y673097D01*
X824839Y673135D01*
X824904Y673164D01*
X824943Y673199D01*
X824987Y673226D01*
X825033Y673282D01*
X825085Y673330D01*
X825110Y673376D01*
X825144Y673416D01*
X825169Y673483D01*
X825204Y673546D01*
X825213Y673597D01*
X825232Y673645D01*
X825235Y673717D01*
X825248Y673788D01*
X825240Y673839D01*
X825242Y673891D01*
X825222Y673960D01*
X825212Y674031D01*
X825188Y674077D01*
X825174Y674127D01*
X825133Y674186D01*
X825100Y674250D01*
X825063Y674287D01*
X825033Y674329D01*
X824976Y674372D01*
X824925Y674422D01*
X824862Y674457D01*
X824836Y674476D01*
X824814Y674483D01*
X824778Y674503D01*
X820475Y676286D01*
X817086Y679675D01*
X815251Y684103D01*
X815251Y688897D01*
X817086Y693325D01*
X820475Y696714D01*
X824903Y698549D01*
X829697Y698549D01*
X834125Y696714D01*
X837514Y693325D01*
X839349Y688897D01*
X839349Y684103D01*
X837514Y679675D01*
X834125Y676286D01*
X829822Y674503D01*
X829761Y674466D01*
X829696Y674436D01*
X829657Y674401D01*
X829613Y674374D01*
X829568Y674319D01*
X829515Y674270D01*
X829490Y674224D01*
X829456Y674184D01*
X829431Y674117D01*
X829396Y674054D01*
X829387Y674003D01*
X829368Y673955D01*
X829365Y673883D01*
X829352Y673812D01*
X829360Y673761D01*
X829358Y673709D01*
X829378Y673640D01*
X829388Y673569D01*
X829412Y673523D01*
X829426Y673473D01*
X829467Y673414D01*
X829500Y673350D01*
X829537Y673313D01*
X829567Y673271D01*
X829624Y673228D01*
X829675Y673178D01*
X829738Y673143D01*
X829764Y673124D01*
X829786Y673117D01*
X829822Y673097D01*
X834125Y671314D01*
X837514Y667925D01*
X839349Y663497D01*
X839349Y658703D01*
X837514Y654275D01*
X834125Y650886D01*
X829822Y649103D01*
X829761Y649066D01*
X829696Y649036D01*
X829657Y649001D01*
X829613Y648974D01*
X829568Y648919D01*
X829515Y648870D01*
X829490Y648824D01*
X829456Y648784D01*
X829431Y648717D01*
X829396Y648654D01*
X829387Y648603D01*
X829368Y648555D01*
X829365Y648483D01*
X829352Y648412D01*
X829360Y648361D01*
X829358Y648309D01*
X829378Y648240D01*
X829388Y648169D01*
X829412Y648123D01*
X829426Y648073D01*
X829467Y648014D01*
X829500Y647950D01*
X829537Y647913D01*
X829567Y647871D01*
X829624Y647828D01*
X829675Y647778D01*
X829738Y647743D01*
X829764Y647724D01*
X829786Y647717D01*
X829822Y647697D01*
X834125Y645914D01*
X836768Y643272D01*
X836842Y643219D01*
X836911Y643159D01*
X836941Y643147D01*
X836968Y643128D01*
X837054Y643101D01*
X837139Y643067D01*
X837180Y643063D01*
X837203Y643056D01*
X837235Y643057D01*
X837306Y643049D01*
X849397Y643049D01*
X853825Y641214D01*
X881214Y613825D01*
X883049Y609397D01*
X883049Y509306D01*
X883063Y509216D01*
X883071Y509125D01*
X883083Y509095D01*
X883088Y509063D01*
X883131Y508983D01*
X883167Y508899D01*
X883193Y508867D01*
X883204Y508846D01*
X883227Y508824D01*
X883272Y508768D01*
X901668Y490372D01*
X901742Y490319D01*
X901811Y490259D01*
X901841Y490247D01*
X901868Y490228D01*
X901954Y490201D01*
X902039Y490167D01*
X902080Y490163D01*
X902103Y490156D01*
X902135Y490157D01*
X902206Y490149D01*
X903532Y490149D01*
X903597Y490159D01*
X903662Y490160D01*
X903743Y490183D01*
X903775Y490188D01*
X903792Y490198D01*
X903824Y490207D01*
X907305Y491649D01*
X912695Y491649D01*
X917675Y489586D01*
X921486Y485775D01*
X923549Y480795D01*
X923549Y475405D01*
X921486Y470425D01*
X917675Y466614D01*
X912695Y464551D01*
X907305Y464551D01*
X903824Y465993D01*
X903760Y466008D01*
X903699Y466033D01*
X903616Y466042D01*
X903584Y466049D01*
X903565Y466048D01*
X903532Y466051D01*
X894503Y466051D01*
X890075Y467886D01*
X886578Y471382D01*
X863348Y494612D01*
X863290Y494654D01*
X863238Y494703D01*
X863191Y494725D01*
X863149Y494756D01*
X863080Y494777D01*
X863015Y494807D01*
X862963Y494813D01*
X862913Y494828D01*
X862842Y494826D01*
X862771Y494834D01*
X862720Y494823D01*
X862668Y494822D01*
X862600Y494797D01*
X862530Y494782D01*
X862485Y494755D01*
X862437Y494737D01*
X862381Y494692D01*
X862319Y494656D01*
X862285Y494616D01*
X862245Y494584D01*
X862206Y494523D01*
X862159Y494469D01*
X862140Y494421D01*
X862112Y494377D01*
X862094Y494307D01*
X862067Y494241D01*
X862059Y494169D01*
X862051Y494138D01*
X862053Y494115D01*
X862049Y494074D01*
X862049Y464306D01*
X862063Y464216D01*
X862071Y464125D01*
X862083Y464095D01*
X862088Y464063D01*
X862131Y463983D01*
X862167Y463899D01*
X862193Y463867D01*
X862204Y463846D01*
X862227Y463824D01*
X862272Y463768D01*
X873768Y452272D01*
X873842Y452219D01*
X873911Y452159D01*
X873941Y452147D01*
X873968Y452128D01*
X874054Y452101D01*
X874139Y452067D01*
X874180Y452063D01*
X874203Y452056D01*
X874235Y452057D01*
X874306Y452049D01*
X903532Y452049D01*
X903597Y452059D01*
X903662Y452060D01*
X903743Y452083D01*
X903775Y452088D01*
X903792Y452098D01*
X903824Y452107D01*
X907305Y453549D01*
X912695Y453549D01*
X917675Y451486D01*
X921486Y447675D01*
X923549Y442695D01*
X923549Y437305D01*
X921486Y432325D01*
X917675Y428514D01*
X912695Y426451D01*
X907305Y426451D01*
G37*
%LPD*%
%LPC*%
G36*
X907305Y107851D02*
X907305Y107851D01*
X903824Y109293D01*
X903760Y109308D01*
X903699Y109333D01*
X903616Y109342D01*
X903584Y109349D01*
X903565Y109348D01*
X903532Y109351D01*
X865203Y109351D01*
X860775Y111186D01*
X842786Y129175D01*
X840951Y133603D01*
X840951Y244694D01*
X840937Y244784D01*
X840929Y244875D01*
X840917Y244905D01*
X840912Y244937D01*
X840869Y245017D01*
X840833Y245101D01*
X840807Y245133D01*
X840796Y245154D01*
X840773Y245176D01*
X840728Y245232D01*
X827932Y258028D01*
X827858Y258081D01*
X827789Y258141D01*
X827759Y258153D01*
X827732Y258172D01*
X827646Y258199D01*
X827561Y258233D01*
X827520Y258237D01*
X827497Y258244D01*
X827465Y258243D01*
X827394Y258251D01*
X824903Y258251D01*
X820475Y260086D01*
X817086Y263475D01*
X815251Y267903D01*
X815251Y272697D01*
X817086Y277125D01*
X820582Y280621D01*
X820582Y280622D01*
X821175Y281214D01*
X822648Y281824D01*
X822687Y281849D01*
X822730Y281864D01*
X822790Y281913D01*
X822857Y281954D01*
X822886Y281989D01*
X822922Y282018D01*
X822964Y282083D01*
X823013Y282143D01*
X823030Y282186D01*
X823055Y282225D01*
X823074Y282301D01*
X823102Y282373D01*
X823104Y282419D01*
X823115Y282463D01*
X823109Y282541D01*
X823112Y282619D01*
X823099Y282663D01*
X823096Y282709D01*
X823065Y282780D01*
X823044Y282855D01*
X823017Y282893D01*
X822999Y282935D01*
X822914Y283042D01*
X822903Y283057D01*
X822899Y283060D01*
X822895Y283066D01*
X820679Y285282D01*
X820582Y285378D01*
X817086Y288875D01*
X815251Y293303D01*
X815251Y298097D01*
X817086Y302525D01*
X820475Y305914D01*
X824778Y307697D01*
X824839Y307735D01*
X824904Y307764D01*
X824943Y307799D01*
X824987Y307826D01*
X825033Y307882D01*
X825085Y307930D01*
X825110Y307976D01*
X825144Y308016D01*
X825169Y308083D01*
X825204Y308146D01*
X825213Y308197D01*
X825232Y308245D01*
X825235Y308317D01*
X825248Y308388D01*
X825240Y308439D01*
X825242Y308491D01*
X825222Y308560D01*
X825212Y308631D01*
X825188Y308677D01*
X825174Y308727D01*
X825133Y308786D01*
X825100Y308850D01*
X825063Y308887D01*
X825033Y308929D01*
X824976Y308972D01*
X824925Y309022D01*
X824862Y309057D01*
X824836Y309076D01*
X824814Y309083D01*
X824778Y309103D01*
X820475Y310886D01*
X817086Y314275D01*
X815251Y318703D01*
X815251Y323497D01*
X817086Y327925D01*
X820475Y331314D01*
X824778Y333097D01*
X824839Y333135D01*
X824904Y333164D01*
X824943Y333199D01*
X824987Y333226D01*
X825033Y333282D01*
X825085Y333330D01*
X825110Y333376D01*
X825144Y333416D01*
X825169Y333483D01*
X825204Y333546D01*
X825213Y333597D01*
X825232Y333645D01*
X825235Y333717D01*
X825248Y333788D01*
X825240Y333839D01*
X825242Y333891D01*
X825222Y333960D01*
X825212Y334031D01*
X825188Y334077D01*
X825174Y334127D01*
X825133Y334186D01*
X825100Y334250D01*
X825063Y334287D01*
X825033Y334329D01*
X824976Y334372D01*
X824925Y334422D01*
X824862Y334457D01*
X824836Y334476D01*
X824814Y334483D01*
X824778Y334503D01*
X820475Y336286D01*
X817086Y339675D01*
X815251Y344103D01*
X815251Y348897D01*
X817086Y353325D01*
X820475Y356714D01*
X824903Y358549D01*
X829697Y358549D01*
X834125Y356714D01*
X837514Y353325D01*
X839349Y348897D01*
X839349Y344103D01*
X837514Y339675D01*
X834125Y336286D01*
X829822Y334503D01*
X829761Y334466D01*
X829696Y334436D01*
X829657Y334401D01*
X829613Y334374D01*
X829568Y334319D01*
X829515Y334270D01*
X829490Y334224D01*
X829456Y334184D01*
X829431Y334117D01*
X829396Y334054D01*
X829387Y334003D01*
X829368Y333955D01*
X829365Y333883D01*
X829352Y333812D01*
X829360Y333761D01*
X829358Y333709D01*
X829378Y333640D01*
X829388Y333569D01*
X829412Y333523D01*
X829426Y333473D01*
X829467Y333414D01*
X829500Y333350D01*
X829537Y333313D01*
X829567Y333271D01*
X829624Y333228D01*
X829675Y333178D01*
X829738Y333143D01*
X829764Y333124D01*
X829786Y333117D01*
X829822Y333097D01*
X834125Y331314D01*
X837514Y327925D01*
X839349Y323497D01*
X839349Y318703D01*
X837514Y314275D01*
X834125Y310886D01*
X829822Y309103D01*
X829761Y309066D01*
X829696Y309036D01*
X829657Y309001D01*
X829613Y308974D01*
X829568Y308919D01*
X829515Y308870D01*
X829490Y308824D01*
X829456Y308784D01*
X829431Y308717D01*
X829396Y308654D01*
X829387Y308603D01*
X829368Y308555D01*
X829365Y308483D01*
X829352Y308412D01*
X829360Y308361D01*
X829358Y308309D01*
X829378Y308240D01*
X829388Y308169D01*
X829412Y308123D01*
X829426Y308073D01*
X829467Y308014D01*
X829500Y307950D01*
X829537Y307913D01*
X829567Y307871D01*
X829624Y307828D01*
X829675Y307778D01*
X829738Y307743D01*
X829764Y307724D01*
X829786Y307717D01*
X829822Y307697D01*
X834125Y305914D01*
X835768Y304272D01*
X835842Y304219D01*
X835911Y304159D01*
X835941Y304147D01*
X835968Y304128D01*
X836054Y304101D01*
X836139Y304067D01*
X836180Y304063D01*
X836203Y304056D01*
X836235Y304057D01*
X836306Y304049D01*
X846397Y304049D01*
X850825Y302214D01*
X885214Y267825D01*
X887049Y263397D01*
X887049Y177306D01*
X887063Y177216D01*
X887071Y177125D01*
X887083Y177095D01*
X887088Y177063D01*
X887131Y176983D01*
X887167Y176899D01*
X887193Y176867D01*
X887204Y176846D01*
X887227Y176824D01*
X887272Y176768D01*
X892268Y171772D01*
X892342Y171719D01*
X892411Y171659D01*
X892441Y171647D01*
X892468Y171628D01*
X892554Y171601D01*
X892639Y171567D01*
X892680Y171563D01*
X892703Y171556D01*
X892735Y171557D01*
X892806Y171549D01*
X903532Y171549D01*
X903597Y171559D01*
X903662Y171560D01*
X903743Y171583D01*
X903775Y171588D01*
X903792Y171598D01*
X903824Y171607D01*
X907305Y173049D01*
X912695Y173049D01*
X917675Y170986D01*
X921486Y167175D01*
X923549Y162195D01*
X923549Y156805D01*
X921486Y151825D01*
X917675Y148014D01*
X912695Y145951D01*
X907305Y145951D01*
X903824Y147393D01*
X903760Y147408D01*
X903699Y147433D01*
X903616Y147442D01*
X903584Y147449D01*
X903565Y147448D01*
X903532Y147451D01*
X885103Y147451D01*
X880675Y149286D01*
X866348Y163612D01*
X866290Y163654D01*
X866238Y163703D01*
X866191Y163725D01*
X866149Y163756D01*
X866080Y163777D01*
X866015Y163807D01*
X865963Y163813D01*
X865913Y163828D01*
X865842Y163826D01*
X865771Y163834D01*
X865720Y163823D01*
X865668Y163822D01*
X865600Y163797D01*
X865530Y163782D01*
X865485Y163755D01*
X865437Y163737D01*
X865381Y163692D01*
X865319Y163656D01*
X865285Y163616D01*
X865245Y163584D01*
X865206Y163523D01*
X865159Y163469D01*
X865140Y163421D01*
X865112Y163377D01*
X865094Y163307D01*
X865067Y163241D01*
X865059Y163169D01*
X865051Y163138D01*
X865053Y163115D01*
X865049Y163074D01*
X865049Y141306D01*
X865063Y141216D01*
X865071Y141125D01*
X865083Y141095D01*
X865088Y141063D01*
X865131Y140983D01*
X865167Y140899D01*
X865193Y140867D01*
X865204Y140846D01*
X865227Y140824D01*
X865272Y140768D01*
X872368Y133672D01*
X872442Y133619D01*
X872511Y133559D01*
X872541Y133547D01*
X872568Y133528D01*
X872654Y133501D01*
X872739Y133467D01*
X872780Y133463D01*
X872803Y133456D01*
X872835Y133457D01*
X872906Y133449D01*
X903532Y133449D01*
X903597Y133459D01*
X903662Y133460D01*
X903743Y133483D01*
X903775Y133488D01*
X903792Y133498D01*
X903824Y133507D01*
X907305Y134949D01*
X912695Y134949D01*
X917675Y132886D01*
X921486Y129075D01*
X923549Y124095D01*
X923549Y118705D01*
X921486Y113725D01*
X917675Y109914D01*
X912695Y107851D01*
X907305Y107851D01*
G37*
%LPD*%
G36*
X469660Y514503D02*
X469660Y514503D01*
X469751Y514511D01*
X469781Y514523D01*
X469812Y514528D01*
X469893Y514571D01*
X469977Y514607D01*
X470009Y514633D01*
X470030Y514644D01*
X470052Y514667D01*
X470108Y514712D01*
X510604Y555207D01*
X510672Y555302D01*
X510742Y555396D01*
X510744Y555402D01*
X510747Y555407D01*
X510782Y555519D01*
X510818Y555630D01*
X510818Y555636D01*
X510820Y555642D01*
X510817Y555759D01*
X510815Y555876D01*
X510813Y555883D01*
X510813Y555888D01*
X510807Y555905D01*
X510769Y556037D01*
X510451Y556803D01*
X510451Y561597D01*
X512286Y566025D01*
X515675Y569414D01*
X519978Y571197D01*
X520039Y571235D01*
X520104Y571264D01*
X520143Y571299D01*
X520187Y571326D01*
X520233Y571382D01*
X520285Y571430D01*
X520310Y571476D01*
X520344Y571516D01*
X520369Y571583D01*
X520404Y571646D01*
X520413Y571697D01*
X520432Y571745D01*
X520435Y571817D01*
X520448Y571888D01*
X520440Y571939D01*
X520442Y571991D01*
X520422Y572060D01*
X520412Y572131D01*
X520388Y572177D01*
X520374Y572227D01*
X520333Y572286D01*
X520300Y572350D01*
X520263Y572387D01*
X520233Y572429D01*
X520176Y572472D01*
X520125Y572522D01*
X520062Y572557D01*
X520036Y572576D01*
X520014Y572583D01*
X519978Y572603D01*
X515675Y574386D01*
X512286Y577775D01*
X510451Y582203D01*
X510451Y586997D01*
X512286Y591425D01*
X515675Y594814D01*
X519978Y596597D01*
X520039Y596635D01*
X520104Y596664D01*
X520143Y596699D01*
X520187Y596726D01*
X520233Y596782D01*
X520285Y596830D01*
X520310Y596876D01*
X520344Y596916D01*
X520369Y596983D01*
X520404Y597046D01*
X520413Y597097D01*
X520432Y597145D01*
X520435Y597217D01*
X520448Y597288D01*
X520440Y597339D01*
X520442Y597391D01*
X520422Y597460D01*
X520412Y597531D01*
X520388Y597577D01*
X520374Y597627D01*
X520333Y597686D01*
X520300Y597750D01*
X520263Y597787D01*
X520233Y597829D01*
X520176Y597872D01*
X520125Y597922D01*
X520062Y597957D01*
X520036Y597976D01*
X520014Y597983D01*
X519978Y598003D01*
X515675Y599786D01*
X512286Y603175D01*
X510451Y607603D01*
X510451Y612397D01*
X512286Y616825D01*
X515675Y620214D01*
X519978Y621997D01*
X520039Y622035D01*
X520104Y622064D01*
X520143Y622099D01*
X520187Y622126D01*
X520233Y622182D01*
X520285Y622230D01*
X520310Y622276D01*
X520344Y622316D01*
X520369Y622383D01*
X520404Y622446D01*
X520413Y622497D01*
X520432Y622545D01*
X520435Y622617D01*
X520448Y622688D01*
X520440Y622739D01*
X520442Y622791D01*
X520422Y622860D01*
X520412Y622931D01*
X520388Y622977D01*
X520374Y623027D01*
X520333Y623086D01*
X520300Y623150D01*
X520263Y623187D01*
X520233Y623229D01*
X520176Y623272D01*
X520125Y623322D01*
X520062Y623357D01*
X520036Y623376D01*
X520014Y623383D01*
X519978Y623403D01*
X515675Y625186D01*
X512286Y628575D01*
X510451Y633003D01*
X510451Y637797D01*
X512286Y642225D01*
X515675Y645614D01*
X519978Y647397D01*
X520039Y647435D01*
X520104Y647464D01*
X520143Y647499D01*
X520187Y647526D01*
X520233Y647582D01*
X520285Y647630D01*
X520310Y647676D01*
X520344Y647716D01*
X520369Y647783D01*
X520404Y647846D01*
X520413Y647897D01*
X520432Y647945D01*
X520435Y648017D01*
X520448Y648088D01*
X520440Y648139D01*
X520442Y648191D01*
X520422Y648260D01*
X520412Y648331D01*
X520388Y648377D01*
X520374Y648427D01*
X520333Y648486D01*
X520300Y648550D01*
X520263Y648587D01*
X520233Y648629D01*
X520176Y648672D01*
X520125Y648722D01*
X520062Y648757D01*
X520036Y648776D01*
X520014Y648783D01*
X519978Y648803D01*
X515675Y650586D01*
X512286Y653975D01*
X510451Y658403D01*
X510451Y663197D01*
X512286Y667625D01*
X515675Y671014D01*
X520103Y672849D01*
X524897Y672849D01*
X529325Y671014D01*
X532714Y667625D01*
X534549Y663197D01*
X534549Y658403D01*
X532714Y653975D01*
X529325Y650586D01*
X525022Y648803D01*
X524961Y648766D01*
X524896Y648736D01*
X524857Y648701D01*
X524813Y648674D01*
X524768Y648619D01*
X524715Y648570D01*
X524690Y648524D01*
X524656Y648484D01*
X524631Y648417D01*
X524596Y648354D01*
X524587Y648303D01*
X524568Y648255D01*
X524565Y648183D01*
X524552Y648112D01*
X524560Y648061D01*
X524558Y648009D01*
X524578Y647940D01*
X524588Y647869D01*
X524612Y647823D01*
X524626Y647773D01*
X524667Y647714D01*
X524700Y647650D01*
X524737Y647613D01*
X524767Y647571D01*
X524824Y647528D01*
X524875Y647478D01*
X524938Y647443D01*
X524964Y647424D01*
X524986Y647417D01*
X525022Y647397D01*
X529325Y645614D01*
X532714Y642225D01*
X534549Y637797D01*
X534549Y633003D01*
X532714Y628575D01*
X529325Y625186D01*
X525022Y623403D01*
X524961Y623366D01*
X524896Y623336D01*
X524857Y623301D01*
X524813Y623274D01*
X524768Y623219D01*
X524715Y623170D01*
X524690Y623124D01*
X524656Y623084D01*
X524631Y623017D01*
X524596Y622954D01*
X524587Y622903D01*
X524568Y622855D01*
X524565Y622783D01*
X524552Y622712D01*
X524560Y622661D01*
X524558Y622609D01*
X524578Y622540D01*
X524588Y622469D01*
X524612Y622423D01*
X524626Y622373D01*
X524667Y622314D01*
X524700Y622250D01*
X524737Y622213D01*
X524767Y622171D01*
X524824Y622128D01*
X524875Y622078D01*
X524938Y622043D01*
X524964Y622024D01*
X524986Y622017D01*
X525022Y621997D01*
X529325Y620214D01*
X532714Y616825D01*
X534549Y612397D01*
X534549Y607603D01*
X532714Y603175D01*
X529325Y599786D01*
X525022Y598003D01*
X524961Y597966D01*
X524896Y597936D01*
X524857Y597901D01*
X524813Y597874D01*
X524768Y597819D01*
X524715Y597770D01*
X524690Y597724D01*
X524656Y597684D01*
X524631Y597617D01*
X524596Y597554D01*
X524587Y597503D01*
X524568Y597455D01*
X524565Y597383D01*
X524552Y597312D01*
X524560Y597261D01*
X524558Y597209D01*
X524578Y597140D01*
X524588Y597069D01*
X524612Y597023D01*
X524626Y596973D01*
X524667Y596914D01*
X524700Y596850D01*
X524737Y596813D01*
X524767Y596771D01*
X524824Y596728D01*
X524875Y596678D01*
X524938Y596643D01*
X524964Y596624D01*
X524986Y596617D01*
X525022Y596597D01*
X529325Y594814D01*
X532714Y591425D01*
X534549Y586997D01*
X534549Y582203D01*
X532714Y577775D01*
X529325Y574386D01*
X525022Y572603D01*
X524961Y572566D01*
X524896Y572536D01*
X524857Y572501D01*
X524813Y572474D01*
X524768Y572419D01*
X524715Y572370D01*
X524690Y572324D01*
X524656Y572284D01*
X524631Y572217D01*
X524596Y572154D01*
X524587Y572103D01*
X524568Y572055D01*
X524565Y571983D01*
X524552Y571912D01*
X524560Y571861D01*
X524558Y571809D01*
X524578Y571740D01*
X524588Y571669D01*
X524612Y571623D01*
X524626Y571573D01*
X524667Y571514D01*
X524700Y571450D01*
X524737Y571413D01*
X524767Y571371D01*
X524824Y571328D01*
X524875Y571278D01*
X524938Y571243D01*
X524964Y571224D01*
X524986Y571217D01*
X525022Y571197D01*
X529325Y569414D01*
X532714Y566025D01*
X534549Y561597D01*
X534549Y556803D01*
X532714Y552375D01*
X529325Y548986D01*
X525022Y547203D01*
X524961Y547166D01*
X524896Y547136D01*
X524857Y547101D01*
X524813Y547074D01*
X524768Y547019D01*
X524715Y546970D01*
X524690Y546924D01*
X524656Y546884D01*
X524631Y546817D01*
X524596Y546754D01*
X524587Y546703D01*
X524568Y546655D01*
X524565Y546583D01*
X524552Y546512D01*
X524560Y546461D01*
X524558Y546409D01*
X524578Y546340D01*
X524588Y546269D01*
X524612Y546223D01*
X524626Y546173D01*
X524667Y546114D01*
X524700Y546050D01*
X524737Y546013D01*
X524767Y545971D01*
X524824Y545928D01*
X524875Y545878D01*
X524938Y545843D01*
X524964Y545824D01*
X524986Y545817D01*
X525022Y545797D01*
X529325Y544014D01*
X532714Y540625D01*
X534549Y536197D01*
X534549Y531403D01*
X532714Y526975D01*
X529325Y523586D01*
X525690Y522080D01*
X525634Y522045D01*
X525574Y522020D01*
X525510Y521968D01*
X525481Y521950D01*
X525469Y521935D01*
X525443Y521915D01*
X525052Y521524D01*
X525025Y521486D01*
X524991Y521455D01*
X524954Y521387D01*
X524908Y521324D01*
X524895Y521280D01*
X524873Y521240D01*
X524859Y521163D01*
X524836Y521089D01*
X524837Y521043D01*
X524829Y520998D01*
X524840Y520921D01*
X524842Y520843D01*
X524858Y520800D01*
X524865Y520754D01*
X524900Y520685D01*
X524927Y520612D01*
X524956Y520576D01*
X524976Y520535D01*
X525032Y520481D01*
X525081Y520420D01*
X525119Y520395D01*
X525152Y520363D01*
X525272Y520297D01*
X525288Y520287D01*
X525292Y520286D01*
X525299Y520282D01*
X528378Y519007D01*
X528442Y518992D01*
X528503Y518967D01*
X528586Y518958D01*
X528618Y518951D01*
X528637Y518952D01*
X528669Y518949D01*
X536690Y518949D01*
X536710Y518952D01*
X536729Y518950D01*
X536831Y518972D01*
X536933Y518988D01*
X536950Y518998D01*
X536970Y519002D01*
X537059Y519055D01*
X537150Y519104D01*
X537164Y519118D01*
X537181Y519128D01*
X537248Y519207D01*
X537320Y519282D01*
X537328Y519300D01*
X537341Y519315D01*
X537380Y519411D01*
X537423Y519505D01*
X537425Y519525D01*
X537433Y519543D01*
X537451Y519710D01*
X537451Y683660D01*
X537437Y683750D01*
X537429Y683841D01*
X537417Y683871D01*
X537412Y683903D01*
X537369Y683984D01*
X537333Y684068D01*
X537307Y684100D01*
X537296Y684120D01*
X537273Y684143D01*
X537228Y684199D01*
X526316Y695111D01*
X526263Y695149D01*
X526216Y695195D01*
X526143Y695235D01*
X526116Y695254D01*
X526098Y695260D01*
X526069Y695276D01*
X522377Y696805D01*
X521916Y697266D01*
X521900Y697278D01*
X521887Y697293D01*
X521800Y697349D01*
X521716Y697410D01*
X521697Y697415D01*
X521680Y697426D01*
X521580Y697452D01*
X521481Y697482D01*
X521461Y697481D01*
X521442Y697486D01*
X521339Y697478D01*
X521235Y697476D01*
X521216Y697469D01*
X521196Y697467D01*
X521102Y697427D01*
X521004Y697391D01*
X520988Y697379D01*
X520970Y697371D01*
X520839Y697266D01*
X500772Y677199D01*
X500719Y677125D01*
X500659Y677055D01*
X500647Y677025D01*
X500628Y676999D01*
X500601Y676912D01*
X500567Y676827D01*
X500563Y676786D01*
X500556Y676764D01*
X500557Y676732D01*
X500549Y676660D01*
X500549Y668049D01*
X498943Y664172D01*
X468706Y633935D01*
X467853Y633582D01*
X467776Y633534D01*
X467695Y633493D01*
X467672Y633469D01*
X467644Y633452D01*
X467586Y633382D01*
X467522Y633317D01*
X467502Y633281D01*
X467488Y633263D01*
X467476Y633233D01*
X467441Y633170D01*
X465652Y628849D01*
X462151Y625348D01*
X458662Y623903D01*
X458601Y623865D01*
X458536Y623836D01*
X458498Y623801D01*
X458453Y623774D01*
X458407Y623718D01*
X458355Y623670D01*
X458330Y623624D01*
X458296Y623584D01*
X458271Y623517D01*
X458236Y623454D01*
X458227Y623403D01*
X458208Y623355D01*
X458205Y623283D01*
X458192Y623212D01*
X458200Y623161D01*
X458198Y623109D01*
X458218Y623040D01*
X458228Y622969D01*
X458252Y622923D01*
X458266Y622873D01*
X458307Y622814D01*
X458340Y622750D01*
X458377Y622713D01*
X458407Y622671D01*
X458464Y622628D01*
X458515Y622578D01*
X458578Y622543D01*
X458604Y622524D01*
X458626Y622517D01*
X458662Y622497D01*
X462151Y621052D01*
X465652Y617551D01*
X467547Y612976D01*
X467547Y608024D01*
X465652Y603449D01*
X462151Y599948D01*
X458662Y598503D01*
X458601Y598465D01*
X458536Y598436D01*
X458498Y598401D01*
X458453Y598374D01*
X458407Y598318D01*
X458355Y598270D01*
X458330Y598224D01*
X458296Y598184D01*
X458271Y598117D01*
X458236Y598054D01*
X458227Y598003D01*
X458208Y597955D01*
X458205Y597883D01*
X458192Y597812D01*
X458200Y597761D01*
X458198Y597709D01*
X458218Y597640D01*
X458228Y597569D01*
X458252Y597523D01*
X458266Y597473D01*
X458307Y597414D01*
X458340Y597350D01*
X458377Y597313D01*
X458407Y597271D01*
X458464Y597228D01*
X458515Y597178D01*
X458578Y597143D01*
X458604Y597124D01*
X458626Y597117D01*
X458662Y597097D01*
X462151Y595652D01*
X465652Y592151D01*
X467547Y587576D01*
X467547Y582624D01*
X465652Y578049D01*
X462151Y574548D01*
X458662Y573103D01*
X458601Y573065D01*
X458536Y573036D01*
X458498Y573001D01*
X458453Y572974D01*
X458407Y572918D01*
X458355Y572870D01*
X458330Y572824D01*
X458296Y572784D01*
X458271Y572717D01*
X458236Y572654D01*
X458227Y572603D01*
X458208Y572555D01*
X458205Y572483D01*
X458192Y572412D01*
X458200Y572361D01*
X458198Y572309D01*
X458218Y572240D01*
X458228Y572169D01*
X458252Y572123D01*
X458266Y572073D01*
X458307Y572014D01*
X458340Y571950D01*
X458377Y571913D01*
X458407Y571871D01*
X458464Y571828D01*
X458515Y571778D01*
X458578Y571743D01*
X458604Y571724D01*
X458626Y571717D01*
X458662Y571697D01*
X462151Y570252D01*
X465652Y566751D01*
X467547Y562176D01*
X467547Y557224D01*
X465652Y552649D01*
X462151Y549148D01*
X458662Y547703D01*
X458601Y547665D01*
X458536Y547636D01*
X458498Y547601D01*
X458453Y547574D01*
X458407Y547518D01*
X458355Y547470D01*
X458330Y547424D01*
X458296Y547384D01*
X458271Y547317D01*
X458236Y547254D01*
X458227Y547203D01*
X458208Y547155D01*
X458205Y547083D01*
X458192Y547012D01*
X458200Y546961D01*
X458198Y546909D01*
X458218Y546840D01*
X458228Y546769D01*
X458252Y546723D01*
X458266Y546673D01*
X458307Y546614D01*
X458340Y546550D01*
X458377Y546513D01*
X458407Y546471D01*
X458464Y546428D01*
X458515Y546378D01*
X458578Y546343D01*
X458604Y546324D01*
X458626Y546317D01*
X458662Y546297D01*
X462151Y544852D01*
X465652Y541351D01*
X467547Y536776D01*
X467547Y531824D01*
X465652Y527249D01*
X462151Y523748D01*
X458662Y522303D01*
X458601Y522265D01*
X458536Y522236D01*
X458498Y522201D01*
X458453Y522174D01*
X458407Y522118D01*
X458355Y522070D01*
X458330Y522024D01*
X458296Y521984D01*
X458271Y521917D01*
X458236Y521854D01*
X458227Y521803D01*
X458208Y521755D01*
X458205Y521683D01*
X458192Y521612D01*
X458200Y521561D01*
X458198Y521509D01*
X458218Y521440D01*
X458228Y521369D01*
X458252Y521323D01*
X458266Y521273D01*
X458307Y521214D01*
X458340Y521150D01*
X458377Y521113D01*
X458407Y521071D01*
X458464Y521028D01*
X458515Y520978D01*
X458578Y520943D01*
X458604Y520924D01*
X458626Y520917D01*
X458662Y520897D01*
X462151Y519452D01*
X465652Y515951D01*
X466063Y514959D01*
X466124Y514859D01*
X466184Y514759D01*
X466189Y514755D01*
X466192Y514750D01*
X466282Y514675D01*
X466371Y514599D01*
X466377Y514597D01*
X466382Y514593D01*
X466490Y514551D01*
X466599Y514507D01*
X466607Y514506D01*
X466611Y514505D01*
X466630Y514504D01*
X466766Y514489D01*
X469570Y514489D01*
X469660Y514503D01*
G37*
%LPC*%
G36*
X575403Y445551D02*
X575403Y445551D01*
X570975Y447386D01*
X567586Y450775D01*
X565751Y455203D01*
X565751Y459997D01*
X567586Y464425D01*
X570975Y467814D01*
X575403Y469649D01*
X580197Y469649D01*
X584625Y467814D01*
X588014Y464425D01*
X589797Y460122D01*
X589834Y460061D01*
X589864Y459996D01*
X589899Y459957D01*
X589926Y459913D01*
X589981Y459868D01*
X590030Y459815D01*
X590076Y459790D01*
X590116Y459756D01*
X590183Y459731D01*
X590246Y459696D01*
X590297Y459687D01*
X590345Y459668D01*
X590417Y459665D01*
X590488Y459652D01*
X590539Y459660D01*
X590591Y459658D01*
X590660Y459678D01*
X590731Y459688D01*
X590777Y459712D01*
X590827Y459726D01*
X590886Y459767D01*
X590950Y459800D01*
X590987Y459837D01*
X591029Y459867D01*
X591072Y459924D01*
X591122Y459975D01*
X591157Y460038D01*
X591176Y460064D01*
X591183Y460086D01*
X591203Y460122D01*
X592986Y464425D01*
X596375Y467814D01*
X600803Y469649D01*
X605597Y469649D01*
X610025Y467814D01*
X613414Y464425D01*
X615197Y460122D01*
X615234Y460061D01*
X615264Y459996D01*
X615299Y459957D01*
X615326Y459913D01*
X615381Y459868D01*
X615430Y459815D01*
X615476Y459790D01*
X615516Y459756D01*
X615583Y459731D01*
X615646Y459696D01*
X615697Y459687D01*
X615745Y459668D01*
X615817Y459665D01*
X615888Y459652D01*
X615939Y459660D01*
X615991Y459658D01*
X616060Y459678D01*
X616131Y459688D01*
X616177Y459712D01*
X616227Y459726D01*
X616286Y459767D01*
X616350Y459800D01*
X616387Y459837D01*
X616429Y459867D01*
X616472Y459924D01*
X616522Y459975D01*
X616557Y460038D01*
X616576Y460064D01*
X616583Y460086D01*
X616603Y460122D01*
X618386Y464425D01*
X621775Y467814D01*
X626203Y469649D01*
X630997Y469649D01*
X635425Y467814D01*
X638814Y464425D01*
X640597Y460122D01*
X640634Y460061D01*
X640664Y459996D01*
X640699Y459957D01*
X640726Y459913D01*
X640781Y459868D01*
X640830Y459815D01*
X640876Y459790D01*
X640916Y459756D01*
X640983Y459731D01*
X641046Y459696D01*
X641097Y459687D01*
X641145Y459668D01*
X641217Y459665D01*
X641288Y459652D01*
X641339Y459660D01*
X641391Y459658D01*
X641460Y459678D01*
X641531Y459688D01*
X641577Y459712D01*
X641627Y459726D01*
X641686Y459767D01*
X641750Y459800D01*
X641787Y459837D01*
X641829Y459867D01*
X641872Y459924D01*
X641922Y459975D01*
X641957Y460038D01*
X641976Y460064D01*
X641983Y460086D01*
X642003Y460122D01*
X643786Y464425D01*
X647175Y467814D01*
X651603Y469649D01*
X656397Y469649D01*
X660825Y467814D01*
X664214Y464425D01*
X666049Y459997D01*
X666049Y455203D01*
X664214Y450775D01*
X660825Y447386D01*
X656397Y445551D01*
X651603Y445551D01*
X647175Y447386D01*
X643786Y450775D01*
X642003Y455078D01*
X641965Y455139D01*
X641936Y455204D01*
X641901Y455243D01*
X641874Y455287D01*
X641818Y455333D01*
X641770Y455385D01*
X641724Y455410D01*
X641684Y455444D01*
X641617Y455469D01*
X641554Y455504D01*
X641503Y455513D01*
X641455Y455532D01*
X641383Y455535D01*
X641312Y455548D01*
X641261Y455540D01*
X641209Y455542D01*
X641140Y455522D01*
X641069Y455512D01*
X641023Y455488D01*
X640973Y455474D01*
X640914Y455433D01*
X640850Y455400D01*
X640813Y455363D01*
X640771Y455333D01*
X640728Y455276D01*
X640678Y455225D01*
X640643Y455162D01*
X640624Y455136D01*
X640617Y455114D01*
X640597Y455078D01*
X638814Y450775D01*
X635425Y447386D01*
X630997Y445551D01*
X626203Y445551D01*
X621775Y447386D01*
X618386Y450775D01*
X616603Y455078D01*
X616565Y455139D01*
X616536Y455204D01*
X616501Y455243D01*
X616474Y455287D01*
X616418Y455333D01*
X616370Y455385D01*
X616324Y455410D01*
X616284Y455444D01*
X616217Y455469D01*
X616154Y455504D01*
X616103Y455513D01*
X616055Y455532D01*
X615983Y455535D01*
X615912Y455548D01*
X615861Y455540D01*
X615809Y455542D01*
X615740Y455522D01*
X615669Y455512D01*
X615623Y455488D01*
X615573Y455474D01*
X615514Y455433D01*
X615450Y455400D01*
X615413Y455363D01*
X615371Y455333D01*
X615328Y455276D01*
X615278Y455225D01*
X615243Y455162D01*
X615224Y455136D01*
X615217Y455114D01*
X615197Y455078D01*
X613414Y450775D01*
X610025Y447386D01*
X605597Y445551D01*
X600803Y445551D01*
X596375Y447386D01*
X592986Y450775D01*
X591203Y455078D01*
X591165Y455139D01*
X591136Y455204D01*
X591101Y455243D01*
X591074Y455287D01*
X591018Y455333D01*
X590970Y455385D01*
X590924Y455410D01*
X590884Y455444D01*
X590817Y455469D01*
X590754Y455504D01*
X590703Y455513D01*
X590655Y455532D01*
X590583Y455535D01*
X590512Y455548D01*
X590461Y455540D01*
X590409Y455542D01*
X590340Y455522D01*
X590269Y455512D01*
X590223Y455488D01*
X590173Y455474D01*
X590114Y455433D01*
X590050Y455400D01*
X590013Y455363D01*
X589971Y455333D01*
X589928Y455276D01*
X589878Y455225D01*
X589843Y455162D01*
X589824Y455136D01*
X589817Y455114D01*
X589797Y455078D01*
X588014Y450775D01*
X584625Y447386D01*
X580197Y445551D01*
X575403Y445551D01*
G37*
%LPD*%
%LPC*%
G36*
X575403Y105551D02*
X575403Y105551D01*
X570975Y107386D01*
X567586Y110775D01*
X565751Y115203D01*
X565751Y119997D01*
X567586Y124425D01*
X570975Y127814D01*
X575403Y129649D01*
X580197Y129649D01*
X584625Y127814D01*
X588014Y124425D01*
X589797Y120122D01*
X589835Y120061D01*
X589864Y119996D01*
X589899Y119958D01*
X589926Y119913D01*
X589982Y119867D01*
X590030Y119815D01*
X590076Y119790D01*
X590116Y119756D01*
X590183Y119731D01*
X590246Y119696D01*
X590297Y119687D01*
X590345Y119668D01*
X590417Y119665D01*
X590488Y119652D01*
X590539Y119660D01*
X590591Y119658D01*
X590660Y119678D01*
X590731Y119688D01*
X590777Y119712D01*
X590827Y119726D01*
X590886Y119767D01*
X590950Y119800D01*
X590987Y119837D01*
X591029Y119867D01*
X591072Y119924D01*
X591122Y119975D01*
X591157Y120038D01*
X591176Y120064D01*
X591183Y120086D01*
X591203Y120122D01*
X592986Y124425D01*
X596375Y127814D01*
X600803Y129649D01*
X605597Y129649D01*
X610025Y127814D01*
X613414Y124425D01*
X615197Y120122D01*
X615235Y120061D01*
X615264Y119996D01*
X615299Y119958D01*
X615326Y119913D01*
X615382Y119867D01*
X615430Y119815D01*
X615476Y119790D01*
X615516Y119756D01*
X615583Y119731D01*
X615646Y119696D01*
X615697Y119687D01*
X615745Y119668D01*
X615817Y119665D01*
X615888Y119652D01*
X615939Y119660D01*
X615991Y119658D01*
X616060Y119678D01*
X616131Y119688D01*
X616177Y119712D01*
X616227Y119726D01*
X616286Y119767D01*
X616350Y119800D01*
X616387Y119837D01*
X616429Y119867D01*
X616472Y119924D01*
X616522Y119975D01*
X616557Y120038D01*
X616576Y120064D01*
X616583Y120086D01*
X616603Y120122D01*
X618386Y124425D01*
X621775Y127814D01*
X626203Y129649D01*
X630997Y129649D01*
X635425Y127814D01*
X638814Y124425D01*
X640597Y120122D01*
X640635Y120061D01*
X640664Y119996D01*
X640699Y119958D01*
X640726Y119913D01*
X640782Y119867D01*
X640830Y119815D01*
X640876Y119790D01*
X640916Y119756D01*
X640983Y119731D01*
X641046Y119696D01*
X641097Y119687D01*
X641145Y119668D01*
X641217Y119665D01*
X641288Y119652D01*
X641339Y119660D01*
X641391Y119658D01*
X641460Y119678D01*
X641531Y119688D01*
X641577Y119712D01*
X641627Y119726D01*
X641686Y119767D01*
X641750Y119800D01*
X641787Y119837D01*
X641829Y119867D01*
X641872Y119924D01*
X641922Y119975D01*
X641957Y120038D01*
X641976Y120064D01*
X641983Y120086D01*
X642003Y120122D01*
X643786Y124425D01*
X647175Y127814D01*
X651603Y129649D01*
X656397Y129649D01*
X660825Y127814D01*
X664214Y124425D01*
X666049Y119997D01*
X666049Y115203D01*
X664214Y110775D01*
X660825Y107386D01*
X656397Y105551D01*
X651603Y105551D01*
X647175Y107386D01*
X643786Y110775D01*
X642003Y115078D01*
X641965Y115139D01*
X641936Y115204D01*
X641901Y115243D01*
X641874Y115287D01*
X641818Y115333D01*
X641770Y115385D01*
X641724Y115410D01*
X641684Y115444D01*
X641617Y115469D01*
X641554Y115504D01*
X641503Y115513D01*
X641455Y115532D01*
X641383Y115535D01*
X641312Y115548D01*
X641261Y115540D01*
X641209Y115542D01*
X641140Y115522D01*
X641069Y115512D01*
X641023Y115488D01*
X640973Y115474D01*
X640914Y115433D01*
X640850Y115400D01*
X640813Y115363D01*
X640771Y115333D01*
X640728Y115276D01*
X640678Y115225D01*
X640643Y115162D01*
X640624Y115136D01*
X640617Y115114D01*
X640597Y115078D01*
X638814Y110775D01*
X635425Y107386D01*
X630997Y105551D01*
X626203Y105551D01*
X621775Y107386D01*
X618386Y110775D01*
X616603Y115078D01*
X616565Y115139D01*
X616536Y115204D01*
X616501Y115243D01*
X616474Y115287D01*
X616418Y115333D01*
X616370Y115385D01*
X616324Y115410D01*
X616284Y115444D01*
X616217Y115469D01*
X616154Y115504D01*
X616103Y115513D01*
X616055Y115532D01*
X615983Y115535D01*
X615912Y115548D01*
X615861Y115540D01*
X615809Y115542D01*
X615740Y115522D01*
X615669Y115512D01*
X615623Y115488D01*
X615573Y115474D01*
X615514Y115433D01*
X615450Y115400D01*
X615413Y115363D01*
X615371Y115333D01*
X615328Y115276D01*
X615278Y115225D01*
X615243Y115162D01*
X615224Y115136D01*
X615217Y115114D01*
X615197Y115078D01*
X613414Y110775D01*
X610025Y107386D01*
X605597Y105551D01*
X600803Y105551D01*
X596375Y107386D01*
X592986Y110775D01*
X591203Y115078D01*
X591165Y115139D01*
X591136Y115204D01*
X591101Y115243D01*
X591074Y115287D01*
X591018Y115333D01*
X590970Y115385D01*
X590924Y115410D01*
X590884Y115444D01*
X590817Y115469D01*
X590754Y115504D01*
X590703Y115513D01*
X590655Y115532D01*
X590583Y115535D01*
X590512Y115548D01*
X590461Y115540D01*
X590409Y115542D01*
X590340Y115522D01*
X590269Y115512D01*
X590223Y115488D01*
X590173Y115474D01*
X590114Y115433D01*
X590050Y115400D01*
X590013Y115363D01*
X589971Y115333D01*
X589928Y115276D01*
X589878Y115225D01*
X589843Y115162D01*
X589824Y115136D01*
X589817Y115114D01*
X589797Y115078D01*
X588014Y110775D01*
X584625Y107386D01*
X580197Y105551D01*
X575403Y105551D01*
G37*
%LPD*%
%LPC*%
G36*
X423414Y586623D02*
X423414Y586623D01*
X418839Y588518D01*
X415338Y592019D01*
X413443Y596594D01*
X413443Y601546D01*
X415338Y606121D01*
X418839Y609622D01*
X422328Y611067D01*
X422389Y611105D01*
X422454Y611134D01*
X422492Y611169D01*
X422537Y611196D01*
X422583Y611252D01*
X422635Y611300D01*
X422660Y611346D01*
X422694Y611386D01*
X422719Y611453D01*
X422754Y611516D01*
X422763Y611567D01*
X422782Y611615D01*
X422785Y611687D01*
X422798Y611758D01*
X422790Y611809D01*
X422792Y611861D01*
X422772Y611930D01*
X422762Y612001D01*
X422738Y612047D01*
X422724Y612097D01*
X422683Y612156D01*
X422650Y612220D01*
X422613Y612257D01*
X422583Y612299D01*
X422526Y612342D01*
X422475Y612392D01*
X422412Y612427D01*
X422386Y612446D01*
X422364Y612453D01*
X422328Y612473D01*
X418839Y613918D01*
X415338Y617419D01*
X413443Y621994D01*
X413443Y626946D01*
X415338Y631521D01*
X418839Y635022D01*
X423414Y636917D01*
X428366Y636917D01*
X432941Y635022D01*
X436442Y631521D01*
X438337Y626946D01*
X438337Y621994D01*
X436442Y617419D01*
X432941Y613918D01*
X429452Y612473D01*
X429391Y612435D01*
X429326Y612406D01*
X429287Y612371D01*
X429243Y612344D01*
X429197Y612288D01*
X429145Y612240D01*
X429120Y612194D01*
X429086Y612154D01*
X429061Y612087D01*
X429026Y612024D01*
X429017Y611973D01*
X428998Y611925D01*
X428995Y611853D01*
X428982Y611782D01*
X428990Y611731D01*
X428988Y611679D01*
X429008Y611610D01*
X429018Y611539D01*
X429042Y611493D01*
X429056Y611443D01*
X429097Y611384D01*
X429130Y611320D01*
X429167Y611283D01*
X429197Y611241D01*
X429254Y611198D01*
X429305Y611148D01*
X429368Y611113D01*
X429394Y611094D01*
X429416Y611087D01*
X429452Y611067D01*
X432941Y609622D01*
X436442Y606121D01*
X438337Y601546D01*
X438337Y596594D01*
X436442Y592019D01*
X432941Y588518D01*
X428366Y586623D01*
X423414Y586623D01*
G37*
%LPD*%
%LPC*%
G36*
X824903Y156651D02*
X824903Y156651D01*
X820475Y158486D01*
X817086Y161875D01*
X815251Y166303D01*
X815251Y171097D01*
X817086Y175525D01*
X820475Y178914D01*
X824778Y180697D01*
X824839Y180735D01*
X824904Y180764D01*
X824943Y180799D01*
X824987Y180826D01*
X825033Y180882D01*
X825085Y180930D01*
X825110Y180976D01*
X825144Y181016D01*
X825169Y181083D01*
X825204Y181146D01*
X825213Y181197D01*
X825232Y181245D01*
X825235Y181317D01*
X825248Y181388D01*
X825240Y181439D01*
X825242Y181491D01*
X825222Y181560D01*
X825212Y181631D01*
X825188Y181677D01*
X825174Y181727D01*
X825133Y181786D01*
X825100Y181850D01*
X825063Y181887D01*
X825033Y181929D01*
X824976Y181972D01*
X824925Y182022D01*
X824862Y182057D01*
X824836Y182076D01*
X824814Y182083D01*
X824778Y182103D01*
X820475Y183886D01*
X817086Y187275D01*
X815251Y191703D01*
X815251Y196497D01*
X817086Y200925D01*
X820475Y204314D01*
X824903Y206149D01*
X829697Y206149D01*
X834125Y204314D01*
X837514Y200925D01*
X839349Y196497D01*
X839349Y191703D01*
X837514Y187275D01*
X834125Y183886D01*
X829822Y182103D01*
X829761Y182065D01*
X829696Y182036D01*
X829658Y182001D01*
X829613Y181974D01*
X829567Y181918D01*
X829515Y181870D01*
X829490Y181824D01*
X829456Y181784D01*
X829431Y181717D01*
X829396Y181654D01*
X829387Y181603D01*
X829368Y181555D01*
X829365Y181483D01*
X829352Y181412D01*
X829360Y181361D01*
X829358Y181309D01*
X829378Y181240D01*
X829388Y181169D01*
X829412Y181123D01*
X829426Y181073D01*
X829467Y181014D01*
X829500Y180950D01*
X829537Y180913D01*
X829567Y180871D01*
X829624Y180828D01*
X829675Y180778D01*
X829738Y180743D01*
X829764Y180724D01*
X829786Y180717D01*
X829822Y180697D01*
X834125Y178914D01*
X837514Y175525D01*
X839349Y171097D01*
X839349Y166303D01*
X837514Y161875D01*
X834125Y158486D01*
X829697Y156651D01*
X824903Y156651D01*
G37*
%LPD*%
%LPC*%
G36*
X898237Y336451D02*
X898237Y336451D01*
X896451Y338237D01*
X896451Y361763D01*
X898237Y363549D01*
X921763Y363549D01*
X923549Y361763D01*
X923549Y338237D01*
X921763Y336451D01*
X898237Y336451D01*
G37*
%LPD*%
%LPC*%
G36*
X907305Y540751D02*
X907305Y540751D01*
X902325Y542814D01*
X898514Y546625D01*
X896451Y551605D01*
X896451Y556995D01*
X898514Y561975D01*
X902325Y565786D01*
X907305Y567849D01*
X912695Y567849D01*
X917675Y565786D01*
X921486Y561975D01*
X923549Y556995D01*
X923549Y551605D01*
X921486Y546625D01*
X917675Y542814D01*
X912695Y540751D01*
X907305Y540751D01*
G37*
%LPD*%
%LPC*%
G36*
X907305Y502651D02*
X907305Y502651D01*
X902325Y504714D01*
X898514Y508525D01*
X896451Y513505D01*
X896451Y518895D01*
X898514Y523875D01*
X902325Y527686D01*
X907305Y529749D01*
X912695Y529749D01*
X917675Y527686D01*
X921486Y523875D01*
X923549Y518895D01*
X923549Y513505D01*
X921486Y508525D01*
X917675Y504714D01*
X912695Y502651D01*
X907305Y502651D01*
G37*
%LPD*%
%LPC*%
G36*
X907305Y184051D02*
X907305Y184051D01*
X902325Y186114D01*
X898514Y189925D01*
X896451Y194905D01*
X896451Y200295D01*
X898514Y205275D01*
X902325Y209086D01*
X907305Y211149D01*
X912695Y211149D01*
X917675Y209086D01*
X921486Y205275D01*
X923549Y200295D01*
X923549Y194905D01*
X921486Y189925D01*
X917675Y186114D01*
X912695Y184051D01*
X907305Y184051D01*
G37*
%LPD*%
%LPC*%
G36*
X907305Y222151D02*
X907305Y222151D01*
X902325Y224214D01*
X898514Y228025D01*
X896451Y233005D01*
X896451Y238395D01*
X898514Y243375D01*
X902325Y247186D01*
X907305Y249249D01*
X912695Y249249D01*
X917675Y247186D01*
X921486Y243375D01*
X923549Y238395D01*
X923549Y233005D01*
X921486Y228025D01*
X917675Y224214D01*
X912695Y222151D01*
X907305Y222151D01*
G37*
%LPD*%
%LPC*%
G36*
X53894Y453411D02*
X53894Y453411D01*
X50002Y455023D01*
X47023Y458002D01*
X45411Y461894D01*
X45411Y466106D01*
X47023Y469998D01*
X50002Y472977D01*
X53894Y474589D01*
X58106Y474589D01*
X61998Y472977D01*
X64977Y469998D01*
X66589Y466106D01*
X66589Y461894D01*
X64977Y458002D01*
X61998Y455023D01*
X58106Y453411D01*
X53894Y453411D01*
G37*
%LPD*%
%LPC*%
G36*
X53894Y580411D02*
X53894Y580411D01*
X50002Y582023D01*
X47023Y585002D01*
X45411Y588894D01*
X45411Y593106D01*
X47023Y596998D01*
X50002Y599977D01*
X53894Y601589D01*
X58106Y601589D01*
X61998Y599977D01*
X64977Y596998D01*
X66589Y593106D01*
X66589Y588894D01*
X64977Y585002D01*
X61998Y582023D01*
X58106Y580411D01*
X53894Y580411D01*
G37*
%LPD*%
%LPC*%
G36*
X53894Y428011D02*
X53894Y428011D01*
X50002Y429623D01*
X47023Y432602D01*
X45411Y436494D01*
X45411Y440706D01*
X47023Y444598D01*
X50002Y447577D01*
X53894Y449189D01*
X58106Y449189D01*
X61998Y447577D01*
X64977Y444598D01*
X66589Y440706D01*
X66589Y436494D01*
X64977Y432602D01*
X61998Y429623D01*
X58106Y428011D01*
X53894Y428011D01*
G37*
%LPD*%
%LPC*%
G36*
X79294Y580411D02*
X79294Y580411D01*
X75402Y582023D01*
X72423Y585002D01*
X70811Y588894D01*
X70811Y593106D01*
X72423Y596998D01*
X75402Y599977D01*
X79294Y601589D01*
X83506Y601589D01*
X87398Y599977D01*
X90377Y596998D01*
X91989Y593106D01*
X91989Y588894D01*
X90377Y585002D01*
X87398Y582023D01*
X83506Y580411D01*
X79294Y580411D01*
G37*
%LPD*%
%LPC*%
G36*
X53894Y377211D02*
X53894Y377211D01*
X50002Y378823D01*
X47023Y381802D01*
X45411Y385694D01*
X45411Y389906D01*
X47023Y393798D01*
X50002Y396777D01*
X53894Y398389D01*
X58106Y398389D01*
X61998Y396777D01*
X64977Y393798D01*
X66589Y389906D01*
X66589Y385694D01*
X64977Y381802D01*
X61998Y378823D01*
X58106Y377211D01*
X53894Y377211D01*
G37*
%LPD*%
%LPC*%
G36*
X53894Y351811D02*
X53894Y351811D01*
X50002Y353423D01*
X47023Y356402D01*
X45411Y360294D01*
X45411Y364506D01*
X47023Y368398D01*
X50002Y371377D01*
X53894Y372989D01*
X58106Y372989D01*
X61998Y371377D01*
X64977Y368398D01*
X66589Y364506D01*
X66589Y360294D01*
X64977Y356402D01*
X61998Y353423D01*
X58106Y351811D01*
X53894Y351811D01*
G37*
%LPD*%
%LPC*%
G36*
X104694Y351811D02*
X104694Y351811D01*
X100802Y353423D01*
X97823Y356402D01*
X96211Y360294D01*
X96211Y364506D01*
X97823Y368398D01*
X100802Y371377D01*
X104694Y372989D01*
X108906Y372989D01*
X112798Y371377D01*
X115777Y368398D01*
X117389Y364506D01*
X117389Y360294D01*
X115777Y356402D01*
X112798Y353423D01*
X108906Y351811D01*
X104694Y351811D01*
G37*
%LPD*%
%LPC*%
G36*
X79294Y351811D02*
X79294Y351811D01*
X75402Y353423D01*
X72423Y356402D01*
X70811Y360294D01*
X70811Y364506D01*
X72423Y368398D01*
X75402Y371377D01*
X79294Y372989D01*
X83506Y372989D01*
X87398Y371377D01*
X90377Y368398D01*
X91989Y364506D01*
X91989Y360294D01*
X90377Y356402D01*
X87398Y353423D01*
X83506Y351811D01*
X79294Y351811D01*
G37*
%LPD*%
%LPC*%
G36*
X53894Y478811D02*
X53894Y478811D01*
X50002Y480423D01*
X47023Y483402D01*
X45411Y487294D01*
X45411Y491506D01*
X47023Y495398D01*
X50002Y498377D01*
X53894Y499989D01*
X58106Y499989D01*
X61998Y498377D01*
X64977Y495398D01*
X66589Y491506D01*
X66589Y487294D01*
X64977Y483402D01*
X61998Y480423D01*
X58106Y478811D01*
X53894Y478811D01*
G37*
%LPD*%
%LPC*%
G36*
X104694Y580411D02*
X104694Y580411D01*
X100802Y582023D01*
X97823Y585002D01*
X96211Y588894D01*
X96211Y593106D01*
X97823Y596998D01*
X100802Y599977D01*
X104694Y601589D01*
X108906Y601589D01*
X112798Y599977D01*
X115777Y596998D01*
X117389Y593106D01*
X117389Y588894D01*
X115777Y585002D01*
X112798Y582023D01*
X108906Y580411D01*
X104694Y580411D01*
G37*
%LPD*%
%LPC*%
G36*
X53894Y504211D02*
X53894Y504211D01*
X50002Y505823D01*
X47023Y508802D01*
X45411Y512694D01*
X45411Y516906D01*
X47023Y520798D01*
X50002Y523777D01*
X53894Y525389D01*
X58106Y525389D01*
X61998Y523777D01*
X64977Y520798D01*
X66589Y516906D01*
X66589Y512694D01*
X64977Y508802D01*
X61998Y505823D01*
X58106Y504211D01*
X53894Y504211D01*
G37*
%LPD*%
%LPC*%
G36*
X79294Y326411D02*
X79294Y326411D01*
X75402Y328023D01*
X72423Y331002D01*
X70811Y334894D01*
X70811Y339106D01*
X72423Y342998D01*
X75402Y345977D01*
X79294Y347589D01*
X83506Y347589D01*
X87398Y345977D01*
X90377Y342998D01*
X91989Y339106D01*
X91989Y334894D01*
X90377Y331002D01*
X87398Y328023D01*
X83506Y326411D01*
X79294Y326411D01*
G37*
%LPD*%
%LPC*%
G36*
X53894Y326411D02*
X53894Y326411D01*
X50002Y328023D01*
X47023Y331002D01*
X45411Y334894D01*
X45411Y339106D01*
X47023Y342998D01*
X50002Y345977D01*
X53894Y347589D01*
X58106Y347589D01*
X61998Y345977D01*
X64977Y342998D01*
X66589Y339106D01*
X66589Y334894D01*
X64977Y331002D01*
X61998Y328023D01*
X58106Y326411D01*
X53894Y326411D01*
G37*
%LPD*%
%LPC*%
G36*
X104694Y301011D02*
X104694Y301011D01*
X100802Y302623D01*
X97823Y305602D01*
X96211Y309494D01*
X96211Y313706D01*
X97823Y317598D01*
X100802Y320577D01*
X104694Y322189D01*
X108906Y322189D01*
X112798Y320577D01*
X115777Y317598D01*
X117389Y313706D01*
X117389Y309494D01*
X115777Y305602D01*
X112798Y302623D01*
X108906Y301011D01*
X104694Y301011D01*
G37*
%LPD*%
%LPC*%
G36*
X79294Y301011D02*
X79294Y301011D01*
X75402Y302623D01*
X72423Y305602D01*
X70811Y309494D01*
X70811Y313706D01*
X72423Y317598D01*
X75402Y320577D01*
X79294Y322189D01*
X83506Y322189D01*
X87398Y320577D01*
X90377Y317598D01*
X91989Y313706D01*
X91989Y309494D01*
X90377Y305602D01*
X87398Y302623D01*
X83506Y301011D01*
X79294Y301011D01*
G37*
%LPD*%
%LPC*%
G36*
X53894Y301011D02*
X53894Y301011D01*
X50002Y302623D01*
X47023Y305602D01*
X45411Y309494D01*
X45411Y313706D01*
X47023Y317598D01*
X50002Y320577D01*
X53894Y322189D01*
X58106Y322189D01*
X61998Y320577D01*
X64977Y317598D01*
X66589Y313706D01*
X66589Y309494D01*
X64977Y305602D01*
X61998Y302623D01*
X58106Y301011D01*
X53894Y301011D01*
G37*
%LPD*%
%LPC*%
G36*
X104694Y275611D02*
X104694Y275611D01*
X100802Y277223D01*
X97823Y280202D01*
X96211Y284094D01*
X96211Y288306D01*
X97823Y292198D01*
X100802Y295177D01*
X104694Y296789D01*
X108906Y296789D01*
X112798Y295177D01*
X115777Y292198D01*
X117389Y288306D01*
X117389Y284094D01*
X115777Y280202D01*
X112798Y277223D01*
X108906Y275611D01*
X104694Y275611D01*
G37*
%LPD*%
%LPC*%
G36*
X79294Y275611D02*
X79294Y275611D01*
X75402Y277223D01*
X72423Y280202D01*
X70811Y284094D01*
X70811Y288306D01*
X72423Y292198D01*
X75402Y295177D01*
X79294Y296789D01*
X83506Y296789D01*
X87398Y295177D01*
X90377Y292198D01*
X91989Y288306D01*
X91989Y284094D01*
X90377Y280202D01*
X87398Y277223D01*
X83506Y275611D01*
X79294Y275611D01*
G37*
%LPD*%
%LPC*%
G36*
X53894Y529611D02*
X53894Y529611D01*
X50002Y531223D01*
X47023Y534202D01*
X45411Y538094D01*
X45411Y542306D01*
X47023Y546198D01*
X50002Y549177D01*
X53894Y550789D01*
X58106Y550789D01*
X61998Y549177D01*
X64977Y546198D01*
X66589Y542306D01*
X66589Y538094D01*
X64977Y534202D01*
X61998Y531223D01*
X58106Y529611D01*
X53894Y529611D01*
G37*
%LPD*%
%LPC*%
G36*
X53894Y555011D02*
X53894Y555011D01*
X50002Y556623D01*
X47023Y559602D01*
X45411Y563494D01*
X45411Y567706D01*
X47023Y571598D01*
X50002Y574577D01*
X53894Y576189D01*
X58106Y576189D01*
X61998Y574577D01*
X64977Y571598D01*
X66589Y567706D01*
X66589Y563494D01*
X64977Y559602D01*
X61998Y556623D01*
X58106Y555011D01*
X53894Y555011D01*
G37*
%LPD*%
%LPC*%
G36*
X79294Y555011D02*
X79294Y555011D01*
X75402Y556623D01*
X72423Y559602D01*
X70811Y563494D01*
X70811Y567706D01*
X72423Y571598D01*
X75402Y574577D01*
X79294Y576189D01*
X83506Y576189D01*
X87398Y574577D01*
X90377Y571598D01*
X91989Y567706D01*
X91989Y563494D01*
X90377Y559602D01*
X87398Y556623D01*
X83506Y555011D01*
X79294Y555011D01*
G37*
%LPD*%
%LPC*%
G36*
X53894Y402611D02*
X53894Y402611D01*
X50002Y404223D01*
X47023Y407202D01*
X45411Y411094D01*
X45411Y415306D01*
X47023Y419198D01*
X50002Y422177D01*
X53894Y423789D01*
X58106Y423789D01*
X61998Y422177D01*
X64977Y419198D01*
X66589Y415306D01*
X66589Y411094D01*
X64977Y407202D01*
X61998Y404223D01*
X58106Y402611D01*
X53894Y402611D01*
G37*
%LPD*%
D10*
X56000Y210000D03*
D11*
X56000Y235400D03*
X56000Y260800D03*
X56000Y286200D03*
X56000Y311600D03*
X56000Y337000D03*
X56000Y362400D03*
X56000Y387800D03*
X56000Y413200D03*
X56000Y438600D03*
X56000Y464000D03*
X56000Y489400D03*
X56000Y514800D03*
X56000Y540200D03*
X56000Y565600D03*
X56000Y591000D03*
X81400Y210000D03*
X81400Y235400D03*
X81400Y260800D03*
X81400Y286200D03*
X81400Y311600D03*
X81400Y337000D03*
X81400Y362400D03*
X81400Y387800D03*
X81400Y413200D03*
X81400Y438600D03*
X81400Y464000D03*
X81400Y489400D03*
X81400Y514800D03*
X81400Y540200D03*
X81400Y565600D03*
X81400Y591000D03*
X106800Y210000D03*
X106800Y235400D03*
X106800Y260800D03*
X106800Y286200D03*
X106800Y311600D03*
X106800Y337000D03*
X106800Y362400D03*
X106800Y387800D03*
X106800Y413200D03*
X106800Y438600D03*
X106800Y464000D03*
X106800Y489400D03*
X106800Y514800D03*
X106800Y540200D03*
X106800Y565600D03*
X106800Y591000D03*
D12*
X522500Y737000D03*
X522500Y711600D03*
X522500Y686200D03*
X522500Y660800D03*
X522500Y635400D03*
X522500Y610000D03*
X522500Y584600D03*
X522500Y559200D03*
X522500Y533800D03*
X522500Y508400D03*
X522500Y483000D03*
X522500Y457600D03*
X827300Y686500D03*
X827300Y661100D03*
X827300Y635700D03*
X827300Y610300D03*
X827300Y584900D03*
X827300Y559500D03*
X827300Y534100D03*
X827300Y508700D03*
X577800Y457600D03*
X603200Y457600D03*
X628600Y457600D03*
X654000Y457600D03*
D13*
X302700Y432700D03*
X302700Y458100D03*
X302700Y483500D03*
X302700Y508900D03*
X302700Y534300D03*
X302700Y559700D03*
X302700Y585100D03*
X302700Y610500D03*
X302700Y635900D03*
X302700Y661300D03*
X302700Y686700D03*
X302700Y712100D03*
X455100Y712100D03*
X455100Y686700D03*
X455100Y661300D03*
X455100Y635900D03*
X455100Y610500D03*
X455100Y585100D03*
X455100Y559700D03*
X455100Y534300D03*
X455100Y508900D03*
X455100Y483500D03*
X455100Y458100D03*
X455100Y432700D03*
X425890Y599070D03*
X425890Y624470D03*
D12*
X522500Y397000D03*
X522500Y371600D03*
X522500Y346200D03*
X522500Y320800D03*
X522500Y295400D03*
X522500Y270000D03*
X522500Y244600D03*
X522500Y219200D03*
X522500Y193800D03*
X522500Y168400D03*
X522500Y143000D03*
X522500Y117600D03*
X827300Y346500D03*
X827300Y321100D03*
X827300Y295700D03*
X827300Y270300D03*
X827300Y244900D03*
X827300Y219500D03*
X827300Y194100D03*
X827300Y168700D03*
X577800Y117600D03*
X603200Y117600D03*
X628600Y117600D03*
X654000Y117600D03*
D14*
X910000Y350000D03*
D15*
X910000Y311900D03*
X910000Y273800D03*
X910000Y235700D03*
X910000Y197600D03*
X910000Y159500D03*
X910000Y121400D03*
D16*
X333000Y253000D03*
X333000Y208000D03*
D17*
X303810Y250000D02*
X296190Y250000D01*
D18*
X294920Y250000D03*
X305080Y250000D03*
D17*
X303810Y210000D02*
X296190Y210000D01*
D18*
X305080Y210000D03*
X294920Y210000D03*
D16*
X333000Y293000D03*
D17*
X303810Y290000D02*
X296190Y290000D01*
D18*
X294920Y290000D03*
X305080Y290000D03*
D19*
X227620Y571800D02*
X212380Y571800D01*
X212380Y546400D02*
X227620Y546400D01*
X227620Y521000D02*
X212380Y521000D01*
X212380Y495600D02*
X227620Y495600D01*
X227620Y470200D02*
X212380Y470200D01*
X212380Y444800D02*
X227620Y444800D01*
X227620Y419400D02*
X212380Y419400D01*
X212380Y394000D02*
X227620Y394000D01*
X227620Y368600D02*
X212380Y368600D01*
X212380Y343200D02*
X227620Y343200D01*
X227620Y317800D02*
X212380Y317800D01*
X212380Y292400D02*
X227620Y292400D01*
X227620Y267000D02*
X212380Y267000D01*
X212380Y241600D02*
X227620Y241600D01*
X227620Y216200D02*
X212380Y216200D01*
D14*
X910000Y668600D03*
D15*
X910000Y630500D03*
X910000Y592400D03*
X910000Y554300D03*
X910000Y516200D03*
X910000Y478100D03*
X910000Y440000D03*
D20*
X580000Y670000D03*
X420000Y140000D03*
X400000Y190000D03*
X571000Y664000D03*
X571000Y677000D03*
X410000Y190000D03*
X395000Y183000D03*
X415000Y148000D03*
X426000Y148000D03*
D21*
X143000Y337000D02*
X106800Y337000D01*
X222600Y168400D02*
X522500Y168400D01*
X185000Y295000D02*
X143000Y337000D01*
X185000Y295000D02*
X185000Y206000D01*
X222600Y168400D01*
X522500Y168400D02*
X542400Y168400D01*
X548000Y174000D01*
X548000Y370000D01*
X548000Y498000D01*
X537600Y508400D02*
X522500Y508400D01*
X537600Y508400D02*
X548000Y498000D01*
X546400Y371600D02*
X522500Y371600D01*
X546400Y371600D02*
X548000Y370000D01*
X530597Y705748D02*
X528352Y705748D01*
X522500Y711600D01*
X548000Y688345D02*
X548000Y498000D01*
X548000Y688345D02*
X530597Y705748D01*
X462078Y642878D02*
X455100Y635900D01*
X462078Y642878D02*
X462731Y642878D01*
X490000Y670147D01*
X490000Y681345D02*
X520255Y711600D01*
X522500Y711600D01*
X490000Y681345D02*
X490000Y670147D01*
D22*
X880000Y341900D02*
X910000Y311900D01*
X880000Y341900D02*
X880000Y360000D01*
X870000Y370000D01*
X548000Y370000D01*
X910000Y630500D02*
X930000Y650500D01*
X930000Y675347D02*
X893747Y711600D01*
X520255Y711600D01*
X930000Y675347D02*
X930000Y650500D01*
X522500Y559200D02*
X472200Y508900D01*
X455100Y508900D01*
D20*
X190000Y360000D03*
D22*
X143250Y377846D02*
X142154Y377846D01*
X161096Y360000D02*
X190000Y360000D01*
X161096Y360000D02*
X143250Y377846D01*
X132200Y387800D02*
X106800Y387800D01*
X132200Y387800D02*
X142154Y377846D01*
X360000Y413800D02*
X455100Y508900D01*
X360000Y413800D02*
X360000Y370000D01*
X346916Y356916D01*
X300000Y356916D01*
D20*
X300000Y356916D03*
X320000Y370000D03*
D22*
X268144Y370000D01*
X232460Y405684D01*
X114666Y405684D02*
X114342Y406008D01*
X113992Y406008D01*
X106800Y413200D01*
X114666Y405684D02*
X232460Y405684D01*
D20*
X410000Y400000D03*
D22*
X410000Y438400D01*
X455100Y483500D01*
D20*
X490248Y510248D03*
D22*
X477546Y497546D01*
X477546Y478345D01*
X457301Y458100D01*
X455100Y458100D01*
D20*
X250000Y430000D03*
D22*
X233544Y430000D01*
X113992Y431408D02*
X106800Y438600D01*
X232136Y431408D02*
X233544Y430000D01*
X232136Y431408D02*
X113992Y431408D01*
X420000Y423000D02*
X455100Y458100D01*
X420000Y423000D02*
X420000Y410000D01*
D20*
X420000Y410000D03*
D22*
X226200Y210000D02*
X220000Y216200D01*
X226200Y210000D02*
X294920Y210000D01*
D20*
X140000Y370000D03*
D22*
X199454Y310546D01*
X199454Y240000D01*
D20*
X199454Y240000D03*
D22*
X220000Y241600D02*
X251600Y241600D01*
X260000Y250000D01*
X294920Y250000D01*
X294920Y290000D02*
X280000Y290000D01*
X257000Y267000D02*
X220000Y267000D01*
X270000Y280000D02*
X280000Y290000D01*
X270000Y280000D02*
X257000Y267000D01*
X93004Y399404D02*
X81400Y387800D01*
X135340Y394000D02*
X220000Y394000D01*
X135340Y394000D02*
X134936Y394404D01*
X116607Y394404D01*
X111607Y399404D01*
X93004Y399404D01*
X117011Y419400D02*
X220000Y419400D01*
X93004Y424804D02*
X81400Y413200D01*
X111607Y424804D02*
X117011Y419400D01*
X111607Y424804D02*
X93004Y424804D01*
X117011Y444800D02*
X220000Y444800D01*
X117011Y444800D02*
X111607Y450204D01*
X93004Y450204D01*
X81400Y438600D01*
X117011Y470200D02*
X220000Y470200D01*
X117011Y470200D02*
X111607Y475604D01*
X93004Y475604D01*
X81400Y464000D01*
X117011Y495600D02*
X220000Y495600D01*
X117011Y495600D02*
X111607Y501004D01*
X93004Y501004D01*
X81400Y489400D01*
X117011Y521000D02*
X220000Y521000D01*
X117011Y521000D02*
X111607Y526404D01*
X93004Y526404D01*
X81400Y514800D01*
X101993Y551804D02*
X111607Y551804D01*
X90389Y540200D02*
X81400Y540200D01*
X90389Y540200D02*
X101993Y551804D01*
X111607Y551804D02*
X117011Y546400D01*
X220000Y546400D01*
X239304Y516160D02*
X232460Y509316D01*
X113871Y514800D02*
X106800Y514800D01*
X119355Y509316D02*
X232460Y509316D01*
X119355Y509316D02*
X113871Y514800D01*
X220000Y570544D02*
X220000Y571800D01*
X220000Y570544D02*
X239304Y551240D01*
X239304Y516160D01*
X305080Y210000D02*
X331000Y210000D01*
X333000Y208000D01*
X455100Y330100D01*
X455100Y432700D01*
D23*
X827300Y610300D02*
X830600Y607000D01*
X840000Y607000D01*
X850000Y597000D01*
X869000Y440000D02*
X910000Y440000D01*
X850000Y459000D02*
X850000Y597000D01*
X850000Y459000D02*
X869000Y440000D01*
X832000Y631000D02*
X827300Y635700D01*
X871000Y607000D02*
X871000Y504000D01*
X896900Y478100D01*
X910000Y478100D01*
X847000Y631000D02*
X832000Y631000D01*
X847000Y631000D02*
X871000Y607000D01*
D20*
X360000Y630000D03*
D22*
X334000Y630000D01*
X302700Y661300D01*
D20*
X340000Y370000D03*
D22*
X302700Y629538D02*
X302700Y635900D01*
X302700Y629538D02*
X317686Y614552D01*
X317686Y392314D02*
X340000Y370000D01*
X317686Y392314D02*
X317686Y614552D01*
D23*
X828000Y271000D02*
X832000Y271000D01*
X828000Y271000D02*
X827300Y270300D01*
X832000Y271000D02*
X853000Y250000D01*
X867600Y121400D02*
X910000Y121400D01*
X853000Y136000D02*
X853000Y250000D01*
X853000Y136000D02*
X867600Y121400D01*
X831000Y292000D02*
X827300Y295700D01*
X831000Y292000D02*
X844000Y292000D01*
X875000Y261000D01*
X887500Y159500D02*
X910000Y159500D01*
X875000Y172000D02*
X875000Y261000D01*
X875000Y172000D02*
X887500Y159500D01*
D22*
X308080Y253000D02*
X305080Y250000D01*
X308080Y253000D02*
X333000Y253000D01*
X207540Y227884D02*
X200696Y221040D01*
X200696Y211360D01*
X522500Y526875D02*
X522500Y533800D01*
X522500Y526875D02*
X509436Y513811D01*
X509436Y367912D02*
X337840Y196316D01*
X509436Y367912D02*
X509436Y513811D01*
X333000Y253000D02*
X307884Y227884D01*
X207540Y227884D01*
X200696Y211360D02*
X215740Y196316D01*
X337840Y196316D01*
X305080Y290000D02*
X308080Y293000D01*
X333000Y293000D01*
M02*
