G04 EAGLE Gerber RS-274X export*
G75*
%MOMM*%
%FSLAX34Y34*%
%LPD*%
%INSoldermask Bottom*%
%IPPOS*%
%AMOC8*
5,1,8,0,0,1.08239X$1,22.5*%
G01*
%ADD10C,2.453200*%
%ADD11C,3.003200*%
%ADD12R,1.711200X1.711200*%
%ADD13C,1.711200*%
%ADD14C,2.003200*%
%ADD15C,2.082800*%
%ADD16R,2.303200X2.303200*%
%ADD17C,2.303200*%
%ADD18P,1.869504X8X22.500000*%
%ADD19C,1.727200*%
%ADD20C,0.959600*%


D10*
X28400Y56400D03*
X28400Y743600D03*
X971600Y743600D03*
X971600Y56400D03*
D11*
X30600Y641800D03*
X30600Y159200D03*
D12*
X56000Y210000D03*
D13*
X56000Y235400D03*
X56000Y260800D03*
X56000Y286200D03*
X56000Y311600D03*
X56000Y337000D03*
X56000Y362400D03*
X56000Y387800D03*
X56000Y413200D03*
X56000Y438600D03*
X56000Y464000D03*
X56000Y489400D03*
X56000Y514800D03*
X56000Y540200D03*
X56000Y565600D03*
X56000Y591000D03*
X81400Y210000D03*
X81400Y235400D03*
X81400Y260800D03*
X81400Y286200D03*
X81400Y311600D03*
X81400Y337000D03*
X81400Y362400D03*
X81400Y387800D03*
X81400Y413200D03*
X81400Y438600D03*
X81400Y464000D03*
X81400Y489400D03*
X81400Y514800D03*
X81400Y540200D03*
X81400Y565600D03*
X81400Y591000D03*
X106800Y210000D03*
X106800Y235400D03*
X106800Y260800D03*
X106800Y286200D03*
X106800Y311600D03*
X106800Y337000D03*
X106800Y362400D03*
X106800Y387800D03*
X106800Y413200D03*
X106800Y438600D03*
X106800Y464000D03*
X106800Y489400D03*
X106800Y514800D03*
X106800Y540200D03*
X106800Y565600D03*
X106800Y591000D03*
D14*
X522500Y737000D03*
X522500Y711600D03*
X522500Y686200D03*
X522500Y660800D03*
X522500Y635400D03*
X522500Y610000D03*
X522500Y584600D03*
X522500Y559200D03*
X522500Y533800D03*
X522500Y508400D03*
X522500Y483000D03*
X522500Y457600D03*
X827300Y686500D03*
X827300Y661100D03*
X827300Y635700D03*
X827300Y610300D03*
X827300Y584900D03*
X827300Y559500D03*
X827300Y534100D03*
X827300Y508700D03*
X577800Y457600D03*
X603200Y457600D03*
X628600Y457600D03*
X654000Y457600D03*
D15*
X302700Y432700D03*
X302700Y458100D03*
X302700Y483500D03*
X302700Y508900D03*
X302700Y534300D03*
X302700Y559700D03*
X302700Y585100D03*
X302700Y610500D03*
X302700Y635900D03*
X302700Y661300D03*
X302700Y686700D03*
X302700Y712100D03*
X455100Y712100D03*
X455100Y686700D03*
X455100Y661300D03*
X455100Y635900D03*
X455100Y610500D03*
X455100Y585100D03*
X455100Y559700D03*
X455100Y534300D03*
X455100Y508900D03*
X455100Y483500D03*
X455100Y458100D03*
X455100Y432700D03*
X425890Y599070D03*
X425890Y624470D03*
D14*
X522500Y397000D03*
X522500Y371600D03*
X522500Y346200D03*
X522500Y320800D03*
X522500Y295400D03*
X522500Y270000D03*
X522500Y244600D03*
X522500Y219200D03*
X522500Y193800D03*
X522500Y168400D03*
X522500Y143000D03*
X522500Y117600D03*
X827300Y346500D03*
X827300Y321100D03*
X827300Y295700D03*
X827300Y270300D03*
X827300Y244900D03*
X827300Y219500D03*
X827300Y194100D03*
X827300Y168700D03*
X577800Y117600D03*
X603200Y117600D03*
X628600Y117600D03*
X654000Y117600D03*
D16*
X910000Y350000D03*
D17*
X910000Y311900D03*
X910000Y273800D03*
X910000Y235700D03*
X910000Y197600D03*
X910000Y159500D03*
X910000Y121400D03*
D18*
X333000Y253000D03*
X333000Y208000D03*
X333000Y293000D03*
D19*
X227620Y571800D02*
X212380Y571800D01*
X212380Y546400D02*
X227620Y546400D01*
X227620Y521000D02*
X212380Y521000D01*
X212380Y495600D02*
X227620Y495600D01*
X227620Y470200D02*
X212380Y470200D01*
X212380Y444800D02*
X227620Y444800D01*
X227620Y419400D02*
X212380Y419400D01*
X212380Y394000D02*
X227620Y394000D01*
X227620Y368600D02*
X212380Y368600D01*
X212380Y343200D02*
X227620Y343200D01*
X227620Y317800D02*
X212380Y317800D01*
X212380Y292400D02*
X227620Y292400D01*
X227620Y267000D02*
X212380Y267000D01*
X212380Y241600D02*
X227620Y241600D01*
X227620Y216200D02*
X212380Y216200D01*
D16*
X910000Y668600D03*
D17*
X910000Y630500D03*
X910000Y592400D03*
X910000Y554300D03*
X910000Y516200D03*
X910000Y478100D03*
X910000Y440000D03*
D20*
X580000Y670000D03*
X420000Y140000D03*
X400000Y190000D03*
X571000Y664000D03*
X571000Y677000D03*
X410000Y190000D03*
X395000Y183000D03*
X415000Y148000D03*
X426000Y148000D03*
X190000Y360000D03*
X300000Y356916D03*
X320000Y370000D03*
X410000Y400000D03*
X490248Y510248D03*
X250000Y430000D03*
X420000Y410000D03*
X140000Y370000D03*
X199454Y240000D03*
X360000Y630000D03*
X340000Y370000D03*
M02*
