M48
;GenerationSoftware,Autodesk,EAGLE,9.6.2*%
;CreationDate,2021-09-13T15:56:34Z*%
FMAT,2
ICI,OFF
METRIC,TZ,000.000
T7C0.350
T6C1.000
T5C1.016
T4C1.200
T3C1.400
T2C2.250
T1C2.800
%
G90
M71
T1
X3060Y15920
X3060Y64180
T2
X97160Y5640
X97160Y74360
X2840Y74360
X2840Y5640
T3
X91000Y44000
X91000Y47810
X91000Y51620
X91000Y55430
X91000Y59240
X91000Y63050
X91000Y66860
X91000Y12140
X91000Y15950
X91000Y19760
X91000Y23570
X91000Y27380
X91000Y31190
X91000Y35000
T4
X82730Y58490
X65400Y11760
X62860Y11760
X60320Y11760
X57780Y11760
X82730Y16870
X82730Y19410
X82730Y21950
X82730Y24490
X82730Y27030
X82730Y29570
X82730Y32110
X82730Y34650
X52250Y11760
X52250Y14300
X52250Y16840
X52250Y19380
X52250Y21920
X52250Y24460
X52250Y27000
X52250Y29540
X52250Y32080
X52250Y34620
X52250Y37160
X52250Y39700
X65400Y45760
X62860Y45760
X60320Y45760
X57780Y45760
X82730Y50870
X82730Y53410
X82730Y55950
X82730Y61030
X82730Y63570
X82730Y66110
X82730Y68650
X52250Y45760
X52250Y48300
X52250Y50840
X52250Y53380
X52250Y55920
X52250Y58460
X52250Y61000
X52250Y63540
X52250Y66080
X52250Y68620
X52250Y71160
X52250Y73700
T5
X22000Y31780
X45510Y61050
X22000Y57180
X33300Y29300
X33300Y20800
X33300Y25300
X22000Y52100
X22000Y49560
X22000Y47020
X22000Y44480
X22000Y41940
X22000Y39400
X22000Y36860
X30270Y48350
X22000Y21620
X22000Y24160
X22000Y26700
X22000Y29240
X42589Y62447
X42589Y59907
X45510Y43270
X45510Y45810
X45510Y48350
X45510Y50890
X45510Y53430
X45510Y55970
X45510Y58510
X22000Y54640
X45510Y63590
X45510Y66130
X30270Y43270
X30270Y45810
X22000Y34320
X30270Y50890
X30270Y53430
X30270Y55970
X30270Y58510
X30270Y61050
X30270Y63590
X30270Y66130
X30270Y68670
X30270Y71210
X45510Y71210
X45510Y68670
T6
X8140Y28620
X8140Y31160
X8140Y33700
X8140Y36240
X8140Y38780
X8140Y41320
X8140Y43860
X10680Y46400
X8140Y46400
X8140Y48940
X8140Y51480
X8140Y54020
X8140Y26080
X8140Y23540
X8140Y21000
X5600Y59100
X5600Y56560
X5600Y54020
X5600Y51480
X5600Y48940
X5600Y46400
X5600Y43860
X5600Y41320
X5600Y38780
X5600Y36240
X5600Y33700
X5600Y31160
X5600Y28620
X5600Y26080
X5600Y23540
X5600Y21000
X8140Y56560
X8140Y59100
X10680Y21000
X10680Y23540
X10680Y26080
X10680Y28620
X10680Y31160
X10680Y33700
X10680Y36240
X10680Y38780
X10680Y41320
X10680Y43860
X10680Y59100
X10680Y56560
X10680Y54020
X10680Y51480
X10680Y48940
T7
X41500Y14800
X42600Y14800
X19000Y36000
X30000Y35692
X32000Y37000
X41000Y40000
X49025Y51025
X36000Y63000
X34000Y37000
X25000Y43000
X42000Y41000
X14000Y37000
X19945Y24000
X39500Y18300
X41000Y19000
X57100Y67700
X57100Y66400
X40000Y19000
X42000Y14000
X58000Y67000
M30