M48
;GenerationSoftware,Autodesk,EAGLE,9.6.2*%
;CreationDate,2021-09-13T18:54:20Z*%
FMAT,2
ICI,OFF
METRIC,TZ,000.000
T7C0.350
T6C0.743
T5C0.900
T4C1.000
T3C1.016
T2C2.250
T1C2.800
%
G90
M71
T1
X3060Y15920
X3060Y64180
T2
X97160Y5640
X97160Y74360
X2840Y74360
X2840Y5640
T3
X20600Y22220
X20600Y24760
X20600Y27300
X20600Y29840
X20600Y32380
X20600Y34920
X20600Y37460
X20600Y40000
X20600Y42540
X20600Y45080
X20600Y47620
X20600Y50160
X20600Y52700
X20600Y55240
X20600Y57780
X30050Y44000
X30050Y40250
X30050Y36500
X30050Y32750
X30050Y29000
T4
X10680Y43860
X10680Y46400
X82400Y19200
X79900Y14000
X93600Y14000
X5600Y21000
X5600Y23540
X5600Y26080
X5600Y28620
X5600Y31160
X5600Y33700
X5600Y36240
X5600Y38780
X5600Y41320
X5600Y43860
X5600Y46400
X5600Y48940
X5600Y51480
X5600Y54020
X5600Y56560
X5600Y59100
X8140Y21000
X8140Y23540
X8140Y26080
X8140Y28620
X8140Y31160
X8140Y33700
X8140Y36240
X8140Y38780
X8140Y41320
X8140Y43860
X8140Y46400
X8140Y48940
X8140Y51480
X8140Y54020
X8140Y56560
X8140Y59100
X10680Y21000
X10680Y23540
X10680Y26080
X10680Y28620
X10680Y31160
X10680Y33700
X10680Y36240
X10680Y38780
X10680Y41320
X82400Y31200
X79900Y26000
X10680Y48940
X10680Y51480
X10680Y54020
X10680Y56560
X10680Y59100
X93600Y26000
T5
X91000Y36750
X91000Y34250
X91000Y39250
X91000Y54750
X91000Y52250
X91000Y49750
X91000Y41750
X91000Y47250
T6
X44270Y77350
X46810Y77350
X44270Y64650
X41730Y64650
X39190Y64650
X39190Y77350
X62810Y67017
X60270Y67017
X57730Y67017
X55190Y67017
X55190Y54317
X57730Y54317
X60270Y54317
X62810Y54317
X46810Y56683
X44270Y56683
X41730Y56683
X39190Y56683
X39190Y43983
X41730Y43983
X44270Y43983
X46810Y43983
X61810Y46350
X59270Y46350
X56730Y46350
X54190Y46350
X54190Y33650
X56730Y33650
X59270Y33650
X61810Y33650
X41730Y77350
X46810Y64650
T7
X87000Y22000
X38000Y40000
X34000Y50000
X71000Y22000
X74000Y11000
X70000Y17000
X58000Y45000
X39000Y54000
X37000Y56000
X26000Y54000
X15670Y45980
X24000Y47000
X30000Y47000
X32000Y47000
X70000Y29000
X54540Y64980
X60000Y42000
X67000Y29000
X12440Y42590
X58000Y43000
X70120Y27540
X60000Y44000
X66000Y29000
X11227Y45130
X60000Y36000
M30