M48
;GenerationSoftware,Autodesk,EAGLE,9.6.2*%
;CreationDate,2021-09-13T15:42:09Z*%
FMAT,2
ICI,OFF
METRIC,TZ,000.000
T7C0.350
T6C1.000
T5C1.016
T4C1.040
T3C1.800
T2C2.790
T1C3.400
%
G90
M71
T1
X115000Y3000
X115000Y77000
X222000Y77000
X222000Y3000
X3000Y3000
X3000Y77000
T2
X169480Y64690
X169480Y15310
X149160Y64690
X149160Y15310
X128840Y64690
X128840Y15310
X108520Y64690
X108520Y15310
X88200Y64690
X88200Y15310
X67880Y64690
X67880Y15310
X47560Y64690
X47560Y15310
X27240Y64690
X27240Y15310
T3
X8000Y67000
X8000Y57000
T4
X219700Y19740
X219700Y22280
X219700Y24820
X219700Y27360
X219700Y29900
X219700Y32440
X219700Y34980
X219700Y37520
X219700Y40060
X219700Y42600
X219700Y45140
X219700Y47680
X219700Y50220
X219700Y52760
X194300Y9580
X194300Y12120
X194300Y14660
X194300Y17200
X194300Y19740
X194300Y22280
X194300Y24820
X194300Y27360
X194300Y29900
X194300Y32440
X194300Y34980
X194300Y37520
X194300Y40060
X194300Y42600
X194300Y45140
X194300Y47680
X194300Y7040
X194300Y50220
X194300Y52760
X219700Y17200
X219700Y14660
X219700Y12120
X219700Y9580
X219700Y7040
T5
X217260Y7040
X217260Y9580
X217260Y12120
X217260Y14660
X217260Y17200
X217260Y19740
X217260Y22280
X217260Y24820
X217260Y27360
X217260Y29900
X217260Y32440
X217260Y34980
X217260Y37520
X217260Y40060
X217260Y42600
X217260Y45140
X217260Y47680
X186730Y48780
X189270Y48780
X186730Y46240
X189270Y46240
X186730Y43700
X189270Y43700
X186730Y41160
X189270Y41160
X186730Y38620
X189270Y38620
X186730Y36080
X189270Y36080
X186730Y33540
X189270Y33540
X186730Y31000
X189270Y31000
X186730Y28460
X189270Y28460
X186730Y25920
X189270Y25920
X186730Y23380
X189270Y23380
X186730Y20840
X189270Y20840
X186730Y18300
X189270Y18300
X186730Y15760
X189270Y15760
X186730Y13220
X189270Y13220
X217260Y50220
X217260Y52760
T6
X30080Y59050
X30080Y56510
X30080Y53970
X30080Y51430
X30080Y48890
X30080Y46350
X30080Y43810
X30080Y41270
X30080Y38730
X30080Y36190
X30080Y33650
X30080Y31110
X30080Y28570
X30080Y26030
X30080Y23490
X30080Y20950
X45320Y59050
X45320Y56510
X45320Y53970
X45320Y51430
X45320Y48890
X45320Y46350
X45320Y43810
X45320Y41270
X45320Y38730
X45320Y36190
X45320Y33650
X45320Y31110
X45320Y28570
X45320Y26030
X45320Y23490
X45320Y20950
X47860Y59050
X47860Y56510
X47860Y53970
X47860Y51430
X47860Y48890
X47860Y46350
X47860Y43810
X47860Y41270
X47860Y38730
X47860Y36190
X47860Y33650
X47860Y31110
X47860Y28570
X47860Y26030
X47860Y23490
X47860Y20950
X50400Y59050
X50400Y56510
X50400Y53970
X50400Y51430
X50400Y48890
X50400Y46350
X50400Y43810
X50400Y41270
X50400Y38730
X50400Y36190
X50400Y33650
X50400Y31110
X50400Y28570
X50400Y26030
X50400Y23490
X50400Y20950
X65640Y59050
X65640Y56510
X65640Y53970
X65640Y51430
X65640Y48890
X65640Y46350
X65640Y43810
X65640Y41270
X65640Y38730
X65640Y36190
X65640Y33650
X65640Y31110
X65640Y28570
X65640Y26030
X65640Y23490
X65640Y20950
X68180Y59050
X68180Y56510
X68180Y53970
X68180Y51430
X68180Y48890
X68180Y46350
X68180Y43810
X68180Y41270
X68180Y38730
X68180Y36190
X68180Y33650
X68180Y31110
X68180Y28570
X68180Y26030
X68180Y23490
X68180Y20950
X70720Y59050
X70720Y56510
X70720Y53970
X70720Y51430
X70720Y48890
X70720Y46350
X70720Y43810
X70720Y41270
X70720Y38730
X70720Y36190
X70720Y33650
X70720Y31110
X70720Y28570
X70720Y26030
X70720Y23490
X70720Y20950
X85960Y59050
X85960Y56510
X85960Y53970
X85960Y51430
X85960Y48890
X85960Y46350
X85960Y43810
X85960Y41270
X85960Y38730
X85960Y36190
X85960Y33650
X85960Y31110
X85960Y28570
X85960Y26030
X85960Y23490
X85960Y20950
X88500Y59050
X88500Y56510
X88500Y53970
X88500Y51430
X88500Y48890
X88500Y46350
X88500Y43810
X88500Y41270
X88500Y38730
X88500Y36190
X88500Y33650
X88500Y31110
X88500Y28570
X88500Y26030
X88500Y23490
X88500Y20950
X91040Y59050
X91040Y56510
X91040Y53970
X91040Y51430
X91040Y48890
X91040Y46350
X91040Y43810
X91040Y41270
X91040Y38730
X91040Y36190
X91040Y33650
X91040Y31110
X91040Y28570
X91040Y26030
X91040Y23490
X91040Y20950
X106280Y59050
X106280Y56510
X106280Y53970
X106280Y51430
X106280Y48890
X106280Y46350
X106280Y43810
X106280Y41270
X106280Y38730
X106280Y36190
X106280Y33650
X106280Y31110
X106280Y28570
X106280Y26030
X106280Y23490
X106280Y20950
X108820Y59050
X108820Y56510
X108820Y53970
X108820Y51430
X108820Y48890
X108820Y46350
X108820Y43810
X108820Y41270
X108820Y38730
X108820Y36190
X108820Y33650
X108820Y31110
X108820Y28570
X108820Y26030
X108820Y23490
X108820Y20950
X111360Y59050
X111360Y56510
X111360Y53970
X111360Y51430
X111360Y48890
X111360Y46350
X111360Y43810
X111360Y41270
X111360Y38730
X111360Y36190
X111360Y33650
X111360Y31110
X111360Y28570
X111360Y26030
X111360Y23490
X111360Y20950
X126600Y59050
X126600Y56510
X126600Y53970
X126600Y51430
X126600Y48890
X126600Y46350
X126600Y43810
X126600Y41270
X126600Y38730
X126600Y36190
X126600Y33650
X126600Y31110
X126600Y28570
X126600Y26030
X126600Y23490
X126600Y20950
X129140Y59050
X129140Y56510
X129140Y53970
X129140Y51430
X129140Y48890
X129140Y46350
X129140Y43810
X129140Y41270
X129140Y38730
X129140Y36190
X129140Y33650
X129140Y31110
X129140Y28570
X129140Y26030
X129140Y23490
X129140Y20950
X131680Y59050
X131680Y56510
X131680Y53970
X131680Y51430
X131680Y48890
X131680Y46350
X131680Y43810
X131680Y41270
X131680Y38730
X131680Y36190
X131680Y33650
X131680Y31110
X131680Y28570
X131680Y26030
X131680Y23490
X131680Y20950
X146920Y59050
X146920Y56510
X146920Y53970
X146920Y51430
X146920Y48890
X146920Y46350
X146920Y43810
X146920Y41270
X146920Y38730
X146920Y36190
X146920Y33650
X146920Y31110
X146920Y28570
X146920Y26030
X146920Y23490
X146920Y20950
X149460Y59050
X149460Y56510
X149460Y53970
X149460Y51430
X149460Y48890
X149460Y46350
X149460Y43810
X149460Y41270
X149460Y38730
X149460Y36190
X149460Y33650
X149460Y31110
X149460Y28570
X149460Y26030
X149460Y23490
X149460Y20950
X152000Y59050
X152000Y56510
X152000Y53970
X152000Y51430
X152000Y48890
X152000Y46350
X152000Y43810
X152000Y41270
X152000Y38730
X152000Y36190
X152000Y33650
X152000Y31110
X152000Y28570
X152000Y26030
X152000Y23490
X152000Y20950
X167240Y59050
X167240Y56510
X167240Y53970
X167240Y51430
X167240Y48890
X167240Y46350
X167240Y43810
X167240Y41270
X167240Y38730
X167240Y36190
X167240Y33650
X167240Y31110
X167240Y28570
X167240Y26030
X167240Y23490
X167240Y20950
X169780Y59050
X169780Y56510
X169780Y53970
X169780Y51430
X169780Y48890
X169780Y46350
X169780Y43810
X169780Y41270
X169780Y38730
X169780Y36190
X169780Y33650
X169780Y31110
X169780Y28570
X169780Y26030
X169780Y23490
X169780Y20950
X172320Y59050
X172320Y56510
X172320Y53970
X172320Y51430
X172320Y48890
X172320Y46350
X172320Y43810
X172320Y41270
X172320Y38730
X172320Y36190
X172320Y33650
X172320Y31110
X172320Y28570
X172320Y26030
X172320Y23490
X172320Y20950
X27540Y20950
X27540Y23490
X27540Y26030
X27540Y28570
X27540Y31110
X27540Y33650
X27540Y36190
X27540Y38730
X27540Y41270
X27540Y43810
X27540Y46350
X27540Y48890
X27540Y51430
X27540Y53970
X27540Y56510
X27540Y59050
X25000Y20950
X25000Y23490
X25000Y26030
X25000Y28570
X25000Y31110
X25000Y33650
X25000Y36190
X25000Y38730
X25000Y41270
X25000Y43810
X25000Y46350
X25000Y48890
X25000Y51430
X25000Y53970
X25000Y56510
X25000Y59050
T7
X174000Y27000
X177000Y35000
X181000Y39000
X181000Y45399
X180000Y39000
X183000Y50000
X181000Y37000
X188000Y43192
X188000Y48000
X192000Y24000
X175000Y31000
X191000Y19000
X185000Y39000
X178800Y34200
X190590Y47520
X201000Y40000
X205000Y43000
X184000Y42000
X189000Y11927
X182000Y21000
X176000Y28000
X180000Y32000
X185000Y31000
X182050Y28050
X174135Y19135
X184000Y34900
X179091Y32000
X185000Y30000
X177000Y32000
X191000Y13000
X22000Y41000
X182000Y25000
X185000Y24000
X191000Y21000
X193000Y22000
X191250Y29930
X191000Y35000
X188010Y32250
X162400Y40187
X185721Y32721
X182000Y30000
X192000Y46000
X191000Y45000
X180000Y31000
X156000Y29000
X157000Y27000
X158000Y22000
X192000Y7000
X192000Y8000
X162000Y19000
X162000Y25000
X161720Y29410
X190000Y50000
X197000Y46000
X175000Y40000
X174000Y38000
X190000Y54000
M30