G04 EAGLE Gerber RS-274X export*
G75*
%MOMM*%
%FSLAX34Y34*%
%LPD*%
%INTop Copper*%
%IPPOS*%
%AMOC8*
5,1,8,0,0,1.08239X$1,22.5*%
G01*
%ADD10R,1.508000X1.508000*%
%ADD11C,1.508000*%
%ADD12C,5.000000*%
%ADD13R,1.016000X2.692400*%
%ADD14R,10.160000X8.940800*%
%ADD15R,1.500000X1.270000*%
%ADD16R,1.600000X1.300000*%
%ADD17P,1.649562X8X112.500000*%
%ADD18R,1.560000X1.560000*%
%ADD19C,1.560000*%
%ADD20C,1.524000*%
%ADD21C,1.600000*%
%ADD22C,5.000000*%
%ADD23C,2.200000*%
%ADD24C,0.756400*%
%ADD25C,0.254000*%
%ADD26C,0.609600*%
%ADD27C,0.508000*%
%ADD28C,1.270000*%

G36*
X1723118Y532007D02*
X1723118Y532007D01*
X1723236Y532004D01*
X1723517Y532027D01*
X1723799Y532041D01*
X1723915Y532058D01*
X1724033Y532068D01*
X1724310Y532118D01*
X1724589Y532160D01*
X1724704Y532189D01*
X1724820Y532210D01*
X1725091Y532288D01*
X1725364Y532358D01*
X1725475Y532399D01*
X1725588Y532431D01*
X1725850Y532536D01*
X1726116Y532632D01*
X1726222Y532684D01*
X1726331Y532727D01*
X1726582Y532858D01*
X1726836Y532980D01*
X1726936Y533042D01*
X1727041Y533096D01*
X1727277Y533251D01*
X1727517Y533398D01*
X1727611Y533470D01*
X1727710Y533534D01*
X1727929Y533712D01*
X1728154Y533882D01*
X1728240Y533963D01*
X1728332Y534037D01*
X1728533Y534235D01*
X1728739Y534428D01*
X1728817Y534516D01*
X1728901Y534599D01*
X1729080Y534816D01*
X1729267Y535028D01*
X1729335Y535125D01*
X1729410Y535215D01*
X1729568Y535449D01*
X1729732Y535679D01*
X1729790Y535781D01*
X1729856Y535879D01*
X1729989Y536128D01*
X1730130Y536373D01*
X1730178Y536480D01*
X1730233Y536584D01*
X1730341Y536845D01*
X1730456Y537103D01*
X1730493Y537214D01*
X1730538Y537324D01*
X1730619Y537594D01*
X1730708Y537862D01*
X1730734Y537977D01*
X1730768Y538090D01*
X1730821Y538367D01*
X1730883Y538642D01*
X1730897Y538759D01*
X1730920Y538875D01*
X1730931Y539041D01*
X1730979Y539436D01*
X1730988Y539834D01*
X1730999Y540000D01*
X1730999Y590000D01*
X1730993Y590118D01*
X1730996Y590236D01*
X1730973Y590517D01*
X1730959Y590799D01*
X1730942Y590915D01*
X1730932Y591033D01*
X1730882Y591310D01*
X1730840Y591589D01*
X1730811Y591704D01*
X1730790Y591820D01*
X1730712Y592091D01*
X1730642Y592364D01*
X1730601Y592475D01*
X1730569Y592588D01*
X1730464Y592850D01*
X1730368Y593116D01*
X1730316Y593222D01*
X1730273Y593331D01*
X1730142Y593582D01*
X1730020Y593836D01*
X1729958Y593936D01*
X1729904Y594041D01*
X1729749Y594277D01*
X1729602Y594517D01*
X1729530Y594611D01*
X1729466Y594710D01*
X1729288Y594929D01*
X1729118Y595154D01*
X1729037Y595240D01*
X1728963Y595332D01*
X1728765Y595533D01*
X1728572Y595739D01*
X1728484Y595817D01*
X1728401Y595901D01*
X1728184Y596080D01*
X1727972Y596267D01*
X1727876Y596335D01*
X1727785Y596410D01*
X1727551Y596568D01*
X1727321Y596732D01*
X1727219Y596790D01*
X1727121Y596856D01*
X1726872Y596989D01*
X1726627Y597130D01*
X1726520Y597178D01*
X1726416Y597233D01*
X1726155Y597341D01*
X1725897Y597456D01*
X1725786Y597493D01*
X1725676Y597538D01*
X1725406Y597619D01*
X1725138Y597708D01*
X1725023Y597734D01*
X1724910Y597768D01*
X1724633Y597821D01*
X1724358Y597883D01*
X1724241Y597897D01*
X1724125Y597920D01*
X1723959Y597931D01*
X1723564Y597979D01*
X1723166Y597988D01*
X1723000Y597999D01*
X250000Y597999D01*
X249882Y597993D01*
X249765Y597996D01*
X249483Y597973D01*
X249201Y597959D01*
X249085Y597942D01*
X248967Y597932D01*
X248690Y597882D01*
X248411Y597840D01*
X248296Y597811D01*
X248180Y597790D01*
X247909Y597712D01*
X247636Y597642D01*
X247525Y597601D01*
X247412Y597569D01*
X247150Y597464D01*
X246885Y597368D01*
X246779Y597316D01*
X246669Y597273D01*
X246418Y597142D01*
X246164Y597020D01*
X246064Y596958D01*
X245959Y596904D01*
X245723Y596749D01*
X245483Y596602D01*
X245389Y596530D01*
X245290Y596466D01*
X245071Y596288D01*
X244846Y596118D01*
X244760Y596037D01*
X244668Y595963D01*
X244467Y595765D01*
X244261Y595572D01*
X244183Y595484D01*
X244099Y595401D01*
X243920Y595184D01*
X243733Y594972D01*
X243665Y594876D01*
X243590Y594785D01*
X243432Y594551D01*
X243268Y594321D01*
X243210Y594219D01*
X243144Y594121D01*
X243011Y593872D01*
X242870Y593627D01*
X242822Y593520D01*
X242767Y593416D01*
X242659Y593155D01*
X242544Y592897D01*
X242507Y592786D01*
X242462Y592676D01*
X242381Y592406D01*
X242292Y592138D01*
X242266Y592023D01*
X242232Y591910D01*
X242179Y591633D01*
X242117Y591358D01*
X242103Y591241D01*
X242080Y591125D01*
X242069Y590959D01*
X242021Y590564D01*
X242012Y590166D01*
X242001Y590000D01*
X242001Y540000D01*
X242007Y539882D01*
X242004Y539765D01*
X242027Y539483D01*
X242041Y539201D01*
X242058Y539085D01*
X242068Y538967D01*
X242118Y538690D01*
X242160Y538411D01*
X242189Y538296D01*
X242210Y538180D01*
X242288Y537909D01*
X242358Y537636D01*
X242399Y537525D01*
X242431Y537412D01*
X242536Y537150D01*
X242632Y536885D01*
X242684Y536779D01*
X242727Y536669D01*
X242858Y536418D01*
X242980Y536164D01*
X243042Y536064D01*
X243096Y535959D01*
X243251Y535723D01*
X243398Y535483D01*
X243470Y535389D01*
X243534Y535290D01*
X243712Y535071D01*
X243882Y534846D01*
X243963Y534760D01*
X244037Y534668D01*
X244235Y534467D01*
X244428Y534261D01*
X244516Y534183D01*
X244599Y534099D01*
X244816Y533920D01*
X245028Y533733D01*
X245125Y533665D01*
X245215Y533590D01*
X245449Y533432D01*
X245679Y533268D01*
X245781Y533210D01*
X245879Y533144D01*
X246128Y533011D01*
X246373Y532870D01*
X246480Y532822D01*
X246584Y532767D01*
X246845Y532659D01*
X247103Y532544D01*
X247214Y532507D01*
X247324Y532462D01*
X247594Y532381D01*
X247862Y532292D01*
X247977Y532266D01*
X248090Y532232D01*
X248367Y532179D01*
X248642Y532117D01*
X248759Y532103D01*
X248875Y532080D01*
X249041Y532069D01*
X249436Y532021D01*
X249834Y532012D01*
X250000Y532001D01*
X1723000Y532001D01*
X1723118Y532007D01*
G37*
G36*
X250118Y452007D02*
X250118Y452007D01*
X250236Y452004D01*
X250517Y452027D01*
X250799Y452041D01*
X250915Y452058D01*
X251033Y452068D01*
X251310Y452118D01*
X251589Y452160D01*
X251704Y452189D01*
X251820Y452210D01*
X252091Y452288D01*
X252364Y452358D01*
X252475Y452399D01*
X252588Y452431D01*
X252850Y452536D01*
X253116Y452632D01*
X253222Y452684D01*
X253331Y452727D01*
X253582Y452858D01*
X253836Y452980D01*
X253936Y453042D01*
X254041Y453096D01*
X254277Y453251D01*
X254517Y453398D01*
X254611Y453470D01*
X254710Y453534D01*
X254929Y453712D01*
X255154Y453882D01*
X255240Y453963D01*
X255332Y454037D01*
X255533Y454235D01*
X255739Y454428D01*
X255817Y454516D01*
X255901Y454599D01*
X256080Y454816D01*
X256242Y455001D01*
X275000Y455001D01*
X275118Y455007D01*
X275236Y455004D01*
X275517Y455027D01*
X275799Y455041D01*
X275915Y455058D01*
X276033Y455068D01*
X276310Y455118D01*
X276589Y455160D01*
X276704Y455189D01*
X276820Y455210D01*
X277091Y455288D01*
X277364Y455358D01*
X277475Y455399D01*
X277588Y455431D01*
X277850Y455536D01*
X278116Y455632D01*
X278222Y455684D01*
X278331Y455727D01*
X278582Y455858D01*
X278836Y455980D01*
X278936Y456042D01*
X279041Y456096D01*
X279277Y456251D01*
X279517Y456398D01*
X279611Y456470D01*
X279710Y456534D01*
X279929Y456712D01*
X280154Y456882D01*
X280240Y456963D01*
X280332Y457037D01*
X280533Y457235D01*
X280739Y457428D01*
X280817Y457516D01*
X280901Y457599D01*
X281080Y457816D01*
X281267Y458028D01*
X281335Y458125D01*
X281410Y458215D01*
X281568Y458449D01*
X281732Y458679D01*
X281790Y458781D01*
X281856Y458879D01*
X281989Y459128D01*
X282130Y459373D01*
X282178Y459480D01*
X282233Y459584D01*
X282341Y459845D01*
X282456Y460103D01*
X282493Y460214D01*
X282538Y460324D01*
X282619Y460594D01*
X282708Y460862D01*
X282734Y460977D01*
X282768Y461090D01*
X282821Y461367D01*
X282883Y461642D01*
X282897Y461759D01*
X282920Y461875D01*
X282931Y462041D01*
X282979Y462436D01*
X282988Y462834D01*
X282999Y463000D01*
X282999Y481001D01*
X358687Y481001D01*
X382344Y457344D01*
X382475Y457225D01*
X382599Y457099D01*
X382771Y456957D01*
X382937Y456807D01*
X383079Y456702D01*
X383215Y456590D01*
X383401Y456465D01*
X383580Y456333D01*
X383732Y456243D01*
X383879Y456144D01*
X384076Y456038D01*
X384268Y455925D01*
X384428Y455850D01*
X384584Y455767D01*
X384791Y455682D01*
X384993Y455587D01*
X385160Y455529D01*
X385324Y455462D01*
X385538Y455398D01*
X385748Y455324D01*
X385920Y455283D01*
X386090Y455232D01*
X386309Y455190D01*
X386526Y455138D01*
X386701Y455114D01*
X386875Y455080D01*
X387027Y455070D01*
X387319Y455030D01*
X387858Y455011D01*
X388000Y455001D01*
X479000Y455001D01*
X479118Y455007D01*
X479236Y455004D01*
X479517Y455027D01*
X479799Y455041D01*
X479915Y455058D01*
X480033Y455068D01*
X480310Y455118D01*
X480589Y455160D01*
X480704Y455189D01*
X480820Y455210D01*
X481091Y455288D01*
X481364Y455358D01*
X481475Y455399D01*
X481588Y455431D01*
X481850Y455536D01*
X482116Y455632D01*
X482222Y455684D01*
X482331Y455727D01*
X482582Y455858D01*
X482836Y455980D01*
X482936Y456042D01*
X483041Y456096D01*
X483277Y456251D01*
X483517Y456398D01*
X483611Y456470D01*
X483710Y456534D01*
X483929Y456712D01*
X484154Y456882D01*
X484240Y456963D01*
X484332Y457037D01*
X484533Y457235D01*
X484739Y457428D01*
X484817Y457516D01*
X484901Y457599D01*
X485080Y457816D01*
X485267Y458028D01*
X485335Y458125D01*
X485410Y458215D01*
X485568Y458449D01*
X485732Y458679D01*
X485790Y458781D01*
X485856Y458879D01*
X485989Y459128D01*
X486130Y459373D01*
X486178Y459480D01*
X486233Y459584D01*
X486341Y459845D01*
X486456Y460103D01*
X486493Y460214D01*
X486538Y460324D01*
X486619Y460594D01*
X486708Y460862D01*
X486734Y460977D01*
X486768Y461090D01*
X486821Y461367D01*
X486883Y461642D01*
X486897Y461759D01*
X486920Y461875D01*
X486931Y462041D01*
X486979Y462436D01*
X486988Y462834D01*
X486999Y463000D01*
X486999Y481001D01*
X562687Y481001D01*
X586344Y457344D01*
X586475Y457225D01*
X586599Y457099D01*
X586771Y456957D01*
X586937Y456807D01*
X587079Y456702D01*
X587215Y456590D01*
X587401Y456465D01*
X587580Y456333D01*
X587732Y456243D01*
X587879Y456144D01*
X588076Y456038D01*
X588268Y455925D01*
X588428Y455850D01*
X588584Y455767D01*
X588791Y455682D01*
X588993Y455587D01*
X589160Y455529D01*
X589324Y455462D01*
X589538Y455398D01*
X589748Y455324D01*
X589920Y455283D01*
X590090Y455232D01*
X590309Y455190D01*
X590526Y455138D01*
X590701Y455114D01*
X590875Y455080D01*
X591027Y455070D01*
X591319Y455030D01*
X591858Y455011D01*
X592000Y455001D01*
X683000Y455001D01*
X683118Y455007D01*
X683236Y455004D01*
X683517Y455027D01*
X683799Y455041D01*
X683915Y455058D01*
X684033Y455068D01*
X684310Y455118D01*
X684589Y455160D01*
X684704Y455189D01*
X684820Y455210D01*
X685091Y455288D01*
X685364Y455358D01*
X685475Y455399D01*
X685588Y455431D01*
X685850Y455536D01*
X686116Y455632D01*
X686222Y455684D01*
X686331Y455727D01*
X686582Y455858D01*
X686836Y455980D01*
X686936Y456042D01*
X687041Y456096D01*
X687277Y456251D01*
X687517Y456398D01*
X687611Y456470D01*
X687710Y456534D01*
X687929Y456712D01*
X688154Y456882D01*
X688240Y456963D01*
X688332Y457037D01*
X688533Y457235D01*
X688739Y457428D01*
X688817Y457516D01*
X688901Y457599D01*
X689080Y457816D01*
X689267Y458028D01*
X689335Y458125D01*
X689410Y458215D01*
X689568Y458449D01*
X689732Y458679D01*
X689790Y458781D01*
X689856Y458879D01*
X689989Y459128D01*
X690130Y459373D01*
X690178Y459480D01*
X690233Y459584D01*
X690341Y459845D01*
X690456Y460103D01*
X690493Y460214D01*
X690538Y460324D01*
X690619Y460594D01*
X690708Y460862D01*
X690734Y460977D01*
X690768Y461090D01*
X690821Y461367D01*
X690883Y461642D01*
X690897Y461759D01*
X690920Y461875D01*
X690931Y462041D01*
X690979Y462436D01*
X690988Y462834D01*
X690999Y463000D01*
X690999Y481001D01*
X765887Y481001D01*
X789544Y457344D01*
X789675Y457225D01*
X789799Y457099D01*
X789971Y456957D01*
X790137Y456807D01*
X790279Y456702D01*
X790415Y456590D01*
X790601Y456465D01*
X790780Y456333D01*
X790932Y456243D01*
X791079Y456144D01*
X791276Y456038D01*
X791468Y455925D01*
X791628Y455850D01*
X791784Y455767D01*
X791991Y455682D01*
X792193Y455587D01*
X792360Y455529D01*
X792524Y455462D01*
X792738Y455398D01*
X792948Y455324D01*
X793120Y455283D01*
X793290Y455232D01*
X793509Y455190D01*
X793726Y455138D01*
X793901Y455114D01*
X794075Y455080D01*
X794227Y455070D01*
X794519Y455030D01*
X795058Y455011D01*
X795200Y455001D01*
X886200Y455001D01*
X886318Y455007D01*
X886436Y455004D01*
X886717Y455027D01*
X886999Y455041D01*
X887115Y455058D01*
X887233Y455068D01*
X887510Y455118D01*
X887789Y455160D01*
X887904Y455189D01*
X888020Y455210D01*
X888291Y455288D01*
X888564Y455358D01*
X888675Y455399D01*
X888788Y455431D01*
X889050Y455536D01*
X889316Y455632D01*
X889422Y455684D01*
X889531Y455727D01*
X889782Y455858D01*
X890036Y455980D01*
X890136Y456042D01*
X890241Y456096D01*
X890477Y456251D01*
X890717Y456398D01*
X890811Y456470D01*
X890910Y456534D01*
X891129Y456712D01*
X891354Y456882D01*
X891440Y456963D01*
X891532Y457037D01*
X891733Y457235D01*
X891939Y457428D01*
X892017Y457516D01*
X892101Y457599D01*
X892280Y457816D01*
X892467Y458028D01*
X892535Y458125D01*
X892610Y458215D01*
X892768Y458449D01*
X892932Y458679D01*
X892990Y458781D01*
X893056Y458879D01*
X893189Y459128D01*
X893330Y459373D01*
X893378Y459480D01*
X893433Y459584D01*
X893541Y459845D01*
X893656Y460103D01*
X893693Y460214D01*
X893738Y460324D01*
X893819Y460594D01*
X893908Y460862D01*
X893934Y460977D01*
X893968Y461090D01*
X894021Y461367D01*
X894083Y461642D01*
X894097Y461759D01*
X894120Y461875D01*
X894131Y462041D01*
X894179Y462436D01*
X894188Y462834D01*
X894199Y463000D01*
X894199Y481001D01*
X969087Y481001D01*
X992744Y457344D01*
X992875Y457225D01*
X992999Y457099D01*
X993171Y456957D01*
X993337Y456807D01*
X993479Y456702D01*
X993615Y456590D01*
X993801Y456465D01*
X993980Y456333D01*
X994132Y456243D01*
X994279Y456144D01*
X994476Y456038D01*
X994668Y455925D01*
X994828Y455850D01*
X994984Y455767D01*
X995191Y455682D01*
X995393Y455587D01*
X995560Y455529D01*
X995724Y455462D01*
X995938Y455398D01*
X996148Y455324D01*
X996320Y455283D01*
X996490Y455232D01*
X996709Y455190D01*
X996926Y455138D01*
X997101Y455114D01*
X997275Y455080D01*
X997427Y455070D01*
X997719Y455030D01*
X998258Y455011D01*
X998400Y455001D01*
X1089400Y455001D01*
X1089518Y455007D01*
X1089636Y455004D01*
X1089917Y455027D01*
X1090199Y455041D01*
X1090315Y455058D01*
X1090433Y455068D01*
X1090710Y455118D01*
X1090989Y455160D01*
X1091104Y455189D01*
X1091220Y455210D01*
X1091491Y455288D01*
X1091764Y455358D01*
X1091875Y455399D01*
X1091988Y455431D01*
X1092250Y455536D01*
X1092516Y455632D01*
X1092622Y455684D01*
X1092731Y455727D01*
X1092982Y455858D01*
X1093236Y455980D01*
X1093336Y456042D01*
X1093441Y456096D01*
X1093677Y456251D01*
X1093917Y456398D01*
X1094011Y456470D01*
X1094110Y456534D01*
X1094329Y456712D01*
X1094554Y456882D01*
X1094640Y456963D01*
X1094732Y457037D01*
X1094933Y457235D01*
X1095139Y457428D01*
X1095217Y457516D01*
X1095301Y457599D01*
X1095480Y457816D01*
X1095667Y458028D01*
X1095735Y458125D01*
X1095810Y458215D01*
X1095968Y458449D01*
X1096132Y458679D01*
X1096190Y458781D01*
X1096256Y458879D01*
X1096389Y459128D01*
X1096530Y459373D01*
X1096578Y459480D01*
X1096633Y459584D01*
X1096741Y459845D01*
X1096856Y460103D01*
X1096893Y460214D01*
X1096938Y460324D01*
X1097019Y460594D01*
X1097108Y460862D01*
X1097134Y460977D01*
X1097168Y461090D01*
X1097221Y461367D01*
X1097283Y461642D01*
X1097297Y461759D01*
X1097320Y461875D01*
X1097331Y462041D01*
X1097379Y462436D01*
X1097388Y462834D01*
X1097399Y463000D01*
X1097399Y481001D01*
X1172287Y481001D01*
X1195944Y457344D01*
X1196075Y457225D01*
X1196199Y457099D01*
X1196371Y456957D01*
X1196537Y456807D01*
X1196679Y456702D01*
X1196815Y456590D01*
X1197001Y456465D01*
X1197180Y456333D01*
X1197332Y456243D01*
X1197479Y456144D01*
X1197676Y456038D01*
X1197868Y455925D01*
X1198028Y455850D01*
X1198184Y455767D01*
X1198391Y455682D01*
X1198593Y455587D01*
X1198760Y455529D01*
X1198924Y455462D01*
X1199138Y455398D01*
X1199348Y455324D01*
X1199520Y455283D01*
X1199690Y455232D01*
X1199909Y455190D01*
X1200126Y455138D01*
X1200301Y455114D01*
X1200475Y455080D01*
X1200627Y455070D01*
X1200919Y455030D01*
X1201458Y455011D01*
X1201600Y455001D01*
X1292600Y455001D01*
X1292718Y455007D01*
X1292836Y455004D01*
X1293117Y455027D01*
X1293399Y455041D01*
X1293515Y455058D01*
X1293633Y455068D01*
X1293910Y455118D01*
X1294189Y455160D01*
X1294304Y455189D01*
X1294420Y455210D01*
X1294691Y455288D01*
X1294964Y455358D01*
X1295075Y455399D01*
X1295188Y455431D01*
X1295450Y455536D01*
X1295716Y455632D01*
X1295822Y455684D01*
X1295931Y455727D01*
X1296182Y455858D01*
X1296436Y455980D01*
X1296536Y456042D01*
X1296641Y456096D01*
X1296877Y456251D01*
X1297117Y456398D01*
X1297211Y456470D01*
X1297310Y456534D01*
X1297529Y456712D01*
X1297754Y456882D01*
X1297840Y456963D01*
X1297932Y457037D01*
X1298133Y457235D01*
X1298339Y457428D01*
X1298417Y457516D01*
X1298501Y457599D01*
X1298680Y457816D01*
X1298867Y458028D01*
X1298935Y458125D01*
X1299010Y458215D01*
X1299168Y458449D01*
X1299332Y458679D01*
X1299390Y458781D01*
X1299456Y458879D01*
X1299589Y459128D01*
X1299730Y459373D01*
X1299778Y459480D01*
X1299833Y459584D01*
X1299941Y459845D01*
X1300056Y460103D01*
X1300093Y460214D01*
X1300138Y460324D01*
X1300219Y460594D01*
X1300308Y460862D01*
X1300334Y460977D01*
X1300368Y461090D01*
X1300421Y461367D01*
X1300483Y461642D01*
X1300497Y461759D01*
X1300520Y461875D01*
X1300531Y462041D01*
X1300579Y462436D01*
X1300588Y462834D01*
X1300599Y463000D01*
X1300599Y481001D01*
X1375287Y481001D01*
X1398944Y457344D01*
X1399075Y457225D01*
X1399199Y457099D01*
X1399371Y456957D01*
X1399537Y456807D01*
X1399679Y456702D01*
X1399815Y456590D01*
X1400001Y456465D01*
X1400180Y456333D01*
X1400332Y456243D01*
X1400479Y456144D01*
X1400676Y456038D01*
X1400868Y455925D01*
X1401028Y455850D01*
X1401184Y455767D01*
X1401391Y455682D01*
X1401593Y455587D01*
X1401760Y455529D01*
X1401924Y455462D01*
X1402138Y455398D01*
X1402348Y455324D01*
X1402520Y455283D01*
X1402690Y455232D01*
X1402909Y455190D01*
X1403126Y455138D01*
X1403301Y455114D01*
X1403475Y455080D01*
X1403627Y455070D01*
X1403919Y455030D01*
X1404458Y455011D01*
X1404600Y455001D01*
X1495600Y455001D01*
X1495718Y455007D01*
X1495836Y455004D01*
X1496117Y455027D01*
X1496399Y455041D01*
X1496515Y455058D01*
X1496633Y455068D01*
X1496910Y455118D01*
X1497189Y455160D01*
X1497304Y455189D01*
X1497420Y455210D01*
X1497691Y455288D01*
X1497964Y455358D01*
X1498075Y455399D01*
X1498188Y455431D01*
X1498450Y455536D01*
X1498716Y455632D01*
X1498822Y455684D01*
X1498931Y455727D01*
X1499182Y455858D01*
X1499436Y455980D01*
X1499536Y456042D01*
X1499641Y456096D01*
X1499877Y456251D01*
X1500117Y456398D01*
X1500211Y456470D01*
X1500310Y456534D01*
X1500529Y456712D01*
X1500754Y456882D01*
X1500840Y456963D01*
X1500932Y457037D01*
X1501133Y457235D01*
X1501339Y457428D01*
X1501417Y457516D01*
X1501501Y457599D01*
X1501680Y457816D01*
X1501867Y458028D01*
X1501935Y458125D01*
X1502010Y458215D01*
X1502168Y458449D01*
X1502332Y458679D01*
X1502390Y458781D01*
X1502456Y458879D01*
X1502589Y459128D01*
X1502730Y459373D01*
X1502778Y459480D01*
X1502833Y459584D01*
X1502941Y459845D01*
X1503056Y460103D01*
X1503093Y460214D01*
X1503138Y460324D01*
X1503219Y460594D01*
X1503308Y460862D01*
X1503334Y460977D01*
X1503368Y461090D01*
X1503421Y461367D01*
X1503483Y461642D01*
X1503497Y461759D01*
X1503520Y461875D01*
X1503531Y462041D01*
X1503579Y462436D01*
X1503588Y462834D01*
X1503599Y463000D01*
X1503599Y481001D01*
X1578487Y481001D01*
X1602144Y457344D01*
X1602275Y457225D01*
X1602399Y457099D01*
X1602571Y456957D01*
X1602737Y456807D01*
X1602879Y456702D01*
X1603015Y456590D01*
X1603201Y456465D01*
X1603380Y456333D01*
X1603532Y456243D01*
X1603679Y456144D01*
X1603876Y456038D01*
X1604068Y455925D01*
X1604228Y455850D01*
X1604384Y455767D01*
X1604591Y455682D01*
X1604793Y455587D01*
X1604960Y455529D01*
X1605124Y455462D01*
X1605338Y455398D01*
X1605548Y455324D01*
X1605720Y455283D01*
X1605890Y455232D01*
X1606109Y455190D01*
X1606326Y455138D01*
X1606501Y455114D01*
X1606675Y455080D01*
X1606827Y455070D01*
X1607119Y455030D01*
X1607658Y455011D01*
X1607800Y455001D01*
X1698800Y455001D01*
X1698918Y455007D01*
X1699036Y455004D01*
X1699317Y455027D01*
X1699599Y455041D01*
X1699715Y455058D01*
X1699833Y455068D01*
X1700110Y455118D01*
X1700389Y455160D01*
X1700504Y455189D01*
X1700620Y455210D01*
X1700891Y455288D01*
X1701164Y455358D01*
X1701275Y455399D01*
X1701388Y455431D01*
X1701650Y455536D01*
X1701916Y455632D01*
X1702022Y455684D01*
X1702131Y455727D01*
X1702382Y455858D01*
X1702636Y455980D01*
X1702736Y456042D01*
X1702841Y456096D01*
X1703077Y456251D01*
X1703317Y456398D01*
X1703411Y456470D01*
X1703510Y456534D01*
X1703729Y456712D01*
X1703954Y456882D01*
X1704040Y456963D01*
X1704132Y457037D01*
X1704333Y457235D01*
X1704539Y457428D01*
X1704617Y457516D01*
X1704701Y457599D01*
X1704880Y457816D01*
X1705067Y458028D01*
X1705135Y458125D01*
X1705210Y458215D01*
X1705368Y458449D01*
X1705532Y458679D01*
X1705590Y458781D01*
X1705656Y458879D01*
X1705789Y459128D01*
X1705930Y459373D01*
X1705978Y459480D01*
X1706033Y459584D01*
X1706141Y459845D01*
X1706256Y460103D01*
X1706293Y460214D01*
X1706338Y460324D01*
X1706419Y460594D01*
X1706508Y460862D01*
X1706534Y460977D01*
X1706568Y461090D01*
X1706621Y461367D01*
X1706683Y461642D01*
X1706697Y461759D01*
X1706720Y461875D01*
X1706731Y462041D01*
X1706779Y462436D01*
X1706788Y462834D01*
X1706799Y463000D01*
X1706799Y481001D01*
X1723800Y481001D01*
X1723918Y481007D01*
X1724036Y481004D01*
X1724317Y481027D01*
X1724599Y481041D01*
X1724715Y481058D01*
X1724833Y481068D01*
X1725110Y481118D01*
X1725389Y481160D01*
X1725504Y481189D01*
X1725620Y481210D01*
X1725891Y481288D01*
X1726164Y481358D01*
X1726275Y481399D01*
X1726388Y481431D01*
X1726650Y481536D01*
X1726916Y481632D01*
X1727022Y481684D01*
X1727131Y481727D01*
X1727382Y481858D01*
X1727636Y481980D01*
X1727736Y482042D01*
X1727841Y482096D01*
X1728077Y482251D01*
X1728317Y482398D01*
X1728411Y482470D01*
X1728510Y482534D01*
X1728729Y482712D01*
X1728954Y482882D01*
X1729040Y482963D01*
X1729132Y483037D01*
X1729333Y483235D01*
X1729539Y483428D01*
X1729617Y483516D01*
X1729701Y483599D01*
X1729880Y483816D01*
X1730067Y484028D01*
X1730135Y484125D01*
X1730210Y484215D01*
X1730368Y484449D01*
X1730532Y484679D01*
X1730590Y484781D01*
X1730656Y484879D01*
X1730789Y485128D01*
X1730930Y485373D01*
X1730978Y485480D01*
X1731033Y485584D01*
X1731141Y485845D01*
X1731256Y486103D01*
X1731293Y486214D01*
X1731338Y486324D01*
X1731419Y486594D01*
X1731508Y486862D01*
X1731534Y486977D01*
X1731568Y487090D01*
X1731621Y487367D01*
X1731683Y487642D01*
X1731697Y487759D01*
X1731720Y487875D01*
X1731731Y488041D01*
X1731779Y488436D01*
X1731788Y488834D01*
X1731799Y489000D01*
X1731799Y514000D01*
X1731793Y514118D01*
X1731796Y514236D01*
X1731773Y514517D01*
X1731759Y514799D01*
X1731742Y514915D01*
X1731732Y515033D01*
X1731682Y515310D01*
X1731640Y515589D01*
X1731611Y515704D01*
X1731590Y515820D01*
X1731512Y516091D01*
X1731442Y516364D01*
X1731401Y516475D01*
X1731369Y516588D01*
X1731264Y516850D01*
X1731168Y517116D01*
X1731116Y517222D01*
X1731073Y517331D01*
X1730942Y517582D01*
X1730820Y517836D01*
X1730758Y517936D01*
X1730704Y518041D01*
X1730549Y518277D01*
X1730402Y518517D01*
X1730330Y518611D01*
X1730266Y518710D01*
X1730088Y518929D01*
X1729918Y519154D01*
X1729837Y519240D01*
X1729763Y519332D01*
X1729565Y519533D01*
X1729372Y519739D01*
X1729284Y519817D01*
X1729201Y519901D01*
X1728984Y520080D01*
X1728772Y520267D01*
X1728676Y520335D01*
X1728585Y520410D01*
X1728351Y520568D01*
X1728121Y520732D01*
X1728019Y520790D01*
X1727921Y520856D01*
X1727672Y520989D01*
X1727427Y521130D01*
X1727320Y521178D01*
X1727216Y521233D01*
X1726955Y521341D01*
X1726697Y521456D01*
X1726586Y521493D01*
X1726476Y521538D01*
X1726206Y521619D01*
X1725938Y521708D01*
X1725823Y521734D01*
X1725710Y521768D01*
X1725433Y521821D01*
X1725158Y521883D01*
X1725041Y521897D01*
X1724925Y521920D01*
X1724759Y521931D01*
X1724364Y521979D01*
X1723966Y521988D01*
X1723800Y521999D01*
X1698800Y521999D01*
X1698623Y521990D01*
X1698447Y521991D01*
X1698225Y521970D01*
X1698001Y521959D01*
X1697911Y521946D01*
X1697881Y521951D01*
X1697663Y521964D01*
X1697447Y521987D01*
X1697264Y521988D01*
X1697083Y521999D01*
X1696865Y521990D01*
X1696647Y521991D01*
X1696465Y521974D01*
X1696284Y521967D01*
X1696068Y521937D01*
X1695851Y521916D01*
X1695672Y521881D01*
X1695492Y521856D01*
X1695280Y521804D01*
X1695066Y521762D01*
X1694891Y521709D01*
X1694715Y521666D01*
X1694510Y521593D01*
X1694301Y521530D01*
X1694132Y521460D01*
X1693961Y521399D01*
X1693764Y521307D01*
X1693562Y521223D01*
X1693402Y521136D01*
X1693237Y521059D01*
X1693050Y520947D01*
X1692858Y520844D01*
X1692708Y520742D01*
X1692551Y520648D01*
X1692376Y520518D01*
X1692196Y520396D01*
X1692096Y520309D01*
X1691910Y520171D01*
X1691394Y519700D01*
X1691344Y519656D01*
X1668687Y496999D01*
X1628113Y496999D01*
X1605456Y519656D01*
X1605325Y519775D01*
X1605201Y519901D01*
X1605029Y520043D01*
X1604863Y520193D01*
X1604721Y520298D01*
X1604585Y520410D01*
X1604399Y520535D01*
X1604220Y520667D01*
X1604068Y520757D01*
X1603921Y520856D01*
X1603724Y520962D01*
X1603532Y521075D01*
X1603372Y521150D01*
X1603216Y521233D01*
X1603009Y521318D01*
X1602807Y521413D01*
X1602640Y521471D01*
X1602476Y521538D01*
X1602262Y521602D01*
X1602052Y521676D01*
X1601880Y521717D01*
X1601710Y521768D01*
X1601491Y521810D01*
X1601274Y521862D01*
X1601099Y521886D01*
X1600925Y521920D01*
X1600773Y521930D01*
X1600481Y521970D01*
X1599942Y521989D01*
X1599800Y521999D01*
X1493800Y521999D01*
X1493623Y521990D01*
X1493447Y521991D01*
X1493225Y521970D01*
X1493001Y521959D01*
X1492826Y521933D01*
X1492651Y521916D01*
X1492431Y521873D01*
X1492211Y521840D01*
X1492040Y521796D01*
X1491866Y521762D01*
X1491652Y521697D01*
X1491436Y521642D01*
X1491270Y521581D01*
X1491101Y521530D01*
X1490894Y521444D01*
X1490685Y521368D01*
X1490526Y521291D01*
X1490362Y521223D01*
X1490165Y521117D01*
X1489964Y521020D01*
X1489814Y520927D01*
X1489658Y520844D01*
X1489473Y520719D01*
X1489283Y520602D01*
X1489142Y520495D01*
X1488996Y520396D01*
X1488881Y520296D01*
X1488646Y520118D01*
X1488251Y519749D01*
X1488144Y519656D01*
X1465487Y496999D01*
X1424913Y496999D01*
X1402256Y519656D01*
X1402125Y519775D01*
X1402001Y519901D01*
X1401829Y520043D01*
X1401663Y520193D01*
X1401521Y520298D01*
X1401385Y520410D01*
X1401199Y520535D01*
X1401020Y520667D01*
X1400868Y520757D01*
X1400721Y520856D01*
X1400524Y520962D01*
X1400332Y521075D01*
X1400172Y521150D01*
X1400016Y521233D01*
X1399809Y521318D01*
X1399607Y521413D01*
X1399440Y521471D01*
X1399276Y521538D01*
X1399062Y521602D01*
X1398852Y521676D01*
X1398680Y521717D01*
X1398510Y521768D01*
X1398291Y521810D01*
X1398074Y521862D01*
X1397899Y521886D01*
X1397725Y521920D01*
X1397573Y521930D01*
X1397281Y521970D01*
X1396742Y521989D01*
X1396600Y521999D01*
X1290600Y521999D01*
X1290423Y521990D01*
X1290247Y521991D01*
X1290025Y521970D01*
X1289801Y521959D01*
X1289626Y521933D01*
X1289451Y521916D01*
X1289231Y521873D01*
X1289011Y521840D01*
X1288840Y521796D01*
X1288666Y521762D01*
X1288452Y521697D01*
X1288236Y521642D01*
X1288070Y521581D01*
X1287901Y521530D01*
X1287694Y521444D01*
X1287485Y521368D01*
X1287326Y521291D01*
X1287162Y521223D01*
X1286965Y521117D01*
X1286764Y521020D01*
X1286614Y520927D01*
X1286458Y520844D01*
X1286273Y520719D01*
X1286083Y520602D01*
X1285942Y520495D01*
X1285796Y520396D01*
X1285681Y520296D01*
X1285446Y520118D01*
X1285051Y519749D01*
X1284944Y519656D01*
X1262287Y496999D01*
X1221913Y496999D01*
X1199256Y519656D01*
X1199125Y519775D01*
X1199001Y519901D01*
X1198829Y520043D01*
X1198663Y520193D01*
X1198521Y520298D01*
X1198385Y520410D01*
X1198199Y520535D01*
X1198020Y520667D01*
X1197868Y520757D01*
X1197721Y520856D01*
X1197524Y520962D01*
X1197332Y521075D01*
X1197172Y521150D01*
X1197016Y521233D01*
X1196809Y521318D01*
X1196607Y521413D01*
X1196440Y521471D01*
X1196276Y521538D01*
X1196062Y521602D01*
X1195852Y521676D01*
X1195680Y521717D01*
X1195510Y521768D01*
X1195291Y521810D01*
X1195074Y521862D01*
X1194899Y521886D01*
X1194725Y521920D01*
X1194573Y521930D01*
X1194281Y521970D01*
X1193742Y521989D01*
X1193600Y521999D01*
X1087600Y521999D01*
X1087423Y521990D01*
X1087247Y521991D01*
X1087025Y521970D01*
X1086801Y521959D01*
X1086626Y521933D01*
X1086451Y521916D01*
X1086231Y521873D01*
X1086011Y521840D01*
X1085840Y521796D01*
X1085666Y521762D01*
X1085452Y521697D01*
X1085236Y521642D01*
X1085070Y521581D01*
X1084901Y521530D01*
X1084694Y521444D01*
X1084485Y521368D01*
X1084326Y521291D01*
X1084162Y521223D01*
X1083965Y521117D01*
X1083764Y521020D01*
X1083614Y520927D01*
X1083458Y520844D01*
X1083273Y520719D01*
X1083083Y520602D01*
X1082942Y520495D01*
X1082796Y520396D01*
X1082681Y520296D01*
X1082446Y520118D01*
X1082051Y519749D01*
X1081944Y519656D01*
X1059287Y496999D01*
X1018713Y496999D01*
X996056Y519656D01*
X995925Y519775D01*
X995801Y519901D01*
X995629Y520043D01*
X995463Y520193D01*
X995321Y520298D01*
X995185Y520410D01*
X994999Y520535D01*
X994820Y520667D01*
X994668Y520757D01*
X994521Y520856D01*
X994324Y520962D01*
X994132Y521075D01*
X993972Y521150D01*
X993816Y521233D01*
X993609Y521318D01*
X993407Y521413D01*
X993240Y521471D01*
X993076Y521538D01*
X992862Y521602D01*
X992652Y521676D01*
X992480Y521717D01*
X992310Y521768D01*
X992091Y521810D01*
X991874Y521862D01*
X991699Y521886D01*
X991525Y521920D01*
X991373Y521930D01*
X991081Y521970D01*
X990542Y521989D01*
X990400Y521999D01*
X884400Y521999D01*
X884223Y521990D01*
X884047Y521991D01*
X883825Y521970D01*
X883601Y521959D01*
X883426Y521933D01*
X883251Y521916D01*
X883031Y521873D01*
X882811Y521840D01*
X882640Y521796D01*
X882466Y521762D01*
X882252Y521697D01*
X882036Y521642D01*
X881870Y521581D01*
X881701Y521530D01*
X881494Y521444D01*
X881285Y521368D01*
X881126Y521291D01*
X880962Y521223D01*
X880765Y521117D01*
X880564Y521020D01*
X880414Y520927D01*
X880258Y520844D01*
X880073Y520719D01*
X879883Y520602D01*
X879742Y520495D01*
X879596Y520396D01*
X879481Y520296D01*
X879246Y520118D01*
X878851Y519749D01*
X878744Y519656D01*
X856087Y496999D01*
X815513Y496999D01*
X792856Y519656D01*
X792725Y519775D01*
X792601Y519901D01*
X792429Y520043D01*
X792263Y520193D01*
X792121Y520298D01*
X791985Y520410D01*
X791799Y520535D01*
X791620Y520667D01*
X791468Y520757D01*
X791321Y520856D01*
X791124Y520962D01*
X790932Y521075D01*
X790772Y521150D01*
X790616Y521233D01*
X790409Y521318D01*
X790207Y521413D01*
X790040Y521471D01*
X789876Y521538D01*
X789662Y521602D01*
X789452Y521676D01*
X789280Y521717D01*
X789110Y521768D01*
X788891Y521810D01*
X788674Y521862D01*
X788499Y521886D01*
X788325Y521920D01*
X788173Y521930D01*
X787881Y521970D01*
X787342Y521989D01*
X787200Y521999D01*
X681200Y521999D01*
X681023Y521990D01*
X680847Y521991D01*
X680625Y521970D01*
X680401Y521959D01*
X680226Y521933D01*
X680051Y521916D01*
X679831Y521873D01*
X679611Y521840D01*
X679440Y521796D01*
X679266Y521762D01*
X679052Y521697D01*
X678836Y521642D01*
X678670Y521581D01*
X678501Y521530D01*
X678294Y521444D01*
X678085Y521368D01*
X677926Y521291D01*
X677762Y521223D01*
X677565Y521117D01*
X677364Y521020D01*
X677214Y520927D01*
X677058Y520844D01*
X676873Y520719D01*
X676683Y520602D01*
X676542Y520495D01*
X676396Y520396D01*
X676281Y520296D01*
X676046Y520118D01*
X675651Y519749D01*
X675544Y519656D01*
X652887Y496999D01*
X612313Y496999D01*
X589656Y519656D01*
X589525Y519775D01*
X589401Y519901D01*
X589229Y520043D01*
X589063Y520193D01*
X588921Y520298D01*
X588785Y520410D01*
X588599Y520535D01*
X588420Y520667D01*
X588268Y520757D01*
X588121Y520856D01*
X587924Y520962D01*
X587732Y521075D01*
X587572Y521150D01*
X587416Y521233D01*
X587209Y521318D01*
X587007Y521413D01*
X586840Y521471D01*
X586676Y521538D01*
X586462Y521602D01*
X586252Y521676D01*
X586080Y521717D01*
X585910Y521768D01*
X585691Y521810D01*
X585474Y521862D01*
X585299Y521886D01*
X585125Y521920D01*
X584973Y521930D01*
X584681Y521970D01*
X584142Y521989D01*
X584000Y521999D01*
X478000Y521999D01*
X477823Y521990D01*
X477647Y521991D01*
X477425Y521970D01*
X477201Y521959D01*
X477026Y521933D01*
X476851Y521916D01*
X476631Y521873D01*
X476411Y521840D01*
X476240Y521796D01*
X476066Y521762D01*
X475852Y521697D01*
X475636Y521642D01*
X475470Y521581D01*
X475301Y521530D01*
X475094Y521444D01*
X474885Y521368D01*
X474726Y521291D01*
X474562Y521223D01*
X474365Y521117D01*
X474164Y521020D01*
X474014Y520927D01*
X473858Y520844D01*
X473673Y520719D01*
X473483Y520602D01*
X473342Y520495D01*
X473196Y520396D01*
X473081Y520296D01*
X472846Y520118D01*
X472451Y519749D01*
X472344Y519656D01*
X449687Y496999D01*
X408313Y496999D01*
X385656Y519656D01*
X385525Y519775D01*
X385401Y519901D01*
X385229Y520043D01*
X385063Y520193D01*
X384921Y520298D01*
X384785Y520410D01*
X384599Y520535D01*
X384420Y520667D01*
X384268Y520757D01*
X384121Y520856D01*
X383924Y520962D01*
X383732Y521075D01*
X383572Y521150D01*
X383416Y521233D01*
X383209Y521318D01*
X383007Y521413D01*
X382840Y521471D01*
X382676Y521538D01*
X382462Y521602D01*
X382252Y521676D01*
X382080Y521717D01*
X381910Y521768D01*
X381691Y521810D01*
X381474Y521862D01*
X381299Y521886D01*
X381125Y521920D01*
X380973Y521930D01*
X380681Y521970D01*
X380142Y521989D01*
X380000Y521999D01*
X274000Y521999D01*
X273823Y521990D01*
X273647Y521991D01*
X273425Y521970D01*
X273201Y521959D01*
X273026Y521933D01*
X272851Y521916D01*
X272631Y521873D01*
X272411Y521840D01*
X272240Y521796D01*
X272066Y521762D01*
X271852Y521697D01*
X271636Y521642D01*
X271470Y521581D01*
X271301Y521530D01*
X271094Y521444D01*
X270885Y521368D01*
X270726Y521291D01*
X270562Y521223D01*
X270365Y521117D01*
X270164Y521020D01*
X270014Y520927D01*
X269858Y520844D01*
X269673Y520719D01*
X269483Y520602D01*
X269342Y520495D01*
X269196Y520396D01*
X269081Y520296D01*
X268846Y520118D01*
X268451Y519749D01*
X268344Y519656D01*
X259541Y510854D01*
X259403Y510701D01*
X259257Y510555D01*
X259135Y510405D01*
X259005Y510261D01*
X258882Y510095D01*
X258752Y509935D01*
X258645Y509773D01*
X258530Y509617D01*
X258425Y509440D01*
X258311Y509268D01*
X258249Y509144D01*
X258155Y508985D01*
X255322Y506152D01*
X255319Y506150D01*
X255142Y506044D01*
X254961Y505946D01*
X254800Y505838D01*
X254634Y505737D01*
X254469Y505614D01*
X254298Y505498D01*
X254193Y505407D01*
X253994Y505258D01*
X253520Y504823D01*
X253446Y504759D01*
X245000Y496313D01*
X139656Y601656D01*
X139527Y601773D01*
X139414Y601888D01*
X139413Y601889D01*
X139401Y601901D01*
X139229Y602043D01*
X139063Y602193D01*
X138921Y602298D01*
X138785Y602410D01*
X138599Y602535D01*
X138420Y602667D01*
X138268Y602757D01*
X138121Y602856D01*
X137924Y602962D01*
X137732Y603075D01*
X137572Y603150D01*
X137416Y603233D01*
X137209Y603318D01*
X137007Y603413D01*
X136840Y603471D01*
X136676Y603538D01*
X136462Y603602D01*
X136252Y603676D01*
X136080Y603717D01*
X135910Y603768D01*
X135691Y603810D01*
X135474Y603862D01*
X135299Y603886D01*
X135125Y603920D01*
X134973Y603930D01*
X134681Y603970D01*
X134142Y603989D01*
X134000Y603999D01*
X61000Y603999D01*
X60823Y603990D01*
X60647Y603991D01*
X60425Y603970D01*
X60201Y603959D01*
X60026Y603933D01*
X59851Y603916D01*
X59631Y603873D01*
X59411Y603840D01*
X59240Y603796D01*
X59066Y603762D01*
X58852Y603697D01*
X58636Y603642D01*
X58470Y603581D01*
X58301Y603530D01*
X58094Y603444D01*
X57885Y603368D01*
X57726Y603291D01*
X57562Y603223D01*
X57365Y603117D01*
X57164Y603020D01*
X57014Y602927D01*
X56858Y602844D01*
X56673Y602719D01*
X56483Y602602D01*
X56342Y602495D01*
X56196Y602396D01*
X56081Y602296D01*
X55846Y602118D01*
X55451Y601749D01*
X55344Y601656D01*
X48344Y594656D01*
X48225Y594525D01*
X48099Y594401D01*
X47957Y594229D01*
X47807Y594063D01*
X47702Y593921D01*
X47590Y593785D01*
X47465Y593599D01*
X47333Y593420D01*
X47243Y593268D01*
X47144Y593121D01*
X47038Y592924D01*
X46925Y592732D01*
X46850Y592572D01*
X46767Y592416D01*
X46682Y592209D01*
X46587Y592007D01*
X46529Y591840D01*
X46462Y591676D01*
X46398Y591462D01*
X46324Y591252D01*
X46283Y591080D01*
X46232Y590910D01*
X46190Y590691D01*
X46138Y590474D01*
X46114Y590299D01*
X46080Y590125D01*
X46070Y589973D01*
X46030Y589681D01*
X46011Y589142D01*
X46001Y589000D01*
X46001Y556000D01*
X46010Y555823D01*
X46009Y555647D01*
X46030Y555425D01*
X46041Y555201D01*
X46067Y555026D01*
X46084Y554851D01*
X46127Y554631D01*
X46160Y554411D01*
X46204Y554240D01*
X46238Y554066D01*
X46303Y553852D01*
X46358Y553636D01*
X46419Y553470D01*
X46470Y553301D01*
X46556Y553094D01*
X46632Y552885D01*
X46709Y552726D01*
X46733Y552669D01*
X46736Y552660D01*
X46737Y552658D01*
X46777Y552562D01*
X46883Y552365D01*
X46980Y552164D01*
X47070Y552018D01*
X47105Y551950D01*
X47114Y551937D01*
X47157Y551858D01*
X47281Y551673D01*
X47398Y551483D01*
X47492Y551360D01*
X47543Y551281D01*
X47563Y551257D01*
X47604Y551196D01*
X47704Y551081D01*
X47882Y550846D01*
X47976Y550746D01*
X48046Y550659D01*
X48234Y550469D01*
X48251Y550451D01*
X48344Y550344D01*
X74344Y524344D01*
X74475Y524225D01*
X74599Y524099D01*
X74771Y523957D01*
X74937Y523807D01*
X75079Y523702D01*
X75215Y523590D01*
X75401Y523465D01*
X75580Y523333D01*
X75732Y523243D01*
X75879Y523144D01*
X76076Y523038D01*
X76268Y522925D01*
X76428Y522850D01*
X76584Y522767D01*
X76791Y522682D01*
X76993Y522587D01*
X77160Y522529D01*
X77324Y522462D01*
X77538Y522398D01*
X77748Y522324D01*
X77920Y522283D01*
X78090Y522232D01*
X78309Y522190D01*
X78526Y522138D01*
X78701Y522114D01*
X78875Y522080D01*
X79027Y522070D01*
X79319Y522030D01*
X79858Y522011D01*
X80000Y522001D01*
X156687Y522001D01*
X224344Y454344D01*
X224475Y454225D01*
X224599Y454099D01*
X224771Y453957D01*
X224937Y453807D01*
X225079Y453702D01*
X225215Y453590D01*
X225401Y453465D01*
X225580Y453333D01*
X225732Y453243D01*
X225879Y453144D01*
X226076Y453038D01*
X226268Y452925D01*
X226428Y452850D01*
X226584Y452767D01*
X226791Y452682D01*
X226993Y452587D01*
X227160Y452529D01*
X227324Y452462D01*
X227538Y452398D01*
X227748Y452324D01*
X227920Y452283D01*
X228090Y452232D01*
X228309Y452190D01*
X228526Y452138D01*
X228701Y452114D01*
X228875Y452080D01*
X229027Y452070D01*
X229319Y452030D01*
X229858Y452011D01*
X230000Y452001D01*
X250000Y452001D01*
X250118Y452007D01*
G37*
D10*
X250000Y590500D03*
D11*
X250000Y565100D03*
X250000Y539700D03*
X250000Y514300D03*
X250000Y488900D03*
X250000Y463500D03*
X250000Y438100D03*
X250000Y412700D03*
X250000Y387300D03*
X250000Y361900D03*
X250000Y336500D03*
X250000Y311100D03*
X250000Y285700D03*
X250000Y260300D03*
X250000Y234900D03*
X250000Y209500D03*
X275400Y590500D03*
X275400Y565100D03*
X275400Y539700D03*
X275400Y514300D03*
X275400Y488900D03*
X275400Y463500D03*
X275400Y438100D03*
X275400Y412700D03*
X275400Y387300D03*
X275400Y361900D03*
X275400Y336500D03*
X275400Y311100D03*
X275400Y285700D03*
X275400Y260300D03*
X275400Y234900D03*
X275400Y209500D03*
X300800Y590500D03*
X300800Y565100D03*
X300800Y539700D03*
X300800Y514300D03*
X300800Y488900D03*
X300800Y463500D03*
X300800Y438100D03*
X300800Y412700D03*
X300800Y387300D03*
X300800Y361900D03*
X300800Y336500D03*
X300800Y311100D03*
X300800Y285700D03*
X300800Y260300D03*
X300800Y234900D03*
X300800Y209500D03*
D10*
X453200Y590500D03*
D11*
X453200Y565100D03*
X453200Y539700D03*
X453200Y514300D03*
X453200Y488900D03*
X453200Y463500D03*
X453200Y438100D03*
X453200Y412700D03*
X453200Y387300D03*
X453200Y361900D03*
X453200Y336500D03*
X453200Y311100D03*
X453200Y285700D03*
X453200Y260300D03*
X453200Y234900D03*
X453200Y209500D03*
X478600Y590500D03*
X478600Y565100D03*
X478600Y539700D03*
X478600Y514300D03*
X478600Y488900D03*
X478600Y463500D03*
X478600Y438100D03*
X478600Y412700D03*
X478600Y387300D03*
X478600Y361900D03*
X478600Y336500D03*
X478600Y311100D03*
X478600Y285700D03*
X478600Y260300D03*
X478600Y234900D03*
X478600Y209500D03*
X504000Y590500D03*
X504000Y565100D03*
X504000Y539700D03*
X504000Y514300D03*
X504000Y488900D03*
X504000Y463500D03*
X504000Y438100D03*
X504000Y412700D03*
X504000Y387300D03*
X504000Y361900D03*
X504000Y336500D03*
X504000Y311100D03*
X504000Y285700D03*
X504000Y260300D03*
X504000Y234900D03*
X504000Y209500D03*
D10*
X656400Y590500D03*
D11*
X656400Y565100D03*
X656400Y539700D03*
X656400Y514300D03*
X656400Y488900D03*
X656400Y463500D03*
X656400Y438100D03*
X656400Y412700D03*
X656400Y387300D03*
X656400Y361900D03*
X656400Y336500D03*
X656400Y311100D03*
X656400Y285700D03*
X656400Y260300D03*
X656400Y234900D03*
X656400Y209500D03*
X681800Y590500D03*
X681800Y565100D03*
X681800Y539700D03*
X681800Y514300D03*
X681800Y488900D03*
X681800Y463500D03*
X681800Y438100D03*
X681800Y412700D03*
X681800Y387300D03*
X681800Y361900D03*
X681800Y336500D03*
X681800Y311100D03*
X681800Y285700D03*
X681800Y260300D03*
X681800Y234900D03*
X681800Y209500D03*
X707200Y590500D03*
X707200Y565100D03*
X707200Y539700D03*
X707200Y514300D03*
X707200Y488900D03*
X707200Y463500D03*
X707200Y438100D03*
X707200Y412700D03*
X707200Y387300D03*
X707200Y361900D03*
X707200Y336500D03*
X707200Y311100D03*
X707200Y285700D03*
X707200Y260300D03*
X707200Y234900D03*
X707200Y209500D03*
D10*
X859600Y590500D03*
D11*
X859600Y565100D03*
X859600Y539700D03*
X859600Y514300D03*
X859600Y488900D03*
X859600Y463500D03*
X859600Y438100D03*
X859600Y412700D03*
X859600Y387300D03*
X859600Y361900D03*
X859600Y336500D03*
X859600Y311100D03*
X859600Y285700D03*
X859600Y260300D03*
X859600Y234900D03*
X859600Y209500D03*
X885000Y590500D03*
X885000Y565100D03*
X885000Y539700D03*
X885000Y514300D03*
X885000Y488900D03*
X885000Y463500D03*
X885000Y438100D03*
X885000Y412700D03*
X885000Y387300D03*
X885000Y361900D03*
X885000Y336500D03*
X885000Y311100D03*
X885000Y285700D03*
X885000Y260300D03*
X885000Y234900D03*
X885000Y209500D03*
X910400Y590500D03*
X910400Y565100D03*
X910400Y539700D03*
X910400Y514300D03*
X910400Y488900D03*
X910400Y463500D03*
X910400Y438100D03*
X910400Y412700D03*
X910400Y387300D03*
X910400Y361900D03*
X910400Y336500D03*
X910400Y311100D03*
X910400Y285700D03*
X910400Y260300D03*
X910400Y234900D03*
X910400Y209500D03*
D10*
X1062800Y590500D03*
D11*
X1062800Y565100D03*
X1062800Y539700D03*
X1062800Y514300D03*
X1062800Y488900D03*
X1062800Y463500D03*
X1062800Y438100D03*
X1062800Y412700D03*
X1062800Y387300D03*
X1062800Y361900D03*
X1062800Y336500D03*
X1062800Y311100D03*
X1062800Y285700D03*
X1062800Y260300D03*
X1062800Y234900D03*
X1062800Y209500D03*
X1088200Y590500D03*
X1088200Y565100D03*
X1088200Y539700D03*
X1088200Y514300D03*
X1088200Y488900D03*
X1088200Y463500D03*
X1088200Y438100D03*
X1088200Y412700D03*
X1088200Y387300D03*
X1088200Y361900D03*
X1088200Y336500D03*
X1088200Y311100D03*
X1088200Y285700D03*
X1088200Y260300D03*
X1088200Y234900D03*
X1088200Y209500D03*
X1113600Y590500D03*
X1113600Y565100D03*
X1113600Y539700D03*
X1113600Y514300D03*
X1113600Y488900D03*
X1113600Y463500D03*
X1113600Y438100D03*
X1113600Y412700D03*
X1113600Y387300D03*
X1113600Y361900D03*
X1113600Y336500D03*
X1113600Y311100D03*
X1113600Y285700D03*
X1113600Y260300D03*
X1113600Y234900D03*
X1113600Y209500D03*
D10*
X1266000Y590500D03*
D11*
X1266000Y565100D03*
X1266000Y539700D03*
X1266000Y514300D03*
X1266000Y488900D03*
X1266000Y463500D03*
X1266000Y438100D03*
X1266000Y412700D03*
X1266000Y387300D03*
X1266000Y361900D03*
X1266000Y336500D03*
X1266000Y311100D03*
X1266000Y285700D03*
X1266000Y260300D03*
X1266000Y234900D03*
X1266000Y209500D03*
X1291400Y590500D03*
X1291400Y565100D03*
X1291400Y539700D03*
X1291400Y514300D03*
X1291400Y488900D03*
X1291400Y463500D03*
X1291400Y438100D03*
X1291400Y412700D03*
X1291400Y387300D03*
X1291400Y361900D03*
X1291400Y336500D03*
X1291400Y311100D03*
X1291400Y285700D03*
X1291400Y260300D03*
X1291400Y234900D03*
X1291400Y209500D03*
X1316800Y590500D03*
X1316800Y565100D03*
X1316800Y539700D03*
X1316800Y514300D03*
X1316800Y488900D03*
X1316800Y463500D03*
X1316800Y438100D03*
X1316800Y412700D03*
X1316800Y387300D03*
X1316800Y361900D03*
X1316800Y336500D03*
X1316800Y311100D03*
X1316800Y285700D03*
X1316800Y260300D03*
X1316800Y234900D03*
X1316800Y209500D03*
D10*
X1469200Y590500D03*
D11*
X1469200Y565100D03*
X1469200Y539700D03*
X1469200Y514300D03*
X1469200Y488900D03*
X1469200Y463500D03*
X1469200Y438100D03*
X1469200Y412700D03*
X1469200Y387300D03*
X1469200Y361900D03*
X1469200Y336500D03*
X1469200Y311100D03*
X1469200Y285700D03*
X1469200Y260300D03*
X1469200Y234900D03*
X1469200Y209500D03*
X1494600Y590500D03*
X1494600Y565100D03*
X1494600Y539700D03*
X1494600Y514300D03*
X1494600Y488900D03*
X1494600Y463500D03*
X1494600Y438100D03*
X1494600Y412700D03*
X1494600Y387300D03*
X1494600Y361900D03*
X1494600Y336500D03*
X1494600Y311100D03*
X1494600Y285700D03*
X1494600Y260300D03*
X1494600Y234900D03*
X1494600Y209500D03*
X1520000Y590500D03*
X1520000Y565100D03*
X1520000Y539700D03*
X1520000Y514300D03*
X1520000Y488900D03*
X1520000Y463500D03*
X1520000Y438100D03*
X1520000Y412700D03*
X1520000Y387300D03*
X1520000Y361900D03*
X1520000Y336500D03*
X1520000Y311100D03*
X1520000Y285700D03*
X1520000Y260300D03*
X1520000Y234900D03*
X1520000Y209500D03*
D10*
X1672400Y590500D03*
D11*
X1672400Y565100D03*
X1672400Y539700D03*
X1672400Y514300D03*
X1672400Y488900D03*
X1672400Y463500D03*
X1672400Y438100D03*
X1672400Y412700D03*
X1672400Y387300D03*
X1672400Y361900D03*
X1672400Y336500D03*
X1672400Y311100D03*
X1672400Y285700D03*
X1672400Y260300D03*
X1672400Y234900D03*
X1672400Y209500D03*
X1697800Y590500D03*
X1697800Y565100D03*
X1697800Y539700D03*
X1697800Y514300D03*
X1697800Y488900D03*
X1697800Y463500D03*
X1697800Y438100D03*
X1697800Y412700D03*
X1697800Y387300D03*
X1697800Y361900D03*
X1697800Y336500D03*
X1697800Y311100D03*
X1697800Y285700D03*
X1697800Y260300D03*
X1697800Y234900D03*
X1697800Y209500D03*
X1723200Y590500D03*
X1723200Y565100D03*
X1723200Y539700D03*
X1723200Y514300D03*
X1723200Y488900D03*
X1723200Y463500D03*
X1723200Y438100D03*
X1723200Y412700D03*
X1723200Y387300D03*
X1723200Y361900D03*
X1723200Y336500D03*
X1723200Y311100D03*
X1723200Y285700D03*
X1723200Y260300D03*
X1723200Y234900D03*
X1723200Y209500D03*
D12*
X80000Y670000D03*
X80000Y570000D03*
D13*
X104600Y349576D03*
X130000Y349576D03*
X155400Y349576D03*
D14*
X130000Y441524D03*
D15*
X143970Y316000D03*
X116030Y316000D03*
D16*
X70000Y375240D03*
X70000Y344760D03*
D13*
X104600Y149576D03*
X130000Y149576D03*
X155400Y149576D03*
D14*
X130000Y241524D03*
D15*
X143970Y110000D03*
X116030Y110000D03*
D16*
X70000Y175240D03*
X70000Y144760D03*
D17*
X1892700Y132200D03*
X1867300Y132200D03*
X1892700Y157600D03*
X1867300Y157600D03*
X1892700Y183000D03*
X1867300Y183000D03*
X1892700Y208400D03*
X1867300Y208400D03*
X1892700Y233800D03*
X1867300Y233800D03*
X1892700Y259200D03*
X1867300Y259200D03*
X1892700Y284600D03*
X1867300Y284600D03*
X1892700Y310000D03*
X1867300Y310000D03*
X1892700Y335400D03*
X1867300Y335400D03*
X1892700Y360800D03*
X1867300Y360800D03*
X1892700Y386200D03*
X1867300Y386200D03*
X1892700Y411600D03*
X1867300Y411600D03*
X1892700Y437000D03*
X1867300Y437000D03*
X1892700Y462400D03*
X1867300Y462400D03*
X1892700Y487800D03*
X1867300Y487800D03*
D18*
X1943000Y527600D03*
D19*
X1943000Y502200D03*
X1943000Y70400D03*
X1943000Y476800D03*
X1943000Y451400D03*
X1943000Y426000D03*
X1943000Y400600D03*
X1943000Y375200D03*
X1943000Y349800D03*
X1943000Y324400D03*
X1943000Y299000D03*
X1943000Y273600D03*
X1943000Y248200D03*
X1943000Y222800D03*
X1943000Y197400D03*
X1943000Y172000D03*
X1943000Y146600D03*
X1943000Y121200D03*
X1943000Y95800D03*
X2197000Y527600D03*
X2197000Y502200D03*
X2197000Y476800D03*
X2197000Y451400D03*
X2197000Y426000D03*
X2197000Y400600D03*
X2197000Y375200D03*
X2197000Y349800D03*
X2197000Y324400D03*
X2197000Y299000D03*
X2197000Y273600D03*
X2197000Y248200D03*
X2197000Y222800D03*
X2197000Y197400D03*
X2197000Y172000D03*
X2197000Y146600D03*
X2197000Y121200D03*
X2197000Y95800D03*
X2197000Y70400D03*
D20*
X2180220Y70400D02*
X2164980Y70400D01*
X2164980Y95800D02*
X2180220Y95800D01*
X2180220Y121200D02*
X2164980Y121200D01*
X2164980Y146600D02*
X2180220Y146600D01*
X2180220Y172000D02*
X2164980Y172000D01*
X2164980Y197400D02*
X2180220Y197400D01*
X2180220Y222800D02*
X2164980Y222800D01*
X2164980Y248200D02*
X2180220Y248200D01*
X2180220Y273600D02*
X2164980Y273600D01*
X2164980Y299000D02*
X2180220Y299000D01*
X2180220Y324400D02*
X2164980Y324400D01*
X2164980Y349800D02*
X2180220Y349800D01*
X2180220Y375200D02*
X2164980Y375200D01*
X2164980Y400600D02*
X2180220Y400600D01*
X2180220Y426000D02*
X2164980Y426000D01*
X2164980Y451400D02*
X2180220Y451400D01*
X2180220Y476800D02*
X2164980Y476800D01*
X2164980Y502200D02*
X2180220Y502200D01*
X2180220Y527600D02*
X2164980Y527600D01*
D21*
X250000Y539700D02*
X250000Y514300D01*
X453200Y514300D02*
X453200Y539700D01*
X656400Y539700D02*
X656400Y514300D01*
X859600Y514300D02*
X859600Y539700D01*
X1062800Y539700D02*
X1062800Y514300D01*
X1266000Y514300D02*
X1266000Y539700D01*
X1469200Y539700D02*
X1469200Y514300D01*
X1672400Y514300D02*
X1672400Y539700D01*
D22*
X170500Y670000D02*
X80000Y670000D01*
X170500Y670000D02*
X275400Y565100D01*
D23*
X99784Y344760D02*
X70000Y344760D01*
X99784Y344760D02*
X104600Y349576D01*
X104600Y327430D01*
X116030Y316000D01*
X30000Y620000D02*
X80000Y670000D01*
X63044Y351716D02*
X60256Y351716D01*
X63044Y351716D02*
X70000Y344760D01*
X60256Y351716D02*
X30000Y381972D01*
X30000Y620000D01*
X30000Y381972D02*
X30000Y160000D01*
X45240Y144760D02*
X70000Y144760D01*
X45240Y144760D02*
X30000Y160000D01*
X70000Y144760D02*
X99784Y144760D01*
X104600Y149576D01*
X104600Y121430D01*
X116030Y110000D01*
D24*
X1900000Y540000D03*
D25*
X1899700Y539700D01*
D26*
X1723200Y539700D01*
X1960000Y540000D02*
X1972400Y527600D01*
X1960000Y540000D02*
X1900000Y540000D01*
X2172600Y527600D02*
X2197000Y527600D01*
D27*
X2197000Y375200D02*
X2172600Y375200D01*
D26*
X2172600Y527600D02*
X1972400Y527600D01*
X2197000Y527600D02*
X2197000Y519697D01*
X2197000Y383103D02*
X2197000Y375200D01*
X2209372Y507325D02*
X2197000Y519697D01*
X2209372Y395475D02*
X2197000Y383103D01*
X2209372Y395475D02*
X2209372Y507325D01*
D25*
X1723200Y565100D02*
X1723200Y590500D01*
X1723200Y539700D02*
X1697800Y539700D01*
D23*
X275400Y438100D02*
X250000Y438100D01*
X275400Y438100D02*
X300800Y438100D01*
X453200Y438100D01*
X478600Y438100D01*
X504000Y438100D01*
X656400Y438100D01*
X681800Y438100D01*
X707200Y438100D01*
X859600Y438100D01*
X885000Y438100D01*
X910400Y438100D01*
X1062800Y438100D01*
X1088200Y438100D01*
X1113600Y438100D01*
X1266000Y438100D01*
X1291400Y438100D01*
X1316800Y438100D01*
X1469200Y438100D01*
X1494600Y438100D01*
X1520000Y438100D01*
X1672400Y438100D01*
X1697800Y438100D01*
X1723200Y438100D01*
X130000Y435240D02*
X70000Y375240D01*
X130000Y435240D02*
X130000Y441524D01*
X130000Y349576D01*
X133424Y438100D02*
X250000Y438100D01*
X133424Y438100D02*
X130000Y441524D01*
D24*
X1740000Y380000D03*
D25*
X1740000Y390000D01*
X1750000Y400000D01*
D24*
X1750000Y400000D03*
D25*
X260786Y412700D02*
X250000Y412700D01*
X260786Y412700D02*
X272392Y424306D01*
X441594Y424306D02*
X453200Y412700D01*
X441594Y424306D02*
X272392Y424306D01*
X453200Y412700D02*
X462067Y412700D01*
X518615Y412700D02*
X656400Y412700D01*
X518615Y412700D02*
X508281Y423034D01*
X472401Y423034D02*
X462067Y412700D01*
X472401Y423034D02*
X508281Y423034D01*
X656400Y412700D02*
X667186Y412700D01*
X721815Y412700D02*
X859600Y412700D01*
X677520Y423034D02*
X667186Y412700D01*
X711481Y423034D02*
X721815Y412700D01*
X711481Y423034D02*
X677520Y423034D01*
X859600Y412700D02*
X870386Y412700D01*
X925015Y412700D02*
X1062800Y412700D01*
X880720Y423034D02*
X870386Y412700D01*
X914681Y423034D02*
X925015Y412700D01*
X914681Y423034D02*
X880720Y423034D01*
X1062800Y412700D02*
X1073586Y412700D01*
X1128215Y412700D02*
X1266000Y412700D01*
X1083920Y423034D02*
X1073586Y412700D01*
X1117881Y423034D02*
X1128215Y412700D01*
X1117881Y423034D02*
X1083920Y423034D01*
X1266000Y412700D02*
X1276786Y412700D01*
X1331415Y412700D02*
X1469200Y412700D01*
X1287120Y423034D02*
X1276786Y412700D01*
X1321081Y423034D02*
X1331415Y412700D01*
X1321081Y423034D02*
X1287120Y423034D01*
X1469200Y412700D02*
X1479986Y412700D01*
X1534615Y412700D02*
X1672400Y412700D01*
X1490320Y423034D02*
X1479986Y412700D01*
X1524281Y423034D02*
X1534615Y412700D01*
X1524281Y423034D02*
X1490320Y423034D01*
X1792408Y487800D02*
X1867300Y487800D01*
X1792408Y487800D02*
X1727642Y423034D01*
X1682734Y423034D01*
X1672400Y412700D01*
D27*
X2172600Y222800D02*
X2197000Y222800D01*
D24*
X1970000Y460000D03*
D25*
X1930000Y500000D02*
X1900000Y500000D01*
D24*
X1900000Y500000D03*
D25*
X1953594Y476406D02*
X1970000Y460000D01*
X1953594Y476406D02*
X1953594Y481188D01*
X1947388Y487394D01*
X1942606Y487394D01*
X1930000Y500000D01*
X260786Y361900D02*
X250000Y361900D01*
X260786Y361900D02*
X271120Y372234D01*
X442866Y372234D02*
X453200Y361900D01*
X442866Y372234D02*
X271120Y372234D01*
X453200Y361900D02*
X462067Y361900D01*
X518615Y361900D02*
X656400Y361900D01*
X518615Y361900D02*
X508281Y372234D01*
X472401Y372234D02*
X462067Y361900D01*
X472401Y372234D02*
X508281Y372234D01*
X656400Y361900D02*
X667186Y361900D01*
X721815Y361900D02*
X859600Y361900D01*
X677520Y372234D02*
X667186Y361900D01*
X711481Y372234D02*
X721815Y361900D01*
X711481Y372234D02*
X677520Y372234D01*
X859600Y361900D02*
X870386Y361900D01*
X925015Y361900D02*
X1062800Y361900D01*
X880720Y372234D02*
X870386Y361900D01*
X914681Y372234D02*
X925015Y361900D01*
X914681Y372234D02*
X880720Y372234D01*
X1062800Y361900D02*
X1073586Y361900D01*
X1128215Y361900D02*
X1266000Y361900D01*
X1083920Y372234D02*
X1073586Y361900D01*
X1117881Y372234D02*
X1128215Y361900D01*
X1117881Y372234D02*
X1083920Y372234D01*
X1266000Y361900D02*
X1276786Y361900D01*
X1331415Y361900D02*
X1469200Y361900D01*
X1287120Y372234D02*
X1276786Y361900D01*
X1321081Y372234D02*
X1331415Y361900D01*
X1321081Y372234D02*
X1287120Y372234D01*
X1469200Y361900D02*
X1479986Y361900D01*
X1534615Y361900D02*
X1672400Y361900D01*
X1490320Y372234D02*
X1479986Y361900D01*
X1524281Y372234D02*
X1534615Y361900D01*
X1524281Y372234D02*
X1490320Y372234D01*
X1831124Y437000D02*
X1867300Y437000D01*
X1831124Y437000D02*
X1770422Y376298D01*
X1686798Y376298D02*
X1672400Y361900D01*
X1745598Y376298D02*
X1770422Y376298D01*
X1745598Y376298D02*
X1742724Y373424D01*
X1737276Y373424D01*
X1734402Y376298D01*
X1686798Y376298D01*
D24*
X1617200Y294100D03*
D25*
X1617200Y252800D01*
X1620000Y250000D01*
D24*
X1620000Y250000D03*
X1620000Y190000D03*
D25*
X1730000Y80000D01*
X1920000Y80000D01*
D24*
X1920000Y80000D03*
D25*
X260786Y311100D02*
X250000Y311100D01*
X260786Y311100D02*
X271120Y321434D01*
X305081Y321434D02*
X306515Y320000D01*
X305081Y321434D02*
X271120Y321434D01*
X444300Y320000D02*
X453200Y311100D01*
X444300Y320000D02*
X306515Y320000D01*
X453200Y311100D02*
X462067Y311100D01*
X518615Y311100D02*
X656400Y311100D01*
X518615Y311100D02*
X508281Y321434D01*
X472401Y321434D02*
X462067Y311100D01*
X472401Y321434D02*
X508281Y321434D01*
X656400Y311100D02*
X667186Y311100D01*
X721815Y311100D02*
X859600Y311100D01*
X677520Y321434D02*
X667186Y311100D01*
X711481Y321434D02*
X721815Y311100D01*
X711481Y321434D02*
X677520Y321434D01*
X859600Y311100D02*
X870386Y311100D01*
X925015Y311100D02*
X1062800Y311100D01*
X880720Y321434D02*
X870386Y311100D01*
X914681Y321434D02*
X925015Y311100D01*
X914681Y321434D02*
X880720Y321434D01*
X1062800Y311100D02*
X1073586Y311100D01*
X1128215Y311100D02*
X1266000Y311100D01*
X1083920Y321434D02*
X1073586Y311100D01*
X1117881Y321434D02*
X1128215Y311100D01*
X1117881Y321434D02*
X1083920Y321434D01*
X1266000Y311100D02*
X1276786Y311100D01*
X1331415Y311100D02*
X1469200Y311100D01*
X1287120Y321434D02*
X1276786Y311100D01*
X1321081Y321434D02*
X1331415Y311100D01*
X1321081Y321434D02*
X1287120Y321434D01*
X1469200Y311100D02*
X1479986Y311100D01*
X1490320Y321434D01*
X1524281Y321434D02*
X1534615Y311100D01*
X1524281Y321434D02*
X1490320Y321434D01*
X1672400Y311100D02*
X1685100Y323800D01*
X1748053Y323800D02*
X1756317Y332064D01*
X1748053Y323800D02*
X1685100Y323800D01*
X1799229Y334064D02*
X1815164Y334064D01*
X1847676Y366576D02*
X1867300Y386200D01*
X1847676Y366576D02*
X1847276Y366576D01*
X1843424Y362724D01*
X1843424Y362324D01*
X1815164Y334064D01*
X1783593Y331360D02*
X1782889Y332064D01*
X1756317Y332064D01*
X1783593Y331360D02*
X1796525Y331360D01*
X1799229Y334064D01*
D27*
X2172600Y146600D02*
X2197000Y146600D01*
D25*
X1607658Y311100D02*
X1534615Y311100D01*
X1607658Y311100D02*
X1609426Y312868D01*
X1624974Y312868D01*
X1626742Y311100D01*
X1672400Y311100D01*
D24*
X1920000Y70000D03*
D25*
X1730000Y70000D01*
X1580000Y220000D01*
D24*
X1580000Y220000D03*
X1570000Y270000D03*
D25*
X1560000Y280000D01*
X1560000Y290000D01*
D24*
X1560000Y290000D03*
D25*
X260786Y260300D02*
X250000Y260300D01*
X260786Y260300D02*
X271120Y270634D01*
X443366Y270634D01*
X453200Y260800D01*
X453200Y260300D01*
X462067Y260300D01*
X518615Y260300D02*
X656400Y260300D01*
X518615Y260300D02*
X508281Y270634D01*
X472401Y270634D02*
X462067Y260300D01*
X472401Y270634D02*
X508281Y270634D01*
X656400Y260300D02*
X667186Y260300D01*
X721815Y260300D02*
X859600Y260300D01*
X677520Y270634D02*
X667186Y260300D01*
X711481Y270634D02*
X721815Y260300D01*
X711481Y270634D02*
X677520Y270634D01*
X859600Y260300D02*
X870386Y260300D01*
X925015Y260300D02*
X1062800Y260300D01*
X880720Y270634D02*
X870386Y260300D01*
X914681Y270634D02*
X925015Y260300D01*
X914681Y270634D02*
X880720Y270634D01*
X1062800Y260300D02*
X1073586Y260300D01*
X1128215Y260300D02*
X1266000Y260300D01*
X1083920Y270634D02*
X1073586Y260300D01*
X1117881Y270634D02*
X1128215Y260300D01*
X1117881Y270634D02*
X1083920Y270634D01*
X1266000Y260300D02*
X1276786Y260300D01*
X1331415Y260300D02*
X1469200Y260300D01*
X1287120Y270634D02*
X1276786Y260300D01*
X1321081Y270634D02*
X1331415Y260300D01*
X1321081Y270634D02*
X1287120Y270634D01*
X1469200Y260300D02*
X1479986Y260300D01*
X1490320Y270634D01*
X1524281Y270634D01*
D24*
X1800000Y310000D03*
D25*
X1834253Y310000D01*
X1850634Y326381D01*
X1850634Y329934D01*
X1854486Y333786D01*
X1859934Y333786D01*
X1862810Y330910D01*
X1867300Y335400D01*
D27*
X2172600Y273600D02*
X2197000Y273600D01*
D24*
X1910000Y450000D03*
D25*
X1920000Y460000D01*
D24*
X1920000Y460000D03*
D25*
X1622724Y243424D02*
X1617276Y243424D01*
X1622724Y243424D02*
X1626576Y247276D01*
X1626576Y252724D01*
X1623528Y260300D02*
X1672400Y260300D01*
X1626576Y252724D02*
X1623528Y255772D01*
X1623528Y260300D01*
X1613136Y260300D02*
X1613136Y247564D01*
X1617276Y243424D01*
X1575347Y260300D02*
X1574407Y259360D01*
X1575347Y260300D02*
X1613136Y260300D01*
X1574407Y259360D02*
X1535555Y259360D01*
X1524281Y270634D01*
X260000Y209500D02*
X250000Y209500D01*
X260000Y209500D02*
X270500Y220000D01*
X442700Y220000D02*
X453200Y209500D01*
X442700Y220000D02*
X270500Y220000D01*
X453200Y209500D02*
X462067Y209500D01*
X518615Y209500D02*
X656400Y209500D01*
X518615Y209500D02*
X508281Y219834D01*
X472401Y219834D02*
X462067Y209500D01*
X472401Y219834D02*
X508281Y219834D01*
X656400Y209500D02*
X667186Y209500D01*
X721815Y209500D02*
X859600Y209500D01*
X677520Y219834D02*
X667186Y209500D01*
X711481Y219834D02*
X721815Y209500D01*
X711481Y219834D02*
X677520Y219834D01*
X859600Y209500D02*
X870386Y209500D01*
X925015Y209500D02*
X1062800Y209500D01*
X880720Y219834D02*
X870386Y209500D01*
X914681Y219834D02*
X925015Y209500D01*
X914681Y219834D02*
X880720Y219834D01*
X1062800Y209500D02*
X1073586Y209500D01*
X1128215Y209500D02*
X1266000Y209500D01*
X1083920Y219834D02*
X1073586Y209500D01*
X1117881Y219834D02*
X1128215Y209500D01*
X1117881Y219834D02*
X1083920Y219834D01*
X1266000Y209500D02*
X1276786Y209500D01*
X1331415Y209500D02*
X1469200Y209500D01*
X1287120Y219834D02*
X1276786Y209500D01*
X1321081Y219834D02*
X1331415Y209500D01*
X1321081Y219834D02*
X1287120Y219834D01*
X1469200Y209500D02*
X1479986Y209500D01*
X1490320Y219834D01*
X1524281Y219834D02*
X1534615Y209500D01*
X1524281Y219834D02*
X1490320Y219834D01*
D24*
X1820000Y300000D03*
D25*
X1830000Y300000D01*
X1857210Y327210D01*
D24*
X1857210Y327210D03*
D25*
X1575593Y230640D02*
X1569360Y224407D01*
X1575593Y230640D02*
X1584407Y230640D01*
X1590640Y224407D01*
X1590640Y220855D01*
X1601995Y209500D01*
X1672400Y209500D01*
X1569360Y209500D02*
X1534615Y209500D01*
X1569360Y209500D02*
X1569360Y224407D01*
X286186Y412700D02*
X275400Y412700D01*
X467815Y412700D02*
X478600Y412700D01*
X296520Y402366D02*
X286186Y412700D01*
X457481Y402366D02*
X467815Y412700D01*
X457481Y402366D02*
X296520Y402366D01*
X672933Y412700D02*
X681800Y412700D01*
X489386Y412700D02*
X478600Y412700D01*
X489386Y412700D02*
X499720Y402366D01*
X662599Y402366D01*
X672933Y412700D01*
X882133Y412700D02*
X885000Y412700D01*
X692586Y412700D02*
X681800Y412700D01*
X692586Y412700D02*
X702920Y402366D01*
X871799Y402366D01*
X882133Y412700D01*
X1081615Y412700D02*
X1088200Y412700D01*
X892504Y412700D02*
X885000Y412700D01*
X892504Y412700D02*
X903330Y401874D01*
X1070789Y401874D01*
X1081615Y412700D01*
X1284815Y412700D02*
X1291400Y412700D01*
X1094704Y412700D02*
X1088200Y412700D01*
X1094704Y412700D02*
X1105530Y401874D01*
X1273989Y401874D01*
X1284815Y412700D01*
X1491015Y412700D02*
X1494600Y412700D01*
X1297904Y412700D02*
X1291400Y412700D01*
X1297904Y412700D02*
X1308730Y401874D01*
X1480189Y401874D01*
X1491015Y412700D01*
X1494600Y412700D02*
X1503104Y412700D01*
X1696296Y412700D02*
X1697800Y412700D01*
X1513930Y401874D02*
X1503104Y412700D01*
X1685470Y401874D02*
X1696296Y412700D01*
X1624000Y401874D02*
X1513930Y401874D01*
X1624000Y401874D02*
X1685470Y401874D01*
D24*
X1624000Y401874D03*
D27*
X2172600Y400600D02*
X2197000Y400600D01*
D25*
X1879800Y322500D02*
X1867300Y310000D01*
X1879800Y322500D02*
X1880100Y322500D01*
D24*
X1880100Y322500D03*
X1910000Y350000D03*
D25*
X2123200Y450000D02*
X2172600Y400600D01*
X1959382Y450000D02*
X1947388Y461994D01*
X1938612Y461994D02*
X1910000Y433382D01*
X1959382Y450000D02*
X2123200Y450000D01*
X1947388Y461994D02*
X1938612Y461994D01*
X1910000Y433382D02*
X1910000Y425747D01*
X1910000Y350829D02*
X1910000Y350000D01*
X1910000Y350829D02*
X1907178Y353651D01*
X1907178Y422925D02*
X1910000Y425747D01*
X1907178Y422925D02*
X1907178Y353651D01*
X286186Y361900D02*
X275400Y361900D01*
X467815Y361900D02*
X478600Y361900D01*
X296520Y351566D02*
X286186Y361900D01*
X457481Y351566D02*
X467815Y361900D01*
X457481Y351566D02*
X296520Y351566D01*
X672933Y361900D02*
X681800Y361900D01*
X489386Y361900D02*
X478600Y361900D01*
X489386Y361900D02*
X499720Y351566D01*
X662599Y351566D01*
X672933Y361900D01*
X876133Y361900D02*
X885000Y361900D01*
X692586Y361900D02*
X681800Y361900D01*
X692586Y361900D02*
X702920Y351566D01*
X865799Y351566D01*
X876133Y361900D01*
X1079333Y361900D02*
X1088200Y361900D01*
X895786Y361900D02*
X885000Y361900D01*
X895786Y361900D02*
X906120Y351566D01*
X1068999Y351566D01*
X1079333Y361900D01*
X1282533Y361900D02*
X1291400Y361900D01*
X1098986Y361900D02*
X1088200Y361900D01*
X1098986Y361900D02*
X1109320Y351566D01*
X1272199Y351566D01*
X1282533Y361900D01*
X1485733Y361900D02*
X1494600Y361900D01*
X1302186Y361900D02*
X1291400Y361900D01*
X1302186Y361900D02*
X1312520Y351566D01*
X1475399Y351566D01*
X1485733Y361900D01*
X1494600Y361900D02*
X1505386Y361900D01*
X1687015Y361900D02*
X1697800Y361900D01*
X1515720Y351566D02*
X1505386Y361900D01*
X1676681Y351566D02*
X1687015Y361900D01*
X1676681Y351566D02*
X1515720Y351566D01*
X1856886Y269614D02*
X1867300Y259200D01*
X1856886Y269614D02*
X1856886Y314314D01*
X1865272Y322700D01*
X1869328Y322700D01*
X1877714Y331086D01*
X1877714Y415914D01*
X1871614Y422014D01*
X1708134Y372234D02*
X1697800Y361900D01*
X1747281Y372234D02*
X1779149Y372234D01*
X1747281Y372234D02*
X1744407Y369360D01*
X1735593Y369360D01*
X1732719Y372234D01*
X1708134Y372234D01*
X1793424Y392724D02*
X1797276Y396576D01*
X1803491Y396576D02*
X1828929Y422014D01*
X1803491Y396576D02*
X1797276Y396576D01*
X1793424Y386509D02*
X1779149Y372234D01*
X1793424Y386509D02*
X1793424Y392724D01*
X1880000Y271900D02*
X1867300Y259200D01*
X1880000Y271900D02*
X1880000Y290000D01*
X1889586Y299586D01*
X1890000Y299586D01*
X1912214Y299586D01*
X1912500Y299300D01*
D24*
X1912500Y299300D03*
D25*
X1842724Y426576D02*
X1837276Y426576D01*
X1847286Y422014D02*
X1871614Y422014D01*
X1832714Y422014D02*
X1828929Y422014D01*
X1842724Y426576D02*
X1847286Y422014D01*
X1837276Y426576D02*
X1832714Y422014D01*
X286186Y311100D02*
X275400Y311100D01*
X467815Y311100D02*
X478600Y311100D01*
X296520Y300766D02*
X286186Y311100D01*
X457481Y300766D02*
X467815Y311100D01*
X457481Y300766D02*
X296520Y300766D01*
X672933Y311100D02*
X681800Y311100D01*
X489386Y311100D02*
X478600Y311100D01*
X489386Y311100D02*
X499720Y300766D01*
X662599Y300766D01*
X672933Y311100D01*
X876133Y311100D02*
X885000Y311100D01*
X692586Y311100D02*
X681800Y311100D01*
X692586Y311100D02*
X702920Y300766D01*
X865799Y300766D01*
X876133Y311100D01*
X1079333Y311100D02*
X1088200Y311100D01*
X895786Y311100D02*
X885000Y311100D01*
X895786Y311100D02*
X906120Y300766D01*
X1068999Y300766D01*
X1079333Y311100D01*
X1088200Y311100D02*
X1098986Y311100D01*
X1109320Y300766D01*
X1281066Y300766D01*
X1291400Y311100D01*
X1485733Y311100D02*
X1494600Y311100D01*
X1302186Y311100D02*
X1291400Y311100D01*
X1302186Y311100D02*
X1312520Y300766D01*
X1475399Y300766D01*
X1485733Y311100D01*
X1494600Y311100D02*
X1505386Y311100D01*
X1687015Y311100D02*
X1697800Y311100D01*
X1515720Y300766D02*
X1505386Y311100D01*
X1676681Y300766D02*
X1687015Y311100D01*
X1710500Y283785D02*
X1718919Y275366D01*
X1710500Y283785D02*
X1710500Y298400D01*
X1697800Y311100D01*
X1748471Y276576D02*
X1752784Y276576D01*
X1748471Y276576D02*
X1744407Y280640D01*
X1735593Y280640D01*
X1730319Y275366D01*
X1718919Y275366D01*
X1817276Y203424D02*
X1822724Y203424D01*
X1817276Y203424D02*
X1813424Y207276D01*
X1813424Y215936D02*
X1752784Y276576D01*
X1813424Y215936D02*
X1813424Y207276D01*
X1827700Y208400D02*
X1867300Y208400D01*
X1827700Y208400D02*
X1822724Y203424D01*
X1603071Y300766D02*
X1515720Y300766D01*
X1603071Y300766D02*
X1611109Y308804D01*
X1623291Y308804D01*
X1631329Y300766D01*
X1676681Y300766D01*
D24*
X1930000Y220000D03*
X1910000Y210000D03*
D25*
X1920000Y220000D01*
X1930000Y220000D01*
X286186Y260300D02*
X275400Y260300D01*
X467815Y260300D02*
X478600Y260300D01*
X296520Y249966D02*
X286186Y260300D01*
X457481Y249966D02*
X467815Y260300D01*
X457481Y249966D02*
X296520Y249966D01*
X672933Y260300D02*
X681800Y260300D01*
X489386Y260300D02*
X478600Y260300D01*
X489386Y260300D02*
X499720Y249966D01*
X662599Y249966D01*
X672933Y260300D01*
X876133Y260300D02*
X885000Y260300D01*
X692586Y260300D02*
X681800Y260300D01*
X692586Y260300D02*
X702920Y249966D01*
X865799Y249966D01*
X876133Y260300D01*
X1079333Y260300D02*
X1088200Y260300D01*
X895786Y260300D02*
X885000Y260300D01*
X895786Y260300D02*
X906120Y249966D01*
X1068999Y249966D01*
X1079333Y260300D01*
X1282533Y260300D02*
X1291400Y260300D01*
X1098986Y260300D02*
X1088200Y260300D01*
X1098986Y260300D02*
X1109320Y249966D01*
X1272199Y249966D01*
X1282533Y260300D01*
X1485733Y260300D02*
X1494600Y260300D01*
X1302186Y260300D02*
X1291400Y260300D01*
X1302186Y260300D02*
X1312520Y249966D01*
X1475399Y249966D01*
X1485733Y260300D01*
X1494600Y260300D02*
X1505386Y260300D01*
X1687015Y260300D02*
X1697800Y260300D01*
X1515720Y249966D02*
X1505386Y260300D01*
X1676681Y249966D02*
X1687015Y260300D01*
X1800500Y157600D02*
X1867300Y157600D01*
X1718920Y224566D02*
X1712866Y230620D01*
X1733534Y224566D02*
X1800500Y157600D01*
X1712866Y245234D02*
X1697800Y260300D01*
X1718920Y224566D02*
X1733534Y224566D01*
X1712866Y230620D02*
X1712866Y245234D01*
X1624407Y239360D02*
X1615593Y239360D01*
X1624407Y239360D02*
X1630640Y245593D01*
X1630640Y249966D01*
X1676681Y249966D01*
X1604987Y249966D02*
X1515720Y249966D01*
X1604987Y249966D02*
X1615593Y239360D01*
X286186Y209500D02*
X275400Y209500D01*
X467815Y209500D02*
X478600Y209500D01*
X296520Y199166D02*
X286186Y209500D01*
X457481Y199166D02*
X467815Y209500D01*
X457481Y199166D02*
X296520Y199166D01*
X672933Y209500D02*
X681800Y209500D01*
X489386Y209500D02*
X478600Y209500D01*
X489386Y209500D02*
X499720Y199166D01*
X662599Y199166D01*
X672933Y209500D01*
X876133Y209500D02*
X885000Y209500D01*
X692586Y209500D02*
X681800Y209500D01*
X692586Y209500D02*
X702920Y199166D01*
X865799Y199166D01*
X876133Y209500D01*
X1079333Y209500D02*
X1088200Y209500D01*
X895786Y209500D02*
X885000Y209500D01*
X895786Y209500D02*
X906120Y199166D01*
X1068999Y199166D01*
X1079333Y209500D01*
X1282533Y209500D02*
X1291400Y209500D01*
X1098986Y209500D02*
X1088200Y209500D01*
X1098986Y209500D02*
X1109320Y199166D01*
X1272199Y199166D01*
X1282533Y209500D01*
X1485733Y209500D02*
X1494600Y209500D01*
X1302186Y209500D02*
X1291400Y209500D01*
X1302186Y209500D02*
X1312520Y199166D01*
X1475399Y199166D01*
X1485733Y209500D01*
X1494600Y209500D02*
X1505386Y209500D01*
X1687015Y209500D02*
X1697800Y209500D01*
X1515720Y199166D02*
X1505386Y209500D01*
X1676681Y199166D02*
X1687015Y209500D01*
D24*
X1850000Y240000D03*
D25*
X1830000Y240000D01*
X1820000Y250000D01*
D24*
X1820000Y250000D03*
D25*
X1573424Y222724D02*
X1573424Y217276D01*
X1573424Y222724D02*
X1577276Y226576D01*
X1582724Y226576D01*
X1586576Y222724D01*
X1586576Y219171D01*
X1606581Y199166D01*
X1676681Y199166D01*
X1580829Y199166D02*
X1515720Y199166D01*
X1580829Y199166D02*
X1580829Y209872D01*
X1573424Y217276D01*
D23*
X130000Y240000D02*
X120000Y240000D01*
X120000Y225240D01*
X130000Y235240D02*
X130000Y240000D01*
X130000Y235240D02*
X130000Y149576D01*
X70000Y175240D02*
X130000Y235240D01*
X130000Y241524D02*
X220000Y331524D01*
X220000Y410000D01*
D24*
X220000Y410000D03*
D25*
X130000Y241524D02*
X130000Y235240D01*
D28*
X1787300Y527600D02*
X1943000Y527600D01*
X1787300Y527600D02*
X1723200Y463500D01*
D24*
X1910000Y130000D03*
D26*
X1904892Y135108D01*
X1892700Y174842D02*
X1892700Y183000D01*
X1892700Y174842D02*
X1904892Y162650D01*
X1904892Y135108D01*
D27*
X2172600Y324400D02*
X2197000Y324400D01*
D25*
X2172600Y324400D02*
X2075600Y324400D01*
X1970000Y430000D02*
X1953982Y430000D01*
X1947388Y436594D01*
X1936594Y436594D01*
X1915306Y359741D02*
X1920640Y354407D01*
X1920640Y345593D01*
X1915306Y340259D01*
X1915306Y328406D01*
X1911242Y251520D02*
X1910000Y250278D01*
X1910000Y225700D02*
X1892700Y208400D01*
X1915306Y415306D02*
X1936594Y436594D01*
X1915306Y415306D02*
X1915306Y359741D01*
X1915306Y328406D02*
X1911242Y324342D01*
X1910000Y250278D02*
X1910000Y225700D01*
X1911242Y314004D02*
X1911242Y324342D01*
X1911242Y314004D02*
X1918591Y314004D01*
X1927204Y305391D01*
X1927204Y293209D01*
X1918591Y284596D01*
X1911242Y284596D01*
X1911242Y251520D01*
X2010640Y389360D02*
X2075600Y324400D01*
X2010640Y389360D02*
X2005593Y389360D01*
X1999360Y395593D01*
X1999360Y400640D01*
X1970000Y430000D01*
X1877714Y254886D02*
X1871614Y248786D01*
X1862986Y248786D01*
X1861772Y250000D01*
D24*
X1770000Y320000D03*
D25*
X1840000Y250000D02*
X1861772Y250000D01*
X1840000Y250000D02*
X1820140Y269860D01*
X1816093Y269860D01*
X1809860Y276093D01*
X1809860Y280140D01*
X1770000Y320000D01*
X1884064Y275964D02*
X1892700Y284600D01*
X1884064Y275964D02*
X1884064Y270217D01*
X1877714Y263867D01*
X1877714Y254886D01*
D24*
X1850000Y300000D03*
D25*
X1840000Y290000D01*
X1777000Y328000D02*
X1758000Y328000D01*
X1741100Y311100D02*
X1723200Y311100D01*
X1741100Y311100D02*
X1758000Y328000D01*
X1797276Y303424D02*
X1801576Y303424D01*
X1797276Y303424D02*
X1793424Y307276D01*
X1793424Y311576D01*
X1791576Y313424D01*
X1788188Y313424D01*
X1784336Y317276D01*
X1784336Y320664D01*
X1777000Y328000D01*
X1835747Y290000D02*
X1840000Y290000D01*
X1835747Y290000D02*
X1827076Y281329D01*
X1827076Y277776D01*
X1823224Y273924D01*
X1817776Y273924D01*
X1813924Y277776D01*
X1813924Y283224D01*
X1817850Y287150D01*
X1801576Y303424D01*
D24*
X1790912Y320000D03*
D25*
X1800912Y330000D02*
X1821000Y330000D01*
X1793424Y322512D02*
X1790912Y320000D01*
X1793424Y322512D02*
X1793424Y322724D01*
X1797276Y326576D01*
X1797488Y326576D01*
X1800912Y330000D01*
X1821000Y330000D02*
X1840000Y349000D01*
D24*
X1840000Y349000D03*
D25*
X1890094Y245921D02*
X1894149Y245921D01*
X1890094Y245921D02*
X1881778Y237606D01*
X1881778Y131950D01*
X1871614Y121786D01*
X1810914Y121786D01*
X1741350Y191350D01*
X1723200Y209500D01*
D24*
X1741350Y191350D03*
D25*
X1894149Y245921D02*
X1903114Y254886D01*
X1912476Y472476D02*
X1912476Y477924D01*
X1912476Y472476D02*
X1908624Y468624D01*
X1903114Y468624D01*
X1898724Y481776D02*
X1892700Y487800D01*
X1898724Y481776D02*
X1908624Y481776D01*
X1912476Y477924D01*
X1903114Y468624D02*
X1903114Y303650D01*
X1907550Y303650D01*
X1909776Y305876D01*
X1915224Y305876D01*
X1919076Y302024D01*
X1919076Y296576D01*
X1915224Y292724D01*
X1909776Y292724D01*
X1906978Y295522D01*
X1903114Y295522D01*
X1903114Y254886D01*
X260786Y234900D02*
X250000Y234900D01*
X260786Y234900D02*
X271120Y245234D01*
X442866Y245234D01*
X453200Y234900D01*
X462067Y234900D01*
X518615Y234900D02*
X656400Y234900D01*
X518615Y234900D02*
X508281Y245234D01*
X472401Y245234D02*
X462067Y234900D01*
X472401Y245234D02*
X508281Y245234D01*
X656400Y234900D02*
X667186Y234900D01*
X721815Y234900D02*
X859600Y234900D01*
X677520Y245234D02*
X667186Y234900D01*
X711481Y245234D02*
X721815Y234900D01*
X711481Y245234D02*
X677520Y245234D01*
X859600Y234900D02*
X870386Y234900D01*
X925015Y234900D02*
X1062800Y234900D01*
X880720Y245234D02*
X870386Y234900D01*
X914681Y245234D02*
X925015Y234900D01*
X914681Y245234D02*
X880720Y245234D01*
X1062800Y234900D02*
X1073586Y234900D01*
X1128215Y234900D02*
X1266000Y234900D01*
X1083920Y245234D02*
X1073586Y234900D01*
X1117881Y245234D02*
X1128215Y234900D01*
X1117881Y245234D02*
X1083920Y245234D01*
X1266000Y234900D02*
X1276786Y234900D01*
X1331415Y234900D02*
X1469200Y234900D01*
X1287120Y245234D02*
X1276786Y234900D01*
X1321081Y245234D02*
X1331415Y234900D01*
X1321081Y245234D02*
X1287120Y245234D01*
X1469200Y234900D02*
X1479986Y234900D01*
X1490320Y245234D01*
X1524281Y245234D02*
X1534615Y234900D01*
X1524281Y245234D02*
X1490320Y245234D01*
D24*
X1820500Y280500D03*
D25*
X1850000Y310000D01*
D24*
X1850000Y310000D03*
D25*
X1568358Y234900D02*
X1534615Y234900D01*
X1568358Y234900D02*
X1572226Y238768D01*
X1587774Y238768D01*
X1591642Y234900D01*
X1672400Y234900D01*
X260786Y285700D02*
X250000Y285700D01*
X260786Y285700D02*
X271120Y296034D01*
X305081Y296034D02*
X305115Y296000D01*
X443000Y296000D01*
X305081Y296034D02*
X271120Y296034D01*
X443000Y296000D02*
X453200Y285800D01*
X453200Y285700D01*
X462067Y285700D01*
X518615Y285700D02*
X656400Y285700D01*
X518615Y285700D02*
X508281Y296034D01*
X472401Y296034D02*
X462067Y285700D01*
X472401Y296034D02*
X508281Y296034D01*
X656400Y285700D02*
X667186Y285700D01*
X721815Y285700D02*
X859600Y285700D01*
X677520Y296034D02*
X667186Y285700D01*
X711481Y296034D02*
X721815Y285700D01*
X711481Y296034D02*
X677520Y296034D01*
X859600Y285700D02*
X870386Y285700D01*
X925015Y285700D02*
X1062800Y285700D01*
X880720Y296034D02*
X870386Y285700D01*
X914681Y296034D02*
X925015Y285700D01*
X914681Y296034D02*
X880720Y296034D01*
X1062800Y285700D02*
X1073586Y285700D01*
X1128215Y285700D02*
X1266000Y285700D01*
X1083920Y296034D02*
X1073586Y285700D01*
X1117881Y296034D02*
X1128215Y285700D01*
X1117881Y296034D02*
X1083920Y296034D01*
X1266000Y285700D02*
X1276786Y285700D01*
X1331415Y285700D02*
X1469200Y285700D01*
X1287120Y296034D02*
X1276786Y285700D01*
X1321081Y296034D02*
X1331415Y285700D01*
X1321081Y296034D02*
X1287120Y296034D01*
X1469200Y285700D02*
X1479986Y285700D01*
X1490320Y296034D01*
X1524281Y296034D02*
X1534615Y285700D01*
X1524281Y296034D02*
X1490320Y296034D01*
D24*
X1800000Y320000D03*
D25*
X1826500Y320000D01*
X1867300Y360800D01*
D27*
X2172600Y248200D02*
X2197000Y248200D01*
D24*
X1760000Y280000D03*
D25*
X1820000Y220000D01*
X1820000Y210000D01*
D24*
X1820000Y210000D03*
X1890000Y119274D03*
D25*
X1932406Y66012D02*
X1938612Y59806D01*
X1947388Y59806D01*
X1947582Y60000D01*
X1984400Y60000D02*
X2172600Y248200D01*
X1984400Y60000D02*
X1947582Y60000D01*
X1612793Y304740D02*
X1606560Y298507D01*
X1612793Y304740D02*
X1621607Y304740D01*
X1627840Y298507D01*
X1606560Y287630D02*
X1604630Y285700D01*
X1629770Y285700D02*
X1672400Y285700D01*
X1629770Y285700D02*
X1627840Y287630D01*
X1606560Y287630D02*
X1606560Y298507D01*
X1627840Y298507D02*
X1627840Y287630D01*
X1890000Y119274D02*
X1922698Y86576D01*
X1922724Y86576D01*
X1932406Y76894D01*
X1932406Y66012D01*
X1557276Y296576D02*
X1553424Y292724D01*
X1557276Y296576D02*
X1562724Y296576D01*
X1566576Y292724D01*
X1553424Y285700D02*
X1534615Y285700D01*
X1566576Y285700D02*
X1604630Y285700D01*
X1553424Y285700D02*
X1553424Y292724D01*
X1566576Y292724D02*
X1566576Y285700D01*
X260786Y336500D02*
X250000Y336500D01*
X260786Y336500D02*
X271120Y346834D01*
X442866Y346834D02*
X453200Y336500D01*
X442866Y346834D02*
X271120Y346834D01*
X453200Y336500D02*
X462067Y336500D01*
X518615Y336500D02*
X656400Y336500D01*
X518615Y336500D02*
X508281Y346834D01*
X472401Y346834D02*
X462067Y336500D01*
X472401Y346834D02*
X508281Y346834D01*
X656400Y336500D02*
X667186Y336500D01*
X721815Y336500D02*
X859600Y336500D01*
X677520Y346834D02*
X667186Y336500D01*
X711481Y346834D02*
X721815Y336500D01*
X711481Y346834D02*
X677520Y346834D01*
X859600Y336500D02*
X870386Y336500D01*
X925015Y336500D02*
X1062800Y336500D01*
X880720Y346834D02*
X870386Y336500D01*
X914681Y346834D02*
X925015Y336500D01*
X914681Y346834D02*
X880720Y346834D01*
X1062800Y336500D02*
X1073586Y336500D01*
X1128215Y336500D02*
X1266000Y336500D01*
X1083920Y346834D02*
X1073586Y336500D01*
X1117881Y346834D02*
X1128215Y336500D01*
X1117881Y346834D02*
X1083920Y346834D01*
X1266000Y336500D02*
X1276786Y336500D01*
X1331415Y336500D02*
X1469200Y336500D01*
X1287120Y346834D02*
X1276786Y336500D01*
X1321081Y346834D02*
X1331415Y336500D01*
X1321081Y346834D02*
X1287120Y346834D01*
X1469200Y336500D02*
X1479986Y336500D01*
X1534615Y336500D02*
X1672400Y336500D01*
X1490320Y346834D02*
X1479986Y336500D01*
X1524281Y346834D02*
X1534615Y336500D01*
X1524281Y346834D02*
X1490320Y346834D01*
X1727481Y346834D02*
X1738187Y336128D01*
X1681267Y336500D02*
X1672400Y336500D01*
X1691601Y346834D02*
X1727481Y346834D01*
X1691601Y346834D02*
X1681267Y336500D01*
X1784572Y336128D02*
X1785276Y335424D01*
X1784572Y336128D02*
X1738187Y336128D01*
X1785276Y335424D02*
X1791124Y335424D01*
X1801636Y345936D02*
X1811683Y345936D01*
X1801636Y345936D02*
X1791124Y335424D01*
X1864064Y408364D02*
X1867300Y411600D01*
X1864064Y408364D02*
X1864064Y398317D01*
X1856576Y390829D01*
X1856576Y387276D01*
X1852724Y383424D01*
X1849171Y383424D01*
X1811683Y345936D01*
X1848400Y411600D02*
X1867300Y411600D01*
X1848400Y411600D02*
X1840000Y420000D01*
D24*
X1840000Y420000D03*
X2050000Y430000D03*
D25*
X2020000Y400000D01*
X2010000Y400000D01*
D24*
X2010000Y400000D03*
D25*
X260786Y387300D02*
X250000Y387300D01*
X260786Y387300D02*
X271788Y398302D01*
X442198Y398302D02*
X453200Y387300D01*
X442198Y398302D02*
X271788Y398302D01*
X453200Y387300D02*
X462067Y387300D01*
X518615Y387300D02*
X656400Y387300D01*
X518615Y387300D02*
X508281Y397634D01*
X472401Y397634D02*
X462067Y387300D01*
X472401Y397634D02*
X508281Y397634D01*
X656400Y387300D02*
X667186Y387300D01*
X721815Y387300D02*
X859600Y387300D01*
X677520Y397634D02*
X667186Y387300D01*
X711481Y397634D02*
X721815Y387300D01*
X711481Y397634D02*
X677520Y397634D01*
X859600Y387300D02*
X870386Y387300D01*
X925015Y387300D02*
X1062800Y387300D01*
X880720Y397634D02*
X870386Y387300D01*
X914681Y397634D02*
X925015Y387300D01*
X914681Y397634D02*
X880720Y397634D01*
X1062800Y387300D02*
X1073586Y387300D01*
X1128215Y387300D02*
X1266000Y387300D01*
X1083920Y397634D02*
X1073586Y387300D01*
X1117881Y397634D02*
X1128215Y387300D01*
X1117881Y397634D02*
X1083920Y397634D01*
X1266000Y387300D02*
X1276786Y387300D01*
X1331415Y387300D02*
X1469200Y387300D01*
X1287120Y397634D02*
X1276786Y387300D01*
X1321081Y397634D02*
X1331415Y387300D01*
X1321081Y397634D02*
X1287120Y397634D01*
X1469200Y387300D02*
X1479986Y387300D01*
X1534615Y387300D02*
X1672400Y387300D01*
X1490320Y397634D02*
X1479986Y387300D01*
X1524281Y397634D02*
X1534615Y387300D01*
X1524281Y397634D02*
X1490320Y397634D01*
X1787515Y462400D02*
X1867300Y462400D01*
X1787515Y462400D02*
X1727481Y402366D01*
X1694021Y402366D01*
X1678955Y387300D01*
X1672400Y387300D01*
D27*
X2172600Y299000D02*
X2197000Y299000D01*
D24*
X1905900Y475200D03*
D25*
X1878324Y473424D02*
X1867300Y462400D01*
X1878324Y473424D02*
X1882724Y473424D01*
X1884500Y475200D01*
X1905900Y475200D01*
X286186Y234900D02*
X275400Y234900D01*
X467815Y234900D02*
X478600Y234900D01*
X296520Y224566D02*
X286186Y234900D01*
X457481Y224566D02*
X467815Y234900D01*
X457481Y224566D02*
X296520Y224566D01*
X672933Y234900D02*
X681800Y234900D01*
X489386Y234900D02*
X478600Y234900D01*
X489386Y234900D02*
X499720Y224566D01*
X662599Y224566D01*
X672933Y234900D01*
X876133Y234900D02*
X885000Y234900D01*
X692586Y234900D02*
X681800Y234900D01*
X692586Y234900D02*
X702920Y224566D01*
X865799Y224566D01*
X876133Y234900D01*
X1079333Y234900D02*
X1088200Y234900D01*
X895786Y234900D02*
X885000Y234900D01*
X895786Y234900D02*
X906120Y224566D01*
X1068999Y224566D01*
X1079333Y234900D01*
X1282533Y234900D02*
X1291400Y234900D01*
X1098986Y234900D02*
X1088200Y234900D01*
X1098986Y234900D02*
X1109320Y224566D01*
X1272199Y224566D01*
X1282533Y234900D01*
X1485733Y234900D02*
X1494600Y234900D01*
X1302186Y234900D02*
X1291400Y234900D01*
X1302186Y234900D02*
X1312520Y224566D01*
X1475399Y224566D01*
X1485733Y234900D01*
X1494600Y234900D02*
X1505386Y234900D01*
X1687015Y234900D02*
X1697800Y234900D01*
X1515720Y224566D02*
X1505386Y234900D01*
X1676681Y224566D02*
X1687015Y234900D01*
D24*
X1788000Y342000D03*
D25*
X1796000Y350000D01*
X1810000Y350000D01*
X1850000Y390000D01*
D24*
X1850000Y390000D03*
D25*
X1586091Y234704D02*
X1573909Y234704D01*
X1563771Y224566D02*
X1515720Y224566D01*
X1596229Y224566D02*
X1676681Y224566D01*
X1573909Y234704D02*
X1563771Y224566D01*
X1586091Y234704D02*
X1596229Y224566D01*
X286186Y285700D02*
X275400Y285700D01*
X467815Y285700D02*
X478600Y285700D01*
X296520Y275366D02*
X286186Y285700D01*
X457481Y275366D02*
X467815Y285700D01*
X457481Y275366D02*
X296520Y275366D01*
X672933Y285700D02*
X681800Y285700D01*
X489386Y285700D02*
X478600Y285700D01*
X489386Y285700D02*
X499720Y275366D01*
X662599Y275366D01*
X672933Y285700D01*
X876133Y285700D02*
X885000Y285700D01*
X692586Y285700D02*
X681800Y285700D01*
X692586Y285700D02*
X702920Y275366D01*
X865799Y275366D01*
X876133Y285700D01*
X1079333Y285700D02*
X1088200Y285700D01*
X895786Y285700D02*
X885000Y285700D01*
X895786Y285700D02*
X906120Y275366D01*
X1068999Y275366D01*
X1079333Y285700D01*
X1282533Y285700D02*
X1291400Y285700D01*
X1098986Y285700D02*
X1088200Y285700D01*
X1098986Y285700D02*
X1109320Y275366D01*
X1272199Y275366D01*
X1282533Y285700D01*
X1485733Y285700D02*
X1494600Y285700D01*
X1302186Y285700D02*
X1291400Y285700D01*
X1302186Y285700D02*
X1312520Y275366D01*
X1475399Y275366D01*
X1485733Y285700D01*
X1494600Y285700D02*
X1505386Y285700D01*
X1687015Y285700D02*
X1697800Y285700D01*
X1515720Y275366D02*
X1505386Y285700D01*
X1676681Y275366D02*
X1687015Y285700D01*
X1820960Y183000D02*
X1867300Y183000D01*
X1820960Y183000D02*
X1744064Y259896D01*
X1721285Y247600D02*
X1710500Y258385D01*
X1710500Y273000D01*
X1697800Y285700D01*
X1744064Y264764D02*
X1744064Y259896D01*
X1744064Y264764D02*
X1746576Y267276D01*
X1746576Y272724D01*
X1742724Y276576D01*
X1737276Y276576D01*
X1733424Y272724D01*
X1733424Y267276D01*
X1735936Y264764D01*
X1735936Y251683D01*
X1731853Y247600D01*
X1721285Y247600D01*
X1613136Y275366D02*
X1613136Y288864D01*
X1610624Y291376D01*
X1610624Y296824D01*
X1614476Y300676D01*
X1619924Y300676D01*
X1623776Y296824D01*
X1623776Y291376D01*
X1621264Y288864D01*
X1621264Y275366D01*
X1676681Y275366D01*
X1573934Y275366D02*
X1572724Y276576D01*
X1573934Y275366D02*
X1613136Y275366D01*
X1558887Y275366D02*
X1515720Y275366D01*
X1558887Y275366D02*
X1563424Y270829D01*
X1563424Y267276D01*
X1567276Y263424D01*
X1572724Y263424D01*
X1576576Y267276D01*
X1576576Y272724D01*
X1573934Y275366D01*
D24*
X1910000Y190000D03*
D25*
X1930000Y210000D01*
X1960000Y210000D01*
X1990000Y240000D01*
X1990000Y302800D02*
X1943000Y349800D01*
X1990000Y302800D02*
X1990000Y240000D01*
X286186Y336500D02*
X275400Y336500D01*
X467815Y336500D02*
X478600Y336500D01*
X296520Y326166D02*
X286186Y336500D01*
X457481Y326166D02*
X467815Y336500D01*
X457481Y326166D02*
X296520Y326166D01*
X672933Y336500D02*
X681800Y336500D01*
X489386Y336500D02*
X478600Y336500D01*
X489386Y336500D02*
X499720Y326166D01*
X662599Y326166D01*
X672933Y336500D01*
X876133Y336500D02*
X885000Y336500D01*
X692586Y336500D02*
X681800Y336500D01*
X692586Y336500D02*
X702920Y326166D01*
X865799Y326166D01*
X876133Y336500D01*
X1079333Y336500D02*
X1088200Y336500D01*
X895786Y336500D02*
X885000Y336500D01*
X895786Y336500D02*
X906120Y326166D01*
X1068999Y326166D01*
X1079333Y336500D01*
X1282533Y336500D02*
X1291400Y336500D01*
X1098986Y336500D02*
X1088200Y336500D01*
X1098986Y336500D02*
X1109320Y326166D01*
X1272199Y326166D01*
X1282533Y336500D01*
X1485733Y336500D02*
X1494600Y336500D01*
X1302186Y336500D02*
X1291400Y336500D01*
X1302186Y336500D02*
X1312520Y326166D01*
X1475399Y326166D01*
X1485733Y336500D01*
X1494600Y336500D02*
X1505386Y336500D01*
X1687015Y336500D02*
X1697800Y336500D01*
X1515720Y326166D02*
X1505386Y336500D01*
X1676681Y326166D02*
X1687015Y336500D01*
X1676681Y326166D02*
X1515720Y326166D01*
X1750000Y310000D02*
X1760000Y310000D01*
D24*
X1750000Y310000D03*
D25*
X1853100Y233800D02*
X1867300Y233800D01*
X1853100Y233800D02*
X1852724Y233424D01*
X1836576Y233424D01*
X1834064Y235936D01*
X1828317Y235936D01*
X1820829Y243424D01*
X1817276Y243424D01*
X1813424Y247276D01*
X1813424Y256576D02*
X1760000Y310000D01*
X1813424Y256576D02*
X1813424Y247276D01*
D24*
X1920000Y240000D03*
D25*
X1920000Y276000D01*
X1943000Y299000D01*
X286186Y387300D02*
X275400Y387300D01*
X467815Y387300D02*
X478600Y387300D01*
X296520Y376966D02*
X286186Y387300D01*
X457481Y376966D02*
X467815Y387300D01*
X457481Y376966D02*
X296520Y376966D01*
X672933Y387300D02*
X681800Y387300D01*
X489386Y387300D02*
X478600Y387300D01*
X489386Y387300D02*
X499720Y376966D01*
X662599Y376966D01*
X672933Y387300D01*
X876133Y387300D02*
X885000Y387300D01*
X692586Y387300D02*
X681800Y387300D01*
X692586Y387300D02*
X702920Y376966D01*
X865799Y376966D01*
X876133Y387300D01*
X1079333Y387300D02*
X1088200Y387300D01*
X895786Y387300D02*
X885000Y387300D01*
X895786Y387300D02*
X906120Y376966D01*
X1068999Y376966D01*
X1079333Y387300D01*
X1282533Y387300D02*
X1291400Y387300D01*
X1098986Y387300D02*
X1088200Y387300D01*
X1098986Y387300D02*
X1109320Y376966D01*
X1272199Y376966D01*
X1282533Y387300D01*
X1485733Y387300D02*
X1494600Y387300D01*
X1302186Y387300D02*
X1291400Y387300D01*
X1302186Y387300D02*
X1312520Y376966D01*
X1475399Y376966D01*
X1485733Y387300D01*
X1494600Y387300D02*
X1505386Y387300D01*
X1687015Y387300D02*
X1697800Y387300D01*
X1515720Y376966D02*
X1505386Y387300D01*
X1676681Y376966D02*
X1687015Y387300D01*
X1676681Y376966D02*
X1515720Y376966D01*
X1867300Y284600D02*
X1881778Y299078D01*
X1881778Y430142D02*
X1881778Y437250D01*
X1871614Y447414D01*
X1778276Y447414D01*
X1728496Y397634D01*
X1708134Y397634D01*
X1697800Y387300D01*
X1935818Y510000D02*
X1938612Y512794D01*
X1935818Y510000D02*
X1910000Y510000D01*
X1888386Y498214D02*
X1882286Y492114D01*
X1882286Y482286D02*
X1880000Y480000D01*
X1882286Y482286D02*
X1882286Y492114D01*
X1938612Y512794D02*
X1957206Y512794D01*
D24*
X1880000Y480000D03*
X1879999Y431921D03*
D25*
X1881778Y430142D01*
X1957206Y512794D02*
X1993200Y476800D01*
X1886676Y325224D02*
X1886676Y319776D01*
X1881778Y314878D02*
X1881778Y299078D01*
X1881778Y330122D02*
X1881778Y430142D01*
X1886676Y319776D02*
X1881778Y314878D01*
X1886676Y325224D02*
X1881778Y330122D01*
X1893424Y502724D02*
X1897276Y506576D01*
X1893424Y502724D02*
X1893424Y498214D01*
X1888386Y498214D01*
X1906576Y506576D02*
X1910000Y510000D01*
X1906576Y506576D02*
X1897276Y506576D01*
D26*
X2172600Y476800D02*
X2197000Y476800D01*
D25*
X2172600Y476800D02*
X1993200Y476800D01*
D27*
X2172600Y349800D02*
X2197000Y349800D01*
D25*
X2172600Y349800D02*
X2055947Y349800D01*
X1971683Y434064D02*
X1965936Y434064D01*
X1959342Y440658D02*
X1930658Y440658D01*
X1959342Y440658D02*
X1965936Y434064D01*
X1930658Y440658D02*
X1911242Y421242D01*
X1911242Y358058D01*
X1916576Y352724D02*
X1916576Y347276D01*
X1916576Y352724D02*
X1911242Y358058D01*
X1916576Y347276D02*
X1910000Y340700D01*
X1910000Y328847D01*
X1905936Y247036D02*
X1892700Y233800D01*
X1905936Y251961D02*
X1907178Y253203D01*
X1905936Y251961D02*
X1905936Y247036D01*
X1907178Y326025D02*
X1910000Y328847D01*
X1916907Y309940D02*
X1923140Y303707D01*
X1923140Y294893D01*
X1916907Y288660D01*
X1907178Y309940D02*
X1907178Y326025D01*
X1907178Y288660D02*
X1907178Y253203D01*
X1907178Y309940D02*
X1916907Y309940D01*
X1916907Y288660D02*
X1907178Y288660D01*
X2012323Y393424D02*
X2055947Y349800D01*
X2012323Y393424D02*
X2007276Y393424D01*
X2003424Y397276D01*
X2003424Y402323D01*
X1971683Y434064D01*
D24*
X1810000Y370000D03*
D25*
X1801900Y361900D01*
X1723200Y361900D01*
X1960000Y520000D02*
X1977800Y502200D01*
X1960000Y520000D02*
X1954951Y520000D01*
X1951957Y517006D01*
X1927006Y517006D01*
D24*
X1830000Y500000D03*
X1800000Y390000D03*
D25*
X1810000Y380000D01*
X1810000Y370000D01*
X1924064Y514064D02*
X1927006Y517006D01*
X1924064Y514064D02*
X1908317Y514064D01*
X1886703Y502278D02*
X1884425Y500000D01*
X1830000Y500000D01*
X1904893Y510640D02*
X1908317Y514064D01*
X1887231Y502278D02*
X1886703Y502278D01*
X1895593Y510640D02*
X1904893Y510640D01*
X1895593Y510640D02*
X1887231Y502278D01*
D26*
X2172600Y502200D02*
X2197000Y502200D01*
D25*
X2172600Y502200D02*
X1977800Y502200D01*
X1877714Y142614D02*
X1867300Y132200D01*
X1877714Y142614D02*
X1877714Y212714D01*
X1869328Y221100D01*
X1768553Y295700D02*
X1733200Y295700D01*
X1723200Y285700D01*
X1843153Y221100D02*
X1869328Y221100D01*
X1843153Y221100D02*
X1832381Y231872D01*
X1826633Y231872D01*
X1819145Y239360D01*
X1815593Y239360D01*
X1809360Y245593D01*
X1809360Y254893D02*
X1768553Y295700D01*
X1809360Y254893D02*
X1809360Y245593D01*
D24*
X1810000Y453990D03*
D25*
X1860982Y453990D02*
X1862986Y451986D01*
X1860982Y453990D02*
X1810000Y453990D01*
X1882286Y451986D02*
X1892700Y462400D01*
X1882286Y451986D02*
X1862986Y451986D01*
D24*
X1810000Y390000D03*
X1770000Y350000D03*
D25*
X1816576Y367276D02*
X1816576Y372724D01*
X1777836Y357836D02*
X1770000Y350000D01*
X1807136Y357836D02*
X1816576Y367276D01*
X1807136Y357836D02*
X1777836Y357836D01*
D24*
X1740000Y270000D03*
D25*
X1740000Y250000D01*
X1724900Y234900D01*
X1723200Y234900D01*
X1810000Y385747D02*
X1810000Y390000D01*
X1810000Y385747D02*
X1814064Y381683D01*
X1814064Y375236D01*
X1816576Y372724D01*
D23*
X155400Y327430D02*
X143970Y316000D01*
X155400Y327430D02*
X155400Y349576D01*
X155400Y121430D02*
X143970Y110000D01*
X155400Y121430D02*
X155400Y149576D01*
D27*
X2172600Y451400D02*
X2197000Y451400D01*
X2197000Y426000D02*
X2172600Y426000D01*
X2172600Y197400D02*
X2197000Y197400D01*
X2197000Y172000D02*
X2172600Y172000D01*
X2172600Y121200D02*
X2197000Y121200D01*
X2197000Y95800D02*
X2172600Y95800D01*
X2172600Y70400D02*
X2197000Y70400D01*
M02*
