G04 EAGLE Gerber RS-274X export*
G75*
%MOMM*%
%FSLAX34Y34*%
%LPD*%
%INBottom Copper*%
%IPPOS*%
%AMOC8*
5,1,8,0,0,1.08239X$1,22.5*%
G01*
%ADD10R,1.508000X1.508000*%
%ADD11C,1.508000*%
%ADD12C,5.000000*%
%ADD13P,1.649562X8X112.500000*%
%ADD14R,1.560000X1.560000*%
%ADD15C,1.560000*%
%ADD16C,1.524000*%
%ADD17C,0.254000*%
%ADD18C,0.756400*%
%ADD19C,1.270000*%
%ADD20C,2.540000*%
%ADD21C,0.609600*%


D10*
X250000Y590500D03*
D11*
X250000Y565100D03*
X250000Y539700D03*
X250000Y514300D03*
X250000Y488900D03*
X250000Y463500D03*
X250000Y438100D03*
X250000Y412700D03*
X250000Y387300D03*
X250000Y361900D03*
X250000Y336500D03*
X250000Y311100D03*
X250000Y285700D03*
X250000Y260300D03*
X250000Y234900D03*
X250000Y209500D03*
X275400Y590500D03*
X275400Y565100D03*
X275400Y539700D03*
X275400Y514300D03*
X275400Y488900D03*
X275400Y463500D03*
X275400Y438100D03*
X275400Y412700D03*
X275400Y387300D03*
X275400Y361900D03*
X275400Y336500D03*
X275400Y311100D03*
X275400Y285700D03*
X275400Y260300D03*
X275400Y234900D03*
X275400Y209500D03*
X300800Y590500D03*
X300800Y565100D03*
X300800Y539700D03*
X300800Y514300D03*
X300800Y488900D03*
X300800Y463500D03*
X300800Y438100D03*
X300800Y412700D03*
X300800Y387300D03*
X300800Y361900D03*
X300800Y336500D03*
X300800Y311100D03*
X300800Y285700D03*
X300800Y260300D03*
X300800Y234900D03*
X300800Y209500D03*
D10*
X453200Y590500D03*
D11*
X453200Y565100D03*
X453200Y539700D03*
X453200Y514300D03*
X453200Y488900D03*
X453200Y463500D03*
X453200Y438100D03*
X453200Y412700D03*
X453200Y387300D03*
X453200Y361900D03*
X453200Y336500D03*
X453200Y311100D03*
X453200Y285700D03*
X453200Y260300D03*
X453200Y234900D03*
X453200Y209500D03*
X478600Y590500D03*
X478600Y565100D03*
X478600Y539700D03*
X478600Y514300D03*
X478600Y488900D03*
X478600Y463500D03*
X478600Y438100D03*
X478600Y412700D03*
X478600Y387300D03*
X478600Y361900D03*
X478600Y336500D03*
X478600Y311100D03*
X478600Y285700D03*
X478600Y260300D03*
X478600Y234900D03*
X478600Y209500D03*
X504000Y590500D03*
X504000Y565100D03*
X504000Y539700D03*
X504000Y514300D03*
X504000Y488900D03*
X504000Y463500D03*
X504000Y438100D03*
X504000Y412700D03*
X504000Y387300D03*
X504000Y361900D03*
X504000Y336500D03*
X504000Y311100D03*
X504000Y285700D03*
X504000Y260300D03*
X504000Y234900D03*
X504000Y209500D03*
D10*
X656400Y590500D03*
D11*
X656400Y565100D03*
X656400Y539700D03*
X656400Y514300D03*
X656400Y488900D03*
X656400Y463500D03*
X656400Y438100D03*
X656400Y412700D03*
X656400Y387300D03*
X656400Y361900D03*
X656400Y336500D03*
X656400Y311100D03*
X656400Y285700D03*
X656400Y260300D03*
X656400Y234900D03*
X656400Y209500D03*
X681800Y590500D03*
X681800Y565100D03*
X681800Y539700D03*
X681800Y514300D03*
X681800Y488900D03*
X681800Y463500D03*
X681800Y438100D03*
X681800Y412700D03*
X681800Y387300D03*
X681800Y361900D03*
X681800Y336500D03*
X681800Y311100D03*
X681800Y285700D03*
X681800Y260300D03*
X681800Y234900D03*
X681800Y209500D03*
X707200Y590500D03*
X707200Y565100D03*
X707200Y539700D03*
X707200Y514300D03*
X707200Y488900D03*
X707200Y463500D03*
X707200Y438100D03*
X707200Y412700D03*
X707200Y387300D03*
X707200Y361900D03*
X707200Y336500D03*
X707200Y311100D03*
X707200Y285700D03*
X707200Y260300D03*
X707200Y234900D03*
X707200Y209500D03*
D10*
X859600Y590500D03*
D11*
X859600Y565100D03*
X859600Y539700D03*
X859600Y514300D03*
X859600Y488900D03*
X859600Y463500D03*
X859600Y438100D03*
X859600Y412700D03*
X859600Y387300D03*
X859600Y361900D03*
X859600Y336500D03*
X859600Y311100D03*
X859600Y285700D03*
X859600Y260300D03*
X859600Y234900D03*
X859600Y209500D03*
X885000Y590500D03*
X885000Y565100D03*
X885000Y539700D03*
X885000Y514300D03*
X885000Y488900D03*
X885000Y463500D03*
X885000Y438100D03*
X885000Y412700D03*
X885000Y387300D03*
X885000Y361900D03*
X885000Y336500D03*
X885000Y311100D03*
X885000Y285700D03*
X885000Y260300D03*
X885000Y234900D03*
X885000Y209500D03*
X910400Y590500D03*
X910400Y565100D03*
X910400Y539700D03*
X910400Y514300D03*
X910400Y488900D03*
X910400Y463500D03*
X910400Y438100D03*
X910400Y412700D03*
X910400Y387300D03*
X910400Y361900D03*
X910400Y336500D03*
X910400Y311100D03*
X910400Y285700D03*
X910400Y260300D03*
X910400Y234900D03*
X910400Y209500D03*
D10*
X1062800Y590500D03*
D11*
X1062800Y565100D03*
X1062800Y539700D03*
X1062800Y514300D03*
X1062800Y488900D03*
X1062800Y463500D03*
X1062800Y438100D03*
X1062800Y412700D03*
X1062800Y387300D03*
X1062800Y361900D03*
X1062800Y336500D03*
X1062800Y311100D03*
X1062800Y285700D03*
X1062800Y260300D03*
X1062800Y234900D03*
X1062800Y209500D03*
X1088200Y590500D03*
X1088200Y565100D03*
X1088200Y539700D03*
X1088200Y514300D03*
X1088200Y488900D03*
X1088200Y463500D03*
X1088200Y438100D03*
X1088200Y412700D03*
X1088200Y387300D03*
X1088200Y361900D03*
X1088200Y336500D03*
X1088200Y311100D03*
X1088200Y285700D03*
X1088200Y260300D03*
X1088200Y234900D03*
X1088200Y209500D03*
X1113600Y590500D03*
X1113600Y565100D03*
X1113600Y539700D03*
X1113600Y514300D03*
X1113600Y488900D03*
X1113600Y463500D03*
X1113600Y438100D03*
X1113600Y412700D03*
X1113600Y387300D03*
X1113600Y361900D03*
X1113600Y336500D03*
X1113600Y311100D03*
X1113600Y285700D03*
X1113600Y260300D03*
X1113600Y234900D03*
X1113600Y209500D03*
D10*
X1266000Y590500D03*
D11*
X1266000Y565100D03*
X1266000Y539700D03*
X1266000Y514300D03*
X1266000Y488900D03*
X1266000Y463500D03*
X1266000Y438100D03*
X1266000Y412700D03*
X1266000Y387300D03*
X1266000Y361900D03*
X1266000Y336500D03*
X1266000Y311100D03*
X1266000Y285700D03*
X1266000Y260300D03*
X1266000Y234900D03*
X1266000Y209500D03*
X1291400Y590500D03*
X1291400Y565100D03*
X1291400Y539700D03*
X1291400Y514300D03*
X1291400Y488900D03*
X1291400Y463500D03*
X1291400Y438100D03*
X1291400Y412700D03*
X1291400Y387300D03*
X1291400Y361900D03*
X1291400Y336500D03*
X1291400Y311100D03*
X1291400Y285700D03*
X1291400Y260300D03*
X1291400Y234900D03*
X1291400Y209500D03*
X1316800Y590500D03*
X1316800Y565100D03*
X1316800Y539700D03*
X1316800Y514300D03*
X1316800Y488900D03*
X1316800Y463500D03*
X1316800Y438100D03*
X1316800Y412700D03*
X1316800Y387300D03*
X1316800Y361900D03*
X1316800Y336500D03*
X1316800Y311100D03*
X1316800Y285700D03*
X1316800Y260300D03*
X1316800Y234900D03*
X1316800Y209500D03*
D10*
X1469200Y590500D03*
D11*
X1469200Y565100D03*
X1469200Y539700D03*
X1469200Y514300D03*
X1469200Y488900D03*
X1469200Y463500D03*
X1469200Y438100D03*
X1469200Y412700D03*
X1469200Y387300D03*
X1469200Y361900D03*
X1469200Y336500D03*
X1469200Y311100D03*
X1469200Y285700D03*
X1469200Y260300D03*
X1469200Y234900D03*
X1469200Y209500D03*
X1494600Y590500D03*
X1494600Y565100D03*
X1494600Y539700D03*
X1494600Y514300D03*
X1494600Y488900D03*
X1494600Y463500D03*
X1494600Y438100D03*
X1494600Y412700D03*
X1494600Y387300D03*
X1494600Y361900D03*
X1494600Y336500D03*
X1494600Y311100D03*
X1494600Y285700D03*
X1494600Y260300D03*
X1494600Y234900D03*
X1494600Y209500D03*
X1520000Y590500D03*
X1520000Y565100D03*
X1520000Y539700D03*
X1520000Y514300D03*
X1520000Y488900D03*
X1520000Y463500D03*
X1520000Y438100D03*
X1520000Y412700D03*
X1520000Y387300D03*
X1520000Y361900D03*
X1520000Y336500D03*
X1520000Y311100D03*
X1520000Y285700D03*
X1520000Y260300D03*
X1520000Y234900D03*
X1520000Y209500D03*
D10*
X1672400Y590500D03*
D11*
X1672400Y565100D03*
X1672400Y539700D03*
X1672400Y514300D03*
X1672400Y488900D03*
X1672400Y463500D03*
X1672400Y438100D03*
X1672400Y412700D03*
X1672400Y387300D03*
X1672400Y361900D03*
X1672400Y336500D03*
X1672400Y311100D03*
X1672400Y285700D03*
X1672400Y260300D03*
X1672400Y234900D03*
X1672400Y209500D03*
X1697800Y590500D03*
X1697800Y565100D03*
X1697800Y539700D03*
X1697800Y514300D03*
X1697800Y488900D03*
X1697800Y463500D03*
X1697800Y438100D03*
X1697800Y412700D03*
X1697800Y387300D03*
X1697800Y361900D03*
X1697800Y336500D03*
X1697800Y311100D03*
X1697800Y285700D03*
X1697800Y260300D03*
X1697800Y234900D03*
X1697800Y209500D03*
X1723200Y590500D03*
X1723200Y565100D03*
X1723200Y539700D03*
X1723200Y514300D03*
X1723200Y488900D03*
X1723200Y463500D03*
X1723200Y438100D03*
X1723200Y412700D03*
X1723200Y387300D03*
X1723200Y361900D03*
X1723200Y336500D03*
X1723200Y311100D03*
X1723200Y285700D03*
X1723200Y260300D03*
X1723200Y234900D03*
X1723200Y209500D03*
D12*
X80000Y670000D03*
X80000Y570000D03*
D13*
X1892700Y132200D03*
X1867300Y132200D03*
X1892700Y157600D03*
X1867300Y157600D03*
X1892700Y183000D03*
X1867300Y183000D03*
X1892700Y208400D03*
X1867300Y208400D03*
X1892700Y233800D03*
X1867300Y233800D03*
X1892700Y259200D03*
X1867300Y259200D03*
X1892700Y284600D03*
X1867300Y284600D03*
X1892700Y310000D03*
X1867300Y310000D03*
X1892700Y335400D03*
X1867300Y335400D03*
X1892700Y360800D03*
X1867300Y360800D03*
X1892700Y386200D03*
X1867300Y386200D03*
X1892700Y411600D03*
X1867300Y411600D03*
X1892700Y437000D03*
X1867300Y437000D03*
X1892700Y462400D03*
X1867300Y462400D03*
X1892700Y487800D03*
X1867300Y487800D03*
D14*
X1943000Y527600D03*
D15*
X1943000Y502200D03*
X1943000Y70400D03*
X1943000Y476800D03*
X1943000Y451400D03*
X1943000Y426000D03*
X1943000Y400600D03*
X1943000Y375200D03*
X1943000Y349800D03*
X1943000Y324400D03*
X1943000Y299000D03*
X1943000Y273600D03*
X1943000Y248200D03*
X1943000Y222800D03*
X1943000Y197400D03*
X1943000Y172000D03*
X1943000Y146600D03*
X1943000Y121200D03*
X1943000Y95800D03*
X2197000Y527600D03*
X2197000Y502200D03*
X2197000Y476800D03*
X2197000Y451400D03*
X2197000Y426000D03*
X2197000Y400600D03*
X2197000Y375200D03*
X2197000Y349800D03*
X2197000Y324400D03*
X2197000Y299000D03*
X2197000Y273600D03*
X2197000Y248200D03*
X2197000Y222800D03*
X2197000Y197400D03*
X2197000Y172000D03*
X2197000Y146600D03*
X2197000Y121200D03*
X2197000Y95800D03*
X2197000Y70400D03*
D16*
X2180220Y70400D02*
X2164980Y70400D01*
X2164980Y95800D02*
X2180220Y95800D01*
X2180220Y121200D02*
X2164980Y121200D01*
X2164980Y146600D02*
X2180220Y146600D01*
X2180220Y172000D02*
X2164980Y172000D01*
X2164980Y197400D02*
X2180220Y197400D01*
X2180220Y222800D02*
X2164980Y222800D01*
X2164980Y248200D02*
X2180220Y248200D01*
X2180220Y273600D02*
X2164980Y273600D01*
X2164980Y299000D02*
X2180220Y299000D01*
X2180220Y324400D02*
X2164980Y324400D01*
X2164980Y349800D02*
X2180220Y349800D01*
X2180220Y375200D02*
X2164980Y375200D01*
X2164980Y400600D02*
X2180220Y400600D01*
X2180220Y426000D02*
X2164980Y426000D01*
X2164980Y451400D02*
X2180220Y451400D01*
X2180220Y476800D02*
X2164980Y476800D01*
X2164980Y502200D02*
X2180220Y502200D01*
X2180220Y527600D02*
X2164980Y527600D01*
D17*
X1908570Y148070D02*
X1892700Y132200D01*
X1908570Y531430D02*
X1900000Y540000D01*
D18*
X1900000Y540000D03*
D17*
X1908570Y162970D02*
X1908570Y148070D01*
X1908570Y325048D02*
X1911242Y327720D01*
X1920640Y345593D02*
X1920640Y354407D01*
X1911242Y336195D02*
X1911242Y327720D01*
X1911242Y336195D02*
X1920640Y345593D01*
X1908570Y490000D02*
X1908570Y531430D01*
X1908570Y371152D02*
X1911242Y368480D01*
X1908570Y371152D02*
X1908570Y375848D01*
X1911242Y378520D01*
X1911242Y393880D01*
X1908570Y396552D01*
X1911242Y368480D02*
X1911242Y363805D01*
X1920640Y354407D01*
X1916576Y447276D02*
X1916576Y452724D01*
X1912724Y456576D01*
X1908570Y456576D01*
X1908570Y466783D01*
X1908570Y439270D02*
X1908570Y396552D01*
X1908570Y439270D02*
X1916576Y447276D01*
X1903176Y468624D02*
X1899324Y472476D01*
X1899324Y477924D01*
X1906729Y468624D02*
X1908570Y466783D01*
X1906729Y468624D02*
X1903176Y468624D01*
X1899324Y477924D02*
X1900000Y478600D01*
X1900000Y480372D02*
X1903114Y483486D01*
X1903114Y484544D01*
X1908570Y490000D01*
X1900000Y480372D02*
X1900000Y478600D01*
X1943000Y197400D02*
X1908570Y162970D01*
X1908570Y179270D01*
X1908570Y293930D02*
X1905924Y296576D01*
X1905924Y302024D01*
X1908570Y304670D01*
X1908570Y325048D01*
X1917276Y246576D02*
X1922724Y246576D01*
X1917276Y246576D02*
X1914764Y244064D01*
X1908570Y244064D01*
X1908570Y293930D01*
X1922724Y246576D02*
X1926576Y242724D01*
X1923424Y194124D02*
X1908570Y179270D01*
X1926576Y225876D02*
X1926576Y242724D01*
X1926576Y225876D02*
X1923424Y222724D01*
X1923424Y194124D01*
X1733534Y416466D02*
X1733534Y427766D01*
X1723200Y438100D01*
X1877714Y172586D02*
X1892700Y157600D01*
X1750000Y380000D02*
X1740000Y380000D01*
D18*
X1740000Y380000D03*
X1750000Y400000D03*
D17*
X1733534Y416466D01*
X1810640Y325107D02*
X1810640Y319360D01*
X1794576Y341171D02*
X1794576Y344724D01*
X1790724Y348576D01*
X1781424Y348576D02*
X1750000Y380000D01*
X1781424Y348576D02*
X1790724Y348576D01*
X1794576Y341171D02*
X1810640Y325107D01*
X1831140Y276093D02*
X1830000Y274953D01*
X1831140Y276093D02*
X1831140Y298860D01*
X1810640Y319360D01*
X1830000Y274953D02*
X1830000Y205747D01*
X1856886Y178686D02*
X1862986Y172586D01*
X1856886Y178686D02*
X1856886Y178861D01*
X1830000Y205747D01*
X1862986Y172586D02*
X1877714Y172586D01*
D18*
X1970000Y460000D03*
X1900000Y500000D03*
D17*
X1879500Y500000D01*
X1867300Y487800D01*
X1970000Y460000D02*
X1970000Y455400D01*
X2135400Y290000D01*
X2135400Y260000D02*
X2172600Y222800D01*
X2135400Y260000D02*
X2135400Y290000D01*
X1672400Y361900D02*
X1660500Y350000D01*
X1617200Y337200D02*
X1617200Y294100D01*
D18*
X1617200Y294100D03*
X1620000Y250000D03*
D17*
X1620000Y190000D01*
D18*
X1620000Y190000D03*
X1920000Y80000D03*
D17*
X1920000Y149000D01*
X1943000Y172000D01*
X1660500Y350000D02*
X1630000Y350000D01*
X1617200Y337200D01*
X2056600Y146600D02*
X2172600Y146600D01*
D18*
X1920000Y70000D03*
D17*
X1930194Y59806D02*
X1969806Y59806D01*
X1930194Y59806D02*
X1920000Y70000D01*
D18*
X1580000Y220000D03*
D17*
X1570000Y230000D01*
X1570000Y270000D01*
D18*
X1570000Y270000D03*
X1560000Y290000D03*
D17*
X1479986Y311100D02*
X1469200Y311100D01*
X1479986Y311100D02*
X1490320Y300766D01*
X1549234Y300766D02*
X1560000Y290000D01*
X1549234Y300766D02*
X1490320Y300766D01*
X1969806Y59806D02*
X2056600Y146600D01*
X1683186Y260300D02*
X1672400Y260300D01*
X1683186Y260300D02*
X1693520Y249966D01*
D18*
X1800000Y310000D03*
D17*
X1746091Y255296D02*
X1740761Y249966D01*
X1693520Y249966D01*
X1800000Y308343D02*
X1800000Y310000D01*
X1752463Y255296D02*
X1746091Y255296D01*
X1752463Y255296D02*
X1795936Y298769D01*
X1795936Y304279D01*
X1800000Y308343D01*
X1986200Y460000D02*
X2172600Y273600D01*
X1949382Y460000D02*
X1947388Y461994D01*
X1938612Y461994D01*
X1936618Y460000D01*
X1920000Y460000D01*
X1881900Y350000D02*
X1867300Y335400D01*
X1903114Y356486D02*
X1903114Y365114D01*
X1903114Y381886D02*
X1903114Y390514D01*
X1900442Y367786D02*
X1903114Y365114D01*
X1900442Y367786D02*
X1900442Y379214D01*
X1903114Y381886D01*
X1903114Y356486D02*
X1896628Y350000D01*
X1892442Y401186D02*
X1888386Y401186D01*
X1882286Y407286D01*
X1882286Y407714D01*
X1880000Y410000D01*
X1881900Y350000D02*
X1896628Y350000D01*
X1903114Y390514D02*
X1892442Y401186D01*
X1897014Y426586D02*
X1903114Y432686D01*
X1897014Y426586D02*
X1889711Y426586D01*
X1880000Y416875D02*
X1880000Y410000D01*
X1880000Y416875D02*
X1889711Y426586D01*
X1903114Y443114D02*
X1910000Y450000D01*
D18*
X1910000Y450000D03*
X1920000Y460000D03*
D17*
X1903114Y443114D02*
X1903114Y432686D01*
X1967276Y466576D02*
X1972724Y466576D01*
X1979300Y460000D02*
X1986200Y460000D01*
X1960700Y460000D02*
X1949382Y460000D01*
X1972724Y466576D02*
X1979300Y460000D01*
X1967276Y466576D02*
X1960700Y460000D01*
X1702081Y219834D02*
X1693520Y219834D01*
X1702081Y219834D02*
X1708134Y213781D01*
X1708134Y209500D01*
X1712866Y209500D01*
X1712866Y205220D01*
X1718920Y199166D01*
X1727481Y199166D01*
X1683186Y209500D02*
X1672400Y209500D01*
X1683186Y209500D02*
X1693520Y219834D01*
X1727481Y199166D02*
X1728315Y200000D01*
X1730000Y200000D01*
D18*
X1820000Y300000D03*
X1857210Y327210D03*
D17*
X1890800Y360800D02*
X1892700Y360800D01*
X1856886Y339714D02*
X1856886Y331086D01*
X1856886Y339714D02*
X1862986Y345814D01*
X1857210Y330762D02*
X1857210Y327210D01*
X1857210Y330762D02*
X1856886Y331086D01*
X1745936Y215936D02*
X1730000Y200000D01*
X1745936Y215936D02*
X1756683Y215936D01*
X1823224Y273924D02*
X1827076Y277776D01*
X1827076Y283224D01*
X1814671Y273924D02*
X1756683Y215936D01*
X1820000Y290300D02*
X1820000Y300000D01*
X1823224Y273924D02*
X1814671Y273924D01*
X1827076Y283224D02*
X1820000Y290300D01*
X1862986Y345814D02*
X1871967Y345814D01*
X1880217Y354064D01*
X1884064Y354064D01*
X1890800Y360800D01*
X1810000Y379300D02*
X1810000Y380000D01*
X1810000Y379300D02*
X1816576Y372724D01*
X1740000Y450000D02*
X1731662Y450000D01*
X1729164Y452498D01*
X1717236Y452498D01*
X1714738Y450000D01*
X1662066Y442381D02*
X1662066Y440066D01*
X1624000Y402000D01*
X1662066Y442381D02*
X1669686Y450000D01*
X1624000Y402000D02*
X1624000Y401874D01*
D18*
X1624000Y401874D03*
D17*
X1669686Y450000D02*
X1714738Y450000D01*
X1856666Y320634D02*
X1867300Y310000D01*
X1856666Y320634D02*
X1854486Y320634D01*
X1816576Y358544D01*
X1816576Y372724D01*
X1797276Y383424D02*
X1793424Y387276D01*
X1806576Y383424D02*
X1810000Y380000D01*
X1793424Y396576D02*
X1740000Y450000D01*
X1797276Y383424D02*
X1806576Y383424D01*
X1793424Y387276D02*
X1793424Y396576D01*
D18*
X1880100Y322500D03*
X1910000Y350000D03*
D17*
X1903114Y331086D02*
X1897014Y324986D01*
X1882586Y324986D02*
X1880100Y322500D01*
X1903114Y343114D02*
X1910000Y350000D01*
X1897014Y324986D02*
X1882586Y324986D01*
X1903114Y331086D02*
X1903114Y343114D01*
D18*
X1912500Y299300D03*
D17*
X1937600Y324400D01*
X1943000Y324400D01*
X1953594Y269212D02*
X1947388Y263006D01*
X1943000Y364782D02*
X1943000Y375200D01*
X1943006Y263006D02*
X1947388Y263006D01*
X1953594Y354188D02*
X1943000Y364782D01*
X1953594Y354188D02*
X1953594Y269212D01*
X1938794Y258794D02*
X1938612Y258794D01*
X1930640Y250822D01*
X1930640Y220640D02*
X1930000Y220000D01*
D18*
X1930000Y220000D03*
D17*
X1938794Y258794D02*
X1943006Y263006D01*
X1930640Y250822D02*
X1930640Y220640D01*
X1875700Y200000D02*
X1867300Y208400D01*
X1875700Y200000D02*
X1886372Y200000D01*
X1888386Y197986D01*
X1897014Y197986D01*
X1909028Y210000D02*
X1910000Y210000D01*
D18*
X1910000Y210000D03*
D17*
X1909028Y210000D02*
X1897014Y197986D01*
X1904506Y399794D02*
X1892700Y411600D01*
D18*
X1850000Y240000D03*
D17*
X1858772Y240000D02*
X1862986Y244214D01*
X1858772Y240000D02*
X1850000Y240000D01*
D18*
X1820000Y250000D03*
D17*
X1769166Y199166D01*
X1707300Y200000D02*
X1697800Y209500D01*
X1712338Y200000D02*
X1717236Y195102D01*
X1712338Y200000D02*
X1707300Y200000D01*
X1734913Y199166D02*
X1769166Y199166D01*
X1734913Y199166D02*
X1730849Y195102D01*
X1717236Y195102D01*
X1912724Y356576D02*
X1916576Y352724D01*
X1916576Y347276D01*
X1912724Y343424D01*
X1907178Y341397D02*
X1907178Y329403D01*
X1904506Y326731D01*
X1909205Y343424D02*
X1912724Y343424D01*
X1909205Y343424D02*
X1907178Y341397D01*
X1904506Y394869D02*
X1904506Y399794D01*
X1904506Y394869D02*
X1907178Y392197D01*
X1907178Y380203D01*
X1904506Y377531D01*
X1904506Y369469D01*
X1907178Y366797D01*
X1907178Y356576D01*
X1912724Y356576D01*
X1904506Y326731D02*
X1904506Y306353D01*
X1901860Y303707D01*
X1901860Y294893D01*
X1904506Y292247D01*
X1904506Y250000D01*
X1886703Y248278D02*
X1882639Y244214D01*
X1862986Y244214D01*
X1902784Y248278D02*
X1904506Y250000D01*
X1902784Y248278D02*
X1886703Y248278D01*
D19*
X320000Y482700D02*
X300800Y463500D01*
X320000Y482700D02*
X320000Y690000D01*
D20*
X600000Y690000D01*
X810000Y690000D01*
X1010000Y690000D01*
X1210000Y690000D01*
X1340000Y690000D01*
X1540000Y690000D01*
X1750000Y690000D01*
D19*
X1750000Y490300D02*
X1723200Y463500D01*
X1750000Y490300D02*
X1750000Y690000D01*
X1540000Y483500D02*
X1520000Y463500D01*
X1540000Y483500D02*
X1540000Y690000D01*
X1340000Y486700D02*
X1316800Y463500D01*
X1340000Y486700D02*
X1340000Y690000D01*
X1113600Y467101D02*
X1113600Y463500D01*
X1129014Y609014D02*
X1210000Y690000D01*
X1129014Y482515D02*
X1113600Y467101D01*
X1129014Y482515D02*
X1129014Y609014D01*
X910400Y467101D02*
X910400Y463500D01*
X925814Y605814D02*
X1010000Y690000D01*
X925814Y482515D02*
X910400Y467101D01*
X925814Y482515D02*
X925814Y605814D01*
X707200Y467101D02*
X707200Y463500D01*
X722614Y602614D02*
X810000Y690000D01*
X722614Y482515D02*
X707200Y467101D01*
X722614Y482515D02*
X722614Y602614D01*
X504000Y467101D02*
X504000Y463500D01*
X519414Y609414D02*
X600000Y690000D01*
X519414Y482515D02*
X504000Y467101D01*
X519414Y482515D02*
X519414Y609414D01*
D18*
X220000Y410000D03*
D20*
X220000Y650000D01*
X260000Y690000D01*
X320000Y690000D01*
D21*
X1943000Y527600D02*
X1995400Y580000D01*
X2162097Y580000D01*
X1910000Y53208D02*
X1950000Y13208D01*
X1910000Y53208D02*
X1910000Y130000D01*
D18*
X1910000Y130000D03*
D21*
X2202125Y108828D02*
X2209372Y116075D01*
X2209372Y532725D02*
X2162097Y580000D01*
X2160766Y108828D02*
X2202125Y108828D01*
X2160766Y108828D02*
X2152788Y100850D01*
X2209372Y116075D02*
X2209372Y532725D01*
X2152788Y100850D02*
X2152788Y72788D01*
X2093208Y13208D02*
X1950000Y13208D01*
X2093208Y13208D02*
X2152788Y72788D01*
D17*
X438586Y412700D02*
X300800Y412700D01*
X493215Y412700D02*
X504000Y412700D01*
X448920Y423034D02*
X438586Y412700D01*
X482881Y423034D02*
X493215Y412700D01*
X482881Y423034D02*
X448920Y423034D01*
X504000Y412700D02*
X641786Y412700D01*
X696415Y412700D02*
X707200Y412700D01*
X652120Y423034D02*
X641786Y412700D01*
X686081Y423034D02*
X696415Y412700D01*
X686081Y423034D02*
X652120Y423034D01*
X707200Y412700D02*
X844986Y412700D01*
X899615Y412700D02*
X910400Y412700D01*
X855320Y423034D02*
X844986Y412700D01*
X889281Y423034D02*
X899615Y412700D01*
X889281Y423034D02*
X855320Y423034D01*
X910400Y412700D02*
X1048186Y412700D01*
X1102815Y412700D02*
X1113600Y412700D01*
X1058520Y423034D02*
X1048186Y412700D01*
X1092481Y423034D02*
X1102815Y412700D01*
X1092481Y423034D02*
X1058520Y423034D01*
X1113600Y412700D02*
X1251386Y412700D01*
X1306015Y412700D02*
X1316800Y412700D01*
X1261720Y423034D02*
X1251386Y412700D01*
X1295681Y423034D02*
X1306015Y412700D01*
X1295681Y423034D02*
X1261720Y423034D01*
X1316800Y412700D02*
X1454586Y412700D01*
X1509215Y412700D02*
X1520000Y412700D01*
X1464920Y423034D02*
X1454586Y412700D01*
X1498881Y423034D02*
X1509215Y412700D01*
X1498881Y423034D02*
X1464920Y423034D01*
X1712415Y412700D02*
X1723200Y412700D01*
X1668120Y423034D02*
X1657786Y412700D01*
X1702081Y423034D02*
X1712415Y412700D01*
X1702081Y423034D02*
X1668120Y423034D01*
X1878222Y222878D02*
X1892700Y208400D01*
X1878222Y222878D02*
X1863494Y222878D01*
X1712866Y423034D02*
X1712866Y442381D01*
X1712866Y423034D02*
X1723200Y412700D01*
X1852822Y278603D02*
X1855530Y275895D01*
X1805936Y364764D02*
X1803424Y367276D01*
X1803424Y372491D01*
X1727481Y448434D02*
X1718919Y448434D01*
X1712866Y442381D01*
X1657786Y412700D02*
X1640447Y412700D01*
X1619936Y412700D02*
X1520000Y412700D01*
X1619936Y412700D02*
X1619936Y407110D01*
X1617424Y404598D01*
X1617424Y399150D01*
X1621276Y395298D01*
X1626724Y395298D01*
X1630576Y399150D01*
X1630576Y402829D01*
X1640447Y412700D01*
X1852822Y289360D02*
X1852822Y278603D01*
X1852822Y289360D02*
X1845593Y289360D01*
X1839360Y295593D01*
X1839360Y306793D01*
X1843424Y237276D02*
X1847276Y233424D01*
X1843424Y237276D02*
X1843424Y242724D01*
X1847276Y246576D01*
X1855530Y248482D02*
X1855530Y275895D01*
X1855530Y248482D02*
X1853624Y246576D01*
X1847276Y246576D01*
X1847276Y233424D02*
X1852948Y233424D01*
X1863494Y222878D01*
X1839360Y306793D02*
X1818768Y327385D01*
X1805936Y341306D02*
X1805936Y364764D01*
X1818768Y328474D02*
X1818768Y327385D01*
X1818768Y328474D02*
X1805936Y341306D01*
X1803424Y372491D02*
X1796555Y379360D01*
X1795593Y379360D01*
X1789360Y385593D01*
X1789360Y386555D01*
X1727481Y448434D01*
X438586Y336500D02*
X300800Y336500D01*
X493215Y336500D02*
X504000Y336500D01*
X448920Y346834D02*
X438586Y336500D01*
X482881Y346834D02*
X493215Y336500D01*
X482881Y346834D02*
X448920Y346834D01*
X504000Y336500D02*
X641786Y336500D01*
X696415Y336500D02*
X707200Y336500D01*
X652120Y346834D02*
X641786Y336500D01*
X686081Y346834D02*
X696415Y336500D01*
X686081Y346834D02*
X652120Y346834D01*
X707200Y336500D02*
X844986Y336500D01*
X899615Y336500D02*
X910400Y336500D01*
X855320Y346834D02*
X844986Y336500D01*
X889281Y346834D02*
X899615Y336500D01*
X889281Y346834D02*
X855320Y346834D01*
X910400Y336500D02*
X1048186Y336500D01*
X1102815Y336500D02*
X1113600Y336500D01*
X1058520Y346834D02*
X1048186Y336500D01*
X1092481Y346834D02*
X1102815Y336500D01*
X1092481Y346834D02*
X1058520Y346834D01*
X1113600Y336500D02*
X1251386Y336500D01*
X1306015Y336500D02*
X1316800Y336500D01*
X1261720Y346834D02*
X1251386Y336500D01*
X1295681Y346834D02*
X1306015Y336500D01*
X1295681Y346834D02*
X1261720Y346834D01*
X1316800Y336500D02*
X1454586Y336500D01*
X1509215Y336500D02*
X1520000Y336500D01*
X1464920Y346834D02*
X1454586Y336500D01*
X1498881Y346834D02*
X1509215Y336500D01*
X1498881Y346834D02*
X1464920Y346834D01*
X1712415Y336500D02*
X1723200Y336500D01*
X1712415Y336500D02*
X1702081Y346834D01*
X1668120Y346834D01*
D18*
X1770000Y320000D03*
D17*
X1739700Y320000D01*
X1723200Y336500D01*
X1668120Y346834D02*
X1657222Y335936D01*
X1613136Y336500D02*
X1520000Y336500D01*
X1613136Y336500D02*
X1613136Y299336D01*
X1610624Y296824D01*
X1610624Y291376D01*
X1614476Y287524D01*
X1619924Y287524D01*
X1623776Y291376D01*
X1623776Y296824D01*
X1621264Y299336D01*
X1621264Y312783D01*
X1644417Y335936D01*
X1657222Y335936D01*
X438586Y311100D02*
X300800Y311100D01*
X493215Y311100D02*
X504000Y311100D01*
X448920Y321434D02*
X438586Y311100D01*
X482881Y321434D02*
X493215Y311100D01*
X482881Y321434D02*
X448920Y321434D01*
X504000Y311100D02*
X641786Y311100D01*
X696415Y311100D02*
X707200Y311100D01*
X652120Y321434D02*
X641786Y311100D01*
X686081Y321434D02*
X696415Y311100D01*
X686081Y321434D02*
X652120Y321434D01*
X707200Y311100D02*
X844986Y311100D01*
X899615Y311100D02*
X910400Y311100D01*
X855320Y321434D02*
X844986Y311100D01*
X889281Y321434D02*
X899615Y311100D01*
X889281Y321434D02*
X855320Y321434D01*
X910400Y311100D02*
X1048186Y311100D01*
X1102815Y311100D02*
X1113600Y311100D01*
X1058520Y321434D02*
X1048186Y311100D01*
X1092481Y321434D02*
X1102815Y311100D01*
X1092481Y321434D02*
X1058520Y321434D01*
X1113600Y311100D02*
X1251386Y311100D01*
X1306015Y311100D02*
X1316800Y311100D01*
X1261720Y321434D02*
X1251386Y311100D01*
X1295681Y321434D02*
X1306015Y311100D01*
X1295681Y321434D02*
X1261720Y321434D01*
X1316800Y311100D02*
X1454586Y311100D01*
X1509215Y311100D02*
X1520000Y311100D01*
X1464920Y321434D02*
X1454586Y311100D01*
X1498881Y321434D02*
X1509215Y311100D01*
X1498881Y321434D02*
X1464920Y321434D01*
X1712415Y311100D02*
X1723200Y311100D01*
X1668120Y321434D02*
X1657786Y311100D01*
X1702081Y321434D02*
X1712415Y311100D01*
X1702081Y321434D02*
X1668120Y321434D01*
D18*
X1850000Y300000D03*
D17*
X1882286Y299586D02*
X1892700Y310000D01*
X1861303Y295522D02*
X1856825Y300000D01*
X1850000Y300000D01*
X1877361Y299586D02*
X1882286Y299586D01*
X1877361Y299586D02*
X1873297Y295522D01*
X1861303Y295522D01*
X1609072Y311100D02*
X1520000Y311100D01*
X1609072Y311100D02*
X1609072Y301019D01*
X1606560Y298507D01*
X1606560Y289693D01*
X1612793Y283460D01*
X1621607Y283460D01*
X1627840Y289693D01*
X1627840Y298507D01*
X1625328Y301019D01*
X1625328Y311100D01*
X1657786Y311100D01*
X438586Y260300D02*
X300800Y260300D01*
X493215Y260300D02*
X504000Y260300D01*
X448920Y270634D02*
X438586Y260300D01*
X482881Y270634D02*
X493215Y260300D01*
X482881Y270634D02*
X448920Y270634D01*
X504000Y260300D02*
X641786Y260300D01*
X696415Y260300D02*
X707200Y260300D01*
X652120Y270634D02*
X641786Y260300D01*
X686081Y270634D02*
X696415Y260300D01*
X686081Y270634D02*
X652120Y270634D01*
X707200Y260300D02*
X844986Y260300D01*
X899615Y260300D02*
X910400Y260300D01*
X855320Y270634D02*
X844986Y260300D01*
X889281Y270634D02*
X899615Y260300D01*
X889281Y270634D02*
X855320Y270634D01*
X910400Y260300D02*
X1048186Y260300D01*
X1102815Y260300D02*
X1113600Y260300D01*
X1058520Y270634D02*
X1048186Y260300D01*
X1092481Y270634D02*
X1102815Y260300D01*
X1092481Y270634D02*
X1058520Y270634D01*
X1113600Y260300D02*
X1251386Y260300D01*
X1306015Y260300D02*
X1316800Y260300D01*
X1261720Y270634D02*
X1251386Y260300D01*
X1295681Y270634D02*
X1306015Y260300D01*
X1295681Y270634D02*
X1261720Y270634D01*
X1316800Y260300D02*
X1454586Y260300D01*
X1509215Y260300D02*
X1520000Y260300D01*
X1464920Y270634D02*
X1454586Y260300D01*
X1498881Y270634D02*
X1509215Y260300D01*
X1498881Y270634D02*
X1464920Y270634D01*
X1712415Y260300D02*
X1723200Y260300D01*
X1668120Y270634D02*
X1657786Y260300D01*
X1702081Y270634D02*
X1712415Y260300D01*
X1702081Y270634D02*
X1668120Y270634D01*
X1723200Y260300D02*
X1734653Y260300D01*
X1735593Y259360D01*
D18*
X1790912Y320000D03*
X1840000Y349000D03*
D17*
X1840000Y399028D01*
X1862986Y422014D01*
X1750780Y259360D02*
X1735593Y259360D01*
X1750780Y259360D02*
X1790912Y299492D01*
X1790912Y320000D01*
X1888175Y432475D02*
X1892700Y437000D01*
X1876267Y422014D02*
X1862986Y422014D01*
X1876267Y422014D02*
X1879598Y425345D01*
X1882723Y425345D01*
X1888175Y430797D01*
X1888175Y432475D01*
X1615593Y260640D02*
X1615253Y260300D01*
X1615593Y260640D02*
X1624407Y260640D01*
X1624747Y260300D01*
X1657786Y260300D01*
X1565936Y260300D02*
X1520000Y260300D01*
X1565936Y260300D02*
X1565936Y264764D01*
X1563424Y267276D01*
X1563424Y272724D01*
X1567276Y276576D01*
X1572724Y276576D01*
X1576576Y272724D01*
X1576576Y267276D01*
X1574064Y264764D01*
X1574064Y260300D01*
X1615253Y260300D01*
X438586Y209500D02*
X300800Y209500D01*
X493215Y209500D02*
X504000Y209500D01*
X448920Y219834D02*
X438586Y209500D01*
X482881Y219834D02*
X493215Y209500D01*
X482881Y219834D02*
X448920Y219834D01*
X504000Y209500D02*
X641786Y209500D01*
X652120Y219834D01*
X686081Y219834D02*
X695915Y210000D01*
X707700Y210000D01*
X686081Y219834D02*
X652120Y219834D01*
X707200Y209500D02*
X707700Y210000D01*
X710000Y210000D01*
X707200Y209500D02*
X844986Y209500D01*
X899615Y209500D02*
X910400Y209500D01*
X855320Y219834D02*
X844986Y209500D01*
X889281Y219834D02*
X899615Y209500D01*
X889281Y219834D02*
X855320Y219834D01*
X910400Y209500D02*
X1048186Y209500D01*
X1102815Y209500D02*
X1113600Y209500D01*
X1058520Y219834D02*
X1048186Y209500D01*
X1092481Y219834D02*
X1102815Y209500D01*
X1092481Y219834D02*
X1058520Y219834D01*
X1113600Y209500D02*
X1251386Y209500D01*
X1306015Y209500D02*
X1316800Y209500D01*
X1261720Y219834D02*
X1251386Y209500D01*
X1295681Y219834D02*
X1306015Y209500D01*
X1295681Y219834D02*
X1261720Y219834D01*
X1316800Y209500D02*
X1454586Y209500D01*
X1509215Y209500D02*
X1520000Y209500D01*
X1464920Y219834D02*
X1454586Y209500D01*
X1498881Y219834D02*
X1509215Y209500D01*
X1498881Y219834D02*
X1464920Y219834D01*
X1680834Y199166D02*
X1690000Y190000D01*
X1668120Y199166D02*
X1657786Y209500D01*
X1668120Y199166D02*
X1680834Y199166D01*
X1690000Y190000D02*
X1743000Y190000D01*
X1741650Y191350D01*
X1741350Y191350D01*
D18*
X1741350Y191350D03*
D17*
X1615936Y195236D02*
X1615936Y209500D01*
X1615936Y195236D02*
X1613424Y192724D01*
X1613424Y187276D01*
X1617276Y183424D01*
X1622724Y183424D01*
X1626576Y187276D01*
X1626576Y192724D01*
X1624064Y195236D01*
X1624064Y209500D01*
X1657786Y209500D01*
X1575453Y209500D02*
X1520000Y209500D01*
X1575453Y209500D02*
X1575593Y209360D01*
X1584407Y209360D01*
X1584547Y209500D01*
X1615936Y209500D01*
X1672400Y234900D02*
X1683186Y234900D01*
X1705434Y224566D02*
X1710000Y220000D01*
X1693520Y224566D02*
X1683186Y234900D01*
X1693520Y224566D02*
X1705434Y224566D01*
X1710000Y220000D02*
X1755000Y220000D01*
X1815500Y280500D01*
D18*
X1820500Y280500D03*
D17*
X1815500Y280500D01*
D18*
X1850000Y310000D03*
D17*
X1852572Y310000D01*
X1862986Y299586D01*
X1871614Y299586D02*
X1882286Y310258D01*
X1882286Y314314D01*
X1871614Y299586D02*
X1862986Y299586D01*
X1877376Y315924D02*
X1873524Y319776D01*
X1873524Y325224D01*
X1892700Y331680D02*
X1892700Y335400D01*
X1892700Y331680D02*
X1890657Y329638D01*
X1877938Y329638D02*
X1873524Y325224D01*
X1877938Y329638D02*
X1890657Y329638D01*
X1880676Y315924D02*
X1882286Y314314D01*
X1880676Y315924D02*
X1877376Y315924D01*
D18*
X1800000Y320000D03*
D17*
X1683186Y285700D02*
X1672400Y285700D01*
X1683186Y285700D02*
X1693520Y275366D01*
X1746576Y270829D02*
X1746576Y267276D01*
X1746576Y270829D02*
X1751113Y275366D01*
X1755366Y275366D01*
X1733424Y275366D02*
X1693520Y275366D01*
X1733424Y275366D02*
X1733424Y267276D01*
X1737276Y263424D02*
X1742724Y263424D01*
X1737276Y263424D02*
X1733424Y267276D01*
X1742724Y263424D02*
X1746576Y267276D01*
X1755366Y275366D02*
X1760000Y280000D01*
X1786848Y306848D01*
X1786848Y314764D01*
X1784336Y317276D01*
X1784336Y322724D01*
X1788188Y326576D01*
X1793636Y326576D01*
X1797488Y322724D01*
X1797488Y322512D01*
X1800000Y320000D01*
D18*
X1760000Y280000D03*
X1820000Y210000D03*
D17*
X1882286Y127886D02*
X1890000Y120172D01*
X1882286Y157342D02*
X1871614Y168014D01*
X1882286Y157342D02*
X1882286Y127886D01*
X1852822Y177178D02*
X1820000Y210000D01*
X1852822Y177178D02*
X1852822Y177003D01*
X1861811Y168014D01*
X1871614Y168014D01*
D18*
X1890000Y119274D03*
D17*
X1890000Y120172D01*
D18*
X1840000Y420000D03*
D17*
X1840000Y530000D01*
X1860000Y550000D01*
X1900000Y550000D01*
X1954951Y520000D02*
X1960000Y520000D01*
X1954951Y520000D02*
X1951957Y517006D01*
X1932994Y517006D02*
X1900000Y550000D01*
X1932994Y517006D02*
X1951957Y517006D01*
X1960000Y520000D02*
X2050000Y430000D01*
D18*
X2050000Y430000D03*
X2010000Y400000D03*
D17*
X2010000Y315200D01*
X1943000Y248200D01*
D18*
X1905900Y475200D03*
D17*
X1987883Y464064D02*
X1991947Y460000D01*
X2011600Y460000D01*
X1929618Y475200D02*
X1905900Y475200D01*
X1938612Y466206D02*
X1948924Y466206D01*
X1938612Y466206D02*
X1929618Y475200D01*
X1948924Y466206D02*
X1951066Y464064D01*
X1965593Y470640D02*
X1974407Y470640D01*
X1980983Y464064D02*
X1987883Y464064D01*
X1959017Y464064D02*
X1951066Y464064D01*
X1974407Y470640D02*
X1980983Y464064D01*
X1965593Y470640D02*
X1959017Y464064D01*
X2048176Y423424D02*
X2172600Y299000D01*
X2048176Y423424D02*
X2047276Y423424D01*
X2043424Y427276D01*
X2043424Y428176D01*
X2011600Y460000D01*
X1712866Y234900D02*
X1697800Y234900D01*
X1712866Y234900D02*
X1712866Y230620D01*
X1718920Y224566D01*
X1727481Y224566D01*
X1806576Y307276D02*
X1806576Y322724D01*
X1800000Y300700D02*
X1800000Y297086D01*
X1800000Y329300D02*
X1800000Y330000D01*
X1806576Y307276D02*
X1800000Y300700D01*
X1806576Y322724D02*
X1800000Y329300D01*
X1800000Y330000D02*
X1788000Y342000D01*
D18*
X1788000Y342000D03*
D17*
X1800000Y297086D02*
X1727481Y224566D01*
D18*
X1850000Y390000D03*
D17*
X1856372Y390000D01*
X1862986Y396614D01*
X1882286Y396614D01*
X1892700Y386200D01*
D18*
X1910000Y190000D03*
D17*
X1877000Y183000D02*
X1867300Y183000D01*
X1877000Y183000D02*
X1890000Y170000D01*
X1892586Y172586D01*
X1897014Y172586D01*
X1903114Y178686D01*
X1903114Y183114D01*
X1910000Y190000D01*
D18*
X1750000Y310000D03*
D17*
X1738915Y310000D01*
X1712866Y321434D02*
X1697800Y336500D01*
X1727481Y321434D02*
X1738915Y310000D01*
X1727481Y321434D02*
X1712866Y321434D01*
X1867300Y233800D02*
X1873500Y240000D01*
D18*
X1920000Y240000D03*
D17*
X1884172Y240000D02*
X1873500Y240000D01*
X1884172Y240000D02*
X1888386Y244214D01*
X1897014Y244214D01*
X1901228Y240000D01*
X1920000Y240000D01*
D18*
X1880000Y480000D03*
D17*
X1879999Y479999D01*
X1879999Y431921D01*
D18*
X1879999Y431921D03*
D17*
X438586Y387300D02*
X300800Y387300D01*
X493215Y387300D02*
X504000Y387300D01*
X448920Y397634D02*
X438586Y387300D01*
X482881Y397634D02*
X493215Y387300D01*
X482881Y397634D02*
X448920Y397634D01*
X504000Y387300D02*
X641786Y387300D01*
X696415Y387300D02*
X707200Y387300D01*
X652120Y397634D02*
X641786Y387300D01*
X686081Y397634D02*
X696415Y387300D01*
X686081Y397634D02*
X652120Y397634D01*
X707200Y387300D02*
X844986Y387300D01*
X899615Y387300D02*
X910400Y387300D01*
X855320Y397634D02*
X844986Y387300D01*
X889281Y397634D02*
X899615Y387300D01*
X889281Y397634D02*
X855320Y397634D01*
X910400Y387300D02*
X1048186Y387300D01*
X1102815Y387300D02*
X1113600Y387300D01*
X1058520Y397634D02*
X1048186Y387300D01*
X1092481Y397634D02*
X1102815Y387300D01*
X1092481Y397634D02*
X1058520Y397634D01*
X1113600Y387300D02*
X1251386Y387300D01*
X1306015Y387300D02*
X1316800Y387300D01*
X1261720Y397634D02*
X1251386Y387300D01*
X1295681Y397634D02*
X1306015Y387300D01*
X1295681Y397634D02*
X1261720Y397634D01*
X1316800Y387300D02*
X1454586Y387300D01*
X1509215Y387300D02*
X1520000Y387300D01*
X1464920Y397634D02*
X1454586Y387300D01*
X1498881Y397634D02*
X1509215Y387300D01*
X1498881Y397634D02*
X1464920Y397634D01*
X1520000Y387300D02*
X1657786Y387300D01*
X1712415Y387300D02*
X1723200Y387300D01*
X1668120Y397634D02*
X1657786Y387300D01*
X1702081Y397634D02*
X1712415Y387300D01*
X1702081Y397634D02*
X1668120Y397634D01*
X1839081Y221892D02*
X1862986Y197986D01*
X1839081Y221892D02*
X1839081Y271419D01*
X1736941Y388807D02*
X1724707Y388807D01*
X1723200Y387300D01*
X1736941Y388807D02*
X1739171Y386576D01*
X1814704Y326791D02*
X1814704Y324596D01*
X1754919Y386576D02*
X1739171Y386576D01*
X1798640Y342855D02*
X1814704Y326791D01*
X1798640Y342855D02*
X1798640Y346407D01*
X1792407Y352640D01*
X1788855Y352640D01*
X1754919Y386576D01*
X1835204Y275296D02*
X1839081Y271419D01*
X1835204Y275296D02*
X1835204Y304096D01*
X1814704Y324596D01*
X1919360Y224407D02*
X1920000Y225047D01*
X1920000Y230000D01*
X1919360Y224407D02*
X1919360Y208660D01*
X1920000Y230000D02*
X1916200Y233800D01*
X1892700Y233800D01*
X1871967Y197986D02*
X1862986Y197986D01*
X1871967Y197986D02*
X1874017Y195936D01*
X1884689Y195936D01*
X1886703Y193922D01*
X1898697Y193922D01*
X1914064Y203364D02*
X1919360Y208660D01*
X1914064Y198957D02*
X1911683Y196576D01*
X1914064Y198957D02*
X1914064Y203364D01*
X1901351Y196576D02*
X1898697Y193922D01*
X1901351Y196576D02*
X1911683Y196576D01*
X438586Y361900D02*
X300800Y361900D01*
X493215Y361900D02*
X504000Y361900D01*
X448920Y372234D02*
X438586Y361900D01*
X482881Y372234D02*
X493215Y361900D01*
X482881Y372234D02*
X448920Y372234D01*
X504000Y361900D02*
X641786Y361900D01*
X696415Y361900D02*
X707200Y361900D01*
X652120Y372234D02*
X641786Y361900D01*
X686081Y372234D02*
X696415Y361900D01*
X686081Y372234D02*
X652120Y372234D01*
X707200Y361900D02*
X844986Y361900D01*
X899615Y361900D02*
X910400Y361900D01*
X855320Y372234D02*
X844986Y361900D01*
X889281Y372234D02*
X899615Y361900D01*
X889281Y372234D02*
X855320Y372234D01*
X910400Y361900D02*
X1048186Y361900D01*
X1102815Y361900D02*
X1113600Y361900D01*
X1058520Y372234D02*
X1048186Y361900D01*
X1092481Y372234D02*
X1102815Y361900D01*
X1092481Y372234D02*
X1058520Y372234D01*
X1113600Y361900D02*
X1251386Y361900D01*
X1261720Y372234D01*
X1306466Y372234D01*
X1316800Y361900D01*
X1454586Y361900D01*
X1509215Y361900D02*
X1520000Y361900D01*
X1464920Y372234D02*
X1454586Y361900D01*
X1498881Y372234D02*
X1509215Y361900D01*
X1498881Y372234D02*
X1464920Y372234D01*
X1520000Y361900D02*
X1657786Y361900D01*
X1712415Y361900D02*
X1723200Y361900D01*
X1668120Y372234D02*
X1657786Y361900D01*
X1702081Y372234D02*
X1712415Y361900D01*
X1702081Y372234D02*
X1668120Y372234D01*
D18*
X1810000Y370000D03*
D17*
X1856886Y280286D02*
X1862986Y274186D01*
X1877714Y274186D02*
X1892700Y259200D01*
X1877714Y274186D02*
X1862986Y274186D01*
X1852724Y293424D02*
X1847276Y293424D01*
X1843424Y297276D01*
X1852724Y293424D02*
X1854314Y295014D01*
X1810000Y342990D02*
X1810000Y370000D01*
X1822832Y330158D02*
X1822832Y329068D01*
X1822832Y330158D02*
X1810000Y342990D01*
X1822832Y329068D02*
X1843424Y308476D01*
X1843424Y297276D01*
X1856886Y292442D02*
X1856886Y280286D01*
X1856886Y292442D02*
X1854314Y295014D01*
D18*
X1830000Y500000D03*
D17*
X1800000Y470000D01*
X1800000Y390000D01*
D18*
X1800000Y390000D03*
D17*
X438586Y285700D02*
X300800Y285700D01*
X493215Y285700D02*
X504000Y285700D01*
X448920Y296034D02*
X438586Y285700D01*
X482881Y296034D02*
X493215Y285700D01*
X482881Y296034D02*
X448920Y296034D01*
X504000Y285700D02*
X641786Y285700D01*
X696415Y285700D02*
X707200Y285700D01*
X652120Y296034D02*
X641786Y285700D01*
X686081Y296034D02*
X696415Y285700D01*
X686081Y296034D02*
X652120Y296034D01*
X707200Y285700D02*
X844986Y285700D01*
X899615Y285700D02*
X910400Y285700D01*
X855320Y296034D02*
X844986Y285700D01*
X889281Y296034D02*
X899615Y285700D01*
X889281Y296034D02*
X855320Y296034D01*
X910400Y285700D02*
X1048186Y285700D01*
X1102815Y285700D02*
X1113600Y285700D01*
X1058520Y296034D02*
X1048186Y285700D01*
X1092481Y296034D02*
X1102815Y285700D01*
X1092481Y296034D02*
X1058520Y296034D01*
X1113600Y285700D02*
X1251386Y285700D01*
X1306015Y285700D02*
X1316800Y285700D01*
X1261720Y296034D02*
X1251386Y285700D01*
X1295681Y296034D02*
X1306015Y285700D01*
X1295681Y296034D02*
X1261720Y296034D01*
X1316800Y285700D02*
X1454586Y285700D01*
X1509215Y285700D02*
X1520000Y285700D01*
X1464920Y296034D02*
X1454586Y285700D01*
X1498881Y296034D02*
X1509215Y285700D01*
X1498881Y296034D02*
X1464920Y296034D01*
X1712415Y285700D02*
X1723200Y285700D01*
X1668120Y296034D02*
X1657786Y285700D01*
X1702081Y296034D02*
X1712415Y285700D01*
X1702081Y296034D02*
X1668120Y296034D01*
X1611109Y279396D02*
X1604805Y285700D01*
X1611109Y279396D02*
X1623291Y279396D01*
X1629595Y285700D01*
X1657786Y285700D01*
X1555000Y285700D02*
X1520000Y285700D01*
X1555000Y285700D02*
X1557276Y283424D01*
X1562724Y283424D01*
X1565000Y285700D01*
X1604805Y285700D01*
X438586Y234900D02*
X300800Y234900D01*
X493215Y234900D02*
X504000Y234900D01*
X448920Y245234D02*
X438586Y234900D01*
X482881Y245234D02*
X493215Y234900D01*
X482881Y245234D02*
X448920Y245234D01*
X504000Y234900D02*
X641786Y234900D01*
X696415Y234900D02*
X707200Y234900D01*
X652120Y245234D02*
X641786Y234900D01*
X686081Y245234D02*
X696415Y234900D01*
X686081Y245234D02*
X652120Y245234D01*
X707200Y234900D02*
X844986Y234900D01*
X899615Y234900D02*
X910400Y234900D01*
X855320Y245234D02*
X844986Y234900D01*
X889281Y245234D02*
X899615Y234900D01*
X889281Y245234D02*
X855320Y245234D01*
X910400Y234900D02*
X1048186Y234900D01*
X1102815Y234900D02*
X1113600Y234900D01*
X1058520Y245234D02*
X1048186Y234900D01*
X1092481Y245234D02*
X1102815Y234900D01*
X1092481Y245234D02*
X1058520Y245234D01*
X1113600Y234900D02*
X1251386Y234900D01*
X1306015Y234900D02*
X1316800Y234900D01*
X1261720Y245234D02*
X1251386Y234900D01*
X1295681Y245234D02*
X1306015Y234900D01*
X1295681Y245234D02*
X1261720Y245234D01*
X1316800Y234900D02*
X1454586Y234900D01*
X1509215Y234900D02*
X1520000Y234900D01*
X1464920Y245234D02*
X1454586Y234900D01*
X1498881Y245234D02*
X1509215Y234900D01*
X1498881Y245234D02*
X1464920Y245234D01*
X1657786Y234900D02*
X1668120Y245234D01*
X1702081Y245234D01*
D18*
X1810000Y453990D03*
D17*
X1810000Y390000D01*
D18*
X1810000Y390000D03*
X1770000Y350000D03*
X1740000Y270000D03*
D17*
X1770000Y329300D02*
X1770000Y350000D01*
X1770000Y329300D02*
X1776576Y322724D01*
X1776576Y306576D01*
X1740000Y270000D01*
X1708351Y238964D02*
X1702081Y245234D01*
X1708351Y238964D02*
X1714549Y238964D01*
X1718613Y234900D02*
X1723200Y234900D01*
X1718613Y234900D02*
X1714549Y238964D01*
X1615936Y234900D02*
X1615936Y244764D01*
X1613424Y247276D01*
X1613424Y252724D01*
X1617276Y256576D01*
X1622724Y256576D01*
X1626576Y252724D01*
X1626576Y247276D01*
X1624064Y244764D01*
X1624064Y234900D01*
X1657786Y234900D01*
X1565936Y234900D02*
X1520000Y234900D01*
X1565936Y234900D02*
X1565936Y228317D01*
X1573424Y220829D01*
X1573424Y217276D01*
X1577276Y213424D01*
X1582724Y213424D01*
X1586576Y217276D01*
X1586576Y222724D01*
X1582724Y226576D01*
X1579171Y226576D01*
X1574064Y231683D01*
X1577281Y234900D01*
X1615936Y234900D01*
M02*
