G04 EAGLE Gerber RS-274X export*
G75*
%MOMM*%
%FSLAX34Y34*%
%LPD*%
%IN*%
%IPPOS*%
%AMOC8*
5,1,8,0,0,1.08239X$1,22.5*%
G01*
%ADD10C,0.254000*%


D10*
X0Y0D02*
X2250000Y0D01*
X2250000Y800000D01*
X0Y800000D01*
X0Y0D01*
X47000Y769443D02*
X46927Y768333D01*
X46782Y767229D01*
X46565Y766138D01*
X46277Y765063D01*
X45919Y764009D01*
X45493Y762980D01*
X45001Y761982D01*
X44444Y761018D01*
X43826Y760093D01*
X43148Y759210D01*
X42414Y758373D01*
X41627Y757586D01*
X40790Y756852D01*
X39907Y756174D01*
X38982Y755556D01*
X38018Y754999D01*
X37020Y754507D01*
X35991Y754081D01*
X34937Y753723D01*
X33862Y753435D01*
X32771Y753218D01*
X31667Y753073D01*
X30557Y753000D01*
X29443Y753000D01*
X28333Y753073D01*
X27229Y753218D01*
X26138Y753435D01*
X25063Y753723D01*
X24009Y754081D01*
X22980Y754507D01*
X21982Y754999D01*
X21018Y755556D01*
X20093Y756174D01*
X19210Y756852D01*
X18373Y757586D01*
X17586Y758373D01*
X16852Y759210D01*
X16174Y760093D01*
X15556Y761018D01*
X14999Y761982D01*
X14507Y762980D01*
X14081Y764009D01*
X13723Y765063D01*
X13435Y766138D01*
X13218Y767229D01*
X13073Y768333D01*
X13000Y769443D01*
X13000Y770557D01*
X13073Y771667D01*
X13218Y772771D01*
X13435Y773862D01*
X13723Y774937D01*
X14081Y775991D01*
X14507Y777020D01*
X14999Y778018D01*
X15556Y778982D01*
X16174Y779907D01*
X16852Y780790D01*
X17586Y781627D01*
X18373Y782414D01*
X19210Y783148D01*
X20093Y783826D01*
X21018Y784444D01*
X21982Y785001D01*
X22980Y785493D01*
X24009Y785919D01*
X25063Y786277D01*
X26138Y786565D01*
X27229Y786782D01*
X28333Y786927D01*
X29443Y787000D01*
X30557Y787000D01*
X31667Y786927D01*
X32771Y786782D01*
X33862Y786565D01*
X34937Y786277D01*
X35991Y785919D01*
X37020Y785493D01*
X38018Y785001D01*
X38982Y784444D01*
X39907Y783826D01*
X40790Y783148D01*
X41627Y782414D01*
X42414Y781627D01*
X43148Y780790D01*
X43826Y779907D01*
X44444Y778982D01*
X45001Y778018D01*
X45493Y777020D01*
X45919Y775991D01*
X46277Y774937D01*
X46565Y773862D01*
X46782Y772771D01*
X46927Y771667D01*
X47000Y770557D01*
X47000Y769443D01*
X47000Y29443D02*
X46927Y28333D01*
X46782Y27229D01*
X46565Y26138D01*
X46277Y25063D01*
X45919Y24009D01*
X45493Y22980D01*
X45001Y21982D01*
X44444Y21018D01*
X43826Y20093D01*
X43148Y19210D01*
X42414Y18373D01*
X41627Y17586D01*
X40790Y16852D01*
X39907Y16174D01*
X38982Y15556D01*
X38018Y14999D01*
X37020Y14507D01*
X35991Y14081D01*
X34937Y13723D01*
X33862Y13435D01*
X32771Y13218D01*
X31667Y13073D01*
X30557Y13000D01*
X29443Y13000D01*
X28333Y13073D01*
X27229Y13218D01*
X26138Y13435D01*
X25063Y13723D01*
X24009Y14081D01*
X22980Y14507D01*
X21982Y14999D01*
X21018Y15556D01*
X20093Y16174D01*
X19210Y16852D01*
X18373Y17586D01*
X17586Y18373D01*
X16852Y19210D01*
X16174Y20093D01*
X15556Y21018D01*
X14999Y21982D01*
X14507Y22980D01*
X14081Y24009D01*
X13723Y25063D01*
X13435Y26138D01*
X13218Y27229D01*
X13073Y28333D01*
X13000Y29443D01*
X13000Y30557D01*
X13073Y31667D01*
X13218Y32771D01*
X13435Y33862D01*
X13723Y34937D01*
X14081Y35991D01*
X14507Y37020D01*
X14999Y38018D01*
X15556Y38982D01*
X16174Y39907D01*
X16852Y40790D01*
X17586Y41627D01*
X18373Y42414D01*
X19210Y43148D01*
X20093Y43826D01*
X21018Y44444D01*
X21982Y45001D01*
X22980Y45493D01*
X24009Y45919D01*
X25063Y46277D01*
X26138Y46565D01*
X27229Y46782D01*
X28333Y46927D01*
X29443Y47000D01*
X30557Y47000D01*
X31667Y46927D01*
X32771Y46782D01*
X33862Y46565D01*
X34937Y46277D01*
X35991Y45919D01*
X37020Y45493D01*
X38018Y45001D01*
X38982Y44444D01*
X39907Y43826D01*
X40790Y43148D01*
X41627Y42414D01*
X42414Y41627D01*
X43148Y40790D01*
X43826Y39907D01*
X44444Y38982D01*
X45001Y38018D01*
X45493Y37020D01*
X45919Y35991D01*
X46277Y34937D01*
X46565Y33862D01*
X46782Y32771D01*
X46927Y31667D01*
X47000Y30557D01*
X47000Y29443D01*
X2237000Y29443D02*
X2236927Y28333D01*
X2236782Y27229D01*
X2236565Y26138D01*
X2236277Y25063D01*
X2235919Y24009D01*
X2235493Y22980D01*
X2235001Y21982D01*
X2234444Y21018D01*
X2233826Y20093D01*
X2233148Y19210D01*
X2232414Y18373D01*
X2231627Y17586D01*
X2230790Y16852D01*
X2229907Y16174D01*
X2228982Y15556D01*
X2228018Y14999D01*
X2227020Y14507D01*
X2225991Y14081D01*
X2224937Y13723D01*
X2223862Y13435D01*
X2222771Y13218D01*
X2221667Y13073D01*
X2220557Y13000D01*
X2219443Y13000D01*
X2218333Y13073D01*
X2217229Y13218D01*
X2216138Y13435D01*
X2215063Y13723D01*
X2214009Y14081D01*
X2212980Y14507D01*
X2211982Y14999D01*
X2211018Y15556D01*
X2210093Y16174D01*
X2209210Y16852D01*
X2208373Y17586D01*
X2207586Y18373D01*
X2206852Y19210D01*
X2206174Y20093D01*
X2205556Y21018D01*
X2204999Y21982D01*
X2204507Y22980D01*
X2204081Y24009D01*
X2203723Y25063D01*
X2203435Y26138D01*
X2203218Y27229D01*
X2203073Y28333D01*
X2203000Y29443D01*
X2203000Y30557D01*
X2203073Y31667D01*
X2203218Y32771D01*
X2203435Y33862D01*
X2203723Y34937D01*
X2204081Y35991D01*
X2204507Y37020D01*
X2204999Y38018D01*
X2205556Y38982D01*
X2206174Y39907D01*
X2206852Y40790D01*
X2207586Y41627D01*
X2208373Y42414D01*
X2209210Y43148D01*
X2210093Y43826D01*
X2211018Y44444D01*
X2211982Y45001D01*
X2212980Y45493D01*
X2214009Y45919D01*
X2215063Y46277D01*
X2216138Y46565D01*
X2217229Y46782D01*
X2218333Y46927D01*
X2219443Y47000D01*
X2220557Y47000D01*
X2221667Y46927D01*
X2222771Y46782D01*
X2223862Y46565D01*
X2224937Y46277D01*
X2225991Y45919D01*
X2227020Y45493D01*
X2228018Y45001D01*
X2228982Y44444D01*
X2229907Y43826D01*
X2230790Y43148D01*
X2231627Y42414D01*
X2232414Y41627D01*
X2233148Y40790D01*
X2233826Y39907D01*
X2234444Y38982D01*
X2235001Y38018D01*
X2235493Y37020D01*
X2235919Y35991D01*
X2236277Y34937D01*
X2236565Y33862D01*
X2236782Y32771D01*
X2236927Y31667D01*
X2237000Y30557D01*
X2237000Y29443D01*
X2237000Y769443D02*
X2236927Y768333D01*
X2236782Y767229D01*
X2236565Y766138D01*
X2236277Y765063D01*
X2235919Y764009D01*
X2235493Y762980D01*
X2235001Y761982D01*
X2234444Y761018D01*
X2233826Y760093D01*
X2233148Y759210D01*
X2232414Y758373D01*
X2231627Y757586D01*
X2230790Y756852D01*
X2229907Y756174D01*
X2228982Y755556D01*
X2228018Y754999D01*
X2227020Y754507D01*
X2225991Y754081D01*
X2224937Y753723D01*
X2223862Y753435D01*
X2222771Y753218D01*
X2221667Y753073D01*
X2220557Y753000D01*
X2219443Y753000D01*
X2218333Y753073D01*
X2217229Y753218D01*
X2216138Y753435D01*
X2215063Y753723D01*
X2214009Y754081D01*
X2212980Y754507D01*
X2211982Y754999D01*
X2211018Y755556D01*
X2210093Y756174D01*
X2209210Y756852D01*
X2208373Y757586D01*
X2207586Y758373D01*
X2206852Y759210D01*
X2206174Y760093D01*
X2205556Y761018D01*
X2204999Y761982D01*
X2204507Y762980D01*
X2204081Y764009D01*
X2203723Y765063D01*
X2203435Y766138D01*
X2203218Y767229D01*
X2203073Y768333D01*
X2203000Y769443D01*
X2203000Y770557D01*
X2203073Y771667D01*
X2203218Y772771D01*
X2203435Y773862D01*
X2203723Y774937D01*
X2204081Y775991D01*
X2204507Y777020D01*
X2204999Y778018D01*
X2205556Y778982D01*
X2206174Y779907D01*
X2206852Y780790D01*
X2207586Y781627D01*
X2208373Y782414D01*
X2209210Y783148D01*
X2210093Y783826D01*
X2211018Y784444D01*
X2211982Y785001D01*
X2212980Y785493D01*
X2214009Y785919D01*
X2215063Y786277D01*
X2216138Y786565D01*
X2217229Y786782D01*
X2218333Y786927D01*
X2219443Y787000D01*
X2220557Y787000D01*
X2221667Y786927D01*
X2222771Y786782D01*
X2223862Y786565D01*
X2224937Y786277D01*
X2225991Y785919D01*
X2227020Y785493D01*
X2228018Y785001D01*
X2228982Y784444D01*
X2229907Y783826D01*
X2230790Y783148D01*
X2231627Y782414D01*
X2232414Y781627D01*
X2233148Y780790D01*
X2233826Y779907D01*
X2234444Y778982D01*
X2235001Y778018D01*
X2235493Y777020D01*
X2235919Y775991D01*
X2236277Y774937D01*
X2236565Y773862D01*
X2236782Y772771D01*
X2236927Y771667D01*
X2237000Y770557D01*
X2237000Y769443D01*
X1167000Y769443D02*
X1166927Y768333D01*
X1166782Y767229D01*
X1166565Y766138D01*
X1166277Y765063D01*
X1165919Y764009D01*
X1165493Y762980D01*
X1165001Y761982D01*
X1164444Y761018D01*
X1163826Y760093D01*
X1163148Y759210D01*
X1162414Y758373D01*
X1161627Y757586D01*
X1160790Y756852D01*
X1159907Y756174D01*
X1158982Y755556D01*
X1158018Y754999D01*
X1157020Y754507D01*
X1155991Y754081D01*
X1154937Y753723D01*
X1153862Y753435D01*
X1152771Y753218D01*
X1151667Y753073D01*
X1150557Y753000D01*
X1149443Y753000D01*
X1148333Y753073D01*
X1147229Y753218D01*
X1146138Y753435D01*
X1145063Y753723D01*
X1144009Y754081D01*
X1142980Y754507D01*
X1141982Y754999D01*
X1141018Y755556D01*
X1140093Y756174D01*
X1139210Y756852D01*
X1138373Y757586D01*
X1137586Y758373D01*
X1136852Y759210D01*
X1136174Y760093D01*
X1135556Y761018D01*
X1134999Y761982D01*
X1134507Y762980D01*
X1134081Y764009D01*
X1133723Y765063D01*
X1133435Y766138D01*
X1133218Y767229D01*
X1133073Y768333D01*
X1133000Y769443D01*
X1133000Y770557D01*
X1133073Y771667D01*
X1133218Y772771D01*
X1133435Y773862D01*
X1133723Y774937D01*
X1134081Y775991D01*
X1134507Y777020D01*
X1134999Y778018D01*
X1135556Y778982D01*
X1136174Y779907D01*
X1136852Y780790D01*
X1137586Y781627D01*
X1138373Y782414D01*
X1139210Y783148D01*
X1140093Y783826D01*
X1141018Y784444D01*
X1141982Y785001D01*
X1142980Y785493D01*
X1144009Y785919D01*
X1145063Y786277D01*
X1146138Y786565D01*
X1147229Y786782D01*
X1148333Y786927D01*
X1149443Y787000D01*
X1150557Y787000D01*
X1151667Y786927D01*
X1152771Y786782D01*
X1153862Y786565D01*
X1154937Y786277D01*
X1155991Y785919D01*
X1157020Y785493D01*
X1158018Y785001D01*
X1158982Y784444D01*
X1159907Y783826D01*
X1160790Y783148D01*
X1161627Y782414D01*
X1162414Y781627D01*
X1163148Y780790D01*
X1163826Y779907D01*
X1164444Y778982D01*
X1165001Y778018D01*
X1165493Y777020D01*
X1165919Y775991D01*
X1166277Y774937D01*
X1166565Y773862D01*
X1166782Y772771D01*
X1166927Y771667D01*
X1167000Y770557D01*
X1167000Y769443D01*
X1167000Y29443D02*
X1166927Y28333D01*
X1166782Y27229D01*
X1166565Y26138D01*
X1166277Y25063D01*
X1165919Y24009D01*
X1165493Y22980D01*
X1165001Y21982D01*
X1164444Y21018D01*
X1163826Y20093D01*
X1163148Y19210D01*
X1162414Y18373D01*
X1161627Y17586D01*
X1160790Y16852D01*
X1159907Y16174D01*
X1158982Y15556D01*
X1158018Y14999D01*
X1157020Y14507D01*
X1155991Y14081D01*
X1154937Y13723D01*
X1153862Y13435D01*
X1152771Y13218D01*
X1151667Y13073D01*
X1150557Y13000D01*
X1149443Y13000D01*
X1148333Y13073D01*
X1147229Y13218D01*
X1146138Y13435D01*
X1145063Y13723D01*
X1144009Y14081D01*
X1142980Y14507D01*
X1141982Y14999D01*
X1141018Y15556D01*
X1140093Y16174D01*
X1139210Y16852D01*
X1138373Y17586D01*
X1137586Y18373D01*
X1136852Y19210D01*
X1136174Y20093D01*
X1135556Y21018D01*
X1134999Y21982D01*
X1134507Y22980D01*
X1134081Y24009D01*
X1133723Y25063D01*
X1133435Y26138D01*
X1133218Y27229D01*
X1133073Y28333D01*
X1133000Y29443D01*
X1133000Y30557D01*
X1133073Y31667D01*
X1133218Y32771D01*
X1133435Y33862D01*
X1133723Y34937D01*
X1134081Y35991D01*
X1134507Y37020D01*
X1134999Y38018D01*
X1135556Y38982D01*
X1136174Y39907D01*
X1136852Y40790D01*
X1137586Y41627D01*
X1138373Y42414D01*
X1139210Y43148D01*
X1140093Y43826D01*
X1141018Y44444D01*
X1141982Y45001D01*
X1142980Y45493D01*
X1144009Y45919D01*
X1145063Y46277D01*
X1146138Y46565D01*
X1147229Y46782D01*
X1148333Y46927D01*
X1149443Y47000D01*
X1150557Y47000D01*
X1151667Y46927D01*
X1152771Y46782D01*
X1153862Y46565D01*
X1154937Y46277D01*
X1155991Y45919D01*
X1157020Y45493D01*
X1158018Y45001D01*
X1158982Y44444D01*
X1159907Y43826D01*
X1160790Y43148D01*
X1161627Y42414D01*
X1162414Y41627D01*
X1163148Y40790D01*
X1163826Y39907D01*
X1164444Y38982D01*
X1165001Y38018D01*
X1165493Y37020D01*
X1165919Y35991D01*
X1166277Y34937D01*
X1166565Y33862D01*
X1166782Y32771D01*
X1166927Y31667D01*
X1167000Y30557D01*
X1167000Y29443D01*
X272898Y167050D02*
X273892Y166979D01*
X274878Y166837D01*
X275852Y166625D01*
X276808Y166345D01*
X277742Y165996D01*
X278648Y165582D01*
X279523Y165105D01*
X280361Y164566D01*
X281159Y163969D01*
X281912Y163316D01*
X282616Y162612D01*
X283269Y161859D01*
X283866Y161061D01*
X284405Y160223D01*
X284882Y159348D01*
X285296Y158442D01*
X285645Y157508D01*
X285925Y156552D01*
X286137Y155578D01*
X286279Y154592D01*
X286350Y153598D01*
X286350Y152602D01*
X286279Y151608D01*
X286137Y150622D01*
X285925Y149648D01*
X285645Y148692D01*
X285296Y147758D01*
X284882Y146852D01*
X284405Y145977D01*
X283866Y145139D01*
X283269Y144341D01*
X282616Y143588D01*
X281912Y142884D01*
X281159Y142231D01*
X280361Y141634D01*
X279523Y141095D01*
X278648Y140618D01*
X277742Y140204D01*
X276808Y139855D01*
X275852Y139575D01*
X274878Y139363D01*
X273892Y139221D01*
X272898Y139150D01*
X271902Y139150D01*
X270908Y139221D01*
X269922Y139363D01*
X268948Y139575D01*
X267992Y139855D01*
X267058Y140204D01*
X266152Y140618D01*
X265277Y141095D01*
X264439Y141634D01*
X263641Y142231D01*
X262888Y142884D01*
X262184Y143588D01*
X261531Y144341D01*
X260934Y145139D01*
X260395Y145977D01*
X259918Y146852D01*
X259504Y147758D01*
X259155Y148692D01*
X258875Y149648D01*
X258663Y150622D01*
X258521Y151608D01*
X258450Y152602D01*
X258450Y153598D01*
X258521Y154592D01*
X258663Y155578D01*
X258875Y156552D01*
X259155Y157508D01*
X259504Y158442D01*
X259918Y159348D01*
X260395Y160223D01*
X260934Y161061D01*
X261531Y161859D01*
X262184Y162612D01*
X262888Y163316D01*
X263641Y163969D01*
X264439Y164566D01*
X265277Y165105D01*
X266152Y165582D01*
X267058Y165996D01*
X267992Y166345D01*
X268948Y166625D01*
X269922Y166837D01*
X270908Y166979D01*
X271902Y167050D01*
X272898Y167050D01*
X272898Y660850D02*
X273892Y660779D01*
X274878Y660637D01*
X275852Y660425D01*
X276808Y660145D01*
X277742Y659796D01*
X278648Y659382D01*
X279523Y658905D01*
X280361Y658366D01*
X281159Y657769D01*
X281912Y657116D01*
X282616Y656412D01*
X283269Y655659D01*
X283866Y654861D01*
X284405Y654023D01*
X284882Y653148D01*
X285296Y652242D01*
X285645Y651308D01*
X285925Y650352D01*
X286137Y649378D01*
X286279Y648392D01*
X286350Y647398D01*
X286350Y646402D01*
X286279Y645408D01*
X286137Y644422D01*
X285925Y643448D01*
X285645Y642492D01*
X285296Y641558D01*
X284882Y640652D01*
X284405Y639777D01*
X283866Y638939D01*
X283269Y638141D01*
X282616Y637388D01*
X281912Y636684D01*
X281159Y636031D01*
X280361Y635434D01*
X279523Y634895D01*
X278648Y634418D01*
X277742Y634004D01*
X276808Y633655D01*
X275852Y633375D01*
X274878Y633163D01*
X273892Y633021D01*
X272898Y632950D01*
X271902Y632950D01*
X270908Y633021D01*
X269922Y633163D01*
X268948Y633375D01*
X267992Y633655D01*
X267058Y634004D01*
X266152Y634418D01*
X265277Y634895D01*
X264439Y635434D01*
X263641Y636031D01*
X262888Y636684D01*
X262184Y637388D01*
X261531Y638141D01*
X260934Y638939D01*
X260395Y639777D01*
X259918Y640652D01*
X259504Y641558D01*
X259155Y642492D01*
X258875Y643448D01*
X258663Y644422D01*
X258521Y645408D01*
X258450Y646402D01*
X258450Y647398D01*
X258521Y648392D01*
X258663Y649378D01*
X258875Y650352D01*
X259155Y651308D01*
X259504Y652242D01*
X259918Y653148D01*
X260395Y654023D01*
X260934Y654861D01*
X261531Y655659D01*
X262184Y656412D01*
X262888Y657116D01*
X263641Y657769D01*
X264439Y658366D01*
X265277Y658905D01*
X266152Y659382D01*
X267058Y659796D01*
X267992Y660145D01*
X268948Y660425D01*
X269922Y660637D01*
X270908Y660779D01*
X271902Y660850D01*
X272898Y660850D01*
X476098Y167050D02*
X477092Y166979D01*
X478078Y166837D01*
X479052Y166625D01*
X480008Y166345D01*
X480942Y165996D01*
X481848Y165582D01*
X482723Y165105D01*
X483561Y164566D01*
X484359Y163969D01*
X485112Y163316D01*
X485816Y162612D01*
X486469Y161859D01*
X487066Y161061D01*
X487605Y160223D01*
X488082Y159348D01*
X488496Y158442D01*
X488845Y157508D01*
X489125Y156552D01*
X489337Y155578D01*
X489479Y154592D01*
X489550Y153598D01*
X489550Y152602D01*
X489479Y151608D01*
X489337Y150622D01*
X489125Y149648D01*
X488845Y148692D01*
X488496Y147758D01*
X488082Y146852D01*
X487605Y145977D01*
X487066Y145139D01*
X486469Y144341D01*
X485816Y143588D01*
X485112Y142884D01*
X484359Y142231D01*
X483561Y141634D01*
X482723Y141095D01*
X481848Y140618D01*
X480942Y140204D01*
X480008Y139855D01*
X479052Y139575D01*
X478078Y139363D01*
X477092Y139221D01*
X476098Y139150D01*
X475102Y139150D01*
X474108Y139221D01*
X473122Y139363D01*
X472148Y139575D01*
X471192Y139855D01*
X470258Y140204D01*
X469352Y140618D01*
X468477Y141095D01*
X467639Y141634D01*
X466841Y142231D01*
X466088Y142884D01*
X465384Y143588D01*
X464731Y144341D01*
X464134Y145139D01*
X463595Y145977D01*
X463118Y146852D01*
X462704Y147758D01*
X462355Y148692D01*
X462075Y149648D01*
X461863Y150622D01*
X461721Y151608D01*
X461650Y152602D01*
X461650Y153598D01*
X461721Y154592D01*
X461863Y155578D01*
X462075Y156552D01*
X462355Y157508D01*
X462704Y158442D01*
X463118Y159348D01*
X463595Y160223D01*
X464134Y161061D01*
X464731Y161859D01*
X465384Y162612D01*
X466088Y163316D01*
X466841Y163969D01*
X467639Y164566D01*
X468477Y165105D01*
X469352Y165582D01*
X470258Y165996D01*
X471192Y166345D01*
X472148Y166625D01*
X473122Y166837D01*
X474108Y166979D01*
X475102Y167050D01*
X476098Y167050D01*
X476098Y660850D02*
X477092Y660779D01*
X478078Y660637D01*
X479052Y660425D01*
X480008Y660145D01*
X480942Y659796D01*
X481848Y659382D01*
X482723Y658905D01*
X483561Y658366D01*
X484359Y657769D01*
X485112Y657116D01*
X485816Y656412D01*
X486469Y655659D01*
X487066Y654861D01*
X487605Y654023D01*
X488082Y653148D01*
X488496Y652242D01*
X488845Y651308D01*
X489125Y650352D01*
X489337Y649378D01*
X489479Y648392D01*
X489550Y647398D01*
X489550Y646402D01*
X489479Y645408D01*
X489337Y644422D01*
X489125Y643448D01*
X488845Y642492D01*
X488496Y641558D01*
X488082Y640652D01*
X487605Y639777D01*
X487066Y638939D01*
X486469Y638141D01*
X485816Y637388D01*
X485112Y636684D01*
X484359Y636031D01*
X483561Y635434D01*
X482723Y634895D01*
X481848Y634418D01*
X480942Y634004D01*
X480008Y633655D01*
X479052Y633375D01*
X478078Y633163D01*
X477092Y633021D01*
X476098Y632950D01*
X475102Y632950D01*
X474108Y633021D01*
X473122Y633163D01*
X472148Y633375D01*
X471192Y633655D01*
X470258Y634004D01*
X469352Y634418D01*
X468477Y634895D01*
X467639Y635434D01*
X466841Y636031D01*
X466088Y636684D01*
X465384Y637388D01*
X464731Y638141D01*
X464134Y638939D01*
X463595Y639777D01*
X463118Y640652D01*
X462704Y641558D01*
X462355Y642492D01*
X462075Y643448D01*
X461863Y644422D01*
X461721Y645408D01*
X461650Y646402D01*
X461650Y647398D01*
X461721Y648392D01*
X461863Y649378D01*
X462075Y650352D01*
X462355Y651308D01*
X462704Y652242D01*
X463118Y653148D01*
X463595Y654023D01*
X464134Y654861D01*
X464731Y655659D01*
X465384Y656412D01*
X466088Y657116D01*
X466841Y657769D01*
X467639Y658366D01*
X468477Y658905D01*
X469352Y659382D01*
X470258Y659796D01*
X471192Y660145D01*
X472148Y660425D01*
X473122Y660637D01*
X474108Y660779D01*
X475102Y660850D01*
X476098Y660850D01*
X679298Y167050D02*
X680292Y166979D01*
X681278Y166837D01*
X682252Y166625D01*
X683208Y166345D01*
X684142Y165996D01*
X685048Y165582D01*
X685923Y165105D01*
X686761Y164566D01*
X687559Y163969D01*
X688312Y163316D01*
X689016Y162612D01*
X689669Y161859D01*
X690266Y161061D01*
X690805Y160223D01*
X691282Y159348D01*
X691696Y158442D01*
X692045Y157508D01*
X692325Y156552D01*
X692537Y155578D01*
X692679Y154592D01*
X692750Y153598D01*
X692750Y152602D01*
X692679Y151608D01*
X692537Y150622D01*
X692325Y149648D01*
X692045Y148692D01*
X691696Y147758D01*
X691282Y146852D01*
X690805Y145977D01*
X690266Y145139D01*
X689669Y144341D01*
X689016Y143588D01*
X688312Y142884D01*
X687559Y142231D01*
X686761Y141634D01*
X685923Y141095D01*
X685048Y140618D01*
X684142Y140204D01*
X683208Y139855D01*
X682252Y139575D01*
X681278Y139363D01*
X680292Y139221D01*
X679298Y139150D01*
X678302Y139150D01*
X677308Y139221D01*
X676322Y139363D01*
X675348Y139575D01*
X674392Y139855D01*
X673458Y140204D01*
X672552Y140618D01*
X671677Y141095D01*
X670839Y141634D01*
X670041Y142231D01*
X669288Y142884D01*
X668584Y143588D01*
X667931Y144341D01*
X667334Y145139D01*
X666795Y145977D01*
X666318Y146852D01*
X665904Y147758D01*
X665555Y148692D01*
X665275Y149648D01*
X665063Y150622D01*
X664921Y151608D01*
X664850Y152602D01*
X664850Y153598D01*
X664921Y154592D01*
X665063Y155578D01*
X665275Y156552D01*
X665555Y157508D01*
X665904Y158442D01*
X666318Y159348D01*
X666795Y160223D01*
X667334Y161061D01*
X667931Y161859D01*
X668584Y162612D01*
X669288Y163316D01*
X670041Y163969D01*
X670839Y164566D01*
X671677Y165105D01*
X672552Y165582D01*
X673458Y165996D01*
X674392Y166345D01*
X675348Y166625D01*
X676322Y166837D01*
X677308Y166979D01*
X678302Y167050D01*
X679298Y167050D01*
X679298Y660850D02*
X680292Y660779D01*
X681278Y660637D01*
X682252Y660425D01*
X683208Y660145D01*
X684142Y659796D01*
X685048Y659382D01*
X685923Y658905D01*
X686761Y658366D01*
X687559Y657769D01*
X688312Y657116D01*
X689016Y656412D01*
X689669Y655659D01*
X690266Y654861D01*
X690805Y654023D01*
X691282Y653148D01*
X691696Y652242D01*
X692045Y651308D01*
X692325Y650352D01*
X692537Y649378D01*
X692679Y648392D01*
X692750Y647398D01*
X692750Y646402D01*
X692679Y645408D01*
X692537Y644422D01*
X692325Y643448D01*
X692045Y642492D01*
X691696Y641558D01*
X691282Y640652D01*
X690805Y639777D01*
X690266Y638939D01*
X689669Y638141D01*
X689016Y637388D01*
X688312Y636684D01*
X687559Y636031D01*
X686761Y635434D01*
X685923Y634895D01*
X685048Y634418D01*
X684142Y634004D01*
X683208Y633655D01*
X682252Y633375D01*
X681278Y633163D01*
X680292Y633021D01*
X679298Y632950D01*
X678302Y632950D01*
X677308Y633021D01*
X676322Y633163D01*
X675348Y633375D01*
X674392Y633655D01*
X673458Y634004D01*
X672552Y634418D01*
X671677Y634895D01*
X670839Y635434D01*
X670041Y636031D01*
X669288Y636684D01*
X668584Y637388D01*
X667931Y638141D01*
X667334Y638939D01*
X666795Y639777D01*
X666318Y640652D01*
X665904Y641558D01*
X665555Y642492D01*
X665275Y643448D01*
X665063Y644422D01*
X664921Y645408D01*
X664850Y646402D01*
X664850Y647398D01*
X664921Y648392D01*
X665063Y649378D01*
X665275Y650352D01*
X665555Y651308D01*
X665904Y652242D01*
X666318Y653148D01*
X666795Y654023D01*
X667334Y654861D01*
X667931Y655659D01*
X668584Y656412D01*
X669288Y657116D01*
X670041Y657769D01*
X670839Y658366D01*
X671677Y658905D01*
X672552Y659382D01*
X673458Y659796D01*
X674392Y660145D01*
X675348Y660425D01*
X676322Y660637D01*
X677308Y660779D01*
X678302Y660850D01*
X679298Y660850D01*
X882498Y167050D02*
X883492Y166979D01*
X884478Y166837D01*
X885452Y166625D01*
X886408Y166345D01*
X887342Y165996D01*
X888248Y165582D01*
X889123Y165105D01*
X889961Y164566D01*
X890759Y163969D01*
X891512Y163316D01*
X892216Y162612D01*
X892869Y161859D01*
X893466Y161061D01*
X894005Y160223D01*
X894482Y159348D01*
X894896Y158442D01*
X895245Y157508D01*
X895525Y156552D01*
X895737Y155578D01*
X895879Y154592D01*
X895950Y153598D01*
X895950Y152602D01*
X895879Y151608D01*
X895737Y150622D01*
X895525Y149648D01*
X895245Y148692D01*
X894896Y147758D01*
X894482Y146852D01*
X894005Y145977D01*
X893466Y145139D01*
X892869Y144341D01*
X892216Y143588D01*
X891512Y142884D01*
X890759Y142231D01*
X889961Y141634D01*
X889123Y141095D01*
X888248Y140618D01*
X887342Y140204D01*
X886408Y139855D01*
X885452Y139575D01*
X884478Y139363D01*
X883492Y139221D01*
X882498Y139150D01*
X881502Y139150D01*
X880508Y139221D01*
X879522Y139363D01*
X878548Y139575D01*
X877592Y139855D01*
X876658Y140204D01*
X875752Y140618D01*
X874877Y141095D01*
X874039Y141634D01*
X873241Y142231D01*
X872488Y142884D01*
X871784Y143588D01*
X871131Y144341D01*
X870534Y145139D01*
X869995Y145977D01*
X869518Y146852D01*
X869104Y147758D01*
X868755Y148692D01*
X868475Y149648D01*
X868263Y150622D01*
X868121Y151608D01*
X868050Y152602D01*
X868050Y153598D01*
X868121Y154592D01*
X868263Y155578D01*
X868475Y156552D01*
X868755Y157508D01*
X869104Y158442D01*
X869518Y159348D01*
X869995Y160223D01*
X870534Y161061D01*
X871131Y161859D01*
X871784Y162612D01*
X872488Y163316D01*
X873241Y163969D01*
X874039Y164566D01*
X874877Y165105D01*
X875752Y165582D01*
X876658Y165996D01*
X877592Y166345D01*
X878548Y166625D01*
X879522Y166837D01*
X880508Y166979D01*
X881502Y167050D01*
X882498Y167050D01*
X882498Y660850D02*
X883492Y660779D01*
X884478Y660637D01*
X885452Y660425D01*
X886408Y660145D01*
X887342Y659796D01*
X888248Y659382D01*
X889123Y658905D01*
X889961Y658366D01*
X890759Y657769D01*
X891512Y657116D01*
X892216Y656412D01*
X892869Y655659D01*
X893466Y654861D01*
X894005Y654023D01*
X894482Y653148D01*
X894896Y652242D01*
X895245Y651308D01*
X895525Y650352D01*
X895737Y649378D01*
X895879Y648392D01*
X895950Y647398D01*
X895950Y646402D01*
X895879Y645408D01*
X895737Y644422D01*
X895525Y643448D01*
X895245Y642492D01*
X894896Y641558D01*
X894482Y640652D01*
X894005Y639777D01*
X893466Y638939D01*
X892869Y638141D01*
X892216Y637388D01*
X891512Y636684D01*
X890759Y636031D01*
X889961Y635434D01*
X889123Y634895D01*
X888248Y634418D01*
X887342Y634004D01*
X886408Y633655D01*
X885452Y633375D01*
X884478Y633163D01*
X883492Y633021D01*
X882498Y632950D01*
X881502Y632950D01*
X880508Y633021D01*
X879522Y633163D01*
X878548Y633375D01*
X877592Y633655D01*
X876658Y634004D01*
X875752Y634418D01*
X874877Y634895D01*
X874039Y635434D01*
X873241Y636031D01*
X872488Y636684D01*
X871784Y637388D01*
X871131Y638141D01*
X870534Y638939D01*
X869995Y639777D01*
X869518Y640652D01*
X869104Y641558D01*
X868755Y642492D01*
X868475Y643448D01*
X868263Y644422D01*
X868121Y645408D01*
X868050Y646402D01*
X868050Y647398D01*
X868121Y648392D01*
X868263Y649378D01*
X868475Y650352D01*
X868755Y651308D01*
X869104Y652242D01*
X869518Y653148D01*
X869995Y654023D01*
X870534Y654861D01*
X871131Y655659D01*
X871784Y656412D01*
X872488Y657116D01*
X873241Y657769D01*
X874039Y658366D01*
X874877Y658905D01*
X875752Y659382D01*
X876658Y659796D01*
X877592Y660145D01*
X878548Y660425D01*
X879522Y660637D01*
X880508Y660779D01*
X881502Y660850D01*
X882498Y660850D01*
X1085698Y167050D02*
X1086692Y166979D01*
X1087678Y166837D01*
X1088652Y166625D01*
X1089608Y166345D01*
X1090542Y165996D01*
X1091448Y165582D01*
X1092323Y165105D01*
X1093161Y164566D01*
X1093959Y163969D01*
X1094712Y163316D01*
X1095416Y162612D01*
X1096069Y161859D01*
X1096666Y161061D01*
X1097205Y160223D01*
X1097682Y159348D01*
X1098096Y158442D01*
X1098445Y157508D01*
X1098725Y156552D01*
X1098937Y155578D01*
X1099079Y154592D01*
X1099150Y153598D01*
X1099150Y152602D01*
X1099079Y151608D01*
X1098937Y150622D01*
X1098725Y149648D01*
X1098445Y148692D01*
X1098096Y147758D01*
X1097682Y146852D01*
X1097205Y145977D01*
X1096666Y145139D01*
X1096069Y144341D01*
X1095416Y143588D01*
X1094712Y142884D01*
X1093959Y142231D01*
X1093161Y141634D01*
X1092323Y141095D01*
X1091448Y140618D01*
X1090542Y140204D01*
X1089608Y139855D01*
X1088652Y139575D01*
X1087678Y139363D01*
X1086692Y139221D01*
X1085698Y139150D01*
X1084702Y139150D01*
X1083708Y139221D01*
X1082722Y139363D01*
X1081748Y139575D01*
X1080792Y139855D01*
X1079858Y140204D01*
X1078952Y140618D01*
X1078077Y141095D01*
X1077239Y141634D01*
X1076441Y142231D01*
X1075688Y142884D01*
X1074984Y143588D01*
X1074331Y144341D01*
X1073734Y145139D01*
X1073195Y145977D01*
X1072718Y146852D01*
X1072304Y147758D01*
X1071955Y148692D01*
X1071675Y149648D01*
X1071463Y150622D01*
X1071321Y151608D01*
X1071250Y152602D01*
X1071250Y153598D01*
X1071321Y154592D01*
X1071463Y155578D01*
X1071675Y156552D01*
X1071955Y157508D01*
X1072304Y158442D01*
X1072718Y159348D01*
X1073195Y160223D01*
X1073734Y161061D01*
X1074331Y161859D01*
X1074984Y162612D01*
X1075688Y163316D01*
X1076441Y163969D01*
X1077239Y164566D01*
X1078077Y165105D01*
X1078952Y165582D01*
X1079858Y165996D01*
X1080792Y166345D01*
X1081748Y166625D01*
X1082722Y166837D01*
X1083708Y166979D01*
X1084702Y167050D01*
X1085698Y167050D01*
X1085698Y660850D02*
X1086692Y660779D01*
X1087678Y660637D01*
X1088652Y660425D01*
X1089608Y660145D01*
X1090542Y659796D01*
X1091448Y659382D01*
X1092323Y658905D01*
X1093161Y658366D01*
X1093959Y657769D01*
X1094712Y657116D01*
X1095416Y656412D01*
X1096069Y655659D01*
X1096666Y654861D01*
X1097205Y654023D01*
X1097682Y653148D01*
X1098096Y652242D01*
X1098445Y651308D01*
X1098725Y650352D01*
X1098937Y649378D01*
X1099079Y648392D01*
X1099150Y647398D01*
X1099150Y646402D01*
X1099079Y645408D01*
X1098937Y644422D01*
X1098725Y643448D01*
X1098445Y642492D01*
X1098096Y641558D01*
X1097682Y640652D01*
X1097205Y639777D01*
X1096666Y638939D01*
X1096069Y638141D01*
X1095416Y637388D01*
X1094712Y636684D01*
X1093959Y636031D01*
X1093161Y635434D01*
X1092323Y634895D01*
X1091448Y634418D01*
X1090542Y634004D01*
X1089608Y633655D01*
X1088652Y633375D01*
X1087678Y633163D01*
X1086692Y633021D01*
X1085698Y632950D01*
X1084702Y632950D01*
X1083708Y633021D01*
X1082722Y633163D01*
X1081748Y633375D01*
X1080792Y633655D01*
X1079858Y634004D01*
X1078952Y634418D01*
X1078077Y634895D01*
X1077239Y635434D01*
X1076441Y636031D01*
X1075688Y636684D01*
X1074984Y637388D01*
X1074331Y638141D01*
X1073734Y638939D01*
X1073195Y639777D01*
X1072718Y640652D01*
X1072304Y641558D01*
X1071955Y642492D01*
X1071675Y643448D01*
X1071463Y644422D01*
X1071321Y645408D01*
X1071250Y646402D01*
X1071250Y647398D01*
X1071321Y648392D01*
X1071463Y649378D01*
X1071675Y650352D01*
X1071955Y651308D01*
X1072304Y652242D01*
X1072718Y653148D01*
X1073195Y654023D01*
X1073734Y654861D01*
X1074331Y655659D01*
X1074984Y656412D01*
X1075688Y657116D01*
X1076441Y657769D01*
X1077239Y658366D01*
X1078077Y658905D01*
X1078952Y659382D01*
X1079858Y659796D01*
X1080792Y660145D01*
X1081748Y660425D01*
X1082722Y660637D01*
X1083708Y660779D01*
X1084702Y660850D01*
X1085698Y660850D01*
X1288898Y167050D02*
X1289892Y166979D01*
X1290878Y166837D01*
X1291852Y166625D01*
X1292808Y166345D01*
X1293742Y165996D01*
X1294648Y165582D01*
X1295523Y165105D01*
X1296361Y164566D01*
X1297159Y163969D01*
X1297912Y163316D01*
X1298616Y162612D01*
X1299269Y161859D01*
X1299866Y161061D01*
X1300405Y160223D01*
X1300882Y159348D01*
X1301296Y158442D01*
X1301645Y157508D01*
X1301925Y156552D01*
X1302137Y155578D01*
X1302279Y154592D01*
X1302350Y153598D01*
X1302350Y152602D01*
X1302279Y151608D01*
X1302137Y150622D01*
X1301925Y149648D01*
X1301645Y148692D01*
X1301296Y147758D01*
X1300882Y146852D01*
X1300405Y145977D01*
X1299866Y145139D01*
X1299269Y144341D01*
X1298616Y143588D01*
X1297912Y142884D01*
X1297159Y142231D01*
X1296361Y141634D01*
X1295523Y141095D01*
X1294648Y140618D01*
X1293742Y140204D01*
X1292808Y139855D01*
X1291852Y139575D01*
X1290878Y139363D01*
X1289892Y139221D01*
X1288898Y139150D01*
X1287902Y139150D01*
X1286908Y139221D01*
X1285922Y139363D01*
X1284948Y139575D01*
X1283992Y139855D01*
X1283058Y140204D01*
X1282152Y140618D01*
X1281277Y141095D01*
X1280439Y141634D01*
X1279641Y142231D01*
X1278888Y142884D01*
X1278184Y143588D01*
X1277531Y144341D01*
X1276934Y145139D01*
X1276395Y145977D01*
X1275918Y146852D01*
X1275504Y147758D01*
X1275155Y148692D01*
X1274875Y149648D01*
X1274663Y150622D01*
X1274521Y151608D01*
X1274450Y152602D01*
X1274450Y153598D01*
X1274521Y154592D01*
X1274663Y155578D01*
X1274875Y156552D01*
X1275155Y157508D01*
X1275504Y158442D01*
X1275918Y159348D01*
X1276395Y160223D01*
X1276934Y161061D01*
X1277531Y161859D01*
X1278184Y162612D01*
X1278888Y163316D01*
X1279641Y163969D01*
X1280439Y164566D01*
X1281277Y165105D01*
X1282152Y165582D01*
X1283058Y165996D01*
X1283992Y166345D01*
X1284948Y166625D01*
X1285922Y166837D01*
X1286908Y166979D01*
X1287902Y167050D01*
X1288898Y167050D01*
X1288898Y660850D02*
X1289892Y660779D01*
X1290878Y660637D01*
X1291852Y660425D01*
X1292808Y660145D01*
X1293742Y659796D01*
X1294648Y659382D01*
X1295523Y658905D01*
X1296361Y658366D01*
X1297159Y657769D01*
X1297912Y657116D01*
X1298616Y656412D01*
X1299269Y655659D01*
X1299866Y654861D01*
X1300405Y654023D01*
X1300882Y653148D01*
X1301296Y652242D01*
X1301645Y651308D01*
X1301925Y650352D01*
X1302137Y649378D01*
X1302279Y648392D01*
X1302350Y647398D01*
X1302350Y646402D01*
X1302279Y645408D01*
X1302137Y644422D01*
X1301925Y643448D01*
X1301645Y642492D01*
X1301296Y641558D01*
X1300882Y640652D01*
X1300405Y639777D01*
X1299866Y638939D01*
X1299269Y638141D01*
X1298616Y637388D01*
X1297912Y636684D01*
X1297159Y636031D01*
X1296361Y635434D01*
X1295523Y634895D01*
X1294648Y634418D01*
X1293742Y634004D01*
X1292808Y633655D01*
X1291852Y633375D01*
X1290878Y633163D01*
X1289892Y633021D01*
X1288898Y632950D01*
X1287902Y632950D01*
X1286908Y633021D01*
X1285922Y633163D01*
X1284948Y633375D01*
X1283992Y633655D01*
X1283058Y634004D01*
X1282152Y634418D01*
X1281277Y634895D01*
X1280439Y635434D01*
X1279641Y636031D01*
X1278888Y636684D01*
X1278184Y637388D01*
X1277531Y638141D01*
X1276934Y638939D01*
X1276395Y639777D01*
X1275918Y640652D01*
X1275504Y641558D01*
X1275155Y642492D01*
X1274875Y643448D01*
X1274663Y644422D01*
X1274521Y645408D01*
X1274450Y646402D01*
X1274450Y647398D01*
X1274521Y648392D01*
X1274663Y649378D01*
X1274875Y650352D01*
X1275155Y651308D01*
X1275504Y652242D01*
X1275918Y653148D01*
X1276395Y654023D01*
X1276934Y654861D01*
X1277531Y655659D01*
X1278184Y656412D01*
X1278888Y657116D01*
X1279641Y657769D01*
X1280439Y658366D01*
X1281277Y658905D01*
X1282152Y659382D01*
X1283058Y659796D01*
X1283992Y660145D01*
X1284948Y660425D01*
X1285922Y660637D01*
X1286908Y660779D01*
X1287902Y660850D01*
X1288898Y660850D01*
X1492098Y167050D02*
X1493092Y166979D01*
X1494078Y166837D01*
X1495052Y166625D01*
X1496008Y166345D01*
X1496942Y165996D01*
X1497848Y165582D01*
X1498723Y165105D01*
X1499561Y164566D01*
X1500359Y163969D01*
X1501112Y163316D01*
X1501816Y162612D01*
X1502469Y161859D01*
X1503066Y161061D01*
X1503605Y160223D01*
X1504082Y159348D01*
X1504496Y158442D01*
X1504845Y157508D01*
X1505125Y156552D01*
X1505337Y155578D01*
X1505479Y154592D01*
X1505550Y153598D01*
X1505550Y152602D01*
X1505479Y151608D01*
X1505337Y150622D01*
X1505125Y149648D01*
X1504845Y148692D01*
X1504496Y147758D01*
X1504082Y146852D01*
X1503605Y145977D01*
X1503066Y145139D01*
X1502469Y144341D01*
X1501816Y143588D01*
X1501112Y142884D01*
X1500359Y142231D01*
X1499561Y141634D01*
X1498723Y141095D01*
X1497848Y140618D01*
X1496942Y140204D01*
X1496008Y139855D01*
X1495052Y139575D01*
X1494078Y139363D01*
X1493092Y139221D01*
X1492098Y139150D01*
X1491102Y139150D01*
X1490108Y139221D01*
X1489122Y139363D01*
X1488148Y139575D01*
X1487192Y139855D01*
X1486258Y140204D01*
X1485352Y140618D01*
X1484477Y141095D01*
X1483639Y141634D01*
X1482841Y142231D01*
X1482088Y142884D01*
X1481384Y143588D01*
X1480731Y144341D01*
X1480134Y145139D01*
X1479595Y145977D01*
X1479118Y146852D01*
X1478704Y147758D01*
X1478355Y148692D01*
X1478075Y149648D01*
X1477863Y150622D01*
X1477721Y151608D01*
X1477650Y152602D01*
X1477650Y153598D01*
X1477721Y154592D01*
X1477863Y155578D01*
X1478075Y156552D01*
X1478355Y157508D01*
X1478704Y158442D01*
X1479118Y159348D01*
X1479595Y160223D01*
X1480134Y161061D01*
X1480731Y161859D01*
X1481384Y162612D01*
X1482088Y163316D01*
X1482841Y163969D01*
X1483639Y164566D01*
X1484477Y165105D01*
X1485352Y165582D01*
X1486258Y165996D01*
X1487192Y166345D01*
X1488148Y166625D01*
X1489122Y166837D01*
X1490108Y166979D01*
X1491102Y167050D01*
X1492098Y167050D01*
X1492098Y660850D02*
X1493092Y660779D01*
X1494078Y660637D01*
X1495052Y660425D01*
X1496008Y660145D01*
X1496942Y659796D01*
X1497848Y659382D01*
X1498723Y658905D01*
X1499561Y658366D01*
X1500359Y657769D01*
X1501112Y657116D01*
X1501816Y656412D01*
X1502469Y655659D01*
X1503066Y654861D01*
X1503605Y654023D01*
X1504082Y653148D01*
X1504496Y652242D01*
X1504845Y651308D01*
X1505125Y650352D01*
X1505337Y649378D01*
X1505479Y648392D01*
X1505550Y647398D01*
X1505550Y646402D01*
X1505479Y645408D01*
X1505337Y644422D01*
X1505125Y643448D01*
X1504845Y642492D01*
X1504496Y641558D01*
X1504082Y640652D01*
X1503605Y639777D01*
X1503066Y638939D01*
X1502469Y638141D01*
X1501816Y637388D01*
X1501112Y636684D01*
X1500359Y636031D01*
X1499561Y635434D01*
X1498723Y634895D01*
X1497848Y634418D01*
X1496942Y634004D01*
X1496008Y633655D01*
X1495052Y633375D01*
X1494078Y633163D01*
X1493092Y633021D01*
X1492098Y632950D01*
X1491102Y632950D01*
X1490108Y633021D01*
X1489122Y633163D01*
X1488148Y633375D01*
X1487192Y633655D01*
X1486258Y634004D01*
X1485352Y634418D01*
X1484477Y634895D01*
X1483639Y635434D01*
X1482841Y636031D01*
X1482088Y636684D01*
X1481384Y637388D01*
X1480731Y638141D01*
X1480134Y638939D01*
X1479595Y639777D01*
X1479118Y640652D01*
X1478704Y641558D01*
X1478355Y642492D01*
X1478075Y643448D01*
X1477863Y644422D01*
X1477721Y645408D01*
X1477650Y646402D01*
X1477650Y647398D01*
X1477721Y648392D01*
X1477863Y649378D01*
X1478075Y650352D01*
X1478355Y651308D01*
X1478704Y652242D01*
X1479118Y653148D01*
X1479595Y654023D01*
X1480134Y654861D01*
X1480731Y655659D01*
X1481384Y656412D01*
X1482088Y657116D01*
X1482841Y657769D01*
X1483639Y658366D01*
X1484477Y658905D01*
X1485352Y659382D01*
X1486258Y659796D01*
X1487192Y660145D01*
X1488148Y660425D01*
X1489122Y660637D01*
X1490108Y660779D01*
X1491102Y660850D01*
X1492098Y660850D01*
X1695298Y167050D02*
X1696292Y166979D01*
X1697278Y166837D01*
X1698252Y166625D01*
X1699208Y166345D01*
X1700142Y165996D01*
X1701048Y165582D01*
X1701923Y165105D01*
X1702761Y164566D01*
X1703559Y163969D01*
X1704312Y163316D01*
X1705016Y162612D01*
X1705669Y161859D01*
X1706266Y161061D01*
X1706805Y160223D01*
X1707282Y159348D01*
X1707696Y158442D01*
X1708045Y157508D01*
X1708325Y156552D01*
X1708537Y155578D01*
X1708679Y154592D01*
X1708750Y153598D01*
X1708750Y152602D01*
X1708679Y151608D01*
X1708537Y150622D01*
X1708325Y149648D01*
X1708045Y148692D01*
X1707696Y147758D01*
X1707282Y146852D01*
X1706805Y145977D01*
X1706266Y145139D01*
X1705669Y144341D01*
X1705016Y143588D01*
X1704312Y142884D01*
X1703559Y142231D01*
X1702761Y141634D01*
X1701923Y141095D01*
X1701048Y140618D01*
X1700142Y140204D01*
X1699208Y139855D01*
X1698252Y139575D01*
X1697278Y139363D01*
X1696292Y139221D01*
X1695298Y139150D01*
X1694302Y139150D01*
X1693308Y139221D01*
X1692322Y139363D01*
X1691348Y139575D01*
X1690392Y139855D01*
X1689458Y140204D01*
X1688552Y140618D01*
X1687677Y141095D01*
X1686839Y141634D01*
X1686041Y142231D01*
X1685288Y142884D01*
X1684584Y143588D01*
X1683931Y144341D01*
X1683334Y145139D01*
X1682795Y145977D01*
X1682318Y146852D01*
X1681904Y147758D01*
X1681555Y148692D01*
X1681275Y149648D01*
X1681063Y150622D01*
X1680921Y151608D01*
X1680850Y152602D01*
X1680850Y153598D01*
X1680921Y154592D01*
X1681063Y155578D01*
X1681275Y156552D01*
X1681555Y157508D01*
X1681904Y158442D01*
X1682318Y159348D01*
X1682795Y160223D01*
X1683334Y161061D01*
X1683931Y161859D01*
X1684584Y162612D01*
X1685288Y163316D01*
X1686041Y163969D01*
X1686839Y164566D01*
X1687677Y165105D01*
X1688552Y165582D01*
X1689458Y165996D01*
X1690392Y166345D01*
X1691348Y166625D01*
X1692322Y166837D01*
X1693308Y166979D01*
X1694302Y167050D01*
X1695298Y167050D01*
X1695298Y660850D02*
X1696292Y660779D01*
X1697278Y660637D01*
X1698252Y660425D01*
X1699208Y660145D01*
X1700142Y659796D01*
X1701048Y659382D01*
X1701923Y658905D01*
X1702761Y658366D01*
X1703559Y657769D01*
X1704312Y657116D01*
X1705016Y656412D01*
X1705669Y655659D01*
X1706266Y654861D01*
X1706805Y654023D01*
X1707282Y653148D01*
X1707696Y652242D01*
X1708045Y651308D01*
X1708325Y650352D01*
X1708537Y649378D01*
X1708679Y648392D01*
X1708750Y647398D01*
X1708750Y646402D01*
X1708679Y645408D01*
X1708537Y644422D01*
X1708325Y643448D01*
X1708045Y642492D01*
X1707696Y641558D01*
X1707282Y640652D01*
X1706805Y639777D01*
X1706266Y638939D01*
X1705669Y638141D01*
X1705016Y637388D01*
X1704312Y636684D01*
X1703559Y636031D01*
X1702761Y635434D01*
X1701923Y634895D01*
X1701048Y634418D01*
X1700142Y634004D01*
X1699208Y633655D01*
X1698252Y633375D01*
X1697278Y633163D01*
X1696292Y633021D01*
X1695298Y632950D01*
X1694302Y632950D01*
X1693308Y633021D01*
X1692322Y633163D01*
X1691348Y633375D01*
X1690392Y633655D01*
X1689458Y634004D01*
X1688552Y634418D01*
X1687677Y634895D01*
X1686839Y635434D01*
X1686041Y636031D01*
X1685288Y636684D01*
X1684584Y637388D01*
X1683931Y638141D01*
X1683334Y638939D01*
X1682795Y639777D01*
X1682318Y640652D01*
X1681904Y641558D01*
X1681555Y642492D01*
X1681275Y643448D01*
X1681063Y644422D01*
X1680921Y645408D01*
X1680850Y646402D01*
X1680850Y647398D01*
X1680921Y648392D01*
X1681063Y649378D01*
X1681275Y650352D01*
X1681555Y651308D01*
X1681904Y652242D01*
X1682318Y653148D01*
X1682795Y654023D01*
X1683334Y654861D01*
X1683931Y655659D01*
X1684584Y656412D01*
X1685288Y657116D01*
X1686041Y657769D01*
X1686839Y658366D01*
X1687677Y658905D01*
X1688552Y659382D01*
X1689458Y659796D01*
X1690392Y660145D01*
X1691348Y660425D01*
X1692322Y660637D01*
X1693308Y660779D01*
X1694302Y660850D01*
X1695298Y660850D01*
M02*
