M48
;GenerationSoftware,Autodesk,EAGLE,9.6.2*%
;CreationDate,2021-09-13T18:49:26Z*%
FMAT,2
ICI,OFF
METRIC,TZ,000.000
T7C0.350
T6C0.800
T5C1.000
T4C1.016
T3C1.400
T2C2.250
T1C2.800
%
G90
M71
T1
X3060Y64180
X3060Y15920
T2
X2840Y5640
X2840Y74360
X97160Y74360
X97160Y5640
T3
X91000Y15235
X91000Y19045
X91000Y22855
X91000Y26665
X91000Y30475
X91000Y34285
X91000Y38095
X91000Y41905
X91000Y45715
X91000Y49525
X91000Y53335
X91000Y57145
X91000Y60955
X91000Y64765
T4
X91830Y6000
X89290Y6000
X86750Y6000
X84210Y6000
X81670Y6000
X79130Y6000
X76590Y6000
X74050Y6000
X71510Y6000
X68970Y6000
X66430Y6000
X63890Y6000
X61350Y6000
X58810Y6000
X56270Y6000
X53730Y6000
X51190Y6000
X48650Y6000
X46110Y6000
X43570Y6000
X41030Y6000
X38490Y6000
X35950Y6000
X33410Y6000
X30870Y6000
X28330Y6000
X25790Y6000
X23250Y6000
X20710Y6000
X18170Y6000
X89830Y70000
X87290Y70000
X84750Y70000
X82210Y70000
X79670Y70000
X77130Y70000
X74590Y70000
X72050Y70000
X69510Y70000
X66970Y70000
X64430Y70000
X61890Y70000
X59350Y70000
X56810Y70000
X54270Y70000
X51730Y70000
X49190Y70000
X46650Y70000
X44110Y70000
X41570Y70000
X39030Y70000
X36490Y70000
X33950Y70000
X31410Y70000
X28870Y70000
X26330Y70000
X23790Y70000
X21250Y70000
X18710Y70000
X16170Y70000
X89830Y74000
X87290Y74000
X84750Y74000
X82210Y74000
X79670Y74000
X77130Y74000
X74590Y74000
X72050Y74000
X69510Y74000
X66970Y74000
X64430Y74000
X61890Y74000
X59350Y74000
X56810Y74000
X54270Y74000
X51730Y74000
X49190Y74000
X46650Y74000
X44110Y74000
X41570Y74000
X39030Y74000
X36490Y74000
X33950Y74000
X31410Y74000
X28870Y74000
X26330Y74000
X23790Y74000
X21250Y74000
X18710Y74000
X16170Y74000
X91830Y10000
X89290Y10000
X86750Y10000
X84210Y10000
X81670Y10000
X79130Y10000
X76590Y10000
X74050Y10000
X71510Y10000
X68970Y10000
X66430Y10000
X63890Y10000
X61350Y10000
X58810Y10000
X56270Y10000
X53730Y10000
X51190Y10000
X48650Y10000
X46110Y10000
X43570Y10000
X41030Y10000
X38490Y10000
X35950Y10000
X33410Y10000
X30870Y10000
X28330Y10000
X25790Y10000
X23250Y10000
X20710Y10000
X18170Y10000
X21000Y65130
X21000Y62590
X21000Y60050
X21000Y57510
X21000Y54970
X21000Y52430
X21000Y49890
X21000Y47350
X21000Y44810
X21000Y42270
X21000Y39730
X21000Y37190
X21000Y34650
X21000Y32110
X21000Y29570
X21000Y27030
X21000Y24490
X21000Y21950
X21000Y19410
X21000Y16870
T5
X10680Y59100
X10680Y56560
X10680Y54020
X10680Y51480
X10680Y48940
X10680Y46400
X10680Y43860
X10680Y41320
X10680Y38780
X10680Y36240
X10680Y33700
X10680Y31160
X10680Y28620
X10680Y26080
X10680Y23540
X10680Y21000
X8140Y59100
X8140Y56560
X8140Y54020
X8140Y51480
X8140Y48940
X8140Y46400
X8140Y43860
X8140Y41320
X8140Y38780
X8140Y36240
X8140Y33700
X8140Y31160
X8140Y28620
X8140Y26080
X8140Y23540
X8140Y21000
X5600Y59100
X5600Y56560
X5600Y54020
X5600Y51480
X5600Y48940
X5600Y46400
X5600Y43860
X5600Y41320
X5600Y38780
X5600Y36240
X5600Y33700
X5600Y31160
X5600Y28620
X5600Y26080
X5600Y23540
X5600Y21000
T6
X27810Y31760
X30350Y31760
X32890Y31760
X35430Y31760
X37970Y31760
X40510Y31760
X43050Y31760
X45590Y31760
X48130Y31760
X50670Y31760
X53210Y31760
X55750Y31760
X58290Y31760
X60830Y31760
X63370Y31760
X65910Y31760
X68450Y31760
X70990Y31760
X73530Y31760
X76070Y31760
X78610Y31760
X78610Y31760
X81150Y31760
X83690Y31760
X86230Y31760
X25270Y34300
X25270Y34300
X27810Y34300
X30350Y34300
X32890Y34300
X35430Y34300
X37970Y34300
X40510Y34300
X43050Y34300
X45590Y34300
X48130Y34300
X50670Y34300
X53210Y34300
X55750Y34300
X58290Y34300
X60830Y34300
X63370Y34300
X65910Y34300
X68450Y34300
X70990Y34300
X73530Y34300
X76070Y34300
X78610Y34300
X78610Y34300
X81150Y34300
X83690Y34300
X86230Y34300
X25270Y36840
X25270Y36840
X27810Y36840
X30350Y36840
X32890Y36840
X35430Y36840
X37970Y36840
X40510Y36840
X43050Y36840
X45590Y36840
X48130Y36840
X50670Y36840
X53210Y36840
X55750Y36840
X58290Y36840
X60830Y36840
X63370Y36840
X65910Y36840
X68450Y36840
X70990Y36840
X73530Y36840
X76070Y36840
X78610Y36840
X78610Y36840
X81150Y36840
X83690Y36840
X86230Y36840
X25270Y39380
X25270Y39380
X27810Y39380
X30350Y39380
X32890Y39380
X35430Y39380
X37970Y39380
X40510Y39380
X43050Y39380
X45590Y39380
X48130Y39380
X50670Y39380
X53210Y39380
X55750Y39380
X58290Y39380
X60830Y39380
X63370Y39380
X65910Y39380
X68450Y39380
X70990Y39380
X73530Y39380
X76070Y39380
X78610Y39380
X78610Y39380
X81150Y39380
X83690Y39380
X86230Y39380
X25270Y41920
X25270Y41920
X27810Y41920
X30350Y41920
X32890Y41920
X35430Y41920
X37970Y41920
X40510Y41920
X43050Y41920
X45590Y41920
X48130Y41920
X50670Y41920
X53210Y41920
X55750Y41920
X58290Y41920
X60830Y41920
X63370Y41920
X65910Y41920
X68450Y41920
X70990Y41920
X73530Y41920
X76070Y41920
X78610Y41920
X78610Y41920
X81150Y41920
X83690Y41920
X86230Y41920
X25270Y44460
X25270Y44460
X27810Y44460
X30350Y44460
X32890Y44460
X35430Y44460
X37970Y44460
X40510Y44460
X43050Y44460
X45590Y44460
X48130Y44460
X50670Y44460
X53210Y44460
X55750Y44460
X58290Y44460
X60830Y44460
X63370Y44460
X65910Y44460
X68450Y44460
X70990Y44460
X73530Y44460
X76070Y44460
X78610Y44460
X78610Y44460
X81150Y44460
X83690Y44460
X86230Y44460
X25270Y47000
X25270Y47000
X27810Y47000
X30350Y47000
X32890Y47000
X35430Y47000
X37970Y47000
X40510Y47000
X43050Y47000
X45590Y47000
X48130Y47000
X50670Y47000
X53210Y47000
X55750Y47000
X58290Y47000
X60830Y47000
X63370Y47000
X65910Y47000
X68450Y47000
X70990Y47000
X73530Y47000
X76070Y47000
X78610Y47000
X78610Y47000
X81150Y47000
X83690Y47000
X86230Y47000
X25270Y49540
X25270Y49540
X27810Y49540
X30350Y49540
X32890Y49540
X35430Y49540
X37970Y49540
X40510Y49540
X43050Y49540
X45590Y49540
X48130Y49540
X50670Y49540
X53210Y49540
X55750Y49540
X58290Y49540
X60830Y49540
X63370Y49540
X65910Y49540
X68450Y49540
X70990Y49540
X73530Y49540
X76070Y49540
X78610Y49540
X78610Y49540
X81150Y49540
X83690Y49540
X86230Y49540
X25270Y52080
X25270Y52080
X27810Y52080
X30350Y52080
X32890Y52080
X35430Y52080
X37970Y52080
X40510Y52080
X43050Y52080
X45590Y52080
X48130Y52080
X50670Y52080
X53210Y52080
X55750Y52080
X58290Y52080
X60830Y52080
X63370Y52080
X65910Y52080
X68450Y52080
X70990Y52080
X73530Y52080
X76070Y52080
X78610Y52080
X78610Y52080
X81150Y52080
X83690Y52080
X86230Y52080
X25270Y54620
X25270Y54620
X27810Y54620
X30350Y54620
X32890Y54620
X35430Y54620
X37970Y54620
X40510Y54620
X43050Y54620
X45590Y54620
X48130Y54620
X50670Y54620
X53210Y54620
X55750Y54620
X58290Y54620
X60830Y54620
X63370Y54620
X65910Y54620
X68450Y54620
X70990Y54620
X73530Y54620
X76070Y54620
X78610Y54620
X78610Y54620
X81150Y54620
X83690Y54620
X86230Y54620
X25270Y57160
X25270Y57160
X27810Y57160
X30350Y57160
X32890Y57160
X35430Y57160
X37970Y57160
X40510Y57160
X43050Y57160
X45590Y57160
X48130Y57160
X50670Y57160
X53210Y57160
X55750Y57160
X58290Y57160
X60830Y57160
X63370Y57160
X65910Y57160
X68450Y57160
X70990Y57160
X73530Y57160
X76070Y57160
X78610Y57160
X78610Y57160
X81150Y57160
X83690Y57160
X86230Y57160
X25270Y59700
X25270Y59700
X27810Y59700
X30350Y59700
X32890Y59700
X35430Y59700
X37970Y59700
X40510Y59700
X43050Y59700
X45590Y59700
X48130Y59700
X50670Y59700
X53210Y59700
X55750Y59700
X58290Y59700
X60830Y59700
X63370Y59700
X65910Y59700
X68450Y59700
X70990Y59700
X73530Y59700
X76070Y59700
X78610Y59700
X78610Y59700
X81150Y59700
X83690Y59700
X86230Y59700
X25270Y62240
X25270Y62240
X27810Y62240
X30350Y62240
X32890Y62240
X35430Y62240
X37970Y62240
X40510Y62240
X43050Y62240
X45590Y62240
X48130Y62240
X50670Y62240
X53210Y62240
X55750Y62240
X58290Y62240
X60830Y62240
X63370Y62240
X65910Y62240
X68450Y62240
X70990Y62240
X73530Y62240
X76070Y62240
X78610Y62240
X78610Y62240
X81150Y62240
X83690Y62240
X86230Y62240
X25270Y64780
X25270Y64780
X27810Y64780
X30350Y64780
X32890Y64780
X35430Y64780
X37970Y64780
X40510Y64780
X43050Y64780
X45590Y64780
X48130Y64780
X50670Y64780
X53210Y64780
X55750Y64780
X58290Y64780
X60830Y64780
X63370Y64780
X65910Y64780
X68450Y64780
X70990Y64780
X73530Y64780
X76070Y64780
X78610Y64780
X78610Y64780
X81150Y64780
X83690Y64780
X86230Y64780
X25270Y67320
X25270Y67320
X27810Y67320
X30350Y67320
X32890Y67320
X35430Y67320
X37970Y67320
X40510Y67320
X43050Y67320
X45590Y67320
X48130Y67320
X50670Y67320
X53210Y67320
X55750Y67320
X58290Y67320
X60830Y67320
X63370Y67320
X65910Y67320
X68450Y67320
X70990Y67320
X73530Y67320
X76070Y67320
X78610Y67320
X78610Y67320
X81150Y67320
X83690Y67320
X86230Y67320
X25270Y31760
X25270Y31760
X86230Y29220
X83690Y29220
X81150Y29220
X78610Y29220
X78610Y29220
X76070Y29220
X73530Y29220
X70990Y29220
X68450Y29220
X65910Y29220
X63370Y29220
X60830Y29220
X58290Y29220
X55750Y29220
X53210Y29220
X50670Y29220
X48130Y29220
X45590Y29220
X43050Y29220
X40510Y29220
X37970Y29220
X35430Y29220
X32890Y29220
X30350Y29220
X27810Y29220
X25270Y29220
X25270Y29220
X86230Y26680
X83690Y26680
X81150Y26680
X78610Y26680
X78610Y26680
X76070Y26680
X73530Y26680
X70990Y26680
X68450Y26680
X65910Y26680
X63370Y26680
X60830Y26680
X58290Y26680
X55750Y26680
X53210Y26680
X50670Y26680
X48130Y26680
X45590Y26680
X43050Y26680
X40510Y26680
X37970Y26680
X35430Y26680
X32890Y26680
X30350Y26680
X27810Y26680
X25270Y26680
X25270Y26680
X86230Y24140
X83690Y24140
X81150Y24140
X78610Y24140
X78610Y24140
X76070Y24140
X73530Y24140
X70990Y24140
X68450Y24140
X65910Y24140
X63370Y24140
X60830Y24140
X58290Y24140
X55750Y24140
X53210Y24140
X50670Y24140
X48130Y24140
X45590Y24140
X43050Y24140
X40510Y24140
X37970Y24140
X35430Y24140
X32890Y24140
X30350Y24140
X27810Y24140
X25270Y24140
X25270Y24140
X86230Y21600
X83690Y21600
X81150Y21600
X78610Y21600
X78610Y21600
X76070Y21600
X73530Y21600
X70990Y21600
X68450Y21600
X65910Y21600
X63370Y21600
X60830Y21600
X58290Y21600
X55750Y21600
X53210Y21600
X50670Y21600
X48130Y21600
X45590Y21600
X43050Y21600
X40510Y21600
X37970Y21600
X35430Y21600
X32890Y21600
X30350Y21600
X27810Y21600
X25270Y21600
X25270Y21600
X86230Y19060
X83690Y19060
X81150Y19060
X78610Y19060
X78610Y19060
X76070Y19060
X73530Y19060
X70990Y19060
X68450Y19060
X65910Y19060
X63370Y19060
X60830Y19060
X58290Y19060
X55750Y19060
X53210Y19060
X50670Y19060
X48130Y19060
X45590Y19060
X43050Y19060
X40510Y19060
X37970Y19060
X35430Y19060
X32890Y19060
X30350Y19060
X27810Y19060
X25270Y19060
X25270Y19060
X86230Y16520
X83690Y16520
X81150Y16520
X78610Y16520
X78610Y16520
X76070Y16520
X73530Y16520
X70990Y16520
X68450Y16520
X65910Y16520
X63370Y16520
X60830Y16520
X58290Y16520
X55750Y16520
X53210Y16520
X50670Y16520
X48130Y16520
X45590Y16520
X43050Y16520
X40510Y16520
X37970Y16520
X35430Y16520
X32890Y16520
X30350Y16520
X27810Y16520
X25270Y16520
X25270Y16520
X86230Y13980
X83690Y13980
X81150Y13980
X78610Y13980
X78610Y13980
X76070Y13980
X73530Y13980
X70990Y13980
X68450Y13980
X65910Y13980
X63370Y13980
X60830Y13980
X58290Y13980
X55750Y13980
X53210Y13980
X50670Y13980
X48130Y13980
X45590Y13980
X43050Y13980
X40510Y13980
X37970Y13980
X35430Y13980
X32890Y13980
X30350Y13980
X27810Y13980
X25270Y13980
X25270Y13980
T7
X9600Y37900
X13000Y38000
X12400Y33400
X6870Y35693
X4000Y36000
X3000Y37000
X15400Y53600
X9942Y52942
X12000Y55000
X6942Y55942
X14935Y59065
M30