G04 EAGLE Gerber RS-274X export*
G75*
%MOMM*%
%FSLAX34Y34*%
%LPD*%
%INTop Copper*%
%IPPOS*%
%AMOC8*
5,1,8,0,0,1.08239X$1,22.5*%
G01*
%ADD10R,1.508000X1.508000*%
%ADD11C,1.508000*%
%ADD12C,1.343400*%
%ADD13R,0.304800X0.990600*%
%ADD14C,1.900000*%
%ADD15P,1.649562X8X22.500000*%
%ADD16C,0.203200*%
%ADD17R,0.635000X1.270000*%
%ADD18R,1.500000X1.500000*%
%ADD19P,1.623585X8X292.500000*%
%ADD20C,1.524000*%
%ADD21C,1.270000*%
%ADD22C,0.756400*%
%ADD23C,0.508000*%
%ADD24C,0.304800*%
%ADD25C,0.254000*%

G36*
X988342Y10164D02*
X988342Y10164D01*
X988368Y10162D01*
X988515Y10184D01*
X988662Y10201D01*
X988687Y10209D01*
X988713Y10213D01*
X988851Y10268D01*
X988990Y10318D01*
X989012Y10332D01*
X989037Y10342D01*
X989158Y10427D01*
X989283Y10507D01*
X989301Y10526D01*
X989323Y10541D01*
X989422Y10651D01*
X989525Y10758D01*
X989539Y10780D01*
X989556Y10800D01*
X989628Y10930D01*
X989704Y11057D01*
X989712Y11082D01*
X989725Y11105D01*
X989765Y11248D01*
X989810Y11389D01*
X989812Y11415D01*
X989820Y11440D01*
X989839Y11684D01*
X989839Y40682D01*
X989828Y40782D01*
X989826Y40883D01*
X989808Y40955D01*
X989799Y41029D01*
X989766Y41123D01*
X989741Y41221D01*
X989707Y41287D01*
X989682Y41357D01*
X989627Y41441D01*
X989581Y41530D01*
X989533Y41587D01*
X989493Y41650D01*
X989421Y41719D01*
X989356Y41796D01*
X989296Y41840D01*
X989242Y41892D01*
X989156Y41943D01*
X989075Y42003D01*
X989007Y42032D01*
X988943Y42071D01*
X988847Y42101D01*
X988755Y42141D01*
X988682Y42154D01*
X988611Y42177D01*
X988511Y42185D01*
X988412Y42203D01*
X988338Y42199D01*
X988264Y42205D01*
X988164Y42190D01*
X988064Y42185D01*
X987993Y42164D01*
X987919Y42153D01*
X987826Y42116D01*
X987729Y42088D01*
X987664Y42052D01*
X987595Y42024D01*
X987513Y41967D01*
X987425Y41918D01*
X987349Y41853D01*
X987309Y41825D01*
X987285Y41799D01*
X987239Y41760D01*
X983728Y38249D01*
X975859Y34989D01*
X967341Y34989D01*
X959472Y38249D01*
X953449Y44272D01*
X950189Y52141D01*
X950189Y60659D01*
X953449Y68528D01*
X959472Y74551D01*
X967341Y77811D01*
X975859Y77811D01*
X983728Y74551D01*
X987239Y71040D01*
X987317Y70978D01*
X987390Y70908D01*
X987454Y70870D01*
X987512Y70824D01*
X987603Y70781D01*
X987689Y70729D01*
X987760Y70707D01*
X987827Y70675D01*
X987925Y70654D01*
X988021Y70623D01*
X988095Y70617D01*
X988168Y70602D01*
X988268Y70603D01*
X988368Y70595D01*
X988442Y70606D01*
X988516Y70607D01*
X988613Y70632D01*
X988713Y70647D01*
X988782Y70674D01*
X988854Y70692D01*
X988944Y70739D01*
X989037Y70776D01*
X989098Y70818D01*
X989164Y70852D01*
X989240Y70917D01*
X989323Y70975D01*
X989373Y71030D01*
X989429Y71078D01*
X989489Y71159D01*
X989556Y71233D01*
X989592Y71298D01*
X989637Y71358D01*
X989676Y71450D01*
X989725Y71538D01*
X989745Y71610D01*
X989775Y71678D01*
X989792Y71777D01*
X989820Y71874D01*
X989828Y71974D01*
X989836Y72021D01*
X989834Y72057D01*
X989839Y72118D01*
X989839Y727882D01*
X989828Y727982D01*
X989826Y728083D01*
X989808Y728155D01*
X989799Y728229D01*
X989766Y728323D01*
X989741Y728421D01*
X989707Y728487D01*
X989682Y728557D01*
X989627Y728641D01*
X989581Y728730D01*
X989533Y728787D01*
X989493Y728850D01*
X989421Y728919D01*
X989356Y728996D01*
X989296Y729040D01*
X989242Y729092D01*
X989156Y729143D01*
X989075Y729203D01*
X989007Y729232D01*
X988943Y729271D01*
X988847Y729301D01*
X988755Y729341D01*
X988682Y729354D01*
X988611Y729377D01*
X988511Y729385D01*
X988412Y729403D01*
X988338Y729399D01*
X988264Y729405D01*
X988164Y729390D01*
X988064Y729385D01*
X987993Y729364D01*
X987919Y729353D01*
X987826Y729316D01*
X987729Y729288D01*
X987664Y729252D01*
X987595Y729224D01*
X987513Y729167D01*
X987425Y729118D01*
X987349Y729053D01*
X987309Y729025D01*
X987285Y728999D01*
X987239Y728960D01*
X983728Y725449D01*
X975859Y722189D01*
X967341Y722189D01*
X959472Y725449D01*
X953449Y731472D01*
X950189Y739341D01*
X950189Y747859D01*
X953449Y755728D01*
X959472Y761751D01*
X967341Y765011D01*
X975859Y765011D01*
X983728Y761751D01*
X987239Y758240D01*
X987317Y758178D01*
X987390Y758108D01*
X987454Y758070D01*
X987512Y758024D01*
X987603Y757981D01*
X987689Y757929D01*
X987760Y757907D01*
X987827Y757875D01*
X987925Y757854D01*
X988021Y757823D01*
X988095Y757817D01*
X988168Y757802D01*
X988268Y757803D01*
X988368Y757795D01*
X988442Y757806D01*
X988516Y757807D01*
X988613Y757832D01*
X988713Y757847D01*
X988782Y757874D01*
X988854Y757892D01*
X988944Y757939D01*
X989037Y757976D01*
X989098Y758018D01*
X989164Y758052D01*
X989240Y758117D01*
X989323Y758175D01*
X989373Y758230D01*
X989429Y758278D01*
X989489Y758359D01*
X989556Y758433D01*
X989592Y758498D01*
X989637Y758558D01*
X989676Y758650D01*
X989725Y758738D01*
X989745Y758810D01*
X989775Y758878D01*
X989792Y758977D01*
X989820Y759074D01*
X989828Y759174D01*
X989836Y759221D01*
X989834Y759257D01*
X989839Y759318D01*
X989839Y788316D01*
X989836Y788342D01*
X989838Y788368D01*
X989816Y788515D01*
X989799Y788662D01*
X989791Y788687D01*
X989787Y788713D01*
X989732Y788851D01*
X989682Y788990D01*
X989668Y789012D01*
X989658Y789037D01*
X989573Y789158D01*
X989493Y789283D01*
X989474Y789301D01*
X989459Y789323D01*
X989349Y789422D01*
X989242Y789525D01*
X989220Y789539D01*
X989200Y789556D01*
X989070Y789628D01*
X988943Y789704D01*
X988918Y789712D01*
X988895Y789725D01*
X988752Y789765D01*
X988611Y789810D01*
X988585Y789812D01*
X988560Y789820D01*
X988316Y789839D01*
X11684Y789839D01*
X11658Y789836D01*
X11632Y789838D01*
X11485Y789816D01*
X11338Y789799D01*
X11313Y789791D01*
X11287Y789787D01*
X11149Y789732D01*
X11010Y789682D01*
X10988Y789668D01*
X10963Y789658D01*
X10842Y789573D01*
X10717Y789493D01*
X10699Y789474D01*
X10677Y789459D01*
X10578Y789349D01*
X10475Y789242D01*
X10461Y789220D01*
X10444Y789200D01*
X10372Y789070D01*
X10296Y788943D01*
X10288Y788918D01*
X10275Y788895D01*
X10235Y788752D01*
X10190Y788611D01*
X10188Y788585D01*
X10180Y788560D01*
X10161Y788316D01*
X10161Y759318D01*
X10172Y759218D01*
X10174Y759117D01*
X10192Y759045D01*
X10201Y758971D01*
X10234Y758877D01*
X10259Y758779D01*
X10293Y758713D01*
X10318Y758643D01*
X10373Y758559D01*
X10419Y758470D01*
X10467Y758413D01*
X10507Y758350D01*
X10579Y758281D01*
X10644Y758204D01*
X10704Y758160D01*
X10758Y758108D01*
X10844Y758057D01*
X10925Y757997D01*
X10993Y757968D01*
X11057Y757929D01*
X11153Y757899D01*
X11245Y757859D01*
X11318Y757846D01*
X11389Y757823D01*
X11489Y757815D01*
X11588Y757797D01*
X11662Y757801D01*
X11736Y757795D01*
X11836Y757810D01*
X11936Y757815D01*
X12007Y757836D01*
X12081Y757847D01*
X12174Y757884D01*
X12271Y757912D01*
X12336Y757948D01*
X12405Y757976D01*
X12487Y758033D01*
X12575Y758082D01*
X12651Y758147D01*
X12691Y758175D01*
X12715Y758201D01*
X12761Y758240D01*
X16272Y761751D01*
X24141Y765011D01*
X32659Y765011D01*
X40528Y761751D01*
X46551Y755728D01*
X49811Y747859D01*
X49811Y739341D01*
X46551Y731472D01*
X40528Y725449D01*
X32659Y722189D01*
X24141Y722189D01*
X16272Y725449D01*
X12761Y728960D01*
X12683Y729022D01*
X12610Y729092D01*
X12546Y729130D01*
X12488Y729176D01*
X12397Y729219D01*
X12311Y729271D01*
X12240Y729293D01*
X12173Y729325D01*
X12075Y729346D01*
X11979Y729377D01*
X11905Y729383D01*
X11832Y729398D01*
X11732Y729397D01*
X11632Y729405D01*
X11558Y729394D01*
X11484Y729393D01*
X11387Y729368D01*
X11287Y729353D01*
X11218Y729326D01*
X11146Y729308D01*
X11056Y729261D01*
X10963Y729224D01*
X10902Y729182D01*
X10836Y729148D01*
X10760Y729083D01*
X10677Y729025D01*
X10627Y728970D01*
X10571Y728922D01*
X10511Y728841D01*
X10444Y728767D01*
X10408Y728702D01*
X10363Y728642D01*
X10324Y728550D01*
X10275Y728462D01*
X10255Y728390D01*
X10225Y728322D01*
X10208Y728223D01*
X10180Y728126D01*
X10172Y728026D01*
X10164Y727979D01*
X10166Y727943D01*
X10161Y727882D01*
X10161Y659207D01*
X10172Y659107D01*
X10174Y659006D01*
X10192Y658934D01*
X10201Y658860D01*
X10234Y658766D01*
X10259Y658668D01*
X10293Y658602D01*
X10318Y658532D01*
X10373Y658448D01*
X10419Y658359D01*
X10467Y658302D01*
X10507Y658239D01*
X10579Y658170D01*
X10644Y658093D01*
X10704Y658049D01*
X10758Y657997D01*
X10844Y657946D01*
X10925Y657886D01*
X10993Y657857D01*
X11057Y657818D01*
X11153Y657788D01*
X11245Y657748D01*
X11318Y657735D01*
X11389Y657712D01*
X11489Y657704D01*
X11588Y657686D01*
X11662Y657690D01*
X11736Y657684D01*
X11836Y657699D01*
X11936Y657704D01*
X12007Y657725D01*
X12081Y657736D01*
X12174Y657773D01*
X12271Y657801D01*
X12336Y657837D01*
X12405Y657865D01*
X12487Y657922D01*
X12575Y657971D01*
X12651Y658036D01*
X12691Y658064D01*
X12715Y658090D01*
X12761Y658129D01*
X15765Y661133D01*
X21274Y664314D01*
X27419Y665961D01*
X33781Y665961D01*
X39926Y664314D01*
X45435Y661133D01*
X49933Y656635D01*
X53114Y651126D01*
X54761Y644981D01*
X54761Y638619D01*
X53114Y632474D01*
X49933Y626965D01*
X45435Y622467D01*
X39926Y619286D01*
X33781Y617639D01*
X27419Y617639D01*
X21274Y619286D01*
X15765Y622467D01*
X12761Y625471D01*
X12683Y625533D01*
X12610Y625603D01*
X12546Y625641D01*
X12488Y625687D01*
X12397Y625730D01*
X12311Y625782D01*
X12240Y625804D01*
X12173Y625836D01*
X12075Y625857D01*
X11979Y625888D01*
X11905Y625894D01*
X11832Y625909D01*
X11732Y625908D01*
X11632Y625916D01*
X11558Y625905D01*
X11484Y625903D01*
X11387Y625879D01*
X11287Y625864D01*
X11218Y625837D01*
X11146Y625818D01*
X11057Y625772D01*
X10963Y625735D01*
X10902Y625693D01*
X10836Y625659D01*
X10760Y625594D01*
X10677Y625536D01*
X10627Y625481D01*
X10571Y625433D01*
X10511Y625352D01*
X10444Y625278D01*
X10408Y625213D01*
X10363Y625153D01*
X10324Y625060D01*
X10275Y624973D01*
X10255Y624901D01*
X10225Y624833D01*
X10208Y624734D01*
X10180Y624637D01*
X10172Y624537D01*
X10164Y624490D01*
X10166Y624454D01*
X10161Y624393D01*
X10161Y176607D01*
X10172Y176507D01*
X10174Y176406D01*
X10192Y176334D01*
X10201Y176260D01*
X10234Y176166D01*
X10259Y176068D01*
X10293Y176002D01*
X10318Y175932D01*
X10373Y175848D01*
X10419Y175759D01*
X10467Y175702D01*
X10507Y175639D01*
X10579Y175570D01*
X10644Y175493D01*
X10704Y175449D01*
X10758Y175397D01*
X10844Y175346D01*
X10925Y175286D01*
X10993Y175257D01*
X11057Y175218D01*
X11153Y175188D01*
X11245Y175148D01*
X11318Y175135D01*
X11389Y175112D01*
X11489Y175104D01*
X11588Y175086D01*
X11662Y175090D01*
X11736Y175084D01*
X11836Y175099D01*
X11936Y175104D01*
X12007Y175125D01*
X12081Y175136D01*
X12174Y175173D01*
X12271Y175201D01*
X12336Y175237D01*
X12405Y175265D01*
X12487Y175322D01*
X12575Y175371D01*
X12651Y175436D01*
X12691Y175464D01*
X12715Y175490D01*
X12761Y175529D01*
X15765Y178533D01*
X21274Y181714D01*
X27419Y183361D01*
X33781Y183361D01*
X39926Y181714D01*
X45435Y178533D01*
X49933Y174035D01*
X53114Y168526D01*
X54761Y162381D01*
X54761Y156019D01*
X53114Y149874D01*
X49933Y144365D01*
X45435Y139867D01*
X39926Y136686D01*
X33781Y135039D01*
X27419Y135039D01*
X21274Y136686D01*
X15765Y139867D01*
X12761Y142871D01*
X12683Y142933D01*
X12610Y143003D01*
X12546Y143041D01*
X12488Y143087D01*
X12397Y143130D01*
X12311Y143182D01*
X12240Y143204D01*
X12173Y143236D01*
X12075Y143257D01*
X11979Y143288D01*
X11905Y143294D01*
X11832Y143309D01*
X11732Y143308D01*
X11632Y143316D01*
X11558Y143305D01*
X11484Y143303D01*
X11387Y143279D01*
X11287Y143264D01*
X11218Y143237D01*
X11146Y143218D01*
X11057Y143172D01*
X10963Y143135D01*
X10902Y143093D01*
X10836Y143059D01*
X10760Y142994D01*
X10677Y142936D01*
X10627Y142881D01*
X10571Y142833D01*
X10511Y142752D01*
X10444Y142678D01*
X10408Y142613D01*
X10363Y142553D01*
X10324Y142460D01*
X10275Y142373D01*
X10255Y142301D01*
X10225Y142233D01*
X10208Y142134D01*
X10180Y142037D01*
X10172Y141937D01*
X10164Y141890D01*
X10166Y141854D01*
X10161Y141793D01*
X10161Y72118D01*
X10172Y72018D01*
X10174Y71917D01*
X10192Y71845D01*
X10201Y71771D01*
X10234Y71677D01*
X10259Y71579D01*
X10293Y71513D01*
X10318Y71443D01*
X10373Y71359D01*
X10419Y71270D01*
X10467Y71213D01*
X10507Y71150D01*
X10579Y71081D01*
X10644Y71004D01*
X10704Y70960D01*
X10758Y70908D01*
X10844Y70857D01*
X10925Y70797D01*
X10993Y70768D01*
X11057Y70729D01*
X11153Y70699D01*
X11245Y70659D01*
X11318Y70646D01*
X11389Y70623D01*
X11489Y70615D01*
X11588Y70597D01*
X11662Y70601D01*
X11736Y70595D01*
X11836Y70610D01*
X11936Y70615D01*
X12007Y70636D01*
X12081Y70647D01*
X12174Y70684D01*
X12271Y70712D01*
X12336Y70748D01*
X12405Y70776D01*
X12487Y70833D01*
X12575Y70882D01*
X12651Y70947D01*
X12691Y70975D01*
X12715Y71001D01*
X12761Y71040D01*
X16272Y74551D01*
X24141Y77811D01*
X32659Y77811D01*
X40528Y74551D01*
X46551Y68528D01*
X49811Y60659D01*
X49811Y52141D01*
X46551Y44272D01*
X40528Y38249D01*
X32659Y34989D01*
X24141Y34989D01*
X16272Y38249D01*
X12761Y41760D01*
X12683Y41822D01*
X12610Y41892D01*
X12546Y41930D01*
X12488Y41976D01*
X12397Y42019D01*
X12311Y42071D01*
X12240Y42093D01*
X12173Y42125D01*
X12075Y42146D01*
X11979Y42177D01*
X11905Y42183D01*
X11832Y42198D01*
X11732Y42197D01*
X11632Y42205D01*
X11558Y42194D01*
X11484Y42193D01*
X11387Y42168D01*
X11287Y42153D01*
X11218Y42126D01*
X11146Y42108D01*
X11056Y42061D01*
X10963Y42024D01*
X10902Y41982D01*
X10836Y41948D01*
X10760Y41883D01*
X10677Y41825D01*
X10627Y41770D01*
X10571Y41722D01*
X10511Y41641D01*
X10444Y41567D01*
X10408Y41502D01*
X10363Y41442D01*
X10324Y41350D01*
X10275Y41262D01*
X10255Y41190D01*
X10225Y41122D01*
X10208Y41023D01*
X10180Y40926D01*
X10172Y40826D01*
X10164Y40779D01*
X10166Y40743D01*
X10161Y40682D01*
X10161Y11684D01*
X10164Y11658D01*
X10162Y11632D01*
X10184Y11485D01*
X10201Y11338D01*
X10209Y11313D01*
X10213Y11287D01*
X10268Y11149D01*
X10318Y11010D01*
X10332Y10988D01*
X10342Y10963D01*
X10427Y10842D01*
X10507Y10717D01*
X10526Y10699D01*
X10541Y10677D01*
X10651Y10578D01*
X10758Y10475D01*
X10780Y10461D01*
X10800Y10444D01*
X10930Y10372D01*
X11057Y10296D01*
X11082Y10288D01*
X11105Y10275D01*
X11248Y10235D01*
X11389Y10190D01*
X11415Y10188D01*
X11440Y10180D01*
X11684Y10161D01*
X988316Y10161D01*
X988342Y10164D01*
G37*
%LPC*%
G36*
X668842Y187205D02*
X668842Y187205D01*
X659955Y196092D01*
X659955Y197353D01*
X659941Y197478D01*
X659934Y197604D01*
X659921Y197651D01*
X659915Y197699D01*
X659873Y197818D01*
X659838Y197939D01*
X659814Y197981D01*
X659798Y198027D01*
X659729Y198133D01*
X659701Y198183D01*
X659701Y209457D01*
X659726Y209487D01*
X659780Y209602D01*
X659841Y209712D01*
X659854Y209759D01*
X659875Y209802D01*
X659901Y209926D01*
X659936Y210048D01*
X659941Y210108D01*
X659948Y210143D01*
X659947Y210191D01*
X659955Y210291D01*
X659955Y255708D01*
X659941Y255834D01*
X659934Y255960D01*
X659921Y256007D01*
X659915Y256055D01*
X659873Y256174D01*
X659838Y256295D01*
X659814Y256337D01*
X659798Y256383D01*
X659729Y256489D01*
X659701Y256539D01*
X659701Y260643D01*
X659687Y260769D01*
X659680Y260895D01*
X659667Y260942D01*
X659661Y260990D01*
X659619Y261109D01*
X659584Y261230D01*
X659560Y261272D01*
X659544Y261318D01*
X659475Y261424D01*
X659414Y261534D01*
X659374Y261581D01*
X659355Y261611D01*
X659320Y261644D01*
X659255Y261721D01*
X657205Y263770D01*
X657205Y284659D01*
X657191Y284785D01*
X657184Y284911D01*
X657171Y284957D01*
X657165Y285005D01*
X657123Y285124D01*
X657088Y285246D01*
X657064Y285288D01*
X657048Y285333D01*
X656979Y285439D01*
X656918Y285550D01*
X656878Y285596D01*
X656859Y285626D01*
X656824Y285660D01*
X656759Y285736D01*
X655501Y286994D01*
X654693Y288944D01*
X654693Y291056D01*
X655501Y293006D01*
X657100Y294605D01*
X657163Y294684D01*
X657232Y294756D01*
X657271Y294820D01*
X657317Y294878D01*
X657360Y294969D01*
X657411Y295055D01*
X657434Y295126D01*
X657466Y295193D01*
X657487Y295291D01*
X657517Y295387D01*
X657523Y295461D01*
X657539Y295534D01*
X657537Y295634D01*
X657545Y295734D01*
X657534Y295808D01*
X657533Y295882D01*
X657509Y295979D01*
X657494Y296079D01*
X657466Y296148D01*
X657448Y296220D01*
X657402Y296309D01*
X657365Y296403D01*
X657322Y296464D01*
X657288Y296530D01*
X657223Y296606D01*
X657166Y296689D01*
X657111Y296739D01*
X657063Y296795D01*
X656982Y296855D01*
X656907Y296922D01*
X656842Y296958D01*
X656782Y297003D01*
X656690Y297042D01*
X656602Y297091D01*
X656531Y297111D01*
X656462Y297141D01*
X656363Y297158D01*
X656267Y297186D01*
X656167Y297194D01*
X656119Y297202D01*
X656084Y297200D01*
X656023Y297205D01*
X312289Y297205D01*
X312163Y297191D01*
X312037Y297184D01*
X311990Y297171D01*
X311942Y297165D01*
X311823Y297123D01*
X311702Y297088D01*
X311660Y297064D01*
X311614Y297048D01*
X311508Y296979D01*
X311398Y296918D01*
X311351Y296878D01*
X311321Y296859D01*
X311288Y296824D01*
X311211Y296759D01*
X310020Y295567D01*
X310003Y295547D01*
X309983Y295529D01*
X309895Y295410D01*
X309803Y295294D01*
X309792Y295270D01*
X309776Y295249D01*
X309717Y295113D01*
X309654Y294979D01*
X309648Y294953D01*
X309638Y294929D01*
X309612Y294783D01*
X309581Y294638D01*
X309581Y294612D01*
X309576Y294586D01*
X309584Y294438D01*
X309587Y294290D01*
X309593Y294264D01*
X309594Y294238D01*
X309636Y294095D01*
X309645Y294059D01*
X309645Y286212D01*
X304288Y280855D01*
X296712Y280855D01*
X292078Y285489D01*
X291979Y285568D01*
X291885Y285652D01*
X291843Y285676D01*
X291805Y285706D01*
X291691Y285760D01*
X291580Y285821D01*
X291534Y285834D01*
X291490Y285855D01*
X291367Y285881D01*
X291245Y285916D01*
X291184Y285921D01*
X291150Y285928D01*
X291101Y285927D01*
X291001Y285935D01*
X281303Y285935D01*
X281277Y285932D01*
X281251Y285934D01*
X281104Y285912D01*
X280957Y285895D01*
X280932Y285887D01*
X280906Y285883D01*
X280768Y285828D01*
X280629Y285778D01*
X280607Y285764D01*
X280582Y285754D01*
X280461Y285669D01*
X280336Y285589D01*
X280318Y285570D01*
X280296Y285555D01*
X280197Y285445D01*
X280094Y285338D01*
X280080Y285316D01*
X280063Y285296D01*
X279991Y285166D01*
X279915Y285039D01*
X279907Y285014D01*
X279894Y284991D01*
X279854Y284848D01*
X279809Y284707D01*
X279807Y284681D01*
X279799Y284656D01*
X279780Y284412D01*
X279780Y283018D01*
X278887Y282125D01*
X271273Y282125D01*
X271077Y282322D01*
X271057Y282338D01*
X271040Y282358D01*
X270920Y282446D01*
X270804Y282538D01*
X270780Y282549D01*
X270759Y282565D01*
X270623Y282624D01*
X270489Y282687D01*
X270463Y282693D01*
X270439Y282703D01*
X270293Y282729D01*
X270148Y282761D01*
X270122Y282760D01*
X270096Y282765D01*
X269948Y282757D01*
X269800Y282755D01*
X269774Y282748D01*
X269748Y282747D01*
X269606Y282706D01*
X269462Y282670D01*
X269438Y282657D01*
X269413Y282650D01*
X269284Y282578D01*
X269152Y282510D01*
X269132Y282493D01*
X269109Y282480D01*
X268923Y282322D01*
X268727Y282125D01*
X261113Y282125D01*
X260220Y283018D01*
X260220Y284412D01*
X260217Y284438D01*
X260219Y284464D01*
X260197Y284611D01*
X260180Y284758D01*
X260172Y284783D01*
X260168Y284809D01*
X260113Y284947D01*
X260063Y285086D01*
X260049Y285108D01*
X260039Y285133D01*
X259954Y285254D01*
X259874Y285379D01*
X259855Y285397D01*
X259840Y285419D01*
X259730Y285518D01*
X259623Y285621D01*
X259601Y285635D01*
X259581Y285652D01*
X259451Y285724D01*
X259324Y285800D01*
X259299Y285808D01*
X259276Y285821D01*
X259133Y285861D01*
X258992Y285906D01*
X258966Y285908D01*
X258941Y285916D01*
X258697Y285935D01*
X258316Y285935D01*
X224962Y319289D01*
X224863Y319368D01*
X224770Y319452D01*
X224727Y319476D01*
X224689Y319506D01*
X224575Y319560D01*
X224465Y319621D01*
X224418Y319634D01*
X224374Y319655D01*
X224251Y319681D01*
X224129Y319716D01*
X224068Y319721D01*
X224034Y319728D01*
X223986Y319727D01*
X223885Y319735D01*
X222852Y319735D01*
X222776Y319727D01*
X222700Y319728D01*
X222604Y319707D01*
X222506Y319695D01*
X222434Y319670D01*
X222359Y319653D01*
X222271Y319611D01*
X222178Y319578D01*
X222114Y319536D01*
X222045Y319504D01*
X221968Y319442D01*
X221885Y319389D01*
X221832Y319334D01*
X221772Y319286D01*
X221711Y319209D01*
X221643Y319138D01*
X221604Y319073D01*
X221556Y319013D01*
X221488Y318880D01*
X221464Y318839D01*
X221458Y318821D01*
X221445Y318795D01*
X221373Y318620D01*
X218800Y316048D01*
X215439Y314655D01*
X196561Y314655D01*
X193200Y316048D01*
X190627Y318620D01*
X190029Y320065D01*
X189992Y320132D01*
X189964Y320203D01*
X189907Y320284D01*
X189860Y320370D01*
X189808Y320426D01*
X189765Y320489D01*
X189692Y320555D01*
X189625Y320628D01*
X189563Y320671D01*
X189506Y320722D01*
X189420Y320770D01*
X189339Y320826D01*
X189268Y320854D01*
X189201Y320891D01*
X189106Y320918D01*
X189015Y320954D01*
X188939Y320965D01*
X188865Y320986D01*
X188717Y320998D01*
X188670Y321005D01*
X188651Y321003D01*
X188622Y321005D01*
X184257Y321005D01*
X118465Y386797D01*
X118387Y386859D01*
X118314Y386929D01*
X118250Y386968D01*
X118192Y387014D01*
X118101Y387057D01*
X118015Y387108D01*
X117944Y387131D01*
X117877Y387163D01*
X117779Y387184D01*
X117683Y387214D01*
X117609Y387220D01*
X117536Y387236D01*
X117436Y387234D01*
X117336Y387242D01*
X117262Y387231D01*
X117188Y387230D01*
X117091Y387206D01*
X116991Y387191D01*
X116922Y387163D01*
X116850Y387145D01*
X116760Y387099D01*
X116667Y387062D01*
X116606Y387020D01*
X116540Y386985D01*
X116463Y386920D01*
X116381Y386863D01*
X116331Y386808D01*
X116275Y386760D01*
X116215Y386679D01*
X116148Y386604D01*
X116112Y386539D01*
X116067Y386479D01*
X116028Y386387D01*
X115979Y386299D01*
X115959Y386227D01*
X115929Y386159D01*
X115928Y386149D01*
X114485Y382665D01*
X113963Y382144D01*
X113947Y382123D01*
X113927Y382106D01*
X113838Y381987D01*
X113746Y381871D01*
X113735Y381847D01*
X113720Y381826D01*
X113661Y381690D01*
X113597Y381555D01*
X113592Y381530D01*
X113582Y381506D01*
X113555Y381359D01*
X113524Y381215D01*
X113525Y381189D01*
X113520Y381163D01*
X113528Y381014D01*
X113530Y380866D01*
X113536Y380841D01*
X113538Y380815D01*
X113579Y380672D01*
X113615Y380528D01*
X113627Y380505D01*
X113634Y380480D01*
X113707Y380350D01*
X113775Y380219D01*
X113792Y380198D01*
X113804Y380176D01*
X113963Y379989D01*
X115775Y378177D01*
X122814Y371139D01*
X122816Y371099D01*
X122829Y371052D01*
X122835Y371004D01*
X122877Y370885D01*
X122912Y370764D01*
X122936Y370722D01*
X122952Y370676D01*
X123021Y370570D01*
X123082Y370460D01*
X123122Y370413D01*
X123141Y370383D01*
X123176Y370350D01*
X123241Y370273D01*
X123993Y369522D01*
X123993Y340591D01*
X124007Y340465D01*
X124014Y340339D01*
X124027Y340292D01*
X124033Y340244D01*
X124075Y340125D01*
X124110Y340004D01*
X124134Y339962D01*
X124150Y339916D01*
X124219Y339810D01*
X124280Y339700D01*
X124320Y339653D01*
X124339Y339623D01*
X124374Y339590D01*
X124439Y339513D01*
X162311Y301641D01*
X162410Y301562D01*
X162504Y301478D01*
X162547Y301454D01*
X162584Y301424D01*
X162699Y301370D01*
X162809Y301309D01*
X162856Y301296D01*
X162900Y301275D01*
X163023Y301249D01*
X163145Y301214D01*
X163206Y301209D01*
X163240Y301202D01*
X163288Y301203D01*
X163389Y301195D01*
X188622Y301195D01*
X188697Y301203D01*
X188774Y301202D01*
X188870Y301223D01*
X188968Y301235D01*
X189040Y301260D01*
X189114Y301277D01*
X189203Y301319D01*
X189296Y301352D01*
X189360Y301394D01*
X189429Y301426D01*
X189506Y301488D01*
X189589Y301541D01*
X189642Y301596D01*
X189702Y301644D01*
X189763Y301721D01*
X189831Y301792D01*
X189870Y301857D01*
X189918Y301917D01*
X189986Y302050D01*
X190010Y302091D01*
X190016Y302109D01*
X190029Y302135D01*
X190627Y303580D01*
X193200Y306152D01*
X196561Y307545D01*
X215439Y307545D01*
X218800Y306152D01*
X221372Y303580D01*
X222765Y300219D01*
X222765Y296581D01*
X221372Y293220D01*
X218800Y290648D01*
X215439Y289255D01*
X196561Y289255D01*
X193200Y290648D01*
X190627Y293220D01*
X190029Y294665D01*
X189992Y294732D01*
X189964Y294803D01*
X189907Y294884D01*
X189860Y294970D01*
X189808Y295026D01*
X189765Y295089D01*
X189692Y295155D01*
X189625Y295228D01*
X189563Y295271D01*
X189506Y295322D01*
X189420Y295370D01*
X189339Y295426D01*
X189268Y295454D01*
X189201Y295491D01*
X189106Y295518D01*
X189015Y295554D01*
X188939Y295565D01*
X188865Y295586D01*
X188717Y295598D01*
X188670Y295605D01*
X188651Y295603D01*
X188622Y295605D01*
X162025Y295605D01*
X161925Y295594D01*
X161824Y295592D01*
X161752Y295574D01*
X161678Y295565D01*
X161584Y295532D01*
X161486Y295507D01*
X161420Y295473D01*
X161350Y295448D01*
X161266Y295393D01*
X161177Y295347D01*
X161120Y295299D01*
X161057Y295259D01*
X160988Y295187D01*
X160911Y295122D01*
X160867Y295062D01*
X160815Y295008D01*
X160764Y294922D01*
X160704Y294841D01*
X160675Y294773D01*
X160636Y294709D01*
X160606Y294613D01*
X160566Y294521D01*
X160553Y294448D01*
X160530Y294377D01*
X160522Y294277D01*
X160504Y294178D01*
X160508Y294104D01*
X160502Y294030D01*
X160517Y293930D01*
X160522Y293830D01*
X160543Y293759D01*
X160554Y293685D01*
X160591Y293592D01*
X160619Y293495D01*
X160655Y293430D01*
X160683Y293361D01*
X160740Y293279D01*
X160789Y293191D01*
X160854Y293115D01*
X160882Y293075D01*
X160908Y293051D01*
X160947Y293005D01*
X177711Y276241D01*
X177810Y276162D01*
X177904Y276078D01*
X177947Y276054D01*
X177984Y276024D01*
X178099Y275970D01*
X178209Y275909D01*
X178256Y275896D01*
X178300Y275875D01*
X178423Y275849D01*
X178545Y275814D01*
X178606Y275809D01*
X178640Y275802D01*
X178688Y275803D01*
X178789Y275795D01*
X188622Y275795D01*
X188697Y275803D01*
X188774Y275802D01*
X188870Y275823D01*
X188968Y275835D01*
X189040Y275860D01*
X189114Y275877D01*
X189203Y275919D01*
X189296Y275952D01*
X189360Y275994D01*
X189429Y276026D01*
X189506Y276088D01*
X189589Y276141D01*
X189642Y276196D01*
X189702Y276244D01*
X189763Y276321D01*
X189831Y276392D01*
X189870Y276457D01*
X189918Y276517D01*
X189986Y276650D01*
X190010Y276691D01*
X190016Y276709D01*
X190029Y276735D01*
X190627Y278180D01*
X193200Y280752D01*
X196561Y282145D01*
X215439Y282145D01*
X218800Y280752D01*
X221372Y278180D01*
X222765Y274819D01*
X222765Y271181D01*
X221372Y267820D01*
X218800Y265248D01*
X215439Y263855D01*
X196561Y263855D01*
X193200Y265248D01*
X190627Y267820D01*
X190029Y269265D01*
X189992Y269332D01*
X189964Y269403D01*
X189907Y269484D01*
X189860Y269570D01*
X189808Y269626D01*
X189765Y269689D01*
X189692Y269755D01*
X189625Y269828D01*
X189563Y269871D01*
X189506Y269922D01*
X189420Y269970D01*
X189339Y270026D01*
X189268Y270054D01*
X189201Y270091D01*
X189106Y270118D01*
X189015Y270154D01*
X188939Y270165D01*
X188865Y270186D01*
X188717Y270198D01*
X188670Y270205D01*
X188651Y270203D01*
X188622Y270205D01*
X175842Y270205D01*
X126593Y319455D01*
X126515Y319517D01*
X126442Y319587D01*
X126378Y319625D01*
X126320Y319671D01*
X126229Y319714D01*
X126143Y319766D01*
X126072Y319788D01*
X126005Y319820D01*
X125907Y319841D01*
X125811Y319872D01*
X125737Y319878D01*
X125664Y319893D01*
X125564Y319892D01*
X125464Y319900D01*
X125390Y319889D01*
X125316Y319888D01*
X125219Y319863D01*
X125119Y319848D01*
X125050Y319821D01*
X124978Y319803D01*
X124888Y319756D01*
X124795Y319719D01*
X124734Y319677D01*
X124668Y319643D01*
X124591Y319578D01*
X124509Y319520D01*
X124459Y319465D01*
X124403Y319417D01*
X124343Y319336D01*
X124276Y319262D01*
X124240Y319197D01*
X124195Y319137D01*
X124156Y319045D01*
X124107Y318957D01*
X124087Y318885D01*
X124057Y318817D01*
X124040Y318718D01*
X124012Y318621D01*
X124004Y318521D01*
X123996Y318474D01*
X123998Y318438D01*
X123993Y318377D01*
X123993Y310591D01*
X124007Y310465D01*
X124014Y310339D01*
X124027Y310292D01*
X124033Y310244D01*
X124075Y310125D01*
X124110Y310004D01*
X124134Y309962D01*
X124150Y309916D01*
X124219Y309810D01*
X124280Y309700D01*
X124320Y309653D01*
X124339Y309623D01*
X124374Y309590D01*
X124439Y309513D01*
X183111Y250841D01*
X183210Y250762D01*
X183304Y250678D01*
X183347Y250654D01*
X183384Y250624D01*
X183499Y250570D01*
X183609Y250509D01*
X183656Y250496D01*
X183700Y250475D01*
X183823Y250449D01*
X183945Y250414D01*
X184006Y250409D01*
X184040Y250402D01*
X184088Y250403D01*
X184189Y250395D01*
X188622Y250395D01*
X188697Y250403D01*
X188774Y250402D01*
X188870Y250423D01*
X188968Y250435D01*
X189040Y250460D01*
X189114Y250477D01*
X189203Y250519D01*
X189296Y250552D01*
X189360Y250594D01*
X189429Y250626D01*
X189506Y250688D01*
X189589Y250741D01*
X189642Y250796D01*
X189702Y250844D01*
X189763Y250921D01*
X189831Y250992D01*
X189870Y251057D01*
X189918Y251117D01*
X189986Y251250D01*
X190010Y251291D01*
X190016Y251309D01*
X190029Y251335D01*
X190627Y252780D01*
X193200Y255352D01*
X196561Y256745D01*
X215439Y256745D01*
X218800Y255352D01*
X221372Y252780D01*
X222765Y249419D01*
X222765Y245781D01*
X221372Y242420D01*
X218800Y239848D01*
X215439Y238455D01*
X197375Y238455D01*
X197275Y238444D01*
X197174Y238442D01*
X197102Y238424D01*
X197028Y238415D01*
X196934Y238382D01*
X196836Y238357D01*
X196770Y238323D01*
X196700Y238298D01*
X196616Y238243D01*
X196527Y238197D01*
X196470Y238149D01*
X196407Y238109D01*
X196338Y238037D01*
X196261Y237972D01*
X196217Y237912D01*
X196165Y237858D01*
X196114Y237772D01*
X196054Y237691D01*
X196025Y237623D01*
X195986Y237559D01*
X195956Y237463D01*
X195916Y237371D01*
X195903Y237298D01*
X195880Y237227D01*
X195872Y237127D01*
X195854Y237028D01*
X195858Y236954D01*
X195852Y236880D01*
X195867Y236780D01*
X195872Y236680D01*
X195893Y236609D01*
X195904Y236535D01*
X195941Y236442D01*
X195969Y236345D01*
X196005Y236280D01*
X196033Y236211D01*
X196090Y236129D01*
X196139Y236041D01*
X196204Y235965D01*
X196232Y235925D01*
X196258Y235901D01*
X196297Y235855D01*
X200361Y231791D01*
X200460Y231712D01*
X200554Y231628D01*
X200597Y231604D01*
X200634Y231574D01*
X200749Y231520D01*
X200859Y231459D01*
X200906Y231446D01*
X200950Y231425D01*
X201073Y231399D01*
X201195Y231364D01*
X201256Y231359D01*
X201290Y231352D01*
X201338Y231353D01*
X201439Y231345D01*
X215439Y231345D01*
X218800Y229952D01*
X221372Y227380D01*
X222765Y224019D01*
X222765Y220381D01*
X221372Y217020D01*
X218800Y214448D01*
X215439Y213055D01*
X196561Y213055D01*
X193200Y214448D01*
X190628Y217020D01*
X189235Y220381D01*
X189235Y224019D01*
X190628Y227380D01*
X192670Y229423D01*
X192687Y229444D01*
X192707Y229461D01*
X192795Y229580D01*
X192887Y229696D01*
X192898Y229720D01*
X192914Y229741D01*
X192973Y229877D01*
X193036Y230011D01*
X193041Y230037D01*
X193052Y230061D01*
X193078Y230207D01*
X193109Y230352D01*
X193109Y230378D01*
X193114Y230404D01*
X193106Y230552D01*
X193103Y230700D01*
X193097Y230726D01*
X193096Y230752D01*
X193055Y230894D01*
X193018Y231038D01*
X193006Y231062D01*
X192999Y231087D01*
X192927Y231216D01*
X192859Y231348D01*
X192842Y231368D01*
X192829Y231391D01*
X192670Y231577D01*
X183953Y240295D01*
X183854Y240374D01*
X183760Y240458D01*
X183717Y240482D01*
X183680Y240512D01*
X183565Y240566D01*
X183455Y240627D01*
X183408Y240640D01*
X183364Y240661D01*
X183241Y240687D01*
X183119Y240722D01*
X183058Y240727D01*
X183024Y240734D01*
X182976Y240733D01*
X182875Y240741D01*
X179559Y240741D01*
X116423Y303878D01*
X115237Y305063D01*
X115216Y305080D01*
X115199Y305100D01*
X115080Y305188D01*
X114964Y305280D01*
X114940Y305291D01*
X114919Y305307D01*
X114783Y305366D01*
X114649Y305429D01*
X114623Y305434D01*
X114599Y305445D01*
X114453Y305471D01*
X114308Y305502D01*
X114282Y305502D01*
X114256Y305506D01*
X114108Y305499D01*
X113960Y305496D01*
X113934Y305490D01*
X113908Y305489D01*
X113765Y305447D01*
X113622Y305411D01*
X113598Y305399D01*
X113573Y305392D01*
X113443Y305319D01*
X113312Y305252D01*
X113292Y305235D01*
X113269Y305222D01*
X113083Y305063D01*
X111935Y303915D01*
X108603Y302535D01*
X104997Y302535D01*
X101665Y303915D01*
X99115Y306465D01*
X97735Y309797D01*
X97735Y313403D01*
X99115Y316735D01*
X99856Y317475D01*
X99872Y317496D01*
X99892Y317513D01*
X99980Y317632D01*
X100073Y317748D01*
X100084Y317772D01*
X100100Y317793D01*
X100158Y317929D01*
X100222Y318064D01*
X100227Y318089D01*
X100238Y318113D01*
X100264Y318259D01*
X100295Y318404D01*
X100295Y318430D01*
X100299Y318456D01*
X100292Y318605D01*
X100289Y318753D01*
X100283Y318778D01*
X100281Y318804D01*
X100240Y318947D01*
X100204Y319091D01*
X100192Y319114D01*
X100185Y319139D01*
X100112Y319269D01*
X100044Y319401D01*
X100027Y319420D01*
X100015Y319443D01*
X99856Y319630D01*
X91023Y328463D01*
X89430Y330056D01*
X89409Y330072D01*
X89392Y330092D01*
X89273Y330180D01*
X89157Y330273D01*
X89133Y330284D01*
X89112Y330300D01*
X88976Y330358D01*
X88842Y330422D01*
X88816Y330427D01*
X88792Y330438D01*
X88645Y330464D01*
X88501Y330495D01*
X88475Y330495D01*
X88449Y330499D01*
X88300Y330492D01*
X88152Y330489D01*
X88127Y330483D01*
X88101Y330481D01*
X87959Y330440D01*
X87814Y330404D01*
X87791Y330392D01*
X87766Y330385D01*
X87636Y330312D01*
X87505Y330244D01*
X87485Y330227D01*
X87462Y330215D01*
X87275Y330056D01*
X86535Y329315D01*
X83203Y327935D01*
X79597Y327935D01*
X76265Y329315D01*
X73715Y331865D01*
X72335Y335197D01*
X72335Y338803D01*
X73798Y342335D01*
X73831Y342389D01*
X73853Y342459D01*
X73885Y342526D01*
X73906Y342625D01*
X73937Y342721D01*
X73943Y342794D01*
X73958Y342866D01*
X73957Y342968D01*
X73965Y343068D01*
X73954Y343141D01*
X73953Y343215D01*
X73928Y343313D01*
X73913Y343413D01*
X73886Y343481D01*
X73868Y343553D01*
X73822Y343643D01*
X73784Y343737D01*
X73742Y343797D01*
X73709Y343863D01*
X73643Y343940D01*
X73585Y344023D01*
X73531Y344072D01*
X73483Y344129D01*
X73402Y344189D01*
X73327Y344256D01*
X73262Y344292D01*
X73203Y344336D01*
X73110Y344376D01*
X73022Y344425D01*
X72951Y344445D01*
X72883Y344474D01*
X72784Y344492D01*
X72686Y344520D01*
X72587Y344528D01*
X72540Y344536D01*
X72504Y344534D01*
X72442Y344539D01*
X64958Y344539D01*
X64857Y344528D01*
X64756Y344526D01*
X64685Y344508D01*
X64611Y344499D01*
X64516Y344465D01*
X64418Y344441D01*
X64353Y344407D01*
X64283Y344382D01*
X64198Y344327D01*
X64109Y344281D01*
X64052Y344233D01*
X63990Y344193D01*
X63920Y344120D01*
X63843Y344055D01*
X63800Y343995D01*
X63748Y343942D01*
X63696Y343855D01*
X63636Y343774D01*
X63607Y343706D01*
X63569Y343643D01*
X63539Y343547D01*
X63499Y343454D01*
X63486Y343381D01*
X63463Y343311D01*
X63455Y343210D01*
X63437Y343111D01*
X63441Y343037D01*
X63435Y342964D01*
X63450Y342864D01*
X63456Y342763D01*
X63476Y342692D01*
X63487Y342619D01*
X63524Y342525D01*
X63552Y342428D01*
X63588Y342364D01*
X63616Y342295D01*
X63622Y342286D01*
X65065Y338803D01*
X65065Y335197D01*
X63685Y331865D01*
X61135Y329315D01*
X57803Y327935D01*
X54197Y327935D01*
X50865Y329315D01*
X48315Y331865D01*
X46935Y335197D01*
X46935Y338803D01*
X48398Y342335D01*
X48431Y342389D01*
X48453Y342459D01*
X48485Y342526D01*
X48506Y342625D01*
X48537Y342721D01*
X48543Y342794D01*
X48558Y342866D01*
X48557Y342968D01*
X48565Y343068D01*
X48554Y343141D01*
X48553Y343215D01*
X48528Y343313D01*
X48513Y343413D01*
X48486Y343481D01*
X48468Y343553D01*
X48422Y343643D01*
X48384Y343737D01*
X48342Y343797D01*
X48309Y343863D01*
X48243Y343940D01*
X48185Y344023D01*
X48131Y344072D01*
X48083Y344129D01*
X48002Y344189D01*
X47927Y344256D01*
X47862Y344292D01*
X47803Y344336D01*
X47710Y344376D01*
X47622Y344425D01*
X47551Y344445D01*
X47483Y344474D01*
X47384Y344492D01*
X47286Y344520D01*
X47187Y344528D01*
X47140Y344536D01*
X47104Y344534D01*
X47042Y344539D01*
X41508Y344539D01*
X39425Y346622D01*
X39425Y346623D01*
X39289Y346759D01*
X37205Y348842D01*
X37205Y372958D01*
X39289Y375041D01*
X47185Y382937D01*
X47232Y382997D01*
X47287Y383050D01*
X47340Y383133D01*
X47401Y383210D01*
X47434Y383279D01*
X47475Y383344D01*
X47508Y383436D01*
X47550Y383525D01*
X47566Y383600D01*
X47592Y383672D01*
X47603Y383770D01*
X47624Y383866D01*
X47622Y383942D01*
X47631Y384018D01*
X47619Y384116D01*
X47618Y384214D01*
X47599Y384289D01*
X47590Y384364D01*
X47544Y384506D01*
X47533Y384552D01*
X47524Y384570D01*
X47515Y384597D01*
X46935Y385997D01*
X46935Y389603D01*
X48315Y392935D01*
X50865Y395485D01*
X54397Y396948D01*
X54458Y396963D01*
X54524Y396997D01*
X54594Y397022D01*
X54679Y397077D01*
X54768Y397123D01*
X54825Y397171D01*
X54887Y397211D01*
X54957Y397283D01*
X55033Y397348D01*
X55077Y397408D01*
X55129Y397462D01*
X55181Y397548D01*
X55241Y397629D01*
X55270Y397697D01*
X55308Y397761D01*
X55339Y397857D01*
X55379Y397949D01*
X55392Y398022D01*
X55414Y398093D01*
X55422Y398193D01*
X55440Y398292D01*
X55436Y398366D01*
X55442Y398440D01*
X55427Y398540D01*
X55422Y398640D01*
X55402Y398711D01*
X55391Y398785D01*
X55354Y398878D01*
X55326Y398975D01*
X55289Y399040D01*
X55262Y399109D01*
X55205Y399191D01*
X55156Y399279D01*
X55090Y399355D01*
X55063Y399395D01*
X55037Y399419D01*
X54997Y399465D01*
X53205Y401257D01*
X53205Y403528D01*
X53197Y403604D01*
X53198Y403681D01*
X53177Y403777D01*
X53165Y403874D01*
X53140Y403946D01*
X53123Y404021D01*
X53081Y404110D01*
X53048Y404203D01*
X53006Y404267D01*
X52974Y404336D01*
X52912Y404412D01*
X52859Y404495D01*
X52804Y404549D01*
X52756Y404608D01*
X52679Y404669D01*
X52608Y404738D01*
X52543Y404777D01*
X52483Y404824D01*
X52350Y404892D01*
X52309Y404916D01*
X52291Y404922D01*
X52265Y404936D01*
X50865Y405515D01*
X48315Y408065D01*
X46935Y411397D01*
X46935Y415003D01*
X48315Y418335D01*
X50865Y420885D01*
X54197Y422265D01*
X57803Y422265D01*
X59522Y421553D01*
X61035Y420926D01*
X61180Y420885D01*
X61323Y420839D01*
X61347Y420837D01*
X61370Y420830D01*
X61521Y420823D01*
X61670Y420811D01*
X61694Y420815D01*
X61718Y420813D01*
X61866Y420840D01*
X62015Y420863D01*
X62037Y420872D01*
X62061Y420876D01*
X62199Y420936D01*
X62339Y420991D01*
X62359Y421005D01*
X62381Y421015D01*
X62502Y421105D01*
X62625Y421190D01*
X62641Y421208D01*
X62661Y421223D01*
X62758Y421338D01*
X62858Y421449D01*
X62870Y421470D01*
X62886Y421489D01*
X62954Y421622D01*
X63027Y421754D01*
X63033Y421777D01*
X63044Y421799D01*
X63081Y421944D01*
X63122Y422089D01*
X63124Y422119D01*
X63129Y422137D01*
X63129Y422184D01*
X63141Y422333D01*
X63141Y426166D01*
X63127Y426292D01*
X63120Y426418D01*
X63107Y426464D01*
X63101Y426512D01*
X63059Y426631D01*
X63024Y426753D01*
X63000Y426795D01*
X62984Y426840D01*
X62915Y426947D01*
X62854Y427057D01*
X62814Y427103D01*
X62795Y427133D01*
X62760Y427167D01*
X62695Y427243D01*
X62227Y427712D01*
X60361Y429577D01*
X60301Y429625D01*
X60248Y429679D01*
X60165Y429733D01*
X60088Y429794D01*
X60019Y429826D01*
X59955Y429868D01*
X59862Y429901D01*
X59773Y429943D01*
X59699Y429959D01*
X59626Y429984D01*
X59528Y429995D01*
X59433Y430016D01*
X59356Y430015D01*
X59280Y430023D01*
X59182Y430012D01*
X59084Y430010D01*
X59010Y429991D01*
X58934Y429982D01*
X58792Y429937D01*
X58746Y429925D01*
X58729Y429916D01*
X58701Y429907D01*
X57803Y429535D01*
X54197Y429535D01*
X50865Y430915D01*
X48315Y433465D01*
X46935Y436797D01*
X46935Y440403D01*
X48315Y443735D01*
X50865Y446285D01*
X54197Y447665D01*
X57803Y447665D01*
X61035Y446326D01*
X61180Y446285D01*
X61323Y446239D01*
X61347Y446237D01*
X61370Y446230D01*
X61521Y446223D01*
X61670Y446211D01*
X61694Y446215D01*
X61718Y446213D01*
X61866Y446240D01*
X62015Y446263D01*
X62037Y446272D01*
X62061Y446276D01*
X62199Y446336D01*
X62339Y446391D01*
X62359Y446405D01*
X62381Y446415D01*
X62502Y446505D01*
X62625Y446590D01*
X62641Y446608D01*
X62661Y446623D01*
X62758Y446738D01*
X62858Y446849D01*
X62870Y446870D01*
X62886Y446889D01*
X62954Y447022D01*
X63027Y447154D01*
X63033Y447177D01*
X63044Y447199D01*
X63081Y447344D01*
X63122Y447489D01*
X63124Y447519D01*
X63129Y447537D01*
X63129Y447584D01*
X63141Y447733D01*
X63141Y451566D01*
X63127Y451692D01*
X63120Y451818D01*
X63107Y451864D01*
X63101Y451912D01*
X63059Y452031D01*
X63024Y452153D01*
X63000Y452195D01*
X62984Y452240D01*
X62915Y452347D01*
X62854Y452457D01*
X62814Y452503D01*
X62795Y452533D01*
X62760Y452567D01*
X62695Y452643D01*
X62227Y453112D01*
X60361Y454977D01*
X60301Y455025D01*
X60248Y455079D01*
X60165Y455133D01*
X60088Y455194D01*
X60019Y455226D01*
X59955Y455268D01*
X59862Y455301D01*
X59773Y455343D01*
X59699Y455359D01*
X59626Y455384D01*
X59528Y455395D01*
X59433Y455416D01*
X59356Y455415D01*
X59280Y455423D01*
X59182Y455412D01*
X59084Y455410D01*
X59010Y455391D01*
X58934Y455382D01*
X58792Y455337D01*
X58746Y455325D01*
X58729Y455316D01*
X58701Y455307D01*
X57803Y454935D01*
X54197Y454935D01*
X50865Y456315D01*
X48315Y458865D01*
X46935Y462197D01*
X46935Y465803D01*
X48315Y469135D01*
X50865Y471685D01*
X54197Y473065D01*
X57803Y473065D01*
X61035Y471726D01*
X61180Y471685D01*
X61323Y471639D01*
X61347Y471637D01*
X61370Y471630D01*
X61521Y471623D01*
X61670Y471611D01*
X61694Y471615D01*
X61718Y471613D01*
X61866Y471640D01*
X62015Y471663D01*
X62037Y471672D01*
X62061Y471676D01*
X62199Y471736D01*
X62339Y471791D01*
X62359Y471805D01*
X62381Y471815D01*
X62502Y471905D01*
X62625Y471990D01*
X62641Y472008D01*
X62661Y472023D01*
X62758Y472138D01*
X62858Y472249D01*
X62870Y472270D01*
X62886Y472289D01*
X62954Y472422D01*
X63027Y472554D01*
X63033Y472577D01*
X63044Y472599D01*
X63081Y472744D01*
X63122Y472889D01*
X63124Y472919D01*
X63129Y472937D01*
X63129Y472984D01*
X63141Y473133D01*
X63141Y476966D01*
X63127Y477092D01*
X63120Y477218D01*
X63107Y477264D01*
X63101Y477312D01*
X63059Y477431D01*
X63024Y477553D01*
X63000Y477595D01*
X62984Y477640D01*
X62915Y477747D01*
X62854Y477857D01*
X62814Y477903D01*
X62795Y477933D01*
X62760Y477967D01*
X62695Y478043D01*
X60361Y480377D01*
X60301Y480425D01*
X60248Y480479D01*
X60165Y480533D01*
X60088Y480594D01*
X60019Y480626D01*
X59955Y480668D01*
X59862Y480701D01*
X59773Y480743D01*
X59699Y480759D01*
X59626Y480784D01*
X59528Y480795D01*
X59432Y480816D01*
X59356Y480815D01*
X59280Y480823D01*
X59182Y480812D01*
X59084Y480810D01*
X59010Y480791D01*
X58934Y480782D01*
X58792Y480737D01*
X58746Y480725D01*
X58729Y480716D01*
X58701Y480707D01*
X57803Y480335D01*
X54197Y480335D01*
X50865Y481715D01*
X48315Y484265D01*
X46935Y487597D01*
X46935Y491203D01*
X48315Y494535D01*
X50865Y497085D01*
X54197Y498465D01*
X57803Y498465D01*
X59613Y497715D01*
X61035Y497126D01*
X61180Y497085D01*
X61323Y497039D01*
X61347Y497037D01*
X61370Y497030D01*
X61521Y497023D01*
X61670Y497011D01*
X61694Y497015D01*
X61718Y497013D01*
X61866Y497040D01*
X62015Y497063D01*
X62037Y497072D01*
X62061Y497076D01*
X62199Y497136D01*
X62339Y497191D01*
X62359Y497205D01*
X62381Y497215D01*
X62502Y497305D01*
X62625Y497390D01*
X62641Y497408D01*
X62661Y497423D01*
X62758Y497538D01*
X62858Y497649D01*
X62870Y497670D01*
X62886Y497689D01*
X62954Y497822D01*
X63027Y497954D01*
X63033Y497977D01*
X63044Y497999D01*
X63081Y498144D01*
X63122Y498289D01*
X63124Y498319D01*
X63129Y498337D01*
X63129Y498384D01*
X63141Y498533D01*
X63141Y503075D01*
X63127Y503201D01*
X63120Y503327D01*
X63107Y503374D01*
X63101Y503422D01*
X63059Y503541D01*
X63024Y503662D01*
X63000Y503704D01*
X62984Y503750D01*
X62915Y503856D01*
X62854Y503966D01*
X62814Y504013D01*
X62795Y504043D01*
X62760Y504076D01*
X62695Y504153D01*
X60863Y505985D01*
X60803Y506032D01*
X60750Y506087D01*
X60667Y506140D01*
X60590Y506201D01*
X60521Y506234D01*
X60456Y506275D01*
X60364Y506308D01*
X60275Y506350D01*
X60200Y506366D01*
X60128Y506392D01*
X60030Y506403D01*
X59934Y506424D01*
X59858Y506422D01*
X59782Y506431D01*
X59684Y506419D01*
X59586Y506418D01*
X59511Y506399D01*
X59436Y506390D01*
X59294Y506344D01*
X59248Y506333D01*
X59231Y506324D01*
X59203Y506315D01*
X57803Y505735D01*
X54197Y505735D01*
X50865Y507115D01*
X48315Y509665D01*
X46935Y512997D01*
X46935Y516603D01*
X48315Y519935D01*
X50865Y522485D01*
X54197Y523865D01*
X57803Y523865D01*
X61135Y522485D01*
X63685Y519935D01*
X64275Y518510D01*
X64299Y518466D01*
X64316Y518419D01*
X64384Y518314D01*
X64444Y518206D01*
X64478Y518168D01*
X64505Y518126D01*
X64595Y518039D01*
X64678Y517948D01*
X64719Y517919D01*
X64756Y517884D01*
X64863Y517820D01*
X64965Y517749D01*
X65012Y517731D01*
X65055Y517705D01*
X65173Y517667D01*
X65289Y517621D01*
X65339Y517614D01*
X65387Y517599D01*
X65511Y517589D01*
X65634Y517571D01*
X65684Y517575D01*
X65734Y517571D01*
X65857Y517589D01*
X65981Y517600D01*
X66029Y517615D01*
X66079Y517623D01*
X66195Y517668D01*
X66313Y517707D01*
X66356Y517733D01*
X66403Y517751D01*
X66505Y517822D01*
X66611Y517886D01*
X66648Y517921D01*
X66689Y517950D01*
X66772Y518042D01*
X66861Y518129D01*
X66889Y518172D01*
X66922Y518209D01*
X66982Y518318D01*
X67050Y518422D01*
X67067Y518470D01*
X67091Y518514D01*
X67125Y518634D01*
X67166Y518751D01*
X67172Y518801D01*
X67186Y518849D01*
X67205Y519093D01*
X67205Y524411D01*
X67191Y524537D01*
X67184Y524663D01*
X67171Y524710D01*
X67165Y524758D01*
X67123Y524877D01*
X67088Y524998D01*
X67064Y525040D01*
X67048Y525086D01*
X66979Y525192D01*
X66918Y525302D01*
X66878Y525349D01*
X66859Y525379D01*
X66824Y525412D01*
X66759Y525489D01*
X60863Y531385D01*
X60803Y531432D01*
X60750Y531487D01*
X60667Y531540D01*
X60590Y531601D01*
X60521Y531634D01*
X60456Y531675D01*
X60364Y531708D01*
X60275Y531750D01*
X60200Y531766D01*
X60128Y531792D01*
X60030Y531803D01*
X59934Y531824D01*
X59858Y531822D01*
X59782Y531831D01*
X59684Y531819D01*
X59586Y531818D01*
X59511Y531799D01*
X59436Y531790D01*
X59294Y531744D01*
X59248Y531733D01*
X59230Y531724D01*
X59203Y531715D01*
X57803Y531135D01*
X54197Y531135D01*
X50865Y532515D01*
X48315Y535065D01*
X46935Y538397D01*
X46935Y542003D01*
X48315Y545335D01*
X50865Y547885D01*
X54197Y549265D01*
X57803Y549265D01*
X61135Y547885D01*
X63685Y545335D01*
X65065Y542003D01*
X65065Y538397D01*
X64485Y536997D01*
X64464Y536924D01*
X64434Y536854D01*
X64416Y536757D01*
X64389Y536662D01*
X64386Y536586D01*
X64372Y536511D01*
X64377Y536412D01*
X64372Y536314D01*
X64386Y536239D01*
X64390Y536162D01*
X64417Y536068D01*
X64435Y535971D01*
X64465Y535901D01*
X64486Y535828D01*
X64535Y535742D01*
X64574Y535652D01*
X64619Y535590D01*
X64657Y535523D01*
X64753Y535410D01*
X64782Y535372D01*
X64796Y535359D01*
X64815Y535337D01*
X70711Y529441D01*
X70712Y529441D01*
X72795Y527358D01*
X72795Y522692D01*
X72806Y522592D01*
X72808Y522491D01*
X72826Y522419D01*
X72835Y522345D01*
X72869Y522251D01*
X72893Y522153D01*
X72927Y522087D01*
X72952Y522017D01*
X73007Y521933D01*
X73053Y521844D01*
X73101Y521787D01*
X73141Y521724D01*
X73213Y521655D01*
X73278Y521578D01*
X73338Y521534D01*
X73392Y521482D01*
X73478Y521431D01*
X73559Y521371D01*
X73627Y521342D01*
X73691Y521303D01*
X73787Y521273D01*
X73879Y521233D01*
X73952Y521220D01*
X74023Y521197D01*
X74123Y521189D01*
X74222Y521171D01*
X74296Y521175D01*
X74370Y521169D01*
X74470Y521184D01*
X74570Y521189D01*
X74641Y521210D01*
X74715Y521221D01*
X74808Y521258D01*
X74905Y521286D01*
X74970Y521322D01*
X75039Y521350D01*
X75121Y521407D01*
X75209Y521456D01*
X75285Y521521D01*
X75325Y521549D01*
X75349Y521575D01*
X75395Y521615D01*
X76265Y522485D01*
X79597Y523865D01*
X83203Y523865D01*
X86535Y522485D01*
X89085Y519935D01*
X90465Y516603D01*
X90465Y512997D01*
X89085Y509665D01*
X86535Y507115D01*
X83203Y505735D01*
X79597Y505735D01*
X76265Y507115D01*
X75395Y507985D01*
X75316Y508048D01*
X75244Y508118D01*
X75180Y508156D01*
X75122Y508202D01*
X75031Y508245D01*
X74945Y508297D01*
X74874Y508319D01*
X74807Y508351D01*
X74709Y508372D01*
X74613Y508403D01*
X74539Y508409D01*
X74466Y508424D01*
X74366Y508423D01*
X74266Y508431D01*
X74192Y508420D01*
X74118Y508418D01*
X74021Y508394D01*
X73921Y508379D01*
X73852Y508352D01*
X73780Y508333D01*
X73691Y508287D01*
X73597Y508250D01*
X73536Y508208D01*
X73470Y508174D01*
X73394Y508109D01*
X73311Y508051D01*
X73261Y507996D01*
X73205Y507948D01*
X73145Y507867D01*
X73078Y507793D01*
X73042Y507727D01*
X72997Y507668D01*
X72958Y507576D01*
X72909Y507488D01*
X72889Y507416D01*
X72859Y507348D01*
X72842Y507249D01*
X72814Y507152D01*
X72806Y507052D01*
X72798Y507005D01*
X72800Y506969D01*
X72795Y506908D01*
X72795Y501789D01*
X72809Y501663D01*
X72816Y501537D01*
X72829Y501490D01*
X72835Y501442D01*
X72877Y501323D01*
X72912Y501202D01*
X72936Y501160D01*
X72952Y501114D01*
X73021Y501008D01*
X73082Y500898D01*
X73122Y500851D01*
X73141Y500821D01*
X73176Y500788D01*
X73241Y500711D01*
X73861Y500092D01*
X73861Y498358D01*
X73872Y498257D01*
X73874Y498156D01*
X73892Y498085D01*
X73901Y498011D01*
X73935Y497916D01*
X73959Y497818D01*
X73993Y497753D01*
X74018Y497683D01*
X74073Y497598D01*
X74119Y497509D01*
X74167Y497452D01*
X74207Y497390D01*
X74280Y497320D01*
X74345Y497243D01*
X74405Y497200D01*
X74458Y497148D01*
X74545Y497096D01*
X74626Y497036D01*
X74694Y497007D01*
X74757Y496969D01*
X74853Y496939D01*
X74946Y496899D01*
X75019Y496886D01*
X75089Y496863D01*
X75190Y496855D01*
X75289Y496837D01*
X75363Y496841D01*
X75436Y496835D01*
X75536Y496850D01*
X75637Y496856D01*
X75708Y496876D01*
X75781Y496887D01*
X75875Y496924D01*
X75972Y496952D01*
X76036Y496988D01*
X76105Y497016D01*
X76114Y497022D01*
X79597Y498465D01*
X83203Y498465D01*
X86535Y497085D01*
X89085Y494535D01*
X90465Y491203D01*
X90465Y487597D01*
X89085Y484265D01*
X86535Y481715D01*
X85612Y481333D01*
X85481Y481260D01*
X85347Y481191D01*
X85329Y481176D01*
X85308Y481164D01*
X85196Y481063D01*
X85082Y480965D01*
X85067Y480946D01*
X85049Y480930D01*
X84964Y480806D01*
X84875Y480685D01*
X84865Y480663D01*
X84851Y480643D01*
X84796Y480503D01*
X84737Y480365D01*
X84732Y480341D01*
X84723Y480319D01*
X84702Y480170D01*
X84675Y480022D01*
X84676Y479998D01*
X84673Y479974D01*
X84685Y479824D01*
X84693Y479674D01*
X84700Y479651D01*
X84702Y479627D01*
X84748Y479483D01*
X84789Y479339D01*
X84801Y479318D01*
X84809Y479295D01*
X84886Y479166D01*
X84960Y479035D01*
X84978Y479013D01*
X84988Y478996D01*
X85021Y478962D01*
X85118Y478849D01*
X96249Y467718D01*
X96367Y467625D01*
X96481Y467527D01*
X96503Y467516D01*
X96522Y467501D01*
X96658Y467437D01*
X96792Y467369D01*
X96815Y467363D01*
X96837Y467353D01*
X96984Y467321D01*
X97130Y467285D01*
X97154Y467284D01*
X97178Y467279D01*
X97327Y467282D01*
X97478Y467280D01*
X97502Y467285D01*
X97526Y467285D01*
X97672Y467322D01*
X97819Y467354D01*
X97841Y467364D01*
X97864Y467370D01*
X97998Y467439D01*
X98133Y467504D01*
X98152Y467519D01*
X98174Y467530D01*
X98288Y467627D01*
X98406Y467721D01*
X98421Y467740D01*
X98439Y467756D01*
X98529Y467877D01*
X98622Y467995D01*
X98635Y468020D01*
X98646Y468036D01*
X98665Y468079D01*
X98733Y468212D01*
X99115Y469135D01*
X101665Y471685D01*
X104997Y473065D01*
X108603Y473065D01*
X111935Y471685D01*
X114485Y469135D01*
X115865Y465803D01*
X115865Y464118D01*
X115868Y464092D01*
X115866Y464066D01*
X115888Y463919D01*
X115905Y463772D01*
X115913Y463747D01*
X115917Y463721D01*
X115972Y463583D01*
X116022Y463444D01*
X116036Y463422D01*
X116046Y463397D01*
X116131Y463276D01*
X116211Y463151D01*
X116230Y463133D01*
X116245Y463111D01*
X116355Y463012D01*
X116462Y462909D01*
X116484Y462895D01*
X116504Y462878D01*
X116634Y462806D01*
X116761Y462730D01*
X116786Y462722D01*
X116809Y462709D01*
X116952Y462669D01*
X117093Y462624D01*
X117119Y462622D01*
X117144Y462614D01*
X117388Y462595D01*
X151359Y462595D01*
X151485Y462609D01*
X151611Y462616D01*
X151657Y462629D01*
X151705Y462635D01*
X151824Y462677D01*
X151946Y462712D01*
X151988Y462736D01*
X152033Y462752D01*
X152139Y462821D01*
X152250Y462882D01*
X152296Y462922D01*
X152326Y462941D01*
X152360Y462976D01*
X152436Y463041D01*
X153694Y464299D01*
X155644Y465107D01*
X157756Y465107D01*
X159706Y464299D01*
X161199Y462806D01*
X162007Y460856D01*
X162007Y458744D01*
X161750Y458125D01*
X161708Y457979D01*
X161663Y457837D01*
X161661Y457813D01*
X161654Y457790D01*
X161647Y457639D01*
X161635Y457490D01*
X161639Y457466D01*
X161637Y457442D01*
X161664Y457294D01*
X161687Y457145D01*
X161696Y457123D01*
X161700Y457099D01*
X161760Y456961D01*
X161815Y456821D01*
X161829Y456801D01*
X161839Y456779D01*
X161929Y456658D01*
X162014Y456535D01*
X162032Y456519D01*
X162047Y456499D01*
X162162Y456402D01*
X162273Y456302D01*
X162294Y456290D01*
X162313Y456274D01*
X162446Y456206D01*
X162578Y456133D01*
X162602Y456127D01*
X162623Y456116D01*
X162769Y456079D01*
X162914Y456038D01*
X162943Y456036D01*
X162961Y456031D01*
X163008Y456031D01*
X163157Y456019D01*
X183569Y456019D01*
X183695Y456033D01*
X183821Y456040D01*
X183868Y456053D01*
X183916Y456059D01*
X184035Y456101D01*
X184156Y456136D01*
X184198Y456160D01*
X184244Y456176D01*
X184350Y456245D01*
X184460Y456306D01*
X184506Y456346D01*
X184536Y456365D01*
X184570Y456400D01*
X184646Y456465D01*
X192698Y464517D01*
X195032Y464517D01*
X195082Y464522D01*
X195132Y464520D01*
X195254Y464542D01*
X195378Y464557D01*
X195425Y464574D01*
X195475Y464583D01*
X195589Y464632D01*
X195706Y464674D01*
X195748Y464701D01*
X195795Y464721D01*
X195894Y464796D01*
X195999Y464863D01*
X196034Y464899D01*
X196074Y464929D01*
X196154Y465024D01*
X196241Y465114D01*
X196267Y465157D01*
X196299Y465195D01*
X196356Y465306D01*
X196420Y465413D01*
X196435Y465461D01*
X196458Y465506D01*
X196488Y465626D01*
X196526Y465745D01*
X196530Y465795D01*
X196542Y465844D01*
X196544Y465968D01*
X196554Y466092D01*
X196547Y466142D01*
X196547Y466192D01*
X196521Y466314D01*
X196502Y466437D01*
X196484Y466484D01*
X196473Y466533D01*
X196420Y466645D01*
X196374Y466761D01*
X196345Y466802D01*
X196323Y466848D01*
X196246Y466945D01*
X196175Y467047D01*
X196137Y467081D01*
X196106Y467120D01*
X196008Y467197D01*
X195916Y467280D01*
X195872Y467305D01*
X195832Y467336D01*
X195615Y467447D01*
X193200Y468447D01*
X190628Y471020D01*
X189235Y474381D01*
X189235Y478019D01*
X190628Y481380D01*
X193200Y483952D01*
X196561Y485345D01*
X215439Y485345D01*
X218800Y483952D01*
X221372Y481380D01*
X222801Y477931D01*
X222805Y477901D01*
X222838Y477806D01*
X222863Y477709D01*
X222897Y477643D01*
X222922Y477573D01*
X222977Y477488D01*
X223023Y477399D01*
X223071Y477342D01*
X223111Y477280D01*
X223183Y477210D01*
X223248Y477133D01*
X223308Y477089D01*
X223362Y477038D01*
X223448Y476986D01*
X223529Y476926D01*
X223597Y476897D01*
X223661Y476859D01*
X223757Y476828D01*
X223849Y476788D01*
X223922Y476775D01*
X223993Y476752D01*
X224093Y476744D01*
X224192Y476727D01*
X224266Y476730D01*
X224340Y476725D01*
X224440Y476739D01*
X224540Y476745D01*
X224611Y476765D01*
X224685Y476776D01*
X224778Y476813D01*
X224875Y476841D01*
X224940Y476877D01*
X225009Y476905D01*
X225091Y476962D01*
X225179Y477011D01*
X225255Y477076D01*
X225295Y477104D01*
X225319Y477130D01*
X225365Y477170D01*
X266505Y518310D01*
X266584Y518409D01*
X266668Y518503D01*
X266692Y518545D01*
X266722Y518583D01*
X266776Y518697D01*
X266837Y518808D01*
X266850Y518854D01*
X266871Y518898D01*
X266897Y519021D01*
X266932Y519143D01*
X266937Y519204D01*
X266944Y519239D01*
X266943Y519287D01*
X266951Y519387D01*
X266951Y535769D01*
X266940Y535869D01*
X266938Y535969D01*
X266920Y536041D01*
X266911Y536115D01*
X266878Y536210D01*
X266853Y536307D01*
X266819Y536373D01*
X266794Y536443D01*
X266739Y536528D01*
X266693Y536617D01*
X266645Y536674D01*
X266605Y536736D01*
X266533Y536806D01*
X266468Y536882D01*
X266408Y536927D01*
X266354Y536978D01*
X266268Y537030D01*
X266187Y537090D01*
X266119Y537119D01*
X266055Y537157D01*
X265959Y537188D01*
X265867Y537228D01*
X265794Y537241D01*
X265723Y537263D01*
X265623Y537271D01*
X265524Y537289D01*
X265450Y537285D01*
X265376Y537291D01*
X265276Y537276D01*
X265176Y537271D01*
X265105Y537251D01*
X265031Y537240D01*
X264938Y537203D01*
X264841Y537175D01*
X264776Y537138D01*
X264707Y537111D01*
X264625Y537054D01*
X264537Y537005D01*
X264461Y536939D01*
X264421Y536912D01*
X264397Y536886D01*
X264351Y536846D01*
X263006Y535501D01*
X261056Y534693D01*
X258944Y534693D01*
X256994Y535501D01*
X255736Y536759D01*
X255637Y536838D01*
X255543Y536922D01*
X255501Y536946D01*
X255463Y536976D01*
X255349Y537030D01*
X255238Y537091D01*
X255192Y537104D01*
X255148Y537125D01*
X255025Y537151D01*
X254903Y537186D01*
X254842Y537191D01*
X254807Y537198D01*
X254759Y537197D01*
X254659Y537205D01*
X220025Y537205D01*
X219925Y537194D01*
X219825Y537192D01*
X219752Y537174D01*
X219679Y537165D01*
X219584Y537132D01*
X219487Y537107D01*
X219420Y537073D01*
X219350Y537048D01*
X219266Y536993D01*
X219177Y536947D01*
X219120Y536899D01*
X219058Y536859D01*
X218988Y536787D01*
X218911Y536722D01*
X218867Y536662D01*
X218815Y536608D01*
X218764Y536522D01*
X218704Y536441D01*
X218675Y536373D01*
X218637Y536309D01*
X218606Y536213D01*
X218566Y536121D01*
X218553Y536048D01*
X218530Y535977D01*
X218522Y535877D01*
X218505Y535778D01*
X218508Y535704D01*
X218502Y535630D01*
X218517Y535530D01*
X218522Y535430D01*
X218543Y535359D01*
X218554Y535285D01*
X218591Y535192D01*
X218619Y535095D01*
X218655Y535030D01*
X218683Y534961D01*
X218740Y534879D01*
X218789Y534791D01*
X218854Y534715D01*
X218882Y534675D01*
X218908Y534651D01*
X218948Y534605D01*
X221373Y532180D01*
X222765Y528819D01*
X222765Y525181D01*
X221372Y521820D01*
X218800Y519248D01*
X215439Y517855D01*
X196561Y517855D01*
X193200Y519248D01*
X190628Y521820D01*
X189235Y525181D01*
X189235Y528819D01*
X190627Y532180D01*
X193052Y534605D01*
X193115Y534683D01*
X193185Y534756D01*
X193223Y534820D01*
X193269Y534878D01*
X193312Y534969D01*
X193363Y535055D01*
X193386Y535126D01*
X193418Y535193D01*
X193439Y535291D01*
X193470Y535387D01*
X193476Y535461D01*
X193491Y535534D01*
X193490Y535634D01*
X193498Y535734D01*
X193487Y535808D01*
X193485Y535882D01*
X193461Y535979D01*
X193446Y536079D01*
X193418Y536148D01*
X193400Y536220D01*
X193354Y536309D01*
X193317Y536403D01*
X193275Y536464D01*
X193241Y536530D01*
X193176Y536606D01*
X193118Y536689D01*
X193063Y536739D01*
X193015Y536795D01*
X192934Y536855D01*
X192859Y536922D01*
X192794Y536958D01*
X192735Y537003D01*
X192642Y537042D01*
X192554Y537091D01*
X192483Y537111D01*
X192415Y537141D01*
X192316Y537158D01*
X192219Y537186D01*
X192119Y537194D01*
X192071Y537202D01*
X192036Y537200D01*
X191975Y537205D01*
X171789Y537205D01*
X171663Y537191D01*
X171537Y537184D01*
X171490Y537171D01*
X171442Y537165D01*
X171323Y537123D01*
X171202Y537088D01*
X171160Y537064D01*
X171114Y537048D01*
X171008Y536979D01*
X170898Y536918D01*
X170851Y536878D01*
X170821Y536859D01*
X170788Y536824D01*
X170711Y536759D01*
X122641Y488689D01*
X122641Y488688D01*
X120558Y486605D01*
X116472Y486605D01*
X116396Y486597D01*
X116319Y486598D01*
X116223Y486577D01*
X116126Y486565D01*
X116054Y486540D01*
X115979Y486523D01*
X115890Y486481D01*
X115797Y486448D01*
X115733Y486406D01*
X115664Y486374D01*
X115587Y486312D01*
X115505Y486259D01*
X115451Y486204D01*
X115392Y486156D01*
X115331Y486079D01*
X115262Y486008D01*
X115223Y485943D01*
X115176Y485883D01*
X115108Y485750D01*
X115084Y485709D01*
X115078Y485691D01*
X115064Y485665D01*
X114485Y484265D01*
X111935Y481715D01*
X108603Y480335D01*
X104997Y480335D01*
X101665Y481715D01*
X99115Y484265D01*
X97735Y487597D01*
X97735Y491203D01*
X99115Y494535D01*
X101665Y497085D01*
X104997Y498465D01*
X108603Y498465D01*
X111935Y497085D01*
X114485Y494535D01*
X115064Y493135D01*
X115102Y493068D01*
X115130Y492997D01*
X115186Y492916D01*
X115234Y492830D01*
X115285Y492774D01*
X115329Y492711D01*
X115402Y492645D01*
X115468Y492572D01*
X115531Y492529D01*
X115588Y492478D01*
X115674Y492430D01*
X115755Y492374D01*
X115826Y492346D01*
X115893Y492309D01*
X115987Y492282D01*
X116079Y492246D01*
X116154Y492235D01*
X116228Y492214D01*
X116377Y492202D01*
X116424Y492195D01*
X116443Y492197D01*
X116472Y492195D01*
X117611Y492195D01*
X117737Y492209D01*
X117863Y492216D01*
X117910Y492229D01*
X117958Y492235D01*
X118077Y492277D01*
X118198Y492312D01*
X118240Y492336D01*
X118286Y492352D01*
X118392Y492421D01*
X118502Y492482D01*
X118549Y492522D01*
X118579Y492541D01*
X118612Y492576D01*
X118689Y492641D01*
X166759Y540711D01*
X166759Y540712D01*
X168842Y542795D01*
X191375Y542795D01*
X191475Y542806D01*
X191575Y542808D01*
X191648Y542826D01*
X191721Y542835D01*
X191816Y542868D01*
X191913Y542893D01*
X191980Y542927D01*
X192050Y542952D01*
X192134Y543007D01*
X192223Y543053D01*
X192280Y543101D01*
X192342Y543141D01*
X192412Y543213D01*
X192489Y543278D01*
X192533Y543338D01*
X192585Y543392D01*
X192636Y543478D01*
X192696Y543559D01*
X192725Y543627D01*
X192763Y543691D01*
X192794Y543787D01*
X192834Y543879D01*
X192847Y543952D01*
X192870Y544023D01*
X192878Y544123D01*
X192895Y544222D01*
X192892Y544296D01*
X192898Y544370D01*
X192883Y544470D01*
X192878Y544570D01*
X192857Y544641D01*
X192846Y544715D01*
X192809Y544808D01*
X192781Y544905D01*
X192745Y544970D01*
X192717Y545039D01*
X192660Y545121D01*
X192611Y545209D01*
X192546Y545285D01*
X192518Y545325D01*
X192492Y545349D01*
X192452Y545395D01*
X190627Y547220D01*
X189235Y550581D01*
X189235Y554219D01*
X190628Y557580D01*
X193200Y560152D01*
X196561Y561545D01*
X215439Y561545D01*
X218800Y560152D01*
X221372Y557580D01*
X222765Y554219D01*
X222765Y550581D01*
X221373Y547220D01*
X219548Y545395D01*
X219485Y545317D01*
X219415Y545244D01*
X219377Y545180D01*
X219331Y545122D01*
X219288Y545031D01*
X219237Y544945D01*
X219214Y544874D01*
X219182Y544807D01*
X219161Y544709D01*
X219130Y544613D01*
X219124Y544539D01*
X219109Y544466D01*
X219110Y544366D01*
X219102Y544266D01*
X219113Y544192D01*
X219115Y544118D01*
X219139Y544021D01*
X219154Y543921D01*
X219182Y543852D01*
X219200Y543780D01*
X219246Y543691D01*
X219283Y543597D01*
X219325Y543536D01*
X219359Y543470D01*
X219424Y543394D01*
X219482Y543311D01*
X219537Y543261D01*
X219585Y543205D01*
X219666Y543145D01*
X219741Y543078D01*
X219806Y543042D01*
X219865Y542997D01*
X219958Y542958D01*
X220046Y542909D01*
X220117Y542889D01*
X220185Y542859D01*
X220284Y542842D01*
X220381Y542814D01*
X220481Y542806D01*
X220529Y542798D01*
X220564Y542800D01*
X220625Y542795D01*
X254659Y542795D01*
X254785Y542809D01*
X254911Y542816D01*
X254957Y542829D01*
X255005Y542835D01*
X255124Y542877D01*
X255246Y542912D01*
X255288Y542936D01*
X255333Y542952D01*
X255439Y543021D01*
X255550Y543082D01*
X255596Y543122D01*
X255626Y543141D01*
X255660Y543176D01*
X255736Y543241D01*
X256994Y544499D01*
X258944Y545307D01*
X261056Y545307D01*
X263006Y544499D01*
X264351Y543154D01*
X264430Y543091D01*
X264502Y543022D01*
X264566Y542983D01*
X264624Y542937D01*
X264715Y542894D01*
X264801Y542843D01*
X264872Y542820D01*
X264939Y542788D01*
X265037Y542767D01*
X265133Y542737D01*
X265207Y542731D01*
X265280Y542715D01*
X265380Y542717D01*
X265480Y542709D01*
X265554Y542720D01*
X265628Y542721D01*
X265725Y542745D01*
X265825Y542760D01*
X265894Y542788D01*
X265966Y542806D01*
X266055Y542852D01*
X266149Y542889D01*
X266210Y542932D01*
X266276Y542966D01*
X266352Y543031D01*
X266435Y543088D01*
X266485Y543143D01*
X266541Y543191D01*
X266601Y543272D01*
X266668Y543347D01*
X266704Y543412D01*
X266749Y543472D01*
X266788Y543564D01*
X266837Y543652D01*
X266857Y543723D01*
X266887Y543792D01*
X266904Y543891D01*
X266932Y543987D01*
X266940Y544087D01*
X266948Y544135D01*
X266946Y544170D01*
X266951Y544231D01*
X266951Y671263D01*
X382002Y786314D01*
X427998Y786314D01*
X434851Y779461D01*
X434871Y779444D01*
X434888Y779424D01*
X435008Y779336D01*
X435124Y779244D01*
X435148Y779233D01*
X435169Y779217D01*
X435305Y779158D01*
X435439Y779095D01*
X435465Y779090D01*
X435489Y779079D01*
X435635Y779053D01*
X435780Y779022D01*
X435806Y779022D01*
X435832Y779018D01*
X435980Y779025D01*
X436128Y779028D01*
X436154Y779034D01*
X436180Y779035D01*
X436322Y779077D01*
X436466Y779113D01*
X436489Y779125D01*
X436515Y779132D01*
X436644Y779204D01*
X436776Y779272D01*
X436796Y779289D01*
X436819Y779302D01*
X437005Y779461D01*
X438031Y780487D01*
X441061Y781742D01*
X444339Y781742D01*
X447369Y780487D01*
X449687Y778169D01*
X450942Y775139D01*
X450942Y771861D01*
X450660Y771181D01*
X450639Y771108D01*
X450609Y771037D01*
X450592Y770941D01*
X450565Y770846D01*
X450561Y770770D01*
X450547Y770694D01*
X450552Y770596D01*
X450548Y770498D01*
X450561Y770423D01*
X450565Y770346D01*
X450593Y770252D01*
X450610Y770155D01*
X450641Y770085D01*
X450662Y770012D01*
X450710Y769926D01*
X450749Y769835D01*
X450795Y769774D01*
X450832Y769707D01*
X450929Y769594D01*
X450957Y769556D01*
X450972Y769543D01*
X450990Y769521D01*
X497017Y723495D01*
X497116Y723416D01*
X497210Y723332D01*
X497252Y723308D01*
X497290Y723278D01*
X497404Y723224D01*
X497515Y723163D01*
X497561Y723150D01*
X497605Y723129D01*
X497728Y723103D01*
X497850Y723068D01*
X497911Y723063D01*
X497946Y723056D01*
X497994Y723057D01*
X498094Y723049D01*
X554129Y723049D01*
X598721Y678457D01*
X598781Y678410D01*
X598834Y678355D01*
X598917Y678302D01*
X598994Y678240D01*
X599063Y678208D01*
X599128Y678167D01*
X599220Y678134D01*
X599309Y678092D01*
X599384Y678075D01*
X599456Y678050D01*
X599554Y678039D01*
X599650Y678018D01*
X599726Y678019D01*
X599802Y678011D01*
X599900Y678022D01*
X599998Y678024D01*
X600073Y678043D01*
X600148Y678052D01*
X600290Y678098D01*
X600336Y678109D01*
X600353Y678118D01*
X600381Y678127D01*
X601061Y678408D01*
X604339Y678408D01*
X607369Y677154D01*
X609687Y674835D01*
X610942Y671806D01*
X610942Y668527D01*
X609687Y665498D01*
X607369Y663180D01*
X604339Y661925D01*
X601061Y661925D01*
X600381Y662206D01*
X600308Y662227D01*
X600237Y662258D01*
X600141Y662275D01*
X600046Y662302D01*
X599970Y662306D01*
X599894Y662319D01*
X599796Y662314D01*
X599698Y662319D01*
X599623Y662305D01*
X599546Y662301D01*
X599452Y662274D01*
X599355Y662256D01*
X599285Y662226D01*
X599212Y662205D01*
X599126Y662157D01*
X599035Y662118D01*
X598974Y662072D01*
X598907Y662035D01*
X598794Y661938D01*
X598756Y661910D01*
X598743Y661895D01*
X598721Y661876D01*
X533796Y596951D01*
X477760Y596951D01*
X477635Y596937D01*
X477509Y596930D01*
X477462Y596917D01*
X477414Y596911D01*
X477295Y596869D01*
X477174Y596834D01*
X477132Y596810D01*
X477086Y596794D01*
X476980Y596725D01*
X476870Y596664D01*
X476823Y596624D01*
X476793Y596605D01*
X476760Y596570D01*
X476683Y596505D01*
X450990Y570812D01*
X450943Y570752D01*
X450888Y570699D01*
X450835Y570616D01*
X450774Y570539D01*
X450741Y570470D01*
X450700Y570406D01*
X450667Y570313D01*
X450625Y570224D01*
X450609Y570150D01*
X450583Y570077D01*
X450572Y569979D01*
X450552Y569883D01*
X450553Y569807D01*
X450544Y569731D01*
X450556Y569633D01*
X450558Y569535D01*
X450576Y569461D01*
X450585Y569385D01*
X450631Y569243D01*
X450643Y569197D01*
X450651Y569180D01*
X450660Y569152D01*
X450942Y568473D01*
X450942Y565194D01*
X450797Y564844D01*
X450776Y564771D01*
X450746Y564701D01*
X450728Y564604D01*
X450701Y564509D01*
X450698Y564433D01*
X450684Y564358D01*
X450689Y564259D01*
X450684Y564161D01*
X450698Y564086D01*
X450702Y564010D01*
X450729Y563915D01*
X450747Y563818D01*
X450777Y563748D01*
X450799Y563675D01*
X450847Y563589D01*
X450886Y563499D01*
X450931Y563437D01*
X450969Y563371D01*
X451065Y563257D01*
X451094Y563219D01*
X451108Y563207D01*
X451127Y563184D01*
X520817Y493495D01*
X520916Y493416D01*
X521010Y493332D01*
X521052Y493308D01*
X521090Y493278D01*
X521204Y493224D01*
X521315Y493163D01*
X521361Y493150D01*
X521405Y493129D01*
X521528Y493103D01*
X521650Y493068D01*
X521711Y493063D01*
X521746Y493056D01*
X521794Y493057D01*
X521894Y493049D01*
X567463Y493049D01*
X588721Y471790D01*
X588781Y471743D01*
X588834Y471688D01*
X588917Y471635D01*
X588994Y471574D01*
X589063Y471541D01*
X589128Y471500D01*
X589220Y471467D01*
X589309Y471425D01*
X589384Y471409D01*
X589456Y471383D01*
X589554Y471372D01*
X589650Y471352D01*
X589726Y471353D01*
X589802Y471344D01*
X589900Y471356D01*
X589998Y471358D01*
X590073Y471376D01*
X590148Y471385D01*
X590290Y471431D01*
X590336Y471443D01*
X590353Y471451D01*
X590381Y471460D01*
X591061Y471742D01*
X594339Y471742D01*
X597369Y470487D01*
X599687Y468169D01*
X600942Y465139D01*
X600942Y461861D01*
X599687Y458831D01*
X597369Y456513D01*
X596435Y456126D01*
X596368Y456089D01*
X596297Y456061D01*
X596217Y456005D01*
X596130Y455957D01*
X596074Y455906D01*
X596011Y455862D01*
X595945Y455789D01*
X595872Y455723D01*
X595829Y455660D01*
X595778Y455603D01*
X595730Y455517D01*
X595674Y455436D01*
X595646Y455365D01*
X595609Y455298D01*
X595582Y455203D01*
X595546Y455112D01*
X595535Y455036D01*
X595514Y454963D01*
X595502Y454814D01*
X595495Y454767D01*
X595497Y454748D01*
X595495Y454719D01*
X595495Y449089D01*
X595509Y448963D01*
X595516Y448837D01*
X595529Y448790D01*
X595535Y448742D01*
X595577Y448623D01*
X595612Y448502D01*
X595636Y448460D01*
X595652Y448414D01*
X595721Y448308D01*
X595782Y448198D01*
X595822Y448151D01*
X595841Y448121D01*
X595876Y448088D01*
X595941Y448011D01*
X598199Y445753D01*
X598298Y445674D01*
X598392Y445590D01*
X598435Y445566D01*
X598472Y445536D01*
X598587Y445482D01*
X598697Y445421D01*
X598744Y445408D01*
X598788Y445387D01*
X598911Y445361D01*
X599033Y445326D01*
X599094Y445321D01*
X599128Y445314D01*
X599176Y445315D01*
X599277Y445307D01*
X601056Y445307D01*
X603006Y444499D01*
X604499Y443006D01*
X605307Y441056D01*
X605307Y438944D01*
X604499Y436994D01*
X602900Y435395D01*
X602837Y435316D01*
X602768Y435244D01*
X602729Y435180D01*
X602683Y435122D01*
X602640Y435031D01*
X602589Y434945D01*
X602566Y434874D01*
X602534Y434807D01*
X602513Y434709D01*
X602483Y434613D01*
X602477Y434539D01*
X602461Y434466D01*
X602463Y434366D01*
X602455Y434266D01*
X602466Y434192D01*
X602467Y434118D01*
X602491Y434021D01*
X602506Y433921D01*
X602534Y433852D01*
X602552Y433780D01*
X602598Y433691D01*
X602635Y433597D01*
X602678Y433536D01*
X602712Y433470D01*
X602777Y433394D01*
X602834Y433311D01*
X602889Y433261D01*
X602937Y433205D01*
X603018Y433145D01*
X603093Y433078D01*
X603158Y433042D01*
X603218Y432997D01*
X603310Y432958D01*
X603398Y432909D01*
X603469Y432889D01*
X603538Y432859D01*
X603637Y432842D01*
X603733Y432814D01*
X603833Y432806D01*
X603881Y432798D01*
X603916Y432800D01*
X603977Y432795D01*
X858211Y432795D01*
X858337Y432809D01*
X858463Y432816D01*
X858510Y432829D01*
X858558Y432835D01*
X858677Y432877D01*
X858798Y432912D01*
X858840Y432936D01*
X858886Y432952D01*
X858992Y433021D01*
X859102Y433082D01*
X859149Y433122D01*
X859179Y433141D01*
X859212Y433176D01*
X859289Y433241D01*
X874259Y448211D01*
X874338Y448310D01*
X874422Y448404D01*
X874446Y448447D01*
X874476Y448484D01*
X874530Y448599D01*
X874591Y448709D01*
X874604Y448756D01*
X874625Y448800D01*
X874651Y448923D01*
X874686Y449045D01*
X874691Y449105D01*
X874698Y449140D01*
X874697Y449188D01*
X874705Y449289D01*
X874705Y451158D01*
X875509Y451961D01*
X875588Y452061D01*
X875672Y452154D01*
X875696Y452197D01*
X875726Y452234D01*
X875780Y452349D01*
X875841Y452459D01*
X875854Y452506D01*
X875875Y452550D01*
X875901Y452673D01*
X875936Y452795D01*
X875941Y452855D01*
X875948Y452890D01*
X875947Y452938D01*
X875955Y453039D01*
X875955Y517408D01*
X878039Y519491D01*
X900565Y542018D01*
X900582Y542038D01*
X900602Y542056D01*
X900690Y542175D01*
X900782Y542291D01*
X900793Y542315D01*
X900809Y542336D01*
X900868Y542472D01*
X900931Y542606D01*
X900936Y542632D01*
X900947Y542656D01*
X900973Y542802D01*
X901004Y542946D01*
X901004Y542973D01*
X901008Y542999D01*
X901001Y543147D01*
X900998Y543295D01*
X900992Y543321D01*
X900990Y543347D01*
X900975Y543400D01*
X900975Y551238D01*
X906262Y556525D01*
X913738Y556525D01*
X919025Y551238D01*
X919025Y543762D01*
X913738Y538475D01*
X905877Y538475D01*
X905744Y538504D01*
X905717Y538504D01*
X905691Y538508D01*
X905543Y538501D01*
X905395Y538498D01*
X905369Y538492D01*
X905343Y538490D01*
X905201Y538449D01*
X905057Y538413D01*
X905034Y538401D01*
X905008Y538394D01*
X904879Y538322D01*
X904747Y538254D01*
X904727Y538237D01*
X904704Y538224D01*
X904518Y538065D01*
X881991Y515539D01*
X881912Y515440D01*
X881828Y515346D01*
X881804Y515303D01*
X881774Y515266D01*
X881720Y515151D01*
X881659Y515041D01*
X881646Y514994D01*
X881625Y514950D01*
X881599Y514827D01*
X881564Y514705D01*
X881559Y514644D01*
X881552Y514610D01*
X881553Y514562D01*
X881545Y514461D01*
X881545Y450539D01*
X881559Y450413D01*
X881566Y450287D01*
X881579Y450240D01*
X881585Y450192D01*
X881627Y450073D01*
X881662Y449952D01*
X881686Y449910D01*
X881702Y449864D01*
X881771Y449758D01*
X881832Y449648D01*
X881872Y449601D01*
X881891Y449571D01*
X881926Y449538D01*
X881991Y449461D01*
X904518Y426935D01*
X904538Y426918D01*
X904556Y426898D01*
X904675Y426810D01*
X904791Y426718D01*
X904815Y426707D01*
X904836Y426691D01*
X904972Y426632D01*
X905106Y426569D01*
X905132Y426564D01*
X905156Y426553D01*
X905302Y426527D01*
X905446Y426496D01*
X905473Y426496D01*
X905499Y426492D01*
X905647Y426499D01*
X905795Y426502D01*
X905821Y426508D01*
X905847Y426510D01*
X905900Y426525D01*
X913738Y426525D01*
X919025Y421238D01*
X919025Y413762D01*
X913738Y408475D01*
X906262Y408475D01*
X900975Y413762D01*
X900975Y421623D01*
X901004Y421756D01*
X901004Y421783D01*
X901008Y421809D01*
X901001Y421957D01*
X900998Y422105D01*
X900992Y422131D01*
X900990Y422157D01*
X900949Y422299D01*
X900913Y422443D01*
X900901Y422466D01*
X900894Y422492D01*
X900822Y422621D01*
X900754Y422753D01*
X900737Y422773D01*
X900724Y422796D01*
X900565Y422982D01*
X879827Y443721D01*
X879807Y443737D01*
X879790Y443757D01*
X879670Y443845D01*
X879554Y443937D01*
X879530Y443948D01*
X879509Y443964D01*
X879373Y444023D01*
X879239Y444086D01*
X879213Y444092D01*
X879189Y444102D01*
X879043Y444128D01*
X878898Y444159D01*
X878872Y444159D01*
X878846Y444164D01*
X878698Y444156D01*
X878550Y444153D01*
X878524Y444147D01*
X878498Y444146D01*
X878356Y444105D01*
X878212Y444068D01*
X878189Y444056D01*
X878163Y444049D01*
X878034Y443977D01*
X877902Y443909D01*
X877882Y443892D01*
X877859Y443879D01*
X877673Y443721D01*
X861158Y427205D01*
X603977Y427205D01*
X603877Y427194D01*
X603777Y427192D01*
X603705Y427174D01*
X603631Y427165D01*
X603536Y427132D01*
X603439Y427107D01*
X603373Y427073D01*
X603303Y427048D01*
X603218Y426993D01*
X603129Y426947D01*
X603072Y426899D01*
X603010Y426859D01*
X602940Y426787D01*
X602864Y426722D01*
X602819Y426662D01*
X602768Y426608D01*
X602716Y426522D01*
X602656Y426441D01*
X602627Y426373D01*
X602589Y426309D01*
X602558Y426213D01*
X602518Y426121D01*
X602505Y426048D01*
X602483Y425977D01*
X602475Y425877D01*
X602457Y425778D01*
X602461Y425704D01*
X602455Y425630D01*
X602470Y425530D01*
X602475Y425430D01*
X602495Y425359D01*
X602506Y425285D01*
X602543Y425192D01*
X602571Y425095D01*
X602608Y425030D01*
X602635Y424961D01*
X602692Y424879D01*
X602741Y424791D01*
X602807Y424715D01*
X602834Y424675D01*
X602860Y424651D01*
X602900Y424605D01*
X604499Y423006D01*
X605307Y421056D01*
X605307Y418944D01*
X604499Y416994D01*
X603006Y415501D01*
X601056Y414693D01*
X598944Y414693D01*
X596994Y415501D01*
X595501Y416994D01*
X594693Y418944D01*
X594693Y420723D01*
X594679Y420849D01*
X594672Y420975D01*
X594659Y421022D01*
X594653Y421070D01*
X594611Y421189D01*
X594576Y421310D01*
X594552Y421352D01*
X594536Y421398D01*
X594467Y421504D01*
X594406Y421614D01*
X594366Y421661D01*
X594347Y421691D01*
X594312Y421724D01*
X594247Y421801D01*
X587445Y428603D01*
X587327Y428696D01*
X587212Y428793D01*
X587191Y428804D01*
X587172Y428819D01*
X587036Y428884D01*
X586902Y428952D01*
X586879Y428958D01*
X586857Y428968D01*
X586710Y429000D01*
X586564Y429036D01*
X586540Y429037D01*
X586516Y429042D01*
X586366Y429039D01*
X586215Y429041D01*
X586192Y429036D01*
X586168Y429036D01*
X586022Y428999D01*
X585875Y428967D01*
X585853Y428957D01*
X585830Y428951D01*
X585695Y428882D01*
X585560Y428817D01*
X585541Y428802D01*
X585520Y428791D01*
X585405Y428693D01*
X585288Y428600D01*
X585273Y428581D01*
X585254Y428565D01*
X585165Y428444D01*
X585072Y428326D01*
X585059Y428300D01*
X585047Y428285D01*
X585029Y428242D01*
X584960Y428109D01*
X584499Y426994D01*
X583006Y425501D01*
X581056Y424693D01*
X578944Y424693D01*
X576994Y425501D01*
X575736Y426759D01*
X575637Y426838D01*
X575543Y426922D01*
X575501Y426946D01*
X575463Y426976D01*
X575349Y427030D01*
X575238Y427091D01*
X575192Y427104D01*
X575148Y427125D01*
X575025Y427151D01*
X574903Y427186D01*
X574842Y427191D01*
X574807Y427198D01*
X574759Y427197D01*
X574659Y427205D01*
X574242Y427205D01*
X546133Y455315D01*
X546073Y455362D01*
X546020Y455417D01*
X545937Y455470D01*
X545860Y455531D01*
X545791Y455564D01*
X545726Y455605D01*
X545634Y455638D01*
X545545Y455680D01*
X545470Y455696D01*
X545398Y455722D01*
X545300Y455733D01*
X545204Y455754D01*
X545128Y455752D01*
X545052Y455761D01*
X544954Y455749D01*
X544856Y455748D01*
X544781Y455729D01*
X544706Y455720D01*
X544564Y455674D01*
X544518Y455663D01*
X544501Y455654D01*
X544473Y455645D01*
X543539Y455258D01*
X540261Y455258D01*
X537231Y456513D01*
X534913Y458831D01*
X533658Y461861D01*
X533658Y465139D01*
X534913Y468169D01*
X537231Y470487D01*
X540261Y471742D01*
X543539Y471742D01*
X546569Y470487D01*
X548887Y468169D01*
X550142Y465139D01*
X550142Y461861D01*
X549755Y460927D01*
X549734Y460854D01*
X549704Y460783D01*
X549686Y460687D01*
X549659Y460592D01*
X549656Y460516D01*
X549642Y460440D01*
X549647Y460342D01*
X549642Y460244D01*
X549656Y460169D01*
X549660Y460092D01*
X549687Y459998D01*
X549705Y459901D01*
X549735Y459831D01*
X549757Y459758D01*
X549805Y459672D01*
X549844Y459581D01*
X549889Y459520D01*
X549927Y459453D01*
X550024Y459340D01*
X550052Y459302D01*
X550066Y459289D01*
X550085Y459267D01*
X574847Y434506D01*
X574867Y434489D01*
X574884Y434469D01*
X575004Y434381D01*
X575120Y434289D01*
X575143Y434278D01*
X575165Y434262D01*
X575301Y434203D01*
X575435Y434140D01*
X575460Y434135D01*
X575485Y434124D01*
X575631Y434098D01*
X575775Y434067D01*
X575802Y434067D01*
X575828Y434063D01*
X575976Y434070D01*
X576124Y434073D01*
X576149Y434079D01*
X576176Y434081D01*
X576318Y434122D01*
X576462Y434158D01*
X576485Y434170D01*
X576511Y434177D01*
X576640Y434249D01*
X576772Y434317D01*
X576792Y434334D01*
X576815Y434347D01*
X576992Y434498D01*
X578109Y434960D01*
X578240Y435033D01*
X578374Y435102D01*
X578392Y435118D01*
X578413Y435130D01*
X578524Y435231D01*
X578639Y435328D01*
X578653Y435348D01*
X578671Y435364D01*
X578757Y435488D01*
X578846Y435609D01*
X578856Y435631D01*
X578870Y435651D01*
X578925Y435791D01*
X578984Y435929D01*
X578988Y435952D01*
X578997Y435975D01*
X579019Y436124D01*
X579046Y436272D01*
X579045Y436296D01*
X579048Y436320D01*
X579036Y436470D01*
X579028Y436620D01*
X579021Y436643D01*
X579019Y436667D01*
X578973Y436810D01*
X578931Y436954D01*
X578920Y436976D01*
X578912Y436999D01*
X578835Y437128D01*
X578761Y437259D01*
X578742Y437281D01*
X578732Y437297D01*
X578699Y437331D01*
X578603Y437445D01*
X562605Y453442D01*
X562605Y455908D01*
X562591Y456034D01*
X562584Y456160D01*
X562571Y456206D01*
X562565Y456254D01*
X562523Y456373D01*
X562488Y456495D01*
X562464Y456537D01*
X562448Y456583D01*
X562379Y456689D01*
X562318Y456799D01*
X562278Y456845D01*
X562259Y456875D01*
X562224Y456909D01*
X562159Y456985D01*
X560313Y458831D01*
X559058Y461861D01*
X559058Y465139D01*
X559340Y465819D01*
X559361Y465892D01*
X559391Y465963D01*
X559408Y466059D01*
X559435Y466154D01*
X559439Y466230D01*
X559453Y466306D01*
X559448Y466404D01*
X559452Y466502D01*
X559439Y466577D01*
X559435Y466654D01*
X559407Y466748D01*
X559390Y466845D01*
X559359Y466915D01*
X559338Y466988D01*
X559290Y467074D01*
X559251Y467165D01*
X559205Y467226D01*
X559168Y467293D01*
X559071Y467406D01*
X559043Y467444D01*
X559028Y467457D01*
X559010Y467479D01*
X549983Y476505D01*
X549884Y476584D01*
X549790Y476668D01*
X549748Y476692D01*
X549710Y476722D01*
X549596Y476776D01*
X549485Y476837D01*
X549439Y476850D01*
X549395Y476871D01*
X549272Y476897D01*
X549150Y476932D01*
X549089Y476937D01*
X549054Y476944D01*
X549006Y476943D01*
X548906Y476951D01*
X502870Y476951D01*
X500639Y479183D01*
X500638Y479183D01*
X421279Y558543D01*
X421219Y558590D01*
X421166Y558645D01*
X421083Y558698D01*
X421006Y558759D01*
X420937Y558792D01*
X420873Y558833D01*
X420780Y558866D01*
X420691Y558908D01*
X420616Y558924D01*
X420544Y558950D01*
X420446Y558961D01*
X420350Y558982D01*
X420274Y558980D01*
X420198Y558989D01*
X420100Y558977D01*
X420002Y558976D01*
X419928Y558957D01*
X419852Y558948D01*
X419709Y558902D01*
X419664Y558891D01*
X419647Y558882D01*
X419619Y558873D01*
X418939Y558592D01*
X415661Y558592D01*
X414981Y558873D01*
X414908Y558894D01*
X414837Y558924D01*
X414741Y558942D01*
X414646Y558969D01*
X414570Y558972D01*
X414494Y558986D01*
X414396Y558981D01*
X414298Y558986D01*
X414223Y558972D01*
X414146Y558968D01*
X414052Y558941D01*
X413955Y558923D01*
X413885Y558893D01*
X413812Y558872D01*
X413726Y558823D01*
X413635Y558784D01*
X413574Y558739D01*
X413507Y558701D01*
X413394Y558605D01*
X413356Y558576D01*
X413343Y558562D01*
X413321Y558543D01*
X400325Y545547D01*
X400246Y545448D01*
X400162Y545354D01*
X400138Y545311D01*
X400108Y545274D01*
X400054Y545159D01*
X399993Y545049D01*
X399980Y545002D01*
X399959Y544959D01*
X399933Y544835D01*
X399898Y544713D01*
X399893Y544653D01*
X399886Y544618D01*
X399887Y544570D01*
X399879Y544470D01*
X399879Y535908D01*
X394092Y530121D01*
X385530Y530121D01*
X385405Y530107D01*
X385279Y530100D01*
X385232Y530087D01*
X385184Y530081D01*
X385065Y530039D01*
X384944Y530004D01*
X384902Y529980D01*
X384856Y529964D01*
X384750Y529895D01*
X384640Y529834D01*
X384593Y529794D01*
X384563Y529775D01*
X384530Y529740D01*
X384453Y529675D01*
X330792Y476013D01*
X330173Y475395D01*
X330111Y475317D01*
X330041Y475244D01*
X330003Y475180D01*
X329957Y475122D01*
X329914Y475031D01*
X329862Y474945D01*
X329840Y474874D01*
X329808Y474807D01*
X329787Y474709D01*
X329756Y474613D01*
X329750Y474539D01*
X329734Y474466D01*
X329736Y474366D01*
X329728Y474266D01*
X329739Y474192D01*
X329740Y474118D01*
X329765Y474021D01*
X329780Y473921D01*
X329807Y473852D01*
X329825Y473780D01*
X329871Y473691D01*
X329908Y473597D01*
X329951Y473536D01*
X329985Y473470D01*
X330050Y473393D01*
X330107Y473311D01*
X330163Y473261D01*
X330211Y473205D01*
X330292Y473145D01*
X330366Y473078D01*
X330431Y473042D01*
X330491Y472997D01*
X330583Y472958D01*
X330671Y472909D01*
X330743Y472889D01*
X330811Y472859D01*
X330910Y472842D01*
X331007Y472814D01*
X331107Y472806D01*
X331154Y472798D01*
X331190Y472800D01*
X331250Y472795D01*
X461158Y472795D01*
X538211Y395741D01*
X538310Y395662D01*
X538404Y395578D01*
X538447Y395554D01*
X538484Y395524D01*
X538599Y395470D01*
X538709Y395409D01*
X538756Y395396D01*
X538800Y395375D01*
X538923Y395349D01*
X539045Y395314D01*
X539106Y395309D01*
X539140Y395302D01*
X539188Y395303D01*
X539289Y395295D01*
X899452Y395295D01*
X899478Y395298D01*
X899504Y395296D01*
X899651Y395318D01*
X899798Y395335D01*
X899823Y395343D01*
X899849Y395347D01*
X899987Y395402D01*
X900126Y395452D01*
X900148Y395466D01*
X900173Y395476D01*
X900294Y395561D01*
X900419Y395641D01*
X900437Y395660D01*
X900459Y395675D01*
X900558Y395785D01*
X900661Y395892D01*
X900675Y395914D01*
X900692Y395934D01*
X900719Y395982D01*
X906262Y401525D01*
X913738Y401525D01*
X918252Y397011D01*
X918351Y396932D01*
X918445Y396848D01*
X918487Y396824D01*
X918525Y396794D01*
X918639Y396740D01*
X918750Y396679D01*
X918796Y396666D01*
X918840Y396645D01*
X918963Y396619D01*
X919085Y396584D01*
X919146Y396579D01*
X919181Y396572D01*
X919229Y396573D01*
X919329Y396565D01*
X920185Y396565D01*
X920311Y396579D01*
X920437Y396586D01*
X920484Y396599D01*
X920532Y396605D01*
X920651Y396647D01*
X920772Y396682D01*
X920814Y396706D01*
X920860Y396722D01*
X920966Y396791D01*
X921076Y396852D01*
X921122Y396892D01*
X921152Y396911D01*
X921186Y396946D01*
X921262Y397011D01*
X925489Y401238D01*
X925568Y401337D01*
X925652Y401430D01*
X925676Y401473D01*
X925706Y401511D01*
X925760Y401625D01*
X925821Y401735D01*
X925834Y401782D01*
X925855Y401826D01*
X925881Y401949D01*
X925916Y402071D01*
X925921Y402132D01*
X925928Y402166D01*
X925927Y402214D01*
X925935Y402315D01*
X925935Y500185D01*
X925921Y500311D01*
X925914Y500437D01*
X925901Y500484D01*
X925895Y500532D01*
X925853Y500651D01*
X925818Y500772D01*
X925794Y500814D01*
X925778Y500860D01*
X925709Y500966D01*
X925648Y501076D01*
X925608Y501122D01*
X925589Y501152D01*
X925554Y501186D01*
X925489Y501262D01*
X913722Y513029D01*
X913623Y513108D01*
X913530Y513192D01*
X913487Y513216D01*
X913449Y513246D01*
X913335Y513300D01*
X913225Y513361D01*
X913178Y513374D01*
X913134Y513395D01*
X913011Y513421D01*
X912889Y513456D01*
X912828Y513461D01*
X912794Y513468D01*
X912746Y513467D01*
X912645Y513475D01*
X906262Y513475D01*
X900975Y518762D01*
X900975Y526238D01*
X906262Y531525D01*
X913738Y531525D01*
X919025Y526238D01*
X919025Y519855D01*
X919039Y519729D01*
X919046Y519603D01*
X919059Y519556D01*
X919065Y519508D01*
X919107Y519389D01*
X919142Y519268D01*
X919166Y519226D01*
X919182Y519180D01*
X919251Y519074D01*
X919312Y518964D01*
X919352Y518917D01*
X919371Y518887D01*
X919406Y518854D01*
X919471Y518778D01*
X931238Y507011D01*
X934065Y504184D01*
X934065Y398316D01*
X924184Y388435D01*
X919329Y388435D01*
X919204Y388421D01*
X919077Y388414D01*
X919031Y388401D01*
X918983Y388395D01*
X918864Y388353D01*
X918742Y388318D01*
X918700Y388294D01*
X918655Y388278D01*
X918549Y388209D01*
X918438Y388148D01*
X918392Y388108D01*
X918362Y388089D01*
X918328Y388054D01*
X918252Y387989D01*
X913738Y383475D01*
X906262Y383475D01*
X900703Y389034D01*
X900629Y389149D01*
X900610Y389167D01*
X900595Y389189D01*
X900485Y389288D01*
X900378Y389391D01*
X900356Y389405D01*
X900336Y389422D01*
X900206Y389494D01*
X900079Y389570D01*
X900054Y389578D01*
X900031Y389591D01*
X899888Y389631D01*
X899747Y389676D01*
X899721Y389678D01*
X899696Y389686D01*
X899452Y389705D01*
X536342Y389705D01*
X459289Y466759D01*
X459190Y466838D01*
X459096Y466922D01*
X459053Y466946D01*
X459016Y466976D01*
X458901Y467030D01*
X458791Y467091D01*
X458744Y467104D01*
X458700Y467125D01*
X458577Y467151D01*
X458455Y467186D01*
X458394Y467191D01*
X458360Y467198D01*
X458312Y467197D01*
X458211Y467205D01*
X325341Y467205D01*
X325215Y467191D01*
X325089Y467184D01*
X325043Y467171D01*
X324995Y467165D01*
X324876Y467123D01*
X324754Y467088D01*
X324712Y467064D01*
X324667Y467048D01*
X324561Y466979D01*
X324450Y466918D01*
X324404Y466878D01*
X324374Y466859D01*
X324340Y466824D01*
X324264Y466759D01*
X323006Y465501D01*
X321056Y464693D01*
X318944Y464693D01*
X318325Y464950D01*
X318180Y464991D01*
X318037Y465037D01*
X318013Y465039D01*
X317990Y465046D01*
X317840Y465053D01*
X317690Y465065D01*
X317666Y465061D01*
X317642Y465063D01*
X317494Y465036D01*
X317345Y465013D01*
X317323Y465004D01*
X317299Y465000D01*
X317161Y464940D01*
X317021Y464885D01*
X317001Y464871D01*
X316979Y464861D01*
X316858Y464771D01*
X316735Y464686D01*
X316719Y464668D01*
X316700Y464653D01*
X316602Y464538D01*
X316502Y464427D01*
X316490Y464406D01*
X316474Y464387D01*
X316406Y464254D01*
X316333Y464122D01*
X316327Y464099D01*
X316316Y464077D01*
X316279Y463931D01*
X316238Y463786D01*
X316236Y463757D01*
X316231Y463739D01*
X316231Y463692D01*
X316219Y463543D01*
X316219Y461440D01*
X313988Y459209D01*
X313987Y459209D01*
X313962Y459184D01*
X313962Y459183D01*
X311730Y456951D01*
X251894Y456951D01*
X251768Y456937D01*
X251642Y456930D01*
X251596Y456917D01*
X251548Y456911D01*
X251429Y456869D01*
X251307Y456834D01*
X251265Y456810D01*
X251219Y456794D01*
X251113Y456725D01*
X251003Y456664D01*
X250957Y456624D01*
X250927Y456605D01*
X250893Y456570D01*
X250817Y456505D01*
X231263Y436951D01*
X225548Y436951D01*
X225422Y436937D01*
X225296Y436930D01*
X225250Y436917D01*
X225202Y436911D01*
X225083Y436869D01*
X224961Y436834D01*
X224919Y436810D01*
X224874Y436794D01*
X224767Y436725D01*
X224657Y436664D01*
X224611Y436624D01*
X224581Y436605D01*
X224547Y436570D01*
X224471Y436505D01*
X221036Y433070D01*
X221020Y433050D01*
X221000Y433033D01*
X220912Y432914D01*
X220820Y432797D01*
X220808Y432774D01*
X220793Y432753D01*
X220734Y432616D01*
X220671Y432482D01*
X220665Y432457D01*
X220655Y432433D01*
X220629Y432286D01*
X220597Y432142D01*
X220598Y432116D01*
X220593Y432090D01*
X220601Y431941D01*
X220603Y431793D01*
X220610Y431768D01*
X220611Y431742D01*
X220652Y431599D01*
X220688Y431455D01*
X220700Y431432D01*
X220708Y431407D01*
X220780Y431277D01*
X220848Y431145D01*
X220865Y431126D01*
X220878Y431103D01*
X221036Y430916D01*
X221373Y430580D01*
X221445Y430405D01*
X221482Y430338D01*
X221510Y430267D01*
X221567Y430186D01*
X221614Y430100D01*
X221666Y430044D01*
X221709Y429981D01*
X221782Y429915D01*
X221848Y429842D01*
X221911Y429799D01*
X221968Y429748D01*
X222054Y429700D01*
X222135Y429644D01*
X222206Y429616D01*
X222273Y429579D01*
X222368Y429552D01*
X222459Y429516D01*
X222535Y429505D01*
X222609Y429484D01*
X222757Y429472D01*
X222804Y429465D01*
X222823Y429467D01*
X222852Y429465D01*
X233085Y429465D01*
X233211Y429479D01*
X233337Y429486D01*
X233384Y429499D01*
X233432Y429505D01*
X233551Y429547D01*
X233672Y429582D01*
X233714Y429606D01*
X233760Y429622D01*
X233866Y429691D01*
X233976Y429752D01*
X234022Y429792D01*
X234052Y429811D01*
X234086Y429846D01*
X234162Y429911D01*
X248316Y444065D01*
X258697Y444065D01*
X258723Y444068D01*
X258749Y444066D01*
X258896Y444088D01*
X259043Y444105D01*
X259068Y444113D01*
X259094Y444117D01*
X259232Y444172D01*
X259371Y444222D01*
X259393Y444236D01*
X259418Y444246D01*
X259539Y444331D01*
X259664Y444411D01*
X259682Y444430D01*
X259704Y444445D01*
X259803Y444555D01*
X259906Y444662D01*
X259920Y444684D01*
X259937Y444704D01*
X260009Y444834D01*
X260085Y444961D01*
X260093Y444986D01*
X260106Y445009D01*
X260146Y445152D01*
X260191Y445293D01*
X260193Y445319D01*
X260201Y445344D01*
X260220Y445588D01*
X260220Y446982D01*
X261113Y447875D01*
X268727Y447875D01*
X268923Y447678D01*
X268943Y447662D01*
X268960Y447642D01*
X269080Y447554D01*
X269196Y447462D01*
X269220Y447451D01*
X269241Y447435D01*
X269377Y447376D01*
X269511Y447313D01*
X269537Y447307D01*
X269561Y447297D01*
X269707Y447271D01*
X269852Y447239D01*
X269878Y447240D01*
X269904Y447235D01*
X270052Y447243D01*
X270200Y447245D01*
X270226Y447252D01*
X270252Y447253D01*
X270394Y447294D01*
X270538Y447330D01*
X270561Y447342D01*
X270587Y447350D01*
X270716Y447422D01*
X270848Y447490D01*
X270868Y447507D01*
X270891Y447520D01*
X271077Y447678D01*
X271273Y447875D01*
X278887Y447875D01*
X279780Y446982D01*
X279780Y445588D01*
X279783Y445562D01*
X279781Y445536D01*
X279803Y445389D01*
X279820Y445242D01*
X279828Y445217D01*
X279832Y445191D01*
X279887Y445053D01*
X279937Y444914D01*
X279951Y444892D01*
X279961Y444867D01*
X280046Y444746D01*
X280126Y444621D01*
X280145Y444603D01*
X280160Y444581D01*
X280270Y444482D01*
X280377Y444379D01*
X280399Y444365D01*
X280419Y444348D01*
X280549Y444276D01*
X280676Y444200D01*
X280701Y444192D01*
X280724Y444179D01*
X280867Y444139D01*
X281008Y444094D01*
X281034Y444092D01*
X281059Y444084D01*
X281303Y444065D01*
X291001Y444065D01*
X291127Y444079D01*
X291253Y444086D01*
X291299Y444099D01*
X291347Y444105D01*
X291466Y444147D01*
X291588Y444182D01*
X291630Y444206D01*
X291676Y444222D01*
X291782Y444291D01*
X291892Y444352D01*
X291938Y444392D01*
X291968Y444411D01*
X292002Y444446D01*
X292078Y444511D01*
X296712Y449145D01*
X304288Y449145D01*
X309645Y443788D01*
X309645Y436212D01*
X304288Y430855D01*
X296712Y430855D01*
X292078Y435489D01*
X291979Y435568D01*
X291885Y435652D01*
X291843Y435676D01*
X291805Y435706D01*
X291691Y435760D01*
X291580Y435821D01*
X291534Y435834D01*
X291490Y435855D01*
X291367Y435881D01*
X291245Y435916D01*
X291184Y435921D01*
X291150Y435928D01*
X291101Y435927D01*
X291001Y435935D01*
X281303Y435935D01*
X281277Y435932D01*
X281251Y435934D01*
X281104Y435912D01*
X280957Y435895D01*
X280932Y435887D01*
X280906Y435883D01*
X280768Y435828D01*
X280629Y435778D01*
X280607Y435764D01*
X280582Y435754D01*
X280461Y435669D01*
X280336Y435589D01*
X280318Y435570D01*
X280296Y435555D01*
X280197Y435445D01*
X280094Y435338D01*
X280080Y435316D01*
X280063Y435296D01*
X279991Y435166D01*
X279915Y435039D01*
X279907Y435014D01*
X279894Y434991D01*
X279854Y434848D01*
X279809Y434707D01*
X279807Y434681D01*
X279799Y434656D01*
X279780Y434412D01*
X279780Y433018D01*
X278887Y432125D01*
X271273Y432125D01*
X271077Y432322D01*
X271057Y432338D01*
X271040Y432358D01*
X270921Y432446D01*
X270804Y432538D01*
X270780Y432549D01*
X270759Y432565D01*
X270623Y432624D01*
X270489Y432687D01*
X270463Y432693D01*
X270439Y432703D01*
X270293Y432729D01*
X270148Y432761D01*
X270122Y432760D01*
X270096Y432765D01*
X269948Y432757D01*
X269800Y432755D01*
X269774Y432748D01*
X269748Y432747D01*
X269606Y432706D01*
X269462Y432670D01*
X269438Y432657D01*
X269413Y432650D01*
X269284Y432578D01*
X269152Y432510D01*
X269132Y432493D01*
X269109Y432480D01*
X268923Y432322D01*
X268727Y432125D01*
X261113Y432125D01*
X260220Y433018D01*
X260220Y434412D01*
X260217Y434438D01*
X260219Y434464D01*
X260197Y434611D01*
X260180Y434758D01*
X260172Y434783D01*
X260168Y434809D01*
X260113Y434947D01*
X260063Y435086D01*
X260049Y435108D01*
X260039Y435133D01*
X259954Y435254D01*
X259874Y435379D01*
X259855Y435397D01*
X259840Y435419D01*
X259730Y435518D01*
X259623Y435621D01*
X259601Y435635D01*
X259581Y435652D01*
X259451Y435724D01*
X259324Y435800D01*
X259299Y435808D01*
X259276Y435821D01*
X259133Y435861D01*
X258992Y435906D01*
X258966Y435908D01*
X258941Y435916D01*
X258697Y435935D01*
X252315Y435935D01*
X252189Y435921D01*
X252063Y435914D01*
X252016Y435901D01*
X251968Y435895D01*
X251849Y435853D01*
X251728Y435818D01*
X251686Y435794D01*
X251640Y435778D01*
X251534Y435709D01*
X251424Y435648D01*
X251378Y435608D01*
X251348Y435589D01*
X251314Y435554D01*
X251238Y435489D01*
X237084Y421335D01*
X222852Y421335D01*
X222776Y421327D01*
X222700Y421328D01*
X222604Y421307D01*
X222506Y421295D01*
X222434Y421270D01*
X222359Y421253D01*
X222271Y421211D01*
X222178Y421178D01*
X222114Y421136D01*
X222045Y421104D01*
X221968Y421042D01*
X221885Y420989D01*
X221832Y420934D01*
X221772Y420886D01*
X221711Y420809D01*
X221643Y420738D01*
X221604Y420673D01*
X221556Y420613D01*
X221488Y420480D01*
X221464Y420439D01*
X221458Y420421D01*
X221445Y420395D01*
X221373Y420220D01*
X218800Y417648D01*
X215439Y416255D01*
X196561Y416255D01*
X193200Y417648D01*
X190628Y420220D01*
X189235Y423581D01*
X189235Y427219D01*
X190627Y430580D01*
X190964Y430916D01*
X190980Y430937D01*
X191000Y430954D01*
X191088Y431073D01*
X191180Y431189D01*
X191191Y431213D01*
X191207Y431234D01*
X191266Y431370D01*
X191329Y431504D01*
X191335Y431530D01*
X191345Y431554D01*
X191371Y431700D01*
X191403Y431845D01*
X191402Y431871D01*
X191407Y431897D01*
X191399Y432045D01*
X191397Y432194D01*
X191390Y432219D01*
X191389Y432245D01*
X191348Y432388D01*
X191312Y432531D01*
X191300Y432555D01*
X191292Y432580D01*
X191220Y432710D01*
X191152Y432841D01*
X191135Y432861D01*
X191122Y432884D01*
X190964Y433070D01*
X188783Y435251D01*
X187529Y436505D01*
X187430Y436584D01*
X187336Y436668D01*
X187294Y436692D01*
X187256Y436722D01*
X187142Y436776D01*
X187031Y436837D01*
X186985Y436850D01*
X186941Y436871D01*
X186818Y436897D01*
X186696Y436932D01*
X186635Y436937D01*
X186600Y436944D01*
X186552Y436943D01*
X186452Y436951D01*
X140394Y436951D01*
X140268Y436937D01*
X140142Y436930D01*
X140096Y436917D01*
X140048Y436911D01*
X139929Y436869D01*
X139807Y436834D01*
X139765Y436810D01*
X139719Y436794D01*
X139613Y436725D01*
X139503Y436664D01*
X139457Y436624D01*
X139427Y436605D01*
X139393Y436570D01*
X139317Y436505D01*
X130153Y427341D01*
X130074Y427242D01*
X129990Y427148D01*
X129966Y427106D01*
X129936Y427068D01*
X129882Y426954D01*
X129821Y426843D01*
X129808Y426797D01*
X129787Y426753D01*
X129761Y426630D01*
X129726Y426508D01*
X129721Y426447D01*
X129714Y426412D01*
X129715Y426364D01*
X129707Y426264D01*
X129707Y424844D01*
X128899Y422894D01*
X127406Y421401D01*
X125456Y420593D01*
X123344Y420593D01*
X121251Y421460D01*
X121202Y421474D01*
X121157Y421496D01*
X121035Y421522D01*
X120916Y421556D01*
X120865Y421559D01*
X120816Y421569D01*
X120692Y421567D01*
X120568Y421573D01*
X120518Y421564D01*
X120468Y421563D01*
X120347Y421533D01*
X120225Y421511D01*
X120179Y421491D01*
X120130Y421478D01*
X120019Y421421D01*
X119905Y421372D01*
X119865Y421342D01*
X119820Y421319D01*
X119725Y421238D01*
X119625Y421164D01*
X119593Y421125D01*
X119554Y421093D01*
X119481Y420993D01*
X119400Y420898D01*
X119377Y420853D01*
X119347Y420812D01*
X119298Y420698D01*
X119241Y420588D01*
X119229Y420539D01*
X119209Y420492D01*
X119187Y420370D01*
X119157Y420249D01*
X119157Y420199D01*
X119148Y420149D01*
X119154Y420025D01*
X119152Y419901D01*
X119163Y419852D01*
X119166Y419801D01*
X119200Y419682D01*
X119227Y419560D01*
X119248Y419515D01*
X119262Y419467D01*
X119323Y419358D01*
X119376Y419246D01*
X119408Y419206D01*
X119432Y419162D01*
X119591Y418976D01*
X119593Y418973D01*
X119594Y418973D01*
X160726Y377841D01*
X160825Y377762D01*
X160919Y377678D01*
X160961Y377654D01*
X160999Y377624D01*
X161113Y377570D01*
X161224Y377509D01*
X161270Y377496D01*
X161314Y377475D01*
X161437Y377449D01*
X161559Y377414D01*
X161620Y377409D01*
X161655Y377402D01*
X161703Y377403D01*
X161803Y377395D01*
X188622Y377395D01*
X188697Y377403D01*
X188774Y377402D01*
X188870Y377423D01*
X188968Y377435D01*
X189040Y377460D01*
X189114Y377477D01*
X189203Y377519D01*
X189296Y377552D01*
X189360Y377594D01*
X189429Y377626D01*
X189506Y377688D01*
X189589Y377741D01*
X189642Y377796D01*
X189702Y377844D01*
X189763Y377921D01*
X189831Y377992D01*
X189870Y378057D01*
X189918Y378117D01*
X189986Y378250D01*
X190010Y378291D01*
X190016Y378309D01*
X190029Y378335D01*
X190627Y379780D01*
X193200Y382352D01*
X196561Y383745D01*
X215439Y383745D01*
X218800Y382352D01*
X221373Y379780D01*
X221445Y379605D01*
X221482Y379538D01*
X221510Y379467D01*
X221567Y379386D01*
X221614Y379300D01*
X221666Y379244D01*
X221709Y379181D01*
X221782Y379115D01*
X221848Y379042D01*
X221911Y378999D01*
X221968Y378948D01*
X222054Y378900D01*
X222135Y378844D01*
X222206Y378816D01*
X222273Y378779D01*
X222368Y378752D01*
X222459Y378716D01*
X222535Y378705D01*
X222609Y378684D01*
X222757Y378672D01*
X222804Y378665D01*
X222823Y378667D01*
X222852Y378665D01*
X237084Y378665D01*
X246238Y369511D01*
X246337Y369432D01*
X246430Y369348D01*
X246473Y369324D01*
X246511Y369294D01*
X246625Y369240D01*
X246735Y369179D01*
X246782Y369166D01*
X246826Y369145D01*
X246949Y369119D01*
X247071Y369084D01*
X247132Y369079D01*
X247166Y369072D01*
X247214Y369073D01*
X247315Y369065D01*
X258697Y369065D01*
X258723Y369068D01*
X258749Y369066D01*
X258896Y369088D01*
X259043Y369105D01*
X259068Y369113D01*
X259094Y369117D01*
X259232Y369172D01*
X259371Y369222D01*
X259393Y369236D01*
X259418Y369246D01*
X259539Y369331D01*
X259664Y369411D01*
X259682Y369430D01*
X259704Y369445D01*
X259803Y369555D01*
X259906Y369662D01*
X259920Y369684D01*
X259937Y369704D01*
X260009Y369834D01*
X260085Y369961D01*
X260093Y369986D01*
X260106Y370009D01*
X260146Y370152D01*
X260191Y370293D01*
X260193Y370319D01*
X260201Y370344D01*
X260220Y370588D01*
X260220Y371982D01*
X261113Y372875D01*
X268727Y372875D01*
X268923Y372678D01*
X268943Y372662D01*
X268960Y372642D01*
X269080Y372554D01*
X269196Y372462D01*
X269220Y372451D01*
X269241Y372435D01*
X269377Y372376D01*
X269511Y372313D01*
X269537Y372307D01*
X269561Y372297D01*
X269707Y372271D01*
X269852Y372239D01*
X269878Y372240D01*
X269904Y372235D01*
X270052Y372243D01*
X270200Y372245D01*
X270226Y372252D01*
X270252Y372253D01*
X270394Y372294D01*
X270538Y372330D01*
X270561Y372342D01*
X270587Y372350D01*
X270716Y372422D01*
X270848Y372490D01*
X270868Y372507D01*
X270891Y372520D01*
X271077Y372678D01*
X271273Y372875D01*
X278887Y372875D01*
X279780Y371982D01*
X279780Y370588D01*
X279783Y370562D01*
X279781Y370536D01*
X279803Y370389D01*
X279820Y370242D01*
X279828Y370217D01*
X279832Y370191D01*
X279887Y370053D01*
X279937Y369914D01*
X279951Y369892D01*
X279961Y369867D01*
X280046Y369746D01*
X280126Y369621D01*
X280145Y369603D01*
X280160Y369581D01*
X280270Y369482D01*
X280377Y369379D01*
X280399Y369365D01*
X280419Y369348D01*
X280549Y369276D01*
X280676Y369200D01*
X280701Y369192D01*
X280724Y369179D01*
X280867Y369139D01*
X281008Y369094D01*
X281034Y369092D01*
X281059Y369084D01*
X281303Y369065D01*
X291001Y369065D01*
X291127Y369079D01*
X291253Y369086D01*
X291299Y369099D01*
X291347Y369105D01*
X291466Y369147D01*
X291588Y369182D01*
X291630Y369206D01*
X291675Y369222D01*
X291782Y369291D01*
X291892Y369352D01*
X291938Y369392D01*
X291968Y369411D01*
X292002Y369446D01*
X292078Y369511D01*
X296712Y374145D01*
X304288Y374145D01*
X309645Y368788D01*
X309645Y361212D01*
X304288Y355855D01*
X296712Y355855D01*
X292078Y360489D01*
X291979Y360568D01*
X291885Y360652D01*
X291843Y360676D01*
X291805Y360706D01*
X291691Y360760D01*
X291580Y360821D01*
X291534Y360834D01*
X291490Y360855D01*
X291367Y360881D01*
X291245Y360916D01*
X291184Y360921D01*
X291149Y360928D01*
X291101Y360927D01*
X291001Y360935D01*
X281303Y360935D01*
X281277Y360932D01*
X281251Y360934D01*
X281104Y360912D01*
X280957Y360895D01*
X280932Y360887D01*
X280906Y360883D01*
X280768Y360828D01*
X280629Y360778D01*
X280607Y360764D01*
X280582Y360754D01*
X280461Y360669D01*
X280336Y360589D01*
X280318Y360570D01*
X280296Y360555D01*
X280197Y360445D01*
X280094Y360338D01*
X280080Y360316D01*
X280063Y360296D01*
X279991Y360166D01*
X279915Y360039D01*
X279907Y360014D01*
X279894Y359991D01*
X279854Y359848D01*
X279809Y359707D01*
X279807Y359681D01*
X279799Y359656D01*
X279780Y359412D01*
X279780Y358018D01*
X278887Y357125D01*
X271273Y357125D01*
X271077Y357322D01*
X271057Y357338D01*
X271040Y357358D01*
X270920Y357446D01*
X270804Y357538D01*
X270780Y357549D01*
X270759Y357565D01*
X270623Y357624D01*
X270489Y357687D01*
X270463Y357693D01*
X270439Y357703D01*
X270293Y357729D01*
X270148Y357761D01*
X270122Y357760D01*
X270096Y357765D01*
X269948Y357757D01*
X269800Y357755D01*
X269774Y357748D01*
X269748Y357747D01*
X269606Y357706D01*
X269462Y357670D01*
X269438Y357657D01*
X269413Y357650D01*
X269284Y357578D01*
X269152Y357510D01*
X269132Y357493D01*
X269109Y357480D01*
X268923Y357322D01*
X268727Y357125D01*
X261113Y357125D01*
X260220Y358018D01*
X260220Y359412D01*
X260217Y359438D01*
X260219Y359464D01*
X260197Y359611D01*
X260180Y359758D01*
X260172Y359783D01*
X260168Y359809D01*
X260113Y359947D01*
X260063Y360086D01*
X260049Y360108D01*
X260039Y360133D01*
X259954Y360254D01*
X259874Y360379D01*
X259855Y360397D01*
X259840Y360419D01*
X259730Y360518D01*
X259623Y360621D01*
X259601Y360635D01*
X259581Y360652D01*
X259451Y360724D01*
X259324Y360800D01*
X259299Y360808D01*
X259276Y360821D01*
X259133Y360861D01*
X258992Y360906D01*
X258966Y360908D01*
X258941Y360916D01*
X258697Y360935D01*
X243316Y360935D01*
X234162Y370089D01*
X234063Y370168D01*
X233970Y370252D01*
X233927Y370276D01*
X233889Y370306D01*
X233775Y370360D01*
X233665Y370421D01*
X233618Y370434D01*
X233574Y370455D01*
X233451Y370481D01*
X233329Y370516D01*
X233268Y370521D01*
X233234Y370528D01*
X233186Y370527D01*
X233085Y370535D01*
X222852Y370535D01*
X222776Y370527D01*
X222700Y370528D01*
X222604Y370507D01*
X222506Y370495D01*
X222434Y370470D01*
X222359Y370453D01*
X222271Y370411D01*
X222178Y370378D01*
X222114Y370336D01*
X222045Y370304D01*
X221968Y370242D01*
X221885Y370189D01*
X221832Y370134D01*
X221772Y370086D01*
X221711Y370009D01*
X221643Y369938D01*
X221604Y369873D01*
X221556Y369813D01*
X221488Y369680D01*
X221464Y369639D01*
X221458Y369621D01*
X221445Y369595D01*
X221373Y369420D01*
X218800Y366848D01*
X215439Y365455D01*
X196561Y365455D01*
X193200Y366848D01*
X190627Y369420D01*
X190029Y370865D01*
X189992Y370932D01*
X189964Y371003D01*
X189907Y371084D01*
X189860Y371170D01*
X189808Y371226D01*
X189765Y371289D01*
X189692Y371355D01*
X189625Y371428D01*
X189563Y371471D01*
X189506Y371522D01*
X189420Y371570D01*
X189339Y371626D01*
X189268Y371654D01*
X189201Y371691D01*
X189106Y371718D01*
X189015Y371754D01*
X188939Y371765D01*
X188865Y371786D01*
X188717Y371798D01*
X188670Y371805D01*
X188651Y371803D01*
X188622Y371805D01*
X158857Y371805D01*
X118465Y412197D01*
X118387Y412259D01*
X118314Y412329D01*
X118250Y412368D01*
X118192Y412414D01*
X118101Y412457D01*
X118015Y412508D01*
X117944Y412531D01*
X117877Y412563D01*
X117779Y412584D01*
X117683Y412614D01*
X117609Y412620D01*
X117536Y412636D01*
X117436Y412634D01*
X117336Y412642D01*
X117262Y412631D01*
X117188Y412630D01*
X117091Y412606D01*
X116991Y412591D01*
X116922Y412563D01*
X116850Y412545D01*
X116760Y412499D01*
X116667Y412462D01*
X116606Y412420D01*
X116540Y412385D01*
X116463Y412320D01*
X116381Y412263D01*
X116331Y412208D01*
X116275Y412160D01*
X116215Y412079D01*
X116148Y412004D01*
X116112Y411939D01*
X116067Y411879D01*
X116028Y411787D01*
X115979Y411699D01*
X115959Y411627D01*
X115929Y411559D01*
X115928Y411549D01*
X114402Y407865D01*
X114369Y407811D01*
X114347Y407741D01*
X114315Y407674D01*
X114294Y407575D01*
X114263Y407479D01*
X114257Y407406D01*
X114242Y407334D01*
X114243Y407232D01*
X114235Y407132D01*
X114246Y407059D01*
X114247Y406985D01*
X114272Y406887D01*
X114287Y406787D01*
X114314Y406719D01*
X114332Y406647D01*
X114378Y406557D01*
X114416Y406463D01*
X114458Y406403D01*
X114491Y406337D01*
X114557Y406260D01*
X114615Y406177D01*
X114669Y406128D01*
X114717Y406071D01*
X114798Y406011D01*
X114873Y405944D01*
X114938Y405908D01*
X114997Y405864D01*
X115090Y405824D01*
X115178Y405775D01*
X115249Y405755D01*
X115317Y405726D01*
X115416Y405708D01*
X115514Y405680D01*
X115613Y405672D01*
X115660Y405664D01*
X115696Y405666D01*
X115758Y405661D01*
X118292Y405661D01*
X171511Y352441D01*
X171610Y352362D01*
X171704Y352278D01*
X171747Y352254D01*
X171784Y352224D01*
X171899Y352170D01*
X172009Y352109D01*
X172056Y352096D01*
X172100Y352075D01*
X172223Y352049D01*
X172345Y352014D01*
X172406Y352009D01*
X172440Y352002D01*
X172488Y352003D01*
X172589Y351995D01*
X188622Y351995D01*
X188697Y352003D01*
X188774Y352002D01*
X188870Y352023D01*
X188968Y352035D01*
X189040Y352060D01*
X189114Y352077D01*
X189203Y352119D01*
X189296Y352152D01*
X189360Y352194D01*
X189429Y352226D01*
X189506Y352288D01*
X189589Y352341D01*
X189642Y352396D01*
X189702Y352444D01*
X189763Y352521D01*
X189831Y352592D01*
X189870Y352657D01*
X189918Y352717D01*
X189986Y352850D01*
X190010Y352891D01*
X190016Y352909D01*
X190029Y352935D01*
X190627Y354380D01*
X193200Y356952D01*
X196561Y358345D01*
X215439Y358345D01*
X218800Y356952D01*
X221373Y354380D01*
X221445Y354205D01*
X221482Y354138D01*
X221510Y354067D01*
X221567Y353986D01*
X221614Y353900D01*
X221666Y353844D01*
X221709Y353781D01*
X221782Y353715D01*
X221848Y353642D01*
X221911Y353599D01*
X221968Y353548D01*
X222054Y353500D01*
X222135Y353444D01*
X222206Y353416D01*
X222273Y353379D01*
X222368Y353352D01*
X222414Y353334D01*
X243738Y332011D01*
X243837Y331932D01*
X243930Y331848D01*
X243973Y331824D01*
X244011Y331794D01*
X244125Y331740D01*
X244235Y331679D01*
X244282Y331666D01*
X244326Y331645D01*
X244449Y331619D01*
X244571Y331584D01*
X244632Y331579D01*
X244666Y331572D01*
X244714Y331573D01*
X244815Y331565D01*
X258697Y331565D01*
X258723Y331568D01*
X258749Y331566D01*
X258896Y331588D01*
X259043Y331605D01*
X259068Y331613D01*
X259094Y331617D01*
X259232Y331672D01*
X259371Y331722D01*
X259393Y331736D01*
X259418Y331746D01*
X259539Y331831D01*
X259664Y331911D01*
X259682Y331930D01*
X259704Y331945D01*
X259803Y332055D01*
X259906Y332162D01*
X259920Y332184D01*
X259937Y332204D01*
X260009Y332334D01*
X260085Y332461D01*
X260093Y332486D01*
X260106Y332509D01*
X260146Y332652D01*
X260191Y332793D01*
X260193Y332819D01*
X260201Y332844D01*
X260220Y333088D01*
X260220Y334482D01*
X261113Y335375D01*
X268727Y335375D01*
X268923Y335178D01*
X268943Y335162D01*
X268960Y335142D01*
X269080Y335054D01*
X269196Y334962D01*
X269220Y334951D01*
X269241Y334935D01*
X269377Y334876D01*
X269511Y334813D01*
X269537Y334807D01*
X269561Y334797D01*
X269707Y334771D01*
X269852Y334739D01*
X269878Y334740D01*
X269904Y334735D01*
X270052Y334743D01*
X270200Y334745D01*
X270226Y334752D01*
X270252Y334753D01*
X270394Y334794D01*
X270538Y334830D01*
X270561Y334842D01*
X270587Y334850D01*
X270716Y334922D01*
X270848Y334990D01*
X270868Y335007D01*
X270891Y335020D01*
X271077Y335178D01*
X271273Y335375D01*
X278887Y335375D01*
X279780Y334482D01*
X279780Y333088D01*
X279783Y333063D01*
X279781Y333038D01*
X279781Y333037D01*
X279781Y333036D01*
X279803Y332889D01*
X279820Y332742D01*
X279828Y332717D01*
X279832Y332691D01*
X279887Y332553D01*
X279937Y332414D01*
X279951Y332392D01*
X279961Y332367D01*
X280046Y332246D01*
X280126Y332121D01*
X280145Y332103D01*
X280160Y332081D01*
X280270Y331982D01*
X280377Y331879D01*
X280399Y331865D01*
X280419Y331848D01*
X280549Y331776D01*
X280676Y331700D01*
X280701Y331692D01*
X280724Y331679D01*
X280867Y331639D01*
X281008Y331594D01*
X281034Y331592D01*
X281059Y331584D01*
X281303Y331565D01*
X291001Y331565D01*
X291127Y331579D01*
X291253Y331586D01*
X291299Y331599D01*
X291347Y331605D01*
X291466Y331647D01*
X291588Y331682D01*
X291630Y331706D01*
X291675Y331722D01*
X291782Y331791D01*
X291892Y331852D01*
X291938Y331892D01*
X291968Y331911D01*
X291970Y331913D01*
X292002Y331946D01*
X292078Y332011D01*
X296712Y336645D01*
X304288Y336645D01*
X309645Y331288D01*
X309645Y323712D01*
X304288Y318355D01*
X296712Y318355D01*
X292078Y322989D01*
X291979Y323068D01*
X291885Y323152D01*
X291843Y323176D01*
X291805Y323206D01*
X291691Y323260D01*
X291580Y323321D01*
X291534Y323334D01*
X291490Y323355D01*
X291367Y323381D01*
X291245Y323416D01*
X291184Y323421D01*
X291149Y323428D01*
X291101Y323427D01*
X291001Y323435D01*
X281303Y323435D01*
X281277Y323432D01*
X281251Y323434D01*
X281104Y323412D01*
X280957Y323395D01*
X280932Y323387D01*
X280906Y323383D01*
X280768Y323328D01*
X280629Y323278D01*
X280607Y323264D01*
X280582Y323254D01*
X280461Y323169D01*
X280336Y323089D01*
X280318Y323070D01*
X280296Y323055D01*
X280197Y322945D01*
X280094Y322838D01*
X280080Y322816D01*
X280063Y322796D01*
X279991Y322666D01*
X279915Y322539D01*
X279907Y322514D01*
X279894Y322491D01*
X279854Y322348D01*
X279809Y322207D01*
X279807Y322181D01*
X279799Y322156D01*
X279780Y321912D01*
X279780Y320518D01*
X278887Y319625D01*
X271273Y319625D01*
X271077Y319822D01*
X271057Y319838D01*
X271040Y319858D01*
X270920Y319946D01*
X270804Y320038D01*
X270780Y320049D01*
X270759Y320065D01*
X270623Y320124D01*
X270489Y320187D01*
X270463Y320193D01*
X270439Y320203D01*
X270293Y320229D01*
X270148Y320261D01*
X270122Y320260D01*
X270096Y320265D01*
X269948Y320257D01*
X269800Y320255D01*
X269774Y320248D01*
X269748Y320247D01*
X269606Y320206D01*
X269462Y320170D01*
X269438Y320157D01*
X269413Y320150D01*
X269284Y320078D01*
X269152Y320010D01*
X269132Y319993D01*
X269109Y319980D01*
X268923Y319822D01*
X268727Y319625D01*
X261113Y319625D01*
X260220Y320518D01*
X260220Y321912D01*
X260217Y321938D01*
X260219Y321964D01*
X260197Y322111D01*
X260180Y322258D01*
X260172Y322283D01*
X260168Y322309D01*
X260113Y322447D01*
X260063Y322586D01*
X260049Y322608D01*
X260039Y322633D01*
X259954Y322754D01*
X259874Y322879D01*
X259855Y322897D01*
X259840Y322919D01*
X259730Y323018D01*
X259623Y323121D01*
X259601Y323135D01*
X259581Y323152D01*
X259451Y323224D01*
X259324Y323300D01*
X259299Y323308D01*
X259276Y323321D01*
X259133Y323361D01*
X258992Y323406D01*
X258966Y323408D01*
X258941Y323416D01*
X258697Y323435D01*
X240816Y323435D01*
X221879Y342372D01*
X221859Y342389D01*
X221842Y342409D01*
X221722Y342497D01*
X221606Y342589D01*
X221583Y342600D01*
X221561Y342616D01*
X221425Y342675D01*
X221291Y342738D01*
X221265Y342743D01*
X221241Y342754D01*
X221095Y342780D01*
X220950Y342811D01*
X220924Y342811D01*
X220898Y342816D01*
X220750Y342808D01*
X220602Y342805D01*
X220577Y342799D01*
X220550Y342798D01*
X220408Y342757D01*
X220264Y342720D01*
X220241Y342708D01*
X220215Y342701D01*
X220086Y342629D01*
X219954Y342561D01*
X219934Y342544D01*
X219911Y342531D01*
X219725Y342372D01*
X218800Y341448D01*
X215439Y340055D01*
X196561Y340055D01*
X193200Y341448D01*
X190627Y344020D01*
X190029Y345465D01*
X189992Y345532D01*
X189964Y345603D01*
X189907Y345684D01*
X189860Y345770D01*
X189808Y345826D01*
X189765Y345889D01*
X189692Y345955D01*
X189625Y346028D01*
X189563Y346071D01*
X189506Y346122D01*
X189420Y346170D01*
X189339Y346226D01*
X189268Y346254D01*
X189201Y346291D01*
X189106Y346318D01*
X189015Y346354D01*
X188939Y346365D01*
X188865Y346386D01*
X188717Y346398D01*
X188670Y346405D01*
X188651Y346403D01*
X188622Y346405D01*
X170439Y346405D01*
X170339Y346394D01*
X170239Y346392D01*
X170167Y346374D01*
X170093Y346365D01*
X169998Y346332D01*
X169901Y346307D01*
X169835Y346273D01*
X169765Y346248D01*
X169680Y346193D01*
X169591Y346147D01*
X169534Y346099D01*
X169472Y346059D01*
X169402Y345987D01*
X169326Y345922D01*
X169281Y345862D01*
X169230Y345808D01*
X169178Y345722D01*
X169118Y345641D01*
X169089Y345573D01*
X169051Y345509D01*
X169020Y345413D01*
X168980Y345321D01*
X168967Y345248D01*
X168945Y345177D01*
X168937Y345077D01*
X168919Y344978D01*
X168923Y344904D01*
X168917Y344830D01*
X168932Y344730D01*
X168937Y344630D01*
X168957Y344559D01*
X168968Y344485D01*
X169005Y344392D01*
X169033Y344295D01*
X169070Y344230D01*
X169097Y344161D01*
X169154Y344079D01*
X169203Y343991D01*
X169269Y343915D01*
X169296Y343875D01*
X169322Y343851D01*
X169362Y343805D01*
X186126Y327041D01*
X186225Y326962D01*
X186319Y326878D01*
X186361Y326854D01*
X186399Y326824D01*
X186513Y326770D01*
X186624Y326709D01*
X186670Y326696D01*
X186714Y326675D01*
X186837Y326649D01*
X186959Y326614D01*
X187020Y326609D01*
X187055Y326602D01*
X187103Y326603D01*
X187203Y326595D01*
X188622Y326595D01*
X188697Y326603D01*
X188774Y326602D01*
X188870Y326623D01*
X188968Y326635D01*
X189040Y326660D01*
X189114Y326677D01*
X189203Y326719D01*
X189296Y326752D01*
X189360Y326794D01*
X189429Y326826D01*
X189506Y326888D01*
X189589Y326941D01*
X189642Y326996D01*
X189702Y327044D01*
X189763Y327121D01*
X189831Y327192D01*
X189870Y327257D01*
X189918Y327317D01*
X189986Y327450D01*
X190010Y327491D01*
X190016Y327509D01*
X190029Y327535D01*
X190627Y328980D01*
X193200Y331552D01*
X196561Y332945D01*
X215439Y332945D01*
X218800Y331552D01*
X221373Y328980D01*
X221445Y328805D01*
X221482Y328738D01*
X221510Y328667D01*
X221567Y328586D01*
X221614Y328500D01*
X221666Y328444D01*
X221709Y328381D01*
X221782Y328315D01*
X221848Y328242D01*
X221911Y328199D01*
X221968Y328148D01*
X222054Y328100D01*
X222135Y328044D01*
X222206Y328016D01*
X222273Y327979D01*
X222368Y327952D01*
X222459Y327916D01*
X222535Y327905D01*
X222609Y327884D01*
X222757Y327872D01*
X222804Y327865D01*
X222823Y327867D01*
X222852Y327865D01*
X227884Y327865D01*
X258416Y297332D01*
X258437Y297316D01*
X258454Y297296D01*
X258573Y297207D01*
X258689Y297115D01*
X258713Y297104D01*
X258734Y297089D01*
X258870Y297030D01*
X259005Y296966D01*
X259030Y296961D01*
X259054Y296951D01*
X259200Y296924D01*
X259345Y296893D01*
X259371Y296893D01*
X259397Y296889D01*
X259546Y296896D01*
X259694Y296899D01*
X259719Y296905D01*
X259745Y296907D01*
X259888Y296948D01*
X260032Y296984D01*
X260055Y296996D01*
X260080Y297003D01*
X260209Y297076D01*
X260342Y297144D01*
X260362Y297161D01*
X260384Y297173D01*
X260571Y297332D01*
X261113Y297875D01*
X268727Y297875D01*
X268923Y297678D01*
X268943Y297662D01*
X268960Y297642D01*
X269080Y297554D01*
X269196Y297462D01*
X269220Y297451D01*
X269241Y297435D01*
X269377Y297376D01*
X269511Y297313D01*
X269537Y297307D01*
X269561Y297297D01*
X269707Y297271D01*
X269852Y297239D01*
X269878Y297240D01*
X269904Y297235D01*
X270052Y297243D01*
X270200Y297245D01*
X270226Y297252D01*
X270252Y297253D01*
X270394Y297294D01*
X270538Y297330D01*
X270561Y297342D01*
X270587Y297350D01*
X270716Y297422D01*
X270848Y297490D01*
X270868Y297507D01*
X270891Y297520D01*
X271077Y297678D01*
X271273Y297875D01*
X278887Y297875D01*
X279780Y296982D01*
X279780Y295588D01*
X279783Y295562D01*
X279781Y295536D01*
X279803Y295389D01*
X279820Y295242D01*
X279828Y295217D01*
X279832Y295191D01*
X279887Y295053D01*
X279937Y294914D01*
X279951Y294892D01*
X279961Y294867D01*
X280046Y294746D01*
X280126Y294621D01*
X280145Y294603D01*
X280160Y294581D01*
X280270Y294482D01*
X280377Y294379D01*
X280399Y294365D01*
X280419Y294348D01*
X280549Y294276D01*
X280676Y294200D01*
X280701Y294192D01*
X280724Y294179D01*
X280867Y294139D01*
X281008Y294094D01*
X281034Y294092D01*
X281059Y294084D01*
X281303Y294065D01*
X291001Y294065D01*
X291127Y294079D01*
X291253Y294086D01*
X291299Y294099D01*
X291347Y294105D01*
X291466Y294147D01*
X291588Y294182D01*
X291630Y294206D01*
X291676Y294222D01*
X291782Y294291D01*
X291892Y294352D01*
X291938Y294392D01*
X291968Y294411D01*
X292002Y294446D01*
X292078Y294511D01*
X296712Y299145D01*
X304536Y299145D01*
X304551Y299138D01*
X304697Y299112D01*
X304841Y299081D01*
X304868Y299081D01*
X304894Y299076D01*
X305042Y299084D01*
X305190Y299087D01*
X305216Y299093D01*
X305242Y299094D01*
X305384Y299135D01*
X305528Y299172D01*
X305551Y299184D01*
X305577Y299191D01*
X305706Y299263D01*
X305838Y299331D01*
X305858Y299348D01*
X305881Y299361D01*
X306067Y299520D01*
X309342Y302795D01*
X701158Y302795D01*
X711045Y292908D01*
X711045Y271162D01*
X711051Y271111D01*
X711048Y271060D01*
X711071Y270938D01*
X711085Y270816D01*
X711102Y270768D01*
X711111Y270717D01*
X711160Y270604D01*
X711202Y270488D01*
X711230Y270445D01*
X711250Y270398D01*
X711324Y270299D01*
X711391Y270195D01*
X711428Y270159D01*
X711458Y270118D01*
X711553Y270039D01*
X711642Y269953D01*
X711686Y269926D01*
X711725Y269893D01*
X711835Y269837D01*
X711941Y269774D01*
X711990Y269758D01*
X712035Y269735D01*
X712155Y269705D01*
X712273Y269668D01*
X712324Y269664D01*
X712373Y269651D01*
X712497Y269650D01*
X712620Y269640D01*
X712671Y269647D01*
X712722Y269647D01*
X712859Y269672D01*
X713227Y269672D01*
X713227Y262178D01*
X713227Y254684D01*
X712891Y254684D01*
X712245Y254857D01*
X711666Y255192D01*
X711604Y255254D01*
X711505Y255333D01*
X711411Y255417D01*
X711369Y255441D01*
X711331Y255471D01*
X711217Y255525D01*
X711106Y255586D01*
X711059Y255599D01*
X711016Y255620D01*
X710892Y255646D01*
X710770Y255681D01*
X710710Y255686D01*
X710675Y255693D01*
X710627Y255692D01*
X710527Y255700D01*
X706094Y255700D01*
X706077Y255718D01*
X706057Y255734D01*
X706040Y255754D01*
X705920Y255842D01*
X705804Y255934D01*
X705780Y255945D01*
X705759Y255961D01*
X705623Y256020D01*
X705489Y256083D01*
X705463Y256089D01*
X705439Y256099D01*
X705293Y256125D01*
X705148Y256157D01*
X705122Y256156D01*
X705096Y256161D01*
X704948Y256153D01*
X704800Y256151D01*
X704774Y256144D01*
X704748Y256143D01*
X704606Y256102D01*
X704462Y256066D01*
X704439Y256054D01*
X704413Y256046D01*
X704284Y255974D01*
X704152Y255906D01*
X704132Y255889D01*
X704109Y255876D01*
X703923Y255718D01*
X703906Y255700D01*
X699594Y255700D01*
X699577Y255718D01*
X699557Y255734D01*
X699540Y255754D01*
X699420Y255842D01*
X699304Y255934D01*
X699280Y255945D01*
X699259Y255961D01*
X699123Y256020D01*
X698989Y256083D01*
X698963Y256089D01*
X698939Y256099D01*
X698793Y256125D01*
X698648Y256157D01*
X698622Y256156D01*
X698596Y256161D01*
X698448Y256153D01*
X698300Y256151D01*
X698274Y256144D01*
X698248Y256143D01*
X698106Y256102D01*
X697962Y256066D01*
X697939Y256054D01*
X697913Y256046D01*
X697784Y255974D01*
X697652Y255906D01*
X697632Y255889D01*
X697609Y255876D01*
X697423Y255718D01*
X697406Y255700D01*
X693094Y255700D01*
X693077Y255718D01*
X693057Y255734D01*
X693040Y255754D01*
X692920Y255842D01*
X692804Y255934D01*
X692780Y255945D01*
X692759Y255961D01*
X692623Y256020D01*
X692489Y256083D01*
X692463Y256089D01*
X692439Y256099D01*
X692293Y256125D01*
X692148Y256157D01*
X692122Y256156D01*
X692096Y256161D01*
X691948Y256153D01*
X691800Y256151D01*
X691774Y256144D01*
X691748Y256143D01*
X691606Y256102D01*
X691462Y256066D01*
X691439Y256054D01*
X691413Y256046D01*
X691284Y255974D01*
X691152Y255906D01*
X691132Y255889D01*
X691109Y255876D01*
X690923Y255718D01*
X690906Y255700D01*
X686594Y255700D01*
X686577Y255718D01*
X686557Y255734D01*
X686540Y255754D01*
X686420Y255842D01*
X686304Y255934D01*
X686280Y255945D01*
X686259Y255961D01*
X686123Y256020D01*
X685989Y256083D01*
X685963Y256089D01*
X685939Y256099D01*
X685793Y256125D01*
X685648Y256157D01*
X685622Y256156D01*
X685596Y256161D01*
X685448Y256153D01*
X685300Y256151D01*
X685274Y256144D01*
X685248Y256143D01*
X685106Y256102D01*
X684962Y256066D01*
X684939Y256054D01*
X684913Y256046D01*
X684784Y255974D01*
X684652Y255906D01*
X684632Y255889D01*
X684609Y255876D01*
X684423Y255718D01*
X684406Y255700D01*
X680094Y255700D01*
X680077Y255718D01*
X680057Y255734D01*
X680040Y255754D01*
X679920Y255842D01*
X679804Y255934D01*
X679780Y255945D01*
X679759Y255961D01*
X679623Y256020D01*
X679489Y256083D01*
X679463Y256089D01*
X679439Y256099D01*
X679293Y256125D01*
X679148Y256157D01*
X679122Y256156D01*
X679096Y256161D01*
X678948Y256153D01*
X678800Y256151D01*
X678774Y256144D01*
X678748Y256143D01*
X678606Y256102D01*
X678462Y256066D01*
X678439Y256054D01*
X678413Y256046D01*
X678284Y255974D01*
X678152Y255906D01*
X678132Y255889D01*
X678109Y255876D01*
X677923Y255718D01*
X677906Y255700D01*
X673473Y255700D01*
X673348Y255686D01*
X673222Y255679D01*
X673175Y255666D01*
X673127Y255660D01*
X673008Y255618D01*
X672887Y255583D01*
X672845Y255559D01*
X672799Y255543D01*
X672693Y255474D01*
X672583Y255413D01*
X672536Y255373D01*
X672506Y255354D01*
X672473Y255319D01*
X672396Y255254D01*
X672334Y255192D01*
X671755Y254857D01*
X671109Y254684D01*
X670773Y254684D01*
X670773Y262178D01*
X670773Y269672D01*
X671109Y269672D01*
X671755Y269499D01*
X672334Y269164D01*
X672396Y269102D01*
X672495Y269023D01*
X672589Y268939D01*
X672631Y268915D01*
X672669Y268885D01*
X672783Y268831D01*
X672894Y268770D01*
X672941Y268757D01*
X672984Y268736D01*
X673108Y268710D01*
X673230Y268675D01*
X673290Y268670D01*
X673325Y268663D01*
X673373Y268664D01*
X673473Y268656D01*
X677906Y268656D01*
X677923Y268638D01*
X677943Y268622D01*
X677960Y268602D01*
X678080Y268514D01*
X678196Y268422D01*
X678220Y268411D01*
X678241Y268395D01*
X678377Y268336D01*
X678511Y268273D01*
X678537Y268267D01*
X678561Y268257D01*
X678707Y268231D01*
X678852Y268199D01*
X678878Y268200D01*
X678904Y268195D01*
X679052Y268203D01*
X679200Y268205D01*
X679226Y268212D01*
X679252Y268213D01*
X679394Y268254D01*
X679538Y268290D01*
X679562Y268302D01*
X679587Y268310D01*
X679716Y268382D01*
X679848Y268450D01*
X679868Y268467D01*
X679891Y268480D01*
X680077Y268638D01*
X680094Y268656D01*
X680104Y268668D01*
X680113Y268676D01*
X680118Y268683D01*
X680131Y268693D01*
X680219Y268813D01*
X680311Y268929D01*
X680322Y268952D01*
X680338Y268973D01*
X680396Y269110D01*
X680460Y269244D01*
X680465Y269269D01*
X680476Y269293D01*
X680502Y269440D01*
X680533Y269584D01*
X680533Y269610D01*
X680537Y269636D01*
X680530Y269785D01*
X680527Y269933D01*
X680521Y269958D01*
X680519Y269984D01*
X680478Y270127D01*
X680442Y270271D01*
X680430Y270294D01*
X680423Y270319D01*
X680351Y270449D01*
X680283Y270581D01*
X680266Y270601D01*
X680253Y270623D01*
X680094Y270810D01*
X667205Y283699D01*
X667205Y284659D01*
X667191Y284785D01*
X667184Y284911D01*
X667171Y284957D01*
X667165Y285005D01*
X667123Y285124D01*
X667088Y285246D01*
X667064Y285288D01*
X667048Y285333D01*
X666979Y285439D01*
X666918Y285550D01*
X666878Y285596D01*
X666859Y285626D01*
X666824Y285660D01*
X666759Y285736D01*
X666077Y286418D01*
X666057Y286434D01*
X666040Y286454D01*
X665920Y286543D01*
X665804Y286635D01*
X665780Y286646D01*
X665759Y286661D01*
X665623Y286720D01*
X665489Y286784D01*
X665463Y286789D01*
X665439Y286800D01*
X665293Y286826D01*
X665148Y286857D01*
X665122Y286857D01*
X665096Y286861D01*
X664948Y286854D01*
X664800Y286851D01*
X664774Y286845D01*
X664748Y286843D01*
X664606Y286802D01*
X664462Y286766D01*
X664438Y286754D01*
X664413Y286747D01*
X664284Y286674D01*
X664152Y286606D01*
X664132Y286589D01*
X664109Y286577D01*
X663923Y286418D01*
X663241Y285736D01*
X663162Y285637D01*
X663078Y285543D01*
X663054Y285501D01*
X663024Y285463D01*
X662970Y285349D01*
X662909Y285238D01*
X662896Y285192D01*
X662875Y285148D01*
X662849Y285024D01*
X662814Y284903D01*
X662809Y284842D01*
X662802Y284807D01*
X662803Y284759D01*
X662795Y284659D01*
X662795Y270179D01*
X662798Y270153D01*
X662796Y270127D01*
X662818Y269980D01*
X662835Y269833D01*
X662843Y269808D01*
X662847Y269782D01*
X662902Y269644D01*
X662952Y269505D01*
X662966Y269483D01*
X662976Y269458D01*
X663061Y269337D01*
X663141Y269212D01*
X663160Y269194D01*
X663175Y269172D01*
X663285Y269073D01*
X663392Y268970D01*
X663414Y268956D01*
X663434Y268939D01*
X663564Y268867D01*
X663691Y268791D01*
X663716Y268783D01*
X663739Y268770D01*
X663882Y268730D01*
X664023Y268685D01*
X664049Y268683D01*
X664074Y268675D01*
X664318Y268656D01*
X665027Y268656D01*
X665152Y268670D01*
X665278Y268677D01*
X665325Y268690D01*
X665373Y268696D01*
X665492Y268738D01*
X665613Y268773D01*
X665655Y268797D01*
X665701Y268813D01*
X665807Y268882D01*
X665917Y268943D01*
X665964Y268983D01*
X665994Y269002D01*
X666027Y269037D01*
X666104Y269102D01*
X666166Y269164D01*
X666745Y269499D01*
X667391Y269672D01*
X667727Y269672D01*
X667727Y262178D01*
X667727Y254684D01*
X667376Y254684D01*
X667363Y254688D01*
X667240Y254698D01*
X667118Y254716D01*
X667067Y254712D01*
X667016Y254716D01*
X666894Y254698D01*
X666770Y254688D01*
X666722Y254672D01*
X666671Y254665D01*
X666556Y254619D01*
X666439Y254581D01*
X666395Y254555D01*
X666347Y254536D01*
X666246Y254465D01*
X666140Y254402D01*
X666103Y254366D01*
X666061Y254337D01*
X665978Y254245D01*
X665890Y254159D01*
X665862Y254116D01*
X665828Y254078D01*
X665768Y253970D01*
X665701Y253866D01*
X665684Y253818D01*
X665659Y253773D01*
X665626Y253654D01*
X665584Y253538D01*
X665578Y253487D01*
X665564Y253438D01*
X665545Y253194D01*
X665545Y212806D01*
X665551Y212755D01*
X665548Y212704D01*
X665570Y212582D01*
X665585Y212460D01*
X665602Y212412D01*
X665611Y212361D01*
X665660Y212248D01*
X665702Y212132D01*
X665730Y212089D01*
X665750Y212042D01*
X665824Y211943D01*
X665891Y211839D01*
X665928Y211803D01*
X665958Y211762D01*
X666053Y211683D01*
X666142Y211597D01*
X666186Y211570D01*
X666225Y211537D01*
X666335Y211481D01*
X666441Y211418D01*
X666490Y211402D01*
X666535Y211379D01*
X666655Y211349D01*
X666773Y211312D01*
X666824Y211308D01*
X666873Y211295D01*
X666997Y211294D01*
X667120Y211284D01*
X667171Y211291D01*
X667222Y211291D01*
X667359Y211316D01*
X667727Y211316D01*
X667727Y203822D01*
X667730Y203796D01*
X667727Y203770D01*
X667749Y203623D01*
X667766Y203476D01*
X667775Y203451D01*
X667779Y203425D01*
X667834Y203288D01*
X667884Y203148D01*
X667898Y203126D01*
X667908Y203102D01*
X667992Y202980D01*
X668073Y202855D01*
X668092Y202837D01*
X668107Y202815D01*
X668217Y202716D01*
X668324Y202613D01*
X668347Y202599D01*
X668366Y202581D01*
X668496Y202510D01*
X668623Y202434D01*
X668648Y202426D01*
X668671Y202413D01*
X668814Y202373D01*
X668955Y202327D01*
X668981Y202325D01*
X669007Y202318D01*
X669250Y202299D01*
X674227Y202299D01*
X674227Y196328D01*
X673891Y196328D01*
X673231Y196505D01*
X673123Y196552D01*
X672986Y196616D01*
X672963Y196621D01*
X672942Y196631D01*
X672793Y196658D01*
X672645Y196689D01*
X672622Y196689D01*
X672599Y196693D01*
X672448Y196685D01*
X672297Y196682D01*
X672274Y196677D01*
X672251Y196676D01*
X672106Y196634D01*
X671959Y196597D01*
X671934Y196585D01*
X671916Y196580D01*
X671875Y196557D01*
X671763Y196504D01*
X670963Y196289D01*
X670955Y196288D01*
X670942Y196284D01*
X670915Y196276D01*
X670858Y196254D01*
X670763Y196230D01*
X670697Y196196D01*
X670627Y196171D01*
X670594Y196150D01*
X670591Y196148D01*
X670571Y196134D01*
X670543Y196116D01*
X670454Y196070D01*
X670397Y196022D01*
X670334Y195982D01*
X670265Y195910D01*
X670188Y195845D01*
X670144Y195785D01*
X670092Y195731D01*
X670041Y195645D01*
X669981Y195564D01*
X669951Y195496D01*
X669913Y195432D01*
X669883Y195337D01*
X669843Y195244D01*
X669830Y195171D01*
X669807Y195100D01*
X669799Y195000D01*
X669781Y194901D01*
X669785Y194827D01*
X669779Y194753D01*
X669794Y194654D01*
X669799Y194553D01*
X669820Y194482D01*
X669831Y194408D01*
X669868Y194315D01*
X669896Y194218D01*
X669932Y194153D01*
X669960Y194084D01*
X670017Y194002D01*
X670066Y193914D01*
X670131Y193838D01*
X670159Y193798D01*
X670185Y193774D01*
X670224Y193728D01*
X670712Y193241D01*
X670811Y193162D01*
X670904Y193078D01*
X670947Y193054D01*
X670985Y193024D01*
X671099Y192970D01*
X671209Y192909D01*
X671256Y192896D01*
X671300Y192875D01*
X671423Y192849D01*
X671545Y192814D01*
X671605Y192809D01*
X671640Y192802D01*
X671689Y192803D01*
X671789Y192795D01*
X677932Y192795D01*
X677958Y192798D01*
X677984Y192796D01*
X678131Y192818D01*
X678278Y192835D01*
X678303Y192843D01*
X678329Y192847D01*
X678467Y192902D01*
X678606Y192952D01*
X678628Y192966D01*
X678653Y192976D01*
X678774Y193061D01*
X678899Y193141D01*
X678917Y193160D01*
X678939Y193175D01*
X679038Y193285D01*
X679141Y193392D01*
X679155Y193414D01*
X679172Y193434D01*
X679244Y193564D01*
X679320Y193691D01*
X679328Y193716D01*
X679341Y193739D01*
X679381Y193882D01*
X679426Y194023D01*
X679428Y194049D01*
X679436Y194074D01*
X679455Y194318D01*
X679455Y194838D01*
X679449Y194889D01*
X679452Y194940D01*
X679430Y195062D01*
X679415Y195184D01*
X679398Y195232D01*
X679389Y195283D01*
X679340Y195396D01*
X679298Y195512D01*
X679270Y195555D01*
X679250Y195602D01*
X679176Y195701D01*
X679109Y195805D01*
X679072Y195841D01*
X679042Y195882D01*
X678947Y195961D01*
X678858Y196047D01*
X678814Y196074D01*
X678775Y196107D01*
X678665Y196163D01*
X678559Y196226D01*
X678510Y196242D01*
X678465Y196265D01*
X678345Y196295D01*
X678227Y196332D01*
X678176Y196336D01*
X678127Y196349D01*
X678003Y196350D01*
X677880Y196360D01*
X677829Y196353D01*
X677778Y196353D01*
X677641Y196328D01*
X677273Y196328D01*
X677273Y203822D01*
X677273Y211316D01*
X677609Y211316D01*
X678255Y211143D01*
X678834Y210808D01*
X678896Y210746D01*
X678995Y210667D01*
X679089Y210583D01*
X679131Y210559D01*
X679169Y210529D01*
X679283Y210475D01*
X679394Y210414D01*
X679441Y210401D01*
X679484Y210380D01*
X679608Y210354D01*
X679730Y210319D01*
X679790Y210314D01*
X679825Y210307D01*
X679873Y210308D01*
X679973Y210300D01*
X684527Y210300D01*
X684652Y210314D01*
X684778Y210321D01*
X684825Y210334D01*
X684873Y210340D01*
X684992Y210382D01*
X685113Y210417D01*
X685155Y210441D01*
X685201Y210457D01*
X685307Y210526D01*
X685417Y210587D01*
X685464Y210627D01*
X685494Y210646D01*
X685527Y210681D01*
X685604Y210746D01*
X685666Y210808D01*
X686245Y211143D01*
X686891Y211316D01*
X687227Y211316D01*
X687227Y203822D01*
X687227Y196328D01*
X686876Y196328D01*
X686863Y196332D01*
X686740Y196342D01*
X686618Y196360D01*
X686567Y196356D01*
X686516Y196360D01*
X686394Y196342D01*
X686270Y196332D01*
X686222Y196316D01*
X686171Y196309D01*
X686056Y196263D01*
X685939Y196225D01*
X685895Y196199D01*
X685847Y196180D01*
X685746Y196109D01*
X685640Y196046D01*
X685603Y196010D01*
X685561Y195981D01*
X685478Y195889D01*
X685390Y195803D01*
X685362Y195760D01*
X685328Y195722D01*
X685268Y195614D01*
X685201Y195510D01*
X685184Y195462D01*
X685159Y195417D01*
X685126Y195298D01*
X685084Y195182D01*
X685078Y195131D01*
X685064Y195082D01*
X685045Y194838D01*
X685045Y191092D01*
X681158Y187205D01*
X668842Y187205D01*
G37*
%LPD*%
%LPC*%
G36*
X598944Y354693D02*
X598944Y354693D01*
X596994Y355501D01*
X595501Y356994D01*
X594693Y358944D01*
X594693Y361056D01*
X595501Y363006D01*
X596994Y364499D01*
X598944Y365307D01*
X601056Y365307D01*
X603013Y364496D01*
X603093Y364432D01*
X603187Y364348D01*
X603229Y364324D01*
X603267Y364294D01*
X603381Y364240D01*
X603492Y364179D01*
X603538Y364166D01*
X603582Y364145D01*
X603705Y364119D01*
X603827Y364084D01*
X603888Y364079D01*
X603923Y364072D01*
X603971Y364073D01*
X604071Y364065D01*
X899452Y364065D01*
X899478Y364068D01*
X899504Y364066D01*
X899651Y364088D01*
X899798Y364105D01*
X899823Y364113D01*
X899849Y364117D01*
X899987Y364172D01*
X900126Y364222D01*
X900148Y364236D01*
X900173Y364246D01*
X900294Y364331D01*
X900419Y364411D01*
X900437Y364430D01*
X900459Y364445D01*
X900558Y364555D01*
X900661Y364662D01*
X900675Y364684D01*
X900692Y364704D01*
X900764Y364834D01*
X900840Y364961D01*
X900848Y364986D01*
X900861Y365009D01*
X900901Y365152D01*
X900946Y365293D01*
X900948Y365319D01*
X900956Y365344D01*
X900975Y365588D01*
X900975Y371238D01*
X906262Y376525D01*
X913738Y376525D01*
X919025Y371238D01*
X919025Y363762D01*
X913738Y358475D01*
X907355Y358475D01*
X907229Y358461D01*
X907103Y358454D01*
X907056Y358441D01*
X907008Y358435D01*
X906889Y358393D01*
X906768Y358358D01*
X906726Y358334D01*
X906680Y358318D01*
X906574Y358249D01*
X906464Y358188D01*
X906418Y358148D01*
X906388Y358129D01*
X906354Y358094D01*
X906278Y358029D01*
X904184Y355935D01*
X604071Y355935D01*
X603945Y355921D01*
X603819Y355914D01*
X603773Y355901D01*
X603725Y355895D01*
X603606Y355853D01*
X603484Y355818D01*
X603442Y355794D01*
X603397Y355778D01*
X603291Y355709D01*
X603180Y355648D01*
X603134Y355608D01*
X603104Y355589D01*
X603070Y355554D01*
X603010Y355503D01*
X601056Y354693D01*
X598944Y354693D01*
G37*
%LPD*%
%LPC*%
G36*
X758842Y87205D02*
X758842Y87205D01*
X741801Y104247D01*
X741702Y104326D01*
X741608Y104410D01*
X741565Y104434D01*
X741528Y104464D01*
X741413Y104518D01*
X741303Y104579D01*
X741256Y104592D01*
X741212Y104613D01*
X741089Y104639D01*
X740967Y104674D01*
X740906Y104679D01*
X740872Y104686D01*
X740824Y104685D01*
X740723Y104693D01*
X738944Y104693D01*
X736994Y105501D01*
X735501Y106994D01*
X734693Y108944D01*
X734693Y111056D01*
X735501Y113006D01*
X736994Y114499D01*
X738944Y115307D01*
X741056Y115307D01*
X743006Y114499D01*
X744499Y113006D01*
X745307Y111056D01*
X745307Y109277D01*
X745321Y109151D01*
X745328Y109025D01*
X745341Y108978D01*
X745347Y108930D01*
X745389Y108811D01*
X745424Y108690D01*
X745448Y108648D01*
X745464Y108602D01*
X745533Y108496D01*
X745594Y108386D01*
X745634Y108339D01*
X745653Y108309D01*
X745688Y108276D01*
X745753Y108199D01*
X760711Y93241D01*
X760810Y93162D01*
X760904Y93078D01*
X760947Y93054D01*
X760984Y93024D01*
X761099Y92970D01*
X761209Y92909D01*
X761256Y92896D01*
X761300Y92875D01*
X761423Y92849D01*
X761545Y92814D01*
X761606Y92809D01*
X761640Y92802D01*
X761688Y92803D01*
X761789Y92795D01*
X884211Y92795D01*
X884337Y92809D01*
X884463Y92816D01*
X884510Y92829D01*
X884558Y92835D01*
X884677Y92877D01*
X884798Y92912D01*
X884840Y92936D01*
X884886Y92952D01*
X884992Y93021D01*
X885102Y93082D01*
X885148Y93122D01*
X885179Y93141D01*
X885212Y93176D01*
X885289Y93241D01*
X924529Y132481D01*
X924594Y132563D01*
X924647Y132618D01*
X924657Y132636D01*
X924692Y132674D01*
X924716Y132717D01*
X924746Y132754D01*
X924800Y132869D01*
X924861Y132979D01*
X924874Y133026D01*
X924895Y133070D01*
X924921Y133193D01*
X924956Y133315D01*
X924961Y133376D01*
X924968Y133410D01*
X924967Y133458D01*
X924975Y133559D01*
X924975Y151693D01*
X926654Y155745D01*
X929755Y158846D01*
X933807Y160525D01*
X938193Y160525D01*
X942245Y158846D01*
X945346Y155745D01*
X947025Y151693D01*
X947025Y128307D01*
X945346Y124255D01*
X942245Y121154D01*
X938193Y119475D01*
X933807Y119475D01*
X929755Y121154D01*
X926508Y124401D01*
X926487Y124417D01*
X926470Y124437D01*
X926351Y124526D01*
X926235Y124618D01*
X926211Y124629D01*
X926190Y124645D01*
X926054Y124703D01*
X925920Y124767D01*
X925894Y124772D01*
X925870Y124783D01*
X925724Y124809D01*
X925579Y124840D01*
X925553Y124840D01*
X925527Y124844D01*
X925378Y124837D01*
X925230Y124834D01*
X925205Y124828D01*
X925179Y124826D01*
X925036Y124785D01*
X924892Y124749D01*
X924869Y124737D01*
X924844Y124730D01*
X924714Y124657D01*
X924583Y124589D01*
X924563Y124572D01*
X924540Y124560D01*
X924353Y124401D01*
X889241Y89289D01*
X887158Y87205D01*
X758842Y87205D01*
G37*
%LPD*%
%LPC*%
G36*
X196561Y390855D02*
X196561Y390855D01*
X193200Y392248D01*
X190628Y394820D01*
X189235Y398181D01*
X189235Y401819D01*
X190628Y405180D01*
X193200Y407752D01*
X196561Y409145D01*
X215439Y409145D01*
X218800Y407752D01*
X221373Y405180D01*
X221445Y405005D01*
X221482Y404938D01*
X221510Y404867D01*
X221567Y404786D01*
X221614Y404700D01*
X221666Y404644D01*
X221709Y404581D01*
X221782Y404515D01*
X221848Y404442D01*
X221911Y404399D01*
X221968Y404348D01*
X222054Y404300D01*
X222135Y404244D01*
X222206Y404216D01*
X222273Y404179D01*
X222368Y404152D01*
X222459Y404116D01*
X222535Y404105D01*
X222609Y404084D01*
X222757Y404072D01*
X222804Y404065D01*
X222823Y404067D01*
X222852Y404065D01*
X237685Y404065D01*
X237811Y404079D01*
X237937Y404086D01*
X237984Y404099D01*
X238032Y404105D01*
X238151Y404147D01*
X238272Y404182D01*
X238314Y404206D01*
X238360Y404222D01*
X238466Y404291D01*
X238576Y404352D01*
X238622Y404392D01*
X238652Y404411D01*
X238686Y404446D01*
X238762Y404511D01*
X240816Y406565D01*
X258697Y406565D01*
X258723Y406568D01*
X258749Y406566D01*
X258896Y406588D01*
X259043Y406605D01*
X259068Y406613D01*
X259094Y406617D01*
X259232Y406672D01*
X259371Y406722D01*
X259393Y406736D01*
X259418Y406746D01*
X259539Y406831D01*
X259664Y406911D01*
X259682Y406930D01*
X259704Y406945D01*
X259803Y407055D01*
X259906Y407162D01*
X259920Y407184D01*
X259937Y407204D01*
X260009Y407334D01*
X260085Y407461D01*
X260093Y407486D01*
X260106Y407509D01*
X260146Y407652D01*
X260191Y407793D01*
X260193Y407819D01*
X260201Y407844D01*
X260220Y408088D01*
X260220Y409482D01*
X261113Y410375D01*
X268727Y410375D01*
X268923Y410178D01*
X268943Y410162D01*
X268960Y410142D01*
X269080Y410054D01*
X269196Y409962D01*
X269220Y409951D01*
X269241Y409935D01*
X269377Y409876D01*
X269511Y409813D01*
X269537Y409807D01*
X269561Y409797D01*
X269707Y409771D01*
X269852Y409739D01*
X269878Y409740D01*
X269904Y409735D01*
X270052Y409743D01*
X270200Y409745D01*
X270226Y409752D01*
X270252Y409753D01*
X270394Y409794D01*
X270538Y409830D01*
X270561Y409842D01*
X270587Y409850D01*
X270716Y409922D01*
X270848Y409990D01*
X270868Y410007D01*
X270891Y410020D01*
X271077Y410178D01*
X271273Y410375D01*
X278887Y410375D01*
X279780Y409482D01*
X279780Y408088D01*
X279783Y408062D01*
X279781Y408036D01*
X279803Y407889D01*
X279820Y407742D01*
X279828Y407717D01*
X279832Y407691D01*
X279887Y407553D01*
X279937Y407414D01*
X279951Y407392D01*
X279961Y407367D01*
X280046Y407246D01*
X280126Y407121D01*
X280145Y407103D01*
X280160Y407081D01*
X280270Y406982D01*
X280377Y406879D01*
X280399Y406865D01*
X280419Y406848D01*
X280549Y406776D01*
X280676Y406700D01*
X280701Y406692D01*
X280724Y406679D01*
X280867Y406639D01*
X281008Y406594D01*
X281034Y406592D01*
X281059Y406584D01*
X281303Y406565D01*
X291001Y406565D01*
X291127Y406579D01*
X291253Y406586D01*
X291299Y406599D01*
X291347Y406605D01*
X291466Y406647D01*
X291588Y406682D01*
X291630Y406706D01*
X291675Y406722D01*
X291782Y406791D01*
X291892Y406852D01*
X291938Y406892D01*
X291968Y406911D01*
X292002Y406946D01*
X292078Y407011D01*
X296712Y411645D01*
X304288Y411645D01*
X309738Y406195D01*
X309837Y406116D01*
X309931Y406032D01*
X309973Y406008D01*
X310011Y405978D01*
X310125Y405924D01*
X310236Y405863D01*
X310282Y405850D01*
X310326Y405829D01*
X310449Y405803D01*
X310571Y405768D01*
X310632Y405763D01*
X310667Y405756D01*
X310715Y405757D01*
X310815Y405749D01*
X355163Y405749D01*
X357395Y403517D01*
X357417Y403495D01*
X357499Y403429D01*
X357546Y403384D01*
X357561Y403375D01*
X357610Y403332D01*
X357652Y403308D01*
X357690Y403278D01*
X357804Y403224D01*
X357915Y403163D01*
X357961Y403150D01*
X358005Y403129D01*
X358128Y403103D01*
X358250Y403068D01*
X358311Y403063D01*
X358345Y403056D01*
X358393Y403057D01*
X358494Y403049D01*
X374913Y403049D01*
X375039Y403063D01*
X375165Y403070D01*
X375211Y403083D01*
X375259Y403089D01*
X375378Y403131D01*
X375500Y403166D01*
X375542Y403190D01*
X375587Y403206D01*
X375693Y403275D01*
X375804Y403336D01*
X375850Y403376D01*
X375880Y403395D01*
X375914Y403430D01*
X375990Y403495D01*
X376994Y404499D01*
X378944Y405307D01*
X381056Y405307D01*
X383006Y404499D01*
X384499Y403006D01*
X385307Y401056D01*
X385307Y398944D01*
X384499Y396994D01*
X383006Y395501D01*
X381056Y394693D01*
X378944Y394693D01*
X376994Y395501D01*
X375990Y396505D01*
X375891Y396584D01*
X375797Y396668D01*
X375755Y396692D01*
X375717Y396722D01*
X375603Y396776D01*
X375492Y396837D01*
X375446Y396850D01*
X375402Y396871D01*
X375279Y396897D01*
X375157Y396932D01*
X375096Y396937D01*
X375061Y396944D01*
X375013Y396943D01*
X374913Y396951D01*
X355337Y396951D01*
X353105Y399183D01*
X353083Y399205D01*
X353001Y399271D01*
X352954Y399316D01*
X352939Y399325D01*
X352890Y399368D01*
X352848Y399392D01*
X352810Y399422D01*
X352696Y399476D01*
X352585Y399537D01*
X352539Y399550D01*
X352495Y399571D01*
X352372Y399597D01*
X352250Y399632D01*
X352189Y399637D01*
X352155Y399644D01*
X352107Y399643D01*
X352006Y399651D01*
X311168Y399651D01*
X311142Y399648D01*
X311116Y399650D01*
X310969Y399628D01*
X310822Y399611D01*
X310797Y399603D01*
X310771Y399599D01*
X310633Y399544D01*
X310494Y399494D01*
X310472Y399480D01*
X310447Y399470D01*
X310326Y399385D01*
X310201Y399305D01*
X310183Y399286D01*
X310161Y399271D01*
X310062Y399161D01*
X309959Y399054D01*
X309945Y399032D01*
X309928Y399012D01*
X309906Y398974D01*
X304288Y393355D01*
X296712Y393355D01*
X292078Y397989D01*
X291979Y398068D01*
X291885Y398152D01*
X291843Y398176D01*
X291805Y398206D01*
X291691Y398260D01*
X291580Y398321D01*
X291534Y398334D01*
X291490Y398355D01*
X291367Y398381D01*
X291245Y398416D01*
X291184Y398421D01*
X291149Y398428D01*
X291101Y398427D01*
X291001Y398435D01*
X281303Y398435D01*
X281277Y398432D01*
X281251Y398434D01*
X281104Y398412D01*
X280957Y398395D01*
X280932Y398387D01*
X280906Y398383D01*
X280768Y398328D01*
X280629Y398278D01*
X280607Y398264D01*
X280582Y398254D01*
X280461Y398169D01*
X280336Y398089D01*
X280318Y398070D01*
X280296Y398055D01*
X280197Y397945D01*
X280094Y397838D01*
X280080Y397816D01*
X280063Y397796D01*
X279991Y397666D01*
X279915Y397539D01*
X279907Y397514D01*
X279894Y397491D01*
X279854Y397348D01*
X279809Y397207D01*
X279807Y397181D01*
X279799Y397156D01*
X279780Y396912D01*
X279780Y395518D01*
X278887Y394625D01*
X271273Y394625D01*
X271077Y394822D01*
X271057Y394838D01*
X271040Y394858D01*
X270920Y394946D01*
X270804Y395038D01*
X270780Y395049D01*
X270759Y395065D01*
X270623Y395124D01*
X270489Y395187D01*
X270463Y395193D01*
X270439Y395203D01*
X270293Y395229D01*
X270148Y395261D01*
X270122Y395260D01*
X270096Y395265D01*
X269948Y395257D01*
X269800Y395255D01*
X269774Y395248D01*
X269748Y395247D01*
X269606Y395206D01*
X269462Y395170D01*
X269438Y395157D01*
X269413Y395150D01*
X269284Y395078D01*
X269152Y395010D01*
X269132Y394993D01*
X269109Y394980D01*
X268923Y394822D01*
X268727Y394625D01*
X261113Y394625D01*
X260220Y395518D01*
X260220Y396912D01*
X260217Y396938D01*
X260219Y396964D01*
X260197Y397111D01*
X260180Y397258D01*
X260172Y397283D01*
X260168Y397309D01*
X260113Y397447D01*
X260063Y397586D01*
X260049Y397608D01*
X260039Y397633D01*
X259954Y397754D01*
X259874Y397879D01*
X259855Y397897D01*
X259840Y397919D01*
X259730Y398018D01*
X259623Y398121D01*
X259601Y398135D01*
X259581Y398152D01*
X259451Y398224D01*
X259324Y398300D01*
X259299Y398308D01*
X259276Y398321D01*
X259133Y398361D01*
X258992Y398406D01*
X258966Y398408D01*
X258941Y398416D01*
X258697Y398435D01*
X244815Y398435D01*
X244689Y398421D01*
X244563Y398414D01*
X244516Y398401D01*
X244468Y398395D01*
X244349Y398353D01*
X244228Y398318D01*
X244186Y398294D01*
X244140Y398278D01*
X244034Y398209D01*
X243924Y398148D01*
X243878Y398108D01*
X243848Y398089D01*
X243814Y398054D01*
X243738Y397989D01*
X241684Y395935D01*
X222852Y395935D01*
X222776Y395927D01*
X222700Y395928D01*
X222604Y395907D01*
X222506Y395895D01*
X222434Y395870D01*
X222359Y395853D01*
X222271Y395811D01*
X222178Y395778D01*
X222114Y395736D01*
X222045Y395704D01*
X221968Y395642D01*
X221885Y395589D01*
X221832Y395534D01*
X221772Y395486D01*
X221711Y395409D01*
X221643Y395338D01*
X221604Y395273D01*
X221556Y395213D01*
X221488Y395080D01*
X221464Y395039D01*
X221458Y395021D01*
X221445Y394995D01*
X221373Y394820D01*
X218800Y392248D01*
X215439Y390855D01*
X196561Y390855D01*
G37*
%LPD*%
%LPC*%
G36*
X104997Y505735D02*
X104997Y505735D01*
X101665Y507115D01*
X99115Y509665D01*
X97735Y512997D01*
X97735Y516603D01*
X99115Y519935D01*
X101665Y522485D01*
X104997Y523865D01*
X108603Y523865D01*
X110003Y523285D01*
X110076Y523264D01*
X110146Y523234D01*
X110243Y523216D01*
X110338Y523189D01*
X110414Y523186D01*
X110489Y523172D01*
X110588Y523177D01*
X110686Y523172D01*
X110761Y523186D01*
X110838Y523190D01*
X110932Y523217D01*
X111029Y523235D01*
X111099Y523265D01*
X111172Y523286D01*
X111258Y523335D01*
X111348Y523374D01*
X111410Y523419D01*
X111477Y523457D01*
X111590Y523553D01*
X111628Y523582D01*
X111641Y523596D01*
X111663Y523615D01*
X166559Y578511D01*
X168642Y580595D01*
X188622Y580595D01*
X188697Y580603D01*
X188774Y580602D01*
X188870Y580623D01*
X188968Y580635D01*
X189040Y580660D01*
X189114Y580677D01*
X189203Y580719D01*
X189296Y580752D01*
X189360Y580794D01*
X189429Y580826D01*
X189506Y580888D01*
X189589Y580941D01*
X189642Y580996D01*
X189702Y581044D01*
X189763Y581121D01*
X189831Y581192D01*
X189870Y581257D01*
X189918Y581317D01*
X189986Y581450D01*
X190010Y581491D01*
X190016Y581509D01*
X190029Y581535D01*
X190627Y582980D01*
X193200Y585552D01*
X196561Y586945D01*
X215439Y586945D01*
X218800Y585552D01*
X221372Y582980D01*
X222765Y579619D01*
X222765Y575981D01*
X221372Y572620D01*
X218800Y570048D01*
X215439Y568655D01*
X196561Y568655D01*
X193200Y570048D01*
X190627Y572620D01*
X190029Y574065D01*
X189992Y574132D01*
X189964Y574203D01*
X189907Y574284D01*
X189860Y574370D01*
X189808Y574426D01*
X189765Y574489D01*
X189692Y574555D01*
X189625Y574628D01*
X189563Y574671D01*
X189506Y574722D01*
X189420Y574770D01*
X189339Y574826D01*
X189268Y574854D01*
X189201Y574891D01*
X189106Y574918D01*
X189015Y574954D01*
X188939Y574965D01*
X188865Y574986D01*
X188717Y574998D01*
X188670Y575005D01*
X188651Y575003D01*
X188622Y575005D01*
X171589Y575005D01*
X171463Y574991D01*
X171337Y574984D01*
X171290Y574971D01*
X171242Y574965D01*
X171123Y574923D01*
X171002Y574888D01*
X170960Y574864D01*
X170914Y574848D01*
X170808Y574779D01*
X170698Y574718D01*
X170652Y574678D01*
X170621Y574659D01*
X170588Y574624D01*
X170511Y574559D01*
X115615Y519663D01*
X115568Y519603D01*
X115513Y519550D01*
X115460Y519467D01*
X115399Y519390D01*
X115366Y519321D01*
X115325Y519256D01*
X115292Y519164D01*
X115250Y519075D01*
X115234Y519000D01*
X115208Y518928D01*
X115197Y518830D01*
X115176Y518734D01*
X115178Y518658D01*
X115169Y518582D01*
X115181Y518484D01*
X115182Y518386D01*
X115201Y518311D01*
X115210Y518236D01*
X115256Y518094D01*
X115267Y518048D01*
X115276Y518030D01*
X115285Y518003D01*
X115865Y516603D01*
X115865Y512997D01*
X114485Y509665D01*
X111935Y507115D01*
X108603Y505735D01*
X104997Y505735D01*
G37*
%LPD*%
%LPC*%
G36*
X868944Y214693D02*
X868944Y214693D01*
X866994Y215501D01*
X865501Y216994D01*
X864693Y218944D01*
X864693Y221056D01*
X865501Y223006D01*
X866994Y224499D01*
X868944Y225307D01*
X871056Y225307D01*
X873006Y224499D01*
X874264Y223241D01*
X874363Y223162D01*
X874457Y223078D01*
X874499Y223054D01*
X874537Y223024D01*
X874651Y222970D01*
X874762Y222909D01*
X874808Y222896D01*
X874852Y222875D01*
X874975Y222849D01*
X875097Y222814D01*
X875158Y222809D01*
X875193Y222802D01*
X875241Y222803D01*
X875341Y222795D01*
X894211Y222795D01*
X894337Y222809D01*
X894463Y222816D01*
X894510Y222829D01*
X894558Y222835D01*
X894677Y222877D01*
X894798Y222912D01*
X894840Y222936D01*
X894886Y222952D01*
X894992Y223021D01*
X895102Y223082D01*
X895148Y223122D01*
X895179Y223141D01*
X895212Y223176D01*
X895289Y223241D01*
X924529Y252481D01*
X924608Y252580D01*
X924692Y252674D01*
X924716Y252717D01*
X924746Y252754D01*
X924800Y252869D01*
X924861Y252979D01*
X924874Y253026D01*
X924895Y253070D01*
X924921Y253193D01*
X924956Y253315D01*
X924961Y253376D01*
X924968Y253410D01*
X924967Y253458D01*
X924975Y253559D01*
X924975Y271693D01*
X926654Y275745D01*
X929755Y278846D01*
X933807Y280525D01*
X938193Y280525D01*
X942245Y278846D01*
X945346Y275745D01*
X947025Y271693D01*
X947025Y248307D01*
X945346Y244255D01*
X942245Y241154D01*
X938193Y239475D01*
X933807Y239475D01*
X929755Y241154D01*
X926508Y244401D01*
X926487Y244417D01*
X926470Y244437D01*
X926351Y244526D01*
X926235Y244618D01*
X926211Y244629D01*
X926190Y244645D01*
X926054Y244703D01*
X925920Y244767D01*
X925894Y244772D01*
X925870Y244783D01*
X925724Y244809D01*
X925579Y244840D01*
X925553Y244840D01*
X925527Y244844D01*
X925378Y244837D01*
X925230Y244834D01*
X925205Y244828D01*
X925179Y244826D01*
X925036Y244785D01*
X924892Y244749D01*
X924869Y244737D01*
X924844Y244730D01*
X924714Y244657D01*
X924583Y244589D01*
X924563Y244572D01*
X924540Y244560D01*
X924353Y244401D01*
X899241Y219289D01*
X897158Y217205D01*
X875341Y217205D01*
X875215Y217191D01*
X875089Y217184D01*
X875043Y217171D01*
X874995Y217165D01*
X874876Y217123D01*
X874754Y217088D01*
X874712Y217064D01*
X874667Y217048D01*
X874561Y216979D01*
X874450Y216918D01*
X874404Y216878D01*
X874374Y216859D01*
X874340Y216824D01*
X874264Y216759D01*
X873006Y215501D01*
X871056Y214693D01*
X868944Y214693D01*
G37*
%LPD*%
%LPC*%
G36*
X196561Y492455D02*
X196561Y492455D01*
X193200Y493848D01*
X190628Y496420D01*
X189235Y499781D01*
X189235Y503419D01*
X190627Y506780D01*
X193200Y509352D01*
X196561Y510745D01*
X215439Y510745D01*
X218800Y509352D01*
X221373Y506780D01*
X222765Y503419D01*
X222765Y499781D01*
X221372Y496420D01*
X218800Y493848D01*
X215439Y492455D01*
X196561Y492455D01*
G37*
%LPD*%
%LPC*%
G36*
X698944Y164693D02*
X698944Y164693D01*
X696994Y165501D01*
X695501Y166994D01*
X694693Y168944D01*
X694693Y171056D01*
X695501Y173006D01*
X696994Y174499D01*
X698944Y175307D01*
X700723Y175307D01*
X700849Y175321D01*
X700975Y175328D01*
X701022Y175341D01*
X701070Y175347D01*
X701189Y175389D01*
X701310Y175424D01*
X701352Y175448D01*
X701398Y175464D01*
X701504Y175533D01*
X701614Y175594D01*
X701661Y175634D01*
X701691Y175653D01*
X701724Y175688D01*
X701801Y175753D01*
X705059Y179011D01*
X705138Y179110D01*
X705222Y179204D01*
X705246Y179247D01*
X705276Y179284D01*
X705330Y179399D01*
X705391Y179509D01*
X705404Y179556D01*
X705425Y179600D01*
X705451Y179723D01*
X705486Y179845D01*
X705491Y179906D01*
X705498Y179940D01*
X705497Y179988D01*
X705505Y180089D01*
X705505Y194851D01*
X705499Y194902D01*
X705502Y194953D01*
X705480Y195075D01*
X705465Y195198D01*
X705448Y195246D01*
X705439Y195296D01*
X705390Y195409D01*
X705348Y195526D01*
X705320Y195569D01*
X705300Y195615D01*
X705226Y195714D01*
X705159Y195818D01*
X705122Y195854D01*
X705092Y195895D01*
X704997Y195975D01*
X704908Y196061D01*
X704864Y196087D01*
X704825Y196120D01*
X704715Y196176D01*
X704609Y196240D01*
X704561Y196255D01*
X704515Y196278D01*
X704395Y196308D01*
X704277Y196346D01*
X704226Y196350D01*
X704177Y196362D01*
X704053Y196364D01*
X703930Y196374D01*
X703879Y196366D01*
X703828Y196367D01*
X703618Y196328D01*
X703273Y196328D01*
X703273Y203822D01*
X703273Y211316D01*
X703609Y211316D01*
X704255Y211143D01*
X704834Y210808D01*
X704896Y210746D01*
X704995Y210667D01*
X705089Y210583D01*
X705131Y210559D01*
X705169Y210529D01*
X705283Y210475D01*
X705394Y210414D01*
X705441Y210401D01*
X705484Y210380D01*
X705608Y210354D01*
X705730Y210319D01*
X705790Y210314D01*
X705825Y210307D01*
X705873Y210308D01*
X705973Y210300D01*
X710527Y210300D01*
X710652Y210314D01*
X710778Y210321D01*
X710825Y210334D01*
X710873Y210340D01*
X710992Y210382D01*
X711113Y210417D01*
X711155Y210441D01*
X711201Y210457D01*
X711307Y210526D01*
X711417Y210587D01*
X711464Y210627D01*
X711494Y210646D01*
X711527Y210681D01*
X711604Y210746D01*
X711666Y210808D01*
X712245Y211143D01*
X712891Y211316D01*
X713227Y211316D01*
X713227Y203822D01*
X713227Y196328D01*
X712797Y196328D01*
X712790Y196329D01*
X712668Y196347D01*
X712617Y196343D01*
X712566Y196347D01*
X712443Y196329D01*
X712320Y196318D01*
X712272Y196303D01*
X712221Y196295D01*
X712106Y196250D01*
X711989Y196212D01*
X711945Y196185D01*
X711897Y196167D01*
X711796Y196096D01*
X711690Y196032D01*
X711653Y195997D01*
X711611Y195968D01*
X711528Y195876D01*
X711440Y195790D01*
X711412Y195747D01*
X711378Y195709D01*
X711318Y195601D01*
X711251Y195497D01*
X711234Y195449D01*
X711209Y195404D01*
X711175Y195285D01*
X711134Y195168D01*
X711128Y195118D01*
X711114Y195068D01*
X711095Y194825D01*
X711095Y177142D01*
X705753Y171801D01*
X705674Y171702D01*
X705590Y171608D01*
X705566Y171565D01*
X705536Y171528D01*
X705482Y171413D01*
X705421Y171303D01*
X705408Y171256D01*
X705387Y171212D01*
X705361Y171089D01*
X705326Y170967D01*
X705321Y170906D01*
X705314Y170872D01*
X705315Y170824D01*
X705307Y170723D01*
X705307Y168944D01*
X704499Y166994D01*
X703006Y165501D01*
X701056Y164693D01*
X698944Y164693D01*
G37*
%LPD*%
%LPC*%
G36*
X690273Y196328D02*
X690273Y196328D01*
X690273Y203822D01*
X690273Y211316D01*
X690624Y211316D01*
X690637Y211312D01*
X690760Y211302D01*
X690882Y211284D01*
X690933Y211288D01*
X690984Y211284D01*
X691106Y211302D01*
X691230Y211312D01*
X691278Y211328D01*
X691329Y211335D01*
X691444Y211381D01*
X691561Y211419D01*
X691605Y211445D01*
X691653Y211464D01*
X691754Y211535D01*
X691860Y211598D01*
X691897Y211634D01*
X691939Y211663D01*
X692022Y211755D01*
X692110Y211841D01*
X692138Y211884D01*
X692172Y211922D01*
X692232Y212030D01*
X692299Y212134D01*
X692316Y212182D01*
X692341Y212227D01*
X692374Y212346D01*
X692416Y212462D01*
X692422Y212513D01*
X692436Y212562D01*
X692455Y212806D01*
X692455Y216408D01*
X698842Y222795D01*
X704659Y222795D01*
X704785Y222809D01*
X704911Y222816D01*
X704957Y222829D01*
X705005Y222835D01*
X705124Y222877D01*
X705246Y222912D01*
X705288Y222936D01*
X705333Y222952D01*
X705439Y223021D01*
X705550Y223082D01*
X705596Y223122D01*
X705626Y223141D01*
X705660Y223176D01*
X705736Y223241D01*
X706994Y224499D01*
X708944Y225307D01*
X711056Y225307D01*
X713006Y224499D01*
X714499Y223006D01*
X715307Y221056D01*
X715307Y218944D01*
X714499Y216994D01*
X713006Y215501D01*
X711056Y214693D01*
X708944Y214693D01*
X706994Y215501D01*
X705736Y216759D01*
X705637Y216838D01*
X705543Y216922D01*
X705501Y216946D01*
X705463Y216976D01*
X705349Y217030D01*
X705238Y217091D01*
X705192Y217104D01*
X705148Y217125D01*
X705025Y217151D01*
X704903Y217186D01*
X704842Y217191D01*
X704807Y217198D01*
X704759Y217197D01*
X704659Y217205D01*
X701789Y217205D01*
X701663Y217191D01*
X701537Y217184D01*
X701490Y217171D01*
X701442Y217165D01*
X701323Y217123D01*
X701202Y217088D01*
X701160Y217064D01*
X701114Y217048D01*
X701008Y216979D01*
X700898Y216918D01*
X700851Y216878D01*
X700821Y216859D01*
X700788Y216824D01*
X700711Y216759D01*
X698491Y214539D01*
X698412Y214440D01*
X698328Y214346D01*
X698304Y214303D01*
X698274Y214266D01*
X698220Y214151D01*
X698159Y214041D01*
X698146Y213994D01*
X698125Y213950D01*
X698099Y213827D01*
X698064Y213705D01*
X698059Y213644D01*
X698052Y213610D01*
X698053Y213562D01*
X698045Y213461D01*
X698045Y212806D01*
X698051Y212755D01*
X698048Y212704D01*
X698070Y212582D01*
X698085Y212460D01*
X698102Y212412D01*
X698111Y212361D01*
X698160Y212248D01*
X698202Y212132D01*
X698230Y212089D01*
X698250Y212042D01*
X698324Y211943D01*
X698391Y211839D01*
X698428Y211803D01*
X698458Y211762D01*
X698553Y211683D01*
X698642Y211597D01*
X698686Y211570D01*
X698725Y211537D01*
X698835Y211481D01*
X698941Y211418D01*
X698990Y211402D01*
X699035Y211379D01*
X699155Y211349D01*
X699273Y211312D01*
X699324Y211308D01*
X699373Y211295D01*
X699497Y211294D01*
X699620Y211284D01*
X699671Y211291D01*
X699722Y211291D01*
X699859Y211316D01*
X700227Y211316D01*
X700227Y203822D01*
X700227Y196328D01*
X699891Y196328D01*
X699245Y196501D01*
X698666Y196836D01*
X698604Y196898D01*
X698505Y196977D01*
X698411Y197061D01*
X698369Y197085D01*
X698331Y197115D01*
X698217Y197169D01*
X698106Y197230D01*
X698059Y197243D01*
X698016Y197264D01*
X697892Y197290D01*
X697770Y197325D01*
X697710Y197330D01*
X697675Y197337D01*
X697627Y197336D01*
X697527Y197344D01*
X692973Y197344D01*
X692848Y197330D01*
X692722Y197323D01*
X692675Y197310D01*
X692627Y197304D01*
X692508Y197262D01*
X692387Y197227D01*
X692345Y197203D01*
X692299Y197187D01*
X692193Y197118D01*
X692083Y197057D01*
X692036Y197017D01*
X692006Y196998D01*
X691973Y196963D01*
X691896Y196898D01*
X691834Y196836D01*
X691255Y196501D01*
X690609Y196328D01*
X690273Y196328D01*
G37*
%LPD*%
%LPC*%
G36*
X906262Y488475D02*
X906262Y488475D01*
X900975Y493762D01*
X900975Y501238D01*
X906262Y506525D01*
X913738Y506525D01*
X919025Y501238D01*
X919025Y493762D01*
X913738Y488475D01*
X906262Y488475D01*
G37*
%LPD*%
%LPC*%
G36*
X79597Y581935D02*
X79597Y581935D01*
X76265Y583315D01*
X73715Y585865D01*
X72335Y589197D01*
X72335Y592803D01*
X73715Y596135D01*
X76265Y598685D01*
X79597Y600065D01*
X83203Y600065D01*
X86535Y598685D01*
X89085Y596135D01*
X90465Y592803D01*
X90465Y589197D01*
X89085Y585865D01*
X86535Y583315D01*
X83203Y581935D01*
X79597Y581935D01*
G37*
%LPD*%
%LPC*%
G36*
X54197Y581935D02*
X54197Y581935D01*
X50865Y583315D01*
X48315Y585865D01*
X46935Y589197D01*
X46935Y592803D01*
X48315Y596135D01*
X50865Y598685D01*
X54197Y600065D01*
X57803Y600065D01*
X61135Y598685D01*
X63685Y596135D01*
X65065Y592803D01*
X65065Y589197D01*
X63685Y585865D01*
X61135Y583315D01*
X57803Y581935D01*
X54197Y581935D01*
G37*
%LPD*%
%LPC*%
G36*
X104997Y581935D02*
X104997Y581935D01*
X101665Y583315D01*
X99115Y585865D01*
X97735Y589197D01*
X97735Y592803D01*
X99115Y596135D01*
X101665Y598685D01*
X104997Y600065D01*
X108603Y600065D01*
X111935Y598685D01*
X114485Y596135D01*
X115865Y592803D01*
X115865Y589197D01*
X114485Y585865D01*
X111935Y583315D01*
X108603Y581935D01*
X104997Y581935D01*
G37*
%LPD*%
%LPC*%
G36*
X79597Y277135D02*
X79597Y277135D01*
X76265Y278515D01*
X73715Y281065D01*
X72335Y284397D01*
X72335Y288003D01*
X73715Y291335D01*
X76265Y293885D01*
X79597Y295265D01*
X83203Y295265D01*
X86535Y293885D01*
X89085Y291335D01*
X90465Y288003D01*
X90465Y284397D01*
X89085Y281065D01*
X86535Y278515D01*
X83203Y277135D01*
X79597Y277135D01*
G37*
%LPD*%
%LPC*%
G36*
X104997Y277135D02*
X104997Y277135D01*
X101665Y278515D01*
X99115Y281065D01*
X97735Y284397D01*
X97735Y288003D01*
X99115Y291335D01*
X101665Y293885D01*
X104997Y295265D01*
X108603Y295265D01*
X111935Y293885D01*
X114485Y291335D01*
X115865Y288003D01*
X115865Y284397D01*
X114485Y281065D01*
X111935Y278515D01*
X108603Y277135D01*
X104997Y277135D01*
G37*
%LPD*%
%LPC*%
G36*
X104997Y556535D02*
X104997Y556535D01*
X101665Y557915D01*
X99115Y560465D01*
X97735Y563797D01*
X97735Y567403D01*
X99115Y570735D01*
X101665Y573285D01*
X104997Y574665D01*
X108603Y574665D01*
X111935Y573285D01*
X114485Y570735D01*
X115865Y567403D01*
X115865Y563797D01*
X114485Y560465D01*
X111935Y557915D01*
X108603Y556535D01*
X104997Y556535D01*
G37*
%LPD*%
%LPC*%
G36*
X79597Y556535D02*
X79597Y556535D01*
X76265Y557915D01*
X73715Y560465D01*
X72335Y563797D01*
X72335Y567403D01*
X73715Y570735D01*
X76265Y573285D01*
X79597Y574665D01*
X83203Y574665D01*
X86535Y573285D01*
X89085Y570735D01*
X90465Y567403D01*
X90465Y563797D01*
X89085Y560465D01*
X86535Y557915D01*
X83203Y556535D01*
X79597Y556535D01*
G37*
%LPD*%
%LPC*%
G36*
X54197Y556535D02*
X54197Y556535D01*
X50865Y557915D01*
X48315Y560465D01*
X46935Y563797D01*
X46935Y567403D01*
X48315Y570735D01*
X50865Y573285D01*
X54197Y574665D01*
X57803Y574665D01*
X61135Y573285D01*
X63685Y570735D01*
X65065Y567403D01*
X65065Y563797D01*
X63685Y560465D01*
X61135Y557915D01*
X57803Y556535D01*
X54197Y556535D01*
G37*
%LPD*%
%LPC*%
G36*
X54197Y302535D02*
X54197Y302535D01*
X50865Y303915D01*
X48315Y306465D01*
X46935Y309797D01*
X46935Y313403D01*
X48315Y316735D01*
X50865Y319285D01*
X54197Y320665D01*
X57803Y320665D01*
X61135Y319285D01*
X63685Y316735D01*
X65065Y313403D01*
X65065Y309797D01*
X63685Y306465D01*
X61135Y303915D01*
X57803Y302535D01*
X54197Y302535D01*
G37*
%LPD*%
%LPC*%
G36*
X79597Y302535D02*
X79597Y302535D01*
X76265Y303915D01*
X73715Y306465D01*
X72335Y309797D01*
X72335Y313403D01*
X73715Y316735D01*
X76265Y319285D01*
X79597Y320665D01*
X83203Y320665D01*
X86535Y319285D01*
X89085Y316735D01*
X90465Y313403D01*
X90465Y309797D01*
X89085Y306465D01*
X86535Y303915D01*
X83203Y302535D01*
X79597Y302535D01*
G37*
%LPD*%
%LPC*%
G36*
X79597Y531135D02*
X79597Y531135D01*
X76265Y532515D01*
X73715Y535065D01*
X72335Y538397D01*
X72335Y542003D01*
X73715Y545335D01*
X76265Y547885D01*
X79597Y549265D01*
X83203Y549265D01*
X86535Y547885D01*
X89085Y545335D01*
X90465Y542003D01*
X90465Y538397D01*
X89085Y535065D01*
X86535Y532515D01*
X83203Y531135D01*
X79597Y531135D01*
G37*
%LPD*%
%LPC*%
G36*
X104997Y531135D02*
X104997Y531135D01*
X101665Y532515D01*
X99115Y535065D01*
X97735Y538397D01*
X97735Y542003D01*
X99115Y545335D01*
X101665Y547885D01*
X104997Y549265D01*
X108603Y549265D01*
X111935Y547885D01*
X114485Y545335D01*
X115865Y542003D01*
X115865Y538397D01*
X114485Y535065D01*
X111935Y532515D01*
X108603Y531135D01*
X104997Y531135D01*
G37*
%LPD*%
%LPC*%
G36*
X575661Y534925D02*
X575661Y534925D01*
X572631Y536180D01*
X570313Y538498D01*
X569058Y541527D01*
X569058Y544806D01*
X570313Y547835D01*
X572631Y550154D01*
X575661Y551408D01*
X578939Y551408D01*
X581969Y550154D01*
X584287Y547835D01*
X585542Y544806D01*
X585542Y541527D01*
X584287Y538498D01*
X581969Y536180D01*
X578939Y534925D01*
X575661Y534925D01*
G37*
%LPD*%
%LPC*%
G36*
X550261Y534925D02*
X550261Y534925D01*
X547231Y536180D01*
X544913Y538498D01*
X543658Y541527D01*
X543658Y544806D01*
X544913Y547835D01*
X547231Y550154D01*
X550261Y551408D01*
X553539Y551408D01*
X556569Y550154D01*
X558887Y547835D01*
X560142Y544806D01*
X560142Y541527D01*
X558887Y538498D01*
X556569Y536180D01*
X553539Y534925D01*
X550261Y534925D01*
G37*
%LPD*%
%LPC*%
G36*
X601061Y534925D02*
X601061Y534925D01*
X598031Y536180D01*
X595713Y538498D01*
X594458Y541527D01*
X594458Y544806D01*
X595713Y547835D01*
X598031Y550154D01*
X601061Y551408D01*
X604339Y551408D01*
X607369Y550154D01*
X609687Y547835D01*
X610942Y544806D01*
X610942Y541527D01*
X609687Y538498D01*
X607369Y536180D01*
X604339Y534925D01*
X601061Y534925D01*
G37*
%LPD*%
%LPC*%
G36*
X626461Y534925D02*
X626461Y534925D01*
X623431Y536180D01*
X621113Y538498D01*
X619858Y541527D01*
X619858Y544806D01*
X621113Y547835D01*
X623431Y550154D01*
X626461Y551408D01*
X629739Y551408D01*
X632769Y550154D01*
X635087Y547835D01*
X636342Y544806D01*
X636342Y541527D01*
X635087Y538498D01*
X632769Y536180D01*
X629739Y534925D01*
X626461Y534925D01*
G37*
%LPD*%
%LPC*%
G36*
X565661Y328258D02*
X565661Y328258D01*
X562631Y329513D01*
X560313Y331831D01*
X559058Y334861D01*
X559058Y338139D01*
X560313Y341169D01*
X562631Y343487D01*
X565661Y344742D01*
X568939Y344742D01*
X571969Y343487D01*
X574287Y341169D01*
X575542Y338139D01*
X575542Y334861D01*
X574287Y331831D01*
X571969Y329513D01*
X568939Y328258D01*
X565661Y328258D01*
G37*
%LPD*%
%LPC*%
G36*
X591061Y328258D02*
X591061Y328258D01*
X588031Y329513D01*
X585713Y331831D01*
X584458Y334861D01*
X584458Y338139D01*
X585713Y341169D01*
X588031Y343487D01*
X591061Y344742D01*
X594339Y344742D01*
X597369Y343487D01*
X599687Y341169D01*
X600942Y338139D01*
X600942Y334861D01*
X599687Y331831D01*
X597369Y329513D01*
X594339Y328258D01*
X591061Y328258D01*
G37*
%LPD*%
%LPC*%
G36*
X616461Y328258D02*
X616461Y328258D01*
X613431Y329513D01*
X611113Y331831D01*
X609858Y334861D01*
X609858Y338139D01*
X611113Y341169D01*
X613431Y343487D01*
X616461Y344742D01*
X619739Y344742D01*
X622769Y343487D01*
X625087Y341169D01*
X626342Y338139D01*
X626342Y334861D01*
X625087Y331831D01*
X622769Y329513D01*
X619739Y328258D01*
X616461Y328258D01*
G37*
%LPD*%
%LPC*%
G36*
X390261Y431592D02*
X390261Y431592D01*
X387231Y432846D01*
X384913Y435165D01*
X383658Y438194D01*
X383658Y441473D01*
X384913Y444502D01*
X387231Y446820D01*
X390261Y448075D01*
X393539Y448075D01*
X396569Y446820D01*
X398887Y444502D01*
X400142Y441473D01*
X400142Y438194D01*
X398887Y435165D01*
X396569Y432846D01*
X393539Y431592D01*
X390261Y431592D01*
G37*
%LPD*%
%LPC*%
G36*
X415661Y431592D02*
X415661Y431592D01*
X412631Y432846D01*
X410313Y435165D01*
X409058Y438194D01*
X409058Y441473D01*
X410313Y444502D01*
X412631Y446820D01*
X415661Y448075D01*
X418939Y448075D01*
X421969Y446820D01*
X424287Y444502D01*
X425542Y441473D01*
X425542Y438194D01*
X424287Y435165D01*
X421969Y432846D01*
X418939Y431592D01*
X415661Y431592D01*
G37*
%LPD*%
%LPC*%
G36*
X441061Y431592D02*
X441061Y431592D01*
X438031Y432846D01*
X435713Y435165D01*
X434458Y438194D01*
X434458Y441473D01*
X435713Y444502D01*
X438031Y446820D01*
X441061Y448075D01*
X444339Y448075D01*
X447369Y446820D01*
X449687Y444502D01*
X450942Y441473D01*
X450942Y438194D01*
X449687Y435165D01*
X447369Y432846D01*
X444339Y431592D01*
X441061Y431592D01*
G37*
%LPD*%
%LPC*%
G36*
X466461Y431592D02*
X466461Y431592D01*
X463431Y432846D01*
X461113Y435165D01*
X459858Y438194D01*
X459858Y441473D01*
X461113Y444502D01*
X463431Y446820D01*
X466461Y448075D01*
X469739Y448075D01*
X472769Y446820D01*
X475087Y444502D01*
X476342Y441473D01*
X476342Y438194D01*
X475087Y435165D01*
X472769Y432846D01*
X469739Y431592D01*
X466461Y431592D01*
G37*
%LPD*%
%LPC*%
G36*
X540261Y328258D02*
X540261Y328258D01*
X537231Y329513D01*
X534913Y331831D01*
X533658Y334861D01*
X533658Y338139D01*
X534913Y341169D01*
X537231Y343487D01*
X540261Y344742D01*
X543539Y344742D01*
X546569Y343487D01*
X548887Y341169D01*
X550142Y338139D01*
X550142Y334861D01*
X548887Y331831D01*
X546569Y329513D01*
X543539Y328258D01*
X540261Y328258D01*
G37*
%LPD*%
%LPC*%
G36*
X801499Y142499D02*
X801499Y142499D01*
X801499Y161295D01*
X801820Y161244D01*
X803622Y160659D01*
X805311Y159798D01*
X806844Y158684D01*
X808184Y157344D01*
X809298Y155811D01*
X810159Y154122D01*
X810744Y152320D01*
X811041Y150448D01*
X811041Y142499D01*
X801499Y142499D01*
G37*
%LPD*%
%LPC*%
G36*
X826499Y194499D02*
X826499Y194499D01*
X826499Y204041D01*
X834448Y204041D01*
X836320Y203744D01*
X838122Y203159D01*
X839811Y202298D01*
X841344Y201184D01*
X842684Y199844D01*
X843798Y198311D01*
X844659Y196622D01*
X845244Y194820D01*
X845295Y194499D01*
X826499Y194499D01*
G37*
%LPD*%
%LPC*%
G36*
X826499Y314499D02*
X826499Y314499D01*
X826499Y324041D01*
X834448Y324041D01*
X836320Y323744D01*
X838122Y323159D01*
X839811Y322298D01*
X841344Y321184D01*
X842684Y319844D01*
X843798Y318311D01*
X844659Y316622D01*
X845244Y314820D01*
X845295Y314499D01*
X826499Y314499D01*
G37*
%LPD*%
%LPC*%
G36*
X801499Y262499D02*
X801499Y262499D01*
X801499Y281295D01*
X801820Y281244D01*
X803622Y280659D01*
X805311Y279798D01*
X806844Y278684D01*
X808184Y277344D01*
X809298Y275811D01*
X810159Y274122D01*
X810744Y272320D01*
X811041Y270448D01*
X811041Y262499D01*
X801499Y262499D01*
G37*
%LPD*%
%LPC*%
G36*
X802705Y194499D02*
X802705Y194499D01*
X802756Y194820D01*
X803341Y196622D01*
X804202Y198311D01*
X805316Y199844D01*
X806656Y201184D01*
X808189Y202298D01*
X809878Y203159D01*
X811680Y203744D01*
X813552Y204041D01*
X821501Y204041D01*
X821501Y194499D01*
X802705Y194499D01*
G37*
%LPD*%
%LPC*%
G36*
X802705Y314499D02*
X802705Y314499D01*
X802756Y314820D01*
X803341Y316622D01*
X804202Y318311D01*
X805316Y319844D01*
X806656Y321184D01*
X808189Y322298D01*
X809878Y323159D01*
X811680Y323744D01*
X813552Y324041D01*
X821501Y324041D01*
X821501Y314499D01*
X802705Y314499D01*
G37*
%LPD*%
%LPC*%
G36*
X801499Y137501D02*
X801499Y137501D01*
X811041Y137501D01*
X811041Y129552D01*
X810744Y127680D01*
X810159Y125878D01*
X809298Y124189D01*
X808184Y122656D01*
X806844Y121316D01*
X805311Y120202D01*
X803622Y119341D01*
X801820Y118756D01*
X801499Y118705D01*
X801499Y137501D01*
G37*
%LPD*%
%LPC*%
G36*
X801499Y257501D02*
X801499Y257501D01*
X811041Y257501D01*
X811041Y249552D01*
X810744Y247680D01*
X810159Y245878D01*
X809298Y244189D01*
X808184Y242656D01*
X806844Y241316D01*
X805311Y240202D01*
X803622Y239341D01*
X801820Y238756D01*
X801499Y238705D01*
X801499Y257501D01*
G37*
%LPD*%
%LPC*%
G36*
X786959Y142499D02*
X786959Y142499D01*
X786959Y150448D01*
X787256Y152320D01*
X787841Y154122D01*
X788702Y155811D01*
X789816Y157344D01*
X791156Y158684D01*
X792689Y159798D01*
X794378Y160659D01*
X796180Y161244D01*
X796501Y161295D01*
X796501Y142499D01*
X786959Y142499D01*
G37*
%LPD*%
%LPC*%
G36*
X786959Y262499D02*
X786959Y262499D01*
X786959Y270448D01*
X787256Y272320D01*
X787841Y274122D01*
X788702Y275811D01*
X789816Y277344D01*
X791156Y278684D01*
X792689Y279798D01*
X794378Y280659D01*
X796180Y281244D01*
X796501Y281295D01*
X796501Y262499D01*
X786959Y262499D01*
G37*
%LPD*%
%LPC*%
G36*
X826499Y179959D02*
X826499Y179959D01*
X826499Y189501D01*
X845295Y189501D01*
X845244Y189180D01*
X844659Y187378D01*
X843798Y185689D01*
X842684Y184156D01*
X841344Y182816D01*
X839811Y181702D01*
X838122Y180841D01*
X836320Y180256D01*
X834448Y179959D01*
X826499Y179959D01*
G37*
%LPD*%
%LPC*%
G36*
X826499Y299959D02*
X826499Y299959D01*
X826499Y309501D01*
X845295Y309501D01*
X845244Y309180D01*
X844659Y307378D01*
X843798Y305689D01*
X842684Y304156D01*
X841344Y302816D01*
X839811Y301702D01*
X838122Y300841D01*
X836320Y300256D01*
X834448Y299959D01*
X826499Y299959D01*
G37*
%LPD*%
%LPC*%
G36*
X813552Y299959D02*
X813552Y299959D01*
X811680Y300256D01*
X809878Y300841D01*
X808189Y301702D01*
X806656Y302816D01*
X805316Y304156D01*
X804202Y305689D01*
X803341Y307378D01*
X802756Y309180D01*
X802705Y309501D01*
X821501Y309501D01*
X821501Y299959D01*
X813552Y299959D01*
G37*
%LPD*%
%LPC*%
G36*
X813552Y179959D02*
X813552Y179959D01*
X811680Y180256D01*
X809878Y180841D01*
X808189Y181702D01*
X806656Y182816D01*
X805316Y184156D01*
X804202Y185689D01*
X803341Y187378D01*
X802756Y189180D01*
X802705Y189501D01*
X821501Y189501D01*
X821501Y179959D01*
X813552Y179959D01*
G37*
%LPD*%
%LPC*%
G36*
X796180Y118756D02*
X796180Y118756D01*
X794378Y119341D01*
X792689Y120202D01*
X791156Y121316D01*
X789816Y122656D01*
X788702Y124189D01*
X787841Y125878D01*
X787256Y127680D01*
X786959Y129552D01*
X786959Y137501D01*
X796501Y137501D01*
X796501Y118705D01*
X796180Y118756D01*
G37*
%LPD*%
%LPC*%
G36*
X796180Y238756D02*
X796180Y238756D01*
X794378Y239341D01*
X792689Y240202D01*
X791156Y241316D01*
X789816Y242656D01*
X788702Y244189D01*
X787841Y245878D01*
X787256Y247680D01*
X786959Y249552D01*
X786959Y257501D01*
X796501Y257501D01*
X796501Y238705D01*
X796180Y238756D01*
G37*
%LPD*%
%LPC*%
G36*
X912249Y344749D02*
X912249Y344749D01*
X912249Y352541D01*
X917835Y352541D01*
X918481Y352368D01*
X919060Y352033D01*
X919533Y351560D01*
X919868Y350981D01*
X920041Y350335D01*
X920041Y344749D01*
X912249Y344749D01*
G37*
%LPD*%
%LPC*%
G36*
X912249Y474749D02*
X912249Y474749D01*
X912249Y482541D01*
X917835Y482541D01*
X918481Y482368D01*
X919060Y482033D01*
X919533Y481560D01*
X919868Y480981D01*
X920041Y480335D01*
X920041Y474749D01*
X912249Y474749D01*
G37*
%LPD*%
%LPC*%
G36*
X899959Y474749D02*
X899959Y474749D01*
X899959Y480335D01*
X900132Y480981D01*
X900467Y481560D01*
X900940Y482033D01*
X901519Y482368D01*
X902165Y482541D01*
X907751Y482541D01*
X907751Y474749D01*
X899959Y474749D01*
G37*
%LPD*%
%LPC*%
G36*
X899959Y344749D02*
X899959Y344749D01*
X899959Y350335D01*
X900132Y350981D01*
X900467Y351560D01*
X900940Y352033D01*
X901519Y352368D01*
X902165Y352541D01*
X907751Y352541D01*
X907751Y344749D01*
X899959Y344749D01*
G37*
%LPD*%
%LPC*%
G36*
X912249Y332459D02*
X912249Y332459D01*
X912249Y340251D01*
X920041Y340251D01*
X920041Y334665D01*
X919868Y334019D01*
X919533Y333440D01*
X919060Y332967D01*
X918481Y332632D01*
X917835Y332459D01*
X912249Y332459D01*
G37*
%LPD*%
%LPC*%
G36*
X912249Y462459D02*
X912249Y462459D01*
X912249Y470251D01*
X920041Y470251D01*
X920041Y464665D01*
X919868Y464019D01*
X919533Y463440D01*
X919060Y462967D01*
X918481Y462632D01*
X917835Y462459D01*
X912249Y462459D01*
G37*
%LPD*%
%LPC*%
G36*
X902165Y332459D02*
X902165Y332459D01*
X901519Y332632D01*
X900940Y332967D01*
X900467Y333440D01*
X900132Y334019D01*
X899959Y334665D01*
X899959Y340251D01*
X907751Y340251D01*
X907751Y332459D01*
X902165Y332459D01*
G37*
%LPD*%
%LPC*%
G36*
X902165Y462459D02*
X902165Y462459D01*
X901519Y462632D01*
X900940Y462967D01*
X900467Y463440D01*
X900132Y464019D01*
X899959Y464665D01*
X899959Y470251D01*
X907751Y470251D01*
X907751Y462459D01*
X902165Y462459D01*
G37*
%LPD*%
%LPC*%
G36*
X58499Y212499D02*
X58499Y212499D01*
X58499Y220081D01*
X63875Y220081D01*
X64521Y219908D01*
X65100Y219573D01*
X65573Y219100D01*
X65908Y218521D01*
X66081Y217875D01*
X66081Y212499D01*
X58499Y212499D01*
G37*
%LPD*%
%LPC*%
G36*
X45919Y212499D02*
X45919Y212499D01*
X45919Y217875D01*
X46092Y218521D01*
X46427Y219100D01*
X46900Y219573D01*
X47479Y219908D01*
X48125Y220081D01*
X53501Y220081D01*
X53501Y212499D01*
X45919Y212499D01*
G37*
%LPD*%
%LPC*%
G36*
X58499Y199919D02*
X58499Y199919D01*
X58499Y207501D01*
X66081Y207501D01*
X66081Y202125D01*
X65908Y201479D01*
X65573Y200900D01*
X65100Y200427D01*
X64521Y200092D01*
X63875Y199919D01*
X58499Y199919D01*
G37*
%LPD*%
%LPC*%
G36*
X48125Y199919D02*
X48125Y199919D01*
X47479Y200092D01*
X46900Y200427D01*
X46427Y200900D01*
X46092Y201479D01*
X45919Y202125D01*
X45919Y207501D01*
X53501Y207501D01*
X53501Y199919D01*
X48125Y199919D01*
G37*
%LPD*%
%LPC*%
G36*
X469958Y775358D02*
X469958Y775358D01*
X469958Y782579D01*
X470268Y782530D01*
X471654Y782080D01*
X472952Y781418D01*
X474131Y780561D01*
X475161Y779531D01*
X476018Y778352D01*
X476680Y777054D01*
X477130Y775668D01*
X477179Y775358D01*
X469958Y775358D01*
G37*
%LPD*%
%LPC*%
G36*
X619958Y465358D02*
X619958Y465358D01*
X619958Y472579D01*
X620268Y472530D01*
X621654Y472080D01*
X622952Y471418D01*
X624131Y470561D01*
X625161Y469531D01*
X626018Y468352D01*
X626680Y467054D01*
X627130Y465668D01*
X627179Y465358D01*
X619958Y465358D01*
G37*
%LPD*%
%LPC*%
G36*
X629958Y672024D02*
X629958Y672024D01*
X629958Y679245D01*
X630268Y679196D01*
X631654Y678746D01*
X632952Y678085D01*
X634131Y677228D01*
X635161Y676198D01*
X636018Y675019D01*
X636680Y673720D01*
X637130Y672335D01*
X637179Y672024D01*
X629958Y672024D01*
G37*
%LPD*%
%LPC*%
G36*
X469958Y568691D02*
X469958Y568691D01*
X469958Y575912D01*
X470268Y575863D01*
X471654Y575413D01*
X472952Y574751D01*
X474131Y573895D01*
X475161Y572864D01*
X476018Y571686D01*
X476680Y570387D01*
X477130Y569001D01*
X477179Y568691D01*
X469958Y568691D01*
G37*
%LPD*%
%LPC*%
G36*
X459021Y775358D02*
X459021Y775358D01*
X459070Y775668D01*
X459520Y777054D01*
X460182Y778352D01*
X461039Y779531D01*
X462069Y780561D01*
X463248Y781418D01*
X464546Y782080D01*
X465932Y782530D01*
X466242Y782579D01*
X466242Y775358D01*
X459021Y775358D01*
G37*
%LPD*%
%LPC*%
G36*
X469958Y771642D02*
X469958Y771642D01*
X477179Y771642D01*
X477130Y771332D01*
X476680Y769946D01*
X476018Y768648D01*
X475161Y767469D01*
X474131Y766439D01*
X472952Y765582D01*
X471654Y764920D01*
X470268Y764470D01*
X469958Y764421D01*
X469958Y771642D01*
G37*
%LPD*%
%LPC*%
G36*
X469958Y564976D02*
X469958Y564976D01*
X477179Y564976D01*
X477130Y564665D01*
X476680Y563280D01*
X476018Y561981D01*
X475161Y560802D01*
X474131Y559772D01*
X472952Y558915D01*
X471654Y558254D01*
X470268Y557804D01*
X469958Y557754D01*
X469958Y564976D01*
G37*
%LPD*%
%LPC*%
G36*
X619958Y461642D02*
X619958Y461642D01*
X627179Y461642D01*
X627130Y461332D01*
X626680Y459946D01*
X626018Y458648D01*
X625161Y457469D01*
X624131Y456439D01*
X622952Y455582D01*
X621654Y454920D01*
X620268Y454470D01*
X619958Y454421D01*
X619958Y461642D01*
G37*
%LPD*%
%LPC*%
G36*
X619021Y672024D02*
X619021Y672024D01*
X619070Y672335D01*
X619520Y673720D01*
X620182Y675019D01*
X621039Y676198D01*
X622069Y677228D01*
X623248Y678085D01*
X624546Y678746D01*
X625932Y679196D01*
X626242Y679245D01*
X626242Y672024D01*
X619021Y672024D01*
G37*
%LPD*%
%LPC*%
G36*
X459021Y568691D02*
X459021Y568691D01*
X459070Y569001D01*
X459520Y570387D01*
X460182Y571686D01*
X461039Y572864D01*
X462069Y573895D01*
X463248Y574751D01*
X464546Y575413D01*
X465932Y575863D01*
X466242Y575912D01*
X466242Y568691D01*
X459021Y568691D01*
G37*
%LPD*%
%LPC*%
G36*
X629958Y668309D02*
X629958Y668309D01*
X637179Y668309D01*
X637130Y667999D01*
X636680Y666613D01*
X636018Y665314D01*
X635161Y664136D01*
X634131Y663105D01*
X632952Y662249D01*
X631654Y661587D01*
X630268Y661137D01*
X629958Y661088D01*
X629958Y668309D01*
G37*
%LPD*%
%LPC*%
G36*
X609021Y465358D02*
X609021Y465358D01*
X609070Y465668D01*
X609520Y467054D01*
X610182Y468352D01*
X611039Y469531D01*
X612069Y470561D01*
X613248Y471418D01*
X614546Y472080D01*
X615932Y472530D01*
X616242Y472579D01*
X616242Y465358D01*
X609021Y465358D01*
G37*
%LPD*%
%LPC*%
G36*
X625932Y661137D02*
X625932Y661137D01*
X624546Y661587D01*
X623248Y662249D01*
X622069Y663105D01*
X621039Y664136D01*
X620182Y665314D01*
X619520Y666613D01*
X619070Y667999D01*
X619021Y668309D01*
X626242Y668309D01*
X626242Y661088D01*
X625932Y661137D01*
G37*
%LPD*%
%LPC*%
G36*
X615932Y454470D02*
X615932Y454470D01*
X614546Y454920D01*
X613248Y455582D01*
X612069Y456439D01*
X611039Y457469D01*
X610182Y458648D01*
X609520Y459946D01*
X609070Y461332D01*
X609021Y461642D01*
X616242Y461642D01*
X616242Y454421D01*
X615932Y454470D01*
G37*
%LPD*%
%LPC*%
G36*
X465932Y557804D02*
X465932Y557804D01*
X464546Y558254D01*
X463248Y558915D01*
X462069Y559772D01*
X461039Y560802D01*
X460182Y561981D01*
X459520Y563280D01*
X459070Y564665D01*
X459021Y564976D01*
X466242Y564976D01*
X466242Y557754D01*
X465932Y557804D01*
G37*
%LPD*%
%LPC*%
G36*
X465932Y764470D02*
X465932Y764470D01*
X464546Y764920D01*
X463248Y765582D01*
X462069Y766439D01*
X461039Y767469D01*
X460182Y768648D01*
X459520Y769946D01*
X459070Y771332D01*
X459021Y771642D01*
X466242Y771642D01*
X466242Y764421D01*
X465932Y764470D01*
G37*
%LPD*%
%LPC*%
G36*
X83899Y212499D02*
X83899Y212499D01*
X83899Y219787D01*
X85270Y219342D01*
X86683Y218622D01*
X87967Y217689D01*
X89089Y216567D01*
X90022Y215283D01*
X90742Y213870D01*
X91187Y212499D01*
X83899Y212499D01*
G37*
%LPD*%
%LPC*%
G36*
X58499Y288699D02*
X58499Y288699D01*
X58499Y295987D01*
X59870Y295542D01*
X61283Y294822D01*
X62567Y293889D01*
X63689Y292767D01*
X64622Y291483D01*
X65342Y290070D01*
X65787Y288699D01*
X58499Y288699D01*
G37*
%LPD*%
%LPC*%
G36*
X109299Y263299D02*
X109299Y263299D01*
X109299Y270587D01*
X110670Y270142D01*
X112083Y269422D01*
X113367Y268489D01*
X114489Y267367D01*
X115422Y266083D01*
X116142Y264670D01*
X116587Y263299D01*
X109299Y263299D01*
G37*
%LPD*%
%LPC*%
G36*
X83899Y263299D02*
X83899Y263299D01*
X83899Y270587D01*
X85270Y270142D01*
X86683Y269422D01*
X87967Y268489D01*
X89089Y267367D01*
X90022Y266083D01*
X90742Y264670D01*
X91187Y263299D01*
X83899Y263299D01*
G37*
%LPD*%
%LPC*%
G36*
X58499Y263299D02*
X58499Y263299D01*
X58499Y270587D01*
X59870Y270142D01*
X61283Y269422D01*
X62567Y268489D01*
X63689Y267367D01*
X64622Y266083D01*
X65342Y264670D01*
X65787Y263299D01*
X58499Y263299D01*
G37*
%LPD*%
%LPC*%
G36*
X58499Y237899D02*
X58499Y237899D01*
X58499Y245187D01*
X59870Y244742D01*
X61283Y244022D01*
X62567Y243089D01*
X63689Y241967D01*
X64622Y240683D01*
X65342Y239270D01*
X65787Y237899D01*
X58499Y237899D01*
G37*
%LPD*%
%LPC*%
G36*
X83899Y237899D02*
X83899Y237899D01*
X83899Y245187D01*
X85270Y244742D01*
X86683Y244022D01*
X87967Y243089D01*
X89089Y241967D01*
X90022Y240683D01*
X90742Y239270D01*
X91187Y237899D01*
X83899Y237899D01*
G37*
%LPD*%
%LPC*%
G36*
X109299Y237899D02*
X109299Y237899D01*
X109299Y245187D01*
X110670Y244742D01*
X112083Y244022D01*
X113367Y243089D01*
X114489Y241967D01*
X115422Y240683D01*
X116142Y239270D01*
X116587Y237899D01*
X109299Y237899D01*
G37*
%LPD*%
%LPC*%
G36*
X109299Y212499D02*
X109299Y212499D01*
X109299Y219787D01*
X110670Y219342D01*
X112083Y218622D01*
X113367Y217689D01*
X114489Y216567D01*
X115422Y215283D01*
X116142Y213870D01*
X116587Y212499D01*
X109299Y212499D01*
G37*
%LPD*%
%LPC*%
G36*
X46213Y237899D02*
X46213Y237899D01*
X46658Y239270D01*
X47378Y240683D01*
X48311Y241967D01*
X49433Y243089D01*
X50717Y244022D01*
X52130Y244742D01*
X53501Y245187D01*
X53501Y237899D01*
X46213Y237899D01*
G37*
%LPD*%
%LPC*%
G36*
X97013Y237899D02*
X97013Y237899D01*
X97458Y239270D01*
X98178Y240683D01*
X99111Y241967D01*
X100233Y243089D01*
X101517Y244022D01*
X102930Y244742D01*
X104301Y245187D01*
X104301Y237899D01*
X97013Y237899D01*
G37*
%LPD*%
%LPC*%
G36*
X46213Y288699D02*
X46213Y288699D01*
X46658Y290070D01*
X47378Y291483D01*
X48311Y292767D01*
X49433Y293889D01*
X50717Y294822D01*
X52130Y295542D01*
X53501Y295987D01*
X53501Y288699D01*
X46213Y288699D01*
G37*
%LPD*%
%LPC*%
G36*
X109299Y232901D02*
X109299Y232901D01*
X116587Y232901D01*
X116142Y231530D01*
X115422Y230117D01*
X114489Y228833D01*
X113367Y227711D01*
X112083Y226778D01*
X110670Y226058D01*
X109299Y225613D01*
X109299Y232901D01*
G37*
%LPD*%
%LPC*%
G36*
X58499Y283701D02*
X58499Y283701D01*
X65787Y283701D01*
X65342Y282330D01*
X64622Y280917D01*
X63689Y279633D01*
X62567Y278511D01*
X61283Y277578D01*
X59870Y276858D01*
X58499Y276413D01*
X58499Y283701D01*
G37*
%LPD*%
%LPC*%
G36*
X58499Y232901D02*
X58499Y232901D01*
X65787Y232901D01*
X65342Y231530D01*
X64622Y230117D01*
X63689Y228833D01*
X62567Y227711D01*
X61283Y226778D01*
X59870Y226058D01*
X58499Y225613D01*
X58499Y232901D01*
G37*
%LPD*%
%LPC*%
G36*
X46213Y263299D02*
X46213Y263299D01*
X46658Y264670D01*
X47378Y266083D01*
X48311Y267367D01*
X49433Y268489D01*
X50717Y269422D01*
X52130Y270142D01*
X53501Y270587D01*
X53501Y263299D01*
X46213Y263299D01*
G37*
%LPD*%
%LPC*%
G36*
X83899Y232901D02*
X83899Y232901D01*
X91187Y232901D01*
X90742Y231530D01*
X90022Y230117D01*
X89089Y228833D01*
X87967Y227711D01*
X86683Y226778D01*
X85270Y226058D01*
X83899Y225613D01*
X83899Y232901D01*
G37*
%LPD*%
%LPC*%
G36*
X71613Y237899D02*
X71613Y237899D01*
X72058Y239270D01*
X72778Y240683D01*
X73711Y241967D01*
X74833Y243089D01*
X76117Y244022D01*
X77530Y244742D01*
X78901Y245187D01*
X78901Y237899D01*
X71613Y237899D01*
G37*
%LPD*%
%LPC*%
G36*
X71613Y263299D02*
X71613Y263299D01*
X72058Y264670D01*
X72778Y266083D01*
X73711Y267367D01*
X74833Y268489D01*
X76117Y269422D01*
X77530Y270142D01*
X78901Y270587D01*
X78901Y263299D01*
X71613Y263299D01*
G37*
%LPD*%
%LPC*%
G36*
X58499Y258301D02*
X58499Y258301D01*
X65787Y258301D01*
X65342Y256930D01*
X64622Y255517D01*
X63689Y254233D01*
X62567Y253111D01*
X61283Y252178D01*
X59870Y251458D01*
X58499Y251013D01*
X58499Y258301D01*
G37*
%LPD*%
%LPC*%
G36*
X97013Y263299D02*
X97013Y263299D01*
X97458Y264670D01*
X98178Y266083D01*
X99111Y267367D01*
X100233Y268489D01*
X101517Y269422D01*
X102930Y270142D01*
X104301Y270587D01*
X104301Y263299D01*
X97013Y263299D01*
G37*
%LPD*%
%LPC*%
G36*
X109299Y258301D02*
X109299Y258301D01*
X116587Y258301D01*
X116142Y256930D01*
X115422Y255517D01*
X114489Y254233D01*
X113367Y253111D01*
X112083Y252178D01*
X110670Y251458D01*
X109299Y251013D01*
X109299Y258301D01*
G37*
%LPD*%
%LPC*%
G36*
X71613Y212499D02*
X71613Y212499D01*
X72058Y213870D01*
X72778Y215283D01*
X73711Y216567D01*
X74833Y217689D01*
X76117Y218622D01*
X77530Y219342D01*
X78901Y219787D01*
X78901Y212499D01*
X71613Y212499D01*
G37*
%LPD*%
%LPC*%
G36*
X97013Y212499D02*
X97013Y212499D01*
X97458Y213870D01*
X98178Y215283D01*
X99111Y216567D01*
X100233Y217689D01*
X101517Y218622D01*
X102930Y219342D01*
X104301Y219787D01*
X104301Y212499D01*
X97013Y212499D01*
G37*
%LPD*%
%LPC*%
G36*
X109299Y207501D02*
X109299Y207501D01*
X116587Y207501D01*
X116142Y206130D01*
X115422Y204717D01*
X114489Y203433D01*
X113367Y202311D01*
X112083Y201378D01*
X110670Y200658D01*
X109299Y200213D01*
X109299Y207501D01*
G37*
%LPD*%
%LPC*%
G36*
X83899Y258301D02*
X83899Y258301D01*
X91187Y258301D01*
X90742Y256930D01*
X90022Y255517D01*
X89089Y254233D01*
X87967Y253111D01*
X86683Y252178D01*
X85270Y251458D01*
X83899Y251013D01*
X83899Y258301D01*
G37*
%LPD*%
%LPC*%
G36*
X83899Y207501D02*
X83899Y207501D01*
X91187Y207501D01*
X90742Y206130D01*
X90022Y204717D01*
X89089Y203433D01*
X87967Y202311D01*
X86683Y201378D01*
X85270Y200658D01*
X83899Y200213D01*
X83899Y207501D01*
G37*
%LPD*%
%LPC*%
G36*
X52130Y276858D02*
X52130Y276858D01*
X50717Y277578D01*
X49433Y278511D01*
X48311Y279633D01*
X47378Y280917D01*
X46658Y282330D01*
X46213Y283701D01*
X53501Y283701D01*
X53501Y276413D01*
X52130Y276858D01*
G37*
%LPD*%
%LPC*%
G36*
X102930Y200658D02*
X102930Y200658D01*
X101517Y201378D01*
X100233Y202311D01*
X99111Y203433D01*
X98178Y204717D01*
X97458Y206130D01*
X97013Y207501D01*
X104301Y207501D01*
X104301Y200213D01*
X102930Y200658D01*
G37*
%LPD*%
%LPC*%
G36*
X102930Y226058D02*
X102930Y226058D01*
X101517Y226778D01*
X100233Y227711D01*
X99111Y228833D01*
X98178Y230117D01*
X97458Y231530D01*
X97013Y232901D01*
X104301Y232901D01*
X104301Y225613D01*
X102930Y226058D01*
G37*
%LPD*%
%LPC*%
G36*
X77530Y200658D02*
X77530Y200658D01*
X76117Y201378D01*
X74833Y202311D01*
X73711Y203433D01*
X72778Y204717D01*
X72058Y206130D01*
X71613Y207501D01*
X78901Y207501D01*
X78901Y200213D01*
X77530Y200658D01*
G37*
%LPD*%
%LPC*%
G36*
X77530Y226058D02*
X77530Y226058D01*
X76117Y226778D01*
X74833Y227711D01*
X73711Y228833D01*
X72778Y230117D01*
X72058Y231530D01*
X71613Y232901D01*
X78901Y232901D01*
X78901Y225613D01*
X77530Y226058D01*
G37*
%LPD*%
%LPC*%
G36*
X52130Y226058D02*
X52130Y226058D01*
X50717Y226778D01*
X49433Y227711D01*
X48311Y228833D01*
X47378Y230117D01*
X46658Y231530D01*
X46213Y232901D01*
X53501Y232901D01*
X53501Y225613D01*
X52130Y226058D01*
G37*
%LPD*%
%LPC*%
G36*
X102930Y251458D02*
X102930Y251458D01*
X101517Y252178D01*
X100233Y253111D01*
X99111Y254233D01*
X98178Y255517D01*
X97458Y256930D01*
X97013Y258301D01*
X104301Y258301D01*
X104301Y251013D01*
X102930Y251458D01*
G37*
%LPD*%
%LPC*%
G36*
X52130Y251458D02*
X52130Y251458D01*
X50717Y252178D01*
X49433Y253111D01*
X48311Y254233D01*
X47378Y255517D01*
X46658Y256930D01*
X46213Y258301D01*
X53501Y258301D01*
X53501Y251013D01*
X52130Y251458D01*
G37*
%LPD*%
%LPC*%
G36*
X77530Y251458D02*
X77530Y251458D01*
X76117Y252178D01*
X74833Y253111D01*
X73711Y254233D01*
X72778Y255517D01*
X72058Y256930D01*
X71613Y258301D01*
X78901Y258301D01*
X78901Y251013D01*
X77530Y251458D01*
G37*
%LPD*%
%LPC*%
G36*
X716273Y205345D02*
X716273Y205345D01*
X716273Y211316D01*
X716609Y211316D01*
X717269Y211139D01*
X717377Y211092D01*
X717514Y211028D01*
X717536Y211023D01*
X717558Y211013D01*
X717707Y210986D01*
X717854Y210955D01*
X717878Y210955D01*
X717901Y210951D01*
X718052Y210959D01*
X718203Y210962D01*
X718225Y210967D01*
X718249Y210968D01*
X718395Y211010D01*
X718541Y211047D01*
X718566Y211059D01*
X718584Y211064D01*
X718625Y211087D01*
X718737Y211140D01*
X719391Y211316D01*
X719727Y211316D01*
X719727Y205345D01*
X716273Y205345D01*
G37*
%LPD*%
%LPC*%
G36*
X670773Y205345D02*
X670773Y205345D01*
X670773Y211316D01*
X671109Y211316D01*
X671769Y211139D01*
X671877Y211092D01*
X672014Y211028D01*
X672036Y211023D01*
X672058Y211013D01*
X672207Y210986D01*
X672354Y210955D01*
X672378Y210955D01*
X672401Y210951D01*
X672552Y210959D01*
X672703Y210962D01*
X672725Y210967D01*
X672749Y210968D01*
X672895Y211010D01*
X673041Y211047D01*
X673066Y211059D01*
X673084Y211064D01*
X673125Y211087D01*
X673237Y211140D01*
X673891Y211316D01*
X674227Y211316D01*
X674227Y205345D01*
X670773Y205345D01*
G37*
%LPD*%
%LPC*%
G36*
X716273Y263701D02*
X716273Y263701D01*
X716273Y269672D01*
X716609Y269672D01*
X717269Y269495D01*
X717377Y269448D01*
X717514Y269384D01*
X717537Y269379D01*
X717558Y269369D01*
X717707Y269342D01*
X717855Y269311D01*
X717878Y269311D01*
X717901Y269307D01*
X718052Y269315D01*
X718203Y269318D01*
X718226Y269323D01*
X718249Y269324D01*
X718394Y269366D01*
X718541Y269403D01*
X718566Y269415D01*
X718584Y269420D01*
X718625Y269443D01*
X718737Y269496D01*
X719391Y269672D01*
X719727Y269672D01*
X719727Y263701D01*
X716273Y263701D01*
G37*
%LPD*%
%LPC*%
G36*
X716273Y196328D02*
X716273Y196328D01*
X716273Y202299D01*
X719727Y202299D01*
X719727Y196328D01*
X719391Y196328D01*
X718731Y196505D01*
X718623Y196552D01*
X718486Y196616D01*
X718463Y196621D01*
X718442Y196631D01*
X718293Y196658D01*
X718145Y196689D01*
X718122Y196689D01*
X718099Y196693D01*
X717948Y196685D01*
X717797Y196682D01*
X717774Y196677D01*
X717751Y196676D01*
X717606Y196634D01*
X717459Y196597D01*
X717434Y196585D01*
X717416Y196580D01*
X717375Y196557D01*
X717263Y196504D01*
X716609Y196328D01*
X716273Y196328D01*
G37*
%LPD*%
%LPC*%
G36*
X716273Y254684D02*
X716273Y254684D01*
X716273Y260655D01*
X719727Y260655D01*
X719727Y254684D01*
X719391Y254684D01*
X718731Y254861D01*
X718623Y254908D01*
X718486Y254972D01*
X718463Y254977D01*
X718442Y254987D01*
X718293Y255014D01*
X718145Y255045D01*
X718122Y255045D01*
X718099Y255049D01*
X717948Y255041D01*
X717797Y255038D01*
X717774Y255033D01*
X717751Y255032D01*
X717606Y254990D01*
X717459Y254953D01*
X717434Y254941D01*
X717416Y254936D01*
X717375Y254913D01*
X717263Y254860D01*
X716609Y254684D01*
X716273Y254684D01*
G37*
%LPD*%
%LPC*%
G36*
X722773Y263701D02*
X722773Y263701D01*
X722773Y269672D01*
X723109Y269672D01*
X723755Y269499D01*
X724334Y269164D01*
X724807Y268691D01*
X725142Y268112D01*
X725315Y267466D01*
X725315Y263701D01*
X722773Y263701D01*
G37*
%LPD*%
%LPC*%
G36*
X722773Y205345D02*
X722773Y205345D01*
X722773Y211316D01*
X723109Y211316D01*
X723755Y211143D01*
X724334Y210808D01*
X724807Y210335D01*
X725142Y209756D01*
X725315Y209110D01*
X725315Y205345D01*
X722773Y205345D01*
G37*
%LPD*%
%LPC*%
G36*
X722773Y254684D02*
X722773Y254684D01*
X722773Y260655D01*
X725315Y260655D01*
X725315Y256890D01*
X725142Y256244D01*
X724807Y255665D01*
X724334Y255192D01*
X723755Y254857D01*
X723109Y254684D01*
X722773Y254684D01*
G37*
%LPD*%
%LPC*%
G36*
X722773Y196328D02*
X722773Y196328D01*
X722773Y202299D01*
X725315Y202299D01*
X725315Y198534D01*
X725142Y197888D01*
X724807Y197309D01*
X724334Y196836D01*
X723755Y196501D01*
X723109Y196328D01*
X722773Y196328D01*
G37*
%LPD*%
D10*
X56000Y210000D03*
D11*
X56000Y235400D03*
X56000Y260800D03*
X56000Y286200D03*
X56000Y311600D03*
X56000Y337000D03*
X56000Y362400D03*
X56000Y387800D03*
X56000Y413200D03*
X56000Y438600D03*
X56000Y464000D03*
X56000Y489400D03*
X56000Y514800D03*
X56000Y540200D03*
X56000Y565600D03*
X56000Y591000D03*
X81400Y210000D03*
X81400Y235400D03*
X81400Y260800D03*
X81400Y286200D03*
X81400Y311600D03*
X81400Y337000D03*
X81400Y362400D03*
X81400Y387800D03*
X81400Y413200D03*
X81400Y438600D03*
X81400Y464000D03*
X81400Y489400D03*
X81400Y514800D03*
X81400Y540200D03*
X81400Y565600D03*
X81400Y591000D03*
X106800Y210000D03*
X106800Y235400D03*
X106800Y260800D03*
X106800Y286200D03*
X106800Y311600D03*
X106800Y337000D03*
X106800Y362400D03*
X106800Y387800D03*
X106800Y413200D03*
X106800Y438600D03*
X106800Y464000D03*
X106800Y489400D03*
X106800Y514800D03*
X106800Y540200D03*
X106800Y565600D03*
X106800Y591000D03*
D12*
X468100Y773500D03*
X442700Y773500D03*
X417300Y773500D03*
X391900Y773500D03*
X391900Y646500D03*
X417300Y646500D03*
X442700Y646500D03*
X468100Y646500D03*
D13*
X662750Y203822D03*
X669250Y203822D03*
X675750Y203822D03*
X682250Y203822D03*
X688750Y203822D03*
X695250Y203822D03*
X701750Y203822D03*
X708250Y203822D03*
X714750Y203822D03*
X721250Y203822D03*
X721250Y262178D03*
X714750Y262178D03*
X708250Y262178D03*
X701750Y262178D03*
X695250Y262178D03*
X688750Y262178D03*
X682250Y262178D03*
X675750Y262178D03*
X669250Y262178D03*
X662750Y262178D03*
D14*
X936000Y269500D02*
X936000Y250500D01*
X799000Y250500D02*
X799000Y269500D01*
X814500Y312000D02*
X833500Y312000D01*
X936000Y149500D02*
X936000Y130500D01*
X799000Y130500D02*
X799000Y149500D01*
X814500Y192000D02*
X833500Y192000D01*
D15*
X300500Y290000D03*
D16*
X273810Y290000D02*
X266190Y290000D01*
D17*
X264920Y290000D03*
X275080Y290000D03*
D12*
X628100Y670167D03*
X602700Y670167D03*
X577300Y670167D03*
X551900Y670167D03*
X551900Y543167D03*
X577300Y543167D03*
X602700Y543167D03*
X628100Y543167D03*
X468100Y566833D03*
X442700Y566833D03*
X417300Y566833D03*
X391900Y566833D03*
X391900Y439833D03*
X417300Y439833D03*
X442700Y439833D03*
X468100Y439833D03*
X618100Y463500D03*
X592700Y463500D03*
X567300Y463500D03*
X541900Y463500D03*
X541900Y336500D03*
X567300Y336500D03*
X592700Y336500D03*
X618100Y336500D03*
D18*
X910000Y342500D03*
D19*
X910000Y367500D03*
X910000Y392500D03*
X910000Y417500D03*
D18*
X910000Y472500D03*
D19*
X910000Y497500D03*
X910000Y522500D03*
X910000Y547500D03*
D15*
X300500Y327500D03*
D16*
X273810Y327500D02*
X266190Y327500D01*
D17*
X264920Y327500D03*
X275080Y327500D03*
D15*
X300500Y365000D03*
D16*
X273810Y365000D02*
X266190Y365000D01*
D17*
X264920Y365000D03*
X275080Y365000D03*
D15*
X300500Y402500D03*
D16*
X273810Y402500D02*
X266190Y402500D01*
D17*
X264920Y402500D03*
X275080Y402500D03*
D15*
X300500Y440000D03*
D16*
X273810Y440000D02*
X266190Y440000D01*
D17*
X264920Y440000D03*
X275080Y440000D03*
D20*
X213620Y577800D02*
X198380Y577800D01*
X198380Y552400D02*
X213620Y552400D01*
X213620Y527000D02*
X198380Y527000D01*
X198380Y501600D02*
X213620Y501600D01*
X213620Y476200D02*
X198380Y476200D01*
X198380Y450800D02*
X213620Y450800D01*
X213620Y425400D02*
X198380Y425400D01*
X198380Y400000D02*
X213620Y400000D01*
X213620Y374600D02*
X198380Y374600D01*
X198380Y349200D02*
X213620Y349200D01*
X213620Y323800D02*
X198380Y323800D01*
X198380Y298400D02*
X213620Y298400D01*
X213620Y273000D02*
X198380Y273000D01*
X198380Y247600D02*
X213620Y247600D01*
X213620Y222200D02*
X198380Y222200D01*
D21*
X81400Y362400D02*
X56000Y362400D01*
D22*
X600000Y360000D03*
D23*
X902500Y360000D01*
X910000Y367500D01*
D24*
X475867Y600000D02*
X442700Y566833D01*
X532533Y600000D02*
X602700Y670167D01*
X532533Y600000D02*
X475867Y600000D01*
X552867Y720000D02*
X602700Y670167D01*
X496200Y720000D02*
X442700Y773500D01*
X496200Y720000D02*
X552867Y720000D01*
X443167Y566833D02*
X442700Y566833D01*
X566200Y490000D02*
X592700Y463500D01*
X520000Y490000D02*
X443167Y566833D01*
X520000Y490000D02*
X566200Y490000D01*
X442700Y773500D02*
X436500Y773500D01*
X426735Y783265D02*
X383265Y783265D01*
X270000Y517493D02*
X213975Y461468D01*
X193961Y461468D01*
X113567Y450000D02*
X112267Y451300D01*
D22*
X112267Y451300D03*
D24*
X436500Y773500D02*
X426735Y783265D01*
X383265Y783265D02*
X270000Y670000D01*
X270000Y517493D01*
D25*
X682250Y203822D02*
X682250Y192250D01*
X680000Y190000D01*
X670000Y190000D01*
X662750Y197250D01*
X662750Y203822D01*
X662750Y262178D01*
D24*
X114160Y450000D02*
X113567Y450000D01*
X114160Y450000D02*
X117130Y452970D01*
X185463Y452970D02*
X193961Y461468D01*
X185463Y452970D02*
X117130Y452970D01*
D25*
X660000Y264928D02*
X662750Y262178D01*
X660000Y264928D02*
X660000Y290000D01*
D22*
X660000Y290000D03*
X600000Y440000D03*
D25*
X592700Y447300D01*
X592700Y463500D01*
X701750Y274850D02*
X701750Y262178D01*
X701750Y274850D02*
X701200Y275400D01*
D22*
X701200Y275400D03*
X580000Y430000D03*
D25*
X575400Y430000D01*
X541900Y463500D01*
D22*
X124400Y425900D03*
D24*
X138500Y440000D01*
X230000Y440000D02*
X250000Y460000D01*
X310467Y460000D01*
X417300Y566833D02*
X460467Y610000D01*
X520000Y610000D01*
X577300Y667300D01*
X577300Y670167D01*
X537467Y710000D01*
X480800Y710000D02*
X417300Y773500D01*
X480800Y710000D02*
X537467Y710000D01*
X417300Y566833D02*
X504133Y480000D01*
X550800Y480000D02*
X565400Y465400D01*
X567300Y463500D01*
X550800Y480000D02*
X504133Y480000D01*
X396830Y537171D02*
X392829Y533170D01*
X383637Y533170D01*
X396830Y546363D02*
X417300Y566833D01*
X396830Y546363D02*
X396830Y537171D01*
X317171Y476830D02*
X313170Y472829D01*
X313170Y462703D02*
X310467Y460000D01*
X313170Y462703D02*
X313170Y472829D01*
X327297Y476830D02*
X383637Y533170D01*
X327297Y476830D02*
X317171Y476830D01*
X188346Y440000D02*
X138500Y440000D01*
X188346Y440000D02*
X192278Y436068D01*
X219722Y436068D01*
X223654Y440000D01*
X230000Y440000D01*
D22*
X670000Y290000D03*
D25*
X686568Y264360D02*
X688750Y262178D01*
X686568Y264360D02*
X686568Y268288D01*
X670000Y284856D02*
X670000Y290000D01*
X670000Y284856D02*
X686568Y268288D01*
D22*
X600000Y420000D03*
D25*
X565400Y454600D01*
X565400Y465400D01*
X112924Y444724D02*
X106800Y438600D01*
X112924Y444724D02*
X114991Y444724D01*
X194066Y440386D02*
X217934Y440386D01*
X224034Y446486D01*
X118919Y448652D02*
X114991Y444724D01*
X185800Y448652D02*
X194066Y440386D01*
X185800Y448652D02*
X118919Y448652D01*
X320000Y560000D02*
X320000Y650000D01*
X340000Y670000D01*
X525200Y670000D02*
X545400Y649800D01*
D22*
X545400Y649800D03*
X700000Y290000D03*
D25*
X700000Y285800D01*
X224034Y446486D02*
X224034Y464034D01*
X320000Y560000D01*
X340000Y670000D02*
X525200Y670000D01*
X694624Y272676D02*
X695250Y272050D01*
X695250Y262178D01*
X694624Y280424D02*
X700000Y285800D01*
X694624Y280424D02*
X694624Y272676D01*
D23*
X930000Y502500D02*
X910000Y522500D01*
X930000Y502500D02*
X930000Y400000D01*
X922500Y392500D01*
X910000Y392500D01*
D25*
X537500Y392500D01*
X460000Y470000D02*
X320000Y470000D01*
D22*
X320000Y470000D03*
X300000Y470000D03*
D25*
X240000Y470000D01*
D22*
X240000Y470000D03*
X156700Y459800D03*
D25*
X111000Y459800D01*
X106800Y464000D01*
X460000Y470000D02*
X537500Y392500D01*
X119400Y489400D02*
X106800Y489400D01*
X170000Y540000D02*
X260000Y540000D01*
D22*
X260000Y540000D03*
X370000Y560000D03*
D25*
X390000Y540000D01*
D22*
X390000Y540000D03*
X580000Y450000D03*
D25*
X877500Y450000D02*
X878750Y448750D01*
X910000Y417500D01*
X170000Y540000D02*
X119400Y489400D01*
X878750Y516250D02*
X910000Y547500D01*
X878750Y516250D02*
X878750Y448750D01*
X600000Y430000D02*
X580000Y450000D01*
X600000Y430000D02*
X860000Y430000D01*
X878750Y448750D01*
X42666Y347334D02*
X40000Y350000D01*
X40000Y371800D02*
X56000Y387800D01*
X40000Y371800D02*
X40000Y350000D01*
X184664Y243536D02*
X206000Y222200D01*
X184664Y243536D02*
X180717Y243536D01*
X91734Y341281D02*
X85681Y347334D01*
X117134Y307119D02*
X180717Y243536D01*
X117134Y307119D02*
X117134Y315881D01*
X85681Y347334D02*
X42666Y347334D01*
X110413Y322602D02*
X117134Y315881D01*
X110413Y322602D02*
X100836Y322602D01*
X91734Y331704D01*
X91734Y341281D01*
X182400Y247600D02*
X206000Y247600D01*
X102520Y326666D02*
X96466Y332720D01*
X121198Y308802D02*
X182400Y247600D01*
X121198Y308802D02*
X121198Y317564D01*
X112096Y326666D01*
X102520Y326666D01*
X96466Y332720D02*
X96466Y342296D01*
X87364Y351398D01*
X52388Y351398D02*
X45666Y358120D01*
X60281Y377466D02*
X66334Y383520D01*
X56452Y377466D02*
X45666Y366681D01*
X56452Y377466D02*
X60281Y377466D01*
X56000Y402415D02*
X56000Y413200D01*
X52388Y351398D02*
X87364Y351398D01*
X45666Y358120D02*
X45666Y366681D01*
X66334Y383520D02*
X66334Y392081D01*
X56000Y402415D01*
X177000Y273000D02*
X206000Y273000D01*
X111081Y372734D02*
X102520Y372734D01*
X99786Y370000D01*
X90000Y370000D01*
X82534Y377466D01*
X77120Y377466D01*
X70398Y393764D02*
X70000Y394162D01*
X70398Y384188D02*
X77120Y377466D01*
X70398Y384188D02*
X70398Y393764D01*
X120000Y330000D02*
X177000Y273000D01*
X120000Y330000D02*
X120000Y334253D01*
X117134Y337119D01*
X117134Y366681D01*
X111081Y372734D01*
X70000Y394162D02*
X70000Y404238D01*
X66334Y407904D01*
X66334Y417481D02*
X65936Y417879D01*
X66334Y417481D02*
X66334Y407904D01*
X65936Y417879D02*
X65936Y427955D01*
X62938Y430953D01*
X62938Y431662D01*
X56000Y438600D01*
X161600Y298400D02*
X206000Y298400D01*
X121198Y368364D02*
X120000Y369562D01*
X120000Y370000D01*
X121198Y368364D02*
X121198Y338802D01*
X102520Y377466D02*
X96466Y383520D01*
X77120Y402866D02*
X71066Y408920D01*
X112534Y377466D02*
X120000Y370000D01*
X112534Y377466D02*
X102520Y377466D01*
X96466Y383520D02*
X96466Y387349D01*
X80949Y402866D01*
X77120Y402866D01*
X71066Y408920D02*
X71066Y409332D01*
X70398Y410000D01*
X70398Y419164D01*
X70000Y419562D01*
X121198Y338802D02*
X161600Y298400D01*
X70000Y419562D02*
X70000Y429638D01*
X67002Y432636D01*
X67002Y447251D02*
X65936Y448317D01*
X67002Y447251D02*
X67002Y432636D01*
X65936Y448317D02*
X65936Y453355D01*
X62938Y456353D01*
X62938Y457062D01*
X56000Y464000D01*
D23*
X260000Y290000D02*
X264920Y290000D01*
X226200Y323800D02*
X206000Y323800D01*
X226200Y323800D02*
X260000Y290000D01*
D25*
X206000Y323800D02*
X185415Y323800D01*
X111081Y398134D01*
X91734Y417481D02*
X90000Y419215D01*
X90000Y420000D01*
X77120Y428266D02*
X71066Y434320D01*
X81734Y428266D02*
X90000Y420000D01*
X81734Y428266D02*
X77120Y428266D01*
X71066Y448934D02*
X70000Y450000D01*
X71066Y448934D02*
X71066Y434320D01*
X91734Y407904D02*
X101504Y398134D01*
X111081Y398134D01*
X91734Y407904D02*
X91734Y417481D01*
X70000Y455038D02*
X67002Y458036D01*
X67002Y458745D01*
X70000Y455038D02*
X70000Y450000D01*
X66334Y468281D02*
X65936Y468679D01*
X66334Y468281D02*
X66334Y459413D01*
X67002Y458745D01*
X65936Y468679D02*
X65936Y478755D01*
X62938Y481753D01*
X62938Y482462D01*
X56000Y489400D01*
D23*
X242500Y327500D02*
X264920Y327500D01*
X220800Y349200D02*
X206000Y349200D01*
X220800Y349200D02*
X242500Y327500D01*
D25*
X206000Y349200D02*
X170800Y349200D01*
X102520Y402866D02*
X96466Y408920D01*
X117134Y402866D02*
X170800Y349200D01*
X117134Y402866D02*
X102520Y402866D01*
X71066Y459720D02*
X71066Y460429D01*
X81852Y448934D02*
X85681Y448934D01*
X81852Y448934D02*
X71066Y459720D01*
X70398Y461097D02*
X70398Y469964D01*
X70000Y470362D01*
X70398Y461097D02*
X71066Y460429D01*
X96466Y427787D02*
X96466Y408920D01*
X91734Y442881D02*
X85681Y448934D01*
X91734Y432519D02*
X96466Y427787D01*
X91734Y432519D02*
X91734Y442881D01*
X70000Y470362D02*
X70000Y480438D01*
X67002Y483436D01*
X67002Y497251D02*
X65936Y498317D01*
X65936Y504864D02*
X56000Y514800D01*
X67002Y497251D02*
X67002Y483436D01*
X65936Y498317D02*
X65936Y504864D01*
D23*
X245000Y365000D02*
X264920Y365000D01*
X235400Y374600D02*
X206000Y374600D01*
X235400Y374600D02*
X245000Y365000D01*
D25*
X111081Y423534D02*
X106466Y423534D01*
X160015Y374600D02*
X206000Y374600D01*
X160015Y374600D02*
X111081Y423534D01*
X106466Y423534D02*
X95798Y434202D01*
X77120Y479066D02*
X71066Y485120D01*
X80949Y479066D02*
X95798Y464217D01*
X80949Y479066D02*
X77120Y479066D01*
X71066Y498934D02*
X70000Y500000D01*
X71066Y498934D02*
X71066Y485120D01*
X70000Y526200D02*
X56000Y540200D01*
X95798Y464217D02*
X95798Y434202D01*
X70000Y500000D02*
X70000Y526200D01*
D23*
X242500Y402500D02*
X264920Y402500D01*
X242500Y402500D02*
X240000Y400000D01*
X206000Y400000D01*
X250000Y440000D02*
X264920Y440000D01*
X235400Y425400D02*
X206000Y425400D01*
X235400Y425400D02*
X250000Y440000D01*
D25*
X169800Y577800D02*
X106800Y514800D01*
X169800Y577800D02*
X206000Y577800D01*
X896000Y220000D02*
X936000Y260000D01*
X896000Y220000D02*
X870000Y220000D01*
D22*
X870000Y220000D03*
X710000Y220000D03*
D25*
X700000Y220000D01*
X695250Y215250D01*
X695250Y203822D01*
X886000Y90000D02*
X936000Y140000D01*
X760000Y90000D02*
X740000Y110000D01*
D22*
X740000Y110000D03*
X700000Y170000D03*
D25*
X708300Y203772D02*
X708250Y203822D01*
X708300Y203772D02*
X708300Y178300D01*
X700000Y170000D01*
X760000Y90000D02*
X886000Y90000D01*
D23*
X300500Y290000D02*
X275080Y290000D01*
D25*
X708250Y291750D02*
X708250Y262178D01*
X708250Y291750D02*
X700000Y300000D01*
X310500Y300000D01*
X300500Y290000D01*
D23*
X300500Y327500D02*
X275080Y327500D01*
X275080Y365000D02*
X300500Y365000D01*
X300500Y402500D02*
X275080Y402500D01*
D22*
X380000Y400000D03*
D24*
X356600Y400000D02*
X353900Y402700D01*
X300700Y402700D01*
X300500Y402500D01*
X356600Y400000D02*
X380000Y400000D01*
D23*
X300500Y440000D02*
X278890Y440000D01*
X275080Y440000D02*
X300500Y440000D01*
D24*
X340000Y594600D02*
X391900Y646500D01*
X340000Y594600D02*
X340000Y500000D01*
D22*
X340000Y500000D03*
M02*
