M48
;GenerationSoftware,Autodesk,EAGLE,9.6.2*%
;CreationDate,2021-09-13T12:11:20Z*%
FMAT,2
ICI,OFF
METRIC,TZ,000.000
T7C0.350
T6C0.800
T5C1.000
T4C1.016
T3C1.400
T2C2.250
T1C2.800
%
G90
M71
T1
X3060Y64180
X3060Y15920
T2
X2840Y5640
X2840Y74360
X97160Y74360
X97160Y5640
T3
X91000Y15235
X91000Y19045
X91000Y22855
X91000Y26665
X91000Y30475
X91000Y34285
X91000Y38095
X91000Y41905
X91000Y45715
X91000Y49525
X91000Y53335
X91000Y57145
X91000Y60955
X91000Y64765
T4
X29510Y47890
X29510Y50430
X29510Y52970
X26300Y40300
X29510Y58050
X29510Y60590
X29510Y63130
X29510Y65670
X29510Y68210
X14270Y68210
X14270Y65670
X14270Y63130
X14270Y60590
X14270Y58050
X14270Y55510
X14270Y52970
X14270Y50430
X14270Y47890
X14270Y45350
X14270Y42810
X14270Y40270
X29510Y45350
X29510Y42810
X29510Y40270
X26589Y56907
X26589Y59447
X29510Y55510
T5
X10680Y38780
X10680Y33700
X10680Y59100
X10680Y56560
X10680Y54020
X10680Y51480
X10680Y48940
X10680Y46400
X10680Y43860
X10680Y41320
X10680Y36240
X5600Y21000
X5600Y23540
X5600Y26080
X5600Y28620
X5600Y31160
X5600Y33700
X5600Y36240
X5600Y38780
X5600Y41320
X5600Y43860
X5600Y46400
X5600Y48940
X5600Y51480
X5600Y54020
X5600Y56560
X5600Y59100
X8140Y21000
X8140Y23540
X8140Y26080
X8140Y28620
X8140Y31160
X8140Y33700
X8140Y36240
X8140Y38780
X8140Y41320
X8140Y43860
X8140Y46400
X8140Y48940
X8140Y51480
X8140Y54020
X8140Y56560
X8140Y59100
X10680Y21000
X10680Y23540
X10680Y26080
X10680Y28620
X10680Y31160
T6
X74690Y57070
X52310Y57070
X44690Y54530
X44690Y57070
X67310Y54530
X59690Y54530
X67310Y57070
X59690Y57070
X82310Y54530
X74690Y54530
X82310Y57070
X22310Y10530
X14690Y10530
X22310Y13070
X14690Y13070
X52310Y54530
X76690Y36070
X84310Y36070
X76690Y33530
X84310Y33530
X61690Y36070
X69310Y36070
X61690Y33530
X69310Y33530
X46690Y36070
X54310Y36070
X46690Y33530
X54310Y33530
X32690Y36070
X40310Y36070
X32690Y33530
X40310Y33530
X74690Y13070
X82310Y13070
X74690Y10530
X82310Y10530
X59690Y13070
X67310Y13070
X59690Y10530
X67310Y10530
X44690Y13070
X52310Y13070
X44690Y10530
X52310Y10530
X29690Y13070
X37310Y13070
X29690Y10530
X37310Y10530
T7
X13000Y32000
X17000Y34000
X15000Y34000
X73200Y63400
X72000Y57400
X29000Y37000
X27000Y29000
X13000Y30000
X15000Y30000
X17000Y32000
X17000Y30000
X15000Y32000
X15270Y41730
X13000Y36000
X39000Y10000
X74000Y28000
X43000Y31000
X23000Y30000
X26000Y49000
X86500Y19300
X56000Y21000
X86000Y22400
X70000Y24000
X78500Y30300
X58000Y47000
X88000Y42000
X71000Y48000
X57000Y52000
X70000Y63000
X29000Y21000
X14000Y24000
X9500Y52600
X40000Y28000
X15453Y46347
X32000Y45912
X71000Y14000
X42000Y7683
X26000Y51000
X40020Y19020
X40019Y29019
X55000Y55000
X56000Y45000
X40000Y56000
X62000Y50199
X46000Y49000
X34000Y54000
X41000Y57000
X37000Y58000
X72400Y64600
X75000Y64600
X83000Y63000
X35000Y66000
M30