M48
;GenerationSoftware,Autodesk,EAGLE,9.6.2*%
;CreationDate,2021-10-17T22:52:04Z*%
FMAT,2
ICI,OFF
METRIC,TZ,000.000
T7C0.350
T6C0.800
T5C1.000
T4C1.016
T3C1.400
T2C2.800
T1C3.400
%
G90
M71
T1
X2840Y5640
X2840Y74360
X97160Y74360
X97160Y5640
T2
X3060Y64180
X3060Y15920
T3
X95000Y64765
X95000Y60955
X95000Y57145
X95000Y53335
X95000Y49525
X95000Y45715
X95000Y41905
X95000Y38095
X95000Y34285
X95000Y30475
X95000Y26665
X95000Y22855
X95000Y19045
X95000Y15235
T4
X29550Y55480
X29550Y58020
X29550Y60560
X29550Y63100
X29550Y65640
X29550Y68180
X40500Y67910
X40500Y65370
X40500Y62830
X17231Y49003
X37000Y67910
X37000Y65370
X37000Y62830
X37000Y60290
X33500Y67910
X33500Y65370
X33500Y62830
X33500Y60290
X25300Y42590
X29550Y52940
X29550Y50400
X29550Y47860
X29550Y45320
X29550Y42780
X29550Y40240
X14310Y40240
X14310Y42780
X14310Y45320
X14310Y47860
X14310Y50400
X14310Y52940
X14310Y55480
X14310Y58020
X14310Y60560
X14310Y63100
X14310Y65640
X14310Y68180
X17231Y51543
X40500Y60290
T5
X8140Y46400
X5600Y48940
X10680Y59100
X10680Y56560
X10680Y54020
X10680Y51480
X10680Y48940
X10680Y46400
X10680Y43860
X10680Y41320
X10680Y38780
X10680Y36240
X10680Y33700
X10680Y31160
X10680Y28620
X10680Y26080
X10680Y23540
X10680Y21000
X8140Y59100
X8140Y56560
X8140Y54020
X8140Y51480
X8140Y48940
X8140Y43860
X8140Y41320
X8140Y38780
X8140Y36240
X8140Y33700
X8140Y31160
X8140Y28620
X8140Y26080
X8140Y23540
X8140Y21000
X5600Y59100
X5600Y56560
X5600Y54020
X5600Y51480
X5600Y21000
X5600Y23540
X5600Y26080
X5600Y28620
X5600Y31160
X5600Y33700
X5600Y36240
X5600Y38780
X5600Y41320
X5600Y43860
X5600Y46400
T6
X74690Y57070
X67310Y10530
X59690Y10530
X67310Y13070
X59690Y13070
X82310Y10530
X74690Y10530
X82310Y13070
X74690Y13070
X40310Y33530
X32690Y33530
X40310Y36070
X32690Y36070
X54310Y33530
X46690Y33530
X44690Y13070
X54310Y36070
X46690Y36070
X69310Y33530
X61690Y33530
X69310Y36070
X61690Y36070
X84310Y33530
X76690Y33530
X84310Y36070
X76690Y36070
X52310Y54530
X44690Y54530
X52310Y57070
X44690Y57070
X67310Y54530
X59690Y54530
X67310Y57070
X59690Y57070
X82310Y54530
X74690Y54530
X82310Y57070
X22310Y10530
X14690Y10530
X22310Y13070
X14690Y13070
X52310Y13070
X44690Y10530
X52310Y10530
X29690Y13070
X37310Y13070
X29690Y10530
X37310Y10530
T7
X40000Y28000
X27850Y51730
X27000Y55000
X27000Y58000
X16000Y55000
X9500Y52600
X14000Y24000
X32000Y45912
X71000Y14000
X15995Y53317
X42000Y7683
X40020Y19020
X40019Y29019
X25000Y58000
X32480Y49670
X30810Y48680
X31000Y52167
X41823Y50823
X46400Y46600
X57000Y44000
X31290Y61450
X27030Y62050
X27000Y64000
X12000Y36000
X31864Y69100
X6922Y52078
X6610Y49967
X9797Y48007
X15400Y71293
X12019Y67981
X25487Y61773
X26060Y53920
X26000Y48000
X27000Y44000
X25000Y52000
X31708Y57852
X38000Y58000
X72400Y64600
X75000Y64600
X83000Y63000
X12200Y50440
X26000Y51000
X28250Y53730
X27000Y59000
X31370Y56745
X55000Y55000
X41000Y57000
X26000Y61000
X34000Y54000
X46000Y49000
X61000Y50199
X29000Y21000
X70000Y63000
X57000Y52000
X71000Y48000
X88000Y42000
X58000Y47000
X78500Y30300
X70000Y24000
X86000Y22400
X56000Y21000
X86500Y19300
X23214Y29000
X43000Y31000
X74000Y28000
X39000Y10000
X4000Y52000
X4592Y45592
X6620Y47680
X7593Y45130
X9370Y50750
X15680Y46270
X25000Y46270
X24200Y33000
X15000Y38000
X15000Y32000
X17000Y30000
X17000Y32000
X15000Y30000
X13000Y30000
X13000Y32000
X17000Y34000
X15000Y34000
X16000Y38000
X44434Y66000
X42981Y64019
X73200Y63400
X72000Y57400
X30000Y37000
X27000Y29000
M30